# MagicaVoxel @ Ephtracy

# group
o 

# material
mtllib decVines2-0.mtl
usemtl palette

# normals
vn -1 0 0
vn 1 0 0
vn 0 0 1
vn 0 0 -1
vn 0 -1 0
vn 0 1 0

# texcoords
vt 0.634766 0.5
vt 0.697266 0.5

# verts
v -0.4 -0.4 0.3
v -0.4 -0.4 0.2
v -0.4 -0.4 0.1
v -0.4 -0.4 0
v -0.4 -0.3 0.3
v -0.4 -0.3 0.2
v -0.4 -0.3 0.1
v -0.4 -0.3 0
v -0.3 -0.4 0.4
v -0.3 -0.4 0.3
v -0.3 -0.4 -0.1
v -0.3 -0.4 -0.2
v -0.3 -0.3 0.4
v -0.3 -0.3 0.3
v -0.3 -0.3 -0.1
v -0.3 -0.3 -0.2
v -0.2 -0.4 0
v -0.2 -0.4 -0.1
v -0.2 -0.3 0
v -0.2 -0.3 -0.1
v -0.1 -0.4 0.2
v -0.1 -0.4 0.1
v -0.1 -0.3 0.2
v -0.1 -0.3 0.1
v 0.1 -0.4 0.4
v 0.1 -0.4 0.3
v 0.1 -0.4 0.2
v 0.1 -0.4 -0.3
v 0.1 -0.3 0.4
v 0.1 -0.3 0.3
v 0.1 -0.3 0.2
v 0.1 -0.3 0.1
v 0.1 -0.3 -0.2
v 0.1 -0.3 -0.3
v 0.1 -0.2 0.2
v 0.1 -0.2 0.1
v 0.1 -0.2 -0.2
v 0.1 -0.2 -0.3
v 0.3 -0.4 0
v 0.3 -0.4 -0.1
v 0.3 -0.3 0
v 0.3 -0.3 -0.1
v -0.2 -0.4 0.4
v -0.2 -0.4 0.3
v -0.2 -0.3 0.4
v -0.2 -0.3 0.3
v -0.1 -0.4 0.1
v -0.1 -0.4 -0.1
v -0.1 -0.3 0.1
v -0.1 -0.3 -0.1
v 0 -0.4 0.2
v 0 -0.4 0.1
v 0 -0.4 -0.1
v 0 -0.4 -0.2
v 0 -0.3 0.2
v 0 -0.3 0.1
v 0 -0.3 -0.1
v 0 -0.3 -0.2
v 0.2 -0.4 0.4
v 0.2 -0.4 0.3
v 0.2 -0.4 0.1
v 0.2 -0.4 0
v 0.2 -0.4 -0.2
v 0.2 -0.3 0.4
v 0.2 -0.3 0.3
v 0.2 -0.3 0.2
v 0.2 -0.3 0.1
v 0.2 -0.3 0
v 0.2 -0.3 -0.2
v 0.2 -0.3 -0.3
v 0.2 -0.2 0.2
v 0.2 -0.2 0.1
v 0.2 -0.2 -0.2
v 0.2 -0.2 -0.3
v 0.4 -0.4 0.1
v 0.4 -0.4 0
v 0.4 -0.4 -0.1
v 0.4 -0.4 -0.2
v 0.4 -0.4 -0.3
v 0.4 -0.3 0.1
v 0.4 -0.3 0
v 0.4 -0.3 -0.1
v 0.4 -0.3 -0.2
v 0.4 -0.3 -0.3
v -0.3 -0.4 0.4
v -0.3 -0.3 0.4
v -0.2 -0.4 0.4
v -0.2 -0.3 0.4
v 0.1 -0.4 0.4
v 0.1 -0.3 0.4
v 0.2 -0.4 0.4
v 0.2 -0.3 0.4
v -0.4 -0.4 0.3
v -0.4 -0.3 0.3
v -0.3 -0.4 0.3
v -0.3 -0.3 0.3
v -0.2 -0.4 0.3
v -0.2 -0.3 0.3
v 0.1 -0.4 0.3
v 0.1 -0.3 0.3
v 0.1 -0.3 0.2
v 0.1 -0.2 0.2
v 0.2 -0.3 0.2
v 0.2 -0.2 0.2
v -0.4 -0.4 0.1
v -0.4 -0.3 0.1
v -0.1 -0.4 0.1
v -0.1 -0.3 0.1
v 0.2 -0.4 0.1
v 0.2 -0.3 0.1
v 0.4 -0.4 0.1
v 0.4 -0.3 0.1
v -0.3 -0.4 -0.1
v -0.3 -0.3 -0.1
v -0.2 -0.4 -0.1
v -0.2 -0.3 -0.1
v -0.1 -0.4 -0.1
v -0.1 -0.3 -0.1
v 0 -0.4 -0.1
v 0 -0.3 -0.1
v 0.1 -0.3 -0.2
v 0.1 -0.2 -0.2
v 0.2 -0.4 -0.2
v 0.2 -0.3 -0.2
v 0.2 -0.2 -0.2
v 0.4 -0.4 -0.2
v 0.4 -0.3 -0.2
v -0.4 -0.4 0.2
v -0.4 -0.3 0.2
v -0.1 -0.4 0.2
v -0.1 -0.3 0.2
v 0 -0.4 0.2
v 0 -0.3 0.2
v 0.1 -0.4 0.2
v 0.1 -0.3 0.2
v -0.1 -0.4 0.1
v -0.1 -0.3 0.1
v 0 -0.4 0.1
v 0 -0.3 0.1
v 0.1 -0.3 0.1
v 0.1 -0.2 0.1
v 0.2 -0.3 0.1
v 0.2 -0.2 0.1
v -0.4 -0.4 0
v -0.4 -0.3 0
v -0.2 -0.4 0
v -0.2 -0.3 0
v 0.2 -0.4 0
v 0.2 -0.3 0
v 0.3 -0.4 0
v 0.3 -0.3 0
v 0.3 -0.4 -0.1
v 0.3 -0.3 -0.1
v 0.4 -0.4 -0.1
v 0.4 -0.3 -0.1
v -0.3 -0.4 -0.2
v -0.3 -0.3 -0.2
v -0.2 -0.4 -0.2
v -0.2 -0.3 -0.2
v 0 -0.4 -0.2
v 0 -0.3 -0.2
v 0.1 -0.4 -0.3
v 0.1 -0.3 -0.3
v 0.1 -0.2 -0.3
v 0.2 -0.3 -0.3
v 0.2 -0.2 -0.3
v 0.4 -0.4 -0.3
v 0.4 -0.3 -0.3
v -0.3 -0.4 0.4
v -0.2 -0.4 0.4
v 0.1 -0.4 0.4
v 0.2 -0.4 0.4
v -0.4 -0.4 0.3
v -0.3 -0.4 0.3
v -0.2 -0.4 0.3
v 0.1 -0.4 0.3
v 0.2 -0.4 0.3
v -0.4 -0.4 0.2
v -0.1 -0.4 0.2
v 0 -0.4 0.2
v 0.1 -0.4 0.2
v -0.4 -0.4 0.1
v -0.1 -0.4 0.1
v 0 -0.4 0.1
v 0.2 -0.4 0.1
v 0.4 -0.4 0.1
v -0.4 -0.4 0
v -0.2 -0.4 0
v 0.2 -0.4 0
v 0.3 -0.4 0
v 0.4 -0.4 0
v -0.3 -0.4 -0.1
v -0.2 -0.4 -0.1
v -0.1 -0.4 -0.1
v 0 -0.4 -0.1
v 0.3 -0.4 -0.1
v 0.4 -0.4 -0.1
v -0.3 -0.4 -0.2
v -0.2 -0.4 -0.2
v 0 -0.4 -0.2
v 0.2 -0.4 -0.2
v 0.4 -0.4 -0.2
v 0.1 -0.4 -0.3
v 0.4 -0.4 -0.3
v -0.3 -0.3 0.4
v -0.2 -0.3 0.4
v 0.1 -0.3 0.4
v 0.2 -0.3 0.4
v -0.4 -0.3 0.3
v -0.3 -0.3 0.3
v -0.2 -0.3 0.3
v 0.1 -0.3 0.3
v 0.2 -0.3 0.3
v -0.4 -0.3 0.2
v -0.1 -0.3 0.2
v 0 -0.3 0.2
v 0.1 -0.3 0.2
v 0.2 -0.3 0.2
v -0.4 -0.3 0.1
v -0.1 -0.3 0.1
v 0 -0.3 0.1
v 0.1 -0.3 0.1
v 0.2 -0.3 0.1
v 0.4 -0.3 0.1
v -0.4 -0.3 0
v -0.2 -0.3 0
v 0.2 -0.3 0
v 0.3 -0.3 0
v 0.4 -0.3 0
v -0.3 -0.3 -0.1
v -0.2 -0.3 -0.1
v -0.1 -0.3 -0.1
v 0 -0.3 -0.1
v 0.3 -0.3 -0.1
v 0.4 -0.3 -0.1
v -0.3 -0.3 -0.2
v -0.2 -0.3 -0.2
v 0 -0.3 -0.2
v 0.1 -0.3 -0.2
v 0.2 -0.3 -0.2
v 0.4 -0.3 -0.2
v 0.2 -0.3 -0.3
v 0.4 -0.3 -0.3
v 0.1 -0.2 0.2
v 0.2 -0.2 0.2
v 0.1 -0.2 0.1
v 0.2 -0.2 0.1
v 0.1 -0.2 -0.2
v 0.2 -0.2 -0.2
v 0.1 -0.2 -0.3
v 0.2 -0.2 -0.3

# faces
f 5/2/1 2/2/1 1/2/1
f 6/2/1 2/2/1 5/2/1
f 7/2/1 4/2/1 3/2/1
f 8/2/1 4/2/1 7/2/1
f 13/1/1 10/1/1 9/1/1
f 14/1/1 10/1/1 13/1/1
f 15/1/1 12/1/1 11/1/1
f 16/1/1 12/1/1 15/1/1
f 19/2/1 18/2/1 17/2/1
f 20/2/1 18/2/1 19/2/1
f 23/1/1 22/1/1 21/1/1
f 24/1/1 22/1/1 23/1/1
f 29/1/1 26/1/1 25/1/1
f 30/1/1 26/1/1 29/1/1
f 31/2/1 28/2/1 27/2/1
f 32/2/1 28/2/1 31/2/1
f 33/2/1 28/2/1 32/2/1
f 34/2/1 28/2/1 33/2/1
f 35/1/1 32/1/1 31/1/1
f 36/1/1 32/1/1 35/1/1
f 37/1/1 34/1/1 33/1/1
f 38/1/1 34/1/1 37/1/1
f 41/1/1 40/1/1 39/1/1
f 42/1/1 40/1/1 41/1/1
f 43/1/2 44/1/2 45/1/2
f 45/1/2 44/1/2 46/1/2
f 47/2/2 48/2/2 49/2/2
f 49/2/2 48/2/2 50/2/2
f 51/1/2 52/1/2 55/1/2
f 55/1/2 52/1/2 56/1/2
f 53/2/2 54/2/2 57/2/2
f 57/2/2 54/2/2 58/2/2
f 59/1/2 60/1/2 64/1/2
f 60/2/2 61/2/2 65/2/2
f 64/1/2 60/1/2 65/1/2
f 65/2/2 61/2/2 66/2/2
f 66/2/2 61/2/2 67/2/2
f 62/2/2 63/2/2 68/2/2
f 68/2/2 63/2/2 69/2/2
f 66/1/2 67/1/2 71/1/2
f 71/1/2 67/1/2 72/1/2
f 69/1/2 70/1/2 73/1/2
f 73/1/2 70/1/2 74/1/2
f 75/2/2 76/2/2 80/2/2
f 76/1/2 77/1/2 81/1/2
f 80/2/2 76/2/2 81/2/2
f 81/1/2 77/1/2 82/1/2
f 78/2/2 79/2/2 83/2/2
f 83/2/2 79/2/2 84/2/2
f 87/1/3 86/1/3 85/1/3
f 88/1/3 86/1/3 87/1/3
f 91/1/3 90/1/3 89/1/3
f 92/1/3 90/1/3 91/1/3
f 95/2/3 94/2/3 93/2/3
f 96/2/3 94/2/3 95/2/3
f 99/2/3 98/2/3 97/2/3
f 100/2/3 98/2/3 99/2/3
f 103/1/3 102/1/3 101/1/3
f 104/1/3 102/1/3 103/1/3
f 107/2/3 106/2/3 105/2/3
f 108/2/3 106/2/3 107/2/3
f 111/2/3 110/2/3 109/2/3
f 112/2/3 110/2/3 111/2/3
f 115/1/3 114/1/3 113/1/3
f 116/1/3 114/1/3 115/1/3
f 119/2/3 118/2/3 117/2/3
f 120/2/3 118/2/3 119/2/3
f 124/1/3 122/1/3 121/1/3
f 125/1/3 122/1/3 124/1/3
f 126/2/3 124/2/3 123/2/3
f 127/2/3 124/2/3 126/2/3
f 128/2/4 129/2/4 130/2/4
f 130/2/4 129/2/4 131/2/4
f 132/2/4 133/2/4 134/2/4
f 134/2/4 133/2/4 135/2/4
f 136/1/4 137/1/4 138/1/4
f 138/1/4 137/1/4 139/1/4
f 140/1/4 141/1/4 142/1/4
f 142/1/4 141/1/4 143/1/4
f 144/2/4 145/2/4 146/2/4
f 146/2/4 145/2/4 147/2/4
f 148/2/4 149/2/4 150/2/4
f 150/2/4 149/2/4 151/2/4
f 152/1/4 153/1/4 154/1/4
f 154/1/4 153/1/4 155/1/4
f 156/1/4 157/1/4 158/1/4
f 158/1/4 157/1/4 159/1/4
f 158/2/4 159/2/4 160/2/4
f 160/2/4 159/2/4 161/2/4
f 162/2/4 163/2/4 165/2/4
f 163/1/4 164/1/4 165/1/4
f 165/1/4 164/1/4 166/1/4
f 162/2/4 165/2/4 167/2/4
f 167/2/4 165/2/4 168/2/4
f 174/1/5 170/1/5 169/1/5
f 175/1/5 170/1/5 174/1/5
f 176/1/5 172/1/5 171/1/5
f 177/1/5 172/1/5 176/1/5
f 178/2/5 175/2/5 174/2/5
f 178/2/5 174/2/5 173/2/5
f 178/2/5 177/2/5 176/2/5
f 178/2/5 176/2/5 175/2/5
f 179/2/5 177/2/5 178/2/5
f 180/2/5 177/2/5 179/2/5
f 181/2/5 177/2/5 180/2/5
f 183/1/5 180/1/5 179/1/5
f 184/1/5 180/1/5 183/1/5
f 185/2/5 177/2/5 181/2/5
f 187/2/5 183/2/5 182/2/5
f 188/2/5 183/2/5 187/2/5
f 189/2/5 185/2/5 181/2/5
f 189/2/5 186/2/5 185/2/5
f 190/2/5 186/2/5 189/2/5
f 191/2/5 186/2/5 190/2/5
f 193/2/5 183/2/5 188/2/5
f 194/2/5 183/2/5 193/2/5
f 196/1/5 191/1/5 190/1/5
f 197/1/5 191/1/5 196/1/5
f 198/1/5 193/1/5 192/1/5
f 199/2/5 195/2/5 194/2/5
f 199/1/5 193/1/5 198/1/5
f 199/2/5 194/2/5 193/2/5
f 200/2/5 195/2/5 199/2/5
f 201/2/5 189/2/5 181/2/5
f 203/2/5 202/2/5 201/2/5
f 203/2/5 201/2/5 181/2/5
f 204/2/5 202/2/5 203/2/5
f 205/1/6 206/1/6 210/1/6
f 210/1/6 206/1/6 211/1/6
f 207/1/6 208/1/6 212/1/6
f 212/1/6 208/1/6 213/1/6
f 210/2/6 211/2/6 214/2/6
f 209/2/6 210/2/6 214/2/6
f 212/2/6 213/2/6 214/2/6
f 211/2/6 212/2/6 214/2/6
f 214/2/6 213/2/6 215/2/6
f 215/2/6 213/2/6 216/2/6
f 216/2/6 213/2/6 217/2/6
f 217/2/6 213/2/6 218/2/6
f 215/1/6 216/1/6 220/1/6
f 220/1/6 216/1/6 221/1/6
f 219/2/6 220/2/6 225/2/6
f 225/2/6 220/2/6 226/2/6
f 222/2/6 223/2/6 227/2/6
f 223/2/6 224/2/6 227/2/6
f 227/2/6 224/2/6 228/2/6
f 228/2/6 224/2/6 229/2/6
f 226/2/6 220/2/6 231/2/6
f 231/2/6 220/2/6 232/2/6
f 228/1/6 229/1/6 234/1/6
f 234/1/6 229/1/6 235/1/6
f 230/1/6 231/1/6 236/1/6
f 232/2/6 233/2/6 237/2/6
f 236/1/6 231/1/6 237/1/6
f 231/2/6 232/2/6 237/2/6
f 237/2/6 233/2/6 238/2/6
f 222/2/6 227/2/6 239/2/6
f 239/2/6 227/2/6 240/2/6
f 240/2/6 241/2/6 242/2/6
f 242/2/6 241/2/6 243/2/6
f 244/1/6 245/1/6 246/1/6
f 246/1/6 245/1/6 247/1/6
f 248/1/6 249/1/6 250/1/6
f 250/1/6 249/1/6 251/1/6
