# MagicaVoxel @ Ephtracy

# group
o 

# material
mtllib decVines1-0.mtl
usemtl palette

# normals
vn -1 0 0
vn 1 0 0
vn 0 0 1
vn 0 0 -1
vn 0 -1 0
vn 0 1 0

# texcoords
vt 0.634766 0.5
vt 0.697266 0.5

# verts
v -0.4 -0.4 0
v -0.4 -0.4 -0.1
v -0.4 -0.3 0
v -0.4 -0.3 -0.1
v -0.3 -0.4 0.1
v -0.3 -0.4 0
v -0.3 -0.3 0.1
v -0.3 -0.3 0
v -0.2 -0.4 -0.1
v -0.2 -0.4 -0.3
v -0.2 -0.3 -0.1
v -0.2 -0.3 -0.2
v -0.2 -0.3 -0.3
v -0.2 -0.2 -0.1
v -0.2 -0.2 -0.2
v 0 -0.4 0.3
v 0 -0.4 0.2
v 0 -0.4 -0.3
v 0 -0.4 -0.4
v 0 -0.3 0.3
v 0 -0.3 0.2
v 0 -0.3 -0.3
v 0 -0.3 -0.4
v 0.1 -0.4 0.2
v 0.1 -0.4 0
v 0.1 -0.3 0.2
v 0.1 -0.3 0
v 0.2 -0.4 0.4
v 0.2 -0.4 0.3
v 0.2 -0.3 0.4
v 0.2 -0.3 0.3
v 0.2 -0.3 -0.2
v 0.2 -0.3 -0.3
v 0.2 -0.2 -0.2
v 0.2 -0.2 -0.3
v -0.2 -0.4 0.1
v -0.2 -0.4 0
v -0.2 -0.3 0.1
v -0.2 -0.3 0
v -0.1 -0.4 0
v -0.1 -0.4 -0.2
v -0.1 -0.3 0
v -0.1 -0.3 -0.1
v -0.1 -0.3 -0.2
v -0.1 -0.2 -0.1
v -0.1 -0.2 -0.2
v 0.1 -0.4 -0.3
v 0.1 -0.4 -0.4
v 0.1 -0.3 -0.3
v 0.1 -0.3 -0.4
v 0.2 -0.4 0.2
v 0.2 -0.4 0.1
v 0.2 -0.3 0.2
v 0.2 -0.3 0.1
v 0.3 -0.4 0.4
v 0.3 -0.4 0.3
v 0.3 -0.4 0.1
v 0.3 -0.4 0
v 0.3 -0.3 0.4
v 0.3 -0.3 0.3
v 0.3 -0.3 0.1
v 0.3 -0.3 0
v 0.3 -0.3 -0.2
v 0.3 -0.3 -0.3
v 0.3 -0.2 -0.2
v 0.3 -0.2 -0.3
v 0.4 -0.4 0.3
v 0.4 -0.4 0.2
v 0.4 -0.4 -0.2
v 0.4 -0.4 -0.3
v 0.4 -0.3 0.3
v 0.4 -0.3 0.2
v 0.4 -0.3 -0.2
v 0.4 -0.3 -0.3
v 0.2 -0.4 0.4
v 0.2 -0.3 0.4
v 0.3 -0.4 0.4
v 0.3 -0.3 0.4
v 0 -0.4 0.3
v 0 -0.3 0.3
v 0.1 -0.4 0.3
v 0.1 -0.3 0.3
v 0.2 -0.4 0.3
v 0.2 -0.3 0.3
v 0.3 -0.4 0.3
v 0.3 -0.3 0.3
v 0.4 -0.4 0.3
v 0.4 -0.3 0.3
v -0.3 -0.4 0.1
v -0.3 -0.3 0.1
v -0.2 -0.4 0.1
v -0.2 -0.3 0.1
v 0.2 -0.4 0.1
v 0.2 -0.3 0.1
v 0.3 -0.4 0.1
v 0.3 -0.3 0.1
v -0.4 -0.4 0
v -0.4 -0.3 0
v -0.3 -0.4 0
v -0.3 -0.3 0
v -0.2 -0.4 0
v -0.2 -0.3 0
v -0.1 -0.4 0
v -0.1 -0.3 0
v -0.2 -0.3 -0.1
v -0.2 -0.2 -0.1
v -0.1 -0.3 -0.1
v -0.1 -0.2 -0.1
v -0.1 -0.4 -0.2
v -0.1 -0.3 -0.2
v 0.2 -0.3 -0.2
v 0.2 -0.2 -0.2
v 0.3 -0.3 -0.2
v 0.3 -0.2 -0.2
v 0.4 -0.4 -0.2
v 0.4 -0.3 -0.2
v 0 -0.4 0.2
v 0 -0.3 0.2
v 0.1 -0.4 0.2
v 0.1 -0.3 0.2
v 0.2 -0.4 0.2
v 0.2 -0.3 0.2
v 0.4 -0.4 0.2
v 0.4 -0.3 0.2
v 0.1 -0.4 0
v 0.1 -0.3 0
v 0.2 -0.4 0
v 0.2 -0.3 0
v 0.3 -0.4 0
v 0.3 -0.3 0
v -0.4 -0.4 -0.1
v -0.4 -0.3 -0.1
v -0.2 -0.4 -0.1
v -0.2 -0.3 -0.1
v -0.2 -0.3 -0.2
v -0.2 -0.2 -0.2
v -0.1 -0.3 -0.2
v -0.1 -0.2 -0.2
v -0.2 -0.4 -0.3
v -0.2 -0.3 -0.3
v 0 -0.4 -0.3
v 0 -0.3 -0.3
v 0.1 -0.4 -0.3
v 0.1 -0.3 -0.3
v 0.2 -0.3 -0.3
v 0.2 -0.2 -0.3
v 0.3 -0.3 -0.3
v 0.3 -0.2 -0.3
v 0.4 -0.4 -0.3
v 0.4 -0.3 -0.3
v 0 -0.4 -0.4
v 0 -0.3 -0.4
v 0.1 -0.4 -0.4
v 0.1 -0.3 -0.4
v 0.2 -0.4 0.4
v 0.3 -0.4 0.4
v 0 -0.4 0.3
v 0.1 -0.4 0.3
v 0.2 -0.4 0.3
v 0.3 -0.4 0.3
v 0.4 -0.4 0.3
v 0 -0.4 0.2
v 0.1 -0.4 0.2
v 0.2 -0.4 0.2
v 0.4 -0.4 0.2
v -0.3 -0.4 0.1
v -0.2 -0.4 0.1
v 0.2 -0.4 0.1
v 0.3 -0.4 0.1
v -0.4 -0.4 0
v -0.3 -0.4 0
v -0.2 -0.4 0
v -0.1 -0.4 0
v 0.1 -0.4 0
v 0.2 -0.4 0
v 0.3 -0.4 0
v -0.4 -0.4 -0.1
v -0.2 -0.4 -0.1
v -0.1 -0.4 -0.2
v 0.4 -0.4 -0.2
v -0.2 -0.4 -0.3
v 0 -0.4 -0.3
v 0.1 -0.4 -0.3
v 0.4 -0.4 -0.3
v 0 -0.4 -0.4
v 0.1 -0.4 -0.4
v 0.2 -0.3 0.4
v 0.3 -0.3 0.4
v 0 -0.3 0.3
v 0.1 -0.3 0.3
v 0.2 -0.3 0.3
v 0.3 -0.3 0.3
v 0.4 -0.3 0.3
v 0 -0.3 0.2
v 0.1 -0.3 0.2
v 0.2 -0.3 0.2
v 0.4 -0.3 0.2
v -0.3 -0.3 0.1
v -0.2 -0.3 0.1
v 0.2 -0.3 0.1
v 0.3 -0.3 0.1
v -0.4 -0.3 0
v -0.3 -0.3 0
v -0.2 -0.3 0
v -0.1 -0.3 0
v 0.1 -0.3 0
v 0.2 -0.3 0
v 0.3 -0.3 0
v -0.4 -0.3 -0.1
v -0.2 -0.3 -0.1
v -0.1 -0.3 -0.1
v -0.2 -0.3 -0.2
v -0.1 -0.3 -0.2
v 0.2 -0.3 -0.2
v 0.3 -0.3 -0.2
v 0.4 -0.3 -0.2
v -0.2 -0.3 -0.3
v 0 -0.3 -0.3
v 0.1 -0.3 -0.3
v 0.2 -0.3 -0.3
v 0.3 -0.3 -0.3
v 0.4 -0.3 -0.3
v 0 -0.3 -0.4
v 0.1 -0.3 -0.4
v -0.2 -0.2 -0.1
v -0.1 -0.2 -0.1
v -0.2 -0.2 -0.2
v -0.1 -0.2 -0.2
v 0.2 -0.2 -0.2
v 0.3 -0.2 -0.2
v 0.2 -0.2 -0.3
v 0.3 -0.2 -0.3

# faces
f 3/2/1 2/2/1 1/2/1
f 4/2/1 2/2/1 3/2/1
f 7/1/1 6/1/1 5/1/1
f 8/1/1 6/1/1 7/1/1
f 11/2/1 10/2/1 9/2/1
f 12/2/1 10/2/1 11/2/1
f 13/2/1 10/2/1 12/2/1
f 14/1/1 12/1/1 11/1/1
f 15/1/1 12/1/1 14/1/1
f 20/1/1 17/1/1 16/1/1
f 21/1/1 17/1/1 20/1/1
f 22/1/1 19/1/1 18/1/1
f 23/1/1 19/1/1 22/1/1
f 26/2/1 25/2/1 24/2/1
f 27/2/1 25/2/1 26/2/1
f 30/1/1 29/1/1 28/1/1
f 31/1/1 29/1/1 30/1/1
f 34/1/1 33/1/1 32/1/1
f 35/1/1 33/1/1 34/1/1
f 36/1/2 37/1/2 38/1/2
f 38/1/2 37/1/2 39/1/2
f 40/2/2 41/2/2 42/2/2
f 42/2/2 41/2/2 43/2/2
f 43/2/2 41/2/2 44/2/2
f 43/1/2 44/1/2 45/1/2
f 45/1/2 44/1/2 46/1/2
f 47/1/2 48/1/2 49/1/2
f 49/1/2 48/1/2 50/1/2
f 51/2/2 52/2/2 53/2/2
f 53/2/2 52/2/2 54/2/2
f 55/1/2 56/1/2 59/1/2
f 59/1/2 56/1/2 60/1/2
f 57/1/2 58/1/2 61/1/2
f 61/1/2 58/1/2 62/1/2
f 63/1/2 64/1/2 65/1/2
f 65/1/2 64/1/2 66/1/2
f 67/2/2 68/2/2 71/2/2
f 71/2/2 68/2/2 72/2/2
f 69/2/2 70/2/2 73/2/2
f 73/2/2 70/2/2 74/2/2
f 77/1/3 76/1/3 75/1/3
f 78/1/3 76/1/3 77/1/3
f 81/1/3 80/1/3 79/1/3
f 82/1/3 80/1/3 81/1/3
f 83/2/3 82/2/3 81/2/3
f 84/2/3 82/2/3 83/2/3
f 87/2/3 86/2/3 85/2/3
f 88/2/3 86/2/3 87/2/3
f 91/1/3 90/1/3 89/1/3
f 92/1/3 90/1/3 91/1/3
f 95/1/3 94/1/3 93/1/3
f 96/1/3 94/1/3 95/1/3
f 99/2/3 98/2/3 97/2/3
f 100/2/3 98/2/3 99/2/3
f 103/2/3 102/2/3 101/2/3
f 104/2/3 102/2/3 103/2/3
f 107/1/3 106/1/3 105/1/3
f 108/1/3 106/1/3 107/1/3
f 111/2/3 110/2/3 109/2/3
f 113/2/3 111/2/3 109/2/3
f 113/1/3 112/1/3 111/1/3
f 114/1/3 112/1/3 113/1/3
f 115/2/3 113/2/3 109/2/3
f 116/2/3 113/2/3 115/2/3
f 117/1/4 118/1/4 119/1/4
f 119/1/4 118/1/4 120/1/4
f 121/2/4 122/2/4 123/2/4
f 123/2/4 122/2/4 124/2/4
f 125/2/4 126/2/4 127/2/4
f 127/2/4 126/2/4 128/2/4
f 127/1/4 128/1/4 129/1/4
f 129/1/4 128/1/4 130/1/4
f 131/2/4 132/2/4 133/2/4
f 133/2/4 132/2/4 134/2/4
f 135/1/4 136/1/4 137/1/4
f 137/1/4 136/1/4 138/1/4
f 139/2/4 140/2/4 141/2/4
f 141/2/4 140/2/4 142/2/4
f 143/2/4 144/2/4 145/2/4
f 143/2/4 145/2/4 147/2/4
f 145/1/4 146/1/4 147/1/4
f 147/1/4 146/1/4 148/1/4
f 143/2/4 147/2/4 149/2/4
f 149/2/4 147/2/4 150/2/4
f 151/1/4 152/1/4 153/1/4
f 153/1/4 152/1/4 154/1/4
f 159/1/5 156/1/5 155/1/5
f 160/1/5 156/1/5 159/1/5
f 162/1/5 158/1/5 157/1/5
f 163/2/5 161/2/5 160/2/5
f 163/1/5 158/1/5 162/1/5
f 163/2/5 159/2/5 158/2/5
f 163/2/5 160/2/5 159/2/5
f 164/2/5 161/2/5 163/2/5
f 165/2/5 161/2/5 164/2/5
f 168/2/5 164/2/5 163/2/5
f 171/1/5 167/1/5 166/1/5
f 172/1/5 167/1/5 171/1/5
f 174/2/5 168/2/5 163/2/5
f 175/1/5 169/1/5 168/1/5
f 175/2/5 168/2/5 174/2/5
f 176/1/5 169/1/5 175/1/5
f 177/2/5 173/2/5 172/2/5
f 177/2/5 171/2/5 170/2/5
f 177/2/5 172/2/5 171/2/5
f 178/2/5 173/2/5 177/2/5
f 179/2/5 173/2/5 178/2/5
f 181/2/5 179/2/5 178/2/5
f 181/2/5 180/2/5 179/2/5
f 182/2/5 180/2/5 181/2/5
f 183/2/5 180/2/5 182/2/5
f 184/2/5 180/2/5 183/2/5
f 185/1/5 183/1/5 182/1/5
f 186/1/5 183/1/5 185/1/5
f 187/1/6 188/1/6 191/1/6
f 191/1/6 188/1/6 192/1/6
f 189/1/6 190/1/6 194/1/6
f 192/2/6 193/2/6 195/2/6
f 194/1/6 190/1/6 195/1/6
f 190/2/6 191/2/6 195/2/6
f 191/2/6 192/2/6 195/2/6
f 195/2/6 193/2/6 196/2/6
f 196/2/6 193/2/6 197/2/6
f 195/2/6 196/2/6 200/2/6
f 198/1/6 199/1/6 203/1/6
f 203/1/6 199/1/6 204/1/6
f 195/2/6 200/2/6 206/2/6
f 200/1/6 201/1/6 207/1/6
f 206/2/6 200/2/6 207/2/6
f 207/1/6 201/1/6 208/1/6
f 204/2/6 205/2/6 209/2/6
f 202/2/6 203/2/6 209/2/6
f 203/2/6 204/2/6 209/2/6
f 209/2/6 205/2/6 210/2/6
f 210/2/6 205/2/6 211/2/6
f 213/2/6 214/2/6 217/2/6
f 212/2/6 213/2/6 217/2/6
f 217/2/6 214/2/6 218/2/6
f 218/2/6 214/2/6 219/2/6
f 219/2/6 214/2/6 220/2/6
f 215/2/6 216/2/6 221/2/6
f 221/2/6 216/2/6 222/2/6
f 218/1/6 219/1/6 223/1/6
f 223/1/6 219/1/6 224/1/6
f 225/1/6 226/1/6 227/1/6
f 227/1/6 226/1/6 228/1/6
f 229/1/6 230/1/6 231/1/6
f 231/1/6 230/1/6 232/1/6
