# MagicaVoxel @ Ephtracy

# group
o 

# material
mtllib dirt2GrassFlatPath-0.mtl
usemtl palette

# normals
vn -1 0 0
vn 1 0 0
vn 0 0 1
vn 0 0 -1
vn 0 -1 0
vn 0 1 0

# texcoords
vt 0.306641 0.5
vt 0.623047 0.5

# verts
v -0.8 -0.8 0.8
v -0.8 -0.8 -0.8
v -0.8 0.7 0.8
v -0.8 0.7 0.6
v -0.8 0.7 -0.7
v -0.8 0.7 -0.8
v -0.8 0.8 0.8
v -0.8 0.8 0.6
v -0.8 0.8 -0.7
v -0.8 0.8 -0.8
v 0.8 -0.8 0.8
v 0.8 -0.8 -0.8
v 0.8 0.3 -0.7
v 0.8 0.3 -0.8
v 0.8 0.7 0.8
v 0.8 0.7 0.7
v 0.8 0.7 -0.6
v 0.8 0.7 -0.7
v 0.8 0.8 0.8
v 0.8 0.8 0.7
v 0.8 0.8 -0.6
v 0.8 0.8 -0.8
v -0.8 -0.8 0.8
v -0.8 0.7 0.8
v -0.8 0.8 0.8
v -0.7 0.5 0.8
v -0.7 0.7 0.8
v -0.6 0.5 0.8
v -0.6 0.6 0.8
v -0.5 0.6 0.8
v -0.5 0.7 0.8
v -0.2 0.6 0.8
v -0.2 0.7 0.8
v -0.1 0.4 0.8
v -0.1 0.6 0.8
v 0 0.4 0.8
v 0 0.5 0.8
v 0.2 0.5 0.8
v 0.2 0.6 0.8
v 0.3 0.6 0.8
v 0.3 0.7 0.8
v 0.4 0.4 0.8
v 0.4 0.5 0.8
v 0.5 0.4 0.8
v 0.5 0.5 0.8
v 0.5 0.6 0.8
v 0.5 0.7 0.8
v 0.6 0.5 0.8
v 0.6 0.6 0.8
v 0.7 0.5 0.8
v 0.7 0.7 0.8
v 0.8 -0.8 0.8
v 0.8 0.7 0.8
v 0.8 0.8 0.8
v -0.8 -0.8 -0.8
v -0.8 0.7 -0.8
v -0.8 0.8 -0.8
v -0.7 0.5 -0.8
v -0.7 0.6 -0.8
v -0.6 0.5 -0.8
v -0.6 0.6 -0.8
v -0.5 0.6 -0.8
v -0.5 0.7 -0.8
v -0.4 0.4 -0.8
v -0.4 0.6 -0.8
v -0.3 0.4 -0.8
v -0.3 0.8 -0.8
v -0.2 0.7 -0.8
v -0.2 0.8 -0.8
v 0 0.4 -0.8
v 0 0.7 -0.8
v 0.1 0.3 -0.8
v 0.1 0.4 -0.8
v 0.2 0.3 -0.8
v 0.2 0.5 -0.8
v 0.3 0.3 -0.8
v 0.3 0.4 -0.8
v 0.4 0.3 -0.8
v 0.4 0.4 -0.8
v 0.4 0.5 -0.8
v 0.4 0.6 -0.8
v 0.5 0.6 -0.8
v 0.5 0.7 -0.8
v 0.6 0.5 -0.8
v 0.6 0.7 -0.8
v 0.7 0.3 -0.8
v 0.7 0.5 -0.8
v 0.8 -0.8 -0.8
v 0.8 0.3 -0.8
v 0.8 0.8 -0.8
v -0.8 -0.8 0.8
v 0.8 -0.8 0.8
v -0.8 -0.8 -0.8
v 0.8 -0.8 -0.8
v -0.8 0.8 0.8
v 0.8 0.8 0.8
v -0.6 0.8 0.7
v -0.4 0.8 0.7
v -0.3 0.8 0.7
v -0.2 0.8 0.7
v 0 0.8 0.7
v 0.1 0.8 0.7
v 0.3 0.8 0.7
v 0.4 0.8 0.7
v 0.6 0.8 0.7
v 0.8 0.8 0.7
v -0.8 0.8 0.6
v -0.7 0.8 0.6
v -0.4 0.8 0.6
v -0.3 0.8 0.6
v -0.2 0.8 0.6
v -0.1 0.8 0.6
v 0.1 0.8 0.6
v 0.3 0.8 0.6
v 0.4 0.8 0.6
v 0.5 0.8 0.6
v -0.7 0.8 0.5
v -0.6 0.8 0.5
v -0.1 0.8 0.5
v 0 0.8 0.5
v 0.5 0.8 0.5
v 0.6 0.8 0.5
v 0 0.8 -0.4
v 0.1 0.8 -0.4
v -0.5 0.8 -0.5
v -0.4 0.8 -0.5
v 0 0.8 -0.5
v 0.1 0.8 -0.5
v 0.6 0.8 -0.5
v 0.7 0.8 -0.5
v -0.7 0.8 -0.6
v -0.6 0.8 -0.6
v -0.4 0.8 -0.6
v -0.3 0.8 -0.6
v -0.1 0.8 -0.6
v 0.1 0.8 -0.6
v 0.3 0.8 -0.6
v 0.5 0.8 -0.6
v 0.7 0.8 -0.6
v 0.8 0.8 -0.6
v -0.8 0.8 -0.7
v -0.7 0.8 -0.7
v -0.6 0.8 -0.7
v -0.5 0.8 -0.7
v -0.2 0.8 -0.7
v -0.1 0.8 -0.7
v 0.1 0.8 -0.7
v 0.3 0.8 -0.7
v 0.5 0.8 -0.7
v 0.6 0.8 -0.7
v -0.8 0.8 -0.8
v -0.3 0.8 -0.8
v -0.2 0.8 -0.8
v 0.8 0.8 -0.8

# faces
f 3/1/1 2/1/1 1/1/1
f 4/1/1 2/1/1 3/1/1
f 5/1/1 2/1/1 4/1/1
f 6/1/1 2/1/1 5/1/1
f 7/2/1 4/2/1 3/2/1
f 8/1/1 5/1/1 4/1/1
f 8/2/1 4/2/1 7/2/1
f 9/2/1 6/2/1 5/2/1
f 9/1/1 5/1/1 8/1/1
f 10/2/1 6/2/1 9/2/1
f 11/1/2 12/1/2 13/1/2
f 13/1/2 12/1/2 14/1/2
f 11/1/2 13/1/2 15/1/2
f 15/1/2 13/1/2 16/1/2
f 16/1/2 13/1/2 17/1/2
f 13/2/2 14/2/2 18/2/2
f 17/1/2 13/1/2 18/1/2
f 15/2/2 16/2/2 19/2/2
f 16/1/2 17/1/2 20/1/2
f 19/2/2 16/2/2 20/2/2
f 17/2/2 18/2/2 21/2/2
f 20/1/2 17/1/2 21/1/2
f 18/2/2 14/2/2 22/2/2
f 21/2/2 18/2/2 22/2/2
f 26/1/3 24/1/3 23/1/3
f 27/2/3 25/2/3 24/2/3
f 27/1/3 24/1/3 26/1/3
f 28/1/3 26/1/3 23/1/3
f 28/2/3 27/2/3 26/2/3
f 29/2/3 27/2/3 28/2/3
f 30/1/3 29/1/3 28/1/3
f 30/2/3 27/2/3 29/2/3
f 31/2/3 25/2/3 27/2/3
f 31/2/3 27/2/3 30/2/3
f 32/1/3 30/1/3 28/1/3
f 32/1/3 31/1/3 30/1/3
f 33/2/3 25/2/3 31/2/3
f 33/1/3 31/1/3 32/1/3
f 34/1/3 32/1/3 28/1/3
f 34/1/3 28/1/3 23/1/3
f 35/2/3 33/2/3 32/2/3
f 35/1/3 32/1/3 34/1/3
f 36/1/3 34/1/3 23/1/3
f 36/2/3 35/2/3 34/2/3
f 37/2/3 35/2/3 36/2/3
f 38/1/3 37/1/3 36/1/3
f 38/2/3 35/2/3 37/2/3
f 39/2/3 33/2/3 35/2/3
f 39/2/3 35/2/3 38/2/3
f 40/1/3 39/1/3 38/1/3
f 40/2/3 33/2/3 39/2/3
f 41/2/3 25/2/3 33/2/3
f 41/2/3 33/2/3 40/2/3
f 42/1/3 40/1/3 38/1/3
f 42/1/3 38/1/3 36/1/3
f 42/1/3 41/1/3 40/1/3
f 42/1/3 36/1/3 23/1/3
f 43/1/3 41/1/3 42/1/3
f 44/1/3 42/1/3 23/1/3
f 44/2/3 43/2/3 42/2/3
f 45/1/3 41/1/3 43/1/3
f 45/2/3 43/2/3 44/2/3
f 46/1/3 41/1/3 45/1/3
f 47/2/3 25/2/3 41/2/3
f 47/1/3 41/1/3 46/1/3
f 48/1/3 46/1/3 45/1/3
f 48/1/3 45/1/3 44/1/3
f 49/2/3 47/2/3 46/2/3
f 49/1/3 46/1/3 48/1/3
f 50/1/3 48/1/3 44/1/3
f 50/2/3 49/2/3 48/2/3
f 51/2/3 25/2/3 47/2/3
f 51/2/3 49/2/3 50/2/3
f 51/2/3 47/2/3 49/2/3
f 52/1/3 50/1/3 44/1/3
f 52/1/3 44/1/3 23/1/3
f 52/1/3 51/1/3 50/1/3
f 53/2/3 25/2/3 51/2/3
f 53/1/3 51/1/3 52/1/3
f 54/2/3 25/2/3 53/2/3
f 55/1/4 56/1/4 58/1/4
f 58/1/4 56/1/4 59/1/4
f 55/1/4 58/1/4 60/1/4
f 58/2/4 59/2/4 60/2/4
f 59/1/4 56/1/4 61/1/4
f 60/2/4 59/2/4 61/2/4
f 60/1/4 61/1/4 62/1/4
f 61/1/4 56/1/4 62/1/4
f 56/2/4 57/2/4 63/2/4
f 62/1/4 56/1/4 63/1/4
f 60/1/4 62/1/4 64/1/4
f 55/1/4 60/1/4 64/1/4
f 62/2/4 63/2/4 65/2/4
f 64/1/4 62/1/4 65/1/4
f 55/1/4 64/1/4 66/1/4
f 64/2/4 65/2/4 66/2/4
f 63/2/4 57/2/4 67/2/4
f 66/2/4 65/2/4 67/2/4
f 65/2/4 63/2/4 67/2/4
f 66/1/4 67/1/4 68/1/4
f 68/1/4 67/1/4 69/1/4
f 55/1/4 66/1/4 70/1/4
f 66/1/4 68/1/4 70/1/4
f 68/2/4 69/2/4 71/2/4
f 70/1/4 68/1/4 71/1/4
f 55/1/4 70/1/4 72/1/4
f 70/2/4 71/2/4 73/2/4
f 72/1/4 70/1/4 73/1/4
f 55/1/4 72/1/4 74/1/4
f 72/2/4 73/2/4 74/2/4
f 73/2/4 71/2/4 75/2/4
f 74/2/4 73/2/4 75/2/4
f 55/1/4 74/1/4 76/1/4
f 74/1/4 75/1/4 76/1/4
f 76/1/4 75/1/4 77/1/4
f 55/1/4 76/1/4 78/1/4
f 76/2/4 77/2/4 78/2/4
f 77/1/4 75/1/4 79/1/4
f 78/2/4 77/2/4 79/2/4
f 75/2/4 71/2/4 80/2/4
f 79/1/4 75/1/4 80/1/4
f 80/2/4 71/2/4 81/2/4
f 78/1/4 79/1/4 82/1/4
f 81/2/4 71/2/4 82/2/4
f 80/1/4 81/1/4 82/1/4
f 79/1/4 80/1/4 82/1/4
f 71/2/4 69/2/4 83/2/4
f 82/2/4 71/2/4 83/2/4
f 78/1/4 82/1/4 84/1/4
f 82/1/4 83/1/4 84/1/4
f 83/2/4 69/2/4 85/2/4
f 84/1/4 83/1/4 85/1/4
f 78/1/4 84/1/4 86/1/4
f 55/1/4 78/1/4 86/1/4
f 84/2/4 85/2/4 87/2/4
f 86/1/4 84/1/4 87/1/4
f 55/1/4 86/1/4 88/1/4
f 86/2/4 87/2/4 89/2/4
f 88/1/4 86/1/4 89/1/4
f 85/2/4 69/2/4 90/2/4
f 89/2/4 87/2/4 90/2/4
f 87/2/4 85/2/4 90/2/4
f 93/1/5 92/1/5 91/1/5
f 94/1/5 92/1/5 93/1/5
f 95/2/6 96/2/6 97/2/6
f 97/2/6 96/2/6 98/2/6
f 98/2/6 96/2/6 99/2/6
f 99/2/6 96/2/6 100/2/6
f 100/2/6 96/2/6 101/2/6
f 101/2/6 96/2/6 102/2/6
f 102/2/6 96/2/6 103/2/6
f 103/2/6 96/2/6 104/2/6
f 104/2/6 96/2/6 105/2/6
f 105/2/6 96/2/6 106/2/6
f 95/2/6 97/2/6 107/2/6
f 107/2/6 97/2/6 108/2/6
f 97/1/6 98/1/6 109/1/6
f 98/2/6 99/2/6 109/2/6
f 99/1/6 100/1/6 110/1/6
f 109/2/6 99/2/6 110/2/6
f 100/2/6 101/2/6 111/2/6
f 110/1/6 100/1/6 111/1/6
f 111/2/6 101/2/6 112/2/6
f 101/1/6 102/1/6 113/1/6
f 102/2/6 103/2/6 113/2/6
f 103/1/6 104/1/6 114/1/6
f 113/2/6 103/2/6 114/2/6
f 104/2/6 105/2/6 115/2/6
f 114/1/6 104/1/6 115/1/6
f 115/2/6 105/2/6 116/2/6
f 108/2/6 97/2/6 117/2/6
f 107/1/6 108/1/6 117/1/6
f 97/1/6 109/1/6 118/1/6
f 117/2/6 97/2/6 118/2/6
f 109/1/6 110/1/6 118/1/6
f 111/1/6 112/1/6 118/1/6
f 110/1/6 111/1/6 118/1/6
f 112/2/6 101/2/6 119/2/6
f 118/1/6 112/1/6 119/1/6
f 115/1/6 116/1/6 120/1/6
f 119/2/6 101/2/6 120/2/6
f 114/1/6 115/1/6 120/1/6
f 101/1/6 113/1/6 120/1/6
f 113/1/6 114/1/6 120/1/6
f 116/2/6 105/2/6 121/2/6
f 120/1/6 116/1/6 121/1/6
f 105/1/6 106/1/6 122/1/6
f 121/2/6 105/2/6 122/2/6
f 119/1/6 120/1/6 123/1/6
f 118/1/6 119/1/6 123/1/6
f 121/1/6 122/1/6 123/1/6
f 120/1/6 121/1/6 123/1/6
f 117/1/6 118/1/6 123/1/6
f 123/1/6 122/1/6 124/1/6
f 117/1/6 123/1/6 125/1/6
f 125/1/6 123/1/6 126/1/6
f 123/2/6 124/2/6 127/2/6
f 126/1/6 123/1/6 127/1/6
f 124/1/6 122/1/6 128/1/6
f 127/2/6 124/2/6 128/2/6
f 122/1/6 106/1/6 129/1/6
f 128/1/6 122/1/6 129/1/6
f 129/1/6 106/1/6 130/1/6
f 107/1/6 117/1/6 131/1/6
f 117/1/6 125/1/6 131/1/6
f 131/1/6 125/1/6 132/1/6
f 127/1/6 128/1/6 133/1/6
f 126/1/6 127/1/6 133/1/6
f 125/2/6 126/2/6 133/2/6
f 128/1/6 129/1/6 133/1/6
f 133/1/6 129/1/6 134/1/6
f 134/1/6 129/1/6 135/1/6
f 135/1/6 129/1/6 136/1/6
f 136/1/6 129/1/6 137/1/6
f 137/1/6 129/1/6 138/1/6
f 130/1/6 106/1/6 139/1/6
f 129/2/6 130/2/6 139/2/6
f 139/1/6 106/1/6 140/1/6
f 107/1/6 131/1/6 141/1/6
f 131/2/6 132/2/6 142/2/6
f 141/1/6 131/1/6 142/1/6
f 132/1/6 125/1/6 143/1/6
f 142/2/6 132/2/6 143/2/6
f 125/2/6 133/2/6 144/2/6
f 143/1/6 125/1/6 144/1/6
f 133/2/6 134/2/6 144/2/6
f 134/1/6 135/1/6 145/1/6
f 135/2/6 136/2/6 146/2/6
f 145/1/6 135/1/6 146/1/6
f 136/1/6 137/1/6 147/1/6
f 146/2/6 136/2/6 147/2/6
f 137/2/6 138/2/6 148/2/6
f 147/1/6 137/1/6 148/1/6
f 138/1/6 129/1/6 149/1/6
f 148/2/6 138/2/6 149/2/6
f 139/2/6 140/2/6 150/2/6
f 149/1/6 129/1/6 150/1/6
f 129/2/6 139/2/6 150/2/6
f 141/2/6 142/2/6 151/2/6
f 142/2/6 143/2/6 151/2/6
f 143/2/6 144/2/6 151/2/6
f 144/2/6 134/2/6 152/2/6
f 151/2/6 144/2/6 152/2/6
f 134/1/6 145/1/6 152/1/6
f 147/2/6 148/2/6 153/2/6
f 152/1/6 145/1/6 153/1/6
f 146/2/6 147/2/6 153/2/6
f 145/2/6 146/2/6 153/2/6
f 149/2/6 150/2/6 153/2/6
f 148/2/6 149/2/6 153/2/6
f 150/2/6 140/2/6 154/2/6
f 153/2/6 150/2/6 154/2/6
