# MagicaVoxel @ Ephtracy

# group
o 

# material
mtllib dirt2GrassFlat2PathEnd-0.mtl
usemtl palette

# normals
vn -1 0 0
vn 1 0 0
vn 0 0 1
vn 0 0 -1
vn 0 -1 0
vn 0 1 0

# texcoords
vt 0.306641 0.5
vt 0.623047 0.5

# verts
v -0.8 -0.8 0.8
v -0.8 -0.8 -0.8
v -0.8 0.1 0.4
v -0.8 0.1 0.3
v -0.8 0.2 0.4
v -0.8 0.2 0.3
v -0.8 0.3 0.3
v -0.8 0.3 0.2
v -0.8 0.4 0.4
v -0.8 0.4 0.3
v -0.8 0.4 0.2
v -0.8 0.4 0.1
v -0.8 0.4 -0.3
v -0.8 0.4 -0.4
v -0.8 0.5 0.7
v -0.8 0.5 0.6
v -0.8 0.5 0.5
v -0.8 0.5 0.4
v -0.8 0.5 -0.7
v -0.8 0.5 -0.8
v -0.8 0.6 0.8
v -0.8 0.6 0.7
v -0.8 0.6 0.6
v -0.8 0.6 0.5
v -0.8 0.6 0.1
v -0.8 0.6 0
v -0.8 0.6 -0.2
v -0.8 0.6 -0.3
v -0.8 0.6 -0.6
v -0.8 0.6 -0.7
v -0.8 0.7 0
v -0.8 0.7 -0.2
v -0.8 0.7 -0.4
v -0.8 0.7 -0.6
v -0.8 0.8 0.8
v -0.8 0.8 -0.8
v 0.8 -0.8 0.8
v 0.8 -0.8 -0.8
v 0.8 0.7 0.8
v 0.8 0.7 0.7
v 0.8 0.7 -0.6
v 0.8 0.7 -0.8
v 0.8 0.8 0.8
v 0.8 0.8 0.7
v 0.8 0.8 -0.6
v 0.8 0.8 -0.8
v -0.8 -0.8 0.8
v -0.8 0.6 0.8
v -0.8 0.8 0.8
v -0.7 0.5 0.8
v -0.7 0.6 0.8
v -0.6 0.3 0.8
v -0.6 0.5 0.8
v -0.5 0.3 0.8
v -0.5 0.7 0.8
v -0.4 0.6 0.8
v -0.4 0.7 0.8
v -0.3 0.5 0.8
v -0.3 0.6 0.8
v -0.2 0.5 0.8
v -0.2 0.7 0.8
v 0 0.4 0.8
v 0 0.5 0.8
v 0 0.6 0.8
v 0 0.7 0.8
v 0.1 0.4 0.8
v 0.1 0.5 0.8
v 0.2 0.4 0.8
v 0.2 0.6 0.8
v 0.3 0.3 0.8
v 0.3 0.4 0.8
v 0.4 0.3 0.8
v 0.4 0.6 0.8
v 0.5 0.5 0.8
v 0.5 0.6 0.8
v 0.6 0.5 0.8
v 0.6 0.6 0.8
v 0.7 0.6 0.8
v 0.7 0.7 0.8
v 0.8 -0.8 0.8
v 0.8 0.7 0.8
v 0.8 0.8 0.8
v -0.8 -0.8 -0.8
v -0.8 0.5 -0.8
v -0.8 0.8 -0.8
v -0.7 0.3 -0.8
v -0.7 0.4 -0.8
v -0.6 0.3 -0.8
v -0.6 0.4 -0.8
v -0.5 0.5 -0.8
v -0.5 0.6 -0.8
v -0.4 0.6 -0.8
v -0.4 0.7 -0.8
v -0.2 0.4 -0.8
v -0.2 0.5 -0.8
v -0.2 0.6 -0.8
v -0.2 0.7 -0.8
v -0.1 0.4 -0.8
v -0.1 0.5 -0.8
v 0 0.4 -0.8
v 0 0.6 -0.8
v 0.1 0.4 -0.8
v 0.1 0.5 -0.8
v 0.2 0.5 -0.8
v 0.2 0.8 -0.8
v 0.3 0.7 -0.8
v 0.3 0.8 -0.8
v 0.4 0.5 -0.8
v 0.4 0.7 -0.8
v 0.5 0.3 -0.8
v 0.5 0.5 -0.8
v 0.6 0.3 -0.8
v 0.6 0.6 -0.8
v 0.7 0.6 -0.8
v 0.7 0.7 -0.8
v 0.8 -0.8 -0.8
v 0.8 0.7 -0.8
v 0.8 0.8 -0.8
v -0.8 -0.8 0.8
v 0.8 -0.8 0.8
v -0.8 -0.8 -0.8
v 0.8 -0.8 -0.8
v -0.8 0.8 0.8
v 0.8 0.8 0.8
v -0.3 0.8 0.7
v -0.2 0.8 0.7
v 0 0.8 0.7
v 0.4 0.8 0.7
v 0.6 0.8 0.7
v 0.8 0.8 0.7
v -0.5 0.8 0.6
v -0.3 0.8 0.6
v -0.2 0.8 0.6
v -0.1 0.8 0.6
v 0.4 0.8 0.6
v 0.5 0.8 0.6
v -0.5 0.8 0.5
v -0.4 0.8 0.5
v -0.1 0.8 0.5
v 0 0.8 0.5
v 0.5 0.8 0.5
v 0.6 0.8 0.5
v -0.6 0.8 0.4
v -0.4 0.8 0.4
v -0.7 0.8 0.3
v -0.6 0.8 0.3
v -0.7 0.8 0.1
v -0.6 0.8 0.1
v -0.6 0.8 0
v -0.5 0.8 0
v -0.6 0.8 -0.1
v -0.5 0.8 -0.1
v -0.5 0.8 -0.2
v -0.4 0.8 -0.2
v -0.5 0.8 -0.3
v -0.4 0.8 -0.3
v -0.6 0.8 -0.4
v -0.5 0.8 -0.4
v -0.5 0.8 -0.5
v -0.4 0.8 -0.5
v 0.6 0.8 -0.5
v 0.7 0.8 -0.5
v -0.4 0.8 -0.6
v -0.3 0.8 -0.6
v -0.2 0.8 -0.6
v 0.1 0.8 -0.6
v 0.3 0.8 -0.6
v 0.5 0.8 -0.6
v 0.7 0.8 -0.6
v 0.8 0.8 -0.6
v -0.3 0.8 -0.7
v -0.2 0.8 -0.7
v 0.1 0.8 -0.7
v 0.2 0.8 -0.7
v 0.5 0.8 -0.7
v 0.6 0.8 -0.7
v -0.8 0.8 -0.8
v 0.2 0.8 -0.8
v 0.3 0.8 -0.8
v 0.8 0.8 -0.8

# faces
f 3/1/1 2/1/1 1/1/1
f 4/1/1 2/1/1 3/1/1
f 5/1/1 3/1/1 1/1/1
f 5/2/1 4/2/1 3/2/1
f 6/1/1 2/1/1 4/1/1
f 6/2/1 4/2/1 5/2/1
f 7/1/1 6/1/1 5/1/1
f 7/1/1 2/1/1 6/1/1
f 8/1/1 2/1/1 7/1/1
f 9/1/1 5/1/1 1/1/1
f 9/1/1 7/1/1 5/1/1
f 10/2/1 8/2/1 7/2/1
f 10/1/1 7/1/1 9/1/1
f 11/1/1 2/1/1 8/1/1
f 11/2/1 8/2/1 10/2/1
f 12/1/1 2/1/1 11/1/1
f 13/1/1 2/1/1 12/1/1
f 14/1/1 2/1/1 13/1/1
f 15/1/1 9/1/1 1/1/1
f 16/1/1 9/1/1 15/1/1
f 17/1/1 9/1/1 16/1/1
f 18/2/1 10/2/1 9/2/1
f 18/1/1 9/1/1 17/1/1
f 18/2/1 11/2/1 10/2/1
f 18/2/1 12/2/1 11/2/1
f 19/1/1 2/1/1 14/1/1
f 20/1/1 2/1/1 19/1/1
f 21/1/1 15/1/1 1/1/1
f 22/2/1 16/2/1 15/2/1
f 22/1/1 15/1/1 21/1/1
f 23/1/1 17/1/1 16/1/1
f 23/2/1 16/2/1 22/2/1
f 24/2/1 18/2/1 17/2/1
f 24/1/1 17/1/1 23/1/1
f 25/2/1 12/2/1 18/2/1
f 25/2/1 18/2/1 24/2/1
f 25/1/1 13/1/1 12/1/1
f 26/1/1 13/1/1 25/1/1
f 27/1/1 13/1/1 26/1/1
f 28/2/1 14/2/1 13/2/1
f 28/1/1 13/1/1 27/1/1
f 29/1/1 19/1/1 14/1/1
f 30/2/1 20/2/1 19/2/1
f 30/1/1 19/1/1 29/1/1
f 31/2/1 22/2/1 21/2/1
f 31/2/1 24/2/1 23/2/1
f 31/1/1 27/1/1 26/1/1
f 31/2/1 23/2/1 22/2/1
f 31/2/1 26/2/1 25/2/1
f 31/2/1 25/2/1 24/2/1
f 32/2/1 28/2/1 27/2/1
f 32/1/1 27/1/1 31/1/1
f 33/1/1 29/1/1 14/1/1
f 33/2/1 28/2/1 32/2/1
f 33/2/1 14/2/1 28/2/1
f 34/2/1 30/2/1 29/2/1
f 34/1/1 29/1/1 33/1/1
f 35/2/1 33/2/1 32/2/1
f 35/2/1 32/2/1 31/2/1
f 35/2/1 34/2/1 33/2/1
f 35/2/1 31/2/1 21/2/1
f 36/2/1 20/2/1 30/2/1
f 36/2/1 34/2/1 35/2/1
f 36/2/1 30/2/1 34/2/1
f 37/1/2 38/1/2 39/1/2
f 39/1/2 38/1/2 40/1/2
f 40/1/2 38/1/2 41/1/2
f 41/1/2 38/1/2 42/1/2
f 39/2/2 40/2/2 43/2/2
f 40/1/2 41/1/2 44/1/2
f 43/2/2 40/2/2 44/2/2
f 41/2/2 42/2/2 45/2/2
f 44/1/2 41/1/2 45/1/2
f 45/2/2 42/2/2 46/2/2
f 50/1/3 48/1/3 47/1/3
f 51/2/3 49/2/3 48/2/3
f 51/1/3 48/1/3 50/1/3
f 52/1/3 50/1/3 47/1/3
f 53/2/3 51/2/3 50/2/3
f 53/1/3 50/1/3 52/1/3
f 54/1/3 52/1/3 47/1/3
f 54/2/3 53/2/3 52/2/3
f 55/2/3 49/2/3 51/2/3
f 55/2/3 53/2/3 54/2/3
f 55/2/3 51/2/3 53/2/3
f 56/1/3 55/1/3 54/1/3
f 57/2/3 49/2/3 55/2/3
f 57/1/3 55/1/3 56/1/3
f 58/1/3 56/1/3 54/1/3
f 59/2/3 57/2/3 56/2/3
f 59/1/3 56/1/3 58/1/3
f 60/1/3 58/1/3 54/1/3
f 60/2/3 59/2/3 58/2/3
f 61/2/3 49/2/3 57/2/3
f 61/2/3 59/2/3 60/2/3
f 61/2/3 57/2/3 59/2/3
f 62/1/3 60/1/3 54/1/3
f 62/1/3 61/1/3 60/1/3
f 63/1/3 61/1/3 62/1/3
f 64/1/3 61/1/3 63/1/3
f 65/2/3 49/2/3 61/2/3
f 65/1/3 61/1/3 64/1/3
f 66/1/3 62/1/3 54/1/3
f 66/2/3 63/2/3 62/2/3
f 67/1/3 64/1/3 63/1/3
f 67/2/3 63/2/3 66/2/3
f 68/1/3 66/1/3 54/1/3
f 68/1/3 67/1/3 66/1/3
f 69/1/3 64/1/3 67/1/3
f 69/1/3 67/1/3 68/1/3
f 69/2/3 65/2/3 64/2/3
f 70/1/3 54/1/3 47/1/3
f 70/1/3 68/1/3 54/1/3
f 71/2/3 69/2/3 68/2/3
f 71/1/3 68/1/3 70/1/3
f 72/1/3 70/1/3 47/1/3
f 72/2/3 71/2/3 70/2/3
f 73/2/3 65/2/3 69/2/3
f 73/2/3 71/2/3 72/2/3
f 73/2/3 69/2/3 71/2/3
f 74/1/3 73/1/3 72/1/3
f 75/2/3 65/2/3 73/2/3
f 75/1/3 73/1/3 74/1/3
f 76/1/3 74/1/3 72/1/3
f 76/2/3 75/2/3 74/2/3
f 77/2/3 65/2/3 75/2/3
f 77/2/3 75/2/3 76/2/3
f 78/1/3 77/1/3 76/1/3
f 78/2/3 65/2/3 77/2/3
f 79/2/3 49/2/3 65/2/3
f 79/2/3 65/2/3 78/2/3
f 80/1/3 72/1/3 47/1/3
f 80/1/3 78/1/3 76/1/3
f 80/1/3 79/1/3 78/1/3
f 80/1/3 76/1/3 72/1/3
f 81/2/3 49/2/3 79/2/3
f 81/1/3 79/1/3 80/1/3
f 82/2/3 49/2/3 81/2/3
f 83/1/4 84/1/4 86/1/4
f 86/1/4 84/1/4 87/1/4
f 83/1/4 86/1/4 88/1/4
f 86/2/4 87/2/4 88/2/4
f 87/1/4 84/1/4 89/1/4
f 88/2/4 87/2/4 89/2/4
f 84/2/4 85/2/4 90/2/4
f 89/1/4 84/1/4 90/1/4
f 88/1/4 89/1/4 90/1/4
f 90/2/4 85/2/4 91/2/4
f 90/1/4 91/1/4 92/1/4
f 91/2/4 85/2/4 92/2/4
f 92/2/4 85/2/4 93/2/4
f 88/1/4 90/1/4 94/1/4
f 90/1/4 92/1/4 94/1/4
f 92/1/4 93/1/4 94/1/4
f 94/1/4 93/1/4 95/1/4
f 95/1/4 93/1/4 96/1/4
f 93/2/4 85/2/4 97/2/4
f 96/1/4 93/1/4 97/1/4
f 88/1/4 94/1/4 98/1/4
f 94/2/4 95/2/4 98/2/4
f 95/1/4 96/1/4 99/1/4
f 98/2/4 95/2/4 99/2/4
f 88/1/4 98/1/4 100/1/4
f 98/1/4 99/1/4 100/1/4
f 99/1/4 96/1/4 101/1/4
f 100/1/4 99/1/4 101/1/4
f 96/2/4 97/2/4 101/2/4
f 88/1/4 100/1/4 102/1/4
f 100/2/4 101/2/4 102/2/4
f 102/2/4 101/2/4 103/2/4
f 102/1/4 103/1/4 104/1/4
f 103/2/4 101/2/4 104/2/4
f 101/2/4 97/2/4 105/2/4
f 104/2/4 101/2/4 105/2/4
f 97/2/4 85/2/4 105/2/4
f 104/1/4 105/1/4 106/1/4
f 106/1/4 105/1/4 107/1/4
f 102/1/4 104/1/4 108/1/4
f 104/1/4 106/1/4 108/1/4
f 106/2/4 107/2/4 109/2/4
f 108/1/4 106/1/4 109/1/4
f 83/1/4 88/1/4 110/1/4
f 88/1/4 102/1/4 110/1/4
f 102/1/4 108/1/4 110/1/4
f 108/2/4 109/2/4 111/2/4
f 110/1/4 108/1/4 111/1/4
f 83/1/4 110/1/4 112/1/4
f 110/2/4 111/2/4 112/2/4
f 111/2/4 109/2/4 113/2/4
f 112/2/4 111/2/4 113/2/4
f 112/1/4 113/1/4 114/1/4
f 113/2/4 109/2/4 114/2/4
f 109/2/4 107/2/4 115/2/4
f 114/2/4 109/2/4 115/2/4
f 112/1/4 114/1/4 116/1/4
f 83/1/4 112/1/4 116/1/4
f 114/1/4 115/1/4 116/1/4
f 115/2/4 107/2/4 117/2/4
f 116/1/4 115/1/4 117/1/4
f 117/2/4 107/2/4 118/2/4
f 121/1/5 120/1/5 119/1/5
f 122/1/5 120/1/5 121/1/5
f 123/2/6 124/2/6 125/2/6
f 125/2/6 124/2/6 126/2/6
f 126/2/6 124/2/6 127/2/6
f 127/2/6 124/2/6 128/2/6
f 128/2/6 124/2/6 129/2/6
f 129/2/6 124/2/6 130/2/6
f 123/2/6 125/2/6 131/2/6
f 125/1/6 126/1/6 132/1/6
f 131/2/6 125/2/6 132/2/6
f 126/2/6 127/2/6 133/2/6
f 132/1/6 126/1/6 133/1/6
f 133/2/6 127/2/6 134/2/6
f 127/1/6 128/1/6 135/1/6
f 128/2/6 129/2/6 135/2/6
f 135/2/6 129/2/6 136/2/6
f 123/2/6 131/2/6 137/2/6
f 131/1/6 132/1/6 137/1/6
f 133/1/6 134/1/6 137/1/6
f 132/1/6 133/1/6 137/1/6
f 137/1/6 134/1/6 138/1/6
f 134/2/6 127/2/6 139/2/6
f 138/1/6 134/1/6 139/1/6
f 135/1/6 136/1/6 140/1/6
f 139/2/6 127/2/6 140/2/6
f 127/1/6 135/1/6 140/1/6
f 136/2/6 129/2/6 141/2/6
f 140/1/6 136/1/6 141/1/6
f 129/1/6 130/1/6 142/1/6
f 141/2/6 129/2/6 142/2/6
f 137/2/6 138/2/6 143/2/6
f 123/2/6 137/2/6 143/2/6
f 139/1/6 140/1/6 144/1/6
f 143/2/6 138/2/6 144/2/6
f 138/1/6 139/1/6 144/1/6
f 140/1/6 141/1/6 144/1/6
f 141/1/6 142/1/6 144/1/6
f 123/2/6 143/2/6 145/2/6
f 143/1/6 144/1/6 146/1/6
f 145/2/6 143/2/6 146/2/6
f 123/2/6 145/2/6 147/2/6
f 145/1/6 146/1/6 147/1/6
f 146/1/6 144/1/6 148/1/6
f 147/1/6 146/1/6 148/1/6
f 147/2/6 148/2/6 149/2/6
f 148/1/6 144/1/6 149/1/6
f 149/1/6 144/1/6 150/1/6
f 147/2/6 149/2/6 151/2/6
f 149/2/6 150/2/6 151/2/6
f 150/1/6 144/1/6 152/1/6
f 151/2/6 150/2/6 152/2/6
f 151/1/6 152/1/6 153/1/6
f 152/1/6 144/1/6 153/1/6
f 144/1/6 142/1/6 154/1/6
f 153/1/6 144/1/6 154/1/6
f 151/1/6 153/1/6 155/1/6
f 153/2/6 154/2/6 155/2/6
f 154/1/6 142/1/6 156/1/6
f 155/2/6 154/2/6 156/2/6
f 151/1/6 155/1/6 157/1/6
f 147/2/6 151/2/6 157/2/6
f 155/1/6 156/1/6 157/1/6
f 157/1/6 156/1/6 158/1/6
f 157/2/6 158/2/6 159/2/6
f 158/1/6 156/1/6 159/1/6
f 156/1/6 142/1/6 160/1/6
f 159/1/6 156/1/6 160/1/6
f 142/1/6 130/1/6 161/1/6
f 160/1/6 142/1/6 161/1/6
f 161/1/6 130/1/6 162/1/6
f 159/2/6 160/2/6 163/2/6
f 160/1/6 161/1/6 163/1/6
f 163/1/6 161/1/6 164/1/6
f 164/1/6 161/1/6 165/1/6
f 165/1/6 161/1/6 166/1/6
f 166/1/6 161/1/6 167/1/6
f 167/1/6 161/1/6 168/1/6
f 162/1/6 130/1/6 169/1/6
f 161/2/6 162/2/6 169/2/6
f 169/1/6 130/1/6 170/1/6
f 163/2/6 164/2/6 171/2/6
f 164/1/6 165/1/6 171/1/6
f 165/2/6 166/2/6 172/2/6
f 171/1/6 165/1/6 172/1/6
f 166/1/6 167/1/6 173/1/6
f 172/2/6 166/2/6 173/2/6
f 173/1/6 167/1/6 174/1/6
f 168/1/6 161/1/6 175/1/6
f 167/2/6 168/2/6 175/2/6
f 169/2/6 170/2/6 176/2/6
f 175/1/6 161/1/6 176/1/6
f 161/2/6 169/2/6 176/2/6
f 157/2/6 159/2/6 177/2/6
f 123/2/6 147/2/6 177/2/6
f 147/2/6 157/2/6 177/2/6
f 172/2/6 173/2/6 177/2/6
f 171/2/6 172/2/6 177/2/6
f 163/2/6 171/2/6 177/2/6
f 173/2/6 174/2/6 177/2/6
f 159/2/6 163/2/6 177/2/6
f 174/1/6 167/1/6 178/1/6
f 177/2/6 174/2/6 178/2/6
f 175/2/6 176/2/6 179/2/6
f 178/1/6 167/1/6 179/1/6
f 167/2/6 175/2/6 179/2/6
f 176/2/6 170/2/6 180/2/6
f 179/2/6 176/2/6 180/2/6
