# MagicaVoxel @ Ephtracy

# group
o 

# material
mtllib dirtSlope-0.mtl
usemtl palette

# normals
vn -1 0 0
vn 1 0 0
vn 0 0 1
vn 0 0 -1
vn 0 -1 0
vn 0 1 0

# texcoords
vt 0.306641 0.5

# verts
v -0.8 -0.8 0.8
v -0.8 -0.8 -0.8
v -0.8 -0.7 0.8
v -0.8 -0.7 -0.8
v -0.7 -0.7 0.8
v -0.7 -0.7 -0.8
v -0.7 -0.6 0.8
v -0.7 -0.6 -0.8
v -0.6 -0.6 0.8
v -0.6 -0.6 -0.8
v -0.6 -0.5 0.8
v -0.6 -0.5 -0.8
v -0.5 -0.5 0.8
v -0.5 -0.5 -0.8
v -0.5 -0.4 0.8
v -0.5 -0.4 -0.8
v -0.4 -0.4 0.8
v -0.4 -0.4 -0.8
v -0.4 -0.3 0.8
v -0.4 -0.3 -0.8
v -0.3 -0.3 0.8
v -0.3 -0.3 -0.8
v -0.3 -0.2 0.8
v -0.3 -0.2 -0.8
v -0.2 -0.2 0.8
v -0.2 -0.2 -0.8
v -0.2 -0.1 0.8
v -0.2 -0.1 -0.8
v -0.1 -0.1 0.8
v -0.1 -0.1 -0.8
v -0.1 0 0.8
v -0.1 0 -0.8
v 0 0 0.8
v 0 0 -0.8
v 0 0.1 0.8
v 0 0.1 -0.8
v 0.1 0.1 0.8
v 0.1 0.1 -0.8
v 0.1 0.2 0.8
v 0.1 0.2 -0.8
v 0.2 0.2 0.8
v 0.2 0.2 -0.8
v 0.2 0.3 0.8
v 0.2 0.3 -0.8
v 0.3 0.3 0.8
v 0.3 0.3 -0.8
v 0.3 0.4 0.8
v 0.3 0.4 -0.8
v 0.4 0.4 0.8
v 0.4 0.4 -0.8
v 0.4 0.5 0.8
v 0.4 0.5 -0.8
v 0.5 0.5 0.8
v 0.5 0.5 -0.8
v 0.5 0.6 0.8
v 0.5 0.6 -0.8
v 0.6 0.6 0.8
v 0.6 0.6 -0.8
v 0.6 0.7 0.8
v 0.6 0.7 -0.8
v 0.7 0.7 0.8
v 0.7 0.7 -0.8
v 0.7 0.8 0.8
v 0.7 0.8 -0.8
v 0.8 -0.8 0.8
v 0.8 -0.8 -0.8
v 0.8 0.8 0.8
v 0.8 0.8 -0.8
v -0.8 -0.8 0.8
v -0.8 -0.7 0.8
v -0.7 -0.7 0.8
v -0.7 -0.6 0.8
v -0.6 -0.6 0.8
v -0.6 -0.5 0.8
v -0.5 -0.5 0.8
v -0.5 -0.4 0.8
v -0.4 -0.4 0.8
v -0.4 -0.3 0.8
v -0.3 -0.3 0.8
v -0.3 -0.2 0.8
v -0.2 -0.2 0.8
v -0.2 -0.1 0.8
v -0.1 -0.1 0.8
v -0.1 0 0.8
v 0 0 0.8
v 0 0.1 0.8
v 0.1 0.1 0.8
v 0.1 0.2 0.8
v 0.2 0.2 0.8
v 0.2 0.3 0.8
v 0.3 0.3 0.8
v 0.3 0.4 0.8
v 0.4 0.4 0.8
v 0.4 0.5 0.8
v 0.5 0.5 0.8
v 0.5 0.6 0.8
v 0.6 0.6 0.8
v 0.6 0.7 0.8
v 0.7 0.7 0.8
v 0.7 0.8 0.8
v 0.8 -0.8 0.8
v 0.8 0.8 0.8
v -0.8 -0.8 -0.8
v -0.8 -0.7 -0.8
v -0.7 -0.7 -0.8
v -0.7 -0.6 -0.8
v -0.6 -0.6 -0.8
v -0.6 -0.5 -0.8
v -0.5 -0.5 -0.8
v -0.5 -0.4 -0.8
v -0.4 -0.4 -0.8
v -0.4 -0.3 -0.8
v -0.3 -0.3 -0.8
v -0.3 -0.2 -0.8
v -0.2 -0.2 -0.8
v -0.2 -0.1 -0.8
v -0.1 -0.1 -0.8
v -0.1 0 -0.8
v 0 0 -0.8
v 0 0.1 -0.8
v 0.1 0.1 -0.8
v 0.1 0.2 -0.8
v 0.2 0.2 -0.8
v 0.2 0.3 -0.8
v 0.3 0.3 -0.8
v 0.3 0.4 -0.8
v 0.4 0.4 -0.8
v 0.4 0.5 -0.8
v 0.5 0.5 -0.8
v 0.5 0.6 -0.8
v 0.6 0.6 -0.8
v 0.6 0.7 -0.8
v 0.7 0.7 -0.8
v 0.7 0.8 -0.8
v 0.8 -0.8 -0.8
v 0.8 0.8 -0.8
v -0.8 -0.8 0.8
v 0.8 -0.8 0.8
v -0.8 -0.8 -0.8
v 0.8 -0.8 -0.8
v -0.8 -0.7 0.8
v -0.7 -0.7 0.8
v -0.8 -0.7 -0.8
v -0.7 -0.7 -0.8
v -0.7 -0.6 0.8
v -0.6 -0.6 0.8
v -0.7 -0.6 -0.8
v -0.6 -0.6 -0.8
v -0.6 -0.5 0.8
v -0.5 -0.5 0.8
v -0.6 -0.5 -0.8
v -0.5 -0.5 -0.8
v -0.5 -0.4 0.8
v -0.4 -0.4 0.8
v -0.5 -0.4 -0.8
v -0.4 -0.4 -0.8
v -0.4 -0.3 0.8
v -0.3 -0.3 0.8
v -0.4 -0.3 -0.8
v -0.3 -0.3 -0.8
v -0.3 -0.2 0.8
v -0.2 -0.2 0.8
v -0.3 -0.2 -0.8
v -0.2 -0.2 -0.8
v -0.2 -0.1 0.8
v -0.1 -0.1 0.8
v -0.2 -0.1 -0.8
v -0.1 -0.1 -0.8
v -0.1 0 0.8
v 0 0 0.8
v -0.1 0 -0.8
v 0 0 -0.8
v 0 0.1 0.8
v 0.1 0.1 0.8
v 0 0.1 -0.8
v 0.1 0.1 -0.8
v 0.1 0.2 0.8
v 0.2 0.2 0.8
v 0.1 0.2 -0.8
v 0.2 0.2 -0.8
v 0.2 0.3 0.8
v 0.3 0.3 0.8
v 0.2 0.3 -0.8
v 0.3 0.3 -0.8
v 0.3 0.4 0.8
v 0.4 0.4 0.8
v 0.3 0.4 -0.8
v 0.4 0.4 -0.8
v 0.4 0.5 0.8
v 0.5 0.5 0.8
v 0.4 0.5 -0.8
v 0.5 0.5 -0.8
v 0.5 0.6 0.8
v 0.6 0.6 0.8
v 0.5 0.6 -0.8
v 0.6 0.6 -0.8
v 0.6 0.7 0.8
v 0.7 0.7 0.8
v 0.6 0.7 -0.8
v 0.7 0.7 -0.8
v 0.7 0.8 0.8
v 0.8 0.8 0.8
v 0.7 0.8 -0.8
v 0.8 0.8 -0.8

# faces
f 3/1/1 2/1/1 1/1/1
f 4/1/1 2/1/1 3/1/1
f 7/1/1 6/1/1 5/1/1
f 8/1/1 6/1/1 7/1/1
f 11/1/1 10/1/1 9/1/1
f 12/1/1 10/1/1 11/1/1
f 15/1/1 14/1/1 13/1/1
f 16/1/1 14/1/1 15/1/1
f 19/1/1 18/1/1 17/1/1
f 20/1/1 18/1/1 19/1/1
f 23/1/1 22/1/1 21/1/1
f 24/1/1 22/1/1 23/1/1
f 27/1/1 26/1/1 25/1/1
f 28/1/1 26/1/1 27/1/1
f 31/1/1 30/1/1 29/1/1
f 32/1/1 30/1/1 31/1/1
f 35/1/1 34/1/1 33/1/1
f 36/1/1 34/1/1 35/1/1
f 39/1/1 38/1/1 37/1/1
f 40/1/1 38/1/1 39/1/1
f 43/1/1 42/1/1 41/1/1
f 44/1/1 42/1/1 43/1/1
f 47/1/1 46/1/1 45/1/1
f 48/1/1 46/1/1 47/1/1
f 51/1/1 50/1/1 49/1/1
f 52/1/1 50/1/1 51/1/1
f 55/1/1 54/1/1 53/1/1
f 56/1/1 54/1/1 55/1/1
f 59/1/1 58/1/1 57/1/1
f 60/1/1 58/1/1 59/1/1
f 63/1/1 62/1/1 61/1/1
f 64/1/1 62/1/1 63/1/1
f 65/1/2 66/1/2 67/1/2
f 67/1/2 66/1/2 68/1/2
f 71/1/3 70/1/3 69/1/3
f 73/1/3 72/1/3 71/1/3
f 75/1/3 74/1/3 73/1/3
f 77/1/3 76/1/3 75/1/3
f 79/1/3 78/1/3 77/1/3
f 81/1/3 80/1/3 79/1/3
f 83/1/3 82/1/3 81/1/3
f 85/1/3 84/1/3 83/1/3
f 87/1/3 86/1/3 85/1/3
f 89/1/3 88/1/3 87/1/3
f 91/1/3 90/1/3 89/1/3
f 93/1/3 92/1/3 91/1/3
f 95/1/3 94/1/3 93/1/3
f 97/1/3 96/1/3 95/1/3
f 99/1/3 98/1/3 97/1/3
f 101/1/3 71/1/3 69/1/3
f 101/1/3 100/1/3 99/1/3
f 101/1/3 99/1/3 97/1/3
f 101/1/3 97/1/3 95/1/3
f 101/1/3 95/1/3 93/1/3
f 101/1/3 93/1/3 91/1/3
f 101/1/3 91/1/3 89/1/3
f 101/1/3 89/1/3 87/1/3
f 101/1/3 87/1/3 85/1/3
f 101/1/3 85/1/3 83/1/3
f 101/1/3 83/1/3 81/1/3
f 101/1/3 81/1/3 79/1/3
f 101/1/3 79/1/3 77/1/3
f 101/1/3 77/1/3 75/1/3
f 101/1/3 75/1/3 73/1/3
f 101/1/3 73/1/3 71/1/3
f 102/1/3 100/1/3 101/1/3
f 103/1/4 104/1/4 105/1/4
f 105/1/4 106/1/4 107/1/4
f 107/1/4 108/1/4 109/1/4
f 109/1/4 110/1/4 111/1/4
f 111/1/4 112/1/4 113/1/4
f 113/1/4 114/1/4 115/1/4
f 115/1/4 116/1/4 117/1/4
f 117/1/4 118/1/4 119/1/4
f 119/1/4 120/1/4 121/1/4
f 121/1/4 122/1/4 123/1/4
f 123/1/4 124/1/4 125/1/4
f 125/1/4 126/1/4 127/1/4
f 127/1/4 128/1/4 129/1/4
f 129/1/4 130/1/4 131/1/4
f 131/1/4 132/1/4 133/1/4
f 103/1/4 105/1/4 135/1/4
f 133/1/4 134/1/4 135/1/4
f 131/1/4 133/1/4 135/1/4
f 129/1/4 131/1/4 135/1/4
f 127/1/4 129/1/4 135/1/4
f 125/1/4 127/1/4 135/1/4
f 123/1/4 125/1/4 135/1/4
f 121/1/4 123/1/4 135/1/4
f 119/1/4 121/1/4 135/1/4
f 117/1/4 119/1/4 135/1/4
f 115/1/4 117/1/4 135/1/4
f 113/1/4 115/1/4 135/1/4
f 111/1/4 113/1/4 135/1/4
f 109/1/4 111/1/4 135/1/4
f 107/1/4 109/1/4 135/1/4
f 105/1/4 107/1/4 135/1/4
f 135/1/4 134/1/4 136/1/4
f 139/1/5 138/1/5 137/1/5
f 140/1/5 138/1/5 139/1/5
f 141/1/6 142/1/6 143/1/6
f 143/1/6 142/1/6 144/1/6
f 145/1/6 146/1/6 147/1/6
f 147/1/6 146/1/6 148/1/6
f 149/1/6 150/1/6 151/1/6
f 151/1/6 150/1/6 152/1/6
f 153/1/6 154/1/6 155/1/6
f 155/1/6 154/1/6 156/1/6
f 157/1/6 158/1/6 159/1/6
f 159/1/6 158/1/6 160/1/6
f 161/1/6 162/1/6 163/1/6
f 163/1/6 162/1/6 164/1/6
f 165/1/6 166/1/6 167/1/6
f 167/1/6 166/1/6 168/1/6
f 169/1/6 170/1/6 171/1/6
f 171/1/6 170/1/6 172/1/6
f 173/1/6 174/1/6 175/1/6
f 175/1/6 174/1/6 176/1/6
f 177/1/6 178/1/6 179/1/6
f 179/1/6 178/1/6 180/1/6
f 181/1/6 182/1/6 183/1/6
f 183/1/6 182/1/6 184/1/6
f 185/1/6 186/1/6 187/1/6
f 187/1/6 186/1/6 188/1/6
f 189/1/6 190/1/6 191/1/6
f 191/1/6 190/1/6 192/1/6
f 193/1/6 194/1/6 195/1/6
f 195/1/6 194/1/6 196/1/6
f 197/1/6 198/1/6 199/1/6
f 199/1/6 198/1/6 200/1/6
f 201/1/6 202/1/6 203/1/6
f 203/1/6 202/1/6 204/1/6
