# MagicaVoxel @ Ephtracy

# group
o 

# material
mtllib dirtFlatCurveInwardsGrass-0.mtl
usemtl palette

# normals
vn -1 0 0
vn 1 0 0
vn 0 0 1
vn 0 0 -1
vn 0 -1 0
vn 0 1 0

# texcoords
vt 0.306641 0.5
vt 0.623047 0.5

# verts
v -0.8 -0.8 0.8
v -0.8 -0.8 -0.8
v -0.8 0.7 -0.7
v -0.8 0.7 -0.8
v -0.8 0.8 0.8
v -0.8 0.8 -0.7
v -0.8 0.8 -0.8
v 0.8 -0.8 0.8
v 0.8 -0.8 -0.8
v 0.8 0.7 -0.6
v 0.8 0.7 -0.8
v 0.8 0.8 0.8
v 0.8 0.8 -0.6
v 0.8 0.8 -0.8
v -0.8 -0.8 0.8
v -0.8 0.8 0.8
v 0.8 -0.8 0.8
v 0.8 0.8 0.8
v -0.8 -0.8 -0.8
v -0.8 0.7 -0.8
v -0.8 0.8 -0.8
v -0.6 0.6 -0.8
v -0.6 0.7 -0.8
v -0.5 0.4 -0.8
v -0.5 0.5 -0.8
v -0.4 0.4 -0.8
v -0.4 0.5 -0.8
v -0.4 0.6 -0.8
v -0.4 0.7 -0.8
v -0.1 0.6 -0.8
v -0.1 0.7 -0.8
v 0 0.5 -0.8
v 0 0.6 -0.8
v 0.1 0.4 -0.8
v 0.1 0.5 -0.8
v 0.2 0.4 -0.8
v 0.2 0.6 -0.8
v 0.3 0.5 -0.8
v 0.3 0.6 -0.8
v 0.4 0.5 -0.8
v 0.4 0.6 -0.8
v 0.6 0.6 -0.8
v 0.6 0.7 -0.8
v 0.8 -0.8 -0.8
v 0.8 0.7 -0.8
v 0.8 0.8 -0.8
v -0.8 -0.8 0.8
v 0.8 -0.8 0.8
v -0.8 -0.8 -0.8
v 0.8 -0.8 -0.8
v -0.8 0.8 0.8
v 0.8 0.8 0.8
v -0.5 0.8 -0.5
v -0.4 0.8 -0.5
v 0.1 0.8 -0.5
v 0.2 0.8 -0.5
v 0.6 0.8 -0.5
v 0.7 0.8 -0.5
v -0.7 0.8 -0.6
v -0.6 0.8 -0.6
v -0.4 0.8 -0.6
v -0.3 0.8 -0.6
v -0.2 0.8 -0.6
v 0 0.8 -0.6
v 0.1 0.8 -0.6
v 0.2 0.8 -0.6
v 0.4 0.8 -0.6
v 0.5 0.8 -0.6
v 0.7 0.8 -0.6
v 0.8 0.8 -0.6
v -0.8 0.8 -0.7
v -0.7 0.8 -0.7
v -0.6 0.8 -0.7
v -0.5 0.8 -0.7
v -0.3 0.8 -0.7
v -0.2 0.8 -0.7
v 0 0.8 -0.7
v 0.4 0.8 -0.7
v 0.5 0.8 -0.7
v 0.6 0.8 -0.7
v -0.8 0.8 -0.8
v 0.8 0.8 -0.8

# faces
f 3/1/1 2/1/1 1/1/1
f 4/1/1 2/1/1 3/1/1
f 5/1/1 3/1/1 1/1/1
f 6/2/1 4/2/1 3/2/1
f 6/1/1 3/1/1 5/1/1
f 7/2/1 4/2/1 6/2/1
f 8/1/2 9/1/2 10/1/2
f 10/1/2 9/1/2 11/1/2
f 8/1/2 10/1/2 12/1/2
f 10/2/2 11/2/2 13/2/2
f 12/1/2 10/1/2 13/1/2
f 13/2/2 11/2/2 14/2/2
f 17/1/3 16/1/3 15/1/3
f 18/1/3 16/1/3 17/1/3
f 19/1/4 20/1/4 22/1/4
f 20/2/4 21/2/4 23/2/4
f 22/1/4 20/1/4 23/1/4
f 19/1/4 22/1/4 24/1/4
f 24/1/4 22/1/4 25/1/4
f 19/1/4 24/1/4 26/1/4
f 24/2/4 25/2/4 26/2/4
f 25/1/4 22/1/4 27/1/4
f 26/2/4 25/2/4 27/2/4
f 22/2/4 23/2/4 28/2/4
f 27/1/4 22/1/4 28/1/4
f 23/2/4 21/2/4 29/2/4
f 28/2/4 23/2/4 29/2/4
f 27/1/4 28/1/4 30/1/4
f 26/1/4 27/1/4 30/1/4
f 28/1/4 29/1/4 30/1/4
f 29/2/4 21/2/4 31/2/4
f 30/1/4 29/1/4 31/1/4
f 26/1/4 30/1/4 32/1/4
f 30/2/4 31/2/4 33/2/4
f 32/1/4 30/1/4 33/1/4
f 19/1/4 26/1/4 34/1/4
f 26/1/4 32/1/4 34/1/4
f 32/2/4 33/2/4 35/2/4
f 34/1/4 32/1/4 35/1/4
f 19/1/4 34/1/4 36/1/4
f 34/2/4 35/2/4 36/2/4
f 33/2/4 31/2/4 37/2/4
f 36/2/4 35/2/4 37/2/4
f 35/2/4 33/2/4 37/2/4
f 36/1/4 37/1/4 38/1/4
f 37/2/4 31/2/4 39/2/4
f 38/1/4 37/1/4 39/1/4
f 36/1/4 38/1/4 40/1/4
f 38/2/4 39/2/4 40/2/4
f 39/2/4 31/2/4 41/2/4
f 40/2/4 39/2/4 41/2/4
f 40/1/4 41/1/4 42/1/4
f 41/2/4 31/2/4 42/2/4
f 31/2/4 21/2/4 43/2/4
f 42/2/4 31/2/4 43/2/4
f 40/1/4 42/1/4 44/1/4
f 19/1/4 36/1/4 44/1/4
f 42/1/4 43/1/4 44/1/4
f 36/1/4 40/1/4 44/1/4
f 43/2/4 21/2/4 45/2/4
f 44/1/4 43/1/4 45/1/4
f 45/2/4 21/2/4 46/2/4
f 49/1/5 48/1/5 47/1/5
f 50/1/5 48/1/5 49/1/5
f 51/1/6 52/1/6 53/1/6
f 53/1/6 52/1/6 54/1/6
f 54/1/6 52/1/6 55/1/6
f 55/1/6 52/1/6 56/1/6
f 56/1/6 52/1/6 57/1/6
f 57/1/6 52/1/6 58/1/6
f 51/1/6 53/1/6 59/1/6
f 59/1/6 53/1/6 60/1/6
f 53/2/6 54/2/6 61/2/6
f 54/1/6 55/1/6 61/1/6
f 61/1/6 55/1/6 62/1/6
f 62/1/6 55/1/6 63/1/6
f 63/1/6 55/1/6 64/1/6
f 55/2/6 56/2/6 65/2/6
f 64/1/6 55/1/6 65/1/6
f 56/1/6 57/1/6 66/1/6
f 65/2/6 56/2/6 66/2/6
f 66/1/6 57/1/6 67/1/6
f 67/1/6 57/1/6 68/1/6
f 58/1/6 52/1/6 69/1/6
f 57/2/6 58/2/6 69/2/6
f 69/1/6 52/1/6 70/1/6
f 51/1/6 59/1/6 71/1/6
f 59/2/6 60/2/6 72/2/6
f 71/1/6 59/1/6 72/1/6
f 60/1/6 53/1/6 73/1/6
f 72/2/6 60/2/6 73/2/6
f 53/2/6 61/2/6 74/2/6
f 73/1/6 53/1/6 74/1/6
f 61/2/6 62/2/6 74/2/6
f 62/1/6 63/1/6 75/1/6
f 74/2/6 62/2/6 75/2/6
f 63/2/6 64/2/6 76/2/6
f 75/1/6 63/1/6 76/1/6
f 64/1/6 65/1/6 77/1/6
f 76/2/6 64/2/6 77/2/6
f 65/1/6 66/1/6 77/1/6
f 66/1/6 67/1/6 77/1/6
f 67/2/6 68/2/6 78/2/6
f 77/1/6 67/1/6 78/1/6
f 68/1/6 57/1/6 79/1/6
f 78/2/6 68/2/6 79/2/6
f 69/2/6 70/2/6 80/2/6
f 79/1/6 57/1/6 80/1/6
f 57/2/6 69/2/6 80/2/6
f 77/2/6 78/2/6 81/2/6
f 71/2/6 72/2/6 81/2/6
f 79/2/6 80/2/6 81/2/6
f 73/2/6 74/2/6 81/2/6
f 78/2/6 79/2/6 81/2/6
f 72/2/6 73/2/6 81/2/6
f 74/2/6 75/2/6 81/2/6
f 76/2/6 77/2/6 81/2/6
f 75/2/6 76/2/6 81/2/6
f 80/2/6 70/2/6 82/2/6
f 81/2/6 80/2/6 82/2/6
