# MagicaVoxel @ Ephtracy

# group
o 

# material
mtllib dirtSlopeGrass-0.mtl
usemtl palette

# normals
vn -1 0 0
vn 1 0 0
vn 0 0 1
vn 0 0 -1
vn 0 -1 0
vn 0 1 0

# texcoords
vt 0.306641 0.5
vt 0.623047 0.5

# verts
v -0.8 -0.8 0.8
v -0.8 -0.8 -0.7
v -0.8 -0.8 -0.8
v -0.8 -0.7 0.8
v -0.8 -0.7 -0.7
v -0.8 -0.7 -0.8
v -0.7 -0.7 0.8
v -0.7 -0.7 -0.6
v -0.7 -0.7 -0.7
v -0.7 -0.7 -0.8
v -0.7 -0.6 0.8
v -0.7 -0.6 -0.6
v -0.7 -0.6 -0.8
v -0.6 -0.6 0.8
v -0.6 -0.6 -0.6
v -0.6 -0.6 -0.7
v -0.6 -0.6 -0.8
v -0.6 -0.5 0.8
v -0.6 -0.5 -0.7
v -0.6 -0.5 -0.8
v -0.5 -0.5 0.8
v -0.5 -0.5 -0.5
v -0.5 -0.5 -0.7
v -0.5 -0.5 -0.8
v -0.5 -0.4 0.8
v -0.5 -0.4 -0.5
v -0.5 -0.4 -0.8
v -0.4 -0.4 0.8
v -0.4 -0.4 -0.5
v -0.4 -0.4 -0.6
v -0.4 -0.4 -0.8
v -0.4 -0.3 0.8
v -0.4 -0.3 -0.6
v -0.4 -0.3 -0.8
v -0.3 -0.3 0.8
v -0.3 -0.3 -0.6
v -0.3 -0.3 -0.7
v -0.3 -0.3 -0.8
v -0.3 -0.2 0.8
v -0.3 -0.2 -0.7
v -0.3 -0.2 -0.8
v -0.2 -0.2 0.8
v -0.2 -0.2 -0.5
v -0.2 -0.2 -0.6
v -0.2 -0.2 -0.7
v -0.2 -0.2 -0.8
v -0.2 -0.1 0.8
v -0.2 -0.1 -0.5
v -0.2 -0.1 -0.6
v -0.2 -0.1 -0.7
v -0.2 -0.1 -0.8
v -0.1 -0.1 0.8
v -0.1 -0.1 -0.5
v -0.1 -0.1 -0.6
v -0.1 -0.1 -0.7
v -0.1 -0.1 -0.8
v -0.1 0 0.8
v -0.1 0 -0.7
v -0.1 0 -0.8
v 0 0 0.8
v 0 0 -0.6
v 0 0 -0.7
v 0 0 -0.8
v 0 0.1 0.8
v 0 0.1 -0.6
v 0 0.1 -0.8
v 0.1 0.1 0.8
v 0.1 0.1 -0.5
v 0.1 0.1 -0.6
v 0.1 0.1 -0.8
v 0.1 0.2 0.8
v 0.1 0.2 -0.5
v 0.1 0.2 -0.8
v 0.2 0.2 0.8
v 0.2 0.2 -0.5
v 0.2 0.2 -0.6
v 0.2 0.2 -0.8
v 0.2 0.3 0.8
v 0.2 0.3 -0.6
v 0.2 0.3 -0.8
v 0.3 0.3 0.8
v 0.3 0.3 -0.6
v 0.3 0.3 -0.8
v 0.3 0.4 0.8
v 0.3 0.4 -0.6
v 0.3 0.4 -0.8
v 0.4 0.4 0.8
v 0.4 0.4 -0.6
v 0.4 0.4 -0.7
v 0.4 0.4 -0.8
v 0.4 0.5 0.8
v 0.4 0.5 -0.7
v 0.4 0.5 -0.8
v 0.5 0.5 0.8
v 0.5 0.5 -0.7
v 0.5 0.5 -0.8
v 0.5 0.6 0.8
v 0.5 0.6 -0.7
v 0.5 0.6 -0.8
v 0.6 0.6 0.8
v 0.6 0.6 -0.5
v 0.6 0.6 -0.7
v 0.6 0.6 -0.8
v 0.6 0.7 0.8
v 0.6 0.7 -0.5
v 0.6 0.7 -0.8
v 0.7 0.7 0.8
v 0.7 0.7 -0.5
v 0.7 0.7 -0.6
v 0.7 0.7 -0.7
v 0.7 0.7 -0.8
v 0.7 0.8 0.8
v 0.7 0.8 -0.5
v 0.7 0.8 -0.6
v 0.7 0.8 -0.7
v 0.7 0.8 -0.8
v 0.8 -0.8 0.8
v 0.8 -0.8 -0.8
v 0.8 0.5 -0.7
v 0.8 0.5 -0.8
v 0.8 0.7 -0.5
v 0.8 0.7 -0.6
v 0.8 0.8 0.8
v 0.8 0.8 -0.5
v 0.8 0.8 -0.6
v 0.8 0.8 -0.7
v 0.8 0.8 -0.8
v -0.8 -0.8 0.8
v -0.8 -0.7 0.8
v -0.7 -0.7 0.8
v -0.7 -0.6 0.8
v -0.6 -0.6 0.8
v -0.6 -0.5 0.8
v -0.5 -0.5 0.8
v -0.5 -0.4 0.8
v -0.4 -0.4 0.8
v -0.4 -0.3 0.8
v -0.3 -0.3 0.8
v -0.3 -0.2 0.8
v -0.2 -0.2 0.8
v -0.2 -0.1 0.8
v -0.1 -0.1 0.8
v -0.1 0 0.8
v 0 0 0.8
v 0 0.1 0.8
v 0.1 0.1 0.8
v 0.1 0.2 0.8
v 0.2 0.2 0.8
v 0.2 0.3 0.8
v 0.3 0.3 0.8
v 0.3 0.4 0.8
v 0.4 0.4 0.8
v 0.4 0.5 0.8
v 0.5 0.5 0.8
v 0.5 0.6 0.8
v 0.6 0.6 0.8
v 0.6 0.7 0.8
v 0.7 0.7 0.8
v 0.7 0.8 0.8
v 0.8 -0.8 0.8
v 0.8 0.8 0.8
v -0.8 -0.8 -0.8
v -0.8 -0.7 -0.8
v -0.7 -0.8 -0.8
v -0.7 -0.7 -0.8
v -0.7 -0.6 -0.8
v -0.6 -0.8 -0.8
v -0.6 -0.7 -0.8
v -0.6 -0.6 -0.8
v -0.6 -0.5 -0.8
v -0.5 -0.8 -0.8
v -0.5 -0.7 -0.8
v -0.5 -0.5 -0.8
v -0.5 -0.4 -0.8
v -0.4 -0.7 -0.8
v -0.4 -0.4 -0.8
v -0.4 -0.3 -0.8
v -0.3 -0.3 -0.8
v -0.3 -0.2 -0.8
v -0.2 -0.5 -0.8
v -0.2 -0.4 -0.8
v -0.2 -0.2 -0.8
v -0.2 -0.1 -0.8
v -0.1 -0.7 -0.8
v -0.1 -0.6 -0.8
v -0.1 -0.1 -0.8
v -0.1 0 -0.8
v 0 -0.7 -0.8
v 0 -0.6 -0.8
v 0 -0.5 -0.8
v 0 -0.2 -0.8
v 0 0 -0.8
v 0 0.1 -0.8
v 0.1 -0.2 -0.8
v 0.1 0 -0.8
v 0.1 0.1 -0.8
v 0.1 0.2 -0.8
v 0.2 -0.1 -0.8
v 0.2 0 -0.8
v 0.2 0.2 -0.8
v 0.2 0.3 -0.8
v 0.3 -0.1 -0.8
v 0.3 0 -0.8
v 0.3 0.3 -0.8
v 0.3 0.4 -0.8
v 0.4 -0.2 -0.8
v 0.4 -0.1 -0.8
v 0.4 0 -0.8
v 0.4 0.2 -0.8
v 0.4 0.4 -0.8
v 0.4 0.5 -0.8
v 0.5 -0.2 -0.8
v 0.5 -0.1 -0.8
v 0.5 0.1 -0.8
v 0.5 0.2 -0.8
v 0.5 0.5 -0.8
v 0.5 0.6 -0.8
v 0.6 0.1 -0.8
v 0.6 0.6 -0.8
v 0.6 0.7 -0.8
v 0.7 0.5 -0.8
v 0.7 0.6 -0.8
v 0.7 0.7 -0.8
v 0.7 0.8 -0.8
v 0.8 -0.8 -0.8
v 0.8 0.5 -0.8
v 0.8 0.8 -0.8
v -0.8 -0.8 0.8
v 0.8 -0.8 0.8
v -0.8 -0.8 -0.7
v -0.7 -0.8 -0.7
v -0.6 -0.8 -0.7
v -0.5 -0.8 -0.7
v -0.8 -0.8 -0.8
v -0.7 -0.8 -0.8
v -0.6 -0.8 -0.8
v -0.5 -0.8 -0.8
v 0.8 -0.8 -0.8
v -0.8 -0.7 0.8
v -0.7 -0.7 0.8
v -0.7 -0.7 -0.6
v -0.8 -0.7 -0.7
v -0.7 -0.7 -0.7
v -0.8 -0.7 -0.8
v -0.7 -0.7 -0.8
v -0.7 -0.6 0.8
v -0.6 -0.6 0.8
v -0.7 -0.6 -0.6
v -0.6 -0.6 -0.6
v -0.6 -0.6 -0.7
v -0.7 -0.6 -0.8
v -0.6 -0.6 -0.8
v -0.6 -0.5 0.8
v -0.5 -0.5 0.8
v -0.5 -0.5 -0.5
v -0.6 -0.5 -0.7
v -0.5 -0.5 -0.7
v -0.6 -0.5 -0.8
v -0.5 -0.5 -0.8
v -0.5 -0.4 0.8
v -0.4 -0.4 0.8
v -0.5 -0.4 -0.5
v -0.4 -0.4 -0.5
v -0.4 -0.4 -0.6
v -0.5 -0.4 -0.8
v -0.4 -0.4 -0.8
v -0.4 -0.3 0.8
v -0.3 -0.3 0.8
v -0.4 -0.3 -0.6
v -0.3 -0.3 -0.6
v -0.3 -0.3 -0.7
v -0.4 -0.3 -0.8
v -0.3 -0.3 -0.8
v -0.3 -0.2 0.8
v -0.2 -0.2 0.8
v -0.2 -0.2 -0.5
v -0.2 -0.2 -0.6
v -0.3 -0.2 -0.7
v -0.2 -0.2 -0.7
v -0.3 -0.2 -0.8
v -0.2 -0.2 -0.8
v -0.2 -0.1 0.8
v -0.1 -0.1 0.8
v -0.2 -0.1 -0.5
v -0.1 -0.1 -0.5
v -0.2 -0.1 -0.6
v -0.1 -0.1 -0.6
v -0.2 -0.1 -0.7
v -0.1 -0.1 -0.7
v -0.2 -0.1 -0.8
v -0.1 -0.1 -0.8
v -0.1 0 0.8
v 0 0 0.8
v 0 0 -0.6
v -0.1 0 -0.7
v 0 0 -0.7
v -0.1 0 -0.8
v 0 0 -0.8
v 0 0.1 0.8
v 0.1 0.1 0.8
v 0.1 0.1 -0.5
v 0 0.1 -0.6
v 0.1 0.1 -0.6
v 0 0.1 -0.8
v 0.1 0.1 -0.8
v 0.1 0.2 0.8
v 0.2 0.2 0.8
v 0.1 0.2 -0.5
v 0.2 0.2 -0.5
v 0.2 0.2 -0.6
v 0.1 0.2 -0.8
v 0.2 0.2 -0.8
v 0.2 0.3 0.8
v 0.3 0.3 0.8
v 0.2 0.3 -0.6
v 0.3 0.3 -0.6
v 0.2 0.3 -0.8
v 0.3 0.3 -0.8
v 0.3 0.4 0.8
v 0.4 0.4 0.8
v 0.3 0.4 -0.6
v 0.4 0.4 -0.6
v 0.4 0.4 -0.7
v 0.3 0.4 -0.8
v 0.4 0.4 -0.8
v 0.4 0.5 0.8
v 0.5 0.5 0.8
v 0.4 0.5 -0.7
v 0.5 0.5 -0.7
v 0.4 0.5 -0.8
v 0.5 0.5 -0.8
v 0.5 0.6 0.8
v 0.6 0.6 0.8
v 0.6 0.6 -0.5
v 0.5 0.6 -0.7
v 0.6 0.6 -0.7
v 0.5 0.6 -0.8
v 0.6 0.6 -0.8
v 0.6 0.7 0.8
v 0.7 0.7 0.8
v 0.6 0.7 -0.5
v 0.7 0.7 -0.5
v 0.7 0.7 -0.6
v 0.7 0.7 -0.7
v 0.6 0.7 -0.8
v 0.7 0.7 -0.8
v 0.7 0.8 0.8
v 0.8 0.8 0.8
v 0.7 0.8 -0.5
v 0.8 0.8 -0.5
v 0.7 0.8 -0.6
v 0.8 0.8 -0.6
v 0.7 0.8 -0.7
v 0.8 0.8 -0.7
v 0.7 0.8 -0.8
v 0.8 0.8 -0.8

# faces
f 4/1/1 2/1/1 1/1/1
f 5/2/1 3/2/1 2/2/1
f 5/1/1 2/1/1 4/1/1
f 6/2/1 3/2/1 5/2/1
f 11/1/1 8/1/1 7/1/1
f 12/2/1 10/2/1 9/2/1
f 12/1/1 8/1/1 11/1/1
f 12/2/1 9/2/1 8/2/1
f 13/2/1 10/2/1 12/2/1
f 18/1/1 15/1/1 14/1/1
f 18/1/1 16/1/1 15/1/1
f 19/2/1 17/2/1 16/2/1
f 19/1/1 16/1/1 18/1/1
f 20/2/1 17/2/1 19/2/1
f 25/1/1 22/1/1 21/1/1
f 26/2/1 24/2/1 23/2/1
f 26/1/1 22/1/1 25/1/1
f 26/2/1 23/2/1 22/2/1
f 27/2/1 24/2/1 26/2/1
f 32/1/1 29/1/1 28/1/1
f 32/1/1 30/1/1 29/1/1
f 33/2/1 31/2/1 30/2/1
f 33/1/1 30/1/1 32/1/1
f 34/2/1 31/2/1 33/2/1
f 39/1/1 36/1/1 35/1/1
f 39/1/1 37/1/1 36/1/1
f 40/2/1 38/2/1 37/2/1
f 40/1/1 37/1/1 39/1/1
f 41/2/1 38/2/1 40/2/1
f 47/1/1 43/1/1 42/1/1
f 48/2/1 44/2/1 43/2/1
f 48/1/1 43/1/1 47/1/1
f 49/1/1 45/1/1 44/1/1
f 49/2/1 44/2/1 48/2/1
f 50/2/1 46/2/1 45/2/1
f 50/1/1 45/1/1 49/1/1
f 51/2/1 46/2/1 50/2/1
f 57/1/1 53/1/1 52/1/1
f 57/1/1 54/1/1 53/1/1
f 57/1/1 55/1/1 54/1/1
f 58/2/1 56/2/1 55/2/1
f 58/1/1 55/1/1 57/1/1
f 59/2/1 56/2/1 58/2/1
f 64/1/1 61/1/1 60/1/1
f 65/2/1 63/2/1 62/2/1
f 65/1/1 61/1/1 64/1/1
f 65/2/1 62/2/1 61/2/1
f 66/2/1 63/2/1 65/2/1
f 71/1/1 68/1/1 67/1/1
f 72/2/1 70/2/1 69/2/1
f 72/1/1 68/1/1 71/1/1
f 72/2/1 69/2/1 68/2/1
f 73/2/1 70/2/1 72/2/1
f 78/1/1 75/1/1 74/1/1
f 78/1/1 76/1/1 75/1/1
f 79/2/1 77/2/1 76/2/1
f 79/1/1 76/1/1 78/1/1
f 80/2/1 77/2/1 79/2/1
f 84/1/1 82/1/1 81/1/1
f 85/2/1 83/2/1 82/2/1
f 85/1/1 82/1/1 84/1/1
f 86/2/1 83/2/1 85/2/1
f 91/1/1 88/1/1 87/1/1
f 91/1/1 89/1/1 88/1/1
f 92/2/1 90/2/1 89/2/1
f 92/1/1 89/1/1 91/1/1
f 93/2/1 90/2/1 92/2/1
f 97/1/1 95/1/1 94/1/1
f 98/2/1 96/2/1 95/2/1
f 98/1/1 95/1/1 97/1/1
f 99/2/1 96/2/1 98/2/1
f 104/1/1 101/1/1 100/1/1
f 105/2/1 103/2/1 102/2/1
f 105/1/1 101/1/1 104/1/1
f 105/2/1 102/2/1 101/2/1
f 106/2/1 103/2/1 105/2/1
f 112/1/1 108/1/1 107/1/1
f 113/2/1 109/2/1 108/2/1
f 113/1/1 108/1/1 112/1/1
f 114/1/1 110/1/1 109/1/1
f 114/2/1 109/2/1 113/2/1
f 115/2/1 111/2/1 110/2/1
f 115/1/1 110/1/1 114/1/1
f 116/2/1 111/2/1 115/2/1
f 117/1/2 118/1/2 119/1/2
f 119/1/2 118/1/2 120/1/2
f 117/1/2 119/1/2 121/1/2
f 121/1/2 119/1/2 122/1/2
f 117/1/2 121/1/2 123/1/2
f 121/2/2 122/2/2 124/2/2
f 123/1/2 121/1/2 124/1/2
f 122/1/2 119/1/2 125/1/2
f 124/2/2 122/2/2 125/2/2
f 119/2/2 120/2/2 126/2/2
f 125/1/2 119/1/2 126/1/2
f 126/2/2 120/2/2 127/2/2
f 130/1/3 129/1/3 128/1/3
f 132/1/3 131/1/3 130/1/3
f 134/1/3 133/1/3 132/1/3
f 136/1/3 135/1/3 134/1/3
f 138/1/3 137/1/3 136/1/3
f 140/1/3 139/1/3 138/1/3
f 142/1/3 141/1/3 140/1/3
f 144/1/3 143/1/3 142/1/3
f 146/1/3 145/1/3 144/1/3
f 148/1/3 147/1/3 146/1/3
f 150/1/3 149/1/3 148/1/3
f 152/1/3 151/1/3 150/1/3
f 154/1/3 153/1/3 152/1/3
f 156/1/3 155/1/3 154/1/3
f 158/1/3 157/1/3 156/1/3
f 160/1/3 130/1/3 128/1/3
f 160/1/3 159/1/3 158/1/3
f 160/1/3 158/1/3 156/1/3
f 160/1/3 156/1/3 154/1/3
f 160/1/3 154/1/3 152/1/3
f 160/1/3 152/1/3 150/1/3
f 160/1/3 150/1/3 148/1/3
f 160/1/3 148/1/3 146/1/3
f 160/1/3 146/1/3 144/1/3
f 160/1/3 144/1/3 142/1/3
f 160/1/3 142/1/3 140/1/3
f 160/1/3 140/1/3 138/1/3
f 160/1/3 138/1/3 136/1/3
f 160/1/3 136/1/3 134/1/3
f 160/1/3 134/1/3 132/1/3
f 160/1/3 132/1/3 130/1/3
f 161/1/3 159/1/3 160/1/3
f 162/2/4 163/2/4 164/2/4
f 164/2/4 163/2/4 165/2/4
f 164/1/4 165/1/4 167/1/4
f 165/2/4 166/2/4 168/2/4
f 167/1/4 165/1/4 168/1/4
f 168/2/4 166/2/4 169/2/4
f 167/2/4 168/2/4 171/2/4
f 169/2/4 170/2/4 171/2/4
f 168/2/4 169/2/4 171/2/4
f 171/2/4 170/2/4 172/2/4
f 172/2/4 170/2/4 173/2/4
f 171/1/4 172/1/4 175/1/4
f 173/2/4 174/2/4 175/2/4
f 172/2/4 173/2/4 175/2/4
f 175/2/4 174/2/4 176/2/4
f 176/2/4 177/2/4 178/2/4
f 175/1/4 176/1/4 180/1/4
f 178/2/4 179/2/4 181/2/4
f 180/1/4 176/1/4 181/1/4
f 176/2/4 178/2/4 181/2/4
f 181/2/4 179/2/4 182/2/4
f 171/1/4 175/1/4 184/1/4
f 175/1/4 180/1/4 184/1/4
f 184/1/4 180/1/4 185/1/4
f 182/2/4 183/2/4 186/2/4
f 181/2/4 182/2/4 186/2/4
f 180/2/4 181/2/4 186/2/4
f 184/2/4 185/2/4 188/2/4
f 171/1/4 184/1/4 188/1/4
f 185/1/4 180/1/4 189/1/4
f 188/2/4 185/2/4 189/2/4
f 186/2/4 187/2/4 190/2/4
f 189/1/4 180/1/4 190/1/4
f 180/2/4 186/2/4 190/2/4
f 190/2/4 187/2/4 191/2/4
f 191/2/4 187/2/4 192/2/4
f 188/1/4 189/1/4 194/1/4
f 192/2/4 193/2/4 194/2/4
f 191/2/4 192/2/4 194/2/4
f 190/1/4 191/1/4 194/1/4
f 189/1/4 190/1/4 194/1/4
f 194/2/4 193/2/4 195/2/4
f 195/2/4 193/2/4 196/2/4
f 194/1/4 195/1/4 198/1/4
f 196/2/4 197/2/4 199/2/4
f 198/1/4 195/1/4 199/1/4
f 195/2/4 196/2/4 199/2/4
f 199/2/4 197/2/4 200/2/4
f 194/1/4 198/1/4 202/1/4
f 200/2/4 201/2/4 202/2/4
f 199/2/4 200/2/4 202/2/4
f 198/2/4 199/2/4 202/2/4
f 202/2/4 201/2/4 203/2/4
f 203/2/4 201/2/4 204/2/4
f 188/1/4 194/1/4 206/1/4
f 194/1/4 202/1/4 206/1/4
f 202/1/4 203/1/4 206/1/4
f 206/1/4 203/1/4 207/1/4
f 204/2/4 205/2/4 208/2/4
f 207/1/4 203/1/4 208/1/4
f 203/2/4 204/2/4 208/2/4
f 208/2/4 205/2/4 209/2/4
f 209/2/4 205/2/4 210/2/4
f 206/2/4 207/2/4 212/2/4
f 188/1/4 206/1/4 212/1/4
f 207/1/4 208/1/4 213/1/4
f 212/2/4 207/2/4 213/2/4
f 208/1/4 209/1/4 213/1/4
f 213/1/4 209/1/4 214/1/4
f 210/2/4 211/2/4 215/2/4
f 214/1/4 209/1/4 215/1/4
f 209/2/4 210/2/4 215/2/4
f 215/2/4 211/2/4 216/2/4
f 213/1/4 214/1/4 218/1/4
f 216/2/4 217/2/4 218/2/4
f 215/2/4 216/2/4 218/2/4
f 214/2/4 215/2/4 218/2/4
f 212/1/4 213/1/4 218/1/4
f 218/2/4 217/2/4 219/2/4
f 218/1/4 219/1/4 221/1/4
f 219/2/4 220/2/4 222/2/4
f 221/1/4 219/1/4 222/1/4
f 222/2/4 220/2/4 223/2/4
f 171/1/4 188/1/4 225/1/4
f 188/1/4 212/1/4 225/1/4
f 212/1/4 218/1/4 225/1/4
f 218/1/4 221/1/4 225/1/4
f 223/2/4 224/2/4 226/2/4
f 225/1/4 221/1/4 226/1/4
f 222/2/4 223/2/4 226/2/4
f 221/2/4 222/2/4 226/2/4
f 226/2/4 224/2/4 227/2/4
f 230/1/5 229/1/5 228/1/5
f 231/1/5 229/1/5 230/1/5
f 232/1/5 229/1/5 231/1/5
f 233/1/5 229/1/5 232/1/5
f 234/2/5 231/2/5 230/2/5
f 235/1/5 232/1/5 231/1/5
f 235/2/5 231/2/5 234/2/5
f 236/2/5 233/2/5 232/2/5
f 236/1/5 232/1/5 235/1/5
f 237/1/5 229/1/5 233/1/5
f 237/2/5 233/2/5 236/2/5
f 238/1/5 229/1/5 237/1/5
f 239/1/6 240/1/6 241/1/6
f 239/1/6 241/1/6 242/1/6
f 242/1/6 241/1/6 243/1/6
f 242/2/6 243/2/6 244/2/6
f 244/2/6 243/2/6 245/2/6
f 246/1/6 247/1/6 248/1/6
f 248/1/6 247/1/6 249/1/6
f 248/2/6 249/2/6 250/2/6
f 248/2/6 250/2/6 251/2/6
f 251/2/6 250/2/6 252/2/6
f 253/1/6 254/1/6 255/1/6
f 253/1/6 255/1/6 256/1/6
f 256/1/6 255/1/6 257/1/6
f 256/2/6 257/2/6 258/2/6
f 258/2/6 257/2/6 259/2/6
f 260/1/6 261/1/6 262/1/6
f 262/1/6 261/1/6 263/1/6
f 262/2/6 263/2/6 264/2/6
f 262/2/6 264/2/6 265/2/6
f 265/2/6 264/2/6 266/2/6
f 267/1/6 268/1/6 269/1/6
f 269/1/6 268/1/6 270/1/6
f 269/2/6 270/2/6 271/2/6
f 269/2/6 271/2/6 272/2/6
f 272/2/6 271/2/6 273/2/6
f 274/1/6 275/1/6 276/1/6
f 274/1/6 276/1/6 277/1/6
f 274/1/6 277/1/6 278/1/6
f 278/1/6 277/1/6 279/1/6
f 278/2/6 279/2/6 280/2/6
f 280/2/6 279/2/6 281/2/6
f 282/1/6 283/1/6 284/1/6
f 284/1/6 283/1/6 285/1/6
f 284/2/6 285/2/6 286/2/6
f 286/2/6 285/2/6 287/2/6
f 286/1/6 287/1/6 288/1/6
f 288/1/6 287/1/6 289/1/6
f 288/2/6 289/2/6 290/2/6
f 290/2/6 289/2/6 291/2/6
f 292/1/6 293/1/6 294/1/6
f 292/1/6 294/1/6 295/1/6
f 295/1/6 294/1/6 296/1/6
f 295/2/6 296/2/6 297/2/6
f 297/2/6 296/2/6 298/2/6
f 299/1/6 300/1/6 301/1/6
f 299/1/6 301/1/6 302/1/6
f 302/1/6 301/1/6 303/1/6
f 302/2/6 303/2/6 304/2/6
f 304/2/6 303/2/6 305/2/6
f 306/1/6 307/1/6 308/1/6
f 308/1/6 307/1/6 309/1/6
f 308/2/6 309/2/6 310/2/6
f 308/2/6 310/2/6 311/2/6
f 311/2/6 310/2/6 312/2/6
f 313/1/6 314/1/6 315/1/6
f 315/1/6 314/1/6 316/1/6
f 315/2/6 316/2/6 317/2/6
f 317/2/6 316/2/6 318/2/6
f 319/1/6 320/1/6 321/1/6
f 321/1/6 320/1/6 322/1/6
f 321/2/6 322/2/6 323/2/6
f 321/2/6 323/2/6 324/2/6
f 324/2/6 323/2/6 325/2/6
f 326/1/6 327/1/6 328/1/6
f 328/1/6 327/1/6 329/1/6
f 328/2/6 329/2/6 330/2/6
f 330/2/6 329/2/6 331/2/6
f 332/1/6 333/1/6 334/1/6
f 332/1/6 334/1/6 335/1/6
f 335/1/6 334/1/6 336/1/6
f 335/2/6 336/2/6 337/2/6
f 337/2/6 336/2/6 338/2/6
f 339/1/6 340/1/6 341/1/6
f 341/1/6 340/1/6 342/1/6
f 341/2/6 342/2/6 343/2/6
f 341/2/6 343/2/6 344/2/6
f 341/2/6 344/2/6 345/2/6
f 345/2/6 344/2/6 346/2/6
f 347/1/6 348/1/6 349/1/6
f 349/1/6 348/1/6 350/1/6
f 349/2/6 350/2/6 351/2/6
f 351/2/6 350/2/6 352/2/6
f 351/1/6 352/1/6 353/1/6
f 353/1/6 352/1/6 354/1/6
f 353/2/6 354/2/6 355/2/6
f 355/2/6 354/2/6 356/2/6
