# MagicaVoxel @ Ephtracy

# group
o 

# material
mtllib grassFlatEndDirt-0.mtl
usemtl palette

# normals
vn -1 0 0
vn 1 0 0
vn 0 0 1
vn 0 0 -1
vn 0 -1 0
vn 0 1 0

# texcoords
vt 0.306641 0.5
vt 0.623047 0.5

# verts
v -0.8 -0.8 0.8
v -0.8 -0.8 -0.8
v -0.8 0.2 0.1
v -0.8 0.2 0
v -0.8 0.3 0.4
v -0.8 0.3 0.3
v -0.8 0.3 0.1
v -0.8 0.3 0
v -0.8 0.3 -0.5
v -0.8 0.3 -0.6
v -0.8 0.4 0.3
v -0.8 0.4 0.2
v -0.8 0.4 0.1
v -0.8 0.4 0
v -0.8 0.4 -0.1
v -0.8 0.4 -0.2
v -0.8 0.4 -0.4
v -0.8 0.4 -0.5
v -0.8 0.5 0.7
v -0.8 0.5 0.6
v -0.8 0.5 0.2
v -0.8 0.5 0.1
v -0.8 0.5 -0.1
v -0.8 0.5 -0.2
v -0.8 0.5 -0.3
v -0.8 0.5 -0.4
v -0.8 0.5 -0.6
v -0.8 0.5 -0.7
v -0.8 0.6 0.8
v -0.8 0.6 0.7
v -0.8 0.6 0.5
v -0.8 0.6 0.4
v -0.8 0.6 0
v -0.8 0.6 -0.2
v -0.8 0.6 -0.5
v -0.8 0.6 -0.6
v -0.8 0.7 0.6
v -0.8 0.7 0.5
v -0.8 0.7 -0.2
v -0.8 0.7 -0.3
v -0.8 0.7 -0.5
v -0.8 0.7 -0.6
v -0.8 0.7 -0.7
v -0.8 0.7 -0.8
v -0.8 0.8 0.8
v -0.8 0.8 -0.8
v 0.8 -0.8 0.8
v 0.8 -0.8 -0.8
v 0.8 0.8 0.8
v 0.8 0.8 -0.8
v -0.8 -0.8 0.8
v -0.8 0.6 0.8
v -0.8 0.8 0.8
v -0.7 0.2 0.8
v -0.7 0.3 0.8
v -0.7 0.4 0.8
v -0.7 0.6 0.8
v -0.6 0.2 0.8
v -0.6 0.3 0.8
v -0.6 0.4 0.8
v -0.6 0.6 0.8
v -0.5 0.6 0.8
v -0.5 0.7 0.8
v -0.4 0.7 0.8
v -0.4 0.8 0.8
v 0.8 -0.8 0.8
v 0.8 0.8 0.8
v -0.8 -0.8 -0.8
v -0.8 0.7 -0.8
v -0.8 0.8 -0.8
v -0.7 0.5 -0.8
v -0.7 0.7 -0.8
v -0.6 0.5 -0.8
v -0.6 0.6 -0.8
v -0.5 0.6 -0.8
v -0.5 0.7 -0.8
v -0.4 0.7 -0.8
v -0.4 0.8 -0.8
v -0.2 0.7 -0.8
v -0.2 0.8 -0.8
v -0.1 0.7 -0.8
v -0.1 0.8 -0.8
v 0.8 -0.8 -0.8
v 0.8 0.8 -0.8
v -0.8 -0.8 0.8
v 0.8 -0.8 0.8
v -0.8 -0.8 -0.8
v 0.8 -0.8 -0.8
v -0.8 0.8 0.8
v -0.4 0.8 0.8
v 0.8 0.8 0.8
v -0.4 0.8 0.7
v -0.1 0.8 0.7
v 0 0.8 0.7
v 0.1 0.8 0.7
v -0.1 0.8 0.6
v 0 0.8 0.6
v 0.1 0.8 0.5
v 0.4 0.8 0.5
v 0.1 0.8 0.4
v 0.2 0.8 0.4
v 0.3 0.8 0.4
v 0.4 0.8 0.4
v 0.1 0.8 0.3
v 0.2 0.8 0.3
v 0.5 0.8 0.3
v 0.6 0.8 0.3
v 0.3 0.8 0.2
v 0.4 0.8 0.2
v 0.5 0.8 0.2
v 0.6 0.8 0.2
v 0.4 0.8 0
v 0.6 0.8 0
v 0.4 0.8 -0.1
v 0.5 0.8 -0.1
v 0.3 0.8 -0.2
v 0.4 0.8 -0.2
v 0.5 0.8 -0.2
v 0.6 0.8 -0.2
v 0.3 0.8 -0.3
v 0.4 0.8 -0.3
v 0.2 0.8 -0.4
v 0.4 0.8 -0.4
v 0.1 0.8 -0.5
v 0.2 0.8 -0.5
v -0.1 0.8 -0.6
v 0 0.8 -0.6
v 0.1 0.8 -0.6
v 0.2 0.8 -0.6
v -0.4 0.8 -0.7
v -0.2 0.8 -0.7
v 0 0.8 -0.7
v 0.2 0.8 -0.7
v -0.8 0.8 -0.8
v -0.4 0.8 -0.8
v -0.2 0.8 -0.8
v -0.1 0.8 -0.8
v 0.8 0.8 -0.8

# faces
f 3/1/1 2/1/1 1/1/1
f 4/1/1 2/1/1 3/1/1
f 5/1/1 3/1/1 1/1/1
f 6/1/1 3/1/1 5/1/1
f 7/2/1 4/2/1 3/2/1
f 7/1/1 3/1/1 6/1/1
f 8/1/1 2/1/1 4/1/1
f 8/2/1 4/2/1 7/2/1
f 9/1/1 2/1/1 8/1/1
f 10/1/1 2/1/1 9/1/1
f 11/1/1 7/1/1 6/1/1
f 11/2/1 6/2/1 5/2/1
f 11/1/1 8/1/1 7/1/1
f 11/1/1 9/1/1 8/1/1
f 12/1/1 9/1/1 11/1/1
f 13/1/1 9/1/1 12/1/1
f 14/1/1 9/1/1 13/1/1
f 15/1/1 9/1/1 14/1/1
f 16/1/1 9/1/1 15/1/1
f 17/1/1 9/1/1 16/1/1
f 18/2/1 10/2/1 9/2/1
f 18/1/1 9/1/1 17/1/1
f 19/1/1 5/1/1 1/1/1
f 20/1/1 5/1/1 19/1/1
f 21/2/1 12/2/1 11/2/1
f 21/1/1 13/1/1 12/1/1
f 22/2/1 14/2/1 13/2/1
f 22/1/1 13/1/1 21/1/1
f 23/1/1 15/1/1 14/1/1
f 23/2/1 16/2/1 15/2/1
f 24/1/1 17/1/1 16/1/1
f 24/2/1 16/2/1 23/2/1
f 25/1/1 17/1/1 24/1/1
f 26/2/1 18/2/1 17/2/1
f 26/1/1 17/1/1 25/1/1
f 27/1/1 2/1/1 10/1/1
f 27/2/1 18/2/1 26/2/1
f 27/2/1 10/2/1 18/2/1
f 28/1/1 2/1/1 27/1/1
f 29/1/1 19/1/1 1/1/1
f 30/2/1 20/2/1 19/2/1
f 30/1/1 19/1/1 29/1/1
f 31/1/1 5/1/1 20/1/1
f 32/2/1 11/2/1 5/2/1
f 32/1/1 5/1/1 31/1/1
f 32/2/1 21/2/1 11/2/1
f 32/2/1 22/2/1 21/2/1
f 33/1/1 23/1/1 14/1/1
f 33/2/1 22/2/1 32/2/1
f 33/1/1 24/1/1 23/1/1
f 33/2/1 14/2/1 22/2/1
f 33/1/1 25/1/1 24/1/1
f 34/1/1 25/1/1 33/1/1
f 35/2/1 26/2/1 25/2/1
f 35/2/1 27/2/1 26/2/1
f 35/2/1 28/2/1 27/2/1
f 36/2/1 28/2/1 35/2/1
f 37/1/1 31/1/1 20/1/1
f 37/2/1 20/2/1 30/2/1
f 37/2/1 30/2/1 29/2/1
f 38/2/1 32/2/1 31/2/1
f 38/1/1 31/1/1 37/1/1
f 38/2/1 34/2/1 33/2/1
f 38/2/1 33/2/1 32/2/1
f 39/1/1 25/1/1 34/1/1
f 39/2/1 34/2/1 38/2/1
f 40/2/1 35/2/1 25/2/1
f 40/1/1 25/1/1 39/1/1
f 41/1/1 36/1/1 35/1/1
f 41/2/1 35/2/1 40/2/1
f 42/2/1 28/2/1 36/2/1
f 42/1/1 36/1/1 41/1/1
f 43/1/1 2/1/1 28/1/1
f 43/2/1 28/2/1 42/2/1
f 44/1/1 2/1/1 43/1/1
f 45/2/1 38/2/1 37/2/1
f 45/2/1 37/2/1 29/2/1
f 45/2/1 44/2/1 43/2/1
f 45/2/1 43/2/1 42/2/1
f 45/2/1 39/2/1 38/2/1
f 45/2/1 42/2/1 41/2/1
f 45/2/1 40/2/1 39/2/1
f 45/2/1 41/2/1 40/2/1
f 46/2/1 44/2/1 45/2/1
f 47/1/2 48/1/2 49/1/2
f 49/1/2 48/1/2 50/1/2
f 54/1/3 52/1/3 51/1/3
f 55/1/3 52/1/3 54/1/3
f 56/1/3 52/1/3 55/1/3
f 57/2/3 53/2/3 52/2/3
f 57/1/3 52/1/3 56/1/3
f 58/1/3 54/1/3 51/1/3
f 58/2/3 55/2/3 54/2/3
f 59/1/3 56/1/3 55/1/3
f 59/2/3 55/2/3 58/2/3
f 60/2/3 57/2/3 56/2/3
f 60/1/3 56/1/3 59/1/3
f 61/2/3 53/2/3 57/2/3
f 61/2/3 57/2/3 60/2/3
f 62/1/3 60/1/3 59/1/3
f 62/2/3 53/2/3 61/2/3
f 62/1/3 61/1/3 60/1/3
f 62/1/3 59/1/3 58/1/3
f 63/2/3 53/2/3 62/2/3
f 64/1/3 63/1/3 62/1/3
f 64/2/3 53/2/3 63/2/3
f 65/2/3 53/2/3 64/2/3
f 66/1/3 58/1/3 51/1/3
f 66/1/3 62/1/3 58/1/3
f 66/1/3 65/1/3 64/1/3
f 66/1/3 64/1/3 62/1/3
f 67/1/3 65/1/3 66/1/3
f 68/1/4 69/1/4 71/1/4
f 69/2/4 70/2/4 72/2/4
f 71/1/4 69/1/4 72/1/4
f 68/1/4 71/1/4 73/1/4
f 71/2/4 72/2/4 73/2/4
f 73/2/4 72/2/4 74/2/4
f 73/1/4 74/1/4 75/1/4
f 74/2/4 72/2/4 75/2/4
f 72/2/4 70/2/4 76/2/4
f 75/2/4 72/2/4 76/2/4
f 75/1/4 76/1/4 77/1/4
f 76/2/4 70/2/4 77/2/4
f 77/2/4 70/2/4 78/2/4
f 75/1/4 77/1/4 79/1/4
f 77/1/4 78/1/4 79/1/4
f 79/1/4 78/1/4 80/1/4
f 75/1/4 79/1/4 81/1/4
f 79/2/4 80/2/4 81/2/4
f 81/2/4 80/2/4 82/2/4
f 73/1/4 75/1/4 83/1/4
f 68/1/4 73/1/4 83/1/4
f 81/1/4 82/1/4 83/1/4
f 75/1/4 81/1/4 83/1/4
f 83/1/4 82/1/4 84/1/4
f 87/1/5 86/1/5 85/1/5
f 88/1/5 86/1/5 87/1/5
f 89/2/6 90/2/6 92/2/6
f 90/1/6 91/1/6 92/1/6
f 92/1/6 91/1/6 93/1/6
f 93/1/6 91/1/6 94/1/6
f 94/1/6 91/1/6 95/1/6
f 92/2/6 93/2/6 96/2/6
f 93/1/6 94/1/6 96/1/6
f 94/2/6 95/2/6 97/2/6
f 96/1/6 94/1/6 97/1/6
f 95/1/6 91/1/6 98/1/6
f 97/2/6 95/2/6 98/2/6
f 96/2/6 97/2/6 98/2/6
f 98/1/6 91/1/6 99/1/6
f 96/2/6 98/2/6 100/2/6
f 98/2/6 99/2/6 100/2/6
f 100/2/6 99/2/6 101/2/6
f 101/2/6 99/2/6 102/2/6
f 99/1/6 91/1/6 103/1/6
f 102/2/6 99/2/6 103/2/6
f 96/2/6 100/2/6 104/2/6
f 100/1/6 101/1/6 104/1/6
f 101/2/6 102/2/6 105/2/6
f 104/1/6 101/1/6 105/1/6
f 103/1/6 91/1/6 106/1/6
f 102/1/6 103/1/6 106/1/6
f 106/1/6 91/1/6 107/1/6
f 105/2/6 102/2/6 108/2/6
f 104/2/6 105/2/6 108/2/6
f 102/1/6 106/1/6 108/1/6
f 108/1/6 106/1/6 109/1/6
f 106/2/6 107/2/6 110/2/6
f 109/1/6 106/1/6 110/1/6
f 107/1/6 91/1/6 111/1/6
f 110/2/6 107/2/6 111/2/6
f 109/1/6 110/1/6 112/1/6
f 108/2/6 109/2/6 112/2/6
f 110/1/6 111/1/6 112/1/6
f 111/1/6 91/1/6 113/1/6
f 112/1/6 111/1/6 113/1/6
f 108/2/6 112/2/6 114/2/6
f 112/2/6 113/2/6 114/2/6
f 114/2/6 113/2/6 115/2/6
f 104/2/6 108/2/6 116/2/6
f 108/2/6 114/2/6 116/2/6
f 114/1/6 115/1/6 117/1/6
f 116/2/6 114/2/6 117/2/6
f 115/2/6 113/2/6 118/2/6
f 117/1/6 115/1/6 118/1/6
f 113/1/6 91/1/6 119/1/6
f 118/2/6 113/2/6 119/2/6
f 117/1/6 118/1/6 120/1/6
f 116/1/6 117/1/6 120/1/6
f 118/1/6 119/1/6 120/1/6
f 104/2/6 116/2/6 120/2/6
f 120/1/6 119/1/6 121/1/6
f 104/2/6 120/2/6 122/2/6
f 120/2/6 121/2/6 122/2/6
f 121/1/6 119/1/6 123/1/6
f 122/2/6 121/2/6 123/2/6
f 96/2/6 104/2/6 124/2/6
f 104/2/6 122/2/6 124/2/6
f 122/1/6 123/1/6 125/1/6
f 124/2/6 122/2/6 125/2/6
f 92/2/6 96/2/6 126/2/6
f 96/2/6 124/2/6 126/2/6
f 126/2/6 124/2/6 127/2/6
f 124/1/6 125/1/6 128/1/6
f 127/2/6 124/2/6 128/2/6
f 125/1/6 123/1/6 129/1/6
f 128/1/6 125/1/6 129/1/6
f 89/2/6 92/2/6 130/2/6
f 92/2/6 126/2/6 130/2/6
f 130/2/6 126/2/6 131/2/6
f 127/2/6 128/2/6 132/2/6
f 126/1/6 127/1/6 132/1/6
f 128/2/6 129/2/6 132/2/6
f 129/1/6 123/1/6 133/1/6
f 132/2/6 129/2/6 133/2/6
f 89/2/6 130/2/6 134/2/6
f 130/1/6 131/1/6 135/1/6
f 134/2/6 130/2/6 135/2/6
f 131/2/6 126/2/6 136/2/6
f 135/1/6 131/1/6 136/1/6
f 126/1/6 132/1/6 137/1/6
f 136/2/6 126/2/6 137/2/6
f 132/1/6 133/1/6 137/1/6
f 123/1/6 119/1/6 138/1/6
f 137/1/6 133/1/6 138/1/6
f 119/1/6 91/1/6 138/1/6
f 133/1/6 123/1/6 138/1/6
