# MagicaVoxel @ Ephtracy

# group
o 

# material
mtllib grassSlope-0.mtl
usemtl palette

# normals
vn -1 0 0
vn 1 0 0
vn 0 0 1
vn 0 0 -1
vn 0 -1 0
vn 0 1 0

# texcoords
vt 0.306641 0.5
vt 0.623047 0.5

# verts
v -0.8 -0.8 0.8
v -0.8 -0.8 -0.8
v -0.8 -0.7 0.8
v -0.8 -0.7 -0.8
v -0.7 -0.7 0.8
v -0.7 -0.7 -0.8
v -0.7 -0.6 0.8
v -0.7 -0.6 -0.8
v -0.6 -0.6 0.8
v -0.6 -0.6 -0.8
v -0.6 -0.5 0.8
v -0.6 -0.5 -0.8
v -0.5 -0.5 0.8
v -0.5 -0.5 -0.8
v -0.5 -0.4 0.8
v -0.5 -0.4 -0.8
v -0.4 -0.4 0.8
v -0.4 -0.4 -0.8
v -0.4 -0.3 0.8
v -0.4 -0.3 -0.8
v -0.3 -0.3 0.8
v -0.3 -0.3 -0.8
v -0.3 -0.2 0.8
v -0.3 -0.2 -0.8
v -0.2 -0.2 0.8
v -0.2 -0.2 -0.8
v -0.2 -0.1 0.8
v -0.2 -0.1 -0.8
v -0.1 -0.1 0.8
v -0.1 -0.1 -0.8
v -0.1 0 0.8
v -0.1 0 -0.8
v 0 0 0.8
v 0 0 -0.8
v 0 0.1 0.8
v 0 0.1 -0.8
v 0.1 0.1 0.8
v 0.1 0.1 -0.8
v 0.1 0.2 0.8
v 0.1 0.2 -0.8
v 0.2 0.2 0.8
v 0.2 0.2 -0.8
v 0.2 0.3 0.8
v 0.2 0.3 -0.8
v 0.3 0.3 0.8
v 0.3 0.3 -0.8
v 0.3 0.4 0.8
v 0.3 0.4 -0.8
v 0.4 0.4 0.8
v 0.4 0.4 -0.8
v 0.4 0.5 0.8
v 0.4 0.5 -0.8
v 0.5 0.5 0.8
v 0.5 0.5 -0.8
v 0.5 0.6 0.8
v 0.5 0.6 -0.8
v 0.6 0.6 0.8
v 0.6 0.6 -0.8
v 0.6 0.7 0.8
v 0.6 0.7 -0.8
v 0.7 0.7 0.8
v 0.7 0.7 -0.8
v 0.7 0.8 0.8
v 0.7 0.8 -0.8
v 0.8 -0.8 0.8
v 0.8 -0.8 -0.8
v 0.8 0.3 -0.2
v 0.8 0.3 -0.3
v 0.8 0.3 -0.4
v 0.8 0.3 -0.5
v 0.8 0.4 0.5
v 0.8 0.4 0.4
v 0.8 0.4 -0.2
v 0.8 0.4 -0.3
v 0.8 0.5 0.8
v 0.8 0.5 0.7
v 0.8 0.5 -0.2
v 0.8 0.5 -0.4
v 0.8 0.5 -0.5
v 0.8 0.5 -0.6
v 0.8 0.5 -0.7
v 0.8 0.5 -0.8
v 0.8 0.6 0.6
v 0.8 0.6 0.5
v 0.8 0.6 0.4
v 0.8 0.6 0.3
v 0.8 0.6 0
v 0.8 0.6 -0.2
v 0.8 0.7 0.7
v 0.8 0.7 0.6
v 0.8 0.7 0.3
v 0.8 0.7 0
v 0.8 0.7 -0.6
v 0.8 0.7 -0.7
v 0.8 0.8 0.8
v 0.8 0.8 -0.8
v -0.8 -0.8 0.8
v -0.8 -0.7 0.8
v -0.7 -0.8 0.8
v -0.7 -0.7 0.8
v -0.7 -0.6 0.8
v -0.6 -0.7 0.8
v -0.6 -0.6 0.8
v -0.6 -0.5 0.8
v -0.5 -0.7 0.8
v -0.5 -0.6 0.8
v -0.5 -0.5 0.8
v -0.5 -0.4 0.8
v -0.4 -0.7 0.8
v -0.4 -0.5 0.8
v -0.4 -0.4 0.8
v -0.4 -0.3 0.8
v -0.3 -0.5 0.8
v -0.3 -0.3 0.8
v -0.3 -0.2 0.8
v -0.2 -0.5 0.8
v -0.2 -0.3 0.8
v -0.2 -0.2 0.8
v -0.2 -0.1 0.8
v -0.1 -0.8 0.8
v -0.1 -0.7 0.8
v -0.1 -0.5 0.8
v -0.1 -0.4 0.8
v -0.1 -0.1 0.8
v -0.1 0 0.8
v 0 -0.8 0.8
v 0 -0.7 0.8
v 0 -0.6 0.8
v 0 -0.4 0.8
v 0 0 0.8
v 0 0.1 0.8
v 0.1 -0.6 0.8
v 0.1 -0.1 0.8
v 0.1 0.1 0.8
v 0.1 0.2 0.8
v 0.2 -0.1 0.8
v 0.2 0.2 0.8
v 0.2 0.3 0.8
v 0.3 0 0.8
v 0.3 0.2 0.8
v 0.3 0.3 0.8
v 0.3 0.4 0.8
v 0.4 -0.1 0.8
v 0.4 0 0.8
v 0.4 0.4 0.8
v 0.4 0.5 0.8
v 0.5 -0.1 0.8
v 0.5 0.1 0.8
v 0.5 0.5 0.8
v 0.5 0.6 0.8
v 0.6 0.1 0.8
v 0.6 0.3 0.8
v 0.6 0.6 0.8
v 0.6 0.7 0.8
v 0.7 0.3 0.8
v 0.7 0.5 0.8
v 0.7 0.7 0.8
v 0.7 0.8 0.8
v 0.8 -0.8 0.8
v 0.8 0.5 0.8
v 0.8 0.8 0.8
v -0.8 -0.8 -0.8
v -0.8 -0.7 -0.8
v -0.7 -0.8 -0.8
v -0.7 -0.7 -0.8
v -0.7 -0.6 -0.8
v -0.6 -0.7 -0.8
v -0.6 -0.6 -0.8
v -0.6 -0.5 -0.8
v -0.5 -0.7 -0.8
v -0.5 -0.6 -0.8
v -0.5 -0.5 -0.8
v -0.5 -0.4 -0.8
v -0.4 -0.7 -0.8
v -0.4 -0.5 -0.8
v -0.4 -0.4 -0.8
v -0.4 -0.3 -0.8
v -0.3 -0.5 -0.8
v -0.3 -0.3 -0.8
v -0.3 -0.2 -0.8
v -0.2 -0.3 -0.8
v -0.2 -0.2 -0.8
v -0.2 -0.1 -0.8
v -0.1 -0.5 -0.8
v -0.1 -0.2 -0.8
v -0.1 -0.1 -0.8
v -0.1 0 -0.8
v 0 -0.5 -0.8
v 0 -0.4 -0.8
v 0 0 -0.8
v 0 0.1 -0.8
v 0.1 -0.6 -0.8
v 0.1 -0.5 -0.8
v 0.1 -0.4 -0.8
v 0.1 -0.2 -0.8
v 0.1 0.1 -0.8
v 0.1 0.2 -0.8
v 0.2 -0.6 -0.8
v 0.2 -0.5 -0.8
v 0.2 -0.2 -0.8
v 0.2 0.2 -0.8
v 0.2 0.3 -0.8
v 0.3 0.2 -0.8
v 0.3 0.3 -0.8
v 0.3 0.4 -0.8
v 0.4 0.2 -0.8
v 0.4 0.3 -0.8
v 0.4 0.4 -0.8
v 0.4 0.5 -0.8
v 0.5 0.2 -0.8
v 0.5 0.4 -0.8
v 0.5 0.5 -0.8
v 0.5 0.6 -0.8
v 0.6 0.3 -0.8
v 0.6 0.4 -0.8
v 0.6 0.6 -0.8
v 0.6 0.7 -0.8
v 0.7 0.3 -0.8
v 0.7 0.5 -0.8
v 0.7 0.7 -0.8
v 0.7 0.8 -0.8
v 0.8 -0.8 -0.8
v 0.8 0.5 -0.8
v 0.8 0.8 -0.8
v -0.8 -0.8 0.8
v -0.7 -0.8 0.8
v -0.1 -0.8 0.8
v 0 -0.8 0.8
v 0.8 -0.8 0.8
v -0.1 -0.8 0.7
v 0 -0.8 0.7
v -0.8 -0.8 -0.8
v -0.7 -0.8 -0.8
v 0.8 -0.8 -0.8
v -0.8 -0.7 0.8
v -0.7 -0.7 0.8
v -0.8 -0.7 -0.8
v -0.7 -0.7 -0.8
v -0.7 -0.6 0.8
v -0.6 -0.6 0.8
v -0.7 -0.6 -0.8
v -0.6 -0.6 -0.8
v -0.6 -0.5 0.8
v -0.5 -0.5 0.8
v -0.6 -0.5 -0.8
v -0.5 -0.5 -0.8
v -0.5 -0.4 0.8
v -0.4 -0.4 0.8
v -0.5 -0.4 -0.8
v -0.4 -0.4 -0.8
v -0.4 -0.3 0.8
v -0.3 -0.3 0.8
v -0.4 -0.3 -0.8
v -0.3 -0.3 -0.8
v -0.3 -0.2 0.8
v -0.2 -0.2 0.8
v -0.3 -0.2 -0.8
v -0.2 -0.2 -0.8
v -0.2 -0.1 0.8
v -0.1 -0.1 0.8
v -0.2 -0.1 -0.8
v -0.1 -0.1 -0.8
v -0.1 0 0.8
v 0 0 0.8
v -0.1 0 -0.8
v 0 0 -0.8
v 0 0.1 0.8
v 0.1 0.1 0.8
v 0 0.1 -0.8
v 0.1 0.1 -0.8
v 0.1 0.2 0.8
v 0.2 0.2 0.8
v 0.1 0.2 -0.8
v 0.2 0.2 -0.8
v 0.2 0.3 0.8
v 0.3 0.3 0.8
v 0.2 0.3 -0.8
v 0.3 0.3 -0.8
v 0.3 0.4 0.8
v 0.4 0.4 0.8
v 0.3 0.4 -0.8
v 0.4 0.4 -0.8
v 0.4 0.5 0.8
v 0.5 0.5 0.8
v 0.4 0.5 -0.8
v 0.5 0.5 -0.8
v 0.5 0.6 0.8
v 0.6 0.6 0.8
v 0.5 0.6 -0.8
v 0.6 0.6 -0.8
v 0.6 0.7 0.8
v 0.7 0.7 0.8
v 0.6 0.7 -0.8
v 0.7 0.7 -0.8
v 0.7 0.8 0.8
v 0.8 0.8 0.8
v 0.7 0.8 -0.8
v 0.8 0.8 -0.8

# faces
f 3/2/1 2/2/1 1/2/1
f 4/2/1 2/2/1 3/2/1
f 7/2/1 6/2/1 5/2/1
f 8/2/1 6/2/1 7/2/1
f 11/2/1 10/2/1 9/2/1
f 12/2/1 10/2/1 11/2/1
f 15/2/1 14/2/1 13/2/1
f 16/2/1 14/2/1 15/2/1
f 19/2/1 18/2/1 17/2/1
f 20/2/1 18/2/1 19/2/1
f 23/2/1 22/2/1 21/2/1
f 24/2/1 22/2/1 23/2/1
f 27/2/1 26/2/1 25/2/1
f 28/2/1 26/2/1 27/2/1
f 31/2/1 30/2/1 29/2/1
f 32/2/1 30/2/1 31/2/1
f 35/2/1 34/2/1 33/2/1
f 36/2/1 34/2/1 35/2/1
f 39/2/1 38/2/1 37/2/1
f 40/2/1 38/2/1 39/2/1
f 43/2/1 42/2/1 41/2/1
f 44/2/1 42/2/1 43/2/1
f 47/2/1 46/2/1 45/2/1
f 48/2/1 46/2/1 47/2/1
f 51/2/1 50/2/1 49/2/1
f 52/2/1 50/2/1 51/2/1
f 55/2/1 54/2/1 53/2/1
f 56/2/1 54/2/1 55/2/1
f 59/2/1 58/2/1 57/2/1
f 60/2/1 58/2/1 59/2/1
f 63/2/1 62/2/1 61/2/1
f 64/2/1 62/2/1 63/2/1
f 65/1/2 66/1/2 67/1/2
f 67/1/2 66/1/2 68/1/2
f 68/1/2 66/1/2 69/1/2
f 69/1/2 66/1/2 70/1/2
f 65/1/2 67/1/2 71/1/2
f 71/1/2 67/1/2 72/1/2
f 67/2/2 68/2/2 73/2/2
f 72/1/2 67/1/2 73/1/2
f 68/1/2 69/1/2 74/1/2
f 73/2/2 68/2/2 74/2/2
f 65/1/2 71/1/2 75/1/2
f 75/1/2 71/1/2 76/1/2
f 72/1/2 73/1/2 77/1/2
f 73/1/2 74/1/2 77/1/2
f 69/2/2 70/2/2 78/2/2
f 77/1/2 74/1/2 78/1/2
f 74/1/2 69/1/2 78/1/2
f 70/1/2 66/1/2 79/1/2
f 78/2/2 70/2/2 79/2/2
f 79/1/2 66/1/2 80/1/2
f 80/1/2 66/1/2 81/1/2
f 81/1/2 66/1/2 82/1/2
f 76/1/2 71/1/2 83/1/2
f 71/2/2 72/2/2 84/2/2
f 83/1/2 71/1/2 84/1/2
f 72/1/2 77/1/2 85/1/2
f 84/2/2 72/2/2 85/2/2
f 85/1/2 77/1/2 86/1/2
f 86/1/2 77/1/2 87/1/2
f 77/2/2 78/2/2 88/2/2
f 87/1/2 77/1/2 88/1/2
f 78/2/2 79/2/2 88/2/2
f 79/2/2 80/2/2 88/2/2
f 76/1/2 83/1/2 89/1/2
f 75/2/2 76/2/2 89/2/2
f 83/2/2 84/2/2 90/2/2
f 89/1/2 83/1/2 90/1/2
f 85/2/2 86/2/2 90/2/2
f 84/2/2 85/2/2 90/2/2
f 86/1/2 87/1/2 91/1/2
f 90/2/2 86/2/2 91/2/2
f 87/2/2 88/2/2 92/2/2
f 91/1/2 87/1/2 92/1/2
f 88/2/2 80/2/2 93/2/2
f 92/2/2 88/2/2 93/2/2
f 80/1/2 81/1/2 93/1/2
f 81/2/2 82/2/2 94/2/2
f 93/1/2 81/1/2 94/1/2
f 89/2/2 90/2/2 95/2/2
f 91/2/2 92/2/2 95/2/2
f 93/2/2 94/2/2 95/2/2
f 92/2/2 93/2/2 95/2/2
f 90/2/2 91/2/2 95/2/2
f 75/2/2 89/2/2 95/2/2
f 94/2/2 82/2/2 96/2/2
f 95/2/2 94/2/2 96/2/2
f 99/2/3 98/2/3 97/2/3
f 100/2/3 98/2/3 99/2/3
f 102/1/3 100/1/3 99/1/3
f 102/2/3 101/2/3 100/2/3
f 103/2/3 101/2/3 102/2/3
f 105/1/3 102/1/3 99/1/3
f 105/1/3 103/1/3 102/1/3
f 106/2/3 104/2/3 103/2/3
f 106/1/3 103/1/3 105/1/3
f 107/2/3 104/2/3 106/2/3
f 109/1/3 105/1/3 99/1/3
f 109/2/3 108/2/3 107/2/3
f 109/2/3 107/2/3 106/2/3
f 109/2/3 106/2/3 105/2/3
f 110/2/3 108/2/3 109/2/3
f 111/2/3 108/2/3 110/2/3
f 113/1/3 110/1/3 109/1/3
f 113/2/3 112/2/3 111/2/3
f 113/2/3 111/2/3 110/2/3
f 114/2/3 112/2/3 113/2/3
f 116/1/3 113/1/3 109/1/3
f 116/1/3 114/1/3 113/1/3
f 117/2/3 115/2/3 114/2/3
f 117/1/3 114/1/3 116/1/3
f 118/2/3 115/2/3 117/2/3
f 120/1/3 109/1/3 99/1/3
f 120/1/3 116/1/3 109/1/3
f 121/1/3 116/1/3 120/1/3
f 122/2/3 119/2/3 118/2/3
f 122/1/3 116/1/3 121/1/3
f 122/2/3 118/2/3 117/2/3
f 122/2/3 117/2/3 116/2/3
f 123/2/3 119/2/3 122/2/3
f 124/2/3 119/2/3 123/2/3
f 126/2/3 121/2/3 120/2/3
f 127/1/3 122/1/3 121/1/3
f 127/2/3 121/2/3 126/2/3
f 127/1/3 123/1/3 122/1/3
f 128/1/3 123/1/3 127/1/3
f 129/2/3 125/2/3 124/2/3
f 129/1/3 123/1/3 128/1/3
f 129/2/3 124/2/3 123/2/3
f 130/2/3 125/2/3 129/2/3
f 132/1/3 128/1/3 127/1/3
f 132/2/3 131/2/3 130/2/3
f 132/2/3 130/2/3 129/2/3
f 132/2/3 129/2/3 128/2/3
f 132/1/3 127/1/3 126/1/3
f 133/2/3 131/2/3 132/2/3
f 134/2/3 131/2/3 133/2/3
f 136/1/3 133/1/3 132/1/3
f 136/2/3 135/2/3 134/2/3
f 136/2/3 134/2/3 133/2/3
f 137/2/3 135/2/3 136/2/3
f 139/1/3 137/1/3 136/1/3
f 140/2/3 138/2/3 137/2/3
f 140/1/3 137/1/3 139/1/3
f 141/2/3 138/2/3 140/2/3
f 143/1/3 136/1/3 132/1/3
f 143/1/3 139/1/3 136/1/3
f 144/2/3 142/2/3 141/2/3
f 144/1/3 139/1/3 143/1/3
f 144/2/3 141/2/3 140/2/3
f 144/2/3 140/2/3 139/2/3
f 145/2/3 142/2/3 144/2/3
f 147/1/3 143/1/3 132/1/3
f 147/2/3 146/2/3 145/2/3
f 147/2/3 145/2/3 144/2/3
f 147/2/3 144/2/3 143/2/3
f 148/2/3 146/2/3 147/2/3
f 149/2/3 146/2/3 148/2/3
f 151/1/3 148/1/3 147/1/3
f 151/2/3 150/2/3 149/2/3
f 151/2/3 149/2/3 148/2/3
f 152/2/3 150/2/3 151/2/3
f 153/2/3 150/2/3 152/2/3
f 155/1/3 152/1/3 151/1/3
f 155/2/3 154/2/3 153/2/3
f 155/2/3 153/2/3 152/2/3
f 156/2/3 154/2/3 155/2/3
f 157/2/3 154/2/3 156/2/3
f 159/1/3 132/1/3 126/1/3
f 159/1/3 147/1/3 132/1/3
f 159/1/3 151/1/3 147/1/3
f 159/1/3 156/1/3 155/1/3
f 159/1/3 155/1/3 151/1/3
f 160/2/3 158/2/3 157/2/3
f 160/1/3 156/1/3 159/1/3
f 160/2/3 157/2/3 156/2/3
f 161/2/3 158/2/3 160/2/3
f 162/2/4 163/2/4 164/2/4
f 164/2/4 163/2/4 165/2/4
f 164/1/4 165/1/4 167/1/4
f 165/2/4 166/2/4 167/2/4
f 167/2/4 166/2/4 168/2/4
f 164/1/4 167/1/4 170/1/4
f 167/1/4 168/1/4 170/1/4
f 168/2/4 169/2/4 171/2/4
f 170/1/4 168/1/4 171/1/4
f 171/2/4 169/2/4 172/2/4
f 164/1/4 170/1/4 174/1/4
f 172/2/4 173/2/4 174/2/4
f 171/2/4 172/2/4 174/2/4
f 170/2/4 171/2/4 174/2/4
f 174/2/4 173/2/4 175/2/4
f 175/2/4 173/2/4 176/2/4
f 174/1/4 175/1/4 178/1/4
f 176/2/4 177/2/4 178/2/4
f 175/2/4 176/2/4 178/2/4
f 178/2/4 177/2/4 179/2/4
f 178/1/4 179/1/4 181/1/4
f 179/2/4 180/2/4 181/2/4
f 181/2/4 180/2/4 182/2/4
f 174/1/4 178/1/4 184/1/4
f 178/1/4 181/1/4 184/1/4
f 181/1/4 182/1/4 184/1/4
f 182/2/4 183/2/4 185/2/4
f 184/1/4 182/1/4 185/1/4
f 185/2/4 183/2/4 186/2/4
f 174/1/4 184/1/4 188/1/4
f 186/2/4 187/2/4 188/2/4
f 185/2/4 186/2/4 188/2/4
f 184/2/4 185/2/4 188/2/4
f 188/2/4 187/2/4 189/2/4
f 189/2/4 187/2/4 190/2/4
f 174/1/4 188/1/4 192/1/4
f 188/1/4 189/1/4 192/1/4
f 192/1/4 189/1/4 193/1/4
f 190/2/4 191/2/4 194/2/4
f 193/1/4 189/1/4 194/1/4
f 189/2/4 190/2/4 194/2/4
f 194/2/4 191/2/4 195/2/4
f 195/2/4 191/2/4 196/2/4
f 192/2/4 193/2/4 198/2/4
f 174/1/4 192/1/4 198/1/4
f 193/1/4 194/1/4 199/1/4
f 198/2/4 193/2/4 199/2/4
f 194/1/4 195/1/4 199/1/4
f 196/2/4 197/2/4 200/2/4
f 199/1/4 195/1/4 200/1/4
f 195/2/4 196/2/4 200/2/4
f 200/2/4 197/2/4 201/2/4
f 198/1/4 199/1/4 203/1/4
f 201/2/4 202/2/4 203/2/4
f 200/1/4 201/1/4 203/1/4
f 199/1/4 200/1/4 203/1/4
f 203/2/4 202/2/4 204/2/4
f 198/1/4 203/1/4 206/1/4
f 203/1/4 204/1/4 206/1/4
f 204/2/4 205/2/4 207/2/4
f 206/1/4 204/1/4 207/1/4
f 207/2/4 205/2/4 208/2/4
f 198/1/4 206/1/4 210/1/4
f 208/2/4 209/2/4 210/2/4
f 207/2/4 208/2/4 210/2/4
f 206/2/4 207/2/4 210/2/4
f 210/2/4 209/2/4 211/2/4
f 211/2/4 209/2/4 212/2/4
f 210/1/4 211/1/4 214/1/4
f 212/2/4 213/2/4 215/2/4
f 214/1/4 211/1/4 215/1/4
f 211/2/4 212/2/4 215/2/4
f 215/2/4 213/2/4 216/2/4
f 210/1/4 214/1/4 218/1/4
f 216/2/4 217/2/4 218/2/4
f 215/2/4 216/2/4 218/2/4
f 214/2/4 215/2/4 218/2/4
f 218/2/4 217/2/4 219/2/4
f 219/2/4 217/2/4 220/2/4
f 164/1/4 174/1/4 222/1/4
f 174/1/4 198/1/4 222/1/4
f 198/1/4 210/1/4 222/1/4
f 218/1/4 219/1/4 222/1/4
f 210/1/4 218/1/4 222/1/4
f 220/2/4 221/2/4 223/2/4
f 222/1/4 219/1/4 223/1/4
f 219/2/4 220/2/4 223/2/4
f 223/2/4 221/2/4 224/2/4
f 230/1/5 227/1/5 226/1/5
f 230/2/5 228/2/5 227/2/5
f 231/1/5 229/1/5 228/1/5
f 231/2/5 228/2/5 230/2/5
f 232/2/5 226/2/5 225/2/5
f 233/1/5 230/1/5 226/1/5
f 233/2/5 226/2/5 232/2/5
f 233/1/5 231/1/5 230/1/5
f 234/1/5 229/1/5 231/1/5
f 234/1/5 231/1/5 233/1/5
f 235/2/6 236/2/6 237/2/6
f 237/2/6 236/2/6 238/2/6
f 239/2/6 240/2/6 241/2/6
f 241/2/6 240/2/6 242/2/6
f 243/2/6 244/2/6 245/2/6
f 245/2/6 244/2/6 246/2/6
f 247/2/6 248/2/6 249/2/6
f 249/2/6 248/2/6 250/2/6
f 251/2/6 252/2/6 253/2/6
f 253/2/6 252/2/6 254/2/6
f 255/2/6 256/2/6 257/2/6
f 257/2/6 256/2/6 258/2/6
f 259/2/6 260/2/6 261/2/6
f 261/2/6 260/2/6 262/2/6
f 263/2/6 264/2/6 265/2/6
f 265/2/6 264/2/6 266/2/6
f 267/2/6 268/2/6 269/2/6
f 269/2/6 268/2/6 270/2/6
f 271/2/6 272/2/6 273/2/6
f 273/2/6 272/2/6 274/2/6
f 275/2/6 276/2/6 277/2/6
f 277/2/6 276/2/6 278/2/6
f 279/2/6 280/2/6 281/2/6
f 281/2/6 280/2/6 282/2/6
f 283/2/6 284/2/6 285/2/6
f 285/2/6 284/2/6 286/2/6
f 287/2/6 288/2/6 289/2/6
f 289/2/6 288/2/6 290/2/6
f 291/2/6 292/2/6 293/2/6
f 293/2/6 292/2/6 294/2/6
f 295/2/6 296/2/6 297/2/6
f 297/2/6 296/2/6 298/2/6
