# MagicaVoxel @ Ephtracy

# group
o 

# material
mtllib grassSlopeOutwards-0.mtl
usemtl palette

# normals
vn -1 0 0
vn 1 0 0
vn 0 0 1
vn 0 0 -1
vn 0 -1 0
vn 0 1 0

# texcoords
vt 0.306641 0.5
vt 0.623047 0.5

# verts
v -0.8 -0.8 0.8
v -0.8 -0.8 -0.6
v -0.8 -0.8 -0.8
v -0.8 -0.7 -0.1
v -0.8 -0.7 -0.2
v -0.8 -0.7 -0.5
v -0.8 -0.7 -0.6
v -0.8 -0.7 -0.7
v -0.8 -0.7 -0.8
v -0.8 -0.6 0.1
v -0.8 -0.6 0
v -0.8 -0.6 -0.1
v -0.8 -0.6 -0.2
v -0.8 -0.6 -0.6
v -0.8 -0.6 -0.7
v -0.8 -0.5 -0.1
v -0.8 -0.5 -0.3
v -0.8 -0.5 -0.4
v -0.8 -0.5 -0.5
v -0.8 -0.5 -0.6
v -0.8 -0.4 0
v -0.8 -0.4 -0.1
v -0.8 -0.4 -0.3
v -0.8 -0.4 -0.4
v -0.8 -0.4 -0.5
v -0.8 -0.3 0.2
v -0.8 -0.3 0.1
v -0.8 -0.3 -0.3
v -0.8 -0.3 -0.4
v -0.8 -0.2 -0.2
v -0.8 -0.2 -0.3
v -0.8 -0.1 0.5
v -0.8 -0.1 0.4
v -0.8 -0.1 -0.1
v -0.8 -0.1 -0.2
v -0.8 0 0.5
v -0.8 0 0.4
v -0.8 0 0.3
v -0.8 0 0.2
v -0.8 0 0
v -0.8 0 -0.1
v -0.8 0.1 0.6
v -0.8 0.1 0.5
v -0.8 0.1 0.1
v -0.8 0.1 0
v -0.8 0.2 0.5
v -0.8 0.2 0.4
v -0.8 0.2 0.2
v -0.8 0.2 0.1
v -0.8 0.3 0.7
v -0.8 0.3 0.6
v -0.8 0.3 0.4
v -0.8 0.3 0.3
v -0.8 0.3 0.2
v -0.8 0.4 0.4
v -0.8 0.4 0.3
v -0.8 0.5 0.8
v -0.8 0.5 0.7
v -0.8 0.5 0.5
v -0.8 0.5 0.4
v -0.8 0.6 0.6
v -0.8 0.6 0.5
v -0.8 0.7 0.7
v -0.8 0.7 0.6
v -0.8 0.8 0.8
v -0.8 0.8 0.7
v -0.7 -0.7 -0.7
v -0.7 -0.7 -0.8
v -0.7 -0.6 -0.7
v -0.7 -0.6 -0.8
v -0.6 -0.6 -0.6
v -0.6 -0.6 -0.8
v -0.6 -0.5 -0.6
v -0.6 -0.5 -0.8
v -0.5 -0.5 -0.5
v -0.5 -0.5 -0.8
v -0.5 -0.4 -0.5
v -0.5 -0.4 -0.8
v -0.4 -0.4 -0.4
v -0.4 -0.4 -0.8
v -0.4 -0.3 -0.4
v -0.4 -0.3 -0.8
v -0.3 -0.3 -0.3
v -0.3 -0.3 -0.8
v -0.3 -0.2 -0.3
v -0.3 -0.2 -0.8
v -0.2 -0.2 -0.2
v -0.2 -0.2 -0.8
v -0.2 -0.1 -0.2
v -0.2 -0.1 -0.8
v -0.1 -0.1 -0.1
v -0.1 -0.1 -0.8
v -0.1 0 -0.1
v -0.1 0 -0.8
v 0 0 0
v 0 0 -0.8
v 0 0.1 0
v 0 0.1 -0.8
v 0.1 0.1 0.1
v 0.1 0.1 -0.8
v 0.1 0.2 0.1
v 0.1 0.2 -0.8
v 0.2 0.2 0.2
v 0.2 0.2 -0.8
v 0.2 0.3 0.2
v 0.2 0.3 -0.8
v 0.3 0.3 0.3
v 0.3 0.3 -0.8
v 0.3 0.4 0.3
v 0.3 0.4 -0.8
v 0.4 0.4 0.4
v 0.4 0.4 -0.8
v 0.4 0.5 0.4
v 0.4 0.5 -0.8
v 0.5 0.5 0.5
v 0.5 0.5 -0.8
v 0.5 0.6 0.5
v 0.5 0.6 -0.8
v 0.6 0.6 0.6
v 0.6 0.6 -0.8
v 0.6 0.7 0.6
v 0.6 0.7 -0.8
v 0.7 0.7 0.7
v 0.7 0.7 -0.8
v 0.7 0.8 0.7
v 0.7 0.8 -0.8
v 0.8 -0.8 0.8
v 0.8 -0.8 -0.8
v 0.8 0.1 0.6
v 0.8 0.1 0.5
v 0.8 0.2 0.6
v 0.8 0.2 0.5
v 0.8 0.2 0.1
v 0.8 0.2 -0.1
v 0.8 0.3 0.6
v 0.8 0.3 0.4
v 0.8 0.4 0.4
v 0.8 0.4 0.3
v 0.8 0.4 -0.1
v 0.8 0.4 -0.2
v 0.8 0.4 -0.5
v 0.8 0.4 -0.7
v 0.8 0.5 0.7
v 0.8 0.5 0.6
v 0.8 0.5 -0.3
v 0.8 0.5 -0.5
v 0.8 0.5 -0.7
v 0.8 0.5 -0.8
v 0.8 0.6 0.8
v 0.8 0.6 0.7
v 0.8 0.6 0.2
v 0.8 0.6 0.1
v 0.8 0.6 -0.2
v 0.8 0.6 -0.3
v 0.8 0.7 0.3
v 0.8 0.7 0.2
v 0.8 0.8 0.8
v 0.8 0.8 -0.8
v -0.8 -0.8 0.8
v -0.8 0.5 0.8
v -0.8 0.8 0.8
v -0.7 0.4 0.8
v -0.7 0.5 0.8
v -0.6 0.4 0.8
v -0.6 0.7 0.8
v -0.5 0.6 0.8
v -0.5 0.7 0.8
v -0.4 0.3 0.8
v -0.4 0.6 0.8
v -0.3 0.2 0.8
v -0.3 0.3 0.8
v -0.2 0.2 0.8
v -0.2 0.6 0.8
v -0.1 0.4 0.8
v -0.1 0.5 0.8
v -0.1 0.6 0.8
v -0.1 0.7 0.8
v 0 0.4 0.8
v 0 0.5 0.8
v 0.1 0.6 0.8
v 0.1 0.7 0.8
v 0.2 0.4 0.8
v 0.2 0.6 0.8
v 0.3 0.2 0.8
v 0.3 0.4 0.8
v 0.4 0.2 0.8
v 0.4 0.4 0.8
v 0.5 0.4 0.8
v 0.5 0.5 0.8
v 0.6 0.5 0.8
v 0.6 0.7 0.8
v 0.7 0.6 0.8
v 0.7 0.7 0.8
v 0.8 -0.8 0.8
v 0.8 0.6 0.8
v 0.8 0.8 0.8
v -0.8 0.7 0.7
v -0.8 0.8 0.7
v 0.7 0.7 0.7
v 0.7 0.8 0.7
v -0.8 0.6 0.6
v -0.8 0.7 0.6
v 0.6 0.6 0.6
v 0.6 0.7 0.6
v -0.8 0.5 0.5
v -0.8 0.6 0.5
v 0.5 0.5 0.5
v 0.5 0.6 0.5
v -0.8 0.4 0.4
v -0.8 0.5 0.4
v 0.4 0.4 0.4
v 0.4 0.5 0.4
v -0.8 0.3 0.3
v -0.8 0.4 0.3
v 0.3 0.3 0.3
v 0.3 0.4 0.3
v -0.8 0.2 0.2
v -0.8 0.3 0.2
v 0.2 0.2 0.2
v 0.2 0.3 0.2
v -0.8 0.1 0.1
v -0.8 0.2 0.1
v 0.1 0.1 0.1
v 0.1 0.2 0.1
v -0.8 0 0
v -0.8 0.1 0
v 0 0 0
v 0 0.1 0
v -0.8 -0.1 -0.1
v -0.8 0 -0.1
v -0.1 -0.1 -0.1
v -0.1 0 -0.1
v -0.8 -0.2 -0.2
v -0.8 -0.1 -0.2
v -0.2 -0.2 -0.2
v -0.2 -0.1 -0.2
v -0.8 -0.3 -0.3
v -0.8 -0.2 -0.3
v -0.3 -0.3 -0.3
v -0.3 -0.2 -0.3
v -0.8 -0.4 -0.4
v -0.8 -0.3 -0.4
v -0.4 -0.4 -0.4
v -0.4 -0.3 -0.4
v -0.8 -0.5 -0.5
v -0.8 -0.4 -0.5
v -0.5 -0.5 -0.5
v -0.5 -0.4 -0.5
v -0.8 -0.6 -0.6
v -0.8 -0.5 -0.6
v -0.6 -0.6 -0.6
v -0.6 -0.5 -0.6
v -0.8 -0.7 -0.7
v -0.8 -0.6 -0.7
v -0.7 -0.7 -0.7
v -0.7 -0.6 -0.7
v -0.8 -0.8 -0.8
v -0.8 -0.7 -0.8
v -0.7 -0.8 -0.8
v -0.7 -0.7 -0.8
v -0.7 -0.6 -0.8
v -0.6 -0.8 -0.8
v -0.6 -0.7 -0.8
v -0.6 -0.6 -0.8
v -0.6 -0.5 -0.8
v -0.5 -0.8 -0.8
v -0.5 -0.7 -0.8
v -0.5 -0.5 -0.8
v -0.5 -0.4 -0.8
v -0.4 -0.4 -0.8
v -0.4 -0.3 -0.8
v -0.3 -0.7 -0.8
v -0.3 -0.6 -0.8
v -0.3 -0.3 -0.8
v -0.3 -0.2 -0.8
v -0.2 -0.6 -0.8
v -0.2 -0.4 -0.8
v -0.2 -0.2 -0.8
v -0.2 -0.1 -0.8
v -0.1 -0.4 -0.8
v -0.1 -0.3 -0.8
v -0.1 -0.1 -0.8
v -0.1 0 -0.8
v 0 -0.4 -0.8
v 0 -0.3 -0.8
v 0 0 -0.8
v 0 0.1 -0.8
v 0.1 -0.4 -0.8
v 0.1 -0.2 -0.8
v 0.1 0.1 -0.8
v 0.1 0.2 -0.8
v 0.2 -0.2 -0.8
v 0.2 0.1 -0.8
v 0.2 0.2 -0.8
v 0.2 0.3 -0.8
v 0.3 0.1 -0.8
v 0.3 0.3 -0.8
v 0.3 0.4 -0.8
v 0.4 0 -0.8
v 0.4 0.3 -0.8
v 0.4 0.4 -0.8
v 0.4 0.5 -0.8
v 0.5 -0.2 -0.8
v 0.5 -0.1 -0.8
v 0.5 0 -0.8
v 0.5 0.2 -0.8
v 0.5 0.5 -0.8
v 0.5 0.6 -0.8
v 0.6 -0.2 -0.8
v 0.6 -0.1 -0.8
v 0.6 0.1 -0.8
v 0.6 0.2 -0.8
v 0.6 0.6 -0.8
v 0.6 0.7 -0.8
v 0.7 0.1 -0.8
v 0.7 0.5 -0.8
v 0.7 0.7 -0.8
v 0.7 0.8 -0.8
v 0.8 -0.8 -0.8
v 0.8 0.5 -0.8
v 0.8 0.8 -0.8
v -0.8 -0.8 0.8
v 0.8 -0.8 0.8
v -0.8 -0.8 -0.6
v -0.7 -0.8 -0.6
v -0.6 -0.8 -0.7
v -0.5 -0.8 -0.7
v -0.8 -0.8 -0.8
v -0.7 -0.8 -0.8
v -0.6 -0.8 -0.8
v -0.5 -0.8 -0.8
v 0.8 -0.8 -0.8
v -0.8 -0.7 -0.7
v -0.7 -0.7 -0.7
v -0.8 -0.7 -0.8
v -0.7 -0.7 -0.8
v -0.8 -0.6 -0.6
v -0.6 -0.6 -0.6
v -0.8 -0.6 -0.7
v -0.7 -0.6 -0.7
v -0.7 -0.6 -0.8
v -0.6 -0.6 -0.8
v -0.8 -0.5 -0.5
v -0.5 -0.5 -0.5
v -0.8 -0.5 -0.6
v -0.6 -0.5 -0.6
v -0.6 -0.5 -0.8
v -0.5 -0.5 -0.8
v -0.8 -0.4 -0.4
v -0.4 -0.4 -0.4
v -0.8 -0.4 -0.5
v -0.5 -0.4 -0.5
v -0.5 -0.4 -0.8
v -0.4 -0.4 -0.8
v -0.8 -0.3 -0.3
v -0.3 -0.3 -0.3
v -0.8 -0.3 -0.4
v -0.4 -0.3 -0.4
v -0.4 -0.3 -0.8
v -0.3 -0.3 -0.8
v -0.8 -0.2 -0.2
v -0.2 -0.2 -0.2
v -0.8 -0.2 -0.3
v -0.3 -0.2 -0.3
v -0.3 -0.2 -0.8
v -0.2 -0.2 -0.8
v -0.8 -0.1 -0.1
v -0.1 -0.1 -0.1
v -0.8 -0.1 -0.2
v -0.2 -0.1 -0.2
v -0.2 -0.1 -0.8
v -0.1 -0.1 -0.8
v -0.8 0 0
v 0 0 0
v -0.8 0 -0.1
v -0.1 0 -0.1
v -0.1 0 -0.8
v 0 0 -0.8
v -0.8 0.1 0.1
v 0.1 0.1 0.1
v -0.8 0.1 0
v 0 0.1 0
v 0 0.1 -0.8
v 0.1 0.1 -0.8
v -0.8 0.2 0.2
v 0.2 0.2 0.2
v -0.8 0.2 0.1
v 0.1 0.2 0.1
v 0.1 0.2 -0.8
v 0.2 0.2 -0.8
v -0.8 0.3 0.3
v 0.3 0.3 0.3
v -0.8 0.3 0.2
v 0.2 0.3 0.2
v 0.2 0.3 -0.8
v 0.3 0.3 -0.8
v -0.8 0.4 0.4
v 0.4 0.4 0.4
v -0.8 0.4 0.3
v 0.3 0.4 0.3
v 0.3 0.4 -0.8
v 0.4 0.4 -0.8
v -0.8 0.5 0.5
v 0.5 0.5 0.5
v -0.8 0.5 0.4
v 0.4 0.5 0.4
v 0.4 0.5 -0.8
v 0.5 0.5 -0.8
v -0.8 0.6 0.6
v 0.6 0.6 0.6
v -0.8 0.6 0.5
v 0.5 0.6 0.5
v 0.5 0.6 -0.8
v 0.6 0.6 -0.8
v -0.8 0.7 0.7
v 0.7 0.7 0.7
v -0.8 0.7 0.6
v 0.6 0.7 0.6
v 0.6 0.7 -0.8
v 0.7 0.7 -0.8
v -0.8 0.8 0.8
v 0.8 0.8 0.8
v -0.8 0.8 0.7
v 0.7 0.8 0.7
v 0.7 0.8 -0.8
v 0.8 0.8 -0.8

# faces
f 4/1/1 2/1/1 1/1/1
f 5/1/1 2/1/1 4/1/1
f 6/1/1 2/1/1 5/1/1
f 7/2/1 3/2/1 2/2/1
f 7/1/1 2/1/1 6/1/1
f 8/2/1 3/2/1 7/2/1
f 9/2/1 3/2/1 8/2/1
f 10/1/1 4/1/1 1/1/1
f 11/1/1 4/1/1 10/1/1
f 12/2/1 5/2/1 4/2/1
f 12/1/1 4/1/1 11/1/1
f 13/1/1 6/1/1 5/1/1
f 13/2/1 5/2/1 12/2/1
f 14/2/1 7/2/1 6/2/1
f 14/2/1 8/2/1 7/2/1
f 15/2/1 8/2/1 14/2/1
f 16/1/1 12/1/1 11/1/1
f 16/1/1 13/1/1 12/1/1
f 17/1/1 6/1/1 13/1/1
f 17/1/1 13/1/1 16/1/1
f 18/1/1 6/1/1 17/1/1
f 19/2/1 14/2/1 6/2/1
f 19/1/1 6/1/1 18/1/1
f 20/2/1 14/2/1 19/2/1
f 21/2/1 11/2/1 10/2/1
f 21/1/1 16/1/1 11/1/1
f 22/2/1 17/2/1 16/2/1
f 22/1/1 16/1/1 21/1/1
f 23/1/1 18/1/1 17/1/1
f 23/2/1 17/2/1 22/2/1
f 24/2/1 19/2/1 18/2/1
f 24/1/1 18/1/1 23/1/1
f 25/2/1 19/2/1 24/2/1
f 26/1/1 10/1/1 1/1/1
f 27/2/1 23/2/1 22/2/1
f 27/1/1 10/1/1 26/1/1
f 27/2/1 22/2/1 21/2/1
f 27/2/1 24/2/1 23/2/1
f 27/2/1 21/2/1 10/2/1
f 28/2/1 24/2/1 27/2/1
f 29/2/1 24/2/1 28/2/1
f 30/2/1 27/2/1 26/2/1
f 30/2/1 28/2/1 27/2/1
f 31/2/1 28/2/1 30/2/1
f 32/1/1 26/1/1 1/1/1
f 33/1/1 26/1/1 32/1/1
f 34/2/1 30/2/1 26/2/1
f 35/2/1 30/2/1 34/2/1
f 36/1/1 32/1/1 1/1/1
f 36/2/1 33/2/1 32/2/1
f 37/1/1 26/1/1 33/1/1
f 37/2/1 33/2/1 36/2/1
f 38/1/1 26/1/1 37/1/1
f 39/2/1 34/2/1 26/2/1
f 39/1/1 26/1/1 38/1/1
f 40/2/1 34/2/1 39/2/1
f 41/2/1 34/2/1 40/2/1
f 42/1/1 36/1/1 1/1/1
f 42/1/1 38/1/1 37/1/1
f 42/1/1 37/1/1 36/1/1
f 43/1/1 38/1/1 42/1/1
f 44/2/1 40/2/1 39/2/1
f 44/2/1 39/2/1 38/2/1
f 45/2/1 40/2/1 44/2/1
f 46/1/1 38/1/1 43/1/1
f 46/2/1 43/2/1 42/2/1
f 47/1/1 38/1/1 46/1/1
f 48/2/1 44/2/1 38/2/1
f 49/2/1 44/2/1 48/2/1
f 50/1/1 42/1/1 1/1/1
f 51/2/1 46/2/1 42/2/1
f 51/1/1 42/1/1 50/1/1
f 51/2/1 47/2/1 46/2/1
f 52/1/1 38/1/1 47/1/1
f 52/2/1 47/2/1 51/2/1
f 53/2/1 48/2/1 38/2/1
f 53/1/1 38/1/1 52/1/1
f 54/2/1 48/2/1 53/2/1
f 55/2/1 51/2/1 50/2/1
f 55/2/1 52/2/1 51/2/1
f 55/2/1 53/2/1 52/2/1
f 56/2/1 53/2/1 55/2/1
f 57/1/1 50/1/1 1/1/1
f 58/2/1 55/2/1 50/2/1
f 58/1/1 50/1/1 57/1/1
f 59/2/1 55/2/1 58/2/1
f 60/2/1 55/2/1 59/2/1
f 61/2/1 58/2/1 57/2/1
f 61/2/1 59/2/1 58/2/1
f 62/2/1 59/2/1 61/2/1
f 63/2/1 61/2/1 57/2/1
f 64/2/1 61/2/1 63/2/1
f 65/2/1 63/2/1 57/2/1
f 66/2/1 63/2/1 65/2/1
f 69/2/1 68/2/1 67/2/1
f 70/2/1 68/2/1 69/2/1
f 73/2/1 72/2/1 71/2/1
f 74/2/1 72/2/1 73/2/1
f 77/2/1 76/2/1 75/2/1
f 78/2/1 76/2/1 77/2/1
f 81/2/1 80/2/1 79/2/1
f 82/2/1 80/2/1 81/2/1
f 85/2/1 84/2/1 83/2/1
f 86/2/1 84/2/1 85/2/1
f 89/2/1 88/2/1 87/2/1
f 90/2/1 88/2/1 89/2/1
f 93/2/1 92/2/1 91/2/1
f 94/2/1 92/2/1 93/2/1
f 97/2/1 96/2/1 95/2/1
f 98/2/1 96/2/1 97/2/1
f 101/2/1 100/2/1 99/2/1
f 102/2/1 100/2/1 101/2/1
f 105/2/1 104/2/1 103/2/1
f 106/2/1 104/2/1 105/2/1
f 109/2/1 108/2/1 107/2/1
f 110/2/1 108/2/1 109/2/1
f 113/2/1 112/2/1 111/2/1
f 114/2/1 112/2/1 113/2/1
f 117/2/1 116/2/1 115/2/1
f 118/2/1 116/2/1 117/2/1
f 121/2/1 120/2/1 119/2/1
f 122/2/1 120/2/1 121/2/1
f 125/2/1 124/2/1 123/2/1
f 126/2/1 124/2/1 125/2/1
f 127/1/2 128/1/2 129/1/2
f 129/1/2 128/1/2 130/1/2
f 127/1/2 129/1/2 131/1/2
f 129/2/2 130/2/2 131/2/2
f 130/1/2 128/1/2 132/1/2
f 131/2/2 130/2/2 132/2/2
f 132/1/2 128/1/2 133/1/2
f 133/1/2 128/1/2 134/1/2
f 127/1/2 131/1/2 135/1/2
f 131/1/2 132/1/2 135/1/2
f 132/1/2 133/1/2 135/1/2
f 135/1/2 133/1/2 136/1/2
f 135/2/2 136/2/2 137/2/2
f 136/1/2 133/1/2 137/1/2
f 137/1/2 133/1/2 138/1/2
f 134/1/2 128/1/2 139/1/2
f 133/2/2 134/2/2 139/2/2
f 139/1/2 128/1/2 140/1/2
f 140/1/2 128/1/2 141/1/2
f 141/1/2 128/1/2 142/1/2
f 127/1/2 135/1/2 143/1/2
f 137/2/2 138/2/2 144/2/2
f 143/1/2 135/1/2 144/1/2
f 135/2/2 137/2/2 144/2/2
f 140/1/2 141/1/2 145/1/2
f 141/2/2 142/2/2 146/2/2
f 145/1/2 141/1/2 146/1/2
f 142/1/2 128/1/2 147/1/2
f 146/2/2 142/2/2 147/2/2
f 147/1/2 128/1/2 148/1/2
f 127/1/2 143/1/2 149/1/2
f 143/2/2 144/2/2 150/2/2
f 149/1/2 143/1/2 150/1/2
f 138/1/2 133/1/2 151/1/2
f 133/2/2 139/2/2 152/2/2
f 151/1/2 133/1/2 152/1/2
f 139/2/2 140/2/2 152/2/2
f 140/1/2 145/1/2 153/1/2
f 152/2/2 140/2/2 153/2/2
f 145/2/2 146/2/2 154/2/2
f 153/1/2 145/1/2 154/1/2
f 146/2/2 147/2/2 154/2/2
f 147/2/2 148/2/2 154/2/2
f 150/2/2 144/2/2 155/2/2
f 138/1/2 151/1/2 155/1/2
f 149/2/2 150/2/2 155/2/2
f 144/2/2 138/2/2 155/2/2
f 152/2/2 153/2/2 156/2/2
f 155/1/2 151/1/2 156/1/2
f 151/2/2 152/2/2 156/2/2
f 153/2/2 154/2/2 156/2/2
f 149/2/2 155/2/2 157/2/2
f 155/2/2 156/2/2 157/2/2
f 154/2/2 148/2/2 158/2/2
f 157/2/2 156/2/2 158/2/2
f 156/2/2 154/2/2 158/2/2
f 162/1/3 160/1/3 159/1/3
f 163/2/3 161/2/3 160/2/3
f 163/1/3 160/1/3 162/1/3
f 164/1/3 162/1/3 159/1/3
f 164/2/3 163/2/3 162/2/3
f 165/2/3 161/2/3 163/2/3
f 165/2/3 163/2/3 164/2/3
f 166/1/3 165/1/3 164/1/3
f 167/2/3 161/2/3 165/2/3
f 167/1/3 165/1/3 166/1/3
f 168/1/3 164/1/3 159/1/3
f 168/1/3 166/1/3 164/1/3
f 169/2/3 167/2/3 166/2/3
f 169/1/3 166/1/3 168/1/3
f 170/1/3 168/1/3 159/1/3
f 171/2/3 169/2/3 168/2/3
f 171/1/3 168/1/3 170/1/3
f 172/1/3 170/1/3 159/1/3
f 172/2/3 171/2/3 170/2/3
f 173/2/3 167/2/3 169/2/3
f 173/2/3 171/2/3 172/2/3
f 173/2/3 169/2/3 171/2/3
f 174/1/3 173/1/3 172/1/3
f 175/1/3 173/1/3 174/1/3
f 176/2/3 167/2/3 173/2/3
f 176/1/3 173/1/3 175/1/3
f 177/2/3 161/2/3 167/2/3
f 177/2/3 167/2/3 176/2/3
f 178/2/3 175/2/3 174/2/3
f 178/1/3 174/1/3 172/1/3
f 179/1/3 176/1/3 175/1/3
f 179/2/3 175/2/3 178/2/3
f 179/1/3 177/1/3 176/1/3
f 180/1/3 179/1/3 178/1/3
f 180/1/3 177/1/3 179/1/3
f 181/2/3 161/2/3 177/2/3
f 181/1/3 177/1/3 180/1/3
f 182/1/3 178/1/3 172/1/3
f 182/1/3 180/1/3 178/1/3
f 183/2/3 181/2/3 180/2/3
f 183/1/3 180/1/3 182/1/3
f 184/1/3 172/1/3 159/1/3
f 184/1/3 182/1/3 172/1/3
f 185/2/3 183/2/3 182/2/3
f 185/1/3 182/1/3 184/1/3
f 186/1/3 184/1/3 159/1/3
f 186/2/3 185/2/3 184/2/3
f 187/2/3 183/2/3 185/2/3
f 187/2/3 185/2/3 186/2/3
f 188/1/3 187/1/3 186/1/3
f 188/2/3 183/2/3 187/2/3
f 189/2/3 183/2/3 188/2/3
f 190/1/3 189/1/3 188/1/3
f 190/2/3 183/2/3 189/2/3
f 191/2/3 161/2/3 181/2/3
f 191/2/3 183/2/3 190/2/3
f 191/2/3 181/2/3 183/2/3
f 192/1/3 191/1/3 190/1/3
f 193/2/3 161/2/3 191/2/3
f 193/1/3 191/1/3 192/1/3
f 194/1/3 190/1/3 188/1/3
f 194/1/3 188/1/3 186/1/3
f 194/1/3 186/1/3 159/1/3
f 194/1/3 192/1/3 190/1/3
f 195/2/3 193/2/3 192/2/3
f 195/1/3 192/1/3 194/1/3
f 196/2/3 161/2/3 193/2/3
f 196/2/3 193/2/3 195/2/3
f 197/2/4 198/2/4 199/2/4
f 199/2/4 198/2/4 200/2/4
f 201/2/4 202/2/4 203/2/4
f 203/2/4 202/2/4 204/2/4
f 205/2/4 206/2/4 207/2/4
f 207/2/4 206/2/4 208/2/4
f 209/2/4 210/2/4 211/2/4
f 211/2/4 210/2/4 212/2/4
f 213/2/4 214/2/4 215/2/4
f 215/2/4 214/2/4 216/2/4
f 217/2/4 218/2/4 219/2/4
f 219/2/4 218/2/4 220/2/4
f 221/2/4 222/2/4 223/2/4
f 223/2/4 222/2/4 224/2/4
f 225/2/4 226/2/4 227/2/4
f 227/2/4 226/2/4 228/2/4
f 229/2/4 230/2/4 231/2/4
f 231/2/4 230/2/4 232/2/4
f 233/2/4 234/2/4 235/2/4
f 235/2/4 234/2/4 236/2/4
f 237/2/4 238/2/4 239/2/4
f 239/2/4 238/2/4 240/2/4
f 241/2/4 242/2/4 243/2/4
f 243/2/4 242/2/4 244/2/4
f 245/2/4 246/2/4 247/2/4
f 247/2/4 246/2/4 248/2/4
f 249/2/4 250/2/4 251/2/4
f 251/2/4 250/2/4 252/2/4
f 253/2/4 254/2/4 255/2/4
f 255/2/4 254/2/4 256/2/4
f 257/2/4 258/2/4 259/2/4
f 259/2/4 258/2/4 260/2/4
f 259/1/4 260/1/4 262/1/4
f 260/2/4 261/2/4 263/2/4
f 262/1/4 260/1/4 263/1/4
f 263/2/4 261/2/4 264/2/4
f 262/2/4 263/2/4 266/2/4
f 264/2/4 265/2/4 266/2/4
f 263/2/4 264/2/4 266/2/4
f 266/2/4 265/2/4 267/2/4
f 267/2/4 265/2/4 268/2/4
f 267/2/4 268/2/4 270/2/4
f 268/2/4 269/2/4 270/2/4
f 266/1/4 267/1/4 272/1/4
f 270/2/4 271/2/4 272/2/4
f 267/2/4 270/2/4 272/2/4
f 272/2/4 271/2/4 273/2/4
f 273/2/4 271/2/4 274/2/4
f 272/1/4 273/1/4 276/1/4
f 274/2/4 275/2/4 276/2/4
f 273/2/4 274/2/4 276/2/4
f 276/2/4 275/2/4 277/2/4
f 277/2/4 275/2/4 278/2/4
f 276/1/4 277/1/4 280/1/4
f 278/2/4 279/2/4 280/2/4
f 277/2/4 278/2/4 280/2/4
f 280/2/4 279/2/4 281/2/4
f 281/2/4 279/2/4 282/2/4
f 276/1/4 280/1/4 284/1/4
f 280/1/4 281/1/4 284/1/4
f 282/2/4 283/2/4 285/2/4
f 284/1/4 281/1/4 285/1/4
f 281/2/4 282/2/4 285/2/4
f 285/2/4 283/2/4 286/2/4
f 276/1/4 284/1/4 288/1/4
f 286/2/4 287/2/4 288/2/4
f 285/2/4 286/2/4 288/2/4
f 284/2/4 285/2/4 288/2/4
f 288/2/4 287/2/4 289/2/4
f 289/2/4 287/2/4 290/2/4
f 288/1/4 289/1/4 292/1/4
f 290/2/4 291/2/4 292/2/4
f 289/2/4 290/2/4 292/2/4
f 292/2/4 291/2/4 293/2/4
f 293/2/4 291/2/4 294/2/4
f 292/1/4 293/1/4 296/1/4
f 294/2/4 295/2/4 296/2/4
f 293/2/4 294/2/4 296/2/4
f 296/2/4 295/2/4 297/2/4
f 292/1/4 296/1/4 299/1/4
f 296/1/4 297/1/4 299/1/4
f 297/2/4 298/2/4 300/2/4
f 299/1/4 297/1/4 300/1/4
f 300/2/4 298/2/4 301/2/4
f 288/1/4 292/1/4 303/1/4
f 292/1/4 299/1/4 303/1/4
f 303/1/4 299/1/4 304/1/4
f 301/2/4 302/2/4 305/2/4
f 304/1/4 299/1/4 305/1/4
f 300/2/4 301/2/4 305/2/4
f 299/2/4 300/2/4 305/2/4
f 305/2/4 302/2/4 306/2/4
f 306/2/4 302/2/4 307/2/4
f 303/2/4 304/2/4 309/2/4
f 288/1/4 303/1/4 309/1/4
f 304/1/4 305/1/4 310/1/4
f 309/2/4 304/2/4 310/2/4
f 305/1/4 306/1/4 310/1/4
f 310/1/4 306/1/4 311/1/4
f 307/2/4 308/2/4 312/2/4
f 311/1/4 306/1/4 312/1/4
f 306/2/4 307/2/4 312/2/4
f 312/2/4 308/2/4 313/2/4
f 310/1/4 311/1/4 315/1/4
f 313/2/4 314/2/4 315/2/4
f 312/2/4 313/2/4 315/2/4
f 311/2/4 312/2/4 315/2/4
f 309/1/4 310/1/4 315/1/4
f 315/2/4 314/2/4 316/2/4
f 316/2/4 314/2/4 317/2/4
f 266/1/4 272/1/4 319/1/4
f 272/1/4 276/1/4 319/1/4
f 276/1/4 288/1/4 319/1/4
f 315/1/4 316/1/4 319/1/4
f 309/1/4 315/1/4 319/1/4
f 288/1/4 309/1/4 319/1/4
f 317/2/4 318/2/4 320/2/4
f 319/1/4 316/1/4 320/1/4
f 316/2/4 317/2/4 320/2/4
f 320/2/4 318/2/4 321/2/4
f 324/1/5 323/1/5 322/1/5
f 325/1/5 323/1/5 324/1/5
f 326/1/5 323/1/5 325/1/5
f 327/1/5 323/1/5 326/1/5
f 328/2/5 325/2/5 324/2/5
f 329/1/5 326/1/5 325/1/5
f 329/2/5 325/2/5 328/2/5
f 330/2/5 327/2/5 326/2/5
f 330/1/5 326/1/5 329/1/5
f 331/1/5 323/1/5 327/1/5
f 331/2/5 327/2/5 330/2/5
f 332/1/5 323/1/5 331/1/5
f 333/2/6 334/2/6 335/2/6
f 335/2/6 334/2/6 336/2/6
f 337/2/6 338/2/6 339/2/6
f 339/2/6 338/2/6 340/2/6
f 340/2/6 338/2/6 341/2/6
f 341/2/6 338/2/6 342/2/6
f 343/2/6 344/2/6 345/2/6
f 345/2/6 344/2/6 346/2/6
f 346/2/6 344/2/6 347/2/6
f 347/2/6 344/2/6 348/2/6
f 349/2/6 350/2/6 351/2/6
f 351/2/6 350/2/6 352/2/6
f 352/2/6 350/2/6 353/2/6
f 353/2/6 350/2/6 354/2/6
f 355/2/6 356/2/6 357/2/6
f 357/2/6 356/2/6 358/2/6
f 358/2/6 356/2/6 359/2/6
f 359/2/6 356/2/6 360/2/6
f 361/2/6 362/2/6 363/2/6
f 363/2/6 362/2/6 364/2/6
f 364/2/6 362/2/6 365/2/6
f 365/2/6 362/2/6 366/2/6
f 367/2/6 368/2/6 369/2/6
f 369/2/6 368/2/6 370/2/6
f 370/2/6 368/2/6 371/2/6
f 371/2/6 368/2/6 372/2/6
f 373/2/6 374/2/6 375/2/6
f 375/2/6 374/2/6 376/2/6
f 376/2/6 374/2/6 377/2/6
f 377/2/6 374/2/6 378/2/6
f 379/2/6 380/2/6 381/2/6
f 381/2/6 380/2/6 382/2/6
f 382/2/6 380/2/6 383/2/6
f 383/2/6 380/2/6 384/2/6
f 385/2/6 386/2/6 387/2/6
f 387/2/6 386/2/6 388/2/6
f 388/2/6 386/2/6 389/2/6
f 389/2/6 386/2/6 390/2/6
f 391/2/6 392/2/6 393/2/6
f 393/2/6 392/2/6 394/2/6
f 394/2/6 392/2/6 395/2/6
f 395/2/6 392/2/6 396/2/6
f 397/2/6 398/2/6 399/2/6
f 399/2/6 398/2/6 400/2/6
f 400/2/6 398/2/6 401/2/6
f 401/2/6 398/2/6 402/2/6
f 403/2/6 404/2/6 405/2/6
f 405/2/6 404/2/6 406/2/6
f 406/2/6 404/2/6 407/2/6
f 407/2/6 404/2/6 408/2/6
f 409/2/6 410/2/6 411/2/6
f 411/2/6 410/2/6 412/2/6
f 412/2/6 410/2/6 413/2/6
f 413/2/6 410/2/6 414/2/6
f 415/2/6 416/2/6 417/2/6
f 417/2/6 416/2/6 418/2/6
f 418/2/6 416/2/6 419/2/6
f 419/2/6 416/2/6 420/2/6
f 421/2/6 422/2/6 423/2/6
f 423/2/6 422/2/6 424/2/6
f 424/2/6 422/2/6 425/2/6
f 425/2/6 422/2/6 426/2/6
