# MagicaVoxel @ Ephtracy

# group
o 

# material
mtllib cityStairsP1-0.mtl
usemtl palette

# normals
vn -1 0 0
vn 1 0 0
vn 0 0 1
vn 0 0 -1
vn 0 -1 0
vn 0 1 0

# texcoords
vt 0.716797 0.5
vt 0.939453 0.5
vt 0.958984 0.5
vt 0.966797 0.5
vt 0.978516 0.5

# verts
v -4.8 -4.8 4.8
v -4.8 -4.8 4.7
v -4.8 -4.8 -4.7
v -4.8 -4.8 -4.8
v -4.8 -4.1 4.7
v -4.8 -4.1 4
v -4.8 -4.1 3.9
v -4.8 -4.1 3.6
v -4.8 -4.1 3.4
v -4.8 -4.1 3
v -4.8 -4.1 1.8
v -4.8 -4.1 0.9
v -4.8 -4.1 0.8
v -4.8 -4.1 -0.8
v -4.8 -4.1 -0.9
v -4.8 -4.1 -1.8
v -4.8 -4.1 -1.9
v -4.8 -4.1 -2.4
v -4.8 -4.1 -2.5
v -4.8 -4.1 -2.9
v -4.8 -4.1 -3
v -4.8 -4.1 -4.3
v -4.8 -4.1 -4.4
v -4.8 -4.1 -4.7
v -4.8 -4 4.7
v -4.8 -4 4.5
v -4.8 -4 4
v -4.8 -4 3.9
v -4.8 -4 3.6
v -4.8 -4 3.4
v -4.8 -4 3
v -4.8 -4 1.8
v -4.8 -4 0.9
v -4.8 -4 0.8
v -4.8 -4 -0.8
v -4.8 -4 -0.9
v -4.8 -4 -1.8
v -4.8 -4 -1.9
v -4.8 -4 -2.4
v -4.8 -4 -2.5
v -4.8 -4 -2.9
v -4.8 -4 -3
v -4.8 -4 -3.6
v -4.8 -4 -3.9
v -4.8 -4 -4.3
v -4.8 -4 -4.4
v -4.8 -4 -4.5
v -4.8 -4 -4.7
v -4.8 1.6 4.8
v -4.8 1.6 4.5
v -4.8 1.6 3.9
v -4.8 1.6 3.6
v -4.8 1.6 -3.6
v -4.8 1.6 -3.9
v -4.8 1.6 -4.5
v -4.8 1.6 -4.8
v -4.6 -4 4.5
v -4.6 -4 4
v -4.6 -4 3.9
v -4.6 -4 -3.9
v -4.6 -4 -4.3
v -4.6 -4 -4.4
v -4.6 -4 -4.5
v -4.6 1.4 4.5
v -4.6 1.4 3.9
v -4.6 1.4 -3.9
v -4.6 1.4 -4.5
v -4.4 -4 3.6
v -4.4 -4 3.5
v -4.4 -4 3.4
v -4.4 -4 3
v -4.4 -4 2.9
v -4.4 -4 2.5
v -4.4 -4 2.4
v -4.4 -4 1.9
v -4.4 -4 1.8
v -4.4 -4 0.9
v -4.4 -4 0.8
v -4.4 -4 -0.8
v -4.4 -4 -0.9
v -4.4 -4 -1.8
v -4.4 -4 -1.9
v -4.4 -4 -2.4
v -4.4 -4 -2.5
v -4.4 -4 -2.9
v -4.4 -4 -3
v -4.4 -4 -3.6
v -4.4 -3.9 3.6
v -4.4 -3.9 -3.6
v -4 -3.9 3.6
v -4 -3.9 -3.6
v -4 -3.8 3.6
v -4 -3.8 -3.6
v -3.6 -3.8 3.6
v -3.6 -3.8 -3.6
v -3.6 -3.7 3.6
v -3.6 -3.7 -3.6
v -3.3 -4.1 4
v -3.3 -4.1 3.9
v -3.3 -4 4
v -3.3 -4 3.9
v -3.2 -3.7 3.6
v -3.2 -3.7 -3.6
v -3.2 -3.6 3.6
v -3.2 -3.6 -3.6
v -2.8 -3.6 3.6
v -2.8 -3.6 -3.6
v -2.8 -3.5 3.6
v -2.8 -3.5 -3.6
v -2.4 -3.5 3.6
v -2.4 -3.5 -3.6
v -2.4 -3.4 3.6
v -2.4 -3.4 -3.6
v -2 -3.4 3.6
v -2 -3.4 -3.6
v -2 -3.3 3.6
v -2 -3.3 -3.6
v -1.6 -3.3 3.6
v -1.6 -3.3 -3.6
v -1.6 -3.2 3.6
v -1.6 -3.2 -3.6
v -1.2 -3.2 3.6
v -1.2 -3.2 -3.6
v -1.2 -3.1 3.6
v -1.2 -3.1 -3.6
v -0.8 -3.1 3.6
v -0.8 -3.1 -3.6
v -0.8 -3 3.6
v -0.8 -3 -3.6
v -0.4 -3 3.6
v -0.4 -3 -3.6
v -0.4 -2.9 3.6
v -0.4 -2.9 -3.6
v 0 -2.9 3.6
v 0 -2.9 -3.6
v 0 -2.8 3.6
v 0 -2.8 -3.6
v 0.4 -2.8 3.6
v 0.4 -2.8 -3.6
v 0.4 -2.7 3.6
v 0.4 -2.7 -3.6
v 0.8 -2.7 3.6
v 0.8 -2.7 -3.6
v 0.8 -2.6 3.6
v 0.8 -2.6 -3.6
v 1.2 -2.6 3.6
v 1.2 -2.6 -3.6
v 1.2 -2.5 3.6
v 1.2 -2.5 -3.6
v 1.6 -2.5 3.6
v 1.6 -2.5 -3.6
v 1.6 -2.4 3.6
v 1.6 -2.4 -3.6
v 2 -2.4 3.6
v 2 -2.4 -3.6
v 2 -2.3 3.6
v 2 -2.3 -3.6
v 2.4 -2.3 3.6
v 2.4 -2.3 -3.6
v 2.4 -2.2 3.6
v 2.4 -2.2 -3.6
v 2.8 -2.2 3.6
v 2.8 -2.2 -3.6
v 2.8 -2.1 3.6
v 2.8 -2.1 -3.6
v 3.2 -2.1 3.6
v 3.2 -2.1 -3.6
v 3.2 -2 3.6
v 3.2 -2 -3.6
v 3.6 -2 3.6
v 3.6 -2 -3.6
v 3.6 -1.9 3.6
v 3.6 -1.9 -3.6
v 4 -1.9 3.6
v 4 -1.9 -3.6
v 4 -1.8 3.6
v 4 -1.8 -3.6
v 4.4 -1.8 3.6
v 4.4 -1.8 -3.6
v 4.4 -1.7 3.6
v 4.4 -1.7 -3.6
v -3.4 -4.1 4
v -3.4 -4.1 3.9
v -3.4 -4 4
v -3.4 -4 3.9
v 4.8 -4.8 4.8
v 4.8 -4.8 4.7
v 4.8 -4.8 -4.7
v 4.8 -4.8 -4.8
v 4.8 -4 4.7
v 4.8 -4 4.5
v 4.8 -4 3.9
v 4.8 -4 -3.9
v 4.8 -4 -4.5
v 4.8 -4 -4.7
v 4.8 -1.8 3.6
v 4.8 -1.8 -3.6
v 4.8 -1.7 3.6
v 4.8 -1.7 -3.6
v 4.8 1.4 4.5
v 4.8 1.4 3.9
v 4.8 1.4 -3.9
v 4.8 1.4 -4.5
v 4.8 1.6 4.8
v 4.8 1.6 4.5
v 4.8 1.6 3.9
v 4.8 1.6 3.6
v 4.8 1.6 -3.6
v 4.8 1.6 -3.9
v 4.8 1.6 -4.5
v 4.8 1.6 -4.8
v -4.8 -4.8 4.8
v -4.8 1.6 4.8
v 4.8 -4.8 4.8
v 4.8 1.6 4.8
v -4.8 -4 3.9
v -4.8 1.6 3.9
v -4.6 -4 3.9
v -4.6 1.4 3.9
v -3.4 -4.1 3.9
v -3.4 -4 3.9
v -3.3 -4.1 3.9
v -3.3 -4 3.9
v 4.8 1.4 3.9
v 4.8 1.6 3.9
v -4.8 -4 -3.6
v -4.8 1.6 -3.6
v -4.4 -4 -3.6
v -4.4 -3.9 -3.6
v -4.1 -3.9 -3.6
v -4 -3.9 -3.6
v -4 -3.8 -3.6
v -3.7 -3.8 -3.6
v -3.6 -3.8 -3.6
v -3.6 -3.7 -3.6
v -3.3 -3.7 -3.6
v -3.2 -3.7 -3.6
v -3.2 -3.6 -3.6
v -2.9 -3.6 -3.6
v -2.8 -3.6 -3.6
v -2.8 -3.5 -3.6
v -2.5 -3.5 -3.6
v -2.4 -3.5 -3.6
v -2.4 -3.4 -3.6
v -2.1 -3.4 -3.6
v -2 -3.4 -3.6
v -2 -3.3 -3.6
v -1.7 -3.3 -3.6
v -1.6 -3.3 -3.6
v -1.6 -3.2 -3.6
v -1.3 -3.2 -3.6
v -1.2 -3.2 -3.6
v -1.2 -3.1 -3.6
v -0.9 -3.1 -3.6
v -0.8 -3.1 -3.6
v -0.8 -3 -3.6
v -0.5 -3 -3.6
v -0.4 -3 -3.6
v -0.4 -2.9 -3.6
v -0.0999999 -2.9 -3.6
v 0 -2.9 -3.6
v 0 -2.8 -3.6
v 0.3 -2.8 -3.6
v 0.4 -2.8 -3.6
v 0.4 -2.7 -3.6
v 0.7 -2.7 -3.6
v 0.8 -2.7 -3.6
v 0.8 -2.6 -3.6
v 1.1 -2.6 -3.6
v 1.2 -2.6 -3.6
v 1.2 -2.5 -3.6
v 1.5 -2.5 -3.6
v 1.6 -2.5 -3.6
v 1.6 -2.4 -3.6
v 1.9 -2.4 -3.6
v 2 -2.4 -3.6
v 2 -2.3 -3.6
v 2.3 -2.3 -3.6
v 2.4 -2.3 -3.6
v 2.4 -2.2 -3.6
v 2.7 -2.2 -3.6
v 2.8 -2.2 -3.6
v 2.8 -2.1 -3.6
v 3.1 -2.1 -3.6
v 3.2 -2.1 -3.6
v 3.2 -2 -3.6
v 3.5 -2 -3.6
v 3.6 -2 -3.6
v 3.6 -1.9 -3.6
v 3.9 -1.9 -3.6
v 4 -1.9 -3.6
v 4 -1.8 -3.6
v 4.3 -1.8 -3.6
v 4.4 -1.8 -3.6
v 4.4 -1.7 -3.6
v 4.7 -1.7 -3.6
v 4.8 -1.7 -3.6
v 4.8 1.6 -3.6
v -4.8 -4 -4.5
v -4.8 1.6 -4.5
v -4.6 -4 -4.5
v -4.6 1.4 -4.5
v 4.8 1.4 -4.5
v 4.8 1.6 -4.5
v -4.8 -4 4.5
v -4.8 1.6 4.5
v -4.6 -4 4.5
v -4.6 1.4 4.5
v 4.8 1.4 4.5
v 4.8 1.6 4.5
v -3.4 -4.1 4
v -3.4 -4 4
v -3.3 -4.1 4
v -3.3 -4 4
v -4.8 -4 3.6
v -4.8 1.6 3.6
v -4.7 -4 3.6
v -4.4 -4 3.6
v -4.4 -3.9 3.6
v -4.1 -3.9 3.6
v -4 -3.9 3.6
v -4 -3.8 3.6
v -3.7 -3.8 3.6
v -3.6 -3.8 3.6
v -3.6 -3.7 3.6
v -3.3 -3.7 3.6
v -3.2 -3.7 3.6
v -3.2 -3.6 3.6
v -2.9 -3.6 3.6
v -2.8 -3.6 3.6
v -2.8 -3.5 3.6
v -2.5 -3.5 3.6
v -2.4 -3.5 3.6
v -2.4 -3.4 3.6
v -2.1 -3.4 3.6
v -2 -3.4 3.6
v -2 -3.3 3.6
v -1.7 -3.3 3.6
v -1.6 -3.3 3.6
v -1.6 -3.2 3.6
v -1.3 -3.2 3.6
v -1.2 -3.2 3.6
v -1.2 -3.1 3.6
v -0.9 -3.1 3.6
v -0.8 -3.1 3.6
v -0.8 -3 3.6
v -0.5 -3 3.6
v -0.4 -3 3.6
v -0.4 -2.9 3.6
v -0.0999999 -2.9 3.6
v 0 -2.9 3.6
v 0 -2.8 3.6
v 0.3 -2.8 3.6
v 0.4 -2.8 3.6
v 0.4 -2.7 3.6
v 0.7 -2.7 3.6
v 0.8 -2.7 3.6
v 0.8 -2.6 3.6
v 1.1 -2.6 3.6
v 1.2 -2.6 3.6
v 1.2 -2.5 3.6
v 1.5 -2.5 3.6
v 1.6 -2.5 3.6
v 1.6 -2.4 3.6
v 1.9 -2.4 3.6
v 2 -2.4 3.6
v 2 -2.3 3.6
v 2.3 -2.3 3.6
v 2.4 -2.3 3.6
v 2.4 -2.2 3.6
v 2.7 -2.2 3.6
v 2.8 -2.2 3.6
v 2.8 -2.1 3.6
v 3.1 -2.1 3.6
v 3.2 -2.1 3.6
v 3.2 -2 3.6
v 3.5 -2 3.6
v 3.6 -2 3.6
v 3.6 -1.9 3.6
v 3.9 -1.9 3.6
v 4 -1.9 3.6
v 4 -1.8 3.6
v 4.3 -1.8 3.6
v 4.4 -1.8 3.6
v 4.4 -1.7 3.6
v 4.7 -1.7 3.6
v 4.8 -1.7 3.6
v 4.8 1.6 3.6
v -4.8 -4 -3.9
v -4.8 1.6 -3.9
v -4.6 -4 -3.9
v -4.6 1.4 -3.9
v 4.8 1.4 -3.9
v 4.8 1.6 -3.9
v -4.8 -4.8 -4.8
v -4.8 1.6 -4.8
v 4.8 -4.8 -4.8
v 4.8 1.6 -4.8
v -4.8 -4.8 4.8
v 4.8 -4.8 4.8
v -4.8 -4.8 4.7
v 4.8 -4.8 4.7
v -4.8 -4.8 -4.7
v 4.8 -4.8 -4.7
v -4.8 -4.8 -4.8
v 4.8 -4.8 -4.8
v -3.4 -4 4
v -3.3 -4 4
v -3.4 -4 3.9
v -3.3 -4 3.9
v -3.4 -4.1 4
v -3.3 -4.1 4
v -3.4 -4.1 3.9
v -3.3 -4.1 3.9
v -4.8 -4 4.5
v -4.6 -4 4.5
v -4.8 -4 4
v -4.6 -4 4
v -4.8 -4 3.9
v -4.6 -4 3.9
v -4.8 -4 3.6
v -4.7 -4 3.6
v -4.4 -4 3.6
v -4.7 -4 3.5
v -4.4 -4 3.5
v -4.8 -4 3.4
v -4.4 -4 3.4
v -4.8 -4 3
v -4.4 -4 3
v -4.7 -4 2.9
v -4.4 -4 2.9
v -4.7 -4 2.5
v -4.4 -4 2.5
v -4.7 -4 2.4
v -4.4 -4 2.4
v -4.7 -4 1.9
v -4.4 -4 1.9
v -4.8 -4 1.8
v -4.4 -4 1.8
v -4.8 -4 0.9
v -4.4 -4 0.9
v -4.8 -4 0.8
v -4.4 -4 0.8
v -4.8 -4 -0.8
v -4.4 -4 -0.8
v -4.8 -4 -0.9
v -4.4 -4 -0.9
v -4.8 -4 -1.8
v -4.4 -4 -1.8
v -4.8 -4 -1.9
v -4.4 -4 -1.9
v -4.8 -4 -2.4
v -4.4 -4 -2.4
v -4.8 -4 -2.5
v -4.4 -4 -2.5
v -4.8 -4 -2.9
v -4.4 -4 -2.9
v -4.8 -4 -3
v -4.4 -4 -3
v -4.8 -4 -3.6
v -4.4 -4 -3.6
v -4.8 -4 -3.9
v -4.6 -4 -3.9
v -4.8 -4 -4.3
v -4.6 -4 -4.3
v -4.8 -4 -4.4
v -4.6 -4 -4.4
v -4.8 -4 -4.5
v -4.6 -4 -4.5
v -4.4 -3.9 3.6
v -4.1 -3.9 3.6
v -4 -3.9 3.6
v -4.4 -3.9 -3.6
v -4.1 -3.9 -3.6
v -4 -3.9 -3.6
v -4 -3.8 3.6
v -3.7 -3.8 3.6
v -3.6 -3.8 3.6
v -4 -3.8 -3.6
v -3.7 -3.8 -3.6
v -3.6 -3.8 -3.6
v -3.6 -3.7 3.6
v -3.3 -3.7 3.6
v -3.2 -3.7 3.6
v -3.6 -3.7 -3.6
v -3.3 -3.7 -3.6
v -3.2 -3.7 -3.6
v -3.2 -3.6 3.6
v -2.9 -3.6 3.6
v -2.8 -3.6 3.6
v -3.2 -3.6 -3.6
v -2.9 -3.6 -3.6
v -2.8 -3.6 -3.6
v -2.8 -3.5 3.6
v -2.5 -3.5 3.6
v -2.4 -3.5 3.6
v -2.8 -3.5 -3.6
v -2.5 -3.5 -3.6
v -2.4 -3.5 -3.6
v -2.4 -3.4 3.6
v -2.1 -3.4 3.6
v -2 -3.4 3.6
v -2.4 -3.4 -3.6
v -2.1 -3.4 -3.6
v -2 -3.4 -3.6
v -2 -3.3 3.6
v -1.7 -3.3 3.6
v -1.6 -3.3 3.6
v -2 -3.3 -3.6
v -1.7 -3.3 -3.6
v -1.6 -3.3 -3.6
v -1.6 -3.2 3.6
v -1.3 -3.2 3.6
v -1.2 -3.2 3.6
v -1.6 -3.2 -3.6
v -1.3 -3.2 -3.6
v -1.2 -3.2 -3.6
v -1.2 -3.1 3.6
v -0.9 -3.1 3.6
v -0.8 -3.1 3.6
v -1.2 -3.1 -3.6
v -0.9 -3.1 -3.6
v -0.8 -3.1 -3.6
v -0.8 -3 3.6
v -0.5 -3 3.6
v -0.4 -3 3.6
v -0.8 -3 -3.6
v -0.5 -3 -3.6
v -0.4 -3 -3.6
v -0.4 -2.9 3.6
v -0.0999999 -2.9 3.6
v 0 -2.9 3.6
v -0.4 -2.9 -3.6
v -0.0999999 -2.9 -3.6
v 0 -2.9 -3.6
v 0 -2.8 3.6
v 0.3 -2.8 3.6
v 0.4 -2.8 3.6
v 0 -2.8 -3.6
v 0.3 -2.8 -3.6
v 0.4 -2.8 -3.6
v 0.4 -2.7 3.6
v 0.7 -2.7 3.6
v 0.8 -2.7 3.6
v 0.4 -2.7 -3.6
v 0.7 -2.7 -3.6
v 0.8 -2.7 -3.6
v 0.8 -2.6 3.6
v 1.1 -2.6 3.6
v 1.2 -2.6 3.6
v 0.8 -2.6 -3.6
v 1.1 -2.6 -3.6
v 1.2 -2.6 -3.6
v 1.2 -2.5 3.6
v 1.5 -2.5 3.6
v 1.6 -2.5 3.6
v 1.2 -2.5 -3.6
v 1.5 -2.5 -3.6
v 1.6 -2.5 -3.6
v 1.6 -2.4 3.6
v 1.9 -2.4 3.6
v 2 -2.4 3.6
v 1.6 -2.4 -3.6
v 1.9 -2.4 -3.6
v 2 -2.4 -3.6
v 2 -2.3 3.6
v 2.3 -2.3 3.6
v 2.4 -2.3 3.6
v 2 -2.3 -3.6
v 2.3 -2.3 -3.6
v 2.4 -2.3 -3.6
v 2.4 -2.2 3.6
v 2.7 -2.2 3.6
v 2.8 -2.2 3.6
v 2.4 -2.2 -3.6
v 2.7 -2.2 -3.6
v 2.8 -2.2 -3.6
v 2.8 -2.1 3.6
v 3.1 -2.1 3.6
v 3.2 -2.1 3.6
v 2.8 -2.1 -3.6
v 3.1 -2.1 -3.6
v 3.2 -2.1 -3.6
v 3.2 -2 3.6
v 3.5 -2 3.6
v 3.6 -2 3.6
v 3.2 -2 -3.6
v 3.5 -2 -3.6
v 3.6 -2 -3.6
v 3.6 -1.9 3.6
v 3.9 -1.9 3.6
v 4 -1.9 3.6
v 3.6 -1.9 -3.6
v 3.9 -1.9 -3.6
v 4 -1.9 -3.6
v 4 -1.8 3.6
v 4.3 -1.8 3.6
v 4.4 -1.8 3.6
v 4 -1.8 -3.6
v 4.3 -1.8 -3.6
v 4.4 -1.8 -3.6
v 4.4 -1.7 3.6
v 4.7 -1.7 3.6
v 4.8 -1.7 3.6
v 4.4 -1.7 -3.6
v 4.7 -1.7 -3.6
v 4.8 -1.7 -3.6
v -4.6 1.4 4.5
v 4.8 1.4 4.5
v -4.6 1.4 3.9
v 4.8 1.4 3.9
v -4.6 1.4 -3.9
v 4.8 1.4 -3.9
v -4.6 1.4 -4.5
v 4.8 1.4 -4.5
v -4.8 1.6 4.8
v 4.8 1.6 4.8
v -4.8 1.6 4.5
v 4.8 1.6 4.5
v -4.8 1.6 3.9
v 4.8 1.6 3.9
v -4.8 1.6 3.6
v 4.8 1.6 3.6
v -4.8 1.6 -3.6
v 4.8 1.6 -3.6
v -4.8 1.6 -3.9
v 4.8 1.6 -3.9
v -4.8 1.6 -4.5
v 4.8 1.6 -4.5
v -4.8 1.6 -4.8
v 4.8 1.6 -4.8

# faces
f 5/3/1 2/3/1 1/3/1
f 5/2/1 3/2/1 2/2/1
f 6/2/1 3/2/1 5/2/1
f 7/2/1 3/2/1 6/2/1
f 8/2/1 3/2/1 7/2/1
f 9/2/1 3/2/1 8/2/1
f 10/2/1 3/2/1 9/2/1
f 11/2/1 3/2/1 10/2/1
f 12/2/1 3/2/1 11/2/1
f 13/2/1 3/2/1 12/2/1
f 14/2/1 3/2/1 13/2/1
f 15/2/1 3/2/1 14/2/1
f 16/2/1 3/2/1 15/2/1
f 17/2/1 3/2/1 16/2/1
f 18/2/1 3/2/1 17/2/1
f 19/2/1 3/2/1 18/2/1
f 20/2/1 3/2/1 19/2/1
f 21/2/1 3/2/1 20/2/1
f 22/2/1 3/2/1 21/2/1
f 23/2/1 3/2/1 22/2/1
f 24/3/1 4/3/1 3/3/1
f 24/2/1 3/2/1 23/2/1
f 25/3/1 5/3/1 1/3/1
f 25/5/1 6/5/1 5/5/1
f 26/5/1 6/5/1 25/5/1
f 27/2/1 7/2/1 6/2/1
f 27/5/1 6/5/1 26/5/1
f 28/3/1 8/3/1 7/3/1
f 28/2/1 7/2/1 27/2/1
f 29/2/1 9/2/1 8/2/1
f 29/3/1 8/3/1 28/3/1
f 30/5/1 10/5/1 9/5/1
f 30/2/1 9/2/1 29/2/1
f 31/2/1 11/2/1 10/2/1
f 31/5/1 10/5/1 30/5/1
f 32/5/1 12/5/1 11/5/1
f 32/2/1 11/2/1 31/2/1
f 33/2/1 13/2/1 12/2/1
f 33/5/1 12/5/1 32/5/1
f 34/5/1 14/5/1 13/5/1
f 34/2/1 13/2/1 33/2/1
f 35/2/1 15/2/1 14/2/1
f 35/5/1 14/5/1 34/5/1
f 36/5/1 16/5/1 15/5/1
f 36/2/1 15/2/1 35/2/1
f 37/2/1 17/2/1 16/2/1
f 37/5/1 16/5/1 36/5/1
f 38/5/1 18/5/1 17/5/1
f 38/2/1 17/2/1 37/2/1
f 39/2/1 19/2/1 18/2/1
f 39/5/1 18/5/1 38/5/1
f 40/5/1 20/5/1 19/5/1
f 40/2/1 19/2/1 39/2/1
f 41/2/1 21/2/1 20/2/1
f 41/5/1 20/5/1 40/5/1
f 42/5/1 22/5/1 21/5/1
f 42/2/1 21/2/1 41/2/1
f 43/5/1 22/5/1 42/5/1
f 44/5/1 22/5/1 43/5/1
f 45/2/1 23/2/1 22/2/1
f 45/5/1 22/5/1 44/5/1
f 46/5/1 24/5/1 23/5/1
f 46/2/1 23/2/1 45/2/1
f 47/5/1 24/5/1 46/5/1
f 48/3/1 4/3/1 24/3/1
f 48/5/1 24/5/1 47/5/1
f 49/3/1 26/3/1 25/3/1
f 49/3/1 25/3/1 1/3/1
f 50/3/1 26/3/1 49/3/1
f 51/3/1 29/3/1 28/3/1
f 52/3/1 29/3/1 51/3/1
f 53/3/1 44/3/1 43/3/1
f 54/3/1 44/3/1 53/3/1
f 55/3/1 48/3/1 47/3/1
f 56/3/1 4/3/1 48/3/1
f 56/3/1 48/3/1 55/3/1
f 64/1/1 58/1/1 57/1/1
f 64/1/1 59/1/1 58/1/1
f 65/1/1 59/1/1 64/1/1
f 66/1/1 63/1/1 62/1/1
f 66/1/1 62/1/1 61/1/1
f 66/1/1 61/1/1 60/1/1
f 67/1/1 63/1/1 66/1/1
f 88/3/1 69/3/1 68/3/1
f 88/3/1 87/3/1 86/3/1
f 88/3/1 86/3/1 85/3/1
f 88/3/1 85/3/1 84/3/1
f 88/3/1 84/3/1 83/3/1
f 88/3/1 83/3/1 82/3/1
f 88/3/1 82/3/1 81/3/1
f 88/3/1 81/3/1 80/3/1
f 88/3/1 80/3/1 79/3/1
f 88/3/1 79/3/1 78/3/1
f 88/3/1 78/3/1 77/3/1
f 88/3/1 77/3/1 76/3/1
f 88/3/1 76/3/1 75/3/1
f 88/3/1 75/3/1 74/3/1
f 88/3/1 74/3/1 73/3/1
f 88/3/1 73/3/1 72/3/1
f 88/3/1 72/3/1 71/3/1
f 88/3/1 71/3/1 70/3/1
f 88/3/1 70/3/1 69/3/1
f 89/3/1 87/3/1 88/3/1
f 92/3/1 91/3/1 90/3/1
f 93/3/1 91/3/1 92/3/1
f 96/3/1 95/3/1 94/3/1
f 97/3/1 95/3/1 96/3/1
f 100/2/1 99/2/1 98/2/1
f 101/2/1 99/2/1 100/2/1
f 104/3/1 103/3/1 102/3/1
f 105/3/1 103/3/1 104/3/1
f 108/3/1 107/3/1 106/3/1
f 109/3/1 107/3/1 108/3/1
f 112/3/1 111/3/1 110/3/1
f 113/3/1 111/3/1 112/3/1
f 116/3/1 115/3/1 114/3/1
f 117/3/1 115/3/1 116/3/1
f 120/3/1 119/3/1 118/3/1
f 121/3/1 119/3/1 120/3/1
f 124/3/1 123/3/1 122/3/1
f 125/3/1 123/3/1 124/3/1
f 128/3/1 127/3/1 126/3/1
f 129/3/1 127/3/1 128/3/1
f 132/3/1 131/3/1 130/3/1
f 133/3/1 131/3/1 132/3/1
f 136/3/1 135/3/1 134/3/1
f 137/3/1 135/3/1 136/3/1
f 140/3/1 139/3/1 138/3/1
f 141/3/1 139/3/1 140/3/1
f 144/3/1 143/3/1 142/3/1
f 145/3/1 143/3/1 144/3/1
f 148/3/1 147/3/1 146/3/1
f 149/3/1 147/3/1 148/3/1
f 152/3/1 151/3/1 150/3/1
f 153/3/1 151/3/1 152/3/1
f 156/3/1 155/3/1 154/3/1
f 157/3/1 155/3/1 156/3/1
f 160/3/1 159/3/1 158/3/1
f 161/3/1 159/3/1 160/3/1
f 164/3/1 163/3/1 162/3/1
f 165/3/1 163/3/1 164/3/1
f 168/3/1 167/3/1 166/3/1
f 169/3/1 167/3/1 168/3/1
f 172/3/1 171/3/1 170/3/1
f 173/3/1 171/3/1 172/3/1
f 176/3/1 175/3/1 174/3/1
f 177/3/1 175/3/1 176/3/1
f 180/3/1 179/3/1 178/3/1
f 181/3/1 179/3/1 180/3/1
f 182/2/2 183/2/2 184/2/2
f 184/2/2 183/2/2 185/2/2
f 186/3/2 187/3/2 190/3/2
f 187/2/2 188/2/2 190/2/2
f 190/2/2 188/2/2 191/2/2
f 191/2/2 188/2/2 192/2/2
f 192/2/2 188/2/2 193/2/2
f 193/2/2 188/2/2 194/2/2
f 188/3/2 189/3/2 195/3/2
f 194/2/2 188/2/2 195/2/2
f 192/3/2 193/3/2 196/3/2
f 196/3/2 193/3/2 197/3/2
f 192/3/2 196/3/2 198/3/2
f 196/4/2 197/4/2 198/4/2
f 197/3/2 193/3/2 199/3/2
f 198/4/2 197/4/2 199/4/2
f 190/3/2 191/3/2 200/3/2
f 191/1/2 192/1/2 200/1/2
f 192/3/2 198/3/2 201/3/2
f 200/1/2 192/1/2 201/1/2
f 193/1/2 194/1/2 202/1/2
f 199/3/2 193/3/2 202/3/2
f 194/3/2 195/3/2 203/3/2
f 202/1/2 194/1/2 203/1/2
f 186/3/2 190/3/2 204/3/2
f 190/3/2 200/3/2 204/3/2
f 204/3/2 200/3/2 205/3/2
f 201/3/2 198/3/2 206/3/2
f 206/3/2 198/3/2 207/3/2
f 199/3/2 202/3/2 208/3/2
f 208/3/2 202/3/2 209/3/2
f 203/3/2 195/3/2 210/3/2
f 195/3/2 189/3/2 211/3/2
f 210/3/2 195/3/2 211/3/2
f 214/3/3 213/3/3 212/3/3
f 215/3/3 213/3/3 214/3/3
f 218/3/3 217/3/3 216/3/3
f 219/3/3 217/3/3 218/3/3
f 222/2/3 221/2/3 220/2/3
f 223/2/3 221/2/3 222/2/3
f 224/3/3 217/3/3 219/3/3
f 225/3/3 217/3/3 224/3/3
f 228/3/3 227/3/3 226/3/3
f 229/3/3 227/3/3 228/3/3
f 230/3/3 227/3/3 229/3/3
f 231/3/3 227/3/3 230/3/3
f 232/3/3 227/3/3 231/3/3
f 233/3/3 227/3/3 232/3/3
f 234/3/3 227/3/3 233/3/3
f 235/3/3 227/3/3 234/3/3
f 236/3/3 227/3/3 235/3/3
f 237/3/3 227/3/3 236/3/3
f 238/3/3 227/3/3 237/3/3
f 239/3/3 227/3/3 238/3/3
f 240/3/3 227/3/3 239/3/3
f 241/3/3 227/3/3 240/3/3
f 242/3/3 227/3/3 241/3/3
f 243/3/3 227/3/3 242/3/3
f 244/3/3 227/3/3 243/3/3
f 245/3/3 227/3/3 244/3/3
f 246/3/3 227/3/3 245/3/3
f 247/3/3 227/3/3 246/3/3
f 248/3/3 227/3/3 247/3/3
f 249/3/3 227/3/3 248/3/3
f 250/3/3 227/3/3 249/3/3
f 251/3/3 227/3/3 250/3/3
f 252/3/3 227/3/3 251/3/3
f 253/3/3 227/3/3 252/3/3
f 254/3/3 227/3/3 253/3/3
f 255/3/3 227/3/3 254/3/3
f 256/3/3 227/3/3 255/3/3
f 257/3/3 227/3/3 256/3/3
f 258/3/3 227/3/3 257/3/3
f 259/3/3 227/3/3 258/3/3
f 260/3/3 227/3/3 259/3/3
f 261/3/3 227/3/3 260/3/3
f 262/3/3 227/3/3 261/3/3
f 263/3/3 227/3/3 262/3/3
f 264/3/3 227/3/3 263/3/3
f 265/3/3 227/3/3 264/3/3
f 266/3/3 227/3/3 265/3/3
f 267/3/3 227/3/3 266/3/3
f 268/3/3 227/3/3 267/3/3
f 269/3/3 227/3/3 268/3/3
f 270/3/3 227/3/3 269/3/3
f 271/3/3 227/3/3 270/3/3
f 272/3/3 227/3/3 271/3/3
f 273/3/3 227/3/3 272/3/3
f 274/3/3 227/3/3 273/3/3
f 275/3/3 227/3/3 274/3/3
f 276/3/3 227/3/3 275/3/3
f 277/3/3 227/3/3 276/3/3
f 278/3/3 227/3/3 277/3/3
f 279/3/3 227/3/3 278/3/3
f 280/3/3 227/3/3 279/3/3
f 281/3/3 227/3/3 280/3/3
f 282/3/3 227/3/3 281/3/3
f 283/3/3 227/3/3 282/3/3
f 284/3/3 227/3/3 283/3/3
f 285/3/3 227/3/3 284/3/3
f 286/3/3 227/3/3 285/3/3
f 287/3/3 227/3/3 286/3/3
f 288/3/3 227/3/3 287/3/3
f 289/3/3 227/3/3 288/3/3
f 290/3/3 227/3/3 289/3/3
f 291/3/3 227/3/3 290/3/3
f 292/3/3 227/3/3 291/3/3
f 293/3/3 227/3/3 292/3/3
f 294/3/3 227/3/3 293/3/3
f 295/3/3 227/3/3 294/3/3
f 296/3/3 227/3/3 295/3/3
f 297/3/3 227/3/3 296/3/3
f 298/3/3 227/3/3 297/3/3
f 301/3/3 300/3/3 299/3/3
f 302/3/3 300/3/3 301/3/3
f 303/3/3 300/3/3 302/3/3
f 304/3/3 300/3/3 303/3/3
f 305/3/4 306/3/4 307/3/4
f 307/3/4 306/3/4 308/3/4
f 308/3/4 306/3/4 309/3/4
f 309/3/4 306/3/4 310/3/4
f 311/2/4 312/2/4 313/2/4
f 313/2/4 312/2/4 314/2/4
f 315/3/4 316/3/4 317/3/4
f 317/3/4 316/3/4 318/3/4
f 318/3/4 316/3/4 319/3/4
f 319/3/4 316/3/4 320/3/4
f 320/3/4 316/3/4 321/3/4
f 321/3/4 316/3/4 322/3/4
f 322/3/4 316/3/4 323/3/4
f 323/3/4 316/3/4 324/3/4
f 324/3/4 316/3/4 325/3/4
f 325/3/4 316/3/4 326/3/4
f 326/3/4 316/3/4 327/3/4
f 327/3/4 316/3/4 328/3/4
f 328/3/4 316/3/4 329/3/4
f 329/3/4 316/3/4 330/3/4
f 330/3/4 316/3/4 331/3/4
f 331/3/4 316/3/4 332/3/4
f 332/3/4 316/3/4 333/3/4
f 333/3/4 316/3/4 334/3/4
f 334/3/4 316/3/4 335/3/4
f 335/3/4 316/3/4 336/3/4
f 336/3/4 316/3/4 337/3/4
f 337/3/4 316/3/4 338/3/4
f 338/3/4 316/3/4 339/3/4
f 339/3/4 316/3/4 340/3/4
f 340/3/4 316/3/4 341/3/4
f 341/3/4 316/3/4 342/3/4
f 342/3/4 316/3/4 343/3/4
f 343/3/4 316/3/4 344/3/4
f 344/3/4 316/3/4 345/3/4
f 345/3/4 316/3/4 346/3/4
f 346/3/4 316/3/4 347/3/4
f 347/3/4 316/3/4 348/3/4
f 348/3/4 316/3/4 349/3/4
f 349/3/4 316/3/4 350/3/4
f 350/3/4 316/3/4 351/3/4
f 351/3/4 316/3/4 352/3/4
f 352/3/4 316/3/4 353/3/4
f 353/3/4 316/3/4 354/3/4
f 354/3/4 316/3/4 355/3/4
f 355/3/4 316/3/4 356/3/4
f 356/3/4 316/3/4 357/3/4
f 357/3/4 316/3/4 358/3/4
f 358/3/4 316/3/4 359/3/4
f 359/3/4 316/3/4 360/3/4
f 360/3/4 316/3/4 361/3/4
f 361/3/4 316/3/4 362/3/4
f 362/3/4 316/3/4 363/3/4
f 363/3/4 316/3/4 364/3/4
f 364/3/4 316/3/4 365/3/4
f 365/3/4 316/3/4 366/3/4
f 366/3/4 316/3/4 367/3/4
f 367/3/4 316/3/4 368/3/4
f 368/3/4 316/3/4 369/3/4
f 369/3/4 316/3/4 370/3/4
f 370/3/4 316/3/4 371/3/4
f 371/3/4 316/3/4 372/3/4
f 372/3/4 316/3/4 373/3/4
f 373/3/4 316/3/4 374/3/4
f 374/3/4 316/3/4 375/3/4
f 375/3/4 316/3/4 376/3/4
f 376/3/4 316/3/4 377/3/4
f 377/3/4 316/3/4 378/3/4
f 378/3/4 316/3/4 379/3/4
f 379/3/4 316/3/4 380/3/4
f 380/3/4 316/3/4 381/3/4
f 381/3/4 316/3/4 382/3/4
f 382/3/4 316/3/4 383/3/4
f 383/3/4 316/3/4 384/3/4
f 384/3/4 316/3/4 385/3/4
f 385/3/4 316/3/4 386/3/4
f 386/3/4 316/3/4 387/3/4
f 387/3/4 316/3/4 388/3/4
f 389/3/4 390/3/4 391/3/4
f 391/3/4 390/3/4 392/3/4
f 392/3/4 390/3/4 393/3/4
f 393/3/4 390/3/4 394/3/4
f 395/3/4 396/3/4 397/3/4
f 397/3/4 396/3/4 398/3/4
f 401/3/5 400/3/5 399/3/5
f 402/3/5 400/3/5 401/3/5
f 403/2/5 402/2/5 401/2/5
f 404/2/5 402/2/5 403/2/5
f 405/3/5 404/3/5 403/3/5
f 406/3/5 404/3/5 405/3/5
f 409/1/5 408/1/5 407/1/5
f 410/1/5 408/1/5 409/1/5
f 411/1/6 412/1/6 413/1/6
f 413/1/6 412/1/6 414/1/6
f 415/5/6 416/5/6 417/5/6
f 417/5/6 416/5/6 418/5/6
f 417/2/6 418/2/6 419/2/6
f 419/2/6 418/2/6 420/2/6
f 421/2/6 422/2/6 424/2/6
f 422/5/6 423/5/6 424/5/6
f 424/5/6 423/5/6 425/5/6
f 421/2/6 424/2/6 426/2/6
f 424/2/6 425/2/6 426/2/6
f 426/2/6 425/2/6 427/2/6
f 426/5/6 427/5/6 428/5/6
f 428/5/6 427/5/6 429/5/6
f 428/2/6 429/2/6 430/2/6
f 430/2/6 429/2/6 431/2/6
f 428/2/6 430/2/6 432/2/6
f 430/5/6 431/5/6 432/5/6
f 432/5/6 431/5/6 433/5/6
f 428/2/6 432/2/6 434/2/6
f 432/2/6 433/2/6 434/2/6
f 434/2/6 433/2/6 435/2/6
f 428/2/6 434/2/6 436/2/6
f 434/5/6 435/5/6 436/5/6
f 436/5/6 435/5/6 437/5/6
f 428/2/6 436/2/6 438/2/6
f 436/2/6 437/2/6 438/2/6
f 438/2/6 437/2/6 439/2/6
f 438/5/6 439/5/6 440/5/6
f 440/5/6 439/5/6 441/5/6
f 440/2/6 441/2/6 442/2/6
f 442/2/6 441/2/6 443/2/6
f 442/5/6 443/5/6 444/5/6
f 444/5/6 443/5/6 445/5/6
f 444/2/6 445/2/6 446/2/6
f 446/2/6 445/2/6 447/2/6
f 446/5/6 447/5/6 448/5/6
f 448/5/6 447/5/6 449/5/6
f 448/2/6 449/2/6 450/2/6
f 450/2/6 449/2/6 451/2/6
f 450/5/6 451/5/6 452/5/6
f 452/5/6 451/5/6 453/5/6
f 452/2/6 453/2/6 454/2/6
f 454/2/6 453/2/6 455/2/6
f 454/5/6 455/5/6 456/5/6
f 456/5/6 455/5/6 457/5/6
f 456/2/6 457/2/6 458/2/6
f 458/2/6 457/2/6 459/2/6
f 458/5/6 459/5/6 460/5/6
f 460/5/6 459/5/6 461/5/6
f 462/5/6 463/5/6 464/5/6
f 464/5/6 463/5/6 465/5/6
f 464/2/6 465/2/6 466/2/6
f 466/2/6 465/2/6 467/2/6
f 466/5/6 467/5/6 468/5/6
f 468/5/6 467/5/6 469/5/6
f 470/3/6 471/3/6 473/3/6
f 471/4/6 472/4/6 474/4/6
f 473/3/6 471/3/6 474/3/6
f 474/4/6 472/4/6 475/4/6
f 476/3/6 477/3/6 479/3/6
f 477/4/6 478/4/6 480/4/6
f 479/3/6 477/3/6 480/3/6
f 480/4/6 478/4/6 481/4/6
f 482/3/6 483/3/6 485/3/6
f 483/4/6 484/4/6 486/4/6
f 485/3/6 483/3/6 486/3/6
f 486/4/6 484/4/6 487/4/6
f 488/3/6 489/3/6 491/3/6
f 489/4/6 490/4/6 492/4/6
f 491/3/6 489/3/6 492/3/6
f 492/4/6 490/4/6 493/4/6
f 494/3/6 495/3/6 497/3/6
f 495/4/6 496/4/6 498/4/6
f 497/3/6 495/3/6 498/3/6
f 498/4/6 496/4/6 499/4/6
f 500/3/6 501/3/6 503/3/6
f 501/4/6 502/4/6 504/4/6
f 503/3/6 501/3/6 504/3/6
f 504/4/6 502/4/6 505/4/6
f 506/3/6 507/3/6 509/3/6
f 507/4/6 508/4/6 510/4/6
f 509/3/6 507/3/6 510/3/6
f 510/4/6 508/4/6 511/4/6
f 512/3/6 513/3/6 515/3/6
f 513/4/6 514/4/6 516/4/6
f 515/3/6 513/3/6 516/3/6
f 516/4/6 514/4/6 517/4/6
f 518/3/6 519/3/6 521/3/6
f 519/4/6 520/4/6 522/4/6
f 521/3/6 519/3/6 522/3/6
f 522/4/6 520/4/6 523/4/6
f 524/3/6 525/3/6 527/3/6
f 525/4/6 526/4/6 528/4/6
f 527/3/6 525/3/6 528/3/6
f 528/4/6 526/4/6 529/4/6
f 530/3/6 531/3/6 533/3/6
f 531/4/6 532/4/6 534/4/6
f 533/3/6 531/3/6 534/3/6
f 534/4/6 532/4/6 535/4/6
f 536/3/6 537/3/6 539/3/6
f 537/4/6 538/4/6 540/4/6
f 539/3/6 537/3/6 540/3/6
f 540/4/6 538/4/6 541/4/6
f 542/3/6 543/3/6 545/3/6
f 543/4/6 544/4/6 546/4/6
f 545/3/6 543/3/6 546/3/6
f 546/4/6 544/4/6 547/4/6
f 548/3/6 549/3/6 551/3/6
f 549/4/6 550/4/6 552/4/6
f 551/3/6 549/3/6 552/3/6
f 552/4/6 550/4/6 553/4/6
f 554/3/6 555/3/6 557/3/6
f 555/4/6 556/4/6 558/4/6
f 557/3/6 555/3/6 558/3/6
f 558/4/6 556/4/6 559/4/6
f 560/3/6 561/3/6 563/3/6
f 561/4/6 562/4/6 564/4/6
f 563/3/6 561/3/6 564/3/6
f 564/4/6 562/4/6 565/4/6
f 566/3/6 567/3/6 569/3/6
f 567/4/6 568/4/6 570/4/6
f 569/3/6 567/3/6 570/3/6
f 570/4/6 568/4/6 571/4/6
f 572/3/6 573/3/6 575/3/6
f 573/4/6 574/4/6 576/4/6
f 575/3/6 573/3/6 576/3/6
f 576/4/6 574/4/6 577/4/6
f 578/3/6 579/3/6 581/3/6
f 579/4/6 580/4/6 582/4/6
f 581/3/6 579/3/6 582/3/6
f 582/4/6 580/4/6 583/4/6
f 584/3/6 585/3/6 587/3/6
f 585/4/6 586/4/6 588/4/6
f 587/3/6 585/3/6 588/3/6
f 588/4/6 586/4/6 589/4/6
f 590/3/6 591/3/6 593/3/6
f 591/4/6 592/4/6 594/4/6
f 593/3/6 591/3/6 594/3/6
f 594/4/6 592/4/6 595/4/6
f 596/3/6 597/3/6 599/3/6
f 597/4/6 598/4/6 600/4/6
f 599/3/6 597/3/6 600/3/6
f 600/4/6 598/4/6 601/4/6
f 602/3/6 603/3/6 605/3/6
f 603/4/6 604/4/6 606/4/6
f 605/3/6 603/3/6 606/3/6
f 606/4/6 604/4/6 607/4/6
f 608/1/6 609/1/6 610/1/6
f 610/1/6 609/1/6 611/1/6
f 612/1/6 613/1/6 614/1/6
f 614/1/6 613/1/6 615/1/6
f 616/3/6 617/3/6 618/3/6
f 618/3/6 617/3/6 619/3/6
f 620/3/6 621/3/6 622/3/6
f 622/3/6 621/3/6 623/3/6
f 624/3/6 625/3/6 626/3/6
f 626/3/6 625/3/6 627/3/6
f 628/3/6 629/3/6 630/3/6
f 630/3/6 629/3/6 631/3/6
