# Blender v2.90.0 OBJ File: ''
# www.blender.org
mtllib testPlant.mtl
o Plane
v -1.000000 0.000000 19.640593
v 1.000000 0.000000 19.640593
v -1.000000 0.000000 17.640593
v 1.000000 0.000000 17.640593
v -2.795979 2.901021 19.223663
v -2.795979 2.901021 18.057522
v -5.587694 3.879059 19.004103
v -5.587694 3.879059 18.277082
v -6.882523 3.879059 18.804892
v -6.882523 3.879059 18.476294
v -7.374876 3.429752 18.640593
v 1.000000 0.000000 19.640593
v -1.000000 0.000000 19.640593
v 1.000000 0.000000 17.640593
v -1.000000 0.000000 17.640593
v 2.795979 2.901021 19.223663
v 2.795979 2.901021 18.057522
v 5.587694 3.879059 19.004103
v 5.587694 3.879059 18.277082
v 6.882523 3.879059 18.804892
v 6.882523 3.879059 18.476294
v 7.374876 3.429752 18.640593
vt 0.000000 0.000000
vt 1.000000 0.000000
vt 1.000000 1.000000
vt 0.000000 1.000000
vt 0.000000 1.000000
vt 0.000000 0.000000
vt 0.000000 1.000000
vt 0.000000 0.000000
vt 0.000000 1.000000
vt 0.000000 0.000000
vt 0.000000 0.000000
vt 0.000000 0.000000
vt 0.000000 1.000000
vt 1.000000 1.000000
vt 1.000000 0.000000
vt 0.000000 0.000000
vt 0.000000 1.000000
vt 0.000000 0.000000
vt 0.000000 1.000000
vt 0.000000 0.000000
vt 0.000000 1.000000
vt 0.000000 0.000000
vn 0.0000 1.0000 0.0000
vn 0.8503 0.5264 0.0000
vn 0.3306 0.9438 0.0000
vn -0.6741 0.7387 0.0000
vn -0.8503 0.5264 0.0000
vn -0.3306 0.9438 0.0000
vn 0.6741 0.7387 0.0000
usemtl Material.002
s off
f 1/1/1 2/2/1 4/3/1 3/4/1
f 1/1/2 3/4/2 6/5/2 5/6/2
f 5/6/3 6/5/3 8/7/3 7/8/3
f 7/8/1 8/7/1 10/9/1 9/10/1
f 9/10/4 10/9/4 11/11/4
f 12/12/1 14/13/1 15/14/1 13/15/1
f 12/12/5 16/16/5 17/17/5 14/13/5
f 16/16/6 18/18/6 19/19/6 17/17/6
f 18/18/1 20/20/1 21/21/1 19/19/1
f 20/20/7 22/22/7 21/21/7
o Plane.001
v 1.000000 0.000000 19.640593
v 1.000000 0.000000 17.640593
v -1.000000 0.000000 19.640593
v -1.000000 0.000000 17.640593
v 0.583071 2.901021 21.436573
v -0.583072 2.901021 21.436573
v 0.363509 3.879059 24.228287
v -0.363510 3.879059 24.228287
v 0.164299 3.879059 25.523115
v -0.164300 3.879059 25.523115
v -0.000001 3.429752 26.015469
v 1.000000 0.000000 17.640593
v 1.000000 0.000000 19.640593
v -1.000000 0.000000 17.640593
v -1.000000 0.000000 19.640593
v 0.583072 2.901021 15.844613
v -0.583071 2.901021 15.844613
v 0.363510 3.879059 13.052898
v -0.363509 3.879059 13.052898
v 0.164300 3.879059 11.758070
v -0.164299 3.879059 11.758070
v 0.000001 3.429752 11.265717
vt 0.000000 0.000000
vt 1.000000 0.000000
vt 1.000000 1.000000
vt 0.000000 1.000000
vt 0.000000 1.000000
vt 0.000000 0.000000
vt 0.000000 1.000000
vt 0.000000 0.000000
vt 0.000000 1.000000
vt 0.000000 0.000000
vt 0.000000 0.000000
vt 0.000000 0.000000
vt 0.000000 1.000000
vt 1.000000 1.000000
vt 1.000000 0.000000
vt 0.000000 0.000000
vt 0.000000 1.000000
vt 0.000000 0.000000
vt 0.000000 1.000000
vt 0.000000 0.000000
vt 0.000000 1.000000
vt 0.000000 0.000000
vn 0.0000 1.0000 0.0000
vn 0.0000 0.5264 -0.8503
vn 0.0000 0.9438 -0.3306
vn 0.0000 0.7387 0.6741
vn 0.0000 0.5264 0.8503
vn 0.0000 0.9438 0.3306
vn 0.0000 0.7387 -0.6741
usemtl Material.002
s off
f 23/23/8 24/24/8 26/25/8 25/26/8
f 23/23/9 25/26/9 28/27/9 27/28/9
f 27/28/10 28/27/10 30/29/10 29/30/10
f 29/30/8 30/29/8 32/31/8 31/32/8
f 31/32/11 32/31/11 33/33/11
f 34/34/8 36/35/8 37/36/8 35/37/8
f 34/34/12 38/38/12 39/39/12 36/35/12
f 38/38/13 40/40/13 41/41/13 39/39/13
f 40/40/8 42/42/8 43/43/8 41/41/8
f 42/42/14 44/44/14 43/43/14
o Plane.003
v -0.878235 0.000000 18.640593
v 0.000000 0.000000 19.518827
v -0.000000 0.000000 17.762358
v 0.878235 0.000000 18.640593
v -1.483801 5.660171 17.668865
v -0.971727 5.660171 17.156792
v -2.613278 7.568418 16.346561
v -2.294031 7.568418 16.027315
v -3.094383 7.568418 15.690503
v -2.950090 7.568418 15.546209
v -3.238438 6.691776 15.402155
v 0.000000 0.000000 19.518827
v -0.878235 0.000000 18.640593
v 0.878235 0.000000 18.640593
v -0.000000 0.000000 17.762358
v 0.971727 5.660171 20.124393
v 1.483801 5.660171 19.612320
v 2.294031 7.568418 21.253870
v 2.613278 7.568418 20.934624
v 2.950090 7.568418 21.734976
v 3.094383 7.568418 21.590683
v 3.238438 6.691776 21.879030
vt 0.000000 0.000000
vt 1.000000 0.000000
vt 1.000000 1.000000
vt 0.000000 1.000000
vt 0.000000 1.000000
vt 0.000000 0.000000
vt 0.000000 1.000000
vt 0.000000 0.000000
vt 0.000000 1.000000
vt 0.000000 0.000000
vt 0.000000 0.000000
vt 0.000000 0.000000
vt 0.000000 1.000000
vt 1.000000 1.000000
vt 1.000000 0.000000
vt 0.000000 0.000000
vt 0.000000 1.000000
vt 0.000000 0.000000
vt 0.000000 1.000000
vt 0.000000 0.000000
vt 0.000000 1.000000
vt 0.000000 0.000000
vn 0.0000 1.0000 0.0000
vn 0.6938 0.1933 0.6938
vn 0.5234 0.6724 0.5234
vn -0.6677 0.3293 -0.6677
vn -0.6938 0.1933 -0.6938
vn -0.5234 0.6724 -0.5234
vn 0.6677 0.3293 0.6677
usemtl Material.002
s off
f 45/45/15 46/46/15 48/47/15 47/48/15
f 45/45/16 47/48/16 50/49/16 49/50/16
f 49/50/17 50/49/17 52/51/17 51/52/17
f 51/52/15 52/51/15 54/53/15 53/54/15
f 53/54/18 54/53/18 55/55/18
f 56/56/15 58/57/15 59/58/15 57/59/15
f 56/56/19 60/60/19 61/61/19 58/57/19
f 60/60/20 62/62/20 63/63/20 61/61/20
f 62/62/15 64/64/15 65/65/15 63/63/15
f 64/64/21 66/66/21 65/65/21
o Plane.002
v -0.000000 0.000000 19.518827
v 0.878235 0.000000 18.640593
v -0.878235 0.000000 18.640593
v 0.000000 0.000000 17.762358
v -0.971727 5.660171 20.124393
v -1.483801 5.660171 19.612320
v -2.294031 7.568418 21.253870
v -2.613278 7.568418 20.934624
v -2.950090 7.568418 21.734976
v -3.094383 7.568418 21.590683
v -3.238438 6.691776 21.879030
v 0.878235 0.000000 18.640593
v -0.000000 0.000000 19.518827
v 0.000000 0.000000 17.762358
v -0.878235 0.000000 18.640593
v 1.483801 5.660171 17.668865
v 0.971727 5.660171 17.156792
v 2.613278 7.568418 16.346561
v 2.294031 7.568418 16.027315
v 3.094383 7.568418 15.690503
v 2.950090 7.568418 15.546209
v 3.238438 6.691776 15.402155
vt 0.000000 0.000000
vt 1.000000 0.000000
vt 1.000000 1.000000
vt 0.000000 1.000000
vt 0.000000 1.000000
vt 0.000000 0.000000
vt 0.000000 1.000000
vt 0.000000 0.000000
vt 0.000000 1.000000
vt 0.000000 0.000000
vt 0.000000 0.000000
vt 0.000000 0.000000
vt 0.000000 1.000000
vt 1.000000 1.000000
vt 1.000000 0.000000
vt 0.000000 0.000000
vt 0.000000 1.000000
vt 0.000000 0.000000
vt 0.000000 1.000000
vt 0.000000 0.000000
vt 0.000000 1.000000
vt 0.000000 0.000000
vn 0.0000 1.0000 0.0000
vn 0.6938 0.1933 -0.6938
vn 0.5234 0.6724 -0.5234
vn -0.6677 0.3293 0.6677
vn -0.6938 0.1933 0.6938
vn -0.5234 0.6724 0.5234
vn 0.6677 0.3293 -0.6677
usemtl Material.002
s off
f 67/67/22 68/68/22 70/69/22 69/70/22
f 67/67/23 69/70/23 72/71/23 71/72/23
f 71/72/24 72/71/24 74/73/24 73/74/24
f 73/74/22 74/73/22 76/75/22 75/76/22
f 75/76/25 76/75/25 77/77/25
f 78/78/22 80/79/22 81/80/22 79/81/22
f 78/78/26 82/82/26 83/83/26 80/79/26
f 82/82/27 84/84/27 85/85/27 83/83/27
f 84/84/22 86/86/22 87/87/22 85/85/22
f 86/86/28 88/88/28 87/87/28
o Cube_Cube.001
v -0.160000 0.012714 18.800592
v -0.160000 3.987286 18.800592
v -0.160000 0.012714 18.480593
v -0.160000 3.987286 18.480593
v 0.160000 0.012714 18.800592
v 0.160000 3.987286 18.800592
v 0.160000 0.012714 18.480593
v 0.160000 3.987286 18.480593
vt 0.375000 0.000000
vt 0.625000 0.000000
vt 0.625000 0.250000
vt 0.375000 0.250000
vt 0.625000 0.500000
vt 0.375000 0.500000
vt 0.625000 0.750000
vt 0.375000 0.750000
vt 0.625000 1.000000
vt 0.375000 1.000000
vt 0.125000 0.500000
vt 0.125000 0.750000
vt 0.875000 0.500000
vt 0.875000 0.750000
vn -1.0000 0.0000 0.0000
vn 0.0000 0.0000 -1.0000
vn 1.0000 0.0000 0.0000
vn 0.0000 0.0000 1.0000
vn 0.0000 -1.0000 0.0000
vn 0.0000 1.0000 0.0000
usemtl Material.001
s off
f 89/89/29 90/90/29 92/91/29 91/92/29
f 91/92/30 92/91/30 96/93/30 95/94/30
f 95/94/31 96/93/31 94/95/31 93/96/31
f 93/96/32 94/95/32 90/97/32 89/98/32
f 91/99/33 95/94/33 93/96/33 89/100/33
f 96/93/34 92/101/34 90/102/34 94/95/34
o Icosphere_Icosphere.001
v 0.000000 3.000000 18.640593
v 0.723600 3.552785 19.166313
v -0.276385 3.552785 19.491232
v -0.894425 3.552785 18.640593
v -0.276385 3.552785 17.789953
v 0.723600 3.552785 18.114872
v 0.276385 4.447215 19.491232
v -0.723600 4.447215 19.166313
v -0.723600 4.447215 18.114872
v 0.276385 4.447215 17.789953
v 0.894425 4.447215 18.640593
v 0.000000 5.000000 18.640593
vt 0.818181 0.000000
vt 0.727272 0.157461
vt 0.909090 0.157461
vt 0.636363 0.000000
vt 0.545454 0.157461
vt 0.090909 0.000000
vt 0.000000 0.157461
vt 0.181818 0.157461
vt 0.272727 0.000000
vt 0.363636 0.157461
vt 0.454545 0.000000
vt 0.636363 0.314921
vt 0.818181 0.314921
vt 0.090909 0.314921
vt 0.272727 0.314921
vt 0.454545 0.314921
vt 1.000000 0.314921
vt 0.727272 0.472382
vt 0.909090 0.472382
vt 0.181818 0.472382
vt 0.363636 0.472382
vt 0.545454 0.472382
vn 0.1876 -0.7947 0.5774
vn 0.6071 -0.7947 0.0000
vn -0.4911 -0.7947 0.3568
vn -0.4911 -0.7947 -0.3568
vn 0.1876 -0.7947 -0.5774
vn 0.9822 -0.1876 0.0000
vn 0.3035 -0.1876 0.9342
vn -0.7946 -0.1876 0.5774
vn -0.7946 -0.1876 -0.5774
vn 0.3035 -0.1876 -0.9342
vn 0.7946 0.1876 0.5774
vn -0.3035 0.1876 0.9342
vn -0.9822 0.1876 0.0000
vn -0.3035 0.1876 -0.9342
vn 0.7946 0.1876 -0.5774
vn 0.4911 0.7947 0.3568
vn -0.1876 0.7947 0.5774
vn -0.6071 0.7947 0.0000
vn -0.1876 0.7947 -0.5774
vn 0.4911 0.7947 -0.3568
usemtl Material
s off
f 97/103/35 98/104/35 99/105/35
f 98/104/36 97/106/36 102/107/36
f 97/108/37 99/109/37 100/110/37
f 97/111/38 100/110/38 101/112/38
f 97/113/39 101/112/39 102/107/39
f 98/104/40 102/107/40 107/114/40
f 99/105/41 98/104/41 103/115/41
f 100/110/42 99/109/42 104/116/42
f 101/112/43 100/110/43 105/117/43
f 102/107/44 101/112/44 106/118/44
f 98/104/45 107/114/45 103/115/45
f 99/105/46 103/115/46 104/119/46
f 100/110/47 104/116/47 105/117/47
f 101/112/48 105/117/48 106/118/48
f 102/107/49 106/118/49 107/114/49
f 103/115/50 107/114/50 108/120/50
f 104/119/51 103/115/51 108/121/51
f 105/117/52 104/116/52 108/122/52
f 106/118/53 105/117/53 108/123/53
f 107/114/54 106/118/54 108/124/54
