# MagicaVoxel @ Ephtracy

# group
o 

# material
mtllib concrete2grassCornerInner-0.mtl
usemtl palette

# normals
vn -1 0 0
vn 1 0 0
vn 0 0 1
vn 0 0 -1
vn 0 -1 0
vn 0 1 0

# texcoords
vt 0.591797 0.5
vt 0.951172 0.5
vt 0.990234 0.5

# verts
v -2.4 -2.4 2.4
v -2.4 -2.4 0.4
v -2.4 -2.4 -2.4
v -2.4 2.3 1
v -2.4 2.3 0.6
v -2.4 2.3 0.5
v -2.4 2.3 0.4
v -2.4 2.4 2.4
v -2.4 2.4 1
v -2.4 2.4 0.6
v -2.4 2.4 0.5
v -2.4 2.4 0.4
v -2.4 2.4 -2.4
v 2.4 -2.4 2.4
v 2.4 -2.4 -2.4
v 2.4 2.4 2.4
v 2.4 2.4 -2.4
v -2.4 -2.4 2.4
v -2.4 2.4 2.4
v 2.4 -2.4 2.4
v 2.4 2.4 2.4
v -2.4 -2.4 -2.4
v -2.4 2.4 -2.4
v 0.4 -2.4 -2.4
v 0.4 2.3 -2.4
v 0.4 2.4 -2.4
v 0.5 2.3 -2.4
v 0.5 2.4 -2.4
v 2.4 -2.4 -2.4
v 2.4 2.4 -2.4
v -2.4 -2.4 2.4
v 2.4 -2.4 2.4
v -2.4 -2.4 0.4
v 0.4 -2.4 0.4
v -2.4 -2.4 -2.4
v 0.4 -2.4 -2.4
v 2.4 -2.4 -2.4
v -2.4 2.4 2.4
v 2.4 2.4 2.4
v -2.4 2.4 1
v -2 2.4 1
v -2.3 2.4 0.9
v -2.1 2.4 0.9
v -2.3 2.4 0.7
v -2.1 2.4 0.7
v -0.7 2.4 0.7
v -0.0999999 2.4 0.7
v -2.4 2.4 0.6
v -2 2.4 0.6
v -0.6 2.4 0.6
v -0.2 2.4 0.6
v -2.4 2.4 0.5
v -2.1 2.4 0.5
v -1.9 2.4 0.5
v -0.8 2.4 0.5
v -2.4 2.4 0.4
v -2.2 2.4 0.4
v -1.8 2.4 0.4
v -1.2 2.4 0.4
v -1.1 2.4 0.4
v -0.9 2.4 0.4
v -2.1 2.4 0.3
v -1.9 2.4 0.3
v -1.6 2.4 0.3
v -1.4 2.4 0.3
v -2.2 2.4 0.2
v -1.8 2.4 0.2
v -1.1 2.4 0.2
v -0.9 2.4 0.2
v -0.8 2.4 0.2
v -0.7 2.4 0.2
v -0.6 2.4 0.2
v -0.2 2.4 0.2
v -1.6 2.4 0.0999999
v -1.4 2.4 0.0999999
v -1.2 2.4 0.0999999
v -0.6 2.4 0.0999999
v -0.5 2.4 0.0999999
v -0.0999999 2.4 0.0999999
v -0.5 2.4 0
v -0.3 2.4 0
v -0.6 2.4 -0.1
v -0.4 2.4 -0.1
v -0.8 2.4 -0.2
v -0.6 2.4 -0.2
v -0.3 2.4 -0.3
v 0.3 2.4 -0.3
v -0.8 2.4 -0.4
v -0.6 2.4 -0.4
v -0.4 2.4 -0.4
v 0.2 2.4 -0.4
v -0.4 2.4 -0.5
v 0 2.4 -0.5
v -0.3 2.4 -0.6
v -0.0999999 2.4 -0.6
v 0.3 2.4 -0.7
v 0.6 2.4 -0.7
v -0.3 2.4 -0.8
v -0.0999999 2.4 -0.8
v 0.3 2.4 -0.8
v 0.5 2.4 -0.8
v -0.4 2.4 -0.9
v 0 2.4 -0.9
v 0.3 2.4 -1
v 0.5 2.4 -1
v 0.5 2.4 -1.1
v 0.6 2.4 -1.1
v 0.2 2.4 -1.2
v 0.4 2.4 -1.2
v 0.5 2.4 -1.2
v 1.1 2.4 -1.2
v 0.6 2.4 -1.3
v 1 2.4 -1.3
v 0.1 2.4 -1.4
v 0.3 2.4 -1.4
v 0.1 2.4 -1.6
v 0.3 2.4 -1.6
v 0.6 2.4 -1.7
v 1 2.4 -1.7
v 0.5 2.4 -1.8
v 1.1 2.4 -1.8
v 0.2 2.4 -1.9
v 0.4 2.4 -1.9
v 0.5 2.4 -1.9
v 0.9 2.4 -1.9
v 0.6 2.4 -2
v 0.8 2.4 -2
v 0.2 2.4 -2.1
v 0.4 2.4 -2.1
v 0.6 2.4 -2.2
v 0.8 2.4 -2.2
v 0.5 2.4 -2.3
v 0.9 2.4 -2.3
v -2.4 2.4 -2.4
v 0.4 2.4 -2.4
v 0.5 2.4 -2.4
v 2.4 2.4 -2.4

# faces
f 4/2/1 2/2/1 1/2/1
f 5/2/1 2/2/1 4/2/1
f 6/2/1 2/2/1 5/2/1
f 7/1/1 3/1/1 2/1/1
f 7/2/1 2/2/1 6/2/1
f 8/2/1 4/2/1 1/2/1
f 9/3/1 5/3/1 4/3/1
f 9/2/1 4/2/1 8/2/1
f 10/2/1 6/2/1 5/2/1
f 10/3/1 5/3/1 9/3/1
f 11/3/1 7/3/1 6/3/1
f 11/2/1 6/2/1 10/2/1
f 12/1/1 3/1/1 7/1/1
f 12/3/1 7/3/1 11/3/1
f 13/1/1 3/1/1 12/1/1
f 14/2/2 15/2/2 16/2/2
f 16/2/2 15/2/2 17/2/2
f 20/2/3 19/2/3 18/2/3
f 21/2/3 19/2/3 20/2/3
f 22/1/4 23/1/4 24/1/4
f 24/1/4 23/1/4 25/1/4
f 25/1/4 23/1/4 26/1/4
f 24/2/4 25/2/4 27/2/4
f 25/3/4 26/3/4 27/3/4
f 27/3/4 26/3/4 28/3/4
f 24/2/4 27/2/4 29/2/4
f 27/2/4 28/2/4 29/2/4
f 29/2/4 28/2/4 30/2/4
f 33/2/5 32/2/5 31/2/5
f 34/2/5 32/2/5 33/2/5
f 35/1/5 34/1/5 33/1/5
f 36/2/5 32/2/5 34/2/5
f 36/1/5 34/1/5 35/1/5
f 37/2/5 32/2/5 36/2/5
f 38/2/6 39/2/6 40/2/6
f 40/2/6 39/2/6 41/2/6
f 40/3/6 41/3/6 42/3/6
f 42/3/6 41/3/6 43/3/6
f 40/3/6 42/3/6 44/3/6
f 42/1/6 43/1/6 44/1/6
f 43/3/6 41/3/6 45/3/6
f 44/1/6 43/1/6 45/1/6
f 41/2/6 39/2/6 46/2/6
f 46/2/6 39/2/6 47/2/6
f 40/3/6 44/3/6 48/3/6
f 44/3/6 45/3/6 48/3/6
f 45/3/6 41/3/6 49/3/6
f 48/3/6 45/3/6 49/3/6
f 41/2/6 46/2/6 49/2/6
f 46/3/6 47/3/6 50/3/6
f 50/3/6 47/3/6 51/3/6
f 48/2/6 49/2/6 52/2/6
f 52/2/6 49/2/6 53/2/6
f 49/2/6 46/2/6 54/2/6
f 53/2/6 49/2/6 54/2/6
f 54/2/6 46/2/6 55/2/6
f 52/3/6 53/3/6 56/3/6
f 56/3/6 53/3/6 57/3/6
f 54/3/6 55/3/6 58/3/6
f 58/3/6 55/3/6 59/3/6
f 59/3/6 55/3/6 60/3/6
f 60/3/6 55/3/6 61/3/6
f 53/2/6 54/2/6 62/2/6
f 57/3/6 53/3/6 62/3/6
f 54/3/6 58/3/6 63/3/6
f 62/2/6 54/2/6 63/2/6
f 58/1/6 59/1/6 64/1/6
f 64/1/6 59/1/6 65/1/6
f 56/1/6 57/1/6 66/1/6
f 57/3/6 62/3/6 66/3/6
f 62/3/6 63/3/6 66/3/6
f 63/3/6 58/3/6 67/3/6
f 66/3/6 63/3/6 67/3/6
f 58/1/6 64/1/6 67/1/6
f 60/1/6 61/1/6 68/1/6
f 59/3/6 60/3/6 68/3/6
f 61/3/6 55/3/6 69/3/6
f 68/1/6 61/1/6 69/1/6
f 55/2/6 46/2/6 70/2/6
f 69/3/6 55/3/6 70/3/6
f 46/3/6 50/3/6 71/3/6
f 70/2/6 46/2/6 71/2/6
f 50/1/6 51/1/6 72/1/6
f 71/3/6 50/3/6 72/3/6
f 51/3/6 47/3/6 73/3/6
f 72/1/6 51/1/6 73/1/6
f 67/1/6 64/1/6 74/1/6
f 64/3/6 65/3/6 74/3/6
f 66/1/6 67/1/6 74/1/6
f 65/1/6 59/1/6 75/1/6
f 74/3/6 65/3/6 75/3/6
f 68/3/6 69/3/6 76/3/6
f 75/1/6 59/1/6 76/1/6
f 71/3/6 72/3/6 76/3/6
f 69/3/6 70/3/6 76/3/6
f 72/3/6 73/3/6 76/3/6
f 70/3/6 71/3/6 76/3/6
f 59/3/6 68/3/6 76/3/6
f 76/3/6 73/3/6 77/3/6
f 77/3/6 73/3/6 78/3/6
f 47/2/6 39/2/6 79/2/6
f 78/3/6 73/3/6 79/3/6
f 73/3/6 47/3/6 79/3/6
f 77/3/6 78/3/6 80/3/6
f 78/2/6 79/2/6 80/2/6
f 80/2/6 79/2/6 81/2/6
f 74/1/6 75/1/6 82/1/6
f 76/1/6 77/1/6 82/1/6
f 80/3/6 81/3/6 82/3/6
f 77/3/6 80/3/6 82/3/6
f 75/1/6 76/1/6 82/1/6
f 82/3/6 81/3/6 83/3/6
f 74/1/6 82/1/6 84/1/6
f 82/1/6 83/1/6 84/1/6
f 84/1/6 83/1/6 85/1/6
f 81/2/6 79/2/6 86/2/6
f 83/3/6 81/3/6 86/3/6
f 79/2/6 39/2/6 87/2/6
f 86/2/6 79/2/6 87/2/6
f 84/3/6 85/3/6 88/3/6
f 74/1/6 84/1/6 88/1/6
f 85/1/6 83/1/6 89/1/6
f 88/3/6 85/3/6 89/3/6
f 83/3/6 86/3/6 90/3/6
f 89/1/6 83/1/6 90/1/6
f 86/3/6 87/3/6 90/3/6
f 90/3/6 87/3/6 91/3/6
f 88/1/6 89/1/6 92/1/6
f 89/1/6 90/1/6 92/1/6
f 90/1/6 91/1/6 92/1/6
f 92/1/6 91/1/6 93/1/6
f 92/3/6 93/3/6 94/3/6
f 94/3/6 93/3/6 95/3/6
f 91/3/6 87/3/6 96/3/6
f 87/2/6 39/2/6 96/2/6
f 96/2/6 39/2/6 97/2/6
f 94/2/6 95/2/6 98/2/6
f 92/3/6 94/3/6 98/3/6
f 95/3/6 93/3/6 99/3/6
f 98/2/6 95/2/6 99/2/6
f 96/3/6 97/3/6 100/3/6
f 91/3/6 96/3/6 100/3/6
f 100/3/6 97/3/6 101/3/6
f 92/3/6 98/3/6 102/3/6
f 88/1/6 92/1/6 102/1/6
f 98/3/6 99/3/6 102/3/6
f 93/1/6 91/1/6 103/1/6
f 102/3/6 99/3/6 103/3/6
f 99/3/6 93/3/6 103/3/6
f 100/1/6 101/1/6 104/1/6
f 91/3/6 100/3/6 104/3/6
f 101/3/6 97/3/6 105/3/6
f 104/1/6 101/1/6 105/1/6
f 104/3/6 105/3/6 106/3/6
f 105/3/6 97/3/6 106/3/6
f 97/2/6 39/2/6 107/2/6
f 106/3/6 97/3/6 107/3/6
f 91/3/6 104/3/6 108/3/6
f 104/3/6 106/3/6 108/3/6
f 103/1/6 91/1/6 108/1/6
f 102/1/6 103/1/6 108/1/6
f 108/3/6 106/3/6 109/3/6
f 106/2/6 107/2/6 110/2/6
f 109/3/6 106/3/6 110/3/6
f 107/2/6 39/2/6 111/2/6
f 110/2/6 107/2/6 111/2/6
f 109/3/6 110/3/6 112/3/6
f 110/3/6 111/3/6 112/3/6
f 112/3/6 111/3/6 113/3/6
f 108/1/6 109/1/6 114/1/6
f 102/1/6 108/1/6 114/1/6
f 114/1/6 109/1/6 115/1/6
f 102/1/6 114/1/6 116/1/6
f 114/3/6 115/3/6 116/3/6
f 115/1/6 109/1/6 117/1/6
f 116/3/6 115/3/6 117/3/6
f 112/1/6 113/1/6 118/1/6
f 109/3/6 112/3/6 118/3/6
f 113/3/6 111/3/6 119/3/6
f 118/1/6 113/1/6 119/1/6
f 109/3/6 118/3/6 120/3/6
f 118/3/6 119/3/6 120/3/6
f 111/2/6 39/2/6 121/2/6
f 120/3/6 119/3/6 121/3/6
f 119/3/6 111/3/6 121/3/6
f 116/1/6 117/1/6 122/1/6
f 109/3/6 120/3/6 123/3/6
f 122/1/6 117/1/6 123/1/6
f 117/1/6 109/1/6 123/1/6
f 120/2/6 121/2/6 124/2/6
f 123/3/6 120/3/6 124/3/6
f 124/2/6 121/2/6 125/2/6
f 122/3/6 123/3/6 126/3/6
f 123/3/6 124/3/6 126/3/6
f 124/3/6 125/3/6 126/3/6
f 126/3/6 125/3/6 127/3/6
f 116/1/6 122/1/6 128/1/6
f 122/3/6 126/3/6 128/3/6
f 128/3/6 126/3/6 129/3/6
f 126/1/6 127/1/6 130/1/6
f 129/3/6 126/3/6 130/3/6
f 127/3/6 125/3/6 131/3/6
f 130/1/6 127/1/6 131/1/6
f 129/3/6 130/3/6 132/3/6
f 130/3/6 131/3/6 132/3/6
f 131/3/6 125/3/6 133/3/6
f 132/3/6 131/3/6 133/3/6
f 125/2/6 121/2/6 133/2/6
f 74/1/6 88/1/6 134/1/6
f 56/1/6 66/1/6 134/1/6
f 66/1/6 74/1/6 134/1/6
f 128/1/6 129/1/6 134/1/6
f 102/1/6 116/1/6 134/1/6
f 116/1/6 128/1/6 134/1/6
f 88/1/6 102/1/6 134/1/6
f 129/3/6 132/3/6 135/3/6
f 134/1/6 129/1/6 135/1/6
f 132/2/6 133/2/6 136/2/6
f 135/3/6 132/3/6 136/3/6
f 133/2/6 121/2/6 137/2/6
f 136/2/6 133/2/6 137/2/6
f 121/2/6 39/2/6 137/2/6
