# MagicaVoxel @ Ephtracy

# group
o 

# material
mtllib grass2riverStraight-0.mtl
usemtl palette

# normals
vn -1 0 0
vn 1 0 0
vn 0 0 1
vn 0 0 -1
vn 0 -1 0
vn 0 1 0

# texcoords
vt 0.435547 0.5
vt 0.447266 0.5
vt 0.591797 0.5
vt 0.650391 0.5

# verts
v -2.4 -2.4 2.4
v -2.4 -2.4 0.4
v -2.4 -2.4 -1.6
v -2.4 -2.4 -2.4
v -2.4 1.8 -1.6
v -2.4 1.8 -2.4
v -2.4 2 0.5
v -2.4 2 0.4
v -2.4 2 -1.6
v -2.4 2.3 1
v -2.4 2.3 0.6
v -2.4 2.4 2.4
v -2.4 2.4 1
v -2.4 2.4 0.6
v -2.4 2.4 0.5
v -2.4 2.4 0.4
v -2.1 2 -0.6
v -2.1 2 -1
v -2.1 2.1 -0.6
v -2.1 2.1 -1
v -1.8 2 0.4
v -1.8 2 0.0999999
v -1.8 2.4 0.4
v -1.8 2.4 0.0999999
v -1.5 1.8 -1.3
v -1.5 1.8 -1.6
v -1.5 2 -1.3
v -1.5 2 -1.6
v -1 2 0.2
v -1 2 0
v -1 2.4 0.2
v -1 2.4 0
v -0.9 1.9 -1
v -0.9 1.9 -1.4
v -0.9 2 -1
v -0.9 2 -1.4
v -0.7 2 0.4
v -0.7 2 -0.1
v -0.7 2.4 0.4
v -0.7 2.4 -0.1
v -0.6 1.9 -1
v -0.6 1.9 -1.2
v -0.6 2 -1
v -0.6 2 -1.2
v -0.3 2 -0.2
v -0.3 2 -0.4
v -0.3 2.1 -0.2
v -0.3 2.1 -0.4
v -0.2 1.8 -1.5
v -0.2 1.8 -1.7
v -0.2 2 -1.5
v -0.2 2 -1.7
v 0.3 1.8 -1.1
v 0.3 1.8 -1.3
v 0.3 2 -0.1
v 0.3 2 -0.3
v 0.3 2 -1.1
v 0.3 2 -1.3
v 0.3 2.4 -0.1
v 0.3 2.4 -0.3
v 0.7 1.8 -1
v 0.7 1.8 -1.6
v 0.7 2 -1
v 0.7 2 -1.6
v 0.9 2 0.4
v 0.9 2 0.3
v 0.9 2.4 0.4
v 0.9 2.4 0.3
v 1 2 -0.9
v 1 2 -1.1
v 1 2.1 -0.9
v 1 2.1 -1.1
v 1.1 2 -0.1
v 1.1 2 -0.5
v 1.1 2.4 -0.1
v 1.1 2.4 -0.5
v 1.2 2 0.3
v 1.2 2 0.0999999
v 1.2 2.4 0.3
v 1.2 2.4 0.0999999
v 1.9 1.8 -1.3
v 1.9 1.8 -1.6
v 1.9 2 -1.3
v 1.9 2 -1.6
v 2.1 2 0.2
v 2.1 2 0
v 2.1 2.4 0.2
v 2.1 2.4 0
v 2.3 1.9 -1.1
v 2.3 1.9 -1.3
v 2.3 2 -1.1
v 2.3 2 -1.3
v -2.1 1.8 -1.4
v -2.1 1.8 -1.6
v -2.1 2 -1.4
v -2.1 2 -1.6
v -1.9 1.8 -1.3
v -1.9 1.8 -1.4
v -1.9 2 -1.3
v -1.9 2 -1.4
v -1.7 2 -0.6
v -1.7 2 -1
v -1.7 2.1 -0.6
v -1.7 2.1 -1
v -1.4 2 0.2
v -1.4 2 0.0999999
v -1.4 2.4 0.2
v -1.4 2.4 0.0999999
v -1.3 1.9 -1
v -1.3 1.9 -1.4
v -1.3 2 -1
v -1.3 2 -1.4
v -1.1 2 0.4
v -1.1 2 0.2
v -1.1 2.4 0.4
v -1.1 2.4 0.2
v -0.8 1.9 -1
v -0.8 1.9 -1.2
v -0.8 2 0.2
v -0.8 2 0
v -0.8 2 -1
v -0.8 2 -1.2
v -0.8 2.4 0.2
v -0.8 2.4 0
v -0.6 1.8 -1.3
v -0.6 1.8 -1.6
v -0.6 2 -1.3
v -0.6 2 -1.6
v -0.0999999 1.8 -1
v -0.0999999 1.8 -1.3
v -0.0999999 2 -0.2
v -0.0999999 2 -0.4
v -0.0999999 2 -1
v -0.0999999 2 -1.3
v -0.0999999 2.1 -0.2
v -0.0999999 2.1 -0.4
v 0 1.8 -1.5
v 0 1.8 -1.7
v 0 2 -1.5
v 0 2 -1.7
v 0.1 2 0.0999999
v 0.1 2 -0.1
v 0.1 2.4 0.0999999
v 0.1 2.4 -0.1
v 0.5 1.8 -1.1
v 0.5 1.8 -1.3
v 0.5 2 0.4
v 0.5 2 0.0999999
v 0.5 2 -0.1
v 0.5 2 -0.3
v 0.5 2 -1.1
v 0.5 2 -1.3
v 0.5 2.4 0.4
v 0.5 2.4 0.0999999
v 0.5 2.4 -0.1
v 0.5 2.4 -0.3
v 1.2 2 -0.9
v 1.2 2 -1.1
v 1.2 2.1 -0.9
v 1.2 2.1 -1.1
v 1.3 1.8 -1.4
v 1.3 1.8 -1.6
v 1.3 2 -1.4
v 1.3 2 -1.6
v 1.5 1.8 -1.3
v 1.5 1.8 -1.4
v 1.5 2 -0.1
v 1.5 2 -0.5
v 1.5 2 -1.3
v 1.5 2 -1.4
v 1.5 2.4 -0.1
v 1.5 2.4 -0.5
v 2 2 0.4
v 2 2 0.0999999
v 2 2.3 0.4
v 2 2.4 0.4
v 2 2.4 0.0999999
v 2.1 1.9 -1.1
v 2.1 1.9 -1.3
v 2.1 2 -1.1
v 2.1 2 -1.3
v 2.3 2 0.2
v 2.3 2 0
v 2.3 2.4 0.2
v 2.3 2.4 0
v 2.4 -2.4 2.4
v 2.4 -2.4 0.4
v 2.4 -2.4 -1.6
v 2.4 -2.4 -2.4
v 2.4 1.8 -1.6
v 2.4 1.8 -2.4
v 2.4 2 0.4
v 2.4 2 -1.6
v 2.4 2.3 0.5
v 2.4 2.3 0.4
v 2.4 2.4 2.4
v 2.4 2.4 0.5
v 2.4 2.4 0.4
v -2.4 -2.4 2.4
v -2.4 2.4 2.4
v 2.4 -2.4 2.4
v 2.4 2.4 2.4
v -1 2 0.2
v -1 2.4 0.2
v -0.8 2 0.2
v -0.8 2.4 0.2
v 2.1 2 0.2
v 2.1 2.4 0.2
v 2.3 2 0.2
v 2.3 2.4 0.2
v 0.3 2 -0.1
v 0.3 2.4 -0.1
v 0.5 2 -0.1
v 0.5 2.4 -0.1
v 1.1 2 -0.1
v 1.1 2.4 -0.1
v 1.5 2 -0.1
v 1.5 2.4 -0.1
v -0.3 2 -0.2
v -0.3 2.1 -0.2
v -0.0999999 2 -0.2
v -0.0999999 2.1 -0.2
v -2.1 2 -0.6
v -2.1 2.1 -0.6
v -1.7 2 -0.6
v -1.7 2.1 -0.6
v 1 2 -0.9
v 1 2.1 -0.9
v 1.2 2 -0.9
v 1.2 2.1 -0.9
v 0.3 1.8 -1.1
v 0.3 2 -1.1
v 0.5 1.8 -1.1
v 0.5 2 -1.1
v -0.8 1.9 -1.2
v -0.8 2 -1.2
v -0.6 1.9 -1.2
v -0.6 2 -1.2
v 2.1 1.9 -1.3
v 2.1 2 -1.3
v 2.3 1.9 -1.3
v 2.3 2 -1.3
v -1.3 1.9 -1.4
v -1.3 2 -1.4
v -0.9 1.9 -1.4
v -0.9 2 -1.4
v -0.2 1.8 -1.5
v -0.2 2 -1.5
v 0 1.8 -1.5
v 0 2 -1.5
v -2.4 2 0.4
v -2.4 2.4 0.4
v -1.8 2 0.4
v -1.8 2.4 0.4
v -1.1 2 0.4
v -1.1 2.4 0.4
v -0.7 2 0.4
v -0.7 2.4 0.4
v 0.5 2 0.4
v 0.5 2.4 0.4
v 0.9 2 0.4
v 0.9 2.4 0.4
v 2 2 0.4
v 2 2.3 0.4
v 2 2.4 0.4
v 2.4 2 0.4
v 2.4 2.3 0.4
v 2.4 2.4 0.4
v 0.9 2 0.3
v 0.9 2.4 0.3
v 1.2 2 0.3
v 1.2 2.4 0.3
v -1.4 2 0.2
v -1.4 2.4 0.2
v -1.1 2 0.2
v -1.1 2.4 0.2
v -1.8 2 0.0999999
v -1.8 2.4 0.0999999
v -1.4 2 0.0999999
v -1.4 2.4 0.0999999
v 0.1 2 0.0999999
v 0.1 2.4 0.0999999
v 0.5 2 0.0999999
v 0.5 2.4 0.0999999
v 1.2 2 0.0999999
v 1.2 2.4 0.0999999
v 2 2 0.0999999
v 2 2.4 0.0999999
v -1 2 0
v -1 2.4 0
v -0.8 2 0
v -0.8 2.4 0
v 2.1 2 0
v 2.1 2.4 0
v 2.3 2 0
v 2.3 2.4 0
v -0.7 2 -0.1
v -0.7 2.4 -0.1
v 0.1 2 -0.1
v 0.1 2.4 -0.1
v 0.3 2 -0.3
v 0.3 2.4 -0.3
v 0.5 2 -0.3
v 0.5 2.4 -0.3
v -0.3 2 -0.4
v -0.3 2.1 -0.4
v -0.0999999 2 -0.4
v -0.0999999 2.1 -0.4
v 1.1 2 -0.5
v 1.1 2.4 -0.5
v 1.5 2 -0.5
v 1.5 2.4 -0.5
v -2.1 2 -1
v -2.1 2.1 -1
v -1.7 2 -1
v -1.7 2.1 -1
v -1.3 1.9 -1
v -1.3 2 -1
v -0.9 1.9 -1
v -0.9 2 -1
v -0.8 1.9 -1
v -0.8 2 -1
v -0.6 1.9 -1
v -0.6 2 -1
v -0.0999999 1.8 -1
v -0.0999999 2 -1
v 0.7 1.8 -1
v 0.7 2 -1
v 1 2 -1.1
v 1 2.1 -1.1
v 1.2 2 -1.1
v 1.2 2.1 -1.1
v 2.1 1.9 -1.1
v 2.1 2 -1.1
v 2.3 1.9 -1.1
v 2.3 2 -1.1
v -1.9 1.8 -1.3
v -1.9 2 -1.3
v -1.5 1.8 -1.3
v -1.5 2 -1.3
v -0.6 1.8 -1.3
v -0.6 2 -1.3
v -0.0999999 1.8 -1.3
v -0.0999999 2 -1.3
v 0.3 1.8 -1.3
v 0.3 2 -1.3
v 0.5 1.8 -1.3
v 0.5 2 -1.3
v 1.5 1.8 -1.3
v 1.5 2 -1.3
v 1.9 1.8 -1.3
v 1.9 2 -1.3
v -2.1 1.8 -1.4
v -2.1 2 -1.4
v -1.9 1.8 -1.4
v -1.9 2 -1.4
v 1.3 1.8 -1.4
v 1.3 2 -1.4
v 1.5 1.8 -1.4
v 1.5 2 -1.4
v -2.4 1.8 -1.6
v -2.4 2 -1.6
v -2.1 1.8 -1.6
v -2.1 2 -1.6
v -1.5 1.8 -1.6
v -1.5 2 -1.6
v -0.6 1.8 -1.6
v -0.6 2 -1.6
v 0.7 1.8 -1.6
v 0.7 2 -1.6
v 1.3 1.8 -1.6
v 1.3 2 -1.6
v 1.9 1.8 -1.6
v 1.9 2 -1.6
v 2.4 1.8 -1.6
v 2.4 2 -1.6
v -0.2 1.8 -1.7
v -0.2 2 -1.7
v 0 1.8 -1.7
v 0 2 -1.7
v -2.4 -2.4 -2.4
v -2.4 1.8 -2.4
v 2.4 -2.4 -2.4
v 2.4 1.8 -2.4
v -2.4 -2.4 2.4
v 2.4 -2.4 2.4
v -2.4 -2.4 0.4
v 2.4 -2.4 0.4
v -1.3 -2.4 -1
v -0.9 -2.4 -1
v -0.8 -2.4 -1
v -0.6 -2.4 -1
v -0.0999999 -2.4 -1
v 0.7 -2.4 -1
v 0.3 -2.4 -1.1
v 0.5 -2.4 -1.1
v 2.1 -2.4 -1.1
v 2.3 -2.4 -1.1
v -0.8 -2.4 -1.2
v -0.6 -2.4 -1.2
v -1.9 -2.4 -1.3
v -1.5 -2.4 -1.3
v -0.6 -2.4 -1.3
v -0.0999999 -2.4 -1.3
v 0.3 -2.4 -1.3
v 0.5 -2.4 -1.3
v 1.5 -2.4 -1.3
v 1.9 -2.4 -1.3
v 2.1 -2.4 -1.3
v 2.3 -2.4 -1.3
v -2.1 -2.4 -1.4
v -1.9 -2.4 -1.4
v -1.3 -2.4 -1.4
v -0.9 -2.4 -1.4
v 1.3 -2.4 -1.4
v 1.5 -2.4 -1.4
v -0.2 -2.4 -1.5
v 0 -2.4 -1.5
v -2.4 -2.4 -1.6
v -2.1 -2.4 -1.6
v -1.5 -2.4 -1.6
v -0.6 -2.4 -1.6
v 0.7 -2.4 -1.6
v 1.3 -2.4 -1.6
v 1.9 -2.4 -1.6
v 2.4 -2.4 -1.6
v -0.2 -2.4 -1.7
v 0 -2.4 -1.7
v -2.4 -2.4 -2.4
v 2.4 -2.4 -2.4
v -0.0999999 1.8 -1
v 0.7 1.8 -1
v 0.3 1.8 -1.1
v 0.5 1.8 -1.1
v -1.9 1.8 -1.3
v -1.5 1.8 -1.3
v -0.6 1.8 -1.3
v -0.0999999 1.8 -1.3
v 0.3 1.8 -1.3
v 0.5 1.8 -1.3
v 1.5 1.8 -1.3
v 1.9 1.8 -1.3
v -2.1 1.8 -1.4
v -1.9 1.8 -1.4
v 1.3 1.8 -1.4
v 1.5 1.8 -1.4
v -0.2 1.8 -1.5
v 0 1.8 -1.5
v -2.4 1.8 -1.6
v -2.1 1.8 -1.6
v -1.5 1.8 -1.6
v -0.6 1.8 -1.6
v 0.7 1.8 -1.6
v 1.3 1.8 -1.6
v 1.9 1.8 -1.6
v 2.4 1.8 -1.6
v -0.2 1.8 -1.7
v 0 1.8 -1.7
v -2.4 1.8 -2.4
v 2.4 1.8 -2.4
v -1.3 1.9 -1
v -0.9 1.9 -1
v -0.8 1.9 -1
v -0.6 1.9 -1
v 2.1 1.9 -1.1
v 2.3 1.9 -1.1
v -0.8 1.9 -1.2
v -0.6 1.9 -1.2
v 2.1 1.9 -1.3
v 2.3 1.9 -1.3
v -1.3 1.9 -1.4
v -0.9 1.9 -1.4
v -2.4 2 0.4
v -1.8 2 0.4
v -1.1 2 0.4
v -0.7 2 0.4
v 0.5 2 0.4
v 0.9 2 0.4
v 2 2 0.4
v 2.4 2 0.4
v 0.9 2 0.3
v 1.2 2 0.3
v -1.4 2 0.2
v -1.1 2 0.2
v -1 2 0.2
v -0.8 2 0.2
v 2.1 2 0.2
v 2.3 2 0.2
v -1.8 2 0.0999999
v -1.4 2 0.0999999
v 0.1 2 0.0999999
v 0.5 2 0.0999999
v 1.2 2 0.0999999
v 2 2 0.0999999
v -1 2 0
v -0.8 2 0
v 2.1 2 0
v 2.3 2 0
v -0.7 2 -0.1
v 0.1 2 -0.1
v 0.3 2 -0.1
v 0.5 2 -0.1
v 1.1 2 -0.1
v 1.5 2 -0.1
v -0.3 2 -0.2
v -0.0999999 2 -0.2
v 0.3 2 -0.3
v 0.5 2 -0.3
v -0.3 2 -0.4
v -0.0999999 2 -0.4
v 1.1 2 -0.5
v 1.5 2 -0.5
v -2.1 2 -0.6
v -1.7 2 -0.6
v 1 2 -0.9
v 1.2 2 -0.9
v -2.1 2 -1
v -1.7 2 -1
v -1.3 2 -1
v -0.9 2 -1
v -0.8 2 -1
v -0.6 2 -1
v -0.0999999 2 -1
v 0.7 2 -1
v 0.3 2 -1.1
v 0.5 2 -1.1
v 1 2 -1.1
v 1.2 2 -1.1
v 2.1 2 -1.1
v 2.3 2 -1.1
v -0.8 2 -1.2
v -0.6 2 -1.2
v -1.9 2 -1.3
v -1.5 2 -1.3
v -0.6 2 -1.3
v -0.0999999 2 -1.3
v 0.3 2 -1.3
v 0.5 2 -1.3
v 1.5 2 -1.3
v 1.9 2 -1.3
v 2.1 2 -1.3
v 2.3 2 -1.3
v -2.1 2 -1.4
v -1.9 2 -1.4
v -1.3 2 -1.4
v -0.9 2 -1.4
v 1.3 2 -1.4
v 1.5 2 -1.4
v -0.2 2 -1.5
v 0 2 -1.5
v -2.4 2 -1.6
v -2.1 2 -1.6
v -1.5 2 -1.6
v -0.6 2 -1.6
v 0.7 2 -1.6
v 1.3 2 -1.6
v 1.9 2 -1.6
v 2.4 2 -1.6
v -0.2 2 -1.7
v 0 2 -1.7
v -0.3 2.1 -0.2
v -0.0999999 2.1 -0.2
v -0.3 2.1 -0.4
v -0.0999999 2.1 -0.4
v -2.1 2.1 -0.6
v -1.7 2.1 -0.6
v 1 2.1 -0.9
v 1.2 2.1 -0.9
v -2.1 2.1 -1
v -1.7 2.1 -1
v 1 2.1 -1.1
v 1.2 2.1 -1.1
v -2.4 2.4 2.4
v 2.4 2.4 2.4
v -2.4 2.4 1
v -2 2.4 1
v -2.3 2.4 0.9
v -2.1 2.4 0.9
v -0.4 2.4 0.8
v 0.2 2.4 0.8
v 0.5 2.4 0.8
v 0.9 2.4 0.8
v -2.3 2.4 0.7
v -2.1 2.4 0.7
v -0.3 2.4 0.7
v 0.1 2.4 0.7
v 0.6 2.4 0.7
v 0.8 2.4 0.7
v -2.4 2.4 0.6
v -2 2.4 0.6
v -1.7 2.4 0.6
v -1.3 2.4 0.6
v -2.4 2.4 0.5
v -1.7 2.4 0.5
v -1.6 2.4 0.5
v -1.4 2.4 0.5
v -1.2 2.4 0.5
v -0.6 2.4 0.5
v 0.4 2.4 0.5
v 0.5 2.4 0.5
v 0.6 2.4 0.5
v 0.8 2.4 0.5
v 0.9 2.4 0.5
v 1 2.4 0.5
v 1.6 2.4 0.5
v 2.4 2.4 0.5
v -2.4 2.4 0.4
v -1.8 2.4 0.4
v -1.1 2.4 0.4
v -0.7 2.4 0.4
v 0.5 2.4 0.4
v 0.9 2.4 0.4
v 1 2.4 0.4
v 1.3 2.4 0.4
v 1.7 2.4 0.4
v 1.9 2.4 0.4
v 2 2.4 0.4
v 2.4 2.4 0.4
v -1.6 2.4 0.3
v -1.4 2.4 0.3
v -1.3 2.4 0.3
v -1.2 2.4 0.3
v -0.3 2.4 0.3
v 0.1 2.4 0.3
v 0.9 2.4 0.3
v 1.2 2.4 0.3
v -1.4 2.4 0.2
v -1.1 2.4 0.2
v -1 2.4 0.2
v -0.8 2.4 0.2
v -0.4 2.4 0.2
v 0 2.4 0.2
v 0.2 2.4 0.2
v 0.4 2.4 0.2
v 1.3 2.4 0.2
v 1.6 2.4 0.2
v 1.7 2.4 0.2
v 1.9 2.4 0.2
v 2.1 2.4 0.2
v 2.3 2.4 0.2
v -1.8 2.4 0.0999999
v -1.4 2.4 0.0999999
v 0.1 2.4 0.0999999
v 0.5 2.4 0.0999999
v 1.2 2.4 0.0999999
v 2 2.4 0.0999999
v -1 2.4 0
v -0.8 2.4 0
v -0.6 2.4 0
v 0 2.4 0
v 2.1 2.4 0
v 2.3 2.4 0
v -0.7 2.4 -0.1
v 0.1 2.4 -0.1
v 0.3 2.4 -0.1
v 0.5 2.4 -0.1
v 1.1 2.4 -0.1
v 1.5 2.4 -0.1
v 1.2 2.4 -0.2
v 1.4 2.4 -0.2
v 0.3 2.4 -0.3
v 0.5 2.4 -0.3
v 1.2 2.4 -0.4
v 1.4 2.4 -0.4
v 1.1 2.4 -0.5
v 1.5 2.4 -0.5

# faces
f 5/1/1 3/1/1 2/1/1
f 5/2/1 4/2/1 3/2/1
f 6/2/1 4/2/1 5/2/1
f 7/3/1 2/3/1 1/3/1
f 8/1/1 5/1/1 2/1/1
f 8/3/1 2/3/1 7/3/1
f 9/1/1 5/1/1 8/1/1
f 10/3/1 7/3/1 1/3/1
f 11/3/1 7/3/1 10/3/1
f 12/3/1 10/3/1 1/3/1
f 13/4/1 11/4/1 10/4/1
f 13/3/1 10/3/1 12/3/1
f 14/3/1 7/3/1 11/3/1
f 14/4/1 11/4/1 13/4/1
f 15/4/1 8/4/1 7/4/1
f 15/3/1 7/3/1 14/3/1
f 16/4/1 8/4/1 15/4/1
f 19/2/1 18/2/1 17/2/1
f 20/2/1 18/2/1 19/2/1
f 23/4/1 22/4/1 21/4/1
f 24/4/1 22/4/1 23/4/1
f 27/1/1 26/1/1 25/1/1
f 28/1/1 26/1/1 27/1/1
f 31/4/1 30/4/1 29/4/1
f 32/4/1 30/4/1 31/4/1
f 35/1/1 34/1/1 33/1/1
f 36/1/1 34/1/1 35/1/1
f 39/4/1 38/4/1 37/4/1
f 40/4/1 38/4/1 39/4/1
f 43/1/1 42/1/1 41/1/1
f 44/1/1 42/1/1 43/1/1
f 47/2/1 46/2/1 45/2/1
f 48/2/1 46/2/1 47/2/1
f 51/1/1 50/1/1 49/1/1
f 52/1/1 50/1/1 51/1/1
f 57/1/1 54/1/1 53/1/1
f 58/1/1 54/1/1 57/1/1
f 59/4/1 56/4/1 55/4/1
f 60/4/1 56/4/1 59/4/1
f 63/1/1 62/1/1 61/1/1
f 64/1/1 62/1/1 63/1/1
f 67/4/1 66/4/1 65/4/1
f 68/4/1 66/4/1 67/4/1
f 71/2/1 70/2/1 69/2/1
f 72/2/1 70/2/1 71/2/1
f 75/4/1 74/4/1 73/4/1
f 76/4/1 74/4/1 75/4/1
f 79/4/1 78/4/1 77/4/1
f 80/4/1 78/4/1 79/4/1
f 83/1/1 82/1/1 81/1/1
f 84/1/1 82/1/1 83/1/1
f 87/4/1 86/4/1 85/4/1
f 88/4/1 86/4/1 87/4/1
f 91/1/1 90/1/1 89/1/1
f 92/1/1 90/1/1 91/1/1
f 93/1/2 94/1/2 95/1/2
f 95/1/2 94/1/2 96/1/2
f 97/1/2 98/1/2 99/1/2
f 99/1/2 98/1/2 100/1/2
f 101/2/2 102/2/2 103/2/2
f 103/2/2 102/2/2 104/2/2
f 105/4/2 106/4/2 107/4/2
f 107/4/2 106/4/2 108/4/2
f 109/1/2 110/1/2 111/1/2
f 111/1/2 110/1/2 112/1/2
f 113/4/2 114/4/2 115/4/2
f 115/4/2 114/4/2 116/4/2
f 117/1/2 118/1/2 121/1/2
f 121/1/2 118/1/2 122/1/2
f 119/4/2 120/4/2 123/4/2
f 123/4/2 120/4/2 124/4/2
f 125/1/2 126/1/2 127/1/2
f 127/1/2 126/1/2 128/1/2
f 129/1/2 130/1/2 133/1/2
f 133/1/2 130/1/2 134/1/2
f 131/2/2 132/2/2 135/2/2
f 135/2/2 132/2/2 136/2/2
f 137/1/2 138/1/2 139/1/2
f 139/1/2 138/1/2 140/1/2
f 141/4/2 142/4/2 143/4/2
f 143/4/2 142/4/2 144/4/2
f 145/1/2 146/1/2 151/1/2
f 151/1/2 146/1/2 152/1/2
f 147/4/2 148/4/2 153/4/2
f 153/4/2 148/4/2 154/4/2
f 149/4/2 150/4/2 155/4/2
f 155/4/2 150/4/2 156/4/2
f 157/2/2 158/2/2 159/2/2
f 159/2/2 158/2/2 160/2/2
f 161/1/2 162/1/2 163/1/2
f 163/1/2 162/1/2 164/1/2
f 165/1/2 166/1/2 169/1/2
f 169/1/2 166/1/2 170/1/2
f 167/4/2 168/4/2 171/4/2
f 171/4/2 168/4/2 172/4/2
f 173/4/2 174/4/2 175/4/2
f 175/4/2 174/4/2 176/4/2
f 176/4/2 174/4/2 177/4/2
f 178/1/2 179/1/2 180/1/2
f 180/1/2 179/1/2 181/1/2
f 182/4/2 183/4/2 184/4/2
f 184/4/2 183/4/2 185/4/2
f 187/1/2 188/1/2 190/1/2
f 188/2/2 189/2/2 190/2/2
f 190/2/2 189/2/2 191/2/2
f 186/3/2 187/3/2 192/3/2
f 187/1/2 190/1/2 192/1/2
f 192/1/2 190/1/2 193/1/2
f 186/3/2 192/3/2 194/3/2
f 194/3/2 192/3/2 195/3/2
f 186/3/2 194/3/2 196/3/2
f 194/4/2 195/4/2 197/4/2
f 196/3/2 194/3/2 197/3/2
f 197/4/2 195/4/2 198/4/2
f 201/3/3 200/3/3 199/3/3
f 202/3/3 200/3/3 201/3/3
f 205/4/3 204/4/3 203/4/3
f 206/4/3 204/4/3 205/4/3
f 209/4/3 208/4/3 207/4/3
f 210/4/3 208/4/3 209/4/3
f 213/4/3 212/4/3 211/4/3
f 214/4/3 212/4/3 213/4/3
f 217/4/3 216/4/3 215/4/3
f 218/4/3 216/4/3 217/4/3
f 221/2/3 220/2/3 219/2/3
f 222/2/3 220/2/3 221/2/3
f 225/2/3 224/2/3 223/2/3
f 226/2/3 224/2/3 225/2/3
f 229/2/3 228/2/3 227/2/3
f 230/2/3 228/2/3 229/2/3
f 233/1/3 232/1/3 231/1/3
f 234/1/3 232/1/3 233/1/3
f 237/1/3 236/1/3 235/1/3
f 238/1/3 236/1/3 237/1/3
f 241/1/3 240/1/3 239/1/3
f 242/1/3 240/1/3 241/1/3
f 245/1/3 244/1/3 243/1/3
f 246/1/3 244/1/3 245/1/3
f 249/1/3 248/1/3 247/1/3
f 250/1/3 248/1/3 249/1/3
f 251/4/4 252/4/4 253/4/4
f 253/4/4 252/4/4 254/4/4
f 255/4/4 256/4/4 257/4/4
f 257/4/4 256/4/4 258/4/4
f 259/4/4 260/4/4 261/4/4
f 261/4/4 260/4/4 262/4/4
f 263/3/4 264/3/4 266/3/4
f 264/4/4 265/4/4 267/4/4
f 266/3/4 264/3/4 267/3/4
f 267/4/4 265/4/4 268/4/4
f 269/4/4 270/4/4 271/4/4
f 271/4/4 270/4/4 272/4/4
f 273/4/4 274/4/4 275/4/4
f 275/4/4 274/4/4 276/4/4
f 277/4/4 278/4/4 279/4/4
f 279/4/4 278/4/4 280/4/4
f 281/4/4 282/4/4 283/4/4
f 283/4/4 282/4/4 284/4/4
f 285/4/4 286/4/4 287/4/4
f 287/4/4 286/4/4 288/4/4
f 289/4/4 290/4/4 291/4/4
f 291/4/4 290/4/4 292/4/4
f 293/4/4 294/4/4 295/4/4
f 295/4/4 294/4/4 296/4/4
f 297/4/4 298/4/4 299/4/4
f 299/4/4 298/4/4 300/4/4
f 301/4/4 302/4/4 303/4/4
f 303/4/4 302/4/4 304/4/4
f 305/2/4 306/2/4 307/2/4
f 307/2/4 306/2/4 308/2/4
f 309/4/4 310/4/4 311/4/4
f 311/4/4 310/4/4 312/4/4
f 313/2/4 314/2/4 315/2/4
f 315/2/4 314/2/4 316/2/4
f 317/1/4 318/1/4 319/1/4
f 319/1/4 318/1/4 320/1/4
f 321/1/4 322/1/4 323/1/4
f 323/1/4 322/1/4 324/1/4
f 325/1/4 326/1/4 327/1/4
f 327/1/4 326/1/4 328/1/4
f 329/2/4 330/2/4 331/2/4
f 331/2/4 330/2/4 332/2/4
f 333/1/4 334/1/4 335/1/4
f 335/1/4 334/1/4 336/1/4
f 337/1/4 338/1/4 339/1/4
f 339/1/4 338/1/4 340/1/4
f 341/1/4 342/1/4 343/1/4
f 343/1/4 342/1/4 344/1/4
f 345/1/4 346/1/4 347/1/4
f 347/1/4 346/1/4 348/1/4
f 349/1/4 350/1/4 351/1/4
f 351/1/4 350/1/4 352/1/4
f 353/1/4 354/1/4 355/1/4
f 355/1/4 354/1/4 356/1/4
f 357/1/4 358/1/4 359/1/4
f 359/1/4 358/1/4 360/1/4
f 361/1/4 362/1/4 363/1/4
f 363/1/4 362/1/4 364/1/4
f 365/1/4 366/1/4 367/1/4
f 367/1/4 366/1/4 368/1/4
f 369/1/4 370/1/4 371/1/4
f 371/1/4 370/1/4 372/1/4
f 373/1/4 374/1/4 375/1/4
f 375/1/4 374/1/4 376/1/4
f 377/1/4 378/1/4 379/1/4
f 379/1/4 378/1/4 380/1/4
f 381/2/4 382/2/4 383/2/4
f 383/2/4 382/2/4 384/2/4
f 387/3/5 386/3/5 385/3/5
f 388/3/5 386/3/5 387/3/5
f 389/1/5 388/1/5 387/1/5
f 390/1/5 388/1/5 389/1/5
f 391/1/5 388/1/5 390/1/5
f 392/1/5 388/1/5 391/1/5
f 393/1/5 388/1/5 392/1/5
f 394/1/5 388/1/5 393/1/5
f 395/2/5 394/2/5 393/2/5
f 396/2/5 394/2/5 395/2/5
f 397/1/5 388/1/5 394/1/5
f 398/1/5 388/1/5 397/1/5
f 399/1/5 391/1/5 390/1/5
f 399/2/5 392/2/5 391/2/5
f 400/1/5 393/1/5 392/1/5
f 400/2/5 392/2/5 399/2/5
f 401/1/5 389/1/5 387/1/5
f 402/1/5 389/1/5 401/1/5
f 403/1/5 393/1/5 400/1/5
f 403/1/5 400/1/5 399/1/5
f 404/2/5 395/2/5 393/2/5
f 404/1/5 393/1/5 403/1/5
f 405/1/5 396/1/5 395/1/5
f 405/2/5 395/2/5 404/2/5
f 406/2/5 394/2/5 396/2/5
f 406/1/5 396/1/5 405/1/5
f 407/1/5 397/1/5 394/1/5
f 408/1/5 397/1/5 407/1/5
f 409/2/5 398/2/5 397/2/5
f 409/1/5 397/1/5 408/1/5
f 410/1/5 388/1/5 398/1/5
f 410/2/5 398/2/5 409/2/5
f 411/1/5 401/1/5 387/1/5
f 412/2/5 402/2/5 401/2/5
f 412/1/5 401/1/5 411/1/5
f 413/1/5 389/1/5 402/1/5
f 413/2/5 390/2/5 389/2/5
f 414/1/5 399/1/5 390/1/5
f 414/2/5 390/2/5 413/2/5
f 414/1/5 403/1/5 399/1/5
f 415/1/5 407/1/5 394/1/5
f 416/2/5 408/2/5 407/2/5
f 416/1/5 407/1/5 415/1/5
f 417/2/5 405/2/5 404/2/5
f 417/2/5 404/2/5 403/2/5
f 417/2/5 406/2/5 405/2/5
f 418/2/5 406/2/5 417/2/5
f 419/1/5 411/1/5 387/1/5
f 420/2/5 412/2/5 411/2/5
f 420/1/5 411/1/5 419/1/5
f 421/2/5 402/2/5 412/2/5
f 421/2/5 412/2/5 420/2/5
f 421/1/5 413/1/5 402/1/5
f 421/1/5 414/1/5 413/1/5
f 422/2/5 417/2/5 403/2/5
f 422/1/5 414/1/5 421/1/5
f 422/1/5 403/1/5 414/1/5
f 423/1/5 415/1/5 394/1/5
f 423/2/5 394/2/5 406/2/5
f 423/2/5 406/2/5 418/2/5
f 424/2/5 416/2/5 415/2/5
f 424/1/5 415/1/5 423/1/5
f 425/1/5 409/1/5 408/1/5
f 425/2/5 416/2/5 424/2/5
f 425/2/5 408/2/5 416/2/5
f 425/1/5 410/1/5 409/1/5
f 426/1/5 388/1/5 410/1/5
f 426/1/5 410/1/5 425/1/5
f 427/2/5 420/2/5 419/2/5
f 427/2/5 417/2/5 422/2/5
f 427/1/5 418/1/5 417/1/5
f 427/2/5 422/2/5 421/2/5
f 427/2/5 421/2/5 420/2/5
f 428/2/5 424/2/5 423/2/5
f 428/1/5 418/1/5 427/1/5
f 428/2/5 426/2/5 425/2/5
f 428/2/5 425/2/5 424/2/5
f 428/2/5 423/2/5 418/2/5
f 429/2/5 427/2/5 419/2/5
f 429/2/5 428/2/5 427/2/5
f 430/2/5 426/2/5 428/2/5
f 430/2/5 428/2/5 429/2/5
f 431/2/6 432/2/6 433/2/6
f 433/2/6 432/2/6 434/2/6
f 431/2/6 433/2/6 438/2/6
f 438/2/6 433/2/6 439/2/6
f 434/2/6 432/2/6 440/2/6
f 435/2/6 436/2/6 444/2/6
f 441/2/6 442/2/6 446/2/6
f 438/2/6 439/2/6 447/2/6
f 437/2/6 438/2/6 447/2/6
f 439/2/6 440/2/6 447/2/6
f 447/2/6 440/2/6 448/2/6
f 443/2/6 444/2/6 450/2/6
f 444/2/6 436/2/6 451/2/6
f 450/2/6 444/2/6 451/2/6
f 437/2/6 447/2/6 452/2/6
f 448/2/6 440/2/6 453/2/6
f 440/2/6 432/2/6 453/2/6
f 445/2/6 446/2/6 454/2/6
f 446/2/6 442/2/6 455/2/6
f 454/2/6 446/2/6 455/2/6
f 451/2/6 452/2/6 457/2/6
f 452/2/6 447/2/6 457/2/6
f 449/2/6 450/2/6 457/2/6
f 450/2/6 451/2/6 457/2/6
f 455/2/6 456/2/6 458/2/6
f 448/2/6 453/2/6 458/2/6
f 453/2/6 454/2/6 458/2/6
f 454/2/6 455/2/6 458/2/6
f 449/2/6 457/2/6 459/2/6
f 457/2/6 458/2/6 459/2/6
f 458/2/6 456/2/6 460/2/6
f 459/2/6 458/2/6 460/2/6
f 463/2/6 464/2/6 467/2/6
f 467/2/6 464/2/6 468/2/6
f 465/2/6 466/2/6 469/2/6
f 469/2/6 466/2/6 470/2/6
f 461/2/6 462/2/6 471/2/6
f 471/2/6 462/2/6 472/2/6
f 477/1/6 478/1/6 481/1/6
f 475/1/6 476/1/6 484/1/6
f 484/1/6 476/1/6 485/1/6
f 485/1/6 476/1/6 486/1/6
f 479/1/6 480/1/6 487/1/6
f 487/1/6 480/1/6 488/1/6
f 473/1/6 474/1/6 489/1/6
f 483/1/6 484/1/6 490/1/6
f 484/1/6 485/1/6 490/1/6
f 481/1/6 482/1/6 492/1/6
f 477/1/6 481/1/6 492/1/6
f 492/1/6 482/1/6 493/1/6
f 479/1/6 487/1/6 494/1/6
f 489/1/6 490/1/6 495/1/6
f 490/1/6 485/1/6 495/1/6
f 486/1/6 476/1/6 496/1/6
f 493/1/6 494/1/6 497/1/6
f 494/1/6 487/1/6 497/1/6
f 492/1/6 493/1/6 497/1/6
f 491/1/6 492/1/6 497/1/6
f 488/1/6 480/1/6 498/1/6
f 495/1/6 496/1/6 499/1/6
f 496/1/6 476/1/6 499/1/6
f 491/1/6 497/1/6 500/1/6
f 497/1/6 498/1/6 500/1/6
f 500/1/6 498/1/6 501/1/6
f 501/1/6 498/1/6 502/1/6
f 502/1/6 498/1/6 503/1/6
f 503/1/6 498/1/6 504/1/6
f 499/1/6 500/1/6 505/1/6
f 500/1/6 501/1/6 505/1/6
f 505/1/6 501/1/6 506/1/6
f 506/1/6 501/1/6 507/1/6
f 502/1/6 503/1/6 508/1/6
f 499/1/6 505/1/6 509/1/6
f 506/1/6 507/1/6 510/1/6
f 507/1/6 508/1/6 510/1/6
f 508/1/6 503/1/6 511/1/6
f 509/1/6 510/1/6 511/1/6
f 510/1/6 508/1/6 511/1/6
f 504/1/6 498/1/6 512/1/6
f 495/1/6 499/1/6 513/1/6
f 511/1/6 512/1/6 513/1/6
f 489/1/6 495/1/6 513/1/6
f 473/1/6 489/1/6 513/1/6
f 509/1/6 511/1/6 513/1/6
f 499/1/6 509/1/6 513/1/6
f 513/1/6 512/1/6 514/1/6
f 514/1/6 512/1/6 515/1/6
f 515/1/6 512/1/6 516/1/6
f 473/1/6 513/1/6 517/1/6
f 514/1/6 515/1/6 518/1/6
f 518/1/6 515/1/6 519/1/6
f 519/1/6 515/1/6 520/1/6
f 520/1/6 515/1/6 521/1/6
f 521/1/6 515/1/6 522/1/6
f 522/1/6 515/1/6 523/1/6
f 523/1/6 515/1/6 524/1/6
f 524/1/6 515/1/6 527/1/6
f 516/1/6 512/1/6 528/1/6
f 512/1/6 498/1/6 529/1/6
f 528/1/6 512/1/6 529/1/6
f 498/1/6 480/1/6 530/1/6
f 529/1/6 498/1/6 530/1/6
f 520/1/6 521/1/6 531/1/6
f 522/1/6 523/1/6 532/1/6
f 517/1/6 518/1/6 533/1/6
f 518/1/6 519/1/6 533/1/6
f 533/1/6 519/1/6 534/1/6
f 531/1/6 532/1/6 535/1/6
f 532/1/6 523/1/6 535/1/6
f 535/1/6 523/1/6 536/1/6
f 525/1/6 526/1/6 537/1/6
f 537/1/6 526/1/6 538/1/6
f 527/1/6 528/1/6 539/1/6
f 528/1/6 529/1/6 539/1/6
f 539/1/6 529/1/6 540/1/6
f 540/1/6 529/1/6 541/1/6
f 530/1/6 480/1/6 542/1/6
f 473/1/6 517/1/6 543/1/6
f 517/1/6 533/1/6 543/1/6
f 543/1/6 533/1/6 544/1/6
f 534/1/6 519/1/6 545/1/6
f 520/1/6 531/1/6 546/1/6
f 531/1/6 535/1/6 546/1/6
f 527/1/6 539/1/6 547/1/6
f 547/1/6 539/1/6 548/1/6
f 473/1/6 543/1/6 551/1/6
f 551/1/6 543/1/6 552/1/6
f 545/1/6 546/1/6 553/1/6
f 534/1/6 545/1/6 553/1/6
f 546/1/6 535/1/6 554/1/6
f 553/1/6 546/1/6 554/1/6
f 524/1/6 527/1/6 555/1/6
f 527/1/6 547/1/6 555/1/6
f 555/1/6 547/1/6 556/1/6
f 541/1/6 542/1/6 557/1/6
f 540/1/6 541/1/6 557/1/6
f 542/1/6 480/1/6 558/1/6
f 557/1/6 542/1/6 558/1/6
f 549/1/6 550/1/6 559/1/6
f 559/1/6 550/1/6 560/1/6
f 561/2/6 562/2/6 563/2/6
f 563/2/6 562/2/6 564/2/6
f 565/2/6 566/2/6 569/2/6
f 569/2/6 566/2/6 570/2/6
f 567/2/6 568/2/6 571/2/6
f 571/2/6 568/2/6 572/2/6
f 573/3/6 574/3/6 575/3/6
f 575/3/6 574/3/6 576/3/6
f 575/4/6 576/4/6 577/4/6
f 577/4/6 576/4/6 578/4/6
f 576/3/6 574/3/6 579/3/6
f 579/3/6 574/3/6 580/3/6
f 580/3/6 574/3/6 581/3/6
f 581/3/6 574/3/6 582/3/6
f 575/4/6 577/4/6 583/4/6
f 577/1/6 578/1/6 583/1/6
f 578/4/6 576/4/6 584/4/6
f 583/1/6 578/1/6 584/1/6
f 579/4/6 580/4/6 585/4/6
f 585/4/6 580/4/6 586/4/6
f 581/4/6 582/4/6 587/4/6
f 587/4/6 582/4/6 588/4/6
f 575/4/6 583/4/6 589/4/6
f 583/4/6 584/4/6 589/4/6
f 576/3/6 579/3/6 590/3/6
f 589/4/6 584/4/6 590/4/6
f 584/4/6 576/4/6 590/4/6
f 590/3/6 579/3/6 591/3/6
f 591/3/6 579/3/6 592/3/6
f 589/3/6 590/3/6 593/3/6
f 590/3/6 591/3/6 593/3/6
f 591/4/6 592/4/6 594/4/6
f 593/3/6 591/3/6 594/3/6
f 594/4/6 592/4/6 595/4/6
f 595/4/6 592/4/6 596/4/6
f 592/3/6 579/3/6 597/3/6
f 597/3/6 579/3/6 598/3/6
f 580/3/6 581/3/6 599/3/6
f 581/4/6 587/4/6 600/4/6
f 599/3/6 581/3/6 600/3/6
f 587/1/6 588/1/6 601/1/6
f 600/4/6 587/4/6 601/4/6
f 588/4/6 582/4/6 602/4/6
f 601/1/6 588/1/6 602/1/6
f 582/3/6 574/3/6 603/3/6
f 602/4/6 582/4/6 603/4/6
f 603/3/6 574/3/6 604/3/6
f 604/3/6 574/3/6 605/3/6
f 605/3/6 574/3/6 606/3/6
f 593/4/6 594/4/6 607/4/6
f 594/4/6 595/4/6 607/4/6
f 607/4/6 595/4/6 608/4/6
f 597/4/6 598/4/6 609/4/6
f 609/4/6 598/4/6 610/4/6
f 600/4/6 601/4/6 611/4/6
f 601/4/6 602/4/6 611/4/6
f 599/4/6 600/4/6 611/4/6
f 602/4/6 603/4/6 611/4/6
f 603/4/6 604/4/6 611/4/6
f 611/4/6 604/4/6 612/4/6
f 604/3/6 605/3/6 613/3/6
f 612/4/6 604/4/6 613/4/6
f 613/3/6 605/3/6 614/3/6
f 605/4/6 606/4/6 615/4/6
f 615/4/6 606/4/6 616/4/6
f 616/4/6 606/4/6 617/4/6
f 617/4/6 606/4/6 618/4/6
f 595/1/6 596/1/6 619/1/6
f 608/4/6 595/4/6 619/4/6
f 596/4/6 592/4/6 620/4/6
f 619/1/6 596/1/6 620/1/6
f 592/3/6 597/3/6 621/3/6
f 620/4/6 592/4/6 621/4/6
f 597/4/6 609/4/6 622/4/6
f 621/3/6 597/3/6 622/3/6
f 579/4/6 585/4/6 623/4/6
f 585/1/6 586/1/6 623/1/6
f 586/4/6 580/4/6 624/4/6
f 623/1/6 586/1/6 624/1/6
f 613/4/6 614/4/6 625/4/6
f 612/4/6 613/4/6 625/4/6
f 625/4/6 614/4/6 626/4/6
f 620/4/6 621/4/6 627/4/6
f 621/4/6 622/4/6 627/4/6
f 619/4/6 620/4/6 627/4/6
f 622/4/6 609/4/6 628/4/6
f 627/4/6 622/4/6 628/4/6
f 579/4/6 623/4/6 631/4/6
f 598/3/6 579/3/6 631/3/6
f 623/4/6 624/4/6 631/4/6
f 631/4/6 624/4/6 632/4/6
f 580/3/6 599/3/6 633/3/6
f 632/4/6 624/4/6 633/4/6
f 624/4/6 580/4/6 633/4/6
f 599/4/6 611/4/6 634/4/6
f 633/3/6 599/3/6 634/3/6
f 626/4/6 614/4/6 635/4/6
f 614/3/6 605/3/6 635/3/6
f 605/4/6 615/4/6 636/4/6
f 635/3/6 605/3/6 636/3/6
f 615/1/6 616/1/6 637/1/6
f 636/4/6 615/4/6 637/4/6
f 616/4/6 617/4/6 638/4/6
f 637/1/6 616/1/6 638/1/6
f 619/4/6 627/4/6 641/4/6
f 608/4/6 619/4/6 641/4/6
f 641/4/6 627/4/6 642/4/6
f 633/4/6 634/4/6 643/4/6
f 632/4/6 633/4/6 643/4/6
f 634/4/6 611/4/6 644/4/6
f 643/4/6 634/4/6 644/4/6
f 637/4/6 638/4/6 645/4/6
f 636/4/6 637/4/6 645/4/6
f 635/4/6 636/4/6 645/4/6
f 626/4/6 635/4/6 645/4/6
f 638/4/6 617/4/6 646/4/6
f 645/4/6 638/4/6 646/4/6
f 629/4/6 630/4/6 647/4/6
f 647/4/6 630/4/6 648/4/6
f 610/4/6 598/4/6 649/4/6
f 631/3/6 632/3/6 649/3/6
f 598/3/6 631/3/6 649/3/6
f 632/4/6 643/4/6 650/4/6
f 649/3/6 632/3/6 650/3/6
f 639/4/6 640/4/6 651/4/6
f 651/4/6 640/4/6 652/4/6
f 649/4/6 650/4/6 653/4/6
f 610/4/6 649/4/6 653/4/6
f 650/4/6 643/4/6 654/4/6
f 653/4/6 650/4/6 654/4/6
f 657/4/6 658/4/6 659/4/6
f 659/4/6 658/4/6 660/4/6
f 655/4/6 656/4/6 661/4/6
f 661/4/6 656/4/6 662/4/6
f 657/4/6 659/4/6 663/4/6
f 659/3/6 660/3/6 663/3/6
f 660/4/6 658/4/6 664/4/6
f 663/3/6 660/3/6 664/3/6
f 657/4/6 663/4/6 665/4/6
f 663/4/6 664/4/6 665/4/6
f 664/4/6 658/4/6 666/4/6
f 665/4/6 664/4/6 666/4/6
