# MagicaVoxel @ Ephtracy

# group
o 

# material
mtllib streetlamp-0.mtl
usemtl palette

# normals
vn -1 0 0
vn 1 0 0
vn 0 0 1
vn 0 0 -1
vn 0 -1 0
vn 0 1 0

# texcoords
vt 0.310547 0.5
vt 0.373047 0.5
vt 0.986328 0.5
vt 0.990234 0.5

# verts
v -0.25 -1.7 -0.2
v -0.25 -1.7 -0.7
v -0.25 -1.4 -0.2
v -0.25 -1.4 -0.4
v -0.25 -1.4 -0.5
v -0.25 -1.4 -0.7
v -0.25 -1.3 -0.2
v -0.25 -1.3 -0.4
v -0.25 -1.3 -0.5
v -0.25 -1.3 -0.7
v -0.25 -1.2 -0.2
v -0.25 -1.2 -0.7
v -0.25 0.7 0.6
v -0.25 0.7 0.3
v -0.25 0.8 0.6
v -0.25 0.8 0.3
v -0.15 -1.4 -0.3
v -0.15 -1.4 -0.4
v -0.15 -1.4 -0.5
v -0.15 -1.4 -0.6
v -0.15 -1.3 -0.3
v -0.15 -1.3 -0.4
v -0.15 -1.3 -0.5
v -0.15 -1.3 -0.6
v -0.15 -1.2 -0.3
v -0.15 -1.2 -0.6
v -0.15 0.6 0.6
v -0.15 0.6 0.3
v -0.15 0.7 0.7
v -0.15 0.7 0.6
v -0.15 0.7 0.3
v -0.15 0.7 0.2
v -0.15 0.8 0.7
v -0.15 0.8 0.6
v -0.15 0.8 0.5
v -0.15 0.8 0.4
v -0.15 0.8 0.3
v -0.15 0.8 0.2
v -0.15 1.2 0.5
v -0.15 1.2 0.4
v -0.15 1.3 -0.2
v -0.15 1.3 -0.3
v -0.15 1.3 -0.5
v -0.15 1.3 -0.6
v -0.15 1.4 0.6
v -0.15 1.4 -0.2
v -0.15 1.5 0.6
v -0.15 1.5 0.5
v -0.15 1.5 -0.4
v -0.15 1.5 -0.5
v -0.15 1.6 0.5
v -0.15 1.6 0.3
v -0.15 1.6 -0.2
v -0.15 1.6 -0.4
v -0.15 1.7 0.3
v -0.15 1.7 -0.2
v -0.05 1.1 0.6
v -0.05 1.1 0.5
v -0.05 1.1 0.4
v -0.05 1.1 0.3
v -0.05 1.2 0.5
v -0.05 1.2 0.4
v -0.05 1.2 -0.2
v -0.05 1.2 -0.3
v -0.05 1.3 0.5
v -0.05 1.3 0.4
v -0.05 1.3 0.3
v -0.05 1.3 0
v -0.05 1.3 -0.2
v -0.05 1.3 -0.3
v -0.05 1.3 -0.5
v -0.05 1.3 -0.6
v -0.05 1.4 0.7
v -0.05 1.4 0.6
v -0.05 1.4 0.5
v -0.05 1.4 0
v -0.05 1.4 -0.2
v -0.05 1.5 0.7
v -0.05 1.5 0.6
v -0.05 1.5 0.5
v -0.05 1.5 -0.4
v -0.05 1.5 -0.5
v -0.05 1.5 -0.6
v -0.05 1.6 0.6
v -0.05 1.6 0.5
v -0.05 1.6 0.4
v -0.05 1.6 0.3
v -0.05 1.6 -0.2
v -0.05 1.6 -0.4
v -0.05 1.6 -0.5
v -0.05 1.7 0.4
v -0.05 1.7 0.3
v -0.05 1.7 -0.2
v -0.05 1.7 -0.4
v 0.05 0.8 0.5
v 0.05 0.8 0.4
v 0.05 1.1 0.5
v 0.05 1.1 0.4
v -0.05 0.8 0.5
v -0.05 0.8 0.4
v -0.05 1.1 0.5
v -0.05 1.1 0.4
v 0.05 1.1 0.6
v 0.05 1.1 0.5
v 0.05 1.1 0.4
v 0.05 1.1 0.3
v 0.05 1.2 0.5
v 0.05 1.2 0.4
v 0.05 1.2 -0.2
v 0.05 1.2 -0.3
v 0.05 1.3 0.5
v 0.05 1.3 0.4
v 0.05 1.3 0.3
v 0.05 1.3 0
v 0.05 1.3 -0.2
v 0.05 1.3 -0.3
v 0.05 1.3 -0.5
v 0.05 1.3 -0.6
v 0.05 1.4 0.7
v 0.05 1.4 0.6
v 0.05 1.4 0.5
v 0.05 1.4 0
v 0.05 1.4 -0.2
v 0.05 1.5 0.7
v 0.05 1.5 0.6
v 0.05 1.5 0.5
v 0.05 1.5 -0.4
v 0.05 1.5 -0.5
v 0.05 1.5 -0.6
v 0.05 1.6 0.6
v 0.05 1.6 0.5
v 0.05 1.6 0.4
v 0.05 1.6 0.3
v 0.05 1.6 -0.2
v 0.05 1.6 -0.4
v 0.05 1.6 -0.5
v 0.05 1.7 0.4
v 0.05 1.7 0.3
v 0.05 1.7 -0.2
v 0.05 1.7 -0.4
v 0.15 -1.4 -0.3
v 0.15 -1.4 -0.4
v 0.15 -1.4 -0.5
v 0.15 -1.4 -0.6
v 0.15 -1.3 -0.3
v 0.15 -1.3 -0.4
v 0.15 -1.3 -0.5
v 0.15 -1.3 -0.6
v 0.15 -1.2 -0.3
v 0.15 -1.2 -0.6
v 0.15 0.6 0.6
v 0.15 0.6 0.3
v 0.15 0.7 0.7
v 0.15 0.7 0.6
v 0.15 0.7 0.3
v 0.15 0.7 0.2
v 0.15 0.8 0.7
v 0.15 0.8 0.6
v 0.15 0.8 0.5
v 0.15 0.8 0.4
v 0.15 0.8 0.3
v 0.15 0.8 0.2
v 0.15 1.2 0.5
v 0.15 1.2 0.4
v 0.15 1.3 -0.2
v 0.15 1.3 -0.3
v 0.15 1.3 -0.5
v 0.15 1.3 -0.6
v 0.15 1.4 0.6
v 0.15 1.4 -0.2
v 0.15 1.5 0.6
v 0.15 1.5 0.5
v 0.15 1.5 -0.4
v 0.15 1.5 -0.5
v 0.15 1.6 0.5
v 0.15 1.6 0.3
v 0.15 1.6 -0.2
v 0.15 1.6 -0.4
v 0.15 1.7 0.3
v 0.15 1.7 -0.2
v 0.25 -1.7 -0.2
v 0.25 -1.7 -0.7
v 0.25 -1.4 -0.2
v 0.25 -1.4 -0.4
v 0.25 -1.4 -0.5
v 0.25 -1.4 -0.7
v 0.25 -1.3 -0.2
v 0.25 -1.3 -0.4
v 0.25 -1.3 -0.5
v 0.25 -1.3 -0.7
v 0.25 -1.2 -0.2
v 0.25 -1.2 -0.7
v 0.25 0.7 0.6
v 0.25 0.7 0.3
v 0.25 0.8 0.6
v 0.25 0.8 0.3
v -0.15 0.7 0.7
v -0.15 0.8 0.7
v -0.05 1.4 0.7
v -0.05 1.5 0.7
v 0.05 1.4 0.7
v 0.05 1.5 0.7
v 0.15 0.7 0.7
v 0.15 0.8 0.7
v -0.25 0.7 0.6
v -0.25 0.8 0.6
v -0.15 0.6 0.6
v -0.15 0.7 0.6
v -0.15 0.8 0.6
v -0.15 1.4 0.6
v -0.15 1.5 0.6
v -0.05 1.1 0.6
v -0.05 1.4 0.6
v -0.05 1.5 0.6
v -0.05 1.6 0.6
v 0.05 1.1 0.6
v 0.05 1.4 0.6
v 0.05 1.5 0.6
v 0.05 1.6 0.6
v 0.15 0.6 0.6
v 0.15 0.7 0.6
v 0.15 0.8 0.6
v 0.15 1.4 0.6
v 0.15 1.5 0.6
v 0.25 0.7 0.6
v 0.25 0.8 0.6
v -0.15 0.8 0.5
v -0.15 1.2 0.5
v -0.15 1.5 0.5
v -0.15 1.6 0.5
v -0.05 0.8 0.5
v -0.05 1.1 0.5
v -0.05 1.2 0.5
v -0.05 1.5 0.5
v -0.05 1.6 0.5
v 0.05 0.8 0.5
v 0.05 1.1 0.5
v 0.05 1.2 0.5
v 0.05 1.5 0.5
v 0.05 1.6 0.5
v 0.15 0.8 0.5
v 0.15 1.2 0.5
v 0.15 1.5 0.5
v 0.15 1.6 0.5
v -0.05 1.6 0.4
v -0.05 1.7 0.4
v 0.05 1.6 0.4
v 0.05 1.7 0.4
v -0.15 1.6 0.3
v -0.15 1.7 0.3
v -0.05 1.6 0.3
v -0.05 1.7 0.3
v 0.05 1.6 0.3
v 0.05 1.7 0.3
v 0.15 1.6 0.3
v 0.15 1.7 0.3
v -0.05 1.3 0
v -0.05 1.4 0
v 0.05 1.3 0
v 0.05 1.4 0
v -0.25 -1.7 -0.2
v -0.25 -1.4 -0.2
v -0.25 -1.3 -0.2
v -0.25 -1.2 -0.2
v -0.15 1.3 -0.2
v -0.15 1.4 -0.2
v -0.05 1.2 -0.2
v -0.05 1.3 -0.2
v -0.05 1.4 -0.2
v 0.05 1.2 -0.2
v 0.05 1.3 -0.2
v 0.05 1.4 -0.2
v 0.15 1.3 -0.2
v 0.15 1.4 -0.2
v 0.25 -1.7 -0.2
v 0.25 -1.4 -0.2
v 0.25 -1.3 -0.2
v 0.25 -1.2 -0.2
v -0.15 -1.4 -0.3
v -0.15 -1.3 -0.3
v -0.15 -1.2 -0.3
v -0.15 1.3 -0.3
v -0.05 1.2 -0.3
v -0.05 1.3 -0.3
v 0.05 1.2 -0.3
v 0.05 1.3 -0.3
v 0.15 -1.4 -0.3
v 0.15 -1.3 -0.3
v 0.15 -1.2 -0.3
v 0.15 1.3 -0.3
v -0.25 -1.4 -0.4
v -0.25 -1.3 -0.4
v -0.15 -1.4 -0.4
v -0.15 -1.3 -0.4
v 0.15 -1.4 -0.4
v 0.15 -1.3 -0.4
v 0.25 -1.4 -0.4
v 0.25 -1.3 -0.4
v -0.05 1.3 0.5
v -0.05 1.4 0.5
v 0.05 1.3 0.5
v 0.05 1.4 0.5
v -0.15 0.8 0.4
v -0.15 1.2 0.4
v -0.05 0.8 0.4
v -0.05 1.1 0.4
v -0.05 1.2 0.4
v 0.05 0.8 0.4
v 0.05 1.1 0.4
v 0.05 1.2 0.4
v 0.15 0.8 0.4
v 0.15 1.2 0.4
v -0.25 0.7 0.3
v -0.25 0.8 0.3
v -0.15 0.6 0.3
v -0.15 0.7 0.3
v -0.15 0.8 0.3
v -0.05 1.1 0.3
v -0.05 1.3 0.3
v 0.05 1.1 0.3
v 0.05 1.3 0.3
v 0.15 0.6 0.3
v 0.15 0.7 0.3
v 0.15 0.8 0.3
v 0.25 0.7 0.3
v 0.25 0.8 0.3
v -0.15 0.7 0.2
v -0.15 0.8 0.2
v 0.15 0.7 0.2
v 0.15 0.8 0.2
v -0.15 1.6 -0.2
v -0.15 1.7 -0.2
v -0.05 1.6 -0.2
v -0.05 1.7 -0.2
v 0.05 1.6 -0.2
v 0.05 1.7 -0.2
v 0.15 1.6 -0.2
v 0.15 1.7 -0.2
v -0.15 1.5 -0.4
v -0.15 1.6 -0.4
v -0.05 1.5 -0.4
v -0.05 1.6 -0.4
v -0.05 1.7 -0.4
v 0.05 1.5 -0.4
v 0.05 1.6 -0.4
v 0.05 1.7 -0.4
v 0.15 1.5 -0.4
v 0.15 1.6 -0.4
v -0.25 -1.4 -0.5
v -0.25 -1.3 -0.5
v -0.15 -1.4 -0.5
v -0.15 -1.3 -0.5
v -0.15 1.3 -0.5
v -0.15 1.5 -0.5
v -0.05 1.3 -0.5
v -0.05 1.5 -0.5
v -0.05 1.6 -0.5
v 0.05 1.3 -0.5
v 0.05 1.5 -0.5
v 0.05 1.6 -0.5
v 0.15 -1.4 -0.5
v 0.15 -1.3 -0.5
v 0.15 1.3 -0.5
v 0.15 1.5 -0.5
v 0.25 -1.4 -0.5
v 0.25 -1.3 -0.5
v -0.15 -1.4 -0.6
v -0.15 -1.3 -0.6
v -0.15 -1.2 -0.6
v -0.15 1.3 -0.6
v -0.05 1.3 -0.6
v -0.05 1.5 -0.6
v 0.05 1.3 -0.6
v 0.05 1.5 -0.6
v 0.15 -1.4 -0.6
v 0.15 -1.3 -0.6
v 0.15 -1.2 -0.6
v 0.15 1.3 -0.6
v -0.25 -1.7 -0.7
v -0.25 -1.4 -0.7
v -0.25 -1.3 -0.7
v -0.25 -1.2 -0.7
v 0.25 -1.7 -0.7
v 0.25 -1.4 -0.7
v 0.25 -1.3 -0.7
v 0.25 -1.2 -0.7
v -0.25 -1.7 -0.2
v 0.25 -1.7 -0.2
v -0.25 -1.7 -0.7
v 0.25 -1.7 -0.7
v -0.25 -1.3 -0.2
v 0.25 -1.3 -0.2
v -0.15 -1.3 -0.3
v 0.15 -1.3 -0.3
v -0.25 -1.3 -0.4
v -0.15 -1.3 -0.4
v 0.15 -1.3 -0.4
v 0.25 -1.3 -0.4
v -0.25 -1.3 -0.5
v -0.15 -1.3 -0.5
v 0.15 -1.3 -0.5
v 0.25 -1.3 -0.5
v -0.15 -1.3 -0.6
v 0.15 -1.3 -0.6
v -0.25 -1.3 -0.7
v 0.25 -1.3 -0.7
v -0.15 0.6 0.6
v 0.15 0.6 0.6
v -0.15 0.6 0.3
v 0.15 0.6 0.3
v -0.15 0.7 0.7
v 0.15 0.7 0.7
v -0.25 0.7 0.6
v -0.15 0.7 0.6
v 0.15 0.7 0.6
v 0.25 0.7 0.6
v -0.25 0.7 0.3
v -0.15 0.7 0.3
v 0.15 0.7 0.3
v 0.25 0.7 0.3
v -0.15 0.7 0.2
v 0.15 0.7 0.2
v -0.05 1.1 0.6
v 0.05 1.1 0.6
v -0.05 1.1 0.5
v 0.05 1.1 0.5
v -0.05 1.1 0.4
v 0.05 1.1 0.4
v -0.05 1.1 0.3
v 0.05 1.1 0.3
v -0.05 1.2 -0.2
v 0.05 1.2 -0.2
v -0.05 1.2 -0.3
v 0.05 1.2 -0.3
v -0.05 1.3 0
v 0.05 1.3 0
v -0.15 1.3 -0.2
v -0.05 1.3 -0.2
v 0.05 1.3 -0.2
v 0.15 1.3 -0.2
v -0.15 1.3 -0.3
v -0.05 1.3 -0.3
v 0.05 1.3 -0.3
v 0.15 1.3 -0.3
v -0.05 1.4 0.7
v 0.05 1.4 0.7
v -0.15 1.4 0.6
v -0.05 1.4 0.6
v 0.05 1.4 0.6
v 0.15 1.4 0.6
v -0.05 1.4 0.5
v 0.05 1.4 0.5
v -0.05 1.4 0
v 0.05 1.4 0
v -0.15 1.4 -0.2
v -0.05 1.4 -0.2
v 0.05 1.4 -0.2
v 0.15 1.4 -0.2
v -0.25 -1.4 -0.2
v 0.25 -1.4 -0.2
v -0.15 -1.4 -0.3
v 0.15 -1.4 -0.3
v -0.25 -1.4 -0.4
v -0.15 -1.4 -0.4
v 0.15 -1.4 -0.4
v 0.25 -1.4 -0.4
v -0.25 -1.4 -0.5
v -0.15 -1.4 -0.5
v 0.15 -1.4 -0.5
v 0.25 -1.4 -0.5
v -0.15 -1.4 -0.6
v 0.15 -1.4 -0.6
v -0.25 -1.4 -0.7
v 0.25 -1.4 -0.7
v -0.25 -1.2 -0.2
v 0.25 -1.2 -0.2
v -0.15 -1.2 -0.3
v 0.15 -1.2 -0.3
v -0.15 -1.2 -0.6
v 0.15 -1.2 -0.6
v -0.25 -1.2 -0.7
v 0.25 -1.2 -0.7
v -0.15 0.8 0.7
v 0.15 0.8 0.7
v -0.25 0.8 0.6
v -0.15 0.8 0.6
v 0.15 0.8 0.6
v 0.25 0.8 0.6
v -0.15 0.8 0.5
v -0.05 0.8 0.5
v 0.05 0.8 0.5
v 0.15 0.8 0.5
v -0.15 0.8 0.4
v -0.05 0.8 0.4
v 0.05 0.8 0.4
v 0.15 0.8 0.4
v -0.25 0.8 0.3
v -0.15 0.8 0.3
v 0.15 0.8 0.3
v 0.25 0.8 0.3
v -0.15 0.8 0.2
v 0.15 0.8 0.2
v -0.15 1.2 0.5
v -0.05 1.2 0.5
v 0.05 1.2 0.5
v 0.15 1.2 0.5
v -0.15 1.2 0.4
v -0.05 1.2 0.4
v 0.05 1.2 0.4
v 0.15 1.2 0.4
v -0.05 1.3 0.5
v 0.05 1.3 0.5
v -0.05 1.3 0.4
v 0.05 1.3 0.4
v -0.05 1.3 0.3
v 0.05 1.3 0.3
v -0.15 1.3 -0.5
v -0.05 1.3 -0.5
v 0.05 1.3 -0.5
v 0.15 1.3 -0.5
v -0.15 1.3 -0.6
v -0.05 1.3 -0.6
v 0.05 1.3 -0.6
v 0.15 1.3 -0.6
v -0.05 1.5 0.7
v 0.05 1.5 0.7
v -0.15 1.5 0.6
v -0.05 1.5 0.6
v 0.05 1.5 0.6
v 0.15 1.5 0.6
v -0.15 1.5 0.5
v -0.05 1.5 0.5
v 0.05 1.5 0.5
v 0.15 1.5 0.5
v -0.15 1.5 -0.4
v -0.05 1.5 -0.4
v 0.05 1.5 -0.4
v 0.15 1.5 -0.4
v -0.15 1.5 -0.5
v -0.05 1.5 -0.5
v 0.05 1.5 -0.5
v 0.15 1.5 -0.5
v -0.05 1.5 -0.6
v 0.05 1.5 -0.6
v -0.05 1.6 0.6
v 0.05 1.6 0.6
v -0.15 1.6 0.5
v -0.05 1.6 0.5
v 0.05 1.6 0.5
v 0.15 1.6 0.5
v -0.05 1.6 0.4
v 0.05 1.6 0.4
v -0.15 1.6 0.3
v -0.05 1.6 0.3
v 0.05 1.6 0.3
v 0.15 1.6 0.3
v -0.15 1.6 -0.2
v -0.05 1.6 -0.2
v 0.05 1.6 -0.2
v 0.15 1.6 -0.2
v -0.15 1.6 -0.4
v -0.05 1.6 -0.4
v 0.05 1.6 -0.4
v 0.15 1.6 -0.4
v -0.05 1.6 -0.5
v 0.05 1.6 -0.5
v -0.05 1.7 0.4
v 0.05 1.7 0.4
v -0.15 1.7 0.3
v -0.05 1.7 0.3
v 0.05 1.7 0.3
v 0.15 1.7 0.3
v -0.15 1.7 -0.2
v -0.05 1.7 -0.2
v 0.05 1.7 -0.2
v 0.15 1.7 -0.2
v -0.05 1.7 -0.4
v 0.05 1.7 -0.4

# faces
f 3/3/1 2/3/1 1/3/1
f 4/3/1 2/3/1 3/3/1
f 5/3/1 2/3/1 4/3/1
f 6/3/1 2/3/1 5/3/1
f 8/3/1 5/3/1 4/3/1
f 9/3/1 5/3/1 8/3/1
f 11/3/1 8/3/1 7/3/1
f 11/3/1 10/3/1 9/3/1
f 11/3/1 9/3/1 8/3/1
f 12/3/1 10/3/1 11/3/1
f 15/3/1 14/3/1 13/3/1
f 16/3/1 14/3/1 15/3/1
f 21/1/1 18/1/1 17/1/1
f 22/1/1 18/1/1 21/1/1
f 23/1/1 20/1/1 19/1/1
f 24/1/1 20/1/1 23/1/1
f 30/3/1 28/3/1 27/3/1
f 31/3/1 28/3/1 30/3/1
f 33/3/1 30/3/1 29/3/1
f 34/3/1 30/3/1 33/3/1
f 37/3/1 32/3/1 31/3/1
f 38/3/1 32/3/1 37/3/1
f 39/4/1 36/4/1 35/4/1
f 40/4/1 36/4/1 39/4/1
f 42/1/1 26/1/1 25/1/1
f 43/1/1 26/1/1 42/1/1
f 44/1/1 26/1/1 43/1/1
f 46/1/1 42/1/1 41/1/1
f 46/1/1 43/1/1 42/1/1
f 47/1/1 46/1/1 45/1/1
f 48/1/1 46/1/1 47/1/1
f 49/1/1 43/1/1 46/1/1
f 49/1/1 46/1/1 48/1/1
f 50/1/1 43/1/1 49/1/1
f 51/1/1 49/1/1 48/1/1
f 52/1/1 49/1/1 51/1/1
f 53/1/1 49/1/1 52/1/1
f 54/1/1 49/1/1 53/1/1
f 55/1/1 53/1/1 52/1/1
f 56/1/1 53/1/1 55/1/1
f 61/3/1 58/3/1 57/3/1
f 62/3/1 60/3/1 59/3/1
f 65/3/1 61/3/1 57/3/1
f 65/4/1 62/4/1 61/4/1
f 66/3/1 60/3/1 62/3/1
f 66/4/1 62/4/1 65/4/1
f 67/3/1 60/3/1 66/3/1
f 69/1/1 64/1/1 63/1/1
f 70/1/1 64/1/1 69/1/1
f 74/3/1 65/3/1 57/3/1
f 75/3/1 65/3/1 74/3/1
f 76/1/1 69/1/1 68/1/1
f 77/1/1 69/1/1 76/1/1
f 78/1/1 74/1/1 73/1/1
f 79/1/1 74/1/1 78/1/1
f 82/1/1 72/1/1 71/1/1
f 83/1/1 72/1/1 82/1/1
f 84/1/1 80/1/1 79/1/1
f 85/1/1 80/1/1 84/1/1
f 89/1/1 82/1/1 81/1/1
f 90/1/1 82/1/1 89/1/1
f 91/1/1 87/1/1 86/1/1
f 92/1/1 87/1/1 91/1/1
f 93/1/1 89/1/1 88/1/1
f 94/1/1 89/1/1 93/1/1
f 97/4/1 96/4/1 95/4/1
f 98/4/1 96/4/1 97/4/1
f 99/4/2 100/4/2 101/4/2
f 101/4/2 100/4/2 102/4/2
f 103/3/2 104/3/2 107/3/2
f 105/3/2 106/3/2 108/3/2
f 103/3/2 107/3/2 111/3/2
f 107/4/2 108/4/2 111/4/2
f 108/3/2 106/3/2 112/3/2
f 111/4/2 108/4/2 112/4/2
f 112/3/2 106/3/2 113/3/2
f 109/1/2 110/1/2 115/1/2
f 115/1/2 110/1/2 116/1/2
f 103/3/2 111/3/2 120/3/2
f 120/3/2 111/3/2 121/3/2
f 114/1/2 115/1/2 122/1/2
f 122/1/2 115/1/2 123/1/2
f 119/1/2 120/1/2 124/1/2
f 124/1/2 120/1/2 125/1/2
f 117/1/2 118/1/2 128/1/2
f 128/1/2 118/1/2 129/1/2
f 125/1/2 126/1/2 130/1/2
f 130/1/2 126/1/2 131/1/2
f 127/1/2 128/1/2 135/1/2
f 135/1/2 128/1/2 136/1/2
f 132/1/2 133/1/2 137/1/2
f 137/1/2 133/1/2 138/1/2
f 134/1/2 135/1/2 139/1/2
f 139/1/2 135/1/2 140/1/2
f 141/1/2 142/1/2 145/1/2
f 145/1/2 142/1/2 146/1/2
f 143/1/2 144/1/2 147/1/2
f 147/1/2 144/1/2 148/1/2
f 151/3/2 152/3/2 154/3/2
f 154/3/2 152/3/2 155/3/2
f 153/3/2 154/3/2 157/3/2
f 157/3/2 154/3/2 158/3/2
f 155/3/2 156/3/2 161/3/2
f 161/3/2 156/3/2 162/3/2
f 159/4/2 160/4/2 163/4/2
f 163/4/2 160/4/2 164/4/2
f 149/1/2 150/1/2 166/1/2
f 166/1/2 150/1/2 167/1/2
f 167/1/2 150/1/2 168/1/2
f 165/1/2 166/1/2 170/1/2
f 166/1/2 167/1/2 170/1/2
f 169/1/2 170/1/2 171/1/2
f 171/1/2 170/1/2 172/1/2
f 170/1/2 167/1/2 173/1/2
f 172/1/2 170/1/2 173/1/2
f 173/1/2 167/1/2 174/1/2
f 172/1/2 173/1/2 175/1/2
f 175/1/2 173/1/2 176/1/2
f 176/1/2 173/1/2 177/1/2
f 177/1/2 173/1/2 178/1/2
f 176/1/2 177/1/2 179/1/2
f 179/1/2 177/1/2 180/1/2
f 181/3/2 182/3/2 183/3/2
f 183/3/2 182/3/2 184/3/2
f 184/3/2 182/3/2 185/3/2
f 185/3/2 182/3/2 186/3/2
f 184/3/2 185/3/2 188/3/2
f 188/3/2 185/3/2 189/3/2
f 187/3/2 188/3/2 191/3/2
f 189/3/2 190/3/2 191/3/2
f 188/3/2 189/3/2 191/3/2
f 191/3/2 190/3/2 192/3/2
f 193/3/2 194/3/2 195/3/2
f 195/3/2 194/3/2 196/3/2
f 201/1/3 200/1/3 199/1/3
f 202/1/3 200/1/3 201/1/3
f 203/3/3 198/3/3 197/3/3
f 204/3/3 198/3/3 203/3/3
f 208/3/3 206/3/3 205/3/3
f 209/3/3 206/3/3 208/3/3
f 213/1/3 211/1/3 210/1/3
f 214/1/3 211/1/3 213/1/3
f 216/3/3 213/3/3 212/3/3
f 217/3/3 213/3/3 216/3/3
f 218/1/3 215/1/3 214/1/3
f 219/1/3 215/1/3 218/1/3
f 220/3/3 208/3/3 207/3/3
f 221/3/3 208/3/3 220/3/3
f 223/1/3 218/1/3 217/1/3
f 224/1/3 218/1/3 223/1/3
f 225/3/3 222/3/3 221/3/3
f 226/3/3 222/3/3 225/3/3
f 231/4/3 228/4/3 227/4/3
f 232/4/3 228/4/3 231/4/3
f 233/4/3 228/4/3 232/4/3
f 234/1/3 230/1/3 229/1/3
f 235/1/3 230/1/3 234/1/3
f 241/4/3 237/4/3 236/4/3
f 241/4/3 238/4/3 237/4/3
f 242/4/3 238/4/3 241/4/3
f 243/1/3 240/1/3 239/1/3
f 244/1/3 240/1/3 243/1/3
f 247/1/3 246/1/3 245/1/3
f 248/1/3 246/1/3 247/1/3
f 251/1/3 250/1/3 249/1/3
f 252/1/3 250/1/3 251/1/3
f 255/1/3 254/1/3 253/1/3
f 256/1/3 254/1/3 255/1/3
f 259/1/3 258/1/3 257/1/3
f 260/1/3 258/1/3 259/1/3
f 268/1/3 266/1/3 265/1/3
f 269/1/3 266/1/3 268/1/3
f 270/1/3 268/1/3 267/1/3
f 271/1/3 268/1/3 270/1/3
f 273/1/3 272/1/3 271/1/3
f 274/1/3 272/1/3 273/1/3
f 275/3/3 262/3/3 261/3/3
f 276/3/3 262/3/3 275/3/3
f 277/3/3 264/3/3 263/3/3
f 278/3/3 264/3/3 277/3/3
f 283/1/3 282/1/3 281/1/3
f 284/1/3 282/1/3 283/1/3
f 285/1/3 283/1/3 281/1/3
f 287/1/3 280/1/3 279/1/3
f 288/1/3 280/1/3 287/1/3
f 289/1/3 286/1/3 285/1/3
f 289/1/3 285/1/3 281/1/3
f 290/1/3 286/1/3 289/1/3
f 293/3/3 292/3/3 291/3/3
f 294/3/3 292/3/3 293/3/3
f 297/3/3 296/3/3 295/3/3
f 298/3/3 296/3/3 297/3/3
f 299/3/4 300/3/4 301/3/4
f 301/3/4 300/3/4 302/3/4
f 303/4/4 304/4/4 305/4/4
f 305/4/4 304/4/4 306/4/4
f 306/4/4 304/4/4 307/4/4
f 308/4/4 309/4/4 311/4/4
f 309/4/4 310/4/4 311/4/4
f 311/4/4 310/4/4 312/4/4
f 313/3/4 314/3/4 316/3/4
f 316/3/4 314/3/4 317/3/4
f 318/3/4 319/3/4 320/3/4
f 320/3/4 319/3/4 321/3/4
f 315/3/4 316/3/4 322/3/4
f 322/3/4 316/3/4 323/3/4
f 323/3/4 324/3/4 325/3/4
f 325/3/4 324/3/4 326/3/4
f 327/3/4 328/3/4 329/3/4
f 329/3/4 328/3/4 330/3/4
f 331/1/4 332/1/4 333/1/4
f 333/1/4 332/1/4 334/1/4
f 335/1/4 336/1/4 337/1/4
f 337/1/4 336/1/4 338/1/4
f 339/1/4 340/1/4 341/1/4
f 341/1/4 340/1/4 342/1/4
f 342/1/4 343/1/4 345/1/4
f 345/1/4 343/1/4 346/1/4
f 344/1/4 345/1/4 347/1/4
f 347/1/4 345/1/4 348/1/4
f 349/3/4 350/3/4 351/3/4
f 351/3/4 350/3/4 352/3/4
f 353/1/4 354/1/4 355/1/4
f 355/1/4 354/1/4 356/1/4
f 356/1/4 357/1/4 359/1/4
f 359/1/4 357/1/4 360/1/4
f 358/1/4 359/1/4 363/1/4
f 363/1/4 359/1/4 364/1/4
f 361/3/4 362/3/4 365/3/4
f 365/3/4 362/3/4 366/3/4
f 369/1/4 370/1/4 371/1/4
f 369/1/4 371/1/4 373/1/4
f 371/1/4 372/1/4 373/1/4
f 373/1/4 372/1/4 374/1/4
f 367/1/4 368/1/4 375/1/4
f 375/1/4 368/1/4 376/1/4
f 369/1/4 373/1/4 377/1/4
f 377/1/4 373/1/4 378/1/4
f 379/3/4 380/3/4 383/3/4
f 383/3/4 380/3/4 384/3/4
f 381/3/4 382/3/4 385/3/4
f 385/3/4 382/3/4 386/3/4
f 389/3/5 388/3/5 387/3/5
f 390/3/5 388/3/5 389/3/5
f 393/3/5 392/3/5 391/3/5
f 394/3/5 392/3/5 393/3/5
f 395/3/5 393/3/5 391/3/5
f 396/3/5 393/3/5 395/3/5
f 397/3/5 392/3/5 394/3/5
f 398/3/5 392/3/5 397/3/5
f 403/3/5 400/3/5 399/3/5
f 404/3/5 402/3/5 401/3/5
f 405/3/5 403/3/5 399/3/5
f 405/3/5 404/3/5 403/3/5
f 406/3/5 402/3/5 404/3/5
f 406/3/5 404/3/5 405/3/5
f 409/3/5 408/3/5 407/3/5
f 410/3/5 408/3/5 409/3/5
f 414/3/5 412/3/5 411/3/5
f 415/3/5 412/3/5 414/3/5
f 417/3/5 414/3/5 413/3/5
f 418/3/5 414/3/5 417/3/5
f 419/3/5 416/3/5 415/3/5
f 420/3/5 416/3/5 419/3/5
f 421/3/5 419/3/5 418/3/5
f 422/3/5 419/3/5 421/3/5
f 425/3/5 424/3/5 423/3/5
f 426/3/5 424/3/5 425/3/5
f 427/3/5 426/3/5 425/3/5
f 428/3/5 426/3/5 427/3/5
f 429/3/5 428/3/5 427/3/5
f 430/3/5 428/3/5 429/3/5
f 433/1/5 432/1/5 431/1/5
f 434/1/5 432/1/5 433/1/5
f 438/1/5 436/1/5 435/1/5
f 439/1/5 436/1/5 438/1/5
f 441/1/5 438/1/5 437/1/5
f 442/1/5 438/1/5 441/1/5
f 443/1/5 440/1/5 439/1/5
f 444/1/5 440/1/5 443/1/5
f 448/1/5 446/1/5 445/1/5
f 449/1/5 446/1/5 448/1/5
f 451/1/5 448/1/5 447/1/5
f 452/1/5 450/1/5 449/1/5
f 453/1/5 451/1/5 447/1/5
f 453/1/5 452/1/5 451/1/5
f 454/1/5 450/1/5 452/1/5
f 454/1/5 452/1/5 453/1/5
f 455/1/5 453/1/5 447/1/5
f 456/1/5 453/1/5 455/1/5
f 457/1/5 450/1/5 454/1/5
f 458/1/5 450/1/5 457/1/5
f 459/3/6 460/3/6 461/3/6
f 461/3/6 460/3/6 462/3/6
f 459/3/6 461/3/6 463/3/6
f 463/3/6 461/3/6 464/3/6
f 462/3/6 460/3/6 465/3/6
f 465/3/6 460/3/6 466/3/6
f 467/3/6 468/3/6 471/3/6
f 469/3/6 470/3/6 472/3/6
f 467/3/6 471/3/6 473/3/6
f 471/3/6 472/3/6 473/3/6
f 472/3/6 470/3/6 474/3/6
f 473/3/6 472/3/6 474/3/6
f 475/3/6 476/3/6 477/3/6
f 477/3/6 476/3/6 478/3/6
f 475/3/6 477/3/6 479/3/6
f 478/3/6 476/3/6 480/3/6
f 475/3/6 479/3/6 481/3/6
f 479/3/6 480/3/6 481/3/6
f 480/3/6 476/3/6 482/3/6
f 481/3/6 480/3/6 482/3/6
f 483/3/6 484/3/6 486/3/6
f 486/3/6 484/3/6 487/3/6
f 485/3/6 486/3/6 489/3/6
f 486/2/6 487/2/6 489/2/6
f 489/2/6 487/2/6 490/2/6
f 490/2/6 487/2/6 491/2/6
f 487/3/6 488/3/6 492/3/6
f 491/2/6 487/2/6 492/2/6
f 485/3/6 489/3/6 493/3/6
f 490/2/6 491/2/6 494/2/6
f 494/2/6 491/2/6 495/2/6
f 492/3/6 488/3/6 496/3/6
f 485/3/6 493/3/6 497/3/6
f 495/2/6 496/2/6 498/2/6
f 497/3/6 493/3/6 498/3/6
f 494/2/6 495/2/6 498/2/6
f 493/2/6 494/2/6 498/2/6
f 496/3/6 488/3/6 499/3/6
f 498/2/6 496/2/6 499/2/6
f 499/3/6 488/3/6 500/3/6
f 498/3/6 499/3/6 501/3/6
f 501/3/6 499/3/6 502/3/6
f 503/4/6 504/4/6 507/4/6
f 507/4/6 504/4/6 508/4/6
f 505/4/6 506/4/6 509/4/6
f 509/4/6 506/4/6 510/4/6
f 511/4/6 512/4/6 513/4/6
f 513/4/6 512/4/6 514/4/6
f 513/3/6 514/3/6 515/3/6
f 515/3/6 514/3/6 516/3/6
f 517/1/6 518/1/6 521/1/6
f 521/1/6 518/1/6 522/1/6
f 519/1/6 520/1/6 523/1/6
f 523/1/6 520/1/6 524/1/6
f 525/1/6 526/1/6 528/1/6
f 528/1/6 526/1/6 529/1/6
f 527/1/6 528/1/6 531/1/6
f 531/1/6 528/1/6 532/1/6
f 529/1/6 530/1/6 533/1/6
f 533/1/6 530/1/6 534/1/6
f 535/1/6 536/1/6 539/1/6
f 539/1/6 536/1/6 540/1/6
f 537/1/6 538/1/6 541/1/6
f 541/1/6 538/1/6 542/1/6
f 540/1/6 541/1/6 543/1/6
f 543/1/6 541/1/6 544/1/6
f 545/1/6 546/1/6 548/1/6
f 548/1/6 546/1/6 549/1/6
f 547/1/6 548/1/6 551/1/6
f 549/1/6 550/1/6 551/1/6
f 548/1/6 549/1/6 551/1/6
f 551/1/6 550/1/6 552/1/6
f 547/1/6 551/1/6 553/1/6
f 553/1/6 551/1/6 554/1/6
f 552/1/6 550/1/6 555/1/6
f 555/1/6 550/1/6 556/1/6
f 557/1/6 558/1/6 561/1/6
f 561/1/6 558/1/6 562/1/6
f 559/1/6 560/1/6 563/1/6
f 563/1/6 560/1/6 564/1/6
f 562/1/6 563/1/6 565/1/6
f 565/1/6 563/1/6 566/1/6
f 567/1/6 568/1/6 570/1/6
f 570/1/6 568/1/6 571/1/6
f 569/1/6 570/1/6 573/1/6
f 571/1/6 572/1/6 573/1/6
f 570/1/6 571/1/6 573/1/6
f 573/1/6 572/1/6 574/1/6
f 574/1/6 572/1/6 575/1/6
f 575/1/6 572/1/6 576/1/6
f 574/1/6 575/1/6 577/1/6
f 577/1/6 575/1/6 578/1/6
