# MagicaVoxel @ Ephtracy

# group
o 

# material
mtllib brownMushrooms1-0.mtl
usemtl palette

# normals
vn -1 0 0
vn 1 0 0
vn 0 0 1
vn 0 0 -1
vn 0 -1 0
vn 0 1 0

# texcoords
vt 0.181641 0.5
vt 0.244141 0.5
vt 0.248047 0.5

# verts
v -0.4 -0.1 0.2
v -0.4 -0.1 -0.1
v -0.4 0 0.2
v -0.4 0 -0.1
v -0.3 -0.1 0.3
v -0.3 -0.1 0.2
v -0.3 -0.1 -0.1
v -0.3 -0.1 -0.2
v -0.3 0 0.3
v -0.3 0 0.2
v -0.3 0 -0.1
v -0.3 0 -0.2
v -0.2 -0.4 0.1
v -0.2 -0.4 0
v -0.2 -0.1 0.1
v -0.2 -0.1 0
v 0.1 -0.3 0
v 0.1 -0.3 -0.3
v 0.1 -0.2 0
v 0.1 -0.2 -0.3
v 0.2 -0.4 -0.1
v 0.2 -0.4 -0.2
v 0.2 -0.3 -0.1
v 0.2 -0.3 -0.2
v -0.1 -0.4 0.1
v -0.1 -0.4 0
v -0.1 -0.1 0.1
v -0.1 -0.1 0
v 0 -0.1 0.3
v 0 -0.1 0.2
v 0 -0.1 -0.1
v 0 -0.1 -0.2
v 0 0 0.3
v 0 0 0.2
v 0 0 -0.1
v 0 0 -0.2
v 0.1 -0.1 0.2
v 0.1 -0.1 -0.1
v 0.1 0 0.2
v 0.1 0 -0.1
v 0.3 -0.4 -0.1
v 0.3 -0.4 -0.2
v 0.3 -0.3 -0.1
v 0.3 -0.3 -0.2
v 0.4 -0.3 0
v 0.4 -0.3 -0.2
v 0.4 -0.3 -0.3
v 0.4 -0.2 0
v 0.4 -0.2 -0.2
v 0.4 -0.2 -0.3
v -0.3 -0.1 0.3
v -0.3 0 0.3
v 0 -0.1 0.3
v 0 0 0.3
v -0.4 -0.1 0.2
v -0.4 0 0.2
v -0.3 -0.1 0.2
v -0.3 0 0.2
v 0 -0.1 0.2
v 0 0 0.2
v 0.1 -0.1 0.2
v 0.1 0 0.2
v -0.2 -0.4 0.1
v -0.2 -0.1 0.1
v -0.1 -0.4 0.1
v -0.1 -0.1 0.1
v 0.1 -0.3 0
v 0.1 -0.2 0
v 0.4 -0.3 0
v 0.4 -0.2 0
v 0.2 -0.4 -0.1
v 0.2 -0.3 -0.1
v 0.3 -0.4 -0.1
v 0.3 -0.3 -0.1
v -0.2 -0.4 0
v -0.2 -0.1 0
v -0.1 -0.4 0
v -0.1 -0.1 0
v -0.4 -0.1 -0.1
v -0.4 0 -0.1
v -0.3 -0.1 -0.1
v -0.3 0 -0.1
v 0 -0.1 -0.1
v 0 0 -0.1
v 0.1 -0.1 -0.1
v 0.1 0 -0.1
v -0.3 -0.1 -0.2
v -0.3 0 -0.2
v 0 -0.1 -0.2
v 0 0 -0.2
v 0.2 -0.4 -0.2
v 0.2 -0.3 -0.2
v 0.3 -0.4 -0.2
v 0.3 -0.3 -0.2
v 0.1 -0.3 -0.3
v 0.1 -0.2 -0.3
v 0.3 -0.3 -0.3
v 0.3 -0.2 -0.3
v 0.4 -0.3 -0.3
v 0.4 -0.2 -0.3
v -0.2 -0.4 0.1
v -0.1 -0.4 0.1
v -0.2 -0.4 0
v -0.1 -0.4 0
v 0.2 -0.4 -0.1
v 0.3 -0.4 -0.1
v 0.2 -0.4 -0.2
v 0.3 -0.4 -0.2
v 0.1 -0.3 0
v 0.4 -0.3 0
v 0.2 -0.3 -0.1
v 0.3 -0.3 -0.1
v 0.2 -0.3 -0.2
v 0.3 -0.3 -0.2
v 0.4 -0.3 -0.2
v 0.1 -0.3 -0.3
v 0.3 -0.3 -0.3
v 0.4 -0.3 -0.3
v -0.3 -0.1 0.3
v 0 -0.1 0.3
v -0.4 -0.1 0.2
v -0.3 -0.1 0.2
v -0.1 -0.1 0.2
v 0 -0.1 0.2
v 0.1 -0.1 0.2
v -0.2 -0.1 0.1
v -0.1 -0.1 0.1
v -0.3 -0.1 0
v -0.2 -0.1 0
v -0.1 -0.1 0
v -0.4 -0.1 -0.1
v -0.3 -0.1 -0.1
v 0 -0.1 -0.1
v 0.1 -0.1 -0.1
v -0.3 -0.1 -0.2
v 0 -0.1 -0.2
v 0.1 -0.2 0
v 0.4 -0.2 0
v 0.3 -0.2 -0.2
v 0.4 -0.2 -0.2
v 0.1 -0.2 -0.3
v 0.3 -0.2 -0.3
v 0.4 -0.2 -0.3
v -0.3 0 0.3
v 0 0 0.3
v -0.4 0 0.2
v -0.3 0 0.2
v -0.1 0 0.2
v 0 0 0.2
v 0.1 0 0.2
v -0.2 0 0.1
v -0.1 0 0.1
v -0.3 0 0
v -0.2 0 0
v -0.4 0 -0.1
v -0.3 0 -0.1
v 0 0 -0.1
v 0.1 0 -0.1
v -0.3 0 -0.2
v 0 0 -0.2

# faces
f 3/2/1 2/2/1 1/2/1
f 4/2/1 2/2/1 3/2/1
f 9/2/1 6/2/1 5/2/1
f 10/2/1 6/2/1 9/2/1
f 11/2/1 8/2/1 7/2/1
f 12/2/1 8/2/1 11/2/1
f 15/3/1 14/3/1 13/3/1
f 16/3/1 14/3/1 15/3/1
f 19/2/1 18/2/1 17/2/1
f 20/2/1 18/2/1 19/2/1
f 23/3/1 22/3/1 21/3/1
f 24/3/1 22/3/1 23/3/1
f 25/3/2 26/3/2 27/3/2
f 27/3/2 26/3/2 28/3/2
f 29/2/2 30/2/2 33/2/2
f 33/2/2 30/2/2 34/2/2
f 31/2/2 32/2/2 35/2/2
f 35/2/2 32/2/2 36/2/2
f 37/2/2 38/2/2 39/2/2
f 39/2/2 38/2/2 40/2/2
f 41/3/2 42/3/2 43/3/2
f 43/3/2 42/3/2 44/3/2
f 45/2/2 46/2/2 48/2/2
f 46/1/2 47/1/2 49/1/2
f 48/2/2 46/2/2 49/2/2
f 49/1/2 47/1/2 50/1/2
f 53/2/3 52/2/3 51/2/3
f 54/2/3 52/2/3 53/2/3
f 57/2/3 56/2/3 55/2/3
f 58/2/3 56/2/3 57/2/3
f 61/2/3 60/2/3 59/2/3
f 62/2/3 60/2/3 61/2/3
f 65/3/3 64/3/3 63/3/3
f 66/3/3 64/3/3 65/3/3
f 69/2/3 68/2/3 67/2/3
f 70/2/3 68/2/3 69/2/3
f 73/3/3 72/3/3 71/3/3
f 74/3/3 72/3/3 73/3/3
f 75/3/4 76/3/4 77/3/4
f 77/3/4 76/3/4 78/3/4
f 79/2/4 80/2/4 81/2/4
f 81/2/4 80/2/4 82/2/4
f 83/2/4 84/2/4 85/2/4
f 85/2/4 84/2/4 86/2/4
f 87/2/4 88/2/4 89/2/4
f 89/2/4 88/2/4 90/2/4
f 91/3/4 92/3/4 93/3/4
f 93/3/4 92/3/4 94/3/4
f 95/2/4 96/2/4 97/2/4
f 97/2/4 96/2/4 98/2/4
f 97/1/4 98/1/4 99/1/4
f 99/1/4 98/1/4 100/1/4
f 103/3/5 102/3/5 101/3/5
f 104/3/5 102/3/5 103/3/5
f 107/3/5 106/3/5 105/3/5
f 108/3/5 106/3/5 107/3/5
f 111/2/5 110/2/5 109/2/5
f 112/2/5 110/2/5 111/2/5
f 113/2/5 111/2/5 109/2/5
f 114/2/5 110/2/5 112/2/5
f 115/2/5 110/2/5 114/2/5
f 116/2/5 113/2/5 109/2/5
f 116/2/5 114/2/5 113/2/5
f 117/1/5 115/1/5 114/1/5
f 117/2/5 114/2/5 116/2/5
f 118/1/5 115/1/5 117/1/5
f 122/2/5 120/2/5 119/2/5
f 123/2/5 120/2/5 122/2/5
f 124/2/5 120/2/5 123/2/5
f 126/1/5 123/1/5 122/1/5
f 127/2/5 125/2/5 124/2/5
f 127/1/5 123/1/5 126/1/5
f 127/2/5 124/2/5 123/2/5
f 128/2/5 122/2/5 121/2/5
f 128/1/5 126/1/5 122/1/5
f 129/1/5 126/1/5 128/1/5
f 130/2/5 125/2/5 127/2/5
f 131/2/5 129/2/5 128/2/5
f 131/2/5 130/2/5 129/2/5
f 131/2/5 128/2/5 121/2/5
f 132/2/5 130/2/5 131/2/5
f 133/2/5 125/2/5 130/2/5
f 133/2/5 130/2/5 132/2/5
f 134/2/5 125/2/5 133/2/5
f 135/2/5 133/2/5 132/2/5
f 136/2/5 133/2/5 135/2/5
f 137/2/6 138/2/6 139/2/6
f 139/2/6 138/2/6 140/2/6
f 137/2/6 139/2/6 141/2/6
f 139/1/6 140/1/6 142/1/6
f 141/2/6 139/2/6 142/2/6
f 142/1/6 140/1/6 143/1/6
f 144/2/6 145/2/6 147/2/6
f 147/2/6 145/2/6 148/2/6
f 148/2/6 145/2/6 149/2/6
f 147/1/6 148/1/6 151/1/6
f 149/2/6 150/2/6 152/2/6
f 151/1/6 148/1/6 152/1/6
f 148/2/6 149/2/6 152/2/6
f 146/2/6 147/2/6 153/2/6
f 147/1/6 151/1/6 153/1/6
f 151/2/6 152/2/6 154/2/6
f 153/1/6 151/1/6 154/1/6
f 146/2/6 153/2/6 155/2/6
f 153/2/6 154/2/6 155/2/6
f 155/2/6 154/2/6 156/2/6
f 152/2/6 150/2/6 157/2/6
f 156/2/6 154/2/6 157/2/6
f 154/2/6 152/2/6 157/2/6
f 157/2/6 150/2/6 158/2/6
f 156/2/6 157/2/6 159/2/6
f 159/2/6 157/2/6 160/2/6
