# MagicaVoxel @ Ephtracy

# group
o 

# material
mtllib brownMushroomsWall1-0.mtl
usemtl palette

# normals
vn -1 0 0
vn 1 0 0
vn 0 0 1
vn 0 0 -1
vn 0 -1 0
vn 0 1 0

# texcoords
vt 0.181641 0.5
vt 0.244141 0.5
vt 0.248047 0.5

# verts
v -0.3 0.1 0
v -0.3 0.1 -0.1
v -0.3 0.4 0
v -0.3 0.4 -0.1
v -0.2 0.1 0.2
v -0.2 0.1 0.1
v -0.2 0.2 0.1
v -0.2 0.2 0
v -0.2 0.3 0.2
v -0.2 0.3 0
v 0 0.1 -0.3
v 0 0.1 -0.4
v 0 0.2 -0.3
v 0 0.2 -0.4
v 0 0.4 -0.3
v 0 0.4 -0.4
v 0.1 0.1 0
v 0.1 0.1 -0.1
v 0.1 0.2 -0.1
v 0.1 0.2 -0.3
v 0.1 0.3 0
v 0.1 0.3 -0.3
v -0.1 0.1 0.2
v -0.1 0.1 0.1
v -0.1 0.2 0.1
v -0.1 0.2 0
v -0.1 0.3 0.2
v -0.1 0.3 0
v 0 0.1 0
v 0 0.1 -0.1
v 0 0.2 0
v 0 0.2 -0.1
v 0 0.4 0
v 0 0.4 -0.1
v 0.2 0.1 0
v 0.2 0.1 -0.1
v 0.2 0.2 -0.1
v 0.2 0.2 -0.3
v 0.2 0.3 0
v 0.2 0.3 -0.3
v 0.3 0.1 -0.3
v 0.3 0.1 -0.4
v 0.3 0.2 -0.3
v 0.3 0.2 -0.4
v 0.3 0.4 -0.3
v 0.3 0.4 -0.4
v -0.2 0.1 0.2
v -0.2 0.3 0.2
v -0.1 0.1 0.2
v -0.1 0.3 0.2
v -0.3 0.1 0
v -0.3 0.4 0
v -0.2 0.2 0
v -0.2 0.3 0
v -0.1 0.1 0
v -0.1 0.2 0
v -0.1 0.3 0
v 0 0.1 0
v 0 0.2 0
v 0 0.4 0
v 0.1 0.1 0
v 0.1 0.3 0
v 0.2 0.1 0
v 0.2 0.3 0
v 0 0.1 -0.3
v 0 0.2 -0.3
v 0 0.4 -0.3
v 0.1 0.1 -0.3
v 0.1 0.2 -0.3
v 0.1 0.3 -0.3
v 0.1 0.4 -0.3
v 0.2 0.2 -0.3
v 0.2 0.3 -0.3
v 0.3 0.1 -0.3
v 0.3 0.2 -0.3
v 0.3 0.4 -0.3
v -0.2 0.1 0.1
v -0.2 0.2 0.1
v -0.1 0.1 0.1
v -0.1 0.2 0.1
v -0.3 0.1 -0.1
v -0.3 0.4 -0.1
v -0.1 0.1 -0.1
v -0.1 0.2 -0.1
v 0 0.1 -0.1
v 0 0.2 -0.1
v 0 0.4 -0.1
v 0.1 0.1 -0.1
v 0.1 0.2 -0.1
v 0.2 0.1 -0.1
v 0.2 0.2 -0.1
v 0 0.1 -0.4
v 0 0.2 -0.4
v 0 0.4 -0.4
v 0.1 0.1 -0.4
v 0.1 0.2 -0.4
v 0.1 0.3 -0.4
v 0.1 0.4 -0.4
v 0.2 0.2 -0.4
v 0.2 0.3 -0.4
v 0.3 0.1 -0.4
v 0.3 0.2 -0.4
v 0.3 0.4 -0.4
v -0.2 0.1 0.2
v -0.1 0.1 0.2
v -0.2 0.1 0.1
v -0.1 0.1 0.1
v -0.3 0.1 0
v -0.1 0.1 0
v 0 0.1 0
v 0.1 0.1 0
v 0.2 0.1 0
v -0.3 0.1 -0.1
v -0.1 0.1 -0.1
v 0 0.1 -0.1
v 0.1 0.1 -0.1
v 0.2 0.1 -0.1
v 0 0.1 -0.3
v 0.1 0.1 -0.3
v 0.3 0.1 -0.3
v 0 0.1 -0.4
v 0.1 0.1 -0.4
v 0.3 0.1 -0.4
v -0.2 0.2 0.1
v -0.1 0.2 0.1
v -0.2 0.2 0
v -0.1 0.2 0
v 0.1 0.2 -0.1
v 0.2 0.2 -0.1
v 0.1 0.2 -0.3
v 0.2 0.2 -0.3
v -0.2 0.3 0.2
v -0.1 0.3 0.2
v -0.2 0.3 0
v -0.1 0.3 0
v 0.1 0.3 0
v 0.2 0.3 0
v 0.1 0.3 -0.3
v 0.2 0.3 -0.3
v -0.3 0.4 0
v 0 0.4 0
v -0.3 0.4 -0.1
v 0 0.4 -0.1
v 0 0.4 -0.3
v 0.1 0.4 -0.3
v 0.3 0.4 -0.3
v 0 0.4 -0.4
v 0.1 0.4 -0.4
v 0.3 0.4 -0.4

# faces
f 3/2/1 2/2/1 1/2/1
f 4/2/1 2/2/1 3/2/1
f 7/3/1 6/3/1 5/3/1
f 9/3/1 7/3/1 5/3/1
f 9/3/1 8/3/1 7/3/1
f 10/3/1 8/3/1 9/3/1
f 13/1/1 12/1/1 11/1/1
f 14/1/1 12/1/1 13/1/1
f 15/2/1 14/2/1 13/2/1
f 16/2/1 14/2/1 15/2/1
f 19/3/1 18/3/1 17/3/1
f 21/3/1 19/3/1 17/3/1
f 21/3/1 20/3/1 19/3/1
f 22/3/1 20/3/1 21/3/1
f 23/3/2 24/3/2 25/3/2
f 23/3/2 25/3/2 27/3/2
f 25/3/2 26/3/2 27/3/2
f 27/3/2 26/3/2 28/3/2
f 29/1/2 30/1/2 31/1/2
f 31/1/2 30/1/2 32/1/2
f 31/2/2 32/2/2 33/2/2
f 33/2/2 32/2/2 34/2/2
f 35/3/2 36/3/2 37/3/2
f 35/3/2 37/3/2 39/3/2
f 37/3/2 38/3/2 39/3/2
f 39/3/2 38/3/2 40/3/2
f 41/2/2 42/2/2 43/2/2
f 43/2/2 42/2/2 44/2/2
f 43/1/2 44/1/2 45/1/2
f 45/1/2 44/1/2 46/1/2
f 49/3/3 48/3/3 47/3/3
f 50/3/3 48/3/3 49/3/3
f 53/2/3 52/2/3 51/2/3
f 54/2/3 52/2/3 53/2/3
f 55/2/3 53/2/3 51/2/3
f 56/2/3 53/2/3 55/2/3
f 57/2/3 52/2/3 54/2/3
f 58/1/3 56/1/3 55/1/3
f 59/2/3 57/2/3 56/2/3
f 59/1/3 56/1/3 58/1/3
f 60/2/3 52/2/3 57/2/3
f 60/2/3 57/2/3 59/2/3
f 63/3/3 62/3/3 61/3/3
f 64/3/3 62/3/3 63/3/3
f 68/1/3 66/1/3 65/1/3
f 69/2/3 67/2/3 66/2/3
f 69/1/3 66/1/3 68/1/3
f 70/2/3 67/2/3 69/2/3
f 71/2/3 67/2/3 70/2/3
f 72/2/3 69/2/3 68/2/3
f 73/1/3 71/1/3 70/1/3
f 74/2/3 72/2/3 68/2/3
f 75/1/3 73/1/3 72/1/3
f 75/2/3 72/2/3 74/2/3
f 76/1/3 71/1/3 73/1/3
f 76/1/3 73/1/3 75/1/3
f 77/3/4 78/3/4 79/3/4
f 79/3/4 78/3/4 80/3/4
f 81/2/4 82/2/4 83/2/4
f 83/2/4 82/2/4 84/2/4
f 83/1/4 84/1/4 85/1/4
f 84/2/4 82/2/4 86/2/4
f 85/1/4 84/1/4 86/1/4
f 86/2/4 82/2/4 87/2/4
f 88/3/4 89/3/4 90/3/4
f 90/3/4 89/3/4 91/3/4
f 92/1/4 93/1/4 95/1/4
f 93/2/4 94/2/4 96/2/4
f 95/1/4 93/1/4 96/1/4
f 96/2/4 94/2/4 97/2/4
f 97/2/4 94/2/4 98/2/4
f 95/2/4 96/2/4 99/2/4
f 96/2/4 97/2/4 99/2/4
f 97/1/4 98/1/4 100/1/4
f 99/2/4 97/2/4 100/2/4
f 95/2/4 99/2/4 101/2/4
f 99/1/4 100/1/4 102/1/4
f 101/2/4 99/2/4 102/2/4
f 100/1/4 98/1/4 103/1/4
f 102/1/4 100/1/4 103/1/4
f 106/3/5 105/3/5 104/3/5
f 107/3/5 105/3/5 106/3/5
f 113/2/5 109/2/5 108/2/5
f 114/1/5 110/1/5 109/1/5
f 114/2/5 109/2/5 113/2/5
f 115/1/5 110/1/5 114/1/5
f 116/3/5 112/3/5 111/3/5
f 117/3/5 112/3/5 116/3/5
f 121/1/5 119/1/5 118/1/5
f 122/2/5 120/2/5 119/2/5
f 122/1/5 119/1/5 121/1/5
f 123/2/5 120/2/5 122/2/5
f 126/3/5 125/3/5 124/3/5
f 127/3/5 125/3/5 126/3/5
f 130/3/5 129/3/5 128/3/5
f 131/3/5 129/3/5 130/3/5
f 132/3/6 133/3/6 134/3/6
f 134/3/6 133/3/6 135/3/6
f 136/3/6 137/3/6 138/3/6
f 138/3/6 137/3/6 139/3/6
f 140/2/6 141/2/6 142/2/6
f 142/2/6 141/2/6 143/2/6
f 144/2/6 145/2/6 147/2/6
f 145/1/6 146/1/6 148/1/6
f 147/2/6 145/2/6 148/2/6
f 148/1/6 146/1/6 149/1/6
