# MagicaVoxel @ Ephtracy

# group
o 

# material
mtllib cactus2-0.mtl
usemtl palette

# normals
vn -1 0 0
vn 1 0 0
vn 0 0 1
vn 0 0 -1
vn 0 -1 0
vn 0 1 0

# texcoords
vt 0.146484 0.5
vt 0.521484 0.5
vt 0.525391 0.5
vt 0.529297 0.5

# verts
v -0.2 -0.3 -0.1
v -0.2 -0.3 -0.2
v -0.2 -0.2 0.1
v -0.2 -0.2 0
v -0.2 -0.2 -0.1
v -0.2 -0.2 -0.2
v -0.2 -0.1 0.1
v -0.2 -0.1 0
v -0.1 -0.4 0.1
v -0.1 -0.4 -0.1
v -0.1 -0.3 0.1
v -0.1 -0.3 -0.1
v -0.1 -0.2 0.1
v -0.1 -0.2 0
v -0.1 -0.2 -0.1
v -0.1 -0.2 -0.2
v -0.1 -0.1 0
v -0.1 -0.1 -0.1
v -0.1 -0.1 -0.2
v 0 -0.4 0.2
v 0 -0.4 0.1
v 0 -0.3 0.2
v 0 -0.3 0.1
v 0 -0.3 -0.1
v 0 -0.3 -0.2
v 0 -0.2 -0.1
v 0 -0.2 -0.2
v 0 -0.1 -0.1
v 0 -0.1 -0.2
v 0.1 -0.4 0.2
v 0.1 -0.4 0.1
v 0.1 -0.4 -0.1
v 0.1 -0.3 0.2
v 0.1 -0.3 0.1
v 0.1 -0.3 -0.1
v 0.1 -0.2 0.1
v 0.1 -0.2 0
v 0.1 -0.2 -0.1
v 0.1 -0.1 0.1
v 0.1 -0.1 0
v 0.2 -0.2 0
v 0.2 -0.2 -0.1
v 0.2 -0.1 0
v 0.2 -0.1 -0.1
v 0 -0.4 0.2
v 0 -0.3 0.2
v 0.1 -0.4 0.2
v 0.1 -0.3 0.2
v -0.2 -0.2 0.1
v -0.2 -0.1 0.1
v -0.1 -0.4 0.1
v -0.1 -0.3 0.1
v -0.1 -0.2 0.1
v -0.1 -0.1 0.1
v 0 -0.4 0.1
v 0 -0.3 0.1
v 0.1 -0.3 0.1
v 0.1 -0.2 0.1
v 0.1 -0.1 0.1
v 0.1 -0.2 0
v 0.1 -0.1 0
v 0.2 -0.2 0
v 0.2 -0.1 0
v -0.2 -0.3 -0.1
v -0.2 -0.2 -0.1
v -0.1 -0.3 -0.1
v -0.1 -0.2 -0.1
v -0.2 -0.2 0
v -0.2 -0.1 0
v -0.1 -0.2 0
v -0.1 -0.1 0
v -0.1 -0.4 -0.1
v -0.1 -0.3 -0.1
v 0 -0.3 -0.1
v 0 -0.2 -0.1
v 0 -0.1 -0.1
v 0.1 -0.4 -0.1
v 0.1 -0.3 -0.1
v 0.1 -0.2 -0.1
v 0.1 -0.1 -0.1
v 0.2 -0.2 -0.1
v 0.2 -0.1 -0.1
v -0.2 -0.3 -0.2
v -0.2 -0.2 -0.2
v -0.1 -0.3 -0.2
v -0.1 -0.2 -0.2
v -0.1 -0.1 -0.2
v 0 -0.3 -0.2
v 0 -0.2 -0.2
v 0 -0.1 -0.2
v 0 -0.4 0.2
v 0.1 -0.4 0.2
v -0.1 -0.4 0.1
v 0 -0.4 0.1
v 0.1 -0.4 0.1
v -0.1 -0.4 -0.1
v 0.1 -0.4 -0.1
v -0.2 -0.3 -0.1
v -0.1 -0.3 -0.1
v 0 -0.3 -0.1
v -0.2 -0.3 -0.2
v -0.1 -0.3 -0.2
v 0 -0.3 -0.2
v -0.2 -0.2 0.1
v -0.1 -0.2 0.1
v -0.2 -0.2 0
v -0.1 -0.2 0
v 0.1 -0.2 0
v 0.2 -0.2 0
v 0.1 -0.2 -0.1
v 0.2 -0.2 -0.1
v 0 -0.3 0.2
v 0.1 -0.3 0.2
v 0 -0.3 0.1
v 0.1 -0.3 0.1
v -0.2 -0.2 -0.1
v -0.1 -0.2 -0.1
v -0.2 -0.2 -0.2
v -0.1 -0.2 -0.2
v -0.2 -0.1 0.1
v -0.1 -0.1 0.1
v 0.1 -0.1 0.1
v -0.2 -0.1 0
v -0.1 -0.1 0
v 0.1 -0.1 0
v 0.2 -0.1 0
v -0.1 -0.1 -0.1
v 0 -0.1 -0.1
v 0.1 -0.1 -0.1
v 0.2 -0.1 -0.1
v -0.1 -0.1 -0.2
v 0 -0.1 -0.2

# faces
f 5/1/1 2/1/1 1/1/1
f 6/1/1 2/1/1 5/1/1
f 7/2/1 4/2/1 3/2/1
f 8/2/1 4/2/1 7/2/1
f 11/4/1 10/4/1 9/4/1
f 12/4/1 10/4/1 11/4/1
f 13/3/1 12/3/1 11/3/1
f 14/3/1 12/3/1 13/3/1
f 15/3/1 12/3/1 14/3/1
f 17/4/1 15/4/1 14/4/1
f 18/1/1 16/1/1 15/1/1
f 18/4/1 15/4/1 17/4/1
f 19/1/1 16/1/1 18/1/1
f 22/2/1 21/2/1 20/2/1
f 23/2/1 21/2/1 22/2/1
f 24/2/2 25/2/2 26/2/2
f 26/2/2 25/2/2 27/2/2
f 26/1/2 27/1/2 28/1/2
f 28/1/2 27/1/2 29/1/2
f 30/2/2 31/2/2 33/2/2
f 31/4/2 32/4/2 34/4/2
f 33/2/2 31/2/2 34/2/2
f 34/4/2 32/4/2 35/4/2
f 34/3/2 35/3/2 36/3/2
f 36/3/2 35/3/2 37/3/2
f 37/3/2 35/3/2 38/3/2
f 36/4/2 37/4/2 39/4/2
f 39/4/2 37/4/2 40/4/2
f 41/2/2 42/2/2 43/2/2
f 43/2/2 42/2/2 44/2/2
f 47/2/3 46/2/3 45/2/3
f 48/2/3 46/2/3 47/2/3
f 53/2/3 50/2/3 49/2/3
f 54/2/3 50/2/3 53/2/3
f 55/4/3 52/4/3 51/4/3
f 56/3/3 53/3/3 52/3/3
f 56/4/3 52/4/3 55/4/3
f 57/3/3 53/3/3 56/3/3
f 58/4/3 54/4/3 53/4/3
f 58/3/3 53/3/3 57/3/3
f 59/4/3 54/4/3 58/4/3
f 62/2/3 61/2/3 60/2/3
f 63/2/3 61/2/3 62/2/3
f 66/1/3 65/1/3 64/1/3
f 67/1/3 65/1/3 66/1/3
f 68/2/4 69/2/4 70/2/4
f 70/2/4 69/2/4 71/2/4
f 72/4/4 73/4/4 74/4/4
f 72/4/4 74/4/4 77/4/4
f 74/3/4 75/3/4 78/3/4
f 77/4/4 74/4/4 78/4/4
f 75/4/4 76/4/4 79/4/4
f 78/3/4 75/3/4 79/3/4
f 79/4/4 76/4/4 80/4/4
f 79/2/4 80/2/4 81/2/4
f 81/2/4 80/2/4 82/2/4
f 83/1/4 84/1/4 85/1/4
f 85/1/4 84/1/4 86/1/4
f 85/2/4 86/2/4 88/2/4
f 86/1/4 87/1/4 89/1/4
f 88/2/4 86/2/4 89/2/4
f 89/1/4 87/1/4 90/1/4
f 94/2/5 92/2/5 91/2/5
f 95/2/5 92/2/5 94/2/5
f 96/4/5 94/4/5 93/4/5
f 96/4/5 95/4/5 94/4/5
f 97/4/5 95/4/5 96/4/5
f 101/1/5 99/1/5 98/1/5
f 102/2/5 100/2/5 99/2/5
f 102/1/5 99/1/5 101/1/5
f 103/2/5 100/2/5 102/2/5
f 106/2/5 105/2/5 104/2/5
f 107/2/5 105/2/5 106/2/5
f 110/2/5 109/2/5 108/2/5
f 111/2/5 109/2/5 110/2/5
f 112/2/6 113/2/6 114/2/6
f 114/2/6 113/2/6 115/2/6
f 116/1/6 117/1/6 118/1/6
f 118/1/6 117/1/6 119/1/6
f 120/2/6 121/2/6 123/2/6
f 121/4/6 122/4/6 124/4/6
f 123/2/6 121/2/6 124/2/6
f 124/4/6 122/4/6 125/4/6
f 124/4/6 125/4/6 127/4/6
f 127/4/6 125/4/6 128/4/6
f 125/2/6 126/2/6 129/2/6
f 128/4/6 125/4/6 129/4/6
f 129/2/6 126/2/6 130/2/6
f 127/1/6 128/1/6 131/1/6
f 131/1/6 128/1/6 132/1/6
