# MagicaVoxel @ Ephtracy

# group
o 

# material
mtllib darkLilypads1-0.mtl
usemtl palette

# normals
vn -1 0 0
vn 1 0 0
vn 0 0 1
vn 0 0 -1
vn 0 -1 0
vn 0 1 0

# texcoords
vt 0.623047 0.5
vt 0.650391 0.5

# verts
v -0.3 -0.4 0.2
v -0.3 -0.4 -0.2
v -0.3 -0.3 0.2
v -0.3 -0.3 -0.2
v -0.2 -0.4 0.3
v -0.2 -0.4 0.2
v -0.2 -0.4 -0.2
v -0.2 -0.4 -0.3
v -0.2 -0.3 0.3
v -0.2 -0.3 0.2
v -0.2 -0.3 -0.2
v -0.2 -0.3 -0.3
v 0.2 -0.4 0.3
v 0.2 -0.4 0.2
v 0.2 -0.4 -0.2
v 0.2 -0.4 -0.3
v 0.2 -0.3 0.3
v 0.2 -0.3 0.2
v 0.2 -0.3 -0.2
v 0.2 -0.3 -0.3
v 0.3 -0.4 0.2
v 0.3 -0.4 -0.2
v 0.3 -0.3 0.2
v 0.3 -0.3 -0.2
v -0.2 -0.4 0.3
v -0.2 -0.3 0.3
v 0.2 -0.4 0.3
v 0.2 -0.3 0.3
v -0.3 -0.4 0.2
v -0.3 -0.3 0.2
v -0.2 -0.4 0.2
v -0.2 -0.3 0.2
v 0.2 -0.4 0.2
v 0.2 -0.3 0.2
v 0.3 -0.4 0.2
v 0.3 -0.3 0.2
v -0.3 -0.4 -0.2
v -0.3 -0.3 -0.2
v -0.2 -0.4 -0.2
v -0.2 -0.3 -0.2
v 0.2 -0.4 -0.2
v 0.2 -0.3 -0.2
v 0.3 -0.4 -0.2
v 0.3 -0.3 -0.2
v -0.2 -0.4 -0.3
v -0.2 -0.3 -0.3
v 0.2 -0.4 -0.3
v 0.2 -0.3 -0.3
v -0.2 -0.4 0.3
v 0.2 -0.4 0.3
v -0.3 -0.4 0.2
v -0.2 -0.4 0.2
v -0.1 -0.4 0.2
v 0.1 -0.4 0.2
v 0.2 -0.4 0.2
v 0.3 -0.4 0.2
v -0.2 -0.4 0.1
v -0.1 -0.4 0.1
v 0 -0.4 0.1
v 0.1 -0.4 0.1
v 0.2 -0.4 0.1
v 0 -0.4 0
v 0.1 -0.4 0
v -0.2 -0.4 -0.1
v -0.1 -0.4 -0.1
v 0.1 -0.4 -0.1
v 0.2 -0.4 -0.1
v -0.3 -0.4 -0.2
v -0.2 -0.4 -0.2
v -0.1 -0.4 -0.2
v 0.1 -0.4 -0.2
v 0.2 -0.4 -0.2
v 0.3 -0.4 -0.2
v -0.2 -0.4 -0.3
v 0.2 -0.4 -0.3
v -0.2 -0.3 0.3
v 0.2 -0.3 0.3
v -0.3 -0.3 0.2
v -0.2 -0.3 0.2
v -0.1 -0.3 0.2
v 0.1 -0.3 0.2
v 0.2 -0.3 0.2
v 0.3 -0.3 0.2
v -0.2 -0.3 0.1
v -0.1 -0.3 0.1
v 0 -0.3 0.1
v 0.1 -0.3 0.1
v 0.2 -0.3 0.1
v 0 -0.3 0
v 0.1 -0.3 0
v -0.2 -0.3 -0.1
v -0.1 -0.3 -0.1
v 0.1 -0.3 -0.1
v 0.2 -0.3 -0.1
v -0.3 -0.3 -0.2
v -0.2 -0.3 -0.2
v -0.1 -0.3 -0.2
v 0.1 -0.3 -0.2
v 0.2 -0.3 -0.2
v 0.3 -0.3 -0.2
v -0.2 -0.3 -0.3
v 0.2 -0.3 -0.3

# faces
f 3/2/1 2/2/1 1/2/1
f 4/2/1 2/2/1 3/2/1
f 9/2/1 6/2/1 5/2/1
f 10/2/1 6/2/1 9/2/1
f 11/2/1 8/2/1 7/2/1
f 12/2/1 8/2/1 11/2/1
f 13/2/2 14/2/2 17/2/2
f 17/2/2 14/2/2 18/2/2
f 15/2/2 16/2/2 19/2/2
f 19/2/2 16/2/2 20/2/2
f 21/2/2 22/2/2 23/2/2
f 23/2/2 22/2/2 24/2/2
f 27/2/3 26/2/3 25/2/3
f 28/2/3 26/2/3 27/2/3
f 31/2/3 30/2/3 29/2/3
f 32/2/3 30/2/3 31/2/3
f 35/2/3 34/2/3 33/2/3
f 36/2/3 34/2/3 35/2/3
f 37/2/4 38/2/4 39/2/4
f 39/2/4 38/2/4 40/2/4
f 41/2/4 42/2/4 43/2/4
f 43/2/4 42/2/4 44/2/4
f 45/2/4 46/2/4 47/2/4
f 47/2/4 46/2/4 48/2/4
f 52/2/5 50/2/5 49/2/5
f 53/2/5 50/2/5 52/2/5
f 54/2/5 50/2/5 53/2/5
f 55/2/5 50/2/5 54/2/5
f 57/2/5 52/2/5 51/2/5
f 57/2/5 53/2/5 52/2/5
f 58/1/5 54/1/5 53/1/5
f 58/2/5 53/2/5 57/2/5
f 59/1/5 54/1/5 58/1/5
f 60/2/5 56/2/5 55/2/5
f 60/1/5 54/1/5 59/1/5
f 60/2/5 55/2/5 54/2/5
f 61/2/5 56/2/5 60/2/5
f 62/1/5 59/1/5 58/1/5
f 62/1/5 58/1/5 57/1/5
f 62/2/5 60/2/5 59/2/5
f 63/1/5 61/1/5 60/1/5
f 63/2/5 60/2/5 62/2/5
f 64/1/5 62/1/5 57/1/5
f 64/2/5 57/2/5 51/2/5
f 64/1/5 63/1/5 62/1/5
f 65/1/5 63/1/5 64/1/5
f 66/1/5 61/1/5 63/1/5
f 66/1/5 63/1/5 65/1/5
f 67/2/5 56/2/5 61/2/5
f 67/1/5 61/1/5 66/1/5
f 68/2/5 65/2/5 64/2/5
f 68/2/5 64/2/5 51/2/5
f 69/2/5 65/2/5 68/2/5
f 70/1/5 66/1/5 65/1/5
f 70/2/5 65/2/5 69/2/5
f 71/2/5 67/2/5 66/2/5
f 71/1/5 66/1/5 70/1/5
f 72/2/5 56/2/5 67/2/5
f 72/2/5 67/2/5 71/2/5
f 73/2/5 56/2/5 72/2/5
f 74/2/5 71/2/5 70/2/5
f 74/2/5 72/2/5 71/2/5
f 74/2/5 70/2/5 69/2/5
f 75/2/5 72/2/5 74/2/5
f 76/2/6 77/2/6 79/2/6
f 79/2/6 77/2/6 80/2/6
f 80/2/6 77/2/6 81/2/6
f 81/2/6 77/2/6 82/2/6
f 78/2/6 79/2/6 84/2/6
f 79/2/6 80/2/6 84/2/6
f 80/1/6 81/1/6 85/1/6
f 84/2/6 80/2/6 85/2/6
f 85/1/6 81/1/6 86/1/6
f 82/2/6 83/2/6 87/2/6
f 86/1/6 81/1/6 87/1/6
f 81/2/6 82/2/6 87/2/6
f 87/2/6 83/2/6 88/2/6
f 85/1/6 86/1/6 89/1/6
f 84/1/6 85/1/6 89/1/6
f 86/2/6 87/2/6 89/2/6
f 87/1/6 88/1/6 90/1/6
f 89/2/6 87/2/6 90/2/6
f 84/1/6 89/1/6 91/1/6
f 78/2/6 84/2/6 91/2/6
f 89/1/6 90/1/6 91/1/6
f 91/1/6 90/1/6 92/1/6
f 90/1/6 88/1/6 93/1/6
f 92/1/6 90/1/6 93/1/6
f 88/2/6 83/2/6 94/2/6
f 93/1/6 88/1/6 94/1/6
f 91/2/6 92/2/6 95/2/6
f 78/2/6 91/2/6 95/2/6
f 95/2/6 92/2/6 96/2/6
f 92/1/6 93/1/6 97/1/6
f 96/2/6 92/2/6 97/2/6
f 93/2/6 94/2/6 98/2/6
f 97/1/6 93/1/6 98/1/6
f 94/2/6 83/2/6 99/2/6
f 98/2/6 94/2/6 99/2/6
f 99/2/6 83/2/6 100/2/6
f 97/2/6 98/2/6 101/2/6
f 98/2/6 99/2/6 101/2/6
f 96/2/6 97/2/6 101/2/6
f 101/2/6 99/2/6 102/2/6
