# MagicaVoxel @ Ephtracy

# group
o 

# material
mtllib darkLilypads2-0.mtl
usemtl palette

# normals
vn -1 0 0
vn 1 0 0
vn 0 0 1
vn 0 0 -1
vn 0 -1 0
vn 0 1 0

# texcoords
vt 0.583984 0.5
vt 0.623047 0.5
vt 0.650391 0.5

# verts
v -0.3 -0.3 0
v -0.3 -0.3 -0.3
v -0.3 -0.2 0
v -0.3 -0.2 -0.3
v -0.2 -0.3 0.1
v -0.2 -0.3 0
v -0.2 -0.3 -0.3
v -0.2 -0.3 -0.4
v -0.2 -0.2 0.1
v -0.2 -0.2 0
v -0.2 -0.2 -0.3
v -0.2 -0.2 -0.4
v -0.1 -0.4 -0.1
v -0.1 -0.4 -0.2
v -0.1 -0.3 -0.1
v -0.1 -0.3 -0.2
v 0 -0.4 -0.1
v 0 -0.4 -0.2
v 0 -0.3 -0.1
v 0 -0.3 -0.2
v 0.1 -0.3 0.1
v 0.1 -0.3 0
v 0.1 -0.3 -0.3
v 0.1 -0.3 -0.4
v 0.1 -0.2 0.1
v 0.1 -0.2 0
v 0.1 -0.2 -0.3
v 0.1 -0.2 -0.4
v 0.2 -0.3 0
v 0.2 -0.3 -0.3
v 0.2 -0.2 0
v 0.2 -0.2 -0.3
v -0.2 -0.3 0.1
v -0.2 -0.2 0.1
v 0.1 -0.3 0.1
v 0.1 -0.2 0.1
v -0.3 -0.3 0
v -0.3 -0.2 0
v -0.2 -0.3 0
v -0.2 -0.2 0
v 0.1 -0.3 0
v 0.1 -0.2 0
v 0.2 -0.3 0
v 0.2 -0.2 0
v -0.1 -0.4 -0.1
v -0.1 -0.3 -0.1
v 0 -0.4 -0.1
v 0 -0.3 -0.1
v -0.1 -0.4 -0.2
v -0.1 -0.3 -0.2
v 0 -0.4 -0.2
v 0 -0.3 -0.2
v -0.3 -0.3 -0.3
v -0.3 -0.2 -0.3
v -0.2 -0.3 -0.3
v -0.2 -0.2 -0.3
v 0.1 -0.3 -0.3
v 0.1 -0.2 -0.3
v 0.2 -0.3 -0.3
v 0.2 -0.2 -0.3
v -0.2 -0.3 -0.4
v -0.2 -0.2 -0.4
v 0.1 -0.3 -0.4
v 0.1 -0.2 -0.4
v -0.1 -0.4 -0.1
v 0 -0.4 -0.1
v -0.1 -0.4 -0.2
v 0 -0.4 -0.2
v -0.2 -0.3 0.1
v 0.1 -0.3 0.1
v -0.3 -0.3 0
v -0.2 -0.3 0
v -0.1 -0.3 0
v 0 -0.3 0
v 0.1 -0.3 0
v 0.2 -0.3 0
v -0.2 -0.3 -0.1
v -0.1 -0.3 -0.1
v 0 -0.3 -0.1
v 0.1 -0.3 -0.1
v -0.2 -0.3 -0.2
v -0.1 -0.3 -0.2
v 0 -0.3 -0.2
v 0.1 -0.3 -0.2
v -0.3 -0.3 -0.3
v -0.2 -0.3 -0.3
v -0.1 -0.3 -0.3
v 0 -0.3 -0.3
v 0.1 -0.3 -0.3
v 0.2 -0.3 -0.3
v -0.2 -0.3 -0.4
v 0.1 -0.3 -0.4
v -0.2 -0.2 0.1
v 0.1 -0.2 0.1
v -0.3 -0.2 0
v -0.2 -0.2 0
v -0.1 -0.2 0
v 0 -0.2 0
v 0.1 -0.2 0
v 0.2 -0.2 0
v -0.2 -0.2 -0.1
v -0.1 -0.2 -0.1
v 0 -0.2 -0.1
v 0.1 -0.2 -0.1
v -0.2 -0.2 -0.2
v -0.1 -0.2 -0.2
v 0 -0.2 -0.2
v 0.1 -0.2 -0.2
v -0.3 -0.2 -0.3
v -0.2 -0.2 -0.3
v -0.1 -0.2 -0.3
v 0 -0.2 -0.3
v 0.1 -0.2 -0.3
v 0.2 -0.2 -0.3
v -0.2 -0.2 -0.4
v 0.1 -0.2 -0.4

# faces
f 3/3/1 2/3/1 1/3/1
f 4/3/1 2/3/1 3/3/1
f 9/3/1 6/3/1 5/3/1
f 10/3/1 6/3/1 9/3/1
f 11/3/1 8/3/1 7/3/1
f 12/3/1 8/3/1 11/3/1
f 15/1/1 14/1/1 13/1/1
f 16/1/1 14/1/1 15/1/1
f 17/1/2 18/1/2 19/1/2
f 19/1/2 18/1/2 20/1/2
f 21/3/2 22/3/2 25/3/2
f 25/3/2 22/3/2 26/3/2
f 23/3/2 24/3/2 27/3/2
f 27/3/2 24/3/2 28/3/2
f 29/3/2 30/3/2 31/3/2
f 31/3/2 30/3/2 32/3/2
f 35/3/3 34/3/3 33/3/3
f 36/3/3 34/3/3 35/3/3
f 39/3/3 38/3/3 37/3/3
f 40/3/3 38/3/3 39/3/3
f 43/3/3 42/3/3 41/3/3
f 44/3/3 42/3/3 43/3/3
f 47/1/3 46/1/3 45/1/3
f 48/1/3 46/1/3 47/1/3
f 49/1/4 50/1/4 51/1/4
f 51/1/4 50/1/4 52/1/4
f 53/3/4 54/3/4 55/3/4
f 55/3/4 54/3/4 56/3/4
f 57/3/4 58/3/4 59/3/4
f 59/3/4 58/3/4 60/3/4
f 61/3/4 62/3/4 63/3/4
f 63/3/4 62/3/4 64/3/4
f 67/1/5 66/1/5 65/1/5
f 68/1/5 66/1/5 67/1/5
f 72/3/5 70/3/5 69/3/5
f 73/3/5 70/3/5 72/3/5
f 74/3/5 70/3/5 73/3/5
f 75/3/5 70/3/5 74/3/5
f 77/3/5 72/3/5 71/3/5
f 77/3/5 73/3/5 72/3/5
f 78/2/5 74/2/5 73/2/5
f 78/3/5 73/3/5 77/3/5
f 79/3/5 76/3/5 75/3/5
f 79/2/5 74/2/5 78/2/5
f 79/3/5 75/3/5 74/3/5
f 80/3/5 76/3/5 79/3/5
f 81/2/5 78/2/5 77/2/5
f 81/3/5 77/3/5 71/3/5
f 82/2/5 78/2/5 81/2/5
f 83/2/5 80/2/5 79/2/5
f 84/3/5 76/3/5 80/3/5
f 84/2/5 80/2/5 83/2/5
f 85/3/5 82/3/5 81/3/5
f 85/3/5 81/3/5 71/3/5
f 86/3/5 82/3/5 85/3/5
f 87/2/5 83/2/5 82/2/5
f 87/3/5 82/3/5 86/3/5
f 88/3/5 84/3/5 83/3/5
f 88/2/5 83/2/5 87/2/5
f 89/3/5 76/3/5 84/3/5
f 89/3/5 84/3/5 88/3/5
f 90/3/5 76/3/5 89/3/5
f 91/3/5 88/3/5 87/3/5
f 91/3/5 89/3/5 88/3/5
f 91/3/5 87/3/5 86/3/5
f 92/3/5 89/3/5 91/3/5
f 93/3/6 94/3/6 96/3/6
f 96/3/6 94/3/6 97/3/6
f 97/3/6 94/3/6 98/3/6
f 98/3/6 94/3/6 99/3/6
f 95/3/6 96/3/6 101/3/6
f 96/3/6 97/3/6 101/3/6
f 97/2/6 98/2/6 102/2/6
f 101/3/6 97/3/6 102/3/6
f 99/3/6 100/3/6 103/3/6
f 102/2/6 98/2/6 103/2/6
f 98/3/6 99/3/6 103/3/6
f 103/3/6 100/3/6 104/3/6
f 101/2/6 102/2/6 105/2/6
f 95/3/6 101/3/6 105/3/6
f 103/2/6 104/2/6 105/2/6
f 102/2/6 103/2/6 105/2/6
f 105/2/6 104/2/6 106/2/6
f 106/2/6 104/2/6 107/2/6
f 104/3/6 100/3/6 108/3/6
f 107/2/6 104/2/6 108/2/6
f 95/3/6 105/3/6 109/3/6
f 105/3/6 106/3/6 109/3/6
f 109/3/6 106/3/6 110/3/6
f 106/2/6 107/2/6 111/2/6
f 110/3/6 106/3/6 111/3/6
f 107/3/6 108/3/6 112/3/6
f 111/2/6 107/2/6 112/2/6
f 108/3/6 100/3/6 113/3/6
f 112/3/6 108/3/6 113/3/6
f 113/3/6 100/3/6 114/3/6
f 111/3/6 112/3/6 115/3/6
f 112/3/6 113/3/6 115/3/6
f 110/3/6 111/3/6 115/3/6
f 115/3/6 113/3/6 116/3/6
