# MagicaVoxel @ Ephtracy

# group
o 

# material
mtllib darkGrass1-0.mtl
usemtl palette

# normals
vn -1 0 0
vn 1 0 0
vn 0 0 1
vn 0 0 -1
vn 0 -1 0
vn 0 1 0

# texcoords
vt 0.591797 0.5
vt 0.607422 0.5

# verts
v -0.4 -0.4 0.3
v -0.4 -0.4 0.2
v -0.4 -0.4 -0.1
v -0.4 -0.4 -0.2
v -0.4 -0.3 0.3
v -0.4 -0.3 0.2
v -0.4 -0.3 -0.1
v -0.4 -0.3 -0.2
v -0.2 -0.4 0.2
v -0.2 -0.4 0.1
v -0.2 -0.4 0
v -0.2 -0.4 -0.1
v -0.2 -0.4 -0.2
v -0.2 -0.4 -0.3
v -0.2 -0.3 0.2
v -0.2 -0.3 0.1
v -0.2 -0.3 0
v -0.2 -0.3 -0.1
v -0.2 -0.3 -0.2
v -0.2 -0.3 -0.3
v -0.2 -0.2 0.2
v -0.2 -0.2 0.1
v -0.1 -0.4 -0.1
v -0.1 -0.4 -0.2
v -0.1 -0.3 -0.1
v -0.1 -0.3 -0.2
v -0.1 -0.2 -0.1
v -0.1 -0.2 -0.2
v 0 -0.4 0.1
v 0 -0.4 0
v 0 -0.3 0.1
v 0 -0.3 0
v 0.1 -0.4 0.3
v 0.1 -0.4 0.2
v 0.1 -0.4 -0.1
v 0.1 -0.4 -0.2
v 0.1 -0.3 0.3
v 0.1 -0.3 0.2
v 0.1 -0.3 -0.1
v 0.1 -0.3 -0.2
v 0.1 -0.2 0.3
v 0.1 -0.2 0.2
v 0.1 -0.2 -0.1
v 0.1 -0.2 -0.2
v 0.2 -0.4 0.1
v 0.2 -0.4 0
v 0.2 -0.4 -0.2
v 0.2 -0.4 -0.3
v 0.2 -0.3 0.1
v 0.2 -0.3 0
v 0.2 -0.3 -0.2
v 0.2 -0.3 -0.3
v -0.3 -0.4 0.3
v -0.3 -0.4 0.2
v -0.3 -0.4 -0.1
v -0.3 -0.4 -0.2
v -0.3 -0.3 0.3
v -0.3 -0.3 0.2
v -0.3 -0.3 -0.1
v -0.3 -0.3 -0.2
v -0.1 -0.4 0.2
v -0.1 -0.4 0.1
v -0.1 -0.4 0
v -0.1 -0.4 -0.1
v -0.1 -0.4 -0.2
v -0.1 -0.4 -0.3
v -0.1 -0.3 0.2
v -0.1 -0.3 0.1
v -0.1 -0.3 0
v -0.1 -0.3 -0.1
v -0.1 -0.3 -0.2
v -0.1 -0.3 -0.3
v -0.1 -0.2 0.2
v -0.1 -0.2 0.1
v 0 -0.4 -0.1
v 0 -0.4 -0.2
v 0 -0.3 -0.1
v 0 -0.3 -0.2
v 0 -0.2 -0.1
v 0 -0.2 -0.2
v 0.1 -0.4 0.1
v 0.1 -0.4 0
v 0.1 -0.3 0.1
v 0.1 -0.3 0
v 0.2 -0.4 0.3
v 0.2 -0.4 0.2
v 0.2 -0.4 -0.1
v 0.2 -0.4 -0.2
v 0.2 -0.3 0.3
v 0.2 -0.3 0.2
v 0.2 -0.3 -0.1
v 0.2 -0.3 -0.2
v 0.2 -0.2 0.3
v 0.2 -0.2 0.2
v 0.2 -0.2 -0.1
v 0.2 -0.2 -0.2
v 0.3 -0.4 0.1
v 0.3 -0.4 0
v 0.3 -0.4 -0.2
v 0.3 -0.4 -0.3
v 0.3 -0.3 0.1
v 0.3 -0.3 0
v 0.3 -0.3 -0.2
v 0.3 -0.3 -0.3
v -0.4 -0.4 0.3
v -0.4 -0.3 0.3
v -0.3 -0.4 0.3
v -0.3 -0.3 0.3
v 0.1 -0.4 0.3
v 0.1 -0.3 0.3
v 0.1 -0.2 0.3
v 0.2 -0.4 0.3
v 0.2 -0.3 0.3
v 0.2 -0.2 0.3
v -0.2 -0.4 0.2
v -0.2 -0.3 0.2
v -0.2 -0.2 0.2
v -0.1 -0.4 0.2
v -0.1 -0.3 0.2
v -0.1 -0.2 0.2
v 0 -0.4 0.1
v 0 -0.3 0.1
v 0.1 -0.4 0.1
v 0.1 -0.3 0.1
v 0.2 -0.4 0.1
v 0.2 -0.3 0.1
v 0.3 -0.4 0.1
v 0.3 -0.3 0.1
v -0.2 -0.4 0
v -0.2 -0.3 0
v -0.1 -0.4 0
v -0.1 -0.3 0
v -0.4 -0.4 -0.1
v -0.4 -0.3 -0.1
v -0.3 -0.4 -0.1
v -0.3 -0.3 -0.1
v -0.1 -0.4 -0.1
v -0.1 -0.3 -0.1
v -0.1 -0.2 -0.1
v 0 -0.4 -0.1
v 0 -0.3 -0.1
v 0 -0.2 -0.1
v 0.1 -0.4 -0.1
v 0.1 -0.3 -0.1
v 0.1 -0.2 -0.1
v 0.2 -0.4 -0.1
v 0.2 -0.3 -0.1
v 0.2 -0.2 -0.1
v -0.2 -0.4 -0.2
v -0.2 -0.3 -0.2
v -0.1 -0.4 -0.2
v -0.1 -0.3 -0.2
v 0.2 -0.4 -0.2
v 0.2 -0.3 -0.2
v 0.3 -0.4 -0.2
v 0.3 -0.3 -0.2
v -0.4 -0.4 0.2
v -0.4 -0.3 0.2
v -0.3 -0.4 0.2
v -0.3 -0.3 0.2
v 0.1 -0.4 0.2
v 0.1 -0.3 0.2
v 0.1 -0.2 0.2
v 0.2 -0.4 0.2
v 0.2 -0.3 0.2
v 0.2 -0.2 0.2
v -0.2 -0.4 0.1
v -0.2 -0.3 0.1
v -0.2 -0.2 0.1
v -0.1 -0.4 0.1
v -0.1 -0.3 0.1
v -0.1 -0.2 0.1
v 0 -0.4 0
v 0 -0.3 0
v 0.1 -0.4 0
v 0.1 -0.3 0
v 0.2 -0.4 0
v 0.2 -0.3 0
v 0.3 -0.4 0
v 0.3 -0.3 0
v -0.2 -0.4 -0.1
v -0.2 -0.3 -0.1
v -0.1 -0.4 -0.1
v -0.1 -0.3 -0.1
v -0.4 -0.4 -0.2
v -0.4 -0.3 -0.2
v -0.3 -0.4 -0.2
v -0.3 -0.3 -0.2
v -0.1 -0.4 -0.2
v -0.1 -0.3 -0.2
v -0.1 -0.2 -0.2
v 0 -0.4 -0.2
v 0 -0.3 -0.2
v 0 -0.2 -0.2
v 0.1 -0.4 -0.2
v 0.1 -0.3 -0.2
v 0.1 -0.2 -0.2
v 0.2 -0.4 -0.2
v 0.2 -0.3 -0.2
v 0.2 -0.2 -0.2
v -0.2 -0.4 -0.3
v -0.2 -0.3 -0.3
v -0.1 -0.4 -0.3
v -0.1 -0.3 -0.3
v 0.2 -0.4 -0.3
v 0.2 -0.3 -0.3
v 0.3 -0.4 -0.3
v 0.3 -0.3 -0.3
v -0.4 -0.4 0.3
v -0.3 -0.4 0.3
v 0.1 -0.4 0.3
v 0.2 -0.4 0.3
v -0.4 -0.4 0.2
v -0.3 -0.4 0.2
v -0.2 -0.4 0.2
v -0.1 -0.4 0.2
v 0.1 -0.4 0.2
v 0.2 -0.4 0.2
v -0.2 -0.4 0.1
v -0.1 -0.4 0.1
v 0 -0.4 0.1
v 0.1 -0.4 0.1
v 0.2 -0.4 0.1
v 0.3 -0.4 0.1
v -0.2 -0.4 0
v -0.1 -0.4 0
v 0 -0.4 0
v 0.1 -0.4 0
v 0.2 -0.4 0
v 0.3 -0.4 0
v -0.4 -0.4 -0.1
v -0.3 -0.4 -0.1
v -0.2 -0.4 -0.1
v -0.1 -0.4 -0.1
v 0 -0.4 -0.1
v 0.1 -0.4 -0.1
v 0.2 -0.4 -0.1
v -0.4 -0.4 -0.2
v -0.3 -0.4 -0.2
v -0.2 -0.4 -0.2
v -0.1 -0.4 -0.2
v 0 -0.4 -0.2
v 0.1 -0.4 -0.2
v 0.2 -0.4 -0.2
v 0.3 -0.4 -0.2
v -0.2 -0.4 -0.3
v -0.1 -0.4 -0.3
v 0.2 -0.4 -0.3
v 0.3 -0.4 -0.3
v -0.4 -0.3 0.3
v -0.3 -0.3 0.3
v -0.4 -0.3 0.2
v -0.3 -0.3 0.2
v 0 -0.3 0.1
v 0.1 -0.3 0.1
v 0.2 -0.3 0.1
v 0.3 -0.3 0.1
v -0.2 -0.3 0
v -0.1 -0.3 0
v 0 -0.3 0
v 0.1 -0.3 0
v 0.2 -0.3 0
v 0.3 -0.3 0
v -0.4 -0.3 -0.1
v -0.3 -0.3 -0.1
v -0.2 -0.3 -0.1
v -0.1 -0.3 -0.1
v -0.4 -0.3 -0.2
v -0.3 -0.3 -0.2
v -0.2 -0.3 -0.2
v -0.1 -0.3 -0.2
v 0.2 -0.3 -0.2
v 0.3 -0.3 -0.2
v -0.2 -0.3 -0.3
v -0.1 -0.3 -0.3
v 0.2 -0.3 -0.3
v 0.3 -0.3 -0.3
v 0.1 -0.2 0.3
v 0.2 -0.2 0.3
v -0.2 -0.2 0.2
v -0.1 -0.2 0.2
v 0.1 -0.2 0.2
v 0.2 -0.2 0.2
v -0.2 -0.2 0.1
v -0.1 -0.2 0.1
v -0.1 -0.2 -0.1
v 0 -0.2 -0.1
v 0.1 -0.2 -0.1
v 0.2 -0.2 -0.1
v -0.1 -0.2 -0.2
v 0 -0.2 -0.2
v 0.1 -0.2 -0.2
v 0.2 -0.2 -0.2

# faces
f 5/2/1 2/2/1 1/2/1
f 6/2/1 2/2/1 5/2/1
f 7/1/1 4/1/1 3/1/1
f 8/1/1 4/1/1 7/1/1
f 15/2/1 10/2/1 9/2/1
f 16/2/1 10/2/1 15/2/1
f 17/1/1 12/1/1 11/1/1
f 18/1/1 12/1/1 17/1/1
f 19/2/1 14/2/1 13/2/1
f 20/2/1 14/2/1 19/2/1
f 21/1/1 16/1/1 15/1/1
f 22/1/1 16/1/1 21/1/1
f 25/2/1 24/2/1 23/2/1
f 26/2/1 24/2/1 25/2/1
f 27/1/1 26/1/1 25/1/1
f 28/1/1 26/1/1 27/1/1
f 31/2/1 30/2/1 29/2/1
f 32/2/1 30/2/1 31/2/1
f 37/2/1 34/2/1 33/2/1
f 38/2/1 34/2/1 37/2/1
f 39/2/1 36/2/1 35/2/1
f 40/2/1 36/2/1 39/2/1
f 41/1/1 38/1/1 37/1/1
f 42/1/1 38/1/1 41/1/1
f 43/1/1 40/1/1 39/1/1
f 44/1/1 40/1/1 43/1/1
f 49/2/1 46/2/1 45/2/1
f 50/2/1 46/2/1 49/2/1
f 51/1/1 48/1/1 47/1/1
f 52/1/1 48/1/1 51/1/1
f 53/2/2 54/2/2 57/2/2
f 57/2/2 54/2/2 58/2/2
f 55/1/2 56/1/2 59/1/2
f 59/1/2 56/1/2 60/1/2
f 61/2/2 62/2/2 67/2/2
f 67/2/2 62/2/2 68/2/2
f 63/1/2 64/1/2 69/1/2
f 69/1/2 64/1/2 70/1/2
f 65/2/2 66/2/2 71/2/2
f 71/2/2 66/2/2 72/2/2
f 67/1/2 68/1/2 73/1/2
f 73/1/2 68/1/2 74/1/2
f 75/2/2 76/2/2 77/2/2
f 77/2/2 76/2/2 78/2/2
f 77/1/2 78/1/2 79/1/2
f 79/1/2 78/1/2 80/1/2
f 81/2/2 82/2/2 83/2/2
f 83/2/2 82/2/2 84/2/2
f 85/2/2 86/2/2 89/2/2
f 89/2/2 86/2/2 90/2/2
f 87/2/2 88/2/2 91/2/2
f 91/2/2 88/2/2 92/2/2
f 89/1/2 90/1/2 93/1/2
f 93/1/2 90/1/2 94/1/2
f 91/1/2 92/1/2 95/1/2
f 95/1/2 92/1/2 96/1/2
f 97/2/2 98/2/2 101/2/2
f 101/2/2 98/2/2 102/2/2
f 99/1/2 100/1/2 103/1/2
f 103/1/2 100/1/2 104/1/2
f 107/2/3 106/2/3 105/2/3
f 108/2/3 106/2/3 107/2/3
f 112/2/3 110/2/3 109/2/3
f 113/1/3 111/1/3 110/1/3
f 113/2/3 110/2/3 112/2/3
f 114/1/3 111/1/3 113/1/3
f 118/2/3 116/2/3 115/2/3
f 119/1/3 117/1/3 116/1/3
f 119/2/3 116/2/3 118/2/3
f 120/1/3 117/1/3 119/1/3
f 123/2/3 122/2/3 121/2/3
f 124/2/3 122/2/3 123/2/3
f 127/2/3 126/2/3 125/2/3
f 128/2/3 126/2/3 127/2/3
f 131/1/3 130/1/3 129/1/3
f 132/1/3 130/1/3 131/1/3
f 135/1/3 134/1/3 133/1/3
f 136/1/3 134/1/3 135/1/3
f 140/2/3 138/2/3 137/2/3
f 141/1/3 139/1/3 138/1/3
f 141/2/3 138/2/3 140/2/3
f 142/1/3 139/1/3 141/1/3
f 146/2/3 144/2/3 143/2/3
f 147/1/3 145/1/3 144/1/3
f 147/2/3 144/2/3 146/2/3
f 148/1/3 145/1/3 147/1/3
f 151/2/3 150/2/3 149/2/3
f 152/2/3 150/2/3 151/2/3
f 155/1/3 154/1/3 153/1/3
f 156/1/3 154/1/3 155/1/3
f 157/2/4 158/2/4 159/2/4
f 159/2/4 158/2/4 160/2/4
f 161/2/4 162/2/4 164/2/4
f 162/1/4 163/1/4 165/1/4
f 164/2/4 162/2/4 165/2/4
f 165/1/4 163/1/4 166/1/4
f 167/2/4 168/2/4 170/2/4
f 168/1/4 169/1/4 171/1/4
f 170/2/4 168/2/4 171/2/4
f 171/1/4 169/1/4 172/1/4
f 173/2/4 174/2/4 175/2/4
f 175/2/4 174/2/4 176/2/4
f 177/2/4 178/2/4 179/2/4
f 179/2/4 178/2/4 180/2/4
f 181/1/4 182/1/4 183/1/4
f 183/1/4 182/1/4 184/1/4
f 185/1/4 186/1/4 187/1/4
f 187/1/4 186/1/4 188/1/4
f 189/2/4 190/2/4 192/2/4
f 190/1/4 191/1/4 193/1/4
f 192/2/4 190/2/4 193/2/4
f 193/1/4 191/1/4 194/1/4
f 195/2/4 196/2/4 198/2/4
f 196/1/4 197/1/4 199/1/4
f 198/2/4 196/2/4 199/2/4
f 199/1/4 197/1/4 200/1/4
f 201/2/4 202/2/4 203/2/4
f 203/2/4 202/2/4 204/2/4
f 205/1/4 206/1/4 207/1/4
f 207/1/4 206/1/4 208/1/4
f 213/2/5 210/2/5 209/2/5
f 214/2/5 210/2/5 213/2/5
f 217/2/5 212/2/5 211/2/5
f 218/2/5 212/2/5 217/2/5
f 219/2/5 216/2/5 215/2/5
f 220/2/5 216/2/5 219/2/5
f 227/2/5 222/2/5 221/2/5
f 228/2/5 222/2/5 227/2/5
f 229/2/5 224/2/5 223/2/5
f 230/2/5 224/2/5 229/2/5
f 233/1/5 226/1/5 225/1/5
f 234/1/5 226/1/5 233/1/5
f 238/1/5 232/1/5 231/1/5
f 239/1/5 232/1/5 238/1/5
f 241/2/5 235/2/5 234/2/5
f 242/2/5 235/2/5 241/2/5
f 243/2/5 237/2/5 236/2/5
f 244/2/5 237/2/5 243/2/5
f 246/2/5 241/2/5 240/2/5
f 247/2/5 241/2/5 246/2/5
f 248/1/5 245/1/5 244/1/5
f 249/1/5 245/1/5 248/1/5
f 250/2/6 251/2/6 252/2/6
f 252/2/6 251/2/6 253/2/6
f 254/2/6 255/2/6 260/2/6
f 260/2/6 255/2/6 261/2/6
f 256/2/6 257/2/6 262/2/6
f 262/2/6 257/2/6 263/2/6
f 258/1/6 259/1/6 266/1/6
f 266/1/6 259/1/6 267/1/6
f 264/1/6 265/1/6 268/1/6
f 268/1/6 265/1/6 269/1/6
f 270/2/6 271/2/6 274/2/6
f 274/2/6 271/2/6 275/2/6
f 272/1/6 273/1/6 276/1/6
f 276/1/6 273/1/6 277/1/6
f 278/1/6 279/1/6 282/1/6
f 282/1/6 279/1/6 283/1/6
f 280/1/6 281/1/6 284/1/6
f 284/1/6 281/1/6 285/1/6
f 286/1/6 287/1/6 290/1/6
f 290/1/6 287/1/6 291/1/6
f 288/1/6 289/1/6 292/1/6
f 292/1/6 289/1/6 293/1/6
