# MagicaVoxel @ Ephtracy

# group
o 

# material
mtllib darkStump1-0.mtl
usemtl palette

# normals
vn -1 0 0
vn 1 0 0
vn 0 0 1
vn 0 0 -1
vn 0 -1 0
vn 0 1 0

# texcoords
vt 0.279297 0.5
vt 0.306641 0.5
vt 0.310547 0.5

# verts
v -0.3 -0.4 0.2
v -0.3 -0.4 0
v -0.3 -0.2 0.2
v -0.3 -0.2 0.1
v -0.3 -0.1 0.1
v -0.3 -0.1 0
v -0.2 -0.4 0.3
v -0.2 -0.4 0.2
v -0.2 -0.4 0
v -0.2 -0.4 -0.1
v -0.2 -0.3 0.3
v -0.2 -0.3 0.2
v -0.2 -0.1 0
v -0.2 -0.1 -0.1
v -0.1 -0.4 0.4
v -0.1 -0.4 0.3
v -0.1 -0.3 0.4
v -0.1 -0.3 0.3
v 0 -0.4 -0.2
v 0 -0.4 -0.3
v 0 -0.3 -0.2
v 0 -0.3 -0.3
v 0.1 -0.4 0
v 0.1 -0.4 -0.2
v 0.1 -0.3 0
v 0.1 -0.3 -0.2
v -0.2 -0.2 0.1
v -0.2 -0.2 0
v -0.2 -0.1 0.1
v -0.2 -0.1 0
v -0.1 -0.2 0
v -0.1 -0.2 -0.1
v -0.1 -0.1 0
v -0.1 -0.1 -0.1
v 0 -0.4 0.4
v 0 -0.4 0.2
v 0 -0.4 0.1
v 0 -0.4 0
v 0 -0.4 -0.1
v 0 -0.3 0.4
v 0 -0.3 0.2
v 0 -0.2 0.2
v 0 -0.2 0.1
v 0 -0.2 0
v 0 -0.2 -0.1
v 0.1 -0.3 0.1
v 0.1 -0.3 0
v 0.1 -0.2 0.1
v 0.1 -0.2 0
v 0.2 -0.4 0.1
v 0.2 -0.4 -0.2
v 0.2 -0.3 0.1
v 0.2 -0.3 -0.2
v 0.3 -0.4 -0.2
v 0.3 -0.4 -0.3
v 0.3 -0.3 -0.2
v 0.3 -0.3 -0.3
v -0.1 -0.4 0.4
v -0.1 -0.3 0.4
v 0 -0.4 0.4
v 0 -0.3 0.4
v -0.2 -0.4 0.3
v -0.2 -0.3 0.3
v -0.1 -0.4 0.3
v -0.1 -0.3 0.3
v -0.3 -0.4 0.2
v -0.3 -0.2 0.2
v -0.2 -0.4 0.2
v -0.2 -0.3 0.2
v -0.2 -0.2 0.2
v 0 -0.3 0.2
v 0 -0.2 0.2
v -0.3 -0.2 0.1
v -0.3 -0.1 0.1
v -0.2 -0.2 0.1
v -0.2 -0.1 0.1
v 0 -0.4 0.1
v 0 -0.2 0.1
v 0.1 -0.3 0.1
v 0.1 -0.2 0.1
v 0.2 -0.4 0.1
v 0.2 -0.3 0.1
v -0.2 -0.2 0
v -0.2 -0.1 0
v -0.1 -0.2 0
v -0.1 -0.1 0
v 0 -0.4 -0.2
v 0 -0.3 -0.2
v 0.1 -0.4 -0.2
v 0.1 -0.3 -0.2
v 0.2 -0.4 -0.2
v 0.2 -0.3 -0.2
v 0.3 -0.4 -0.2
v 0.3 -0.3 -0.2
v -0.3 -0.4 0
v -0.3 -0.1 0
v -0.2 -0.4 0
v -0.2 -0.1 0
v 0 -0.4 0
v 0 -0.2 0
v 0.1 -0.4 0
v 0.1 -0.3 0
v 0.1 -0.2 0
v -0.2 -0.4 -0.1
v -0.2 -0.1 -0.1
v -0.1 -0.2 -0.1
v -0.1 -0.1 -0.1
v 0 -0.4 -0.1
v 0 -0.2 -0.1
v 0 -0.4 -0.3
v 0 -0.3 -0.3
v 0.3 -0.4 -0.3
v 0.3 -0.3 -0.3
v -0.1 -0.4 0.4
v 0 -0.4 0.4
v -0.2 -0.4 0.3
v -0.1 -0.4 0.3
v -0.3 -0.4 0.2
v -0.2 -0.4 0.2
v -0.1 -0.4 0.2
v 0 -0.4 0.2
v -0.1 -0.4 0.1
v 0 -0.4 0.1
v 0.2 -0.4 0.1
v -0.3 -0.4 0
v -0.2 -0.4 0
v 0 -0.4 0
v 0.1 -0.4 0
v -0.2 -0.4 -0.1
v 0 -0.4 -0.1
v 0 -0.4 -0.2
v 0.1 -0.4 -0.2
v 0.2 -0.4 -0.2
v 0.3 -0.4 -0.2
v 0 -0.4 -0.3
v 0.3 -0.4 -0.3
v -0.1 -0.3 0.4
v 0 -0.3 0.4
v -0.2 -0.3 0.3
v -0.1 -0.3 0.3
v -0.2 -0.3 0.2
v 0 -0.3 0.2
v 0.1 -0.3 0.1
v 0.2 -0.3 0.1
v 0.1 -0.3 0
v 0 -0.3 -0.2
v 0.1 -0.3 -0.2
v 0.2 -0.3 -0.2
v 0.3 -0.3 -0.2
v 0 -0.3 -0.3
v 0.3 -0.3 -0.3
v -0.3 -0.2 0.2
v -0.2 -0.2 0.2
v 0 -0.2 0.2
v -0.3 -0.2 0.1
v -0.2 -0.2 0.1
v -0.1 -0.2 0.1
v 0 -0.2 0.1
v 0.1 -0.2 0.1
v -0.2 -0.2 0
v -0.1 -0.2 0
v 0 -0.2 0
v 0.1 -0.2 0
v -0.1 -0.2 -0.1
v 0 -0.2 -0.1
v -0.3 -0.1 0.1
v -0.2 -0.1 0.1
v -0.3 -0.1 0
v -0.2 -0.1 0
v -0.1 -0.1 0
v -0.2 -0.1 -0.1
v -0.1 -0.1 -0.1

# faces
f 3/3/1 2/3/1 1/3/1
f 4/3/1 2/3/1 3/3/1
f 5/3/1 2/3/1 4/3/1
f 6/3/1 2/3/1 5/3/1
f 11/3/1 8/3/1 7/3/1
f 12/3/1 8/3/1 11/3/1
f 13/3/1 10/3/1 9/3/1
f 14/3/1 10/3/1 13/3/1
f 17/3/1 16/3/1 15/3/1
f 18/3/1 16/3/1 17/3/1
f 21/3/1 20/3/1 19/3/1
f 22/3/1 20/3/1 21/3/1
f 25/3/1 24/3/1 23/3/1
f 26/3/1 24/3/1 25/3/1
f 27/3/2 28/3/2 29/3/2
f 29/3/2 28/3/2 30/3/2
f 31/3/2 32/3/2 33/3/2
f 33/3/2 32/3/2 34/3/2
f 35/3/2 36/3/2 40/3/2
f 36/1/2 37/1/2 41/1/2
f 40/3/2 36/3/2 41/3/2
f 41/1/2 37/1/2 42/1/2
f 42/1/2 37/1/2 43/1/2
f 38/3/2 39/3/2 44/3/2
f 44/3/2 39/3/2 45/3/2
f 46/3/2 47/3/2 48/3/2
f 48/3/2 47/3/2 49/3/2
f 50/3/2 51/3/2 52/3/2
f 52/3/2 51/3/2 53/3/2
f 54/3/2 55/3/2 56/3/2
f 56/3/2 55/3/2 57/3/2
f 60/3/3 59/3/3 58/3/3
f 61/3/3 59/3/3 60/3/3
f 64/3/3 63/3/3 62/3/3
f 65/3/3 63/3/3 64/3/3
f 68/3/3 67/3/3 66/3/3
f 69/3/3 67/3/3 68/3/3
f 70/3/3 67/3/3 69/3/3
f 71/1/3 70/1/3 69/1/3
f 72/1/3 70/1/3 71/1/3
f 75/3/3 74/3/3 73/3/3
f 76/3/3 74/3/3 75/3/3
f 79/3/3 78/3/3 77/3/3
f 80/3/3 78/3/3 79/3/3
f 81/3/3 79/3/3 77/3/3
f 82/3/3 79/3/3 81/3/3
f 85/3/3 84/3/3 83/3/3
f 86/3/3 84/3/3 85/3/3
f 89/3/3 88/3/3 87/3/3
f 90/3/3 88/3/3 89/3/3
f 93/3/3 92/3/3 91/3/3
f 94/3/3 92/3/3 93/3/3
f 95/3/4 96/3/4 97/3/4
f 97/3/4 96/3/4 98/3/4
f 99/3/4 100/3/4 101/3/4
f 101/3/4 100/3/4 102/3/4
f 102/3/4 100/3/4 103/3/4
f 104/3/4 105/3/4 106/3/4
f 106/3/4 105/3/4 107/3/4
f 104/3/4 106/3/4 108/3/4
f 108/3/4 106/3/4 109/3/4
f 110/3/4 111/3/4 112/3/4
f 112/3/4 111/3/4 113/3/4
f 117/3/5 115/3/5 114/3/5
f 119/3/5 117/3/5 116/3/5
f 120/3/5 115/3/5 117/3/5
f 120/3/5 117/3/5 119/3/5
f 121/3/5 115/3/5 120/3/5
f 122/3/5 119/3/5 118/3/5
f 122/3/5 120/3/5 119/3/5
f 122/1/5 121/1/5 120/1/5
f 123/1/5 121/1/5 122/1/5
f 125/3/5 123/3/5 122/3/5
f 125/3/5 124/3/5 123/3/5
f 125/3/5 122/3/5 118/3/5
f 126/3/5 124/3/5 125/3/5
f 127/3/5 124/3/5 126/3/5
f 128/3/5 124/3/5 127/3/5
f 129/3/5 127/3/5 126/3/5
f 130/3/5 127/3/5 129/3/5
f 132/3/5 124/3/5 128/3/5
f 133/3/5 124/3/5 132/3/5
f 135/3/5 132/3/5 131/3/5
f 135/3/5 134/3/5 133/3/5
f 135/3/5 133/3/5 132/3/5
f 136/3/5 134/3/5 135/3/5
f 137/3/6 138/3/6 140/3/6
f 139/3/6 140/3/6 141/3/6
f 140/3/6 138/3/6 142/3/6
f 141/3/6 140/3/6 142/3/6
f 143/3/6 144/3/6 145/3/6
f 145/3/6 144/3/6 147/3/6
f 147/3/6 144/3/6 148/3/6
f 146/3/6 147/3/6 150/3/6
f 148/3/6 149/3/6 150/3/6
f 147/3/6 148/3/6 150/3/6
f 150/3/6 149/3/6 151/3/6
f 152/3/6 153/3/6 155/3/6
f 153/1/6 154/1/6 156/1/6
f 155/3/6 153/3/6 156/3/6
f 156/1/6 154/1/6 157/1/6
f 157/1/6 154/1/6 158/1/6
f 156/2/6 157/2/6 160/2/6
f 157/1/6 158/1/6 161/1/6
f 160/2/6 157/2/6 161/2/6
f 158/3/6 159/3/6 162/3/6
f 161/1/6 158/1/6 162/1/6
f 162/3/6 159/3/6 163/3/6
f 161/3/6 162/3/6 164/3/6
f 164/3/6 162/3/6 165/3/6
f 166/3/6 167/3/6 168/3/6
f 168/3/6 167/3/6 169/3/6
f 169/3/6 170/3/6 171/3/6
f 171/3/6 170/3/6 172/3/6
