# MagicaVoxel @ Ephtracy

# group
o 

# material
mtllib lightGrass1-0.mtl
usemtl palette

# normals
vn -1 0 0
vn 1 0 0
vn 0 0 1
vn 0 0 -1
vn 0 -1 0
vn 0 1 0

# texcoords
vt 0.556641 0.5
vt 0.560547 0.5

# verts
v -0.3 -0.4 0.3
v -0.3 -0.4 0.2
v -0.3 -0.4 -0.2
v -0.3 -0.4 -0.3
v -0.3 -0.3 0.3
v -0.3 -0.3 0.2
v -0.3 -0.3 -0.2
v -0.3 -0.3 -0.3
v -0.3 -0.2 0.3
v -0.3 -0.2 0.2
v -0.2 -0.4 0.1
v -0.2 -0.4 0
v -0.2 -0.3 0.1
v -0.2 -0.3 0
v -0.2 -0.2 0.1
v -0.2 -0.2 0
v -0.1 -0.4 -0.1
v -0.1 -0.4 -0.2
v -0.1 -0.3 -0.1
v -0.1 -0.3 -0.2
v 0 -0.4 0.3
v 0 -0.4 0.2
v 0 -0.3 0.3
v 0 -0.3 0.2
v 0.1 -0.4 0.1
v 0.1 -0.4 0
v 0.1 -0.3 0.1
v 0.1 -0.3 0
v 0.1 -0.2 0.1
v 0.1 -0.2 0
v 0.2 -0.4 -0.1
v 0.2 -0.4 -0.2
v 0.2 -0.3 -0.1
v 0.2 -0.3 -0.2
v -0.2 -0.4 0.3
v -0.2 -0.4 0.2
v -0.2 -0.4 -0.2
v -0.2 -0.4 -0.3
v -0.2 -0.3 0.3
v -0.2 -0.3 0.2
v -0.2 -0.3 -0.2
v -0.2 -0.3 -0.3
v -0.2 -0.2 0.3
v -0.2 -0.2 0.2
v -0.1 -0.4 0.1
v -0.1 -0.4 0
v -0.1 -0.3 0.1
v -0.1 -0.3 0
v -0.1 -0.2 0.1
v -0.1 -0.2 0
v 0 -0.4 -0.1
v 0 -0.4 -0.2
v 0 -0.3 -0.1
v 0 -0.3 -0.2
v 0.1 -0.4 0.3
v 0.1 -0.4 0.2
v 0.1 -0.3 0.3
v 0.1 -0.3 0.2
v 0.2 -0.4 0.1
v 0.2 -0.4 0
v 0.2 -0.3 0.1
v 0.2 -0.3 0
v 0.2 -0.2 0.1
v 0.2 -0.2 0
v 0.3 -0.4 -0.1
v 0.3 -0.4 -0.2
v 0.3 -0.3 -0.1
v 0.3 -0.3 -0.2
v -0.3 -0.4 0.3
v -0.3 -0.3 0.3
v -0.3 -0.2 0.3
v -0.2 -0.4 0.3
v -0.2 -0.3 0.3
v -0.2 -0.2 0.3
v 0 -0.4 0.3
v 0 -0.3 0.3
v 0.1 -0.4 0.3
v 0.1 -0.3 0.3
v -0.2 -0.4 0.1
v -0.2 -0.3 0.1
v -0.2 -0.2 0.1
v -0.1 -0.4 0.1
v -0.1 -0.3 0.1
v -0.1 -0.2 0.1
v 0.1 -0.4 0.1
v 0.1 -0.3 0.1
v 0.1 -0.2 0.1
v 0.2 -0.4 0.1
v 0.2 -0.3 0.1
v 0.2 -0.2 0.1
v -0.1 -0.4 -0.1
v -0.1 -0.3 -0.1
v 0 -0.4 -0.1
v 0 -0.3 -0.1
v 0.2 -0.4 -0.1
v 0.2 -0.3 -0.1
v 0.3 -0.4 -0.1
v 0.3 -0.3 -0.1
v -0.3 -0.4 -0.2
v -0.3 -0.3 -0.2
v -0.2 -0.4 -0.2
v -0.2 -0.3 -0.2
v -0.3 -0.4 0.2
v -0.3 -0.3 0.2
v -0.3 -0.2 0.2
v -0.2 -0.4 0.2
v -0.2 -0.3 0.2
v -0.2 -0.2 0.2
v 0 -0.4 0.2
v 0 -0.3 0.2
v 0.1 -0.4 0.2
v 0.1 -0.3 0.2
v -0.2 -0.4 0
v -0.2 -0.3 0
v -0.2 -0.2 0
v -0.1 -0.4 0
v -0.1 -0.3 0
v -0.1 -0.2 0
v 0.1 -0.4 0
v 0.1 -0.3 0
v 0.1 -0.2 0
v 0.2 -0.4 0
v 0.2 -0.3 0
v 0.2 -0.2 0
v -0.1 -0.4 -0.2
v -0.1 -0.3 -0.2
v 0 -0.4 -0.2
v 0 -0.3 -0.2
v 0.2 -0.4 -0.2
v 0.2 -0.3 -0.2
v 0.3 -0.4 -0.2
v 0.3 -0.3 -0.2
v -0.3 -0.4 -0.3
v -0.3 -0.3 -0.3
v -0.2 -0.4 -0.3
v -0.2 -0.3 -0.3
v -0.3 -0.4 0.3
v -0.2 -0.4 0.3
v 0 -0.4 0.3
v 0.1 -0.4 0.3
v -0.3 -0.4 0.2
v -0.2 -0.4 0.2
v 0 -0.4 0.2
v 0.1 -0.4 0.2
v -0.2 -0.4 0.1
v -0.1 -0.4 0.1
v 0.1 -0.4 0.1
v 0.2 -0.4 0.1
v -0.2 -0.4 0
v -0.1 -0.4 0
v 0.1 -0.4 0
v 0.2 -0.4 0
v -0.1 -0.4 -0.1
v 0 -0.4 -0.1
v 0.2 -0.4 -0.1
v 0.3 -0.4 -0.1
v -0.3 -0.4 -0.2
v -0.2 -0.4 -0.2
v -0.1 -0.4 -0.2
v 0 -0.4 -0.2
v 0.2 -0.4 -0.2
v 0.3 -0.4 -0.2
v -0.3 -0.4 -0.3
v -0.2 -0.4 -0.3
v 0 -0.3 0.3
v 0.1 -0.3 0.3
v 0 -0.3 0.2
v 0.1 -0.3 0.2
v -0.1 -0.3 -0.1
v 0 -0.3 -0.1
v 0.2 -0.3 -0.1
v 0.3 -0.3 -0.1
v -0.3 -0.3 -0.2
v -0.2 -0.3 -0.2
v -0.1 -0.3 -0.2
v 0 -0.3 -0.2
v 0.2 -0.3 -0.2
v 0.3 -0.3 -0.2
v -0.3 -0.3 -0.3
v -0.2 -0.3 -0.3
v -0.3 -0.2 0.3
v -0.2 -0.2 0.3
v -0.3 -0.2 0.2
v -0.2 -0.2 0.2
v -0.2 -0.2 0.1
v -0.1 -0.2 0.1
v 0.1 -0.2 0.1
v 0.2 -0.2 0.1
v -0.2 -0.2 0
v -0.1 -0.2 0
v 0.1 -0.2 0
v 0.2 -0.2 0

# faces
f 5/1/1 2/1/1 1/1/1
f 6/1/1 2/1/1 5/1/1
f 7/1/1 4/1/1 3/1/1
f 8/1/1 4/1/1 7/1/1
f 9/2/1 6/2/1 5/2/1
f 10/2/1 6/2/1 9/2/1
f 13/1/1 12/1/1 11/1/1
f 14/1/1 12/1/1 13/1/1
f 15/2/1 14/2/1 13/2/1
f 16/2/1 14/2/1 15/2/1
f 19/1/1 18/1/1 17/1/1
f 20/1/1 18/1/1 19/1/1
f 23/1/1 22/1/1 21/1/1
f 24/1/1 22/1/1 23/1/1
f 27/1/1 26/1/1 25/1/1
f 28/1/1 26/1/1 27/1/1
f 29/2/1 28/2/1 27/2/1
f 30/2/1 28/2/1 29/2/1
f 33/2/1 32/2/1 31/2/1
f 34/2/1 32/2/1 33/2/1
f 35/1/2 36/1/2 39/1/2
f 39/1/2 36/1/2 40/1/2
f 37/1/2 38/1/2 41/1/2
f 41/1/2 38/1/2 42/1/2
f 39/2/2 40/2/2 43/2/2
f 43/2/2 40/2/2 44/2/2
f 45/1/2 46/1/2 47/1/2
f 47/1/2 46/1/2 48/1/2
f 47/2/2 48/2/2 49/2/2
f 49/2/2 48/2/2 50/2/2
f 51/1/2 52/1/2 53/1/2
f 53/1/2 52/1/2 54/1/2
f 55/1/2 56/1/2 57/1/2
f 57/1/2 56/1/2 58/1/2
f 59/1/2 60/1/2 61/1/2
f 61/1/2 60/1/2 62/1/2
f 61/2/2 62/2/2 63/2/2
f 63/2/2 62/2/2 64/2/2
f 65/2/2 66/2/2 67/2/2
f 67/2/2 66/2/2 68/2/2
f 72/1/3 70/1/3 69/1/3
f 73/2/3 71/2/3 70/2/3
f 73/1/3 70/1/3 72/1/3
f 74/2/3 71/2/3 73/2/3
f 77/1/3 76/1/3 75/1/3
f 78/1/3 76/1/3 77/1/3
f 82/1/3 80/1/3 79/1/3
f 83/2/3 81/2/3 80/2/3
f 83/1/3 80/1/3 82/1/3
f 84/2/3 81/2/3 83/2/3
f 88/1/3 86/1/3 85/1/3
f 89/2/3 87/2/3 86/2/3
f 89/1/3 86/1/3 88/1/3
f 90/2/3 87/2/3 89/2/3
f 93/1/3 92/1/3 91/1/3
f 94/1/3 92/1/3 93/1/3
f 97/2/3 96/2/3 95/2/3
f 98/2/3 96/2/3 97/2/3
f 101/1/3 100/1/3 99/1/3
f 102/1/3 100/1/3 101/1/3
f 103/1/4 104/1/4 106/1/4
f 104/2/4 105/2/4 107/2/4
f 106/1/4 104/1/4 107/1/4
f 107/2/4 105/2/4 108/2/4
f 109/1/4 110/1/4 111/1/4
f 111/1/4 110/1/4 112/1/4
f 113/1/4 114/1/4 116/1/4
f 114/2/4 115/2/4 117/2/4
f 116/1/4 114/1/4 117/1/4
f 117/2/4 115/2/4 118/2/4
f 119/1/4 120/1/4 122/1/4
f 120/2/4 121/2/4 123/2/4
f 122/1/4 120/1/4 123/1/4
f 123/2/4 121/2/4 124/2/4
f 125/1/4 126/1/4 127/1/4
f 127/1/4 126/1/4 128/1/4
f 129/2/4 130/2/4 131/2/4
f 131/2/4 130/2/4 132/2/4
f 133/1/4 134/1/4 135/1/4
f 135/1/4 134/1/4 136/1/4
f 141/1/5 138/1/5 137/1/5
f 142/1/5 138/1/5 141/1/5
f 143/1/5 140/1/5 139/1/5
f 144/1/5 140/1/5 143/1/5
f 149/1/5 146/1/5 145/1/5
f 150/1/5 146/1/5 149/1/5
f 151/1/5 148/1/5 147/1/5
f 152/1/5 148/1/5 151/1/5
f 159/1/5 154/1/5 153/1/5
f 160/1/5 154/1/5 159/1/5
f 161/2/5 156/2/5 155/2/5
f 162/2/5 156/2/5 161/2/5
f 163/1/5 158/1/5 157/1/5
f 164/1/5 158/1/5 163/1/5
f 165/1/6 166/1/6 167/1/6
f 167/1/6 166/1/6 168/1/6
f 169/1/6 170/1/6 175/1/6
f 175/1/6 170/1/6 176/1/6
f 171/2/6 172/2/6 177/2/6
f 177/2/6 172/2/6 178/2/6
f 173/1/6 174/1/6 179/1/6
f 179/1/6 174/1/6 180/1/6
f 181/2/6 182/2/6 183/2/6
f 183/2/6 182/2/6 184/2/6
f 185/2/6 186/2/6 189/2/6
f 189/2/6 186/2/6 190/2/6
f 187/2/6 188/2/6 191/2/6
f 191/2/6 188/2/6 192/2/6
