# MagicaVoxel @ Ephtracy

# group
o 

# material
mtllib mesaRocks1-0.mtl
usemtl palette

# normals
vn -1 0 0
vn 1 0 0
vn 0 0 1
vn 0 0 -1
vn 0 -1 0
vn 0 1 0

# texcoords
vt 0.130859 0.5
vt 0.142578 0.5
vt 0.166016 0.5

# verts
v -0.2 -0.25 0.15
v -0.2 -0.25 -0.15
v -0.2 -0.15 0.15
v -0.2 -0.15 -0.15
v -0.2 -0.05 0.15
v -0.2 -0.05 -0.15
v -0.2 0.05 0.15
v -0.2 0.05 -0.15
v -0.2 0.15 0.25
v -0.2 0.15 -0.05
v -0.2 0.25 0.25
v -0.2 0.25 0.15
v -0.2 0.25 -0.05
v -0.2 0.25 -0.15
v -0.2 0.35 0.15
v -0.2 0.35 -0.15
v -0.1 -0.35 0.15
v -0.1 -0.35 -0.15
v -0.1 -0.25 0.15
v -0.1 -0.25 -0.15
v -0.1 -0.15 0.05
v -0.1 -0.15 -0.15
v -0.1 -0.15 -0.25
v -0.1 -0.05 0.05
v -0.1 -0.05 -0.15
v -0.1 -0.05 -0.25
v -0.1 0.05 0.15
v -0.1 0.05 -0.15
v -0.1 0.15 0.15
v -0.1 0.15 -0.05
v -0.1 0.15 -0.15
v 0.1 -0.25 0.15
v 0.1 -0.25 -0.15
v 0.1 -0.15 0.15
v 0.1 -0.15 0.05
v 0.1 -0.15 -0.15
v 0.1 -0.05 0.15
v 0.1 -0.05 0.05
v 0.1 -0.05 -0.15
v 0.1 0.05 0.15
v 0.1 0.05 -0.15
v 0.1 0.15 0.25
v 0.1 0.15 0.15
v 0.1 0.15 -0.05
v 0.1 0.25 0.25
v 0.1 0.25 0.15
v 0.1 0.25 -0.05
v 0.1 0.25 -0.15
v 0.1 0.35 0.15
v 0.1 0.35 -0.15
v 0.2 -0.35 0.15
v 0.2 -0.35 -0.15
v 0.2 -0.25 0.15
v 0.2 -0.25 -0.15
v 0.2 -0.15 0.05
v 0.2 -0.15 -0.25
v 0.2 -0.05 0.05
v 0.2 -0.05 -0.25
v 0.2 0.05 0.15
v 0.2 0.05 -0.15
v 0.2 0.15 0.15
v 0.2 0.15 -0.15
v -0.2 0.15 0.25
v -0.2 0.25 0.25
v 0.1 0.15 0.25
v 0.1 0.25 0.25
v -0.2 -0.25 0.15
v -0.2 -0.15 0.15
v -0.2 -0.05 0.15
v -0.2 0.05 0.15
v -0.2 0.25 0.15
v -0.2 0.35 0.15
v -0.1 -0.35 0.15
v -0.1 -0.25 0.15
v -0.1 0.05 0.15
v -0.1 0.15 0.15
v 0.1 -0.25 0.15
v 0.1 -0.15 0.15
v 0.1 -0.05 0.15
v 0.1 0.05 0.15
v 0.1 0.15 0.15
v 0.1 0.25 0.15
v 0.1 0.35 0.15
v 0.2 -0.35 0.15
v 0.2 -0.25 0.15
v 0.2 0.05 0.15
v 0.2 0.15 0.15
v -0.1 -0.15 0.05
v -0.1 -0.05 0.05
v 0.1 -0.15 0.05
v 0.1 -0.05 0.05
v 0.2 -0.15 0.05
v 0.2 -0.05 0.05
v -0.2 0.15 -0.05
v -0.2 0.25 -0.05
v -0.1 0.15 -0.05
v 0.1 0.15 -0.05
v 0.1 0.25 -0.05
v -0.2 -0.25 -0.15
v -0.2 -0.15 -0.15
v -0.2 -0.05 -0.15
v -0.2 0.05 -0.15
v -0.2 0.25 -0.15
v -0.2 0.35 -0.15
v -0.1 -0.35 -0.15
v -0.1 -0.25 -0.15
v -0.1 -0.15 -0.15
v -0.1 -0.05 -0.15
v -0.1 0.05 -0.15
v -0.1 0.15 -0.15
v 0.1 -0.25 -0.15
v 0.1 -0.15 -0.15
v 0.1 -0.05 -0.15
v 0.1 0.05 -0.15
v 0.1 0.25 -0.15
v 0.1 0.35 -0.15
v 0.2 -0.35 -0.15
v 0.2 -0.25 -0.15
v 0.2 0.05 -0.15
v 0.2 0.15 -0.15
v -0.1 -0.15 -0.25
v -0.1 -0.05 -0.25
v 0.2 -0.15 -0.25
v 0.2 -0.05 -0.25
v -0.1 -0.35 0.15
v 0.2 -0.35 0.15
v -0.1 -0.35 -0.15
v 0.2 -0.35 -0.15
v -0.2 -0.25 0.15
v -0.1 -0.25 0.15
v -0.2 -0.25 -0.15
v -0.1 -0.25 -0.15
v 0.1 -0.15 0.05
v 0.2 -0.15 0.05
v -0.1 -0.15 -0.15
v 0.1 -0.15 -0.15
v -0.1 -0.15 -0.25
v 0.2 -0.15 -0.25
v -0.2 -0.05 0.15
v 0.1 -0.05 0.15
v -0.1 -0.05 0.05
v 0.1 -0.05 0.05
v -0.2 -0.05 -0.15
v -0.1 -0.05 -0.15
v 0.1 0.05 0.15
v 0.2 0.05 0.15
v 0.1 0.05 -0.15
v 0.2 0.05 -0.15
v -0.2 0.15 0.25
v 0.1 0.15 0.25
v -0.1 0.15 0.15
v 0.1 0.15 0.15
v -0.2 0.15 -0.05
v -0.1 0.15 -0.05
v -0.2 0.25 -0.05
v 0.1 0.25 -0.05
v -0.2 0.25 -0.15
v 0.1 0.25 -0.15
v 0.1 -0.25 0.15
v 0.2 -0.25 0.15
v 0.1 -0.25 -0.15
v 0.2 -0.25 -0.15
v -0.2 -0.15 0.15
v 0.1 -0.15 0.15
v -0.1 -0.15 0.05
v 0.1 -0.15 0.05
v -0.2 -0.15 -0.15
v -0.1 -0.15 -0.15
v 0.1 -0.05 0.05
v 0.2 -0.05 0.05
v -0.1 -0.05 -0.15
v 0.1 -0.05 -0.15
v -0.1 -0.05 -0.25
v 0.2 -0.05 -0.25
v -0.2 0.05 0.15
v -0.1 0.05 0.15
v -0.2 0.05 -0.15
v -0.1 0.05 -0.15
v 0.1 0.15 0.15
v 0.2 0.15 0.15
v -0.1 0.15 -0.05
v 0.1 0.15 -0.05
v -0.1 0.15 -0.15
v 0.2 0.15 -0.15
v -0.2 0.25 0.25
v 0.1 0.25 0.25
v -0.2 0.25 0.15
v 0.1 0.25 0.15
v -0.2 0.35 0.15
v 0.1 0.35 0.15
v -0.2 0.35 -0.15
v 0.1 0.35 -0.15

# faces
f 3/1/1 2/1/1 1/1/1
f 4/1/1 2/1/1 3/1/1
f 7/3/1 6/3/1 5/3/1
f 8/3/1 6/3/1 7/3/1
f 11/1/1 10/1/1 9/1/1
f 12/1/1 10/1/1 11/1/1
f 13/1/1 10/1/1 12/1/1
f 15/2/1 14/2/1 13/2/1
f 15/2/1 13/2/1 12/2/1
f 16/2/1 14/2/1 15/2/1
f 19/3/1 18/3/1 17/3/1
f 20/3/1 18/3/1 19/3/1
f 24/2/1 22/2/1 21/2/1
f 24/2/1 23/2/1 22/2/1
f 25/2/1 23/2/1 24/2/1
f 26/2/1 23/2/1 25/2/1
f 29/1/1 28/1/1 27/1/1
f 30/1/1 28/1/1 29/1/1
f 31/1/1 28/1/1 30/1/1
f 32/1/2 33/1/2 34/1/2
f 34/1/2 33/1/2 35/1/2
f 35/1/2 33/1/2 36/1/2
f 37/3/2 38/3/2 40/3/2
f 38/3/2 39/3/2 40/3/2
f 40/3/2 39/3/2 41/3/2
f 42/1/2 43/1/2 45/1/2
f 43/1/2 44/1/2 45/1/2
f 45/1/2 44/1/2 46/1/2
f 46/1/2 44/1/2 47/1/2
f 47/2/2 48/2/2 49/2/2
f 46/2/2 47/2/2 49/2/2
f 49/2/2 48/2/2 50/2/2
f 51/3/2 52/3/2 53/3/2
f 53/3/2 52/3/2 54/3/2
f 55/2/2 56/2/2 57/2/2
f 57/2/2 56/2/2 58/2/2
f 59/1/2 60/1/2 61/1/2
f 61/1/2 60/1/2 62/1/2
f 65/1/3 64/1/3 63/1/3
f 66/1/3 64/1/3 65/1/3
f 74/1/3 68/1/3 67/1/3
f 75/3/3 70/3/3 69/3/3
f 77/3/3 74/3/3 73/3/3
f 77/1/3 68/1/3 74/1/3
f 78/1/3 68/1/3 77/1/3
f 79/3/3 75/3/3 69/3/3
f 80/1/3 76/1/3 75/1/3
f 80/3/3 75/3/3 79/3/3
f 81/1/3 76/1/3 80/1/3
f 82/2/3 72/2/3 71/2/3
f 83/2/3 72/2/3 82/2/3
f 84/3/3 77/3/3 73/3/3
f 85/3/3 77/3/3 84/3/3
f 86/1/3 81/1/3 80/1/3
f 87/1/3 81/1/3 86/1/3
f 90/2/3 89/2/3 88/2/3
f 91/2/3 89/2/3 90/2/3
f 92/2/3 91/2/3 90/2/3
f 93/2/3 91/2/3 92/2/3
f 94/1/4 95/1/4 96/1/4
f 96/1/4 95/1/4 97/1/4
f 97/1/4 95/1/4 98/1/4
f 99/1/4 100/1/4 106/1/4
f 106/1/4 100/1/4 107/1/4
f 101/3/4 102/3/4 108/3/4
f 108/3/4 102/3/4 109/3/4
f 106/1/4 107/1/4 111/1/4
f 105/3/4 106/3/4 111/3/4
f 111/1/4 107/1/4 112/1/4
f 108/3/4 109/3/4 113/3/4
f 109/1/4 110/1/4 114/1/4
f 113/3/4 109/3/4 114/3/4
f 103/2/4 104/2/4 115/2/4
f 115/2/4 104/2/4 116/2/4
f 105/3/4 111/3/4 117/3/4
f 117/3/4 111/3/4 118/3/4
f 114/1/4 110/1/4 119/1/4
f 119/1/4 110/1/4 120/1/4
f 121/2/4 122/2/4 123/2/4
f 123/2/4 122/2/4 124/2/4
f 127/3/5 126/3/5 125/3/5
f 128/3/5 126/3/5 127/3/5
f 131/1/5 130/1/5 129/1/5
f 132/1/5 130/1/5 131/1/5
f 136/2/5 134/2/5 133/2/5
f 137/2/5 136/2/5 135/2/5
f 138/2/5 134/2/5 136/2/5
f 138/2/5 136/2/5 137/2/5
f 141/3/5 140/3/5 139/3/5
f 142/3/5 140/3/5 141/3/5
f 143/3/5 141/3/5 139/3/5
f 144/3/5 141/3/5 143/3/5
f 147/1/5 146/1/5 145/1/5
f 148/1/5 146/1/5 147/1/5
f 151/1/5 150/1/5 149/1/5
f 152/1/5 150/1/5 151/1/5
f 153/1/5 151/1/5 149/1/5
f 154/1/5 151/1/5 153/1/5
f 157/2/5 156/2/5 155/2/5
f 158/2/5 156/2/5 157/2/5
f 159/3/6 160/3/6 161/3/6
f 161/3/6 160/3/6 162/3/6
f 163/1/6 164/1/6 165/1/6
f 165/1/6 164/1/6 166/1/6
f 163/1/6 165/1/6 167/1/6
f 167/1/6 165/1/6 168/1/6
f 169/2/6 170/2/6 172/2/6
f 171/2/6 172/2/6 173/2/6
f 172/2/6 170/2/6 174/2/6
f 173/2/6 172/2/6 174/2/6
f 175/3/6 176/3/6 177/3/6
f 177/3/6 176/3/6 178/3/6
f 179/1/6 180/1/6 182/1/6
f 181/1/6 182/1/6 183/1/6
f 182/1/6 180/1/6 184/1/6
f 183/1/6 182/1/6 184/1/6
f 185/1/6 186/1/6 187/1/6
f 187/1/6 186/1/6 188/1/6
f 189/2/6 190/2/6 191/2/6
f 191/2/6 190/2/6 192/2/6
