# MagicaVoxel @ Ephtracy

# group
o 

# material
mtllib nightGrass1-0.mtl
usemtl palette

# normals
vn -1 0 0
vn 1 0 0
vn 0 0 1
vn 0 0 -1
vn 0 -1 0
vn 0 1 0

# texcoords
vt 0.634766 0.5
vt 0.650391 0.5
vt 0.677734 0.5

# verts
v -0.3 -0.4 0
v -0.3 -0.4 -0.1
v -0.3 -0.1 0
v -0.3 -0.1 -0.1
v -0.3 0 0
v -0.3 0 -0.1
v -0.1 -0.4 0.3
v -0.1 -0.4 0.2
v -0.1 -0.4 0.1
v -0.1 -0.4 0
v -0.1 -0.4 -0.2
v -0.1 -0.4 -0.3
v -0.1 -0.3 -0.2
v -0.1 -0.3 -0.3
v -0.1 -0.2 0.3
v -0.1 -0.2 0.2
v -0.1 -0.1 0.3
v -0.1 -0.1 0.2
v -0.1 -0.1 0.1
v -0.1 -0.1 0
v -0.1 -0.1 -0.2
v -0.1 -0.1 -0.3
v -0.1 0 0.1
v -0.1 0 0
v -0.1 0.1 0.1
v -0.1 0.1 0
v 0.1 -0.4 0.2
v 0.1 -0.4 0.1
v 0.1 -0.2 0.2
v 0.1 -0.2 0.1
v 0.2 -0.4 -0.1
v 0.2 -0.4 -0.2
v 0.2 -0.3 -0.1
v 0.2 -0.3 -0.2
v 0.2 -0.2 -0.1
v 0.2 -0.2 -0.2
v 0.2 -0.1 -0.1
v 0.2 -0.1 -0.2
v -0.2 -0.4 0
v -0.2 -0.4 -0.1
v -0.2 -0.1 0
v -0.2 -0.1 -0.1
v -0.2 0 0
v -0.2 0 -0.1
v 0 -0.4 0.3
v 0 -0.4 0.2
v 0 -0.4 0.1
v 0 -0.4 0
v 0 -0.4 -0.2
v 0 -0.4 -0.3
v 0 -0.3 -0.2
v 0 -0.3 -0.3
v 0 -0.2 0.3
v 0 -0.2 0.2
v 0 -0.1 0.3
v 0 -0.1 0.2
v 0 -0.1 0.1
v 0 -0.1 0
v 0 -0.1 -0.2
v 0 -0.1 -0.3
v 0 0 0.1
v 0 0 0
v 0 0.1 0.1
v 0 0.1 0
v 0.2 -0.4 0.2
v 0.2 -0.4 0.1
v 0.2 -0.2 0.2
v 0.2 -0.2 0.1
v 0.3 -0.4 -0.1
v 0.3 -0.4 -0.2
v 0.3 -0.3 -0.1
v 0.3 -0.3 -0.2
v 0.3 -0.2 -0.1
v 0.3 -0.2 -0.2
v 0.3 -0.1 -0.1
v 0.3 -0.1 -0.2
v -0.1 -0.4 0.3
v -0.1 -0.2 0.3
v -0.1 -0.1 0.3
v 0 -0.4 0.3
v 0 -0.2 0.3
v 0 -0.1 0.3
v 0.1 -0.4 0.2
v 0.1 -0.2 0.2
v 0.2 -0.4 0.2
v 0.2 -0.2 0.2
v -0.1 -0.4 0.1
v -0.1 -0.1 0.1
v -0.1 0 0.1
v -0.1 0.1 0.1
v 0 -0.4 0.1
v 0 -0.1 0.1
v 0 0 0.1
v 0 0.1 0.1
v -0.3 -0.4 0
v -0.3 -0.1 0
v -0.3 0 0
v -0.2 -0.4 0
v -0.2 -0.1 0
v -0.2 0 0
v 0.2 -0.4 -0.1
v 0.2 -0.3 -0.1
v 0.2 -0.2 -0.1
v 0.2 -0.1 -0.1
v 0.3 -0.4 -0.1
v 0.3 -0.3 -0.1
v 0.3 -0.2 -0.1
v 0.3 -0.1 -0.1
v -0.1 -0.4 -0.2
v -0.1 -0.3 -0.2
v -0.1 -0.1 -0.2
v 0 -0.4 -0.2
v 0 -0.3 -0.2
v 0 -0.1 -0.2
v -0.1 -0.4 0.2
v -0.1 -0.2 0.2
v -0.1 -0.1 0.2
v 0 -0.4 0.2
v 0 -0.2 0.2
v 0 -0.1 0.2
v 0.1 -0.4 0.1
v 0.1 -0.2 0.1
v 0.2 -0.4 0.1
v 0.2 -0.2 0.1
v -0.1 -0.4 0
v -0.1 -0.1 0
v -0.1 0 0
v -0.1 0.1 0
v 0 -0.4 0
v 0 -0.1 0
v 0 0 0
v 0 0.1 0
v -0.3 -0.4 -0.1
v -0.3 -0.1 -0.1
v -0.3 0 -0.1
v -0.2 -0.4 -0.1
v -0.2 -0.1 -0.1
v -0.2 0 -0.1
v 0.2 -0.4 -0.2
v 0.2 -0.3 -0.2
v 0.2 -0.2 -0.2
v 0.2 -0.1 -0.2
v 0.3 -0.4 -0.2
v 0.3 -0.3 -0.2
v 0.3 -0.2 -0.2
v 0.3 -0.1 -0.2
v -0.1 -0.4 -0.3
v -0.1 -0.3 -0.3
v -0.1 -0.1 -0.3
v 0 -0.4 -0.3
v 0 -0.3 -0.3
v 0 -0.1 -0.3
v -0.1 -0.4 0.3
v 0 -0.4 0.3
v -0.1 -0.4 0.2
v 0 -0.4 0.2
v 0.1 -0.4 0.2
v 0.2 -0.4 0.2
v -0.1 -0.4 0.1
v 0 -0.4 0.1
v 0.1 -0.4 0.1
v 0.2 -0.4 0.1
v -0.3 -0.4 0
v -0.2 -0.4 0
v -0.1 -0.4 0
v 0 -0.4 0
v -0.3 -0.4 -0.1
v -0.2 -0.4 -0.1
v 0.2 -0.4 -0.1
v 0.3 -0.4 -0.1
v -0.1 -0.4 -0.2
v 0 -0.4 -0.2
v 0.2 -0.4 -0.2
v 0.3 -0.4 -0.2
v -0.1 -0.4 -0.3
v 0 -0.4 -0.3
v 0.1 -0.2 0.2
v 0.2 -0.2 0.2
v 0.1 -0.2 0.1
v 0.2 -0.2 0.1
v -0.1 -0.1 0.3
v 0 -0.1 0.3
v -0.1 -0.1 0.2
v 0 -0.1 0.2
v 0.2 -0.1 -0.1
v 0.3 -0.1 -0.1
v -0.1 -0.1 -0.2
v 0 -0.1 -0.2
v 0.2 -0.1 -0.2
v 0.3 -0.1 -0.2
v -0.1 -0.1 -0.3
v 0 -0.1 -0.3
v -0.3 0 0
v -0.2 0 0
v -0.3 0 -0.1
v -0.2 0 -0.1
v -0.1 0.1 0.1
v 0 0.1 0.1
v -0.1 0.1 0
v 0 0.1 0

# faces
f 3/2/1 2/2/1 1/2/1
f 4/2/1 2/2/1 3/2/1
f 5/1/1 4/1/1 3/1/1
f 6/1/1 4/1/1 5/1/1
f 13/2/1 12/2/1 11/2/1
f 14/2/1 12/2/1 13/2/1
f 15/2/1 8/2/1 7/2/1
f 16/2/1 8/2/1 15/2/1
f 17/1/1 16/1/1 15/1/1
f 18/1/1 16/1/1 17/1/1
f 19/2/1 10/2/1 9/2/1
f 20/2/1 10/2/1 19/2/1
f 21/1/1 14/1/1 13/1/1
f 22/1/1 14/1/1 21/1/1
f 23/1/1 20/1/1 19/1/1
f 24/1/1 20/1/1 23/1/1
f 25/3/1 24/3/1 23/3/1
f 26/3/1 24/3/1 25/3/1
f 29/2/1 28/2/1 27/2/1
f 30/2/1 28/2/1 29/2/1
f 33/2/1 32/2/1 31/2/1
f 34/2/1 32/2/1 33/2/1
f 35/1/1 34/1/1 33/1/1
f 36/1/1 34/1/1 35/1/1
f 37/3/1 36/3/1 35/3/1
f 38/3/1 36/3/1 37/3/1
f 39/2/2 40/2/2 41/2/2
f 41/2/2 40/2/2 42/2/2
f 41/1/2 42/1/2 43/1/2
f 43/1/2 42/1/2 44/1/2
f 49/2/2 50/2/2 51/2/2
f 51/2/2 50/2/2 52/2/2
f 45/2/2 46/2/2 53/2/2
f 53/2/2 46/2/2 54/2/2
f 53/1/2 54/1/2 55/1/2
f 55/1/2 54/1/2 56/1/2
f 47/2/2 48/2/2 57/2/2
f 57/2/2 48/2/2 58/2/2
f 51/1/2 52/1/2 59/1/2
f 59/1/2 52/1/2 60/1/2
f 57/1/2 58/1/2 61/1/2
f 61/1/2 58/1/2 62/1/2
f 61/3/2 62/3/2 63/3/2
f 63/3/2 62/3/2 64/3/2
f 65/2/2 66/2/2 67/2/2
f 67/2/2 66/2/2 68/2/2
f 69/2/2 70/2/2 71/2/2
f 71/2/2 70/2/2 72/2/2
f 71/1/2 72/1/2 73/1/2
f 73/1/2 72/1/2 74/1/2
f 73/3/2 74/3/2 75/3/2
f 75/3/2 74/3/2 76/3/2
f 80/2/3 78/2/3 77/2/3
f 81/1/3 79/1/3 78/1/3
f 81/2/3 78/2/3 80/2/3
f 82/1/3 79/1/3 81/1/3
f 85/2/3 84/2/3 83/2/3
f 86/2/3 84/2/3 85/2/3
f 91/2/3 88/2/3 87/2/3
f 92/1/3 89/1/3 88/1/3
f 92/2/3 88/2/3 91/2/3
f 93/3/3 90/3/3 89/3/3
f 93/1/3 89/1/3 92/1/3
f 94/3/3 90/3/3 93/3/3
f 98/2/3 96/2/3 95/2/3
f 99/1/3 97/1/3 96/1/3
f 99/2/3 96/2/3 98/2/3
f 100/1/3 97/1/3 99/1/3
f 105/2/3 102/2/3 101/2/3
f 106/1/3 103/1/3 102/1/3
f 106/2/3 102/2/3 105/2/3
f 107/3/3 104/3/3 103/3/3
f 107/1/3 103/1/3 106/1/3
f 108/3/3 104/3/3 107/3/3
f 112/2/3 110/2/3 109/2/3
f 113/1/3 111/1/3 110/1/3
f 113/2/3 110/2/3 112/2/3
f 114/1/3 111/1/3 113/1/3
f 115/2/4 116/2/4 118/2/4
f 116/1/4 117/1/4 119/1/4
f 118/2/4 116/2/4 119/2/4
f 119/1/4 117/1/4 120/1/4
f 121/2/4 122/2/4 123/2/4
f 123/2/4 122/2/4 124/2/4
f 125/2/4 126/2/4 129/2/4
f 126/1/4 127/1/4 130/1/4
f 129/2/4 126/2/4 130/2/4
f 127/3/4 128/3/4 131/3/4
f 130/1/4 127/1/4 131/1/4
f 131/3/4 128/3/4 132/3/4
f 133/2/4 134/2/4 136/2/4
f 134/1/4 135/1/4 137/1/4
f 136/2/4 134/2/4 137/2/4
f 137/1/4 135/1/4 138/1/4
f 139/2/4 140/2/4 143/2/4
f 140/1/4 141/1/4 144/1/4
f 143/2/4 140/2/4 144/2/4
f 141/3/4 142/3/4 145/3/4
f 144/1/4 141/1/4 145/1/4
f 145/3/4 142/3/4 146/3/4
f 147/2/4 148/2/4 150/2/4
f 148/1/4 149/1/4 151/1/4
f 150/2/4 148/2/4 151/2/4
f 151/1/4 149/1/4 152/1/4
f 155/2/5 154/2/5 153/2/5
f 156/2/5 154/2/5 155/2/5
f 161/2/5 158/2/5 157/2/5
f 162/2/5 158/2/5 161/2/5
f 165/2/5 160/2/5 159/2/5
f 166/2/5 160/2/5 165/2/5
f 167/2/5 164/2/5 163/2/5
f 168/2/5 164/2/5 167/2/5
f 173/2/5 170/2/5 169/2/5
f 174/2/5 170/2/5 173/2/5
f 175/2/5 172/2/5 171/2/5
f 176/2/5 172/2/5 175/2/5
f 177/2/6 178/2/6 179/2/6
f 179/2/6 178/2/6 180/2/6
f 181/1/6 182/1/6 183/1/6
f 183/1/6 182/1/6 184/1/6
f 185/3/6 186/3/6 189/3/6
f 189/3/6 186/3/6 190/3/6
f 187/1/6 188/1/6 191/1/6
f 191/1/6 188/1/6 192/1/6
f 193/1/6 194/1/6 195/1/6
f 195/1/6 194/1/6 196/1/6
f 197/3/6 198/3/6 199/3/6
f 199/3/6 198/3/6 200/3/6
