# MagicaVoxel @ Ephtracy

# group
o 

# material
mtllib redMushrooms2-0.mtl
usemtl palette

# normals
vn -1 0 0
vn 1 0 0
vn 0 0 1
vn 0 0 -1
vn 0 -1 0
vn 0 1 0

# texcoords
vt 0.0253906 0.5
vt 0.0605469 0.5
vt 0.248047 0.5

# verts
v -0.2 -0.3 0.2
v -0.2 -0.3 -0.1
v -0.2 -0.2 0.2
v -0.2 -0.2 0.1
v -0.2 -0.1 0.2
v -0.2 -0.1 0.1
v -0.2 -0.1 -0.1
v -0.1 -0.4 0.1
v -0.1 -0.4 0
v -0.1 -0.3 0.1
v -0.1 -0.3 0
v 0 -0.4 0.1
v 0 -0.4 0
v 0 -0.3 0.1
v 0 -0.3 0
v 0.1 -0.3 0.2
v 0.1 -0.3 -0.1
v 0.1 -0.2 0.1
v 0.1 -0.2 0
v 0.1 -0.1 0.2
v 0.1 -0.1 0.1
v 0.1 -0.1 0
v 0.1 -0.1 -0.1
v -0.2 -0.3 0.2
v -0.2 -0.2 0.2
v -0.2 -0.1 0.2
v -0.1 -0.2 0.2
v -0.1 -0.1 0.2
v 0.1 -0.3 0.2
v 0.1 -0.1 0.2
v -0.1 -0.4 0.1
v -0.1 -0.3 0.1
v 0 -0.4 0.1
v 0 -0.3 0.1
v -0.1 -0.4 0
v -0.1 -0.3 0
v 0 -0.4 0
v 0 -0.3 0
v -0.2 -0.3 -0.1
v -0.2 -0.1 -0.1
v -0.1 -0.3 -0.1
v -0.1 -0.2 -0.1
v 0 -0.3 -0.1
v 0 -0.2 -0.1
v 0.1 -0.3 -0.1
v 0.1 -0.1 -0.1
v -0.1 -0.4 0.1
v 0 -0.4 0.1
v -0.1 -0.4 0
v 0 -0.4 0
v -0.2 -0.3 0.2
v 0.1 -0.3 0.2
v -0.1 -0.3 0.1
v 0 -0.3 0.1
v -0.1 -0.3 0
v 0 -0.3 0
v -0.2 -0.3 -0.1
v -0.1 -0.3 -0.1
v 0 -0.3 -0.1
v 0.1 -0.3 -0.1
v -0.2 -0.1 0.2
v -0.1 -0.1 0.2
v 0.1 -0.1 0.2
v -0.2 -0.1 0.1
v -0.1 -0.1 0.1
v 0 -0.1 0.1
v 0.1 -0.1 0.1
v 0 -0.1 0
v 0.1 -0.1 0
v -0.2 -0.1 -0.1
v 0.1 -0.1 -0.1

# faces
f 3/2/1 2/2/1 1/2/1
f 4/2/1 2/2/1 3/2/1
f 5/1/1 4/1/1 3/1/1
f 6/2/1 2/2/1 4/2/1
f 6/1/1 4/1/1 5/1/1
f 7/2/1 2/2/1 6/2/1
f 10/3/1 9/3/1 8/3/1
f 11/3/1 9/3/1 10/3/1
f 12/3/2 13/3/2 14/3/2
f 14/3/2 13/3/2 15/3/2
f 16/2/2 17/2/2 18/2/2
f 18/2/2 17/2/2 19/2/2
f 16/2/2 18/2/2 20/2/2
f 18/1/2 19/1/2 21/1/2
f 20/2/2 18/2/2 21/2/2
f 19/2/2 17/2/2 22/2/2
f 21/1/2 19/1/2 22/1/2
f 22/2/2 17/2/2 23/2/2
f 27/2/3 25/2/3 24/2/3
f 27/1/3 26/1/3 25/1/3
f 28/1/3 26/1/3 27/1/3
f 29/2/3 27/2/3 24/2/3
f 29/2/3 28/2/3 27/2/3
f 30/2/3 28/2/3 29/2/3
f 33/3/3 32/3/3 31/3/3
f 34/3/3 32/3/3 33/3/3
f 35/3/4 36/3/4 37/3/4
f 37/3/4 36/3/4 38/3/4
f 39/2/4 40/2/4 41/2/4
f 41/2/4 40/2/4 42/2/4
f 41/1/4 42/1/4 43/1/4
f 42/2/4 40/2/4 44/2/4
f 43/1/4 42/1/4 44/1/4
f 43/2/4 44/2/4 45/2/4
f 44/2/4 40/2/4 46/2/4
f 45/2/4 44/2/4 46/2/4
f 49/3/5 48/3/5 47/3/5
f 50/3/5 48/3/5 49/3/5
f 53/2/5 52/2/5 51/2/5
f 54/2/5 52/2/5 53/2/5
f 55/2/5 53/2/5 51/2/5
f 56/2/5 52/2/5 54/2/5
f 57/2/5 55/2/5 51/2/5
f 58/1/5 56/1/5 55/1/5
f 58/2/5 55/2/5 57/2/5
f 59/2/5 52/2/5 56/2/5
f 59/1/5 56/1/5 58/1/5
f 60/2/5 52/2/5 59/2/5
f 61/1/6 62/1/6 64/1/6
f 62/2/6 63/2/6 65/2/6
f 64/1/6 62/1/6 65/1/6
f 65/2/6 63/2/6 66/2/6
f 66/2/6 63/2/6 67/2/6
f 64/2/6 65/2/6 68/2/6
f 65/2/6 66/2/6 68/2/6
f 66/1/6 67/1/6 68/1/6
f 68/1/6 67/1/6 69/1/6
f 64/2/6 68/2/6 70/2/6
f 68/2/6 69/2/6 70/2/6
f 70/2/6 69/2/6 71/2/6
