# MagicaVoxel @ Ephtracy

# group
o 

# material
mtllib redMushroomsWall2-0.mtl
usemtl palette

# normals
vn -1 0 0
vn 1 0 0
vn 0 0 1
vn 0 0 -1
vn 0 -1 0
vn 0 1 0

# texcoords
vt 0.0253906 0.5
vt 0.0605469 0.5
vt 0.248047 0.5

# verts
v -0.2 0 -0.1
v -0.2 0 -0.2
v -0.2 0 -0.3
v -0.2 0.1 -0.1
v -0.2 0.1 -0.2
v -0.2 0.1 -0.3
v -0.2 0.2 -0.2
v -0.2 0.2 -0.3
v -0.2 0.3 -0.1
v -0.2 0.3 -0.3
v -0.1 0 0.1
v -0.1 0 0
v -0.1 0.1 0
v -0.1 0.1 -0.1
v -0.1 0.2 0.1
v -0.1 0.2 -0.1
v 0 0 0.1
v 0 0 0
v 0 0.1 0
v 0 0.1 -0.1
v 0 0.2 0.1
v 0 0.2 -0.1
v 0.1 0 -0.1
v 0.1 0 -0.3
v 0.1 0.2 -0.1
v 0.1 0.2 -0.2
v 0.1 0.3 -0.1
v 0.1 0.3 -0.2
v 0.1 0.3 -0.3
v -0.1 0 0.1
v -0.1 0.2 0.1
v 0 0 0.1
v 0 0.2 0.1
v -0.2 0 -0.1
v -0.2 0.1 -0.1
v -0.2 0.3 -0.1
v -0.1 0 -0.1
v -0.1 0.1 -0.1
v -0.1 0.2 -0.1
v 0 0.1 -0.1
v 0 0.2 -0.1
v 0 0.3 -0.1
v 0.1 0 -0.1
v 0.1 0.2 -0.1
v 0.1 0.3 -0.1
v -0.1 0 0
v -0.1 0.1 0
v 0 0 0
v 0 0.1 0
v -0.2 0 -0.3
v -0.2 0.1 -0.3
v -0.2 0.2 -0.3
v -0.2 0.3 -0.3
v 0 0.1 -0.3
v 0 0.2 -0.3
v 0.1 0 -0.3
v 0.1 0.3 -0.3
v -0.1 0 0.1
v 0 0 0.1
v -0.1 0 0
v 0 0 0
v -0.2 0 -0.1
v -0.1 0 -0.1
v 0.1 0 -0.1
v -0.2 0 -0.2
v -0.1 0 -0.2
v -0.2 0 -0.3
v 0.1 0 -0.3
v -0.1 0.1 0
v 0 0.1 0
v -0.1 0.1 -0.1
v 0 0.1 -0.1
v -0.1 0.2 0.1
v 0 0.2 0.1
v -0.1 0.2 -0.1
v 0 0.2 -0.1
v -0.2 0.3 -0.1
v 0 0.3 -0.1
v 0.1 0.3 -0.1
v 0 0.3 -0.2
v 0.1 0.3 -0.2
v -0.2 0.3 -0.3
v 0.1 0.3 -0.3

# faces
f 4/1/1 2/1/1 1/1/1
f 5/2/1 3/2/1 2/2/1
f 5/1/1 2/1/1 4/1/1
f 6/2/1 3/2/1 5/2/1
f 7/2/1 5/2/1 4/2/1
f 7/1/1 6/1/1 5/1/1
f 8/1/1 6/1/1 7/1/1
f 9/2/1 7/2/1 4/2/1
f 9/2/1 8/2/1 7/2/1
f 10/2/1 8/2/1 9/2/1
f 13/3/1 12/3/1 11/3/1
f 15/3/1 13/3/1 11/3/1
f 15/3/1 14/3/1 13/3/1
f 16/3/1 14/3/1 15/3/1
f 17/3/2 18/3/2 19/3/2
f 17/3/2 19/3/2 21/3/2
f 19/3/2 20/3/2 21/3/2
f 21/3/2 20/3/2 22/3/2
f 23/2/2 24/2/2 25/2/2
f 25/2/2 24/2/2 26/2/2
f 25/1/2 26/1/2 27/1/2
f 26/2/2 24/2/2 28/2/2
f 27/1/2 26/1/2 28/1/2
f 28/2/2 24/2/2 29/2/2
f 32/3/3 31/3/3 30/3/3
f 33/3/3 31/3/3 32/3/3
f 37/1/3 35/1/3 34/1/3
f 38/2/3 36/2/3 35/2/3
f 38/1/3 35/1/3 37/1/3
f 39/2/3 36/2/3 38/2/3
f 40/2/3 38/2/3 37/2/3
f 41/2/3 36/2/3 39/2/3
f 42/2/3 36/2/3 41/2/3
f 43/2/3 40/2/3 37/2/3
f 43/2/3 41/2/3 40/2/3
f 44/1/3 42/1/3 41/1/3
f 44/2/3 41/2/3 43/2/3
f 45/1/3 42/1/3 44/1/3
f 46/3/4 47/3/4 48/3/4
f 48/3/4 47/3/4 49/3/4
f 50/2/4 51/2/4 54/2/4
f 51/1/4 52/1/4 54/1/4
f 52/2/4 53/2/4 55/2/4
f 54/1/4 52/1/4 55/1/4
f 50/2/4 54/2/4 56/2/4
f 54/2/4 55/2/4 56/2/4
f 55/2/4 53/2/4 57/2/4
f 56/2/4 55/2/4 57/2/4
f 60/3/5 59/3/5 58/3/5
f 61/3/5 59/3/5 60/3/5
f 65/1/5 63/1/5 62/1/5
f 66/2/5 64/2/5 63/2/5
f 66/1/5 63/1/5 65/1/5
f 67/2/5 66/2/5 65/2/5
f 68/2/5 64/2/5 66/2/5
f 68/2/5 66/2/5 67/2/5
f 71/3/5 70/3/5 69/3/5
f 72/3/5 70/3/5 71/3/5
f 73/3/6 74/3/6 75/3/6
f 75/3/6 74/3/6 76/3/6
f 77/2/6 78/2/6 80/2/6
f 78/1/6 79/1/6 80/1/6
f 80/1/6 79/1/6 81/1/6
f 77/2/6 80/2/6 82/2/6
f 80/2/6 81/2/6 82/2/6
f 82/2/6 81/2/6 83/2/6
