# MagicaVoxel @ Ephtracy

# group
o 

# material
mtllib sandRocksPillar1-0.mtl
usemtl palette

# normals
vn -1 0 0
vn 1 0 0
vn 0 0 1
vn 0 0 -1
vn 0 -1 0
vn 0 1 0

# texcoords
vt 0.466797 0.5
vt 0.498047 0.5

# verts
v -0.3 -0.4 0.3
v -0.3 -0.4 0.1
v -0.3 -0.2 0.2
v -0.3 -0.2 0.1
v -0.3 -0.1 0.3
v -0.3 -0.1 0.2
v -0.3 0 0.2
v -0.3 0 0.1
v -0.3 0.1 0.3
v -0.3 0.1 0.2
v 0 -0.4 -0.1
v 0 -0.4 -0.2
v 0 -0.4 -0.3
v 0 -0.3 -0.2
v 0 -0.3 -0.3
v 0 -0.2 -0.1
v 0 -0.2 -0.3
v 0.1 -0.2 -0.2
v 0.1 -0.2 -0.3
v 0.1 -0.1 -0.2
v 0.1 -0.1 -0.3
v -0.2 -0.2 0.2
v -0.2 -0.2 0.1
v -0.2 -0.1 0.3
v -0.2 -0.1 0.2
v -0.2 0 0.2
v -0.2 0 0.1
v -0.2 0.1 0.3
v -0.2 0.1 0.2
v -0.1 -0.4 0.3
v -0.1 -0.4 0.1
v -0.1 -0.3 0.2
v -0.1 -0.3 0.1
v -0.1 -0.2 0.3
v -0.1 -0.2 0.2
v -0.1 -0.2 0.1
v -0.1 -0.1 0.3
v -0.1 -0.1 0.2
v 0.1 -0.3 -0.1
v 0.1 -0.3 -0.2
v 0.1 -0.2 -0.1
v 0.1 -0.2 -0.2
v 0.2 -0.4 -0.1
v 0.2 -0.4 -0.2
v 0.2 -0.4 -0.3
v 0.2 -0.3 -0.1
v 0.2 -0.3 -0.2
v 0.2 -0.2 -0.2
v 0.2 -0.2 -0.3
v 0.2 -0.1 -0.2
v 0.2 -0.1 -0.3
v -0.3 -0.4 0.3
v -0.3 -0.1 0.3
v -0.3 0.1 0.3
v -0.2 -0.2 0.3
v -0.2 -0.1 0.3
v -0.2 0.1 0.3
v -0.1 -0.4 0.3
v -0.1 -0.2 0.3
v -0.1 -0.1 0.3
v 0 -0.4 -0.1
v 0 -0.2 -0.1
v 0.1 -0.3 -0.1
v 0.1 -0.2 -0.1
v 0.2 -0.4 -0.1
v 0.2 -0.3 -0.1
v 0.1 -0.3 -0.2
v 0.1 -0.2 -0.2
v 0.1 -0.1 -0.2
v 0.2 -0.3 -0.2
v 0.2 -0.2 -0.2
v 0.2 -0.1 -0.2
v -0.3 0 0.2
v -0.3 0.1 0.2
v -0.2 -0.2 0.2
v -0.2 -0.1 0.2
v -0.2 0 0.2
v -0.2 0.1 0.2
v -0.1 -0.2 0.2
v -0.1 -0.1 0.2
v -0.3 -0.4 0.1
v -0.3 -0.2 0.1
v -0.3 0 0.1
v -0.2 -0.3 0.1
v -0.2 -0.2 0.1
v -0.2 0 0.1
v -0.1 -0.4 0.1
v -0.1 -0.3 0.1
v -0.1 -0.2 0.1
v 0 -0.4 -0.3
v 0 -0.3 -0.3
v 0 -0.2 -0.3
v 0.1 -0.3 -0.3
v 0.1 -0.2 -0.3
v 0.1 -0.1 -0.3
v 0.2 -0.4 -0.3
v 0.2 -0.2 -0.3
v 0.2 -0.1 -0.3
v -0.3 -0.4 0.3
v -0.1 -0.4 0.3
v -0.3 -0.4 0.1
v -0.1 -0.4 0.1
v 0 -0.4 -0.1
v 0.2 -0.4 -0.1
v 0 -0.4 -0.2
v 0.2 -0.4 -0.2
v 0 -0.4 -0.3
v 0.2 -0.4 -0.3
v 0.1 -0.3 -0.1
v 0.2 -0.3 -0.1
v 0.1 -0.3 -0.2
v 0.2 -0.3 -0.2
v -0.2 -0.2 0.2
v -0.1 -0.2 0.2
v -0.2 -0.2 0.1
v -0.1 -0.2 0.1
v 0 -0.2 -0.1
v 0.1 -0.2 -0.1
v 0.1 -0.2 -0.2
v 0 -0.2 -0.3
v 0.1 -0.2 -0.3
v -0.2 -0.1 0.3
v -0.1 -0.1 0.3
v -0.2 -0.1 0.2
v -0.1 -0.1 0.2
v 0.1 -0.1 -0.2
v 0.2 -0.1 -0.2
v 0.1 -0.1 -0.3
v 0.2 -0.1 -0.3
v -0.3 0 0.2
v -0.2 0 0.2
v -0.3 0 0.1
v -0.2 0 0.1
v -0.3 0.1 0.3
v -0.2 0.1 0.3
v -0.3 0.1 0.2
v -0.2 0.1 0.2

# faces
f 3/1/1 2/1/1 1/1/1
f 4/1/1 2/1/1 3/1/1
f 5/1/1 3/1/1 1/1/1
f 6/2/1 4/2/1 3/2/1
f 6/1/1 3/1/1 5/1/1
f 7/2/1 6/2/1 5/2/1
f 7/2/1 4/2/1 6/2/1
f 8/2/1 4/2/1 7/2/1
f 9/2/1 7/2/1 5/2/1
f 10/2/1 7/2/1 9/2/1
f 14/2/1 12/2/1 11/2/1
f 14/1/1 13/1/1 12/1/1
f 15/1/1 13/1/1 14/1/1
f 16/2/1 14/2/1 11/2/1
f 16/2/1 15/2/1 14/2/1
f 17/2/1 15/2/1 16/2/1
f 20/2/1 19/2/1 18/2/1
f 21/2/1 19/2/1 20/2/1
f 22/2/2 23/2/2 25/2/2
f 25/2/2 23/2/2 26/2/2
f 24/2/2 25/2/2 26/2/2
f 26/2/2 23/2/2 27/2/2
f 24/2/2 26/2/2 28/2/2
f 28/2/2 26/2/2 29/2/2
f 30/1/2 31/1/2 32/1/2
f 32/1/2 31/1/2 33/1/2
f 30/1/2 32/1/2 34/1/2
f 32/2/2 33/2/2 35/2/2
f 34/1/2 32/1/2 35/1/2
f 35/2/2 33/2/2 36/2/2
f 34/2/2 35/2/2 37/2/2
f 37/2/2 35/2/2 38/2/2
f 39/2/2 40/2/2 41/2/2
f 41/2/2 40/2/2 42/2/2
f 43/2/2 44/2/2 46/2/2
f 44/1/2 45/1/2 47/1/2
f 46/2/2 44/2/2 47/2/2
f 47/1/2 45/1/2 48/1/2
f 48/1/2 45/1/2 49/1/2
f 48/2/2 49/2/2 50/2/2
f 50/2/2 49/2/2 51/2/2
f 55/1/3 53/1/3 52/1/3
f 56/2/3 54/2/3 53/2/3
f 56/1/3 53/1/3 55/1/3
f 57/2/3 54/2/3 56/2/3
f 58/1/3 55/1/3 52/1/3
f 59/2/3 56/2/3 55/2/3
f 59/1/3 55/1/3 58/1/3
f 60/2/3 56/2/3 59/2/3
f 63/2/3 62/2/3 61/2/3
f 64/2/3 62/2/3 63/2/3
f 65/2/3 63/2/3 61/2/3
f 66/2/3 63/2/3 65/2/3
f 70/1/3 68/1/3 67/1/3
f 71/2/3 69/2/3 68/2/3
f 71/1/3 68/1/3 70/1/3
f 72/2/3 69/2/3 71/2/3
f 73/2/4 74/2/4 77/2/4
f 77/2/4 74/2/4 78/2/4
f 75/2/4 76/2/4 79/2/4
f 79/2/4 76/2/4 80/2/4
f 81/1/4 82/1/4 84/1/4
f 82/2/4 83/2/4 85/2/4
f 84/1/4 82/1/4 85/1/4
f 85/2/4 83/2/4 86/2/4
f 81/1/4 84/1/4 87/1/4
f 84/2/4 85/2/4 88/2/4
f 87/1/4 84/1/4 88/1/4
f 88/2/4 85/2/4 89/2/4
f 90/1/4 91/1/4 93/1/4
f 91/2/4 92/2/4 93/2/4
f 93/2/4 92/2/4 94/2/4
f 90/1/4 93/1/4 96/1/4
f 93/1/4 94/1/4 96/1/4
f 94/2/4 95/2/4 97/2/4
f 96/1/4 94/1/4 97/1/4
f 97/2/4 95/2/4 98/2/4
f 101/1/5 100/1/5 99/1/5
f 102/1/5 100/1/5 101/1/5
f 105/2/5 104/2/5 103/2/5
f 106/2/5 104/2/5 105/2/5
f 107/1/5 106/1/5 105/1/5
f 108/1/5 106/1/5 107/1/5
f 109/2/6 110/2/6 111/2/6
f 111/2/6 110/2/6 112/2/6
f 113/2/6 114/2/6 115/2/6
f 115/2/6 114/2/6 116/2/6
f 117/2/6 118/2/6 119/2/6
f 117/2/6 119/2/6 120/2/6
f 120/2/6 119/2/6 121/2/6
f 122/2/6 123/2/6 124/2/6
f 124/2/6 123/2/6 125/2/6
f 126/2/6 127/2/6 128/2/6
f 128/2/6 127/2/6 129/2/6
f 130/2/6 131/2/6 132/2/6
f 132/2/6 131/2/6 133/2/6
f 134/2/6 135/2/6 136/2/6
f 136/2/6 135/2/6 137/2/6
