# MagicaVoxel @ Ephtracy

# group
o 

# material
mtllib sandRocksFlat2-0.mtl
usemtl palette

# normals
vn -1 0 0
vn 1 0 0
vn 0 0 1
vn 0 0 -1
vn 0 -1 0
vn 0 1 0

# texcoords
vt 0.466797 0.5
vt 0.498047 0.5

# verts
v -0.3 -0.4 0.3
v -0.3 -0.4 0.2
v -0.3 -0.3 0.3
v -0.3 -0.3 0.2
v -0.1 -0.4 0.2
v -0.1 -0.4 0.1
v -0.1 -0.3 0.2
v -0.1 -0.3 0.1
v 0 -0.4 0.3
v 0 -0.4 0.2
v 0 -0.3 0.3
v 0 -0.3 0.2
v -0.2 -0.4 0.3
v -0.2 -0.4 0.2
v -0.2 -0.3 0.3
v -0.2 -0.3 0.2
v 0.3 -0.4 0.3
v 0.3 -0.4 0.1
v 0.3 -0.3 0.3
v 0.3 -0.3 0.1
v -0.3 -0.4 0.3
v -0.3 -0.3 0.3
v -0.2 -0.4 0.3
v -0.2 -0.3 0.3
v 0 -0.4 0.3
v 0 -0.3 0.3
v 0.2 -0.4 0.3
v 0.2 -0.3 0.3
v 0.3 -0.4 0.3
v 0.3 -0.3 0.3
v -0.1 -0.4 0.2
v -0.1 -0.3 0.2
v 0 -0.4 0.2
v 0 -0.3 0.2
v -0.3 -0.4 0.2
v -0.3 -0.3 0.2
v -0.2 -0.4 0.2
v -0.2 -0.3 0.2
v -0.1 -0.4 0.1
v -0.1 -0.3 0.1
v 0.1 -0.4 0.1
v 0.1 -0.3 0.1
v 0.3 -0.4 0.1
v 0.3 -0.3 0.1
v -0.3 -0.4 0.3
v -0.2 -0.4 0.3
v 0 -0.4 0.3
v 0.2 -0.4 0.3
v 0.3 -0.4 0.3
v -0.3 -0.4 0.2
v -0.2 -0.4 0.2
v -0.1 -0.4 0.2
v 0 -0.4 0.2
v 0.1 -0.4 0.2
v 0.2 -0.4 0.2
v -0.1 -0.4 0.1
v 0.1 -0.4 0.1
v 0.3 -0.4 0.1
v -0.3 -0.3 0.3
v -0.2 -0.3 0.3
v 0 -0.3 0.3
v 0.2 -0.3 0.3
v 0.3 -0.3 0.3
v -0.3 -0.3 0.2
v -0.2 -0.3 0.2
v -0.1 -0.3 0.2
v 0 -0.3 0.2
v 0.1 -0.3 0.2
v 0.2 -0.3 0.2
v -0.1 -0.3 0.1
v 0.1 -0.3 0.1
v 0.3 -0.3 0.1

# faces
f 3/1/1 2/1/1 1/1/1
f 4/1/1 2/1/1 3/1/1
f 7/2/1 6/2/1 5/2/1
f 8/2/1 6/2/1 7/2/1
f 11/2/1 10/2/1 9/2/1
f 12/2/1 10/2/1 11/2/1
f 13/1/2 14/1/2 15/1/2
f 15/1/2 14/1/2 16/1/2
f 17/1/2 18/1/2 19/1/2
f 19/1/2 18/1/2 20/1/2
f 23/1/3 22/1/3 21/1/3
f 24/1/3 22/1/3 23/1/3
f 27/2/3 26/2/3 25/2/3
f 28/2/3 26/2/3 27/2/3
f 29/1/3 28/1/3 27/1/3
f 30/1/3 28/1/3 29/1/3
f 33/2/3 32/2/3 31/2/3
f 34/2/3 32/2/3 33/2/3
f 35/1/4 36/1/4 37/1/4
f 37/1/4 36/1/4 38/1/4
f 39/2/4 40/2/4 41/2/4
f 41/2/4 40/2/4 42/2/4
f 41/1/4 42/1/4 43/1/4
f 43/1/4 42/1/4 44/1/4
f 50/1/5 46/1/5 45/1/5
f 51/1/5 46/1/5 50/1/5
f 53/2/5 48/2/5 47/2/5
f 54/2/5 48/2/5 53/2/5
f 55/1/5 49/1/5 48/1/5
f 55/2/5 48/2/5 54/2/5
f 56/2/5 54/2/5 53/2/5
f 56/2/5 53/2/5 52/2/5
f 57/1/5 55/1/5 54/1/5
f 57/2/5 54/2/5 56/2/5
f 58/1/5 49/1/5 55/1/5
f 58/1/5 55/1/5 57/1/5
f 59/1/6 60/1/6 64/1/6
f 64/1/6 60/1/6 65/1/6
f 61/2/6 62/2/6 67/2/6
f 67/2/6 62/2/6 68/2/6
f 62/1/6 63/1/6 69/1/6
f 68/2/6 62/2/6 69/2/6
f 67/2/6 68/2/6 70/2/6
f 66/2/6 67/2/6 70/2/6
f 68/1/6 69/1/6 71/1/6
f 70/2/6 68/2/6 71/2/6
f 69/1/6 63/1/6 72/1/6
f 71/1/6 69/1/6 72/1/6
