# MagicaVoxel @ Ephtracy

# group
o 

# material
mtllib multishot-0.mtl
usemtl palette

# normals
vn -1 0 0
vn 1 0 0
vn 0 0 1
vn 0 0 -1
vn 0 -1 0
vn 0 1 0

# texcoords
vt 0.642578 0.5
vt 0.982422 0.5
vt 0.986328 0.5

# verts
v -0.5 0 0.2
v -0.5 0 0
v -0.5 0 -0.1
v -0.5 0 -0.3
v -0.5 0.1 0.2
v -0.5 0.1 0
v -0.5 0.1 -0.1
v -0.5 0.1 -0.3
v -0.4 -0.1 0.1
v -0.4 -0.1 -0.2
v -0.4 0 0.1
v -0.4 0 0
v -0.4 0 -0.1
v -0.4 0 -0.2
v -0.4 0.1 0.1
v -0.4 0.1 0
v -0.4 0.1 -0.1
v -0.4 0.1 -0.2
v -0.4 0.2 0.1
v -0.4 0.2 -0.2
v -0.3 -0.4 0.2
v -0.3 -0.4 0.1
v -0.3 -0.3 0
v -0.3 -0.3 -0.2
v -0.3 -0.3 -0.3
v -0.3 -0.2 0.1
v -0.3 -0.2 0
v -0.3 -0.1 0.1
v -0.3 -0.1 -0.2
v -0.3 0 0.2
v -0.3 0 0.1
v -0.3 0 0
v -0.3 0 -0.1
v -0.3 0 -0.2
v -0.3 0 -0.3
v -0.3 0.1 0.2
v -0.3 0.1 0.1
v -0.3 0.1 0
v -0.3 0.1 -0.1
v -0.3 0.1 -0.2
v -0.3 0.1 -0.3
v -0.3 0.2 0.2
v -0.3 0.2 0.1
v -0.3 0.2 -0.2
v -0.3 0.2 -0.3
v -0.3 0.3 0.1
v -0.3 0.3 -0.2
v -0.2 -0.4 -0.1
v -0.2 -0.4 -0.2
v -0.2 -0.3 0.1
v -0.2 -0.3 0
v -0.2 -0.3 -0.1
v -0.2 -0.3 -0.2
v -0.2 -0.2 0.1
v -0.2 -0.2 0
v -0.2 0.2 0.2
v -0.2 0.2 0.1
v -0.2 0.2 -0.2
v -0.2 0.2 -0.3
v -0.2 0.3 0.2
v -0.2 0.3 0.1
v -0.2 0.3 -0.2
v -0.2 0.3 -0.3
v -0.2 0.4 0.1
v -0.2 0.4 -0.2
v -0.1 -0.5 0
v -0.1 -0.5 -0.1
v -0.1 -0.4 -0.1
v -0.1 -0.3 0
v -0.1 -0.3 -0.1
v 0 -0.4 -0.2
v 0 -0.4 -0.3
v 0 -0.3 -0.2
v 0 -0.3 -0.3
v 0.1 -0.4 0.1
v 0.1 -0.4 0
v 0.1 -0.3 0.2
v 0.1 -0.3 0.1
v 0.1 -0.3 0
v 0.1 -0.2 0.2
v 0.1 -0.2 0.1
v -0.2 -0.4 0.2
v -0.2 -0.4 0.1
v -0.2 -0.3 0.2
v -0.2 -0.3 0.1
v -0.1 -0.4 -0.1
v -0.1 -0.4 -0.2
v -0.1 -0.3 -0.1
v -0.1 -0.3 -0.2
v 0 -0.5 0
v 0 -0.5 -0.1
v 0 -0.3 0.2
v 0 -0.3 0.1
v 0 -0.3 0
v 0 -0.3 -0.1
v 0 -0.2 0.2
v 0 -0.2 0.1
v 0.1 -0.4 -0.2
v 0.1 -0.4 -0.3
v 0.1 -0.3 -0.2
v 0.1 -0.2 -0.2
v 0.1 -0.2 -0.3
v 0.1 0.2 0.2
v 0.1 0.2 0.1
v 0.1 0.2 -0.2
v 0.1 0.2 -0.3
v 0.1 0.3 0.2
v 0.1 0.3 0.1
v 0.1 0.3 -0.2
v 0.1 0.3 -0.3
v 0.1 0.4 0.1
v 0.1 0.4 -0.2
v 0.2 -0.4 0.1
v 0.2 -0.4 0
v 0.2 -0.3 0.2
v 0.2 -0.3 0.1
v 0.2 -0.3 0
v 0.2 -0.3 -0.2
v 0.2 -0.2 -0.2
v 0.2 -0.2 -0.3
v 0.2 -0.1 0.1
v 0.2 -0.1 -0.2
v 0.2 0 0.2
v 0.2 0 0.1
v 0.2 0 0
v 0.2 0 -0.1
v 0.2 0 -0.2
v 0.2 0 -0.3
v 0.2 0.1 0.2
v 0.2 0.1 0.1
v 0.2 0.1 0
v 0.2 0.1 -0.1
v 0.2 0.1 -0.2
v 0.2 0.1 -0.3
v 0.2 0.2 0.2
v 0.2 0.2 0.1
v 0.2 0.2 -0.2
v 0.2 0.2 -0.3
v 0.2 0.3 0.1
v 0.2 0.3 -0.2
v 0.3 -0.1 0.1
v 0.3 -0.1 -0.2
v 0.3 0 0.1
v 0.3 0 0
v 0.3 0 -0.1
v 0.3 0 -0.2
v 0.3 0.1 0.1
v 0.3 0.1 0
v 0.3 0.1 -0.1
v 0.3 0.1 -0.2
v 0.3 0.2 0.1
v 0.3 0.2 -0.2
v 0.4 0 0.2
v 0.4 0 0
v 0.4 0 -0.1
v 0.4 0 -0.3
v 0.4 0.1 0.2
v 0.4 0.1 0
v 0.4 0.1 -0.1
v 0.4 0.1 -0.3
v -0.5 0 0.2
v -0.5 0.1 0.2
v -0.3 -0.4 0.2
v -0.3 0 0.2
v -0.3 0.1 0.2
v -0.3 0.2 0.2
v -0.2 -0.4 0.2
v -0.2 -0.3 0.2
v -0.2 0.2 0.2
v -0.2 0.3 0.2
v 0 -0.3 0.2
v 0 -0.2 0.2
v 0.1 -0.3 0.2
v 0.1 -0.2 0.2
v 0.1 0.2 0.2
v 0.1 0.3 0.2
v 0.2 -0.3 0.2
v 0.2 0 0.2
v 0.2 0.1 0.2
v 0.2 0.2 0.2
v 0.4 0 0.2
v 0.4 0.1 0.2
v -0.4 -0.1 0.1
v -0.4 0 0.1
v -0.4 0.1 0.1
v -0.4 0.2 0.1
v -0.3 -0.1 0.1
v -0.3 0 0.1
v -0.3 0.1 0.1
v -0.3 0.2 0.1
v -0.3 0.3 0.1
v -0.2 0.2 0.1
v -0.2 0.3 0.1
v -0.2 0.4 0.1
v 0 -0.3 0.1
v 0 -0.2 0.1
v 0.1 -0.4 0.1
v 0.1 -0.3 0.1
v 0.1 -0.2 0.1
v 0.1 0.2 0.1
v 0.1 0.3 0.1
v 0.1 0.4 0.1
v 0.2 -0.4 0.1
v 0.2 -0.3 0.1
v 0.2 -0.1 0.1
v 0.2 0 0.1
v 0.2 0.1 0.1
v 0.2 0.2 0.1
v 0.2 0.3 0.1
v 0.3 -0.1 0.1
v 0.3 0 0.1
v 0.3 0.1 0.1
v 0.3 0.2 0.1
v -0.3 -0.3 0
v -0.3 -0.2 0
v -0.2 -0.3 0
v -0.2 -0.2 0
v -0.1 -0.5 0
v -0.1 -0.3 0
v 0 -0.5 0
v 0 -0.3 0
v -0.5 0 -0.1
v -0.5 0.1 -0.1
v -0.4 0 -0.1
v -0.4 0.1 -0.1
v -0.3 0 -0.1
v -0.3 0.1 -0.1
v -0.2 -0.4 -0.1
v -0.2 -0.3 -0.1
v -0.1 -0.4 -0.1
v -0.1 -0.3 -0.1
v 0.2 0 -0.1
v 0.2 0.1 -0.1
v 0.3 0 -0.1
v 0.3 0.1 -0.1
v 0.4 0 -0.1
v 0.4 0.1 -0.1
v 0 -0.4 -0.2
v 0 -0.3 -0.2
v 0.1 -0.4 -0.2
v 0.1 -0.3 -0.2
v -0.3 -0.4 0.1
v -0.3 -0.2 0.1
v -0.2 -0.4 0.1
v -0.2 -0.3 0.1
v -0.2 -0.2 0.1
v -0.5 0 0
v -0.5 0.1 0
v -0.4 0 0
v -0.4 0.1 0
v -0.3 0 0
v -0.3 0.1 0
v 0.1 -0.4 0
v 0.1 -0.3 0
v 0.2 -0.4 0
v 0.2 -0.3 0
v 0.2 0 0
v 0.2 0.1 0
v 0.3 0 0
v 0.3 0.1 0
v 0.4 0 0
v 0.4 0.1 0
v -0.1 -0.5 -0.1
v -0.1 -0.4 -0.1
v -0.1 -0.3 -0.1
v 0 -0.5 -0.1
v 0 -0.3 -0.1
v -0.4 -0.1 -0.2
v -0.4 0 -0.2
v -0.4 0.1 -0.2
v -0.4 0.2 -0.2
v -0.3 -0.1 -0.2
v -0.3 0 -0.2
v -0.3 0.1 -0.2
v -0.3 0.2 -0.2
v -0.3 0.3 -0.2
v -0.2 -0.4 -0.2
v -0.2 -0.3 -0.2
v -0.2 0.2 -0.2
v -0.2 0.3 -0.2
v -0.2 0.4 -0.2
v -0.1 -0.4 -0.2
v -0.1 -0.3 -0.2
v 0.1 -0.3 -0.2
v 0.1 -0.2 -0.2
v 0.1 0.2 -0.2
v 0.1 0.3 -0.2
v 0.1 0.4 -0.2
v 0.2 -0.3 -0.2
v 0.2 -0.2 -0.2
v 0.2 -0.1 -0.2
v 0.2 0 -0.2
v 0.2 0.1 -0.2
v 0.2 0.2 -0.2
v 0.2 0.3 -0.2
v 0.3 -0.1 -0.2
v 0.3 0 -0.2
v 0.3 0.1 -0.2
v 0.3 0.2 -0.2
v -0.5 0 -0.3
v -0.5 0.1 -0.3
v -0.3 -0.3 -0.3
v -0.3 0 -0.3
v -0.3 0.1 -0.3
v -0.3 0.2 -0.3
v -0.2 -0.3 -0.3
v -0.2 0.2 -0.3
v -0.2 0.3 -0.3
v 0 -0.4 -0.3
v 0 -0.3 -0.3
v 0.1 -0.4 -0.3
v 0.1 -0.2 -0.3
v 0.1 0.2 -0.3
v 0.1 0.3 -0.3
v 0.2 -0.2 -0.3
v 0.2 0 -0.3
v 0.2 0.1 -0.3
v 0.2 0.2 -0.3
v 0.4 0 -0.3
v 0.4 0.1 -0.3
v -0.1 -0.5 0
v 0 -0.5 0
v -0.1 -0.5 -0.1
v 0 -0.5 -0.1
v -0.3 -0.4 0.2
v -0.2 -0.4 0.2
v -0.3 -0.4 0.1
v -0.2 -0.4 0.1
v 0.1 -0.4 0.1
v 0.2 -0.4 0.1
v 0.1 -0.4 0
v 0.2 -0.4 0
v -0.2 -0.4 -0.1
v -0.1 -0.4 -0.1
v -0.2 -0.4 -0.2
v -0.1 -0.4 -0.2
v 0 -0.4 -0.2
v 0.1 -0.4 -0.2
v 0 -0.4 -0.3
v 0.1 -0.4 -0.3
v -0.2 -0.3 0.2
v 0 -0.3 0.2
v 0.1 -0.3 0.2
v 0.2 -0.3 0.2
v -0.2 -0.3 0.1
v 0 -0.3 0.1
v 0.1 -0.3 0.1
v 0.2 -0.3 0.1
v -0.3 -0.3 0
v -0.2 -0.3 0
v -0.1 -0.3 0
v 0 -0.3 0
v 0.1 -0.3 0
v 0.2 -0.3 0
v -0.2 -0.3 -0.1
v -0.1 -0.3 -0.1
v 0 -0.3 -0.1
v -0.3 -0.3 -0.2
v -0.2 -0.3 -0.2
v -0.1 -0.3 -0.2
v 0 -0.3 -0.2
v 0.1 -0.3 -0.2
v 0.2 -0.3 -0.2
v -0.3 -0.3 -0.3
v -0.2 -0.3 -0.3
v 0 -0.3 -0.3
v 0 -0.2 0.2
v 0.1 -0.2 0.2
v -0.3 -0.2 0.1
v -0.2 -0.2 0.1
v 0 -0.2 0.1
v 0.1 -0.2 0.1
v -0.3 -0.2 0
v -0.2 -0.2 0
v 0.1 -0.2 -0.2
v 0.2 -0.2 -0.2
v 0.1 -0.2 -0.3
v 0.2 -0.2 -0.3
v -0.4 -0.1 0.1
v -0.3 -0.1 0.1
v 0.2 -0.1 0.1
v 0.3 -0.1 0.1
v -0.4 -0.1 -0.2
v -0.3 -0.1 -0.2
v 0.2 -0.1 -0.2
v 0.3 -0.1 -0.2
v -0.5 0 0.2
v -0.3 0 0.2
v 0.2 0 0.2
v 0.4 0 0.2
v -0.4 0 0.1
v -0.3 0 0.1
v 0.2 0 0.1
v 0.3 0 0.1
v -0.5 0 0
v -0.4 0 0
v 0.3 0 0
v 0.4 0 0
v -0.5 0 -0.1
v -0.4 0 -0.1
v 0.3 0 -0.1
v 0.4 0 -0.1
v -0.4 0 -0.2
v -0.3 0 -0.2
v 0.2 0 -0.2
v 0.3 0 -0.2
v -0.5 0 -0.3
v -0.3 0 -0.3
v 0.2 0 -0.3
v 0.4 0 -0.3
v -0.4 0.1 0
v -0.3 0.1 0
v 0.2 0.1 0
v 0.3 0.1 0
v -0.4 0.1 -0.1
v -0.3 0.1 -0.1
v 0.2 0.1 -0.1
v 0.3 0.1 -0.1
v -0.4 0 0
v -0.3 0 0
v 0.2 0 0
v 0.3 0 0
v -0.4 0 -0.1
v -0.3 0 -0.1
v 0.2 0 -0.1
v 0.3 0 -0.1
v -0.5 0.1 0.2
v -0.3 0.1 0.2
v 0.2 0.1 0.2
v 0.4 0.1 0.2
v -0.4 0.1 0.1
v -0.3 0.1 0.1
v 0.2 0.1 0.1
v 0.3 0.1 0.1
v -0.5 0.1 0
v -0.4 0.1 0
v 0.3 0.1 0
v 0.4 0.1 0
v -0.5 0.1 -0.1
v -0.4 0.1 -0.1
v 0.3 0.1 -0.1
v 0.4 0.1 -0.1
v -0.4 0.1 -0.2
v -0.3 0.1 -0.2
v 0.2 0.1 -0.2
v 0.3 0.1 -0.2
v -0.5 0.1 -0.3
v -0.3 0.1 -0.3
v 0.2 0.1 -0.3
v 0.4 0.1 -0.3
v -0.3 0.2 0.2
v -0.2 0.2 0.2
v 0.1 0.2 0.2
v 0.2 0.2 0.2
v -0.4 0.2 0.1
v -0.3 0.2 0.1
v -0.2 0.2 0.1
v 0.1 0.2 0.1
v 0.2 0.2 0.1
v 0.3 0.2 0.1
v -0.4 0.2 -0.2
v -0.3 0.2 -0.2
v -0.2 0.2 -0.2
v 0.1 0.2 -0.2
v 0.2 0.2 -0.2
v 0.3 0.2 -0.2
v -0.3 0.2 -0.3
v -0.2 0.2 -0.3
v 0.1 0.2 -0.3
v 0.2 0.2 -0.3
v -0.2 0.3 0.2
v 0.1 0.3 0.2
v -0.3 0.3 0.1
v -0.2 0.3 0.1
v 0.1 0.3 0.1
v 0.2 0.3 0.1
v -0.3 0.3 -0.2
v -0.2 0.3 -0.2
v 0.1 0.3 -0.2
v 0.2 0.3 -0.2
v -0.2 0.3 -0.3
v 0.1 0.3 -0.3
v -0.2 0.4 0.1
v 0.1 0.4 0.1
v -0.2 0.4 -0.2
v 0.1 0.4 -0.2

# faces
f 5/3/1 2/3/1 1/3/1
f 6/3/1 2/3/1 5/3/1
f 7/3/1 4/3/1 3/3/1
f 8/3/1 4/3/1 7/3/1
f 11/2/1 10/2/1 9/2/1
f 12/2/1 10/2/1 11/2/1
f 13/2/1 10/2/1 12/2/1
f 14/2/1 10/2/1 13/2/1
f 19/2/1 16/2/1 15/2/1
f 19/2/1 18/2/1 17/2/1
f 19/2/1 17/2/1 16/2/1
f 20/2/1 18/2/1 19/2/1
f 26/3/1 22/3/1 21/3/1
f 27/2/1 24/2/1 23/2/1
f 28/3/1 26/3/1 21/3/1
f 28/2/1 27/2/1 26/2/1
f 29/3/1 25/3/1 24/3/1
f 29/2/1 27/2/1 28/2/1
f 29/2/1 24/2/1 27/2/1
f 30/3/1 28/3/1 21/3/1
f 31/3/1 28/3/1 30/3/1
f 34/3/1 25/3/1 29/3/1
f 35/3/1 25/3/1 34/3/1
f 38/1/1 33/1/1 32/1/1
f 39/1/1 33/1/1 38/1/1
f 42/3/1 37/3/1 36/3/1
f 43/3/1 37/3/1 42/3/1
f 44/3/1 41/3/1 40/3/1
f 45/3/1 41/3/1 44/3/1
f 46/3/1 44/3/1 43/3/1
f 47/3/1 44/3/1 46/3/1
f 52/2/1 49/2/1 48/2/1
f 53/2/1 49/2/1 52/2/1
f 54/2/1 51/2/1 50/2/1
f 55/2/1 51/2/1 54/2/1
f 60/3/1 57/3/1 56/3/1
f 61/3/1 57/3/1 60/3/1
f 62/3/1 59/3/1 58/3/1
f 63/3/1 59/3/1 62/3/1
f 64/2/1 62/2/1 61/2/1
f 65/2/1 62/2/1 64/2/1
f 68/2/1 67/2/1 66/2/1
f 69/2/1 68/2/1 66/2/1
f 70/2/1 68/2/1 69/2/1
f 73/2/1 72/2/1 71/2/1
f 74/2/1 72/2/1 73/2/1
f 78/2/1 76/2/1 75/2/1
f 79/2/1 76/2/1 78/2/1
f 80/3/1 78/3/1 77/3/1
f 81/3/1 78/3/1 80/3/1
f 82/3/2 83/3/2 84/3/2
f 84/3/2 83/3/2 85/3/2
f 86/2/2 87/2/2 88/2/2
f 88/2/2 87/2/2 89/2/2
f 90/2/2 91/2/2 94/2/2
f 94/2/2 91/2/2 95/2/2
f 92/2/2 93/2/2 96/2/2
f 96/2/2 93/2/2 97/2/2
f 98/2/2 99/2/2 100/2/2
f 100/2/2 99/2/2 101/2/2
f 101/2/2 99/2/2 102/2/2
f 103/3/2 104/3/2 107/3/2
f 107/3/2 104/3/2 108/3/2
f 105/3/2 106/3/2 109/3/2
f 109/3/2 106/3/2 110/3/2
f 108/2/2 109/2/2 111/2/2
f 111/2/2 109/2/2 112/2/2
f 113/2/2 114/2/2 116/2/2
f 116/2/2 114/2/2 117/2/2
f 116/2/2 117/2/2 119/2/2
f 117/2/2 118/2/2 119/2/2
f 115/3/2 116/3/2 121/3/2
f 116/2/2 119/2/2 121/2/2
f 119/3/2 120/3/2 122/3/2
f 121/2/2 119/2/2 122/2/2
f 115/3/2 121/3/2 123/3/2
f 123/3/2 121/3/2 124/3/2
f 122/3/2 120/3/2 127/3/2
f 127/3/2 120/3/2 128/3/2
f 125/1/2 126/1/2 131/1/2
f 131/1/2 126/1/2 132/1/2
f 129/3/2 130/3/2 135/3/2
f 135/3/2 130/3/2 136/3/2
f 133/3/2 134/3/2 137/3/2
f 137/3/2 134/3/2 138/3/2
f 136/3/2 137/3/2 139/3/2
f 139/3/2 137/3/2 140/3/2
f 141/2/2 142/2/2 143/2/2
f 143/2/2 142/2/2 144/2/2
f 144/2/2 142/2/2 145/2/2
f 145/2/2 142/2/2 146/2/2
f 147/2/2 148/2/2 151/2/2
f 149/2/2 150/2/2 151/2/2
f 148/2/2 149/2/2 151/2/2
f 151/2/2 150/2/2 152/2/2
f 153/3/2 154/3/2 157/3/2
f 157/3/2 154/3/2 158/3/2
f 155/3/2 156/3/2 159/3/2
f 159/3/2 156/3/2 160/3/2
f 164/3/3 162/3/3 161/3/3
f 165/3/3 162/3/3 164/3/3
f 167/3/3 164/3/3 163/3/3
f 167/3/3 166/3/3 165/3/3
f 167/3/3 165/3/3 164/3/3
f 168/3/3 166/3/3 167/3/3
f 169/3/3 166/3/3 168/3/3
f 171/2/3 169/2/3 168/2/3
f 172/2/3 169/2/3 171/2/3
f 174/2/3 169/2/3 172/2/3
f 175/3/3 170/3/3 169/3/3
f 175/2/3 169/2/3 174/2/3
f 176/3/3 170/3/3 175/3/3
f 177/3/3 174/3/3 173/3/3
f 177/3/3 175/3/3 174/3/3
f 178/3/3 175/3/3 177/3/3
f 179/3/3 175/3/3 178/3/3
f 180/3/3 175/3/3 179/3/3
f 181/3/3 179/3/3 178/3/3
f 182/3/3 179/3/3 181/3/3
f 187/2/3 184/2/3 183/2/3
f 188/2/3 184/2/3 187/2/3
f 189/2/3 186/2/3 185/2/3
f 190/2/3 186/2/3 189/2/3
f 192/3/3 191/3/3 190/3/3
f 193/3/3 191/3/3 192/3/3
f 198/2/3 196/2/3 195/2/3
f 199/2/3 196/2/3 198/2/3
f 201/2/3 194/2/3 193/2/3
f 202/2/3 194/2/3 201/2/3
f 203/2/3 198/2/3 197/2/3
f 204/2/3 198/2/3 203/2/3
f 208/3/3 201/3/3 200/3/3
f 209/3/3 201/3/3 208/3/3
f 210/2/3 206/2/3 205/2/3
f 211/2/3 206/2/3 210/2/3
f 212/2/3 208/2/3 207/2/3
f 213/2/3 208/2/3 212/2/3
f 216/2/3 215/2/3 214/2/3
f 217/2/3 215/2/3 216/2/3
f 220/2/3 219/2/3 218/2/3
f 221/2/3 219/2/3 220/2/3
f 224/3/3 223/3/3 222/3/3
f 225/3/3 223/3/3 224/3/3
f 226/3/3 225/3/3 224/3/3
f 227/3/3 225/3/3 226/3/3
f 230/2/3 229/2/3 228/2/3
f 231/2/3 229/2/3 230/2/3
f 234/3/3 233/3/3 232/3/3
f 235/3/3 233/3/3 234/3/3
f 236/3/3 235/3/3 234/3/3
f 237/3/3 235/3/3 236/3/3
f 240/2/3 239/2/3 238/2/3
f 241/2/3 239/2/3 240/2/3
f 242/3/4 243/3/4 244/3/4
f 244/3/4 243/3/4 245/3/4
f 245/3/4 243/3/4 246/3/4
f 247/3/4 248/3/4 249/3/4
f 249/3/4 248/3/4 250/3/4
f 249/3/4 250/3/4 251/3/4
f 251/3/4 250/3/4 252/3/4
f 253/2/4 254/2/4 255/2/4
f 255/2/4 254/2/4 256/2/4
f 257/3/4 258/3/4 259/3/4
f 259/3/4 258/3/4 260/3/4
f 259/3/4 260/3/4 261/3/4
f 261/3/4 260/3/4 262/3/4
f 263/2/4 264/2/4 266/2/4
f 264/2/4 265/2/4 266/2/4
f 266/2/4 265/2/4 267/2/4
f 268/2/4 269/2/4 272/2/4
f 272/2/4 269/2/4 273/2/4
f 270/2/4 271/2/4 274/2/4
f 274/2/4 271/2/4 275/2/4
f 275/3/4 276/3/4 279/3/4
f 279/3/4 276/3/4 280/3/4
f 277/2/4 278/2/4 282/2/4
f 282/2/4 278/2/4 283/2/4
f 280/2/4 281/2/4 287/2/4
f 287/2/4 281/2/4 288/2/4
f 284/2/4 285/2/4 289/2/4
f 289/2/4 285/2/4 290/2/4
f 286/3/4 287/3/4 294/3/4
f 294/3/4 287/3/4 295/3/4
f 291/2/4 292/2/4 296/2/4
f 296/2/4 292/2/4 297/2/4
f 293/2/4 294/2/4 298/2/4
f 298/2/4 294/2/4 299/2/4
f 300/3/4 301/3/4 303/3/4
f 303/3/4 301/3/4 304/3/4
f 302/3/4 303/3/4 306/3/4
f 304/3/4 305/3/4 306/3/4
f 303/3/4 304/3/4 306/3/4
f 306/3/4 305/3/4 307/3/4
f 306/2/4 307/2/4 310/2/4
f 309/2/4 310/2/4 311/2/4
f 310/2/4 307/2/4 312/2/4
f 311/2/4 310/2/4 312/2/4
f 307/3/4 308/3/4 313/3/4
f 312/2/4 307/2/4 313/2/4
f 313/3/4 308/3/4 314/3/4
f 312/3/4 313/3/4 315/3/4
f 315/3/4 313/3/4 316/3/4
f 316/3/4 313/3/4 317/3/4
f 317/3/4 313/3/4 318/3/4
f 316/3/4 317/3/4 319/3/4
f 319/3/4 317/3/4 320/3/4
f 323/2/5 322/2/5 321/2/5
f 324/2/5 322/2/5 323/2/5
f 327/3/5 326/3/5 325/3/5
f 328/3/5 326/3/5 327/3/5
f 331/2/5 330/2/5 329/2/5
f 332/2/5 330/2/5 331/2/5
f 335/2/5 334/2/5 333/2/5
f 336/2/5 334/2/5 335/2/5
f 339/2/5 338/2/5 337/2/5
f 340/2/5 338/2/5 339/2/5
f 345/2/5 342/2/5 341/2/5
f 346/2/5 342/2/5 345/2/5
f 347/3/5 344/3/5 343/3/5
f 348/3/5 344/3/5 347/3/5
f 350/2/5 346/2/5 345/2/5
f 350/2/5 347/2/5 346/2/5
f 351/2/5 347/2/5 350/2/5
f 352/2/5 347/2/5 351/2/5
f 353/2/5 347/2/5 352/2/5
f 355/2/5 350/2/5 349/2/5
f 355/2/5 351/2/5 350/2/5
f 356/2/5 351/2/5 355/2/5
f 357/2/5 354/2/5 353/2/5
f 357/2/5 353/2/5 352/2/5
f 358/2/5 355/2/5 349/2/5
f 359/2/5 355/2/5 358/2/5
f 360/2/5 357/2/5 356/2/5
f 361/2/5 354/2/5 357/2/5
f 361/2/5 357/2/5 360/2/5
f 362/2/5 354/2/5 361/2/5
f 363/2/5 354/2/5 362/2/5
f 364/3/5 359/3/5 358/3/5
f 365/2/5 360/2/5 359/2/5
f 365/3/5 359/3/5 364/3/5
f 365/2/5 361/2/5 360/2/5
f 366/2/5 361/2/5 365/2/5
f 371/2/5 368/2/5 367/2/5
f 372/2/5 368/2/5 371/2/5
f 373/2/5 370/2/5 369/2/5
f 374/2/5 370/2/5 373/2/5
f 377/3/5 376/3/5 375/3/5
f 378/3/5 376/3/5 377/3/5
f 383/2/5 380/2/5 379/2/5
f 384/2/5 380/2/5 383/2/5
f 385/2/5 382/2/5 381/2/5
f 386/2/5 382/2/5 385/2/5
f 391/3/5 388/3/5 387/3/5
f 392/3/5 388/3/5 391/3/5
f 393/3/5 390/3/5 389/3/5
f 394/3/5 390/3/5 393/3/5
f 395/3/5 391/3/5 387/3/5
f 396/3/5 391/3/5 395/3/5
f 397/3/5 390/3/5 394/3/5
f 398/3/5 390/3/5 397/3/5
f 403/3/5 400/3/5 399/3/5
f 406/3/5 402/3/5 401/3/5
f 407/3/5 404/3/5 403/3/5
f 407/3/5 403/3/5 399/3/5
f 408/3/5 404/3/5 407/3/5
f 409/3/5 406/3/5 405/3/5
f 410/3/5 402/3/5 406/3/5
f 410/3/5 406/3/5 409/3/5
f 415/2/5 412/2/5 411/2/5
f 416/2/5 412/2/5 415/2/5
f 417/2/5 414/2/5 413/2/5
f 418/2/5 414/2/5 417/2/5
f 419/2/6 420/2/6 423/2/6
f 423/2/6 420/2/6 424/2/6
f 421/2/6 422/2/6 425/2/6
f 425/2/6 422/2/6 426/2/6
f 427/3/6 428/3/6 431/3/6
f 431/3/6 428/3/6 432/3/6
f 429/3/6 430/3/6 433/3/6
f 433/3/6 430/3/6 434/3/6
f 427/3/6 431/3/6 435/3/6
f 435/3/6 431/3/6 436/3/6
f 434/3/6 430/3/6 437/3/6
f 437/3/6 430/3/6 438/3/6
f 439/3/6 440/3/6 443/3/6
f 441/3/6 442/3/6 446/3/6
f 443/3/6 444/3/6 447/3/6
f 439/3/6 443/3/6 447/3/6
f 447/3/6 444/3/6 448/3/6
f 445/3/6 446/3/6 449/3/6
f 446/3/6 442/3/6 450/3/6
f 449/3/6 446/3/6 450/3/6
f 451/3/6 452/3/6 456/3/6
f 456/3/6 452/3/6 457/3/6
f 453/3/6 454/3/6 458/3/6
f 458/3/6 454/3/6 459/3/6
f 455/2/6 456/2/6 461/2/6
f 461/2/6 456/2/6 462/2/6
f 459/2/6 460/2/6 465/2/6
f 465/2/6 460/2/6 466/2/6
f 462/3/6 463/3/6 467/3/6
f 467/3/6 463/3/6 468/3/6
f 464/3/6 465/3/6 469/3/6
f 469/3/6 465/3/6 470/3/6
f 471/3/6 472/3/6 474/3/6
f 474/3/6 472/3/6 475/3/6
f 473/3/6 474/3/6 477/3/6
f 477/3/6 474/3/6 478/3/6
f 475/3/6 476/3/6 479/3/6
f 479/3/6 476/3/6 480/3/6
f 478/3/6 479/3/6 481/3/6
f 481/3/6 479/3/6 482/3/6
f 483/2/6 484/2/6 485/2/6
f 485/2/6 484/2/6 486/2/6
