# MagicaVoxel @ Ephtracy

# group
o 

# material
mtllib sniper-0.mtl
usemtl palette

# normals
vn -1 0 0
vn 1 0 0
vn 0 0 1
vn 0 0 -1
vn 0 -1 0
vn 0 1 0

# texcoords
vt 0.755859 0.5
vt 0.982422 0.5
vt 0.986328 0.5

# verts
v -0.3 -0.4 0.2
v -0.3 -0.4 0.1
v -0.3 -0.3 0
v -0.3 -0.3 -0.2
v -0.3 -0.3 -0.3
v -0.3 -0.2 0.1
v -0.3 -0.2 0
v -0.3 0.2 0.2
v -0.3 0.2 0.1
v -0.3 0.2 -0.2
v -0.3 0.2 -0.3
v -0.3 0.3 0.1
v -0.3 0.3 -0.2
v -0.2 -0.4 -0.1
v -0.2 -0.4 -0.2
v -0.2 -0.3 0.1
v -0.2 -0.3 0
v -0.2 -0.3 -0.1
v -0.2 -0.3 -0.2
v -0.2 -0.2 0.1
v -0.2 -0.2 0
v -0.2 0.2 0.2
v -0.2 0.2 0.1
v -0.2 0.2 -0.2
v -0.2 0.2 -0.3
v -0.2 0.3 0.2
v -0.2 0.3 0.1
v -0.2 0.3 -0.2
v -0.2 0.3 -0.3
v -0.2 0.4 0.1
v -0.2 0.4 -0.2
v -0.1 -0.5 0
v -0.1 -0.5 -0.1
v -0.1 -0.4 -0.1
v -0.1 -0.3 0
v -0.1 -0.3 -0.1
v 0 -0.4 -0.2
v 0 -0.4 -0.3
v 0 -0.3 -0.2
v 0 -0.3 -0.3
v 0.1 -0.4 0.1
v 0.1 -0.4 0
v 0.1 -0.3 0.2
v 0.1 -0.3 0.1
v 0.1 -0.3 0
v 0.1 -0.2 0.2
v 0.1 -0.2 0.1
v -0.2 -0.4 0.2
v -0.2 -0.4 0.1
v -0.2 -0.3 0.2
v -0.2 -0.3 0.1
v -0.1 -0.4 -0.1
v -0.1 -0.4 -0.2
v -0.1 -0.3 -0.1
v -0.1 -0.3 -0.2
v 0 -0.5 0
v 0 -0.5 -0.1
v 0 -0.3 0.2
v 0 -0.3 0.1
v 0 -0.3 0
v 0 -0.3 -0.1
v 0 -0.2 0.2
v 0 -0.2 0.1
v 0.1 0.2 0.2
v 0.1 0.2 0.1
v 0.1 0.2 -0.2
v 0.1 0.2 -0.3
v 0.1 0.3 0.2
v 0.1 0.3 0.1
v 0.1 0.3 -0.2
v 0.1 0.3 -0.3
v 0.1 0.4 0.1
v 0.1 0.4 -0.2
v 0.2 -0.4 0.1
v 0.2 -0.4 0
v 0.2 -0.4 -0.2
v 0.2 -0.4 -0.3
v 0.2 -0.3 0.2
v 0.2 -0.3 0.1
v 0.2 -0.3 0
v 0.2 -0.3 -0.2
v 0.2 -0.2 0.1
v 0.2 -0.2 0
v 0.2 -0.2 -0.1
v 0.2 -0.2 -0.2
v 0.2 -0.1 0.1
v 0.2 -0.1 0
v 0.2 -0.1 -0.1
v 0.2 -0.1 -0.2
v 0.2 0 0
v 0.2 0 -0.1
v 0.2 0.1 0
v 0.2 0.1 -0.1
v 0.2 0.2 0.2
v 0.2 0.2 0.1
v 0.2 0.2 0
v 0.2 0.2 -0.1
v 0.2 0.2 -0.2
v 0.2 0.2 -0.3
v 0.2 0.3 0.1
v 0.2 0.3 0
v 0.2 0.3 -0.1
v 0.2 0.3 -0.2
v 0.4 -0.2 0
v 0.4 -0.2 -0.1
v 0.4 -0.1 0
v 0.4 -0.1 -0.1
v 0.4 0.2 0
v 0.4 0.2 -0.1
v 0.4 0.3 0
v 0.4 0.3 -0.1
v 0.5 -0.1 0.1
v 0.5 -0.1 -0.2
v 0.5 0 0
v 0.5 0 -0.1
v 0.5 0.1 0
v 0.5 0.1 -0.1
v 0.5 0.2 0.1
v 0.5 0.2 -0.2
v -0.3 -0.4 0.2
v -0.3 0.2 0.2
v -0.2 -0.4 0.2
v -0.2 -0.3 0.2
v -0.2 0.2 0.2
v -0.2 0.3 0.2
v 0 -0.3 0.2
v 0 -0.2 0.2
v 0.1 -0.3 0.2
v 0.1 -0.2 0.2
v 0.1 0.2 0.2
v 0.1 0.3 0.2
v 0.2 -0.3 0.2
v 0.2 0.2 0.2
v -0.3 0.2 0.1
v -0.3 0.3 0.1
v -0.2 0.2 0.1
v -0.2 0.3 0.1
v -0.2 0.4 0.1
v 0 -0.3 0.1
v 0 -0.2 0.1
v 0.1 -0.4 0.1
v 0.1 -0.3 0.1
v 0.1 -0.2 0.1
v 0.1 0.2 0.1
v 0.1 0.3 0.1
v 0.1 0.4 0.1
v 0.2 -0.4 0.1
v 0.2 -0.3 0.1
v 0.2 -0.1 0.1
v 0.2 0.2 0.1
v 0.2 0.3 0.1
v 0.5 -0.1 0.1
v 0.5 0.2 0.1
v -0.3 -0.3 0
v -0.3 -0.2 0
v -0.2 -0.3 0
v -0.2 -0.2 0
v -0.1 -0.5 0
v -0.1 -0.3 0
v 0 -0.5 0
v 0 -0.3 0
v 0.2 -0.2 0
v 0.2 -0.1 0
v 0.2 0.2 0
v 0.2 0.3 0
v 0.4 -0.2 0
v 0.4 -0.1 0
v 0.4 0.2 0
v 0.4 0.3 0
v -0.2 -0.4 -0.1
v -0.2 -0.3 -0.1
v -0.1 -0.4 -0.1
v -0.1 -0.3 -0.1
v 0.2 0 -0.1
v 0.2 0.1 -0.1
v 0.5 0 -0.1
v 0.5 0.1 -0.1
v 0 -0.4 -0.2
v 0 -0.3 -0.2
v 0.1 -0.4 -0.2
v 0.1 -0.3 -0.2
v 0.2 -0.4 -0.2
v 0.2 -0.3 -0.2
v -0.3 -0.4 0.1
v -0.3 -0.2 0.1
v -0.2 -0.4 0.1
v -0.2 -0.3 0.1
v -0.2 -0.2 0.1
v 0.1 -0.4 0
v 0.1 -0.3 0
v 0.2 -0.4 0
v 0.2 -0.3 0
v 0.2 0 0
v 0.2 0.1 0
v 0.5 0 0
v 0.5 0.1 0
v -0.1 -0.5 -0.1
v -0.1 -0.4 -0.1
v -0.1 -0.3 -0.1
v 0 -0.5 -0.1
v 0 -0.3 -0.1
v 0.2 -0.2 -0.1
v 0.2 -0.1 -0.1
v 0.2 0.2 -0.1
v 0.2 0.3 -0.1
v 0.4 -0.2 -0.1
v 0.4 -0.1 -0.1
v 0.4 0.2 -0.1
v 0.4 0.3 -0.1
v -0.3 0.2 -0.2
v -0.3 0.3 -0.2
v -0.2 -0.4 -0.2
v -0.2 -0.3 -0.2
v -0.2 0.2 -0.2
v -0.2 0.3 -0.2
v -0.2 0.4 -0.2
v -0.1 -0.4 -0.2
v -0.1 -0.3 -0.2
v 0.1 0.2 -0.2
v 0.1 0.3 -0.2
v 0.1 0.4 -0.2
v 0.2 -0.1 -0.2
v 0.2 0.2 -0.2
v 0.2 0.3 -0.2
v 0.5 -0.1 -0.2
v 0.5 0.2 -0.2
v -0.3 -0.3 -0.3
v -0.3 0.2 -0.3
v -0.2 -0.3 -0.3
v -0.2 0.2 -0.3
v -0.2 0.3 -0.3
v 0 -0.4 -0.3
v 0 -0.3 -0.3
v 0.1 -0.4 -0.3
v 0.1 0.2 -0.3
v 0.1 0.3 -0.3
v 0.2 -0.4 -0.3
v 0.2 0.2 -0.3
v -0.1 -0.5 0
v 0 -0.5 0
v -0.1 -0.5 -0.1
v 0 -0.5 -0.1
v -0.3 -0.4 0.2
v -0.2 -0.4 0.2
v -0.3 -0.4 0.1
v -0.2 -0.4 0.1
v 0.1 -0.4 0.1
v 0.2 -0.4 0.1
v 0.1 -0.4 0
v 0.2 -0.4 0
v -0.2 -0.4 -0.1
v -0.1 -0.4 -0.1
v -0.2 -0.4 -0.2
v -0.1 -0.4 -0.2
v 0 -0.4 -0.2
v 0.1 -0.4 -0.2
v 0.2 -0.4 -0.2
v 0 -0.4 -0.3
v 0.1 -0.4 -0.3
v 0.2 -0.4 -0.3
v -0.2 -0.3 0.2
v 0 -0.3 0.2
v 0.1 -0.3 0.2
v 0.2 -0.3 0.2
v -0.2 -0.3 0.1
v 0 -0.3 0.1
v 0.1 -0.3 0.1
v 0.2 -0.3 0.1
v -0.3 -0.3 0
v -0.2 -0.3 0
v -0.1 -0.3 0
v 0 -0.3 0
v 0.1 -0.3 0
v 0.2 -0.3 0
v -0.2 -0.3 -0.1
v -0.1 -0.3 -0.1
v 0 -0.3 -0.1
v -0.3 -0.3 -0.2
v -0.2 -0.3 -0.2
v -0.1 -0.3 -0.2
v 0 -0.3 -0.2
v 0.1 -0.3 -0.2
v 0.2 -0.3 -0.2
v -0.3 -0.3 -0.3
v -0.2 -0.3 -0.3
v 0 -0.3 -0.3
v 0 -0.2 0.2
v 0.1 -0.2 0.2
v -0.3 -0.2 0.1
v -0.2 -0.2 0.1
v 0 -0.2 0.1
v 0.1 -0.2 0.1
v -0.3 -0.2 0
v -0.2 -0.2 0
v 0.2 -0.2 0
v 0.4 -0.2 0
v 0.2 -0.2 -0.1
v 0.4 -0.2 -0.1
v 0.2 -0.1 0.1
v 0.5 -0.1 0.1
v 0.2 -0.1 0
v 0.4 -0.1 0
v 0.2 -0.1 -0.1
v 0.4 -0.1 -0.1
v 0.2 -0.1 -0.2
v 0.5 -0.1 -0.2
v 0.2 0.1 0
v 0.5 0.1 0
v 0.2 0.1 -0.1
v 0.5 0.1 -0.1
v 0.2 0 0
v 0.5 0 0
v 0.2 0 -0.1
v 0.5 0 -0.1
v -0.3 0.2 0.2
v -0.2 0.2 0.2
v 0.1 0.2 0.2
v 0.2 0.2 0.2
v -0.3 0.2 0.1
v -0.2 0.2 0.1
v 0.1 0.2 0.1
v 0.2 0.2 0.1
v 0.5 0.2 0.1
v 0.2 0.2 0
v 0.4 0.2 0
v 0.2 0.2 -0.1
v 0.4 0.2 -0.1
v -0.3 0.2 -0.2
v -0.2 0.2 -0.2
v 0.1 0.2 -0.2
v 0.2 0.2 -0.2
v 0.5 0.2 -0.2
v -0.3 0.2 -0.3
v -0.2 0.2 -0.3
v 0.1 0.2 -0.3
v 0.2 0.2 -0.3
v -0.2 0.3 0.2
v 0.1 0.3 0.2
v -0.3 0.3 0.1
v -0.2 0.3 0.1
v 0.1 0.3 0.1
v 0.2 0.3 0.1
v 0.2 0.3 0
v 0.4 0.3 0
v 0.2 0.3 -0.1
v 0.4 0.3 -0.1
v -0.3 0.3 -0.2
v -0.2 0.3 -0.2
v 0.1 0.3 -0.2
v 0.2 0.3 -0.2
v -0.2 0.3 -0.3
v 0.1 0.3 -0.3
v -0.2 0.4 0.1
v 0.1 0.4 0.1
v -0.2 0.4 -0.2
v 0.1 0.4 -0.2

# faces
f 6/3/1 2/3/1 1/3/1
f 7/2/1 4/2/1 3/2/1
f 8/3/1 6/3/1 1/3/1
f 9/2/1 7/2/1 6/2/1
f 9/3/1 6/3/1 8/3/1
f 10/3/1 5/3/1 4/3/1
f 10/2/1 7/2/1 9/2/1
f 10/2/1 4/2/1 7/2/1
f 11/3/1 5/3/1 10/3/1
f 12/3/1 10/3/1 9/3/1
f 13/3/1 10/3/1 12/3/1
f 18/2/1 15/2/1 14/2/1
f 19/2/1 15/2/1 18/2/1
f 20/2/1 17/2/1 16/2/1
f 21/2/1 17/2/1 20/2/1
f 26/3/1 23/3/1 22/3/1
f 27/3/1 23/3/1 26/3/1
f 28/3/1 25/3/1 24/3/1
f 29/3/1 25/3/1 28/3/1
f 30/2/1 28/2/1 27/2/1
f 31/2/1 28/2/1 30/2/1
f 34/2/1 33/2/1 32/2/1
f 35/2/1 34/2/1 32/2/1
f 36/2/1 34/2/1 35/2/1
f 39/2/1 38/2/1 37/2/1
f 40/2/1 38/2/1 39/2/1
f 44/2/1 42/2/1 41/2/1
f 45/2/1 42/2/1 44/2/1
f 46/3/1 44/3/1 43/3/1
f 47/3/1 44/3/1 46/3/1
f 48/3/2 49/3/2 50/3/2
f 50/3/2 49/3/2 51/3/2
f 52/2/2 53/2/2 54/2/2
f 54/2/2 53/2/2 55/2/2
f 56/2/2 57/2/2 60/2/2
f 60/2/2 57/2/2 61/2/2
f 58/2/2 59/2/2 62/2/2
f 62/2/2 59/2/2 63/2/2
f 64/3/2 65/3/2 68/3/2
f 68/3/2 65/3/2 69/3/2
f 66/3/2 67/3/2 70/3/2
f 70/3/2 67/3/2 71/3/2
f 69/2/2 70/2/2 72/2/2
f 72/2/2 70/2/2 73/2/2
f 74/2/2 75/2/2 79/2/2
f 79/2/2 75/2/2 80/2/2
f 76/3/2 77/3/2 81/3/2
f 79/2/2 80/2/2 82/2/2
f 80/2/2 81/2/2 82/2/2
f 78/3/2 79/3/2 82/3/2
f 82/2/2 81/2/2 83/2/2
f 83/2/2 81/2/2 84/2/2
f 81/3/2 77/3/2 85/3/2
f 84/2/2 81/2/2 85/2/2
f 78/3/2 82/3/2 86/3/2
f 82/3/2 83/3/2 86/3/2
f 86/3/2 83/3/2 87/3/2
f 84/3/2 85/3/2 88/3/2
f 85/3/2 77/3/2 89/3/2
f 88/3/2 85/3/2 89/3/2
f 90/1/2 91/1/2 92/1/2
f 92/1/2 91/1/2 93/1/2
f 78/3/2 86/3/2 94/3/2
f 94/3/2 86/3/2 95/3/2
f 89/3/2 77/3/2 98/3/2
f 98/3/2 77/3/2 99/3/2
f 95/3/2 96/3/2 100/3/2
f 100/3/2 96/3/2 101/3/2
f 97/3/2 98/3/2 102/3/2
f 102/3/2 98/3/2 103/3/2
f 104/3/2 105/3/2 106/3/2
f 106/3/2 105/3/2 107/3/2
f 108/3/2 109/3/2 110/3/2
f 110/3/2 109/3/2 111/3/2
f 112/2/2 113/2/2 114/2/2
f 114/2/2 113/2/2 115/2/2
f 112/2/2 114/2/2 116/2/2
f 115/2/2 113/2/2 117/2/2
f 112/2/2 116/2/2 118/2/2
f 116/2/2 117/2/2 118/2/2
f 117/2/2 113/2/2 119/2/2
f 118/2/2 117/2/2 119/2/2
f 122/3/3 121/3/3 120/3/3
f 123/3/3 121/3/3 122/3/3
f 124/3/3 121/3/3 123/3/3
f 126/2/3 124/2/3 123/2/3
f 127/2/3 124/2/3 126/2/3
f 129/2/3 124/2/3 127/2/3
f 130/3/3 125/3/3 124/3/3
f 130/2/3 124/2/3 129/2/3
f 131/3/3 125/3/3 130/3/3
f 132/3/3 129/3/3 128/3/3
f 132/3/3 130/3/3 129/3/3
f 133/3/3 130/3/3 132/3/3
f 136/3/3 135/3/3 134/3/3
f 137/3/3 135/3/3 136/3/3
f 142/2/3 140/2/3 139/2/3
f 143/2/3 140/2/3 142/2/3
f 145/2/3 138/2/3 137/2/3
f 146/2/3 138/2/3 145/2/3
f 147/2/3 142/2/3 141/2/3
f 148/2/3 142/2/3 147/2/3
f 150/3/3 145/3/3 144/3/3
f 151/3/3 145/3/3 150/3/3
f 152/2/3 150/2/3 149/2/3
f 153/2/3 150/2/3 152/2/3
f 156/2/3 155/2/3 154/2/3
f 157/2/3 155/2/3 156/2/3
f 160/2/3 159/2/3 158/2/3
f 161/2/3 159/2/3 160/2/3
f 166/3/3 163/3/3 162/3/3
f 167/3/3 163/3/3 166/3/3
f 168/3/3 165/3/3 164/3/3
f 169/3/3 165/3/3 168/3/3
f 172/2/3 171/2/3 170/2/3
f 173/2/3 171/2/3 172/2/3
f 176/2/3 175/2/3 174/2/3
f 177/2/3 175/2/3 176/2/3
f 180/2/3 179/2/3 178/2/3
f 181/2/3 179/2/3 180/2/3
f 182/3/3 181/3/3 180/3/3
f 183/3/3 181/3/3 182/3/3
f 184/3/4 185/3/4 186/3/4
f 186/3/4 185/3/4 187/3/4
f 187/3/4 185/3/4 188/3/4
f 189/2/4 190/2/4 191/2/4
f 191/2/4 190/2/4 192/2/4
f 193/2/4 194/2/4 195/2/4
f 195/2/4 194/2/4 196/2/4
f 197/2/4 198/2/4 200/2/4
f 198/2/4 199/2/4 200/2/4
f 200/2/4 199/2/4 201/2/4
f 202/3/4 203/3/4 206/3/4
f 206/3/4 203/3/4 207/3/4
f 204/3/4 205/3/4 208/3/4
f 208/3/4 205/3/4 209/3/4
f 210/3/4 211/3/4 214/3/4
f 214/3/4 211/3/4 215/3/4
f 212/2/4 213/2/4 217/2/4
f 217/2/4 213/2/4 218/2/4
f 215/2/4 216/2/4 220/2/4
f 220/2/4 216/2/4 221/2/4
f 219/3/4 220/3/4 223/3/4
f 223/3/4 220/3/4 224/3/4
f 222/2/4 223/2/4 225/2/4
f 225/2/4 223/2/4 226/2/4
f 227/3/4 228/3/4 229/3/4
f 229/3/4 228/3/4 230/3/4
f 229/2/4 230/2/4 233/2/4
f 232/2/4 233/2/4 234/2/4
f 230/3/4 231/3/4 235/3/4
f 234/2/4 233/2/4 235/2/4
f 233/2/4 230/2/4 235/2/4
f 235/3/4 231/3/4 236/3/4
f 234/3/4 235/3/4 237/3/4
f 237/3/4 235/3/4 238/3/4
f 241/2/5 240/2/5 239/2/5
f 242/2/5 240/2/5 241/2/5
f 245/3/5 244/3/5 243/3/5
f 246/3/5 244/3/5 245/3/5
f 249/2/5 248/2/5 247/2/5
f 250/2/5 248/2/5 249/2/5
f 253/2/5 252/2/5 251/2/5
f 254/2/5 252/2/5 253/2/5
f 258/2/5 256/2/5 255/2/5
f 259/3/5 257/3/5 256/3/5
f 259/2/5 256/2/5 258/2/5
f 260/3/5 257/3/5 259/3/5
f 265/2/5 262/2/5 261/2/5
f 266/2/5 262/2/5 265/2/5
f 267/3/5 264/3/5 263/3/5
f 268/3/5 264/3/5 267/3/5
f 270/2/5 266/2/5 265/2/5
f 270/2/5 267/2/5 266/2/5
f 271/2/5 267/2/5 270/2/5
f 272/2/5 267/2/5 271/2/5
f 273/2/5 267/2/5 272/2/5
f 275/2/5 270/2/5 269/2/5
f 275/2/5 271/2/5 270/2/5
f 276/2/5 271/2/5 275/2/5
f 277/2/5 274/2/5 273/2/5
f 277/2/5 273/2/5 272/2/5
f 278/2/5 275/2/5 269/2/5
f 279/2/5 275/2/5 278/2/5
f 280/2/5 277/2/5 276/2/5
f 281/2/5 274/2/5 277/2/5
f 281/2/5 277/2/5 280/2/5
f 282/2/5 274/2/5 281/2/5
f 283/2/5 274/2/5 282/2/5
f 284/3/5 279/3/5 278/3/5
f 285/2/5 280/2/5 279/2/5
f 285/3/5 279/3/5 284/3/5
f 285/2/5 281/2/5 280/2/5
f 286/2/5 281/2/5 285/2/5
f 291/2/5 288/2/5 287/2/5
f 292/2/5 288/2/5 291/2/5
f 293/2/5 290/2/5 289/2/5
f 294/2/5 290/2/5 293/2/5
f 297/3/5 296/3/5 295/3/5
f 298/3/5 296/3/5 297/3/5
f 301/2/5 300/2/5 299/2/5
f 302/2/5 300/2/5 301/2/5
f 304/2/5 300/2/5 302/2/5
f 305/2/5 304/2/5 303/2/5
f 306/2/5 300/2/5 304/2/5
f 306/2/5 304/2/5 305/2/5
f 309/2/5 308/2/5 307/2/5
f 310/2/5 308/2/5 309/2/5
f 311/2/6 312/2/6 313/2/6
f 313/2/6 312/2/6 314/2/6
f 315/3/6 316/3/6 319/3/6
f 319/3/6 316/3/6 320/3/6
f 317/3/6 318/3/6 321/3/6
f 321/3/6 318/3/6 322/3/6
f 322/2/6 323/2/6 324/2/6
f 324/2/6 323/2/6 325/2/6
f 325/2/6 323/2/6 327/2/6
f 326/2/6 327/2/6 331/2/6
f 327/2/6 323/2/6 332/2/6
f 331/2/6 327/2/6 332/2/6
f 328/3/6 329/3/6 333/3/6
f 333/3/6 329/3/6 334/3/6
f 330/3/6 331/3/6 335/3/6
f 335/3/6 331/3/6 336/3/6
f 337/3/6 338/3/6 340/3/6
f 340/3/6 338/3/6 341/3/6
f 341/3/6 342/3/6 343/3/6
f 341/3/6 343/3/6 345/3/6
f 343/3/6 344/3/6 345/3/6
f 345/3/6 344/3/6 346/3/6
f 339/3/6 340/3/6 347/3/6
f 347/3/6 340/3/6 348/3/6
f 341/3/6 345/3/6 349/3/6
f 349/3/6 345/3/6 350/3/6
f 348/3/6 349/3/6 351/3/6
f 351/3/6 349/3/6 352/3/6
f 353/2/6 354/2/6 355/2/6
f 355/2/6 354/2/6 356/2/6
