# MagicaVoxel @ Ephtracy

# group
o 

# material
mtllib concrete2grassOuterCorner-0.mtl
usemtl palette

# normals
vn -1 0 0
vn 1 0 0
vn 0 0 1
vn 0 0 -1
vn 0 -1 0
vn 0 1 0

# texcoords
vt 0.591797 0.5
vt 0.951172 0.5
vt 0.990234 0.5

# verts
v -2.4 -2.4 2.4
v -2.4 -2.4 -2.4
v -2.4 2.4 2.4
v -2.4 2.4 -2.4
v 2.4 -2.4 2.4
v 2.4 -2.4 0.4
v 2.4 -2.4 -2.4
v 2.4 2.3 0.5
v 2.4 2.3 0.4
v 2.4 2.4 2.4
v 2.4 2.4 0.5
v 2.4 2.4 0.4
v 2.4 2.4 -2.4
v -2.4 -2.4 2.4
v -2.4 2.4 2.4
v 0.4 -2.4 2.4
v 0.4 2.3 2.4
v 0.4 2.4 2.4
v 0.5 2.3 2.4
v 0.5 2.4 2.4
v 2.4 -2.4 2.4
v 2.4 2.4 2.4
v -2.4 -2.4 -2.4
v -2.4 2.4 -2.4
v 2.4 -2.4 -2.4
v 2.4 2.4 -2.4
v -2.4 -2.4 2.4
v 0.4 -2.4 2.4
v 2.4 -2.4 2.4
v 0.4 -2.4 0.4
v 2.4 -2.4 0.4
v -2.4 -2.4 -2.4
v 2.4 -2.4 -2.4
v -2.4 2.4 2.4
v 0.4 2.4 2.4
v 0.5 2.4 2.4
v 2.4 2.4 2.4
v -0.2 2.4 2.3
v 0.2 2.4 2.3
v -0.0999999 2.4 2.2
v 0.1 2.4 2.2
v -0.0999999 2.4 2
v 0.1 2.4 2
v -0.2 2.4 1.9
v 0.2 2.4 1.9
v -0.0999999 2.4 1.7
v 0.4 2.4 1.7
v 0.4 2.4 1.6
v 0.5 2.4 1.6
v 0.1 2.4 1.5
v 0.3 2.4 1.5
v 0.1 2.4 1.3
v 0.3 2.4 1.3
v 0 2.4 1.2
v 0.4 2.4 1.2
v 0.5 2.4 1.2
v 1.1 2.4 1.2
v 0.6 2.4 1.1
v 1 2.4 1.1
v 0 2.4 1
v 0.2 2.4 1
v -0.0999999 2.4 0.9
v 0.1 2.4 0.9
v 1.7 2.4 0.9
v 2.1 2.4 0.9
v 1.8 2.4 0.8
v 2 2.4 0.8
v 0.2 2.4 0.7
v 0.5 2.4 0.7
v 0.6 2.4 0.7
v 1 2.4 0.7
v 0.1 2.4 0.6
v 0.4 2.4 0.6
v 0.5 2.4 0.6
v 0.9 2.4 0.6
v 1.1 2.4 0.6
v 1.3 2.4 0.6
v 1.8 2.4 0.6
v 2 2.4 0.6
v 0.5 2.4 0.5
v 0.8 2.4 0.5
v 1 2.4 0.5
v 1.2 2.4 0.5
v 1.7 2.4 0.5
v 1.8 2.4 0.5
v 2.1 2.4 0.5
v 2.4 2.4 0.5
v 0 2.4 0.4
v 0.2 2.4 0.4
v 0.4 2.4 0.4
v 0.7 2.4 0.4
v 1.9 2.4 0.4
v 2.4 2.4 0.4
v 1 2.4 0.3
v 1.2 2.4 0.3
v 1.3 2.4 0.3
v 1.8 2.4 0.3
v 0 2.4 0.2
v 0.2 2.4 0.2
v 0.9 2.4 0.2
v 1 2.4 0.2
v 1.1 2.4 0.2
v 1.9 2.4 0.2
v 2.1 2.4 0.2
v 2.3 2.4 0.2
v 0.8 2.4 0.0999999
v 1 2.4 0.0999999
v 0.7 2.4 0
v 1.1 2.4 0
v 2.1 2.4 0
v 2.3 2.4 0
v -2.4 2.4 -2.4
v 2.4 2.4 -2.4

# faces
f 3/1/1 2/1/1 1/1/1
f 4/1/1 2/1/1 3/1/1
f 5/2/2 6/2/2 8/2/2
f 6/1/2 7/1/2 9/1/2
f 8/2/2 6/2/2 9/2/2
f 5/2/2 8/2/2 10/2/2
f 8/3/2 9/3/2 11/3/2
f 10/2/2 8/2/2 11/2/2
f 9/1/2 7/1/2 12/1/2
f 11/3/2 9/3/2 12/3/2
f 12/1/2 7/1/2 13/1/2
f 16/1/3 15/1/3 14/1/3
f 17/1/3 15/1/3 16/1/3
f 18/1/3 15/1/3 17/1/3
f 19/2/3 17/2/3 16/2/3
f 19/3/3 18/3/3 17/3/3
f 20/3/3 18/3/3 19/3/3
f 21/2/3 19/2/3 16/2/3
f 21/2/3 20/2/3 19/2/3
f 22/2/3 20/2/3 21/2/3
f 23/1/4 24/1/4 25/1/4
f 25/1/4 24/1/4 26/1/4
f 30/1/5 28/1/5 27/1/5
f 30/2/5 29/2/5 28/2/5
f 31/2/5 29/2/5 30/2/5
f 32/1/5 30/1/5 27/1/5
f 32/1/5 31/1/5 30/1/5
f 33/1/5 31/1/5 32/1/5
f 34/1/6 35/1/6 38/1/6
f 38/1/6 35/1/6 39/1/6
f 38/3/6 39/3/6 40/3/6
f 40/3/6 39/3/6 41/3/6
f 38/3/6 40/3/6 42/3/6
f 40/2/6 41/2/6 42/2/6
f 41/3/6 39/3/6 43/3/6
f 42/2/6 41/2/6 43/2/6
f 34/1/6 38/1/6 44/1/6
f 38/3/6 42/3/6 44/3/6
f 42/3/6 43/3/6 44/3/6
f 43/3/6 39/3/6 45/3/6
f 44/3/6 43/3/6 45/3/6
f 39/1/6 35/1/6 45/1/6
f 44/1/6 45/1/6 46/1/6
f 35/3/6 36/3/6 47/3/6
f 46/1/6 45/1/6 47/1/6
f 45/1/6 35/1/6 47/1/6
f 46/3/6 47/3/6 48/3/6
f 47/3/6 36/3/6 48/3/6
f 36/2/6 37/2/6 49/2/6
f 48/3/6 36/3/6 49/3/6
f 46/3/6 48/3/6 50/3/6
f 50/3/6 48/3/6 51/3/6
f 46/3/6 50/3/6 52/3/6
f 50/1/6 51/1/6 52/1/6
f 51/3/6 48/3/6 53/3/6
f 52/1/6 51/1/6 53/1/6
f 46/3/6 52/3/6 54/3/6
f 52/3/6 53/3/6 54/3/6
f 48/2/6 49/2/6 55/2/6
f 54/3/6 53/3/6 55/3/6
f 53/3/6 48/3/6 55/3/6
f 49/2/6 37/2/6 56/2/6
f 55/2/6 49/2/6 56/2/6
f 56/2/6 37/2/6 57/2/6
f 56/3/6 57/3/6 58/3/6
f 58/3/6 57/3/6 59/3/6
f 54/2/6 55/2/6 60/2/6
f 46/3/6 54/3/6 60/3/6
f 55/2/6 56/2/6 60/2/6
f 60/2/6 56/2/6 61/2/6
f 44/1/6 46/1/6 62/1/6
f 46/3/6 60/3/6 62/3/6
f 60/3/6 61/3/6 62/3/6
f 62/3/6 61/3/6 63/3/6
f 57/2/6 37/2/6 64/2/6
f 64/2/6 37/2/6 65/2/6
f 64/3/6 65/3/6 66/3/6
f 66/3/6 65/3/6 67/3/6
f 61/2/6 56/2/6 68/2/6
f 63/3/6 61/3/6 68/3/6
f 56/3/6 58/3/6 69/3/6
f 68/2/6 56/2/6 69/2/6
f 58/1/6 59/1/6 70/1/6
f 69/3/6 58/3/6 70/3/6
f 59/3/6 57/3/6 71/3/6
f 70/1/6 59/1/6 71/1/6
f 69/3/6 70/3/6 72/3/6
f 68/3/6 69/3/6 72/3/6
f 70/3/6 71/3/6 72/3/6
f 63/3/6 68/3/6 72/3/6
f 62/1/6 63/1/6 72/1/6
f 72/3/6 71/3/6 73/3/6
f 73/3/6 71/3/6 74/3/6
f 74/3/6 71/3/6 75/3/6
f 71/3/6 57/3/6 76/3/6
f 75/3/6 71/3/6 76/3/6
f 57/2/6 64/2/6 76/2/6
f 76/2/6 64/2/6 77/2/6
f 64/3/6 66/3/6 78/3/6
f 66/1/6 67/1/6 78/1/6
f 67/3/6 65/3/6 79/3/6
f 78/1/6 67/1/6 79/1/6
f 74/2/6 75/2/6 80/2/6
f 73/3/6 74/3/6 80/3/6
f 80/2/6 75/2/6 81/2/6
f 76/3/6 77/3/6 82/3/6
f 75/3/6 76/3/6 82/3/6
f 82/3/6 77/3/6 83/3/6
f 64/3/6 78/3/6 84/3/6
f 77/2/6 64/2/6 84/2/6
f 78/3/6 79/3/6 84/3/6
f 84/3/6 79/3/6 85/3/6
f 79/3/6 65/3/6 86/3/6
f 85/3/6 79/3/6 86/3/6
f 65/2/6 37/2/6 86/2/6
f 86/2/6 37/2/6 87/2/6
f 62/1/6 72/1/6 88/1/6
f 72/1/6 73/1/6 88/1/6
f 88/1/6 73/1/6 89/1/6
f 80/3/6 81/3/6 90/3/6
f 89/1/6 73/1/6 90/1/6
f 73/3/6 80/3/6 90/3/6
f 90/3/6 81/3/6 91/3/6
f 86/3/6 87/3/6 92/3/6
f 85/3/6 86/3/6 92/3/6
f 92/3/6 87/3/6 93/3/6
f 82/1/6 83/1/6 94/1/6
f 75/3/6 82/3/6 94/3/6
f 83/3/6 77/3/6 95/3/6
f 94/1/6 83/1/6 95/1/6
f 84/2/6 85/2/6 96/2/6
f 95/3/6 77/3/6 96/3/6
f 77/2/6 84/2/6 96/2/6
f 85/3/6 92/3/6 97/3/6
f 96/2/6 85/2/6 97/2/6
f 88/3/6 89/3/6 98/3/6
f 62/1/6 88/1/6 98/1/6
f 90/1/6 91/1/6 99/1/6
f 98/3/6 89/3/6 99/3/6
f 89/1/6 90/1/6 99/1/6
f 94/3/6 95/3/6 100/3/6
f 75/3/6 94/3/6 100/3/6
f 95/3/6 96/3/6 100/3/6
f 81/2/6 75/2/6 100/2/6
f 96/3/6 97/3/6 100/3/6
f 100/3/6 97/3/6 101/3/6
f 101/3/6 97/3/6 102/3/6
f 97/3/6 92/3/6 103/3/6
f 102/3/6 97/3/6 103/3/6
f 92/1/6 93/1/6 103/1/6
f 103/1/6 93/1/6 104/1/6
f 104/1/6 93/1/6 105/1/6
f 100/2/6 101/2/6 106/2/6
f 91/3/6 81/3/6 106/3/6
f 81/2/6 100/2/6 106/2/6
f 101/3/6 102/3/6 107/3/6
f 106/2/6 101/2/6 107/2/6
f 99/1/6 91/1/6 108/1/6
f 98/1/6 99/1/6 108/1/6
f 106/3/6 107/3/6 108/3/6
f 91/3/6 106/3/6 108/3/6
f 107/3/6 102/3/6 109/3/6
f 108/3/6 107/3/6 109/3/6
f 102/1/6 103/1/6 109/1/6
f 103/1/6 104/1/6 109/1/6
f 104/3/6 105/3/6 110/3/6
f 109/1/6 104/1/6 110/1/6
f 105/1/6 93/1/6 111/1/6
f 110/3/6 105/3/6 111/3/6
f 98/1/6 108/1/6 112/1/6
f 108/1/6 109/1/6 112/1/6
f 110/1/6 111/1/6 112/1/6
f 109/1/6 110/1/6 112/1/6
f 44/1/6 62/1/6 112/1/6
f 34/1/6 44/1/6 112/1/6
f 62/1/6 98/1/6 112/1/6
f 111/1/6 93/1/6 113/1/6
f 112/1/6 111/1/6 113/1/6
