# MagicaVoxel @ Ephtracy

# group
o 

# material
mtllib concretePathCracks2-0.mtl
usemtl palette

# normals
vn -1 0 0
vn 1 0 0
vn 0 0 1
vn 0 0 -1
vn 0 -1 0
vn 0 1 0

# texcoords
vt 0.951172 0.5
vt 0.990234 0.5

# verts
v -2.4 -2.4 2.4
v -2.4 -2.4 -2.4
v -2.4 2.4 2.4
v -2.4 2.4 -2.4
v -2 2.3 -1.1
v -2 2.3 -1.3
v -2 2.4 -1.1
v -2 2.4 -1.3
v -1.8 2.3 -1.8
v -1.8 2.3 -2
v -1.8 2.4 -1.8
v -1.8 2.4 -2
v -1.6 2.3 -0.8
v -1.6 2.3 -1
v -1.6 2.3 -1.2
v -1.6 2.3 -1.4
v -1.6 2.3 -1.5
v -1.6 2.3 -2
v -1.6 2.3 -2.1
v -1.6 2.3 -2.2
v -1.6 2.4 -0.8
v -1.6 2.4 -1
v -1.6 2.4 -1.2
v -1.6 2.4 -1.4
v -1.6 2.4 -1.5
v -1.6 2.4 -2
v -1.6 2.4 -2.1
v -1.6 2.4 -2.2
v -1.5 2.3 -1.1
v -1.5 2.3 -1.2
v -1.5 2.4 -1.1
v -1.5 2.4 -1.2
v -1.4 2.3 0.0999999
v -1.4 2.3 -0.3
v -1.4 2.3 -2
v -1.4 2.3 -2.1
v -1.4 2.4 0.0999999
v -1.4 2.4 -0.3
v -1.4 2.4 -2
v -1.4 2.4 -2.1
v -1.3 2.3 -0.4
v -1.3 2.3 -0.7
v -1.3 2.4 -0.4
v -1.3 2.4 -0.7
v -1 2.3 -0.9
v -1 2.3 -1
v -1 2.3 -1.1
v -1 2.3 -1.4
v -1 2.4 -0.9
v -1 2.4 -1
v -1 2.4 -1.1
v -1 2.4 -1.4
v -0.9 2.3 -0.2
v -0.9 2.3 -0.5
v -0.9 2.3 -0.6
v -0.9 2.3 -0.8
v -0.9 2.4 -0.2
v -0.9 2.4 -0.5
v -0.9 2.4 -0.6
v -0.9 2.4 -0.8
v -0.8 2.3 -0.8
v -0.8 2.3 -1
v -0.8 2.3 -1.5
v -0.8 2.3 -1.8
v -0.8 2.4 -0.8
v -0.8 2.4 -1
v -0.8 2.4 -1.5
v -0.8 2.4 -1.8
v -0.6 2.3 -0.5
v -0.6 2.3 -0.6
v -0.6 2.3 -1.8
v -0.6 2.3 -1.9
v -0.6 2.4 -0.5
v -0.6 2.4 -0.6
v -0.6 2.4 -1.8
v -0.6 2.4 -1.9
v -0.5 2.3 -1
v -0.5 2.3 -1.6
v -0.5 2.4 -1
v -0.5 2.4 -1.6
v 0.8 2.3 -0.6
v 0.8 2.3 -0.7
v 0.8 2.3 -0.8
v 0.8 2.3 -1.1
v 0.8 2.4 -0.6
v 0.8 2.4 -0.7
v 0.8 2.4 -0.8
v 0.8 2.4 -1.1
v 1 2.3 -0.5
v 1 2.3 -0.6
v 1 2.3 -1.2
v 1 2.3 -1.4
v 1 2.4 -0.5
v 1 2.4 -0.6
v 1 2.4 -1.2
v 1 2.4 -1.4
v 1.1 2.3 -0.9
v 1.1 2.3 -1.1
v 1.1 2.4 -0.9
v 1.1 2.4 -1.1
v 1.3 2.3 -0.4
v 1.3 2.3 -0.5
v 1.3 2.3 -0.6
v 1.3 2.3 -1.3
v 1.3 2.4 -0.4
v 1.3 2.4 -0.5
v 1.3 2.4 -0.6
v 1.3 2.4 -1.3
v 1.4 2.3 -0.5
v 1.4 2.3 -0.6
v 1.4 2.4 -0.5
v 1.4 2.4 -0.6
v -2.2 2.3 -1.1
v -2.2 2.3 -1.2
v -2.2 2.4 -1.1
v -2.2 2.4 -1.2
v -2.1 2.3 -1
v -2.1 2.3 -1.1
v -2.1 2.3 -1.2
v -2.1 2.3 -1.3
v -2.1 2.3 -2
v -2.1 2.3 -2.1
v -2.1 2.4 -1
v -2.1 2.4 -1.1
v -2.1 2.4 -1.2
v -2.1 2.4 -1.3
v -2.1 2.4 -2
v -2.1 2.4 -2.1
v -1.9 2.3 -1.8
v -1.9 2.3 -2
v -1.9 2.4 -1.8
v -1.9 2.4 -2
v -1.7 2.3 -0.8
v -1.7 2.3 -1
v -1.7 2.3 -1.1
v -1.7 2.3 -2
v -1.7 2.3 -2.1
v -1.7 2.3 -2.2
v -1.7 2.4 -0.8
v -1.7 2.4 -1
v -1.7 2.4 -1.1
v -1.7 2.4 -2
v -1.7 2.4 -2.1
v -1.7 2.4 -2.2
v -1.5 2.3 0.0999999
v -1.5 2.3 -0.4
v -1.5 2.4 0.0999999
v -1.5 2.4 -0.4
v -1.4 2.3 -0.4
v -1.4 2.3 -0.7
v -1.4 2.4 -0.4
v -1.4 2.4 -0.7
v -1.2 2.3 -0.8
v -1.2 2.3 -1
v -1.2 2.3 -1.1
v -1.2 2.3 -1.2
v -1.2 2.4 -0.8
v -1.2 2.4 -1
v -1.2 2.4 -1.1
v -1.2 2.4 -1.2
v -1.1 2.3 -1.2
v -1.1 2.3 -1.4
v -1.1 2.4 -1.2
v -1.1 2.4 -1.4
v -1 2.3 -0.2
v -1 2.3 -0.3
v -1 2.3 -0.4
v -1 2.3 -0.8
v -1 2.3 -1.8
v -1 2.3 -1.9
v -1 2.4 -0.2
v -1 2.4 -0.3
v -1 2.4 -0.4
v -1 2.4 -0.8
v -1 2.4 -1.8
v -1 2.4 -1.9
v -0.9 2.3 -0.9
v -0.9 2.3 -1
v -0.9 2.3 -1.5
v -0.9 2.3 -1.8
v -0.9 2.4 -0.9
v -0.9 2.4 -1
v -0.9 2.4 -1.5
v -0.9 2.4 -1.8
v -0.6 2.3 -1.1
v -0.6 2.3 -1.4
v -0.6 2.3 -1.5
v -0.6 2.3 -1.6
v -0.6 2.4 -1.1
v -0.6 2.4 -1.4
v -0.6 2.4 -1.5
v -0.6 2.4 -1.6
v 0.6 2.3 -0.5
v 0.6 2.3 -0.8
v 0.6 2.3 -1.1
v 0.6 2.3 -1.2
v 0.6 2.4 -0.5
v 0.6 2.4 -0.8
v 0.6 2.4 -1.1
v 0.6 2.4 -1.2
v 0.7 2.3 -0.8
v 0.7 2.3 -1.1
v 0.7 2.4 -0.8
v 0.7 2.4 -1.1
v 0.9 2.3 -1.2
v 0.9 2.3 -1.4
v 0.9 2.4 -1.2
v 0.9 2.4 -1.4
v 1 2.3 -0.9
v 1 2.3 -1.1
v 1 2.4 -0.9
v 1 2.4 -1.1
v 1.2 2.3 -0.4
v 1.2 2.3 -0.7
v 1.2 2.3 -0.8
v 1.2 2.3 -1.1
v 1.2 2.3 -1.2
v 1.2 2.3 -1.3
v 1.2 2.4 -0.4
v 1.2 2.4 -0.7
v 1.2 2.4 -0.8
v 1.2 2.4 -1.1
v 1.2 2.4 -1.2
v 1.2 2.4 -1.3
v 2.4 -2.4 2.4
v 2.4 -2.4 -2.4
v 2.4 2.4 2.4
v 2.4 2.4 -2.4
v -2.4 -2.4 2.4
v -2.4 2.4 2.4
v 2.4 -2.4 2.4
v 2.4 2.4 2.4
v -1.5 2.3 -0.4
v -1.5 2.4 -0.4
v -1.4 2.3 -0.4
v -1.4 2.4 -0.4
v -1.3 2.3 -0.4
v -1.3 2.4 -0.4
v -1 2.3 -0.4
v -1 2.4 -0.4
v -0.9 2.3 -0.6
v -0.9 2.4 -0.6
v -0.6 2.3 -0.6
v -0.6 2.4 -0.6
v 0.8 2.3 -0.6
v 0.8 2.4 -0.6
v 1 2.3 -0.6
v 1 2.4 -0.6
v 1.3 2.3 -0.6
v 1.3 2.4 -0.6
v 1.4 2.3 -0.6
v 1.4 2.4 -0.6
v -1.4 2.3 -0.7
v -1.4 2.4 -0.7
v -1.3 2.3 -0.7
v -1.3 2.4 -0.7
v 0.6 2.3 -0.8
v 0.6 2.4 -0.8
v 0.7 2.3 -0.8
v 0.7 2.4 -0.8
v 0.8 2.3 -0.8
v 0.8 2.4 -0.8
v 1.2 2.3 -0.8
v 1.2 2.4 -0.8
v -1 2.3 -0.9
v -1 2.4 -0.9
v -0.9 2.3 -0.9
v -0.9 2.4 -0.9
v -2 2.3 -1.1
v -2 2.4 -1.1
v -1.7 2.3 -1.1
v -1.7 2.4 -1.1
v -1.5 2.3 -1.1
v -1.5 2.4 -1.1
v -1.2 2.3 -1.1
v -1.2 2.4 -1.1
v -1 2.3 -1.1
v -1 2.4 -1.1
v -0.6 2.3 -1.1
v -0.6 2.4 -1.1
v -2.2 2.3 -1.2
v -2.2 2.4 -1.2
v -2.1 2.3 -1.2
v -2.1 2.4 -1.2
v -1.6 2.3 -1.2
v -1.6 2.4 -1.2
v -1.5 2.3 -1.2
v -1.5 2.4 -1.2
v -1.2 2.3 -1.2
v -1.2 2.4 -1.2
v -1.1 2.3 -1.2
v -1.1 2.4 -1.2
v 0.6 2.3 -1.2
v 0.6 2.4 -1.2
v 0.9 2.3 -1.2
v 0.9 2.4 -1.2
v 1 2.3 -1.2
v 1 2.4 -1.2
v 1.2 2.3 -1.2
v 1.2 2.4 -1.2
v -2.1 2.3 -1.3
v -2.1 2.4 -1.3
v -2 2.3 -1.3
v -2 2.4 -1.3
v 1.2 2.3 -1.3
v 1.2 2.4 -1.3
v 1.3 2.3 -1.3
v 1.3 2.4 -1.3
v 0.9 2.3 -1.4
v 0.9 2.4 -1.4
v 1 2.3 -1.4
v 1 2.4 -1.4
v -1.6 2.3 -1.5
v -1.6 2.4 -1.5
v -0.9 2.3 -1.5
v -0.9 2.4 -1.5
v -0.8 2.3 -1.5
v -0.8 2.4 -1.5
v -0.6 2.3 -1.5
v -0.6 2.4 -1.5
v -0.6 2.3 -1.6
v -0.6 2.4 -1.6
v -0.5 2.3 -1.6
v -0.5 2.4 -1.6
v -1 2.3 -1.9
v -1 2.4 -1.9
v -0.6 2.3 -1.9
v -0.6 2.4 -1.9
v -2.1 2.3 -2.1
v -2.1 2.4 -2.1
v -1.7 2.3 -2.1
v -1.7 2.4 -2.1
v -1.6 2.3 -2.1
v -1.6 2.4 -2.1
v -1.4 2.3 -2.1
v -1.4 2.4 -2.1
v -1.7 2.3 -2.2
v -1.7 2.4 -2.2
v -1.6 2.3 -2.2
v -1.6 2.4 -2.2
v -1.5 2.3 0.0999999
v -1.5 2.4 0.0999999
v -1.4 2.3 0.0999999
v -1.4 2.4 0.0999999
v -1 2.3 -0.2
v -1 2.4 -0.2
v -0.9 2.3 -0.2
v -0.9 2.4 -0.2
v -1.4 2.3 -0.3
v -1.4 2.4 -0.3
v -1 2.3 -0.3
v -1 2.4 -0.3
v 1.2 2.3 -0.4
v 1.2 2.4 -0.4
v 1.3 2.3 -0.4
v 1.3 2.4 -0.4
v -0.9 2.3 -0.5
v -0.9 2.4 -0.5
v -0.6 2.3 -0.5
v -0.6 2.4 -0.5
v 0.6 2.3 -0.5
v 0.6 2.4 -0.5
v 1 2.3 -0.5
v 1 2.4 -0.5
v 1.3 2.3 -0.5
v 1.3 2.4 -0.5
v 1.4 2.3 -0.5
v 1.4 2.4 -0.5
v 0.8 2.3 -0.7
v 0.8 2.4 -0.7
v 1.2 2.3 -0.7
v 1.2 2.4 -0.7
v -1.7 2.3 -0.8
v -1.7 2.4 -0.8
v -1.6 2.3 -0.8
v -1.6 2.4 -0.8
v -1.2 2.3 -0.8
v -1.2 2.4 -0.8
v -1 2.3 -0.8
v -1 2.4 -0.8
v -0.9 2.3 -0.8
v -0.9 2.4 -0.8
v -0.8 2.3 -0.8
v -0.8 2.4 -0.8
v 1 2.3 -0.9
v 1 2.4 -0.9
v 1.1 2.3 -0.9
v 1.1 2.4 -0.9
v -2.1 2.3 -1
v -2.1 2.4 -1
v -1.7 2.3 -1
v -1.7 2.4 -1
v -1.6 2.3 -1
v -1.6 2.4 -1
v -1.2 2.3 -1
v -1.2 2.4 -1
v -1 2.3 -1
v -1 2.4 -1
v -0.9 2.3 -1
v -0.9 2.4 -1
v -0.8 2.3 -1
v -0.8 2.4 -1
v -0.5 2.3 -1
v -0.5 2.4 -1
v -2.2 2.3 -1.1
v -2.2 2.4 -1.1
v -2.1 2.3 -1.1
v -2.1 2.4 -1.1
v 0.6 2.3 -1.1
v 0.6 2.4 -1.1
v 0.7 2.3 -1.1
v 0.7 2.4 -1.1
v 0.8 2.3 -1.1
v 0.8 2.4 -1.1
v 1 2.3 -1.1
v 1 2.4 -1.1
v 1.1 2.3 -1.1
v 1.1 2.4 -1.1
v 1.2 2.3 -1.1
v 1.2 2.4 -1.1
v -1.6 2.3 -1.4
v -1.6 2.4 -1.4
v -1.1 2.3 -1.4
v -1.1 2.4 -1.4
v -1 2.3 -1.4
v -1 2.4 -1.4
v -0.6 2.3 -1.4
v -0.6 2.4 -1.4
v -1.9 2.3 -1.8
v -1.9 2.4 -1.8
v -1.8 2.3 -1.8
v -1.8 2.4 -1.8
v -1 2.3 -1.8
v -1 2.4 -1.8
v -0.9 2.3 -1.8
v -0.9 2.4 -1.8
v -0.8 2.3 -1.8
v -0.8 2.4 -1.8
v -0.6 2.3 -1.8
v -0.6 2.4 -1.8
v -2.1 2.3 -2
v -2.1 2.4 -2
v -1.9 2.3 -2
v -1.9 2.4 -2
v -1.8 2.3 -2
v -1.8 2.4 -2
v -1.7 2.3 -2
v -1.7 2.4 -2
v -1.6 2.3 -2
v -1.6 2.4 -2
v -1.4 2.3 -2
v -1.4 2.4 -2
v -2.4 -2.4 -2.4
v -2.4 2.4 -2.4
v 2.4 -2.4 -2.4
v 2.4 2.4 -2.4
v -2.4 -2.4 2.4
v 2.4 -2.4 2.4
v -2.4 -2.4 -2.4
v 2.4 -2.4 -2.4
v -1.5 2.3 0.0999999
v -1.4 2.3 0.0999999
v -1 2.3 -0.2
v -0.9 2.3 -0.2
v -1.4 2.3 -0.3
v -1 2.3 -0.3
v -1.5 2.3 -0.4
v -1.4 2.3 -0.4
v -1.3 2.3 -0.4
v -1 2.3 -0.4
v 1.2 2.3 -0.4
v 1.3 2.3 -0.4
v -0.9 2.3 -0.5
v -0.6 2.3 -0.5
v 0.6 2.3 -0.5
v 1 2.3 -0.5
v 1.3 2.3 -0.5
v 1.4 2.3 -0.5
v -0.9 2.3 -0.6
v -0.6 2.3 -0.6
v 0.8 2.3 -0.6
v 1 2.3 -0.6
v 1.3 2.3 -0.6
v 1.4 2.3 -0.6
v -1.4 2.3 -0.7
v -1.3 2.3 -0.7
v 0.8 2.3 -0.7
v 1.2 2.3 -0.7
v -1.7 2.3 -0.8
v -1.6 2.3 -0.8
v -1.2 2.3 -0.8
v -1 2.3 -0.8
v -0.9 2.3 -0.8
v -0.8 2.3 -0.8
v 0.6 2.3 -0.8
v 0.7 2.3 -0.8
v 0.8 2.3 -0.8
v 1.2 2.3 -0.8
v -1 2.3 -0.9
v -0.9 2.3 -0.9
v 1 2.3 -0.9
v 1.1 2.3 -0.9
v -2.1 2.3 -1
v -1.7 2.3 -1
v -1.6 2.3 -1
v -1.2 2.3 -1
v -1 2.3 -1
v -0.9 2.3 -1
v -0.8 2.3 -1
v -0.5 2.3 -1
v -2.2 2.3 -1.1
v -2.1 2.3 -1.1
v -2 2.3 -1.1
v -1.7 2.3 -1.1
v -1.5 2.3 -1.1
v -1.2 2.3 -1.1
v -1 2.3 -1.1
v -0.6 2.3 -1.1
v 0.6 2.3 -1.1
v 0.7 2.3 -1.1
v 0.8 2.3 -1.1
v 1 2.3 -1.1
v 1.1 2.3 -1.1
v 1.2 2.3 -1.1
v -2.2 2.3 -1.2
v -2.1 2.3 -1.2
v -1.6 2.3 -1.2
v -1.5 2.3 -1.2
v -1.2 2.3 -1.2
v -1.1 2.3 -1.2
v 0.6 2.3 -1.2
v 0.9 2.3 -1.2
v 1 2.3 -1.2
v 1.2 2.3 -1.2
v -2.1 2.3 -1.3
v -2 2.3 -1.3
v 1.2 2.3 -1.3
v 1.3 2.3 -1.3
v -1.6 2.3 -1.4
v -1.1 2.3 -1.4
v -1 2.3 -1.4
v -0.6 2.3 -1.4
v 0.9 2.3 -1.4
v 1 2.3 -1.4
v -1.6 2.3 -1.5
v -0.9 2.3 -1.5
v -0.8 2.3 -1.5
v -0.6 2.3 -1.5
v -0.6 2.3 -1.6
v -0.5 2.3 -1.6
v -1.9 2.3 -1.8
v -1.8 2.3 -1.8
v -1 2.3 -1.8
v -0.9 2.3 -1.8
v -0.8 2.3 -1.8
v -0.6 2.3 -1.8
v -1 2.3 -1.9
v -0.6 2.3 -1.9
v -2.1 2.3 -2
v -1.9 2.3 -2
v -1.8 2.3 -2
v -1.7 2.3 -2
v -1.6 2.3 -2
v -1.4 2.3 -2
v -2.1 2.3 -2.1
v -1.7 2.3 -2.1
v -1.6 2.3 -2.1
v -1.4 2.3 -2.1
v -1.7 2.3 -2.2
v -1.6 2.3 -2.2
v -2.4 2.4 2.4
v 2.4 2.4 2.4
v -1.5 2.4 0.0999999
v -1.4 2.4 0.0999999
v -1 2.4 -0.2
v -0.9 2.4 -0.2
v -1.4 2.4 -0.3
v -1 2.4 -0.3
v -1.5 2.4 -0.4
v -1.4 2.4 -0.4
v -1.3 2.4 -0.4
v -1 2.4 -0.4
v 1.2 2.4 -0.4
v 1.3 2.4 -0.4
v -0.9 2.4 -0.5
v -0.6 2.4 -0.5
v 0.6 2.4 -0.5
v 1 2.4 -0.5
v 1.3 2.4 -0.5
v 1.4 2.4 -0.5
v -0.9 2.4 -0.6
v -0.6 2.4 -0.6
v 0.8 2.4 -0.6
v 1 2.4 -0.6
v 1.3 2.4 -0.6
v 1.4 2.4 -0.6
v -1.4 2.4 -0.7
v -1.3 2.4 -0.7
v 0.8 2.4 -0.7
v 1.2 2.4 -0.7
v -1.7 2.4 -0.8
v -1.6 2.4 -0.8
v -1.2 2.4 -0.8
v -1 2.4 -0.8
v -0.9 2.4 -0.8
v -0.8 2.4 -0.8
v 0.6 2.4 -0.8
v 0.7 2.4 -0.8
v 0.8 2.4 -0.8
v 1.2 2.4 -0.8
v -1 2.4 -0.9
v -0.9 2.4 -0.9
v 1 2.4 -0.9
v 1.1 2.4 -0.9
v -2.1 2.4 -1
v -1.7 2.4 -1
v -1.6 2.4 -1
v -1.2 2.4 -1
v -1 2.4 -1
v -0.9 2.4 -1
v -0.8 2.4 -1
v -0.5 2.4 -1
v -2.2 2.4 -1.1
v -2.1 2.4 -1.1
v -2 2.4 -1.1
v -1.7 2.4 -1.1
v -1.5 2.4 -1.1
v -1.2 2.4 -1.1
v -1 2.4 -1.1
v -0.6 2.4 -1.1
v 0.6 2.4 -1.1
v 0.7 2.4 -1.1
v 0.8 2.4 -1.1
v 1 2.4 -1.1
v 1.1 2.4 -1.1
v 1.2 2.4 -1.1
v -2.2 2.4 -1.2
v -2.1 2.4 -1.2
v -1.6 2.4 -1.2
v -1.5 2.4 -1.2
v -1.2 2.4 -1.2
v -1.1 2.4 -1.2
v 0.6 2.4 -1.2
v 0.9 2.4 -1.2
v 1 2.4 -1.2
v 1.2 2.4 -1.2
v -2.1 2.4 -1.3
v -2 2.4 -1.3
v 1.2 2.4 -1.3
v 1.3 2.4 -1.3
v -1.6 2.4 -1.4
v -1.1 2.4 -1.4
v -1 2.4 -1.4
v -0.6 2.4 -1.4
v 0.9 2.4 -1.4
v 1 2.4 -1.4
v -1.6 2.4 -1.5
v -0.9 2.4 -1.5
v -0.8 2.4 -1.5
v -0.6 2.4 -1.5
v -0.6 2.4 -1.6
v -0.5 2.4 -1.6
v -1.9 2.4 -1.8
v -1.8 2.4 -1.8
v -1 2.4 -1.8
v -0.9 2.4 -1.8
v -0.8 2.4 -1.8
v -0.6 2.4 -1.8
v -1 2.4 -1.9
v -0.6 2.4 -1.9
v -2.1 2.4 -2
v -1.9 2.4 -2
v -1.8 2.4 -2
v -1.7 2.4 -2
v -1.6 2.4 -2
v -1.4 2.4 -2
v -2.1 2.4 -2.1
v -1.7 2.4 -2.1
v -1.6 2.4 -2.1
v -1.4 2.4 -2.1
v -1.7 2.4 -2.2
v -1.6 2.4 -2.2
v -2.4 2.4 -2.4
v 2.4 2.4 -2.4

# faces
f 3/1/1 2/1/1 1/1/1
f 4/1/1 2/1/1 3/1/1
f 7/1/1 6/1/1 5/1/1
f 8/1/1 6/1/1 7/1/1
f 11/1/1 10/1/1 9/1/1
f 12/1/1 10/1/1 11/1/1
f 21/1/1 14/1/1 13/1/1
f 22/1/1 14/1/1 21/1/1
f 23/1/1 16/1/1 15/1/1
f 24/1/1 16/1/1 23/1/1
f 25/1/1 18/1/1 17/1/1
f 26/1/1 18/1/1 25/1/1
f 27/1/1 20/1/1 19/1/1
f 28/1/1 20/1/1 27/1/1
f 31/1/1 30/1/1 29/1/1
f 32/1/1 30/1/1 31/1/1
f 37/1/1 34/1/1 33/1/1
f 38/1/1 34/1/1 37/1/1
f 39/1/1 36/1/1 35/1/1
f 40/1/1 36/1/1 39/1/1
f 43/1/1 42/1/1 41/1/1
f 44/1/1 42/1/1 43/1/1
f 49/1/1 46/1/1 45/1/1
f 50/1/1 46/1/1 49/1/1
f 51/1/1 48/1/1 47/1/1
f 52/1/1 48/1/1 51/1/1
f 57/1/1 54/1/1 53/1/1
f 58/1/1 54/1/1 57/1/1
f 59/1/1 56/1/1 55/1/1
f 60/1/1 56/1/1 59/1/1
f 65/1/1 62/1/1 61/1/1
f 66/1/1 62/1/1 65/1/1
f 67/1/1 64/1/1 63/1/1
f 68/1/1 64/1/1 67/1/1
f 73/1/1 70/1/1 69/1/1
f 74/1/1 70/1/1 73/1/1
f 75/1/1 72/1/1 71/1/1
f 76/1/1 72/1/1 75/1/1
f 79/1/1 78/1/1 77/1/1
f 80/1/1 78/1/1 79/1/1
f 85/1/1 82/1/1 81/1/1
f 86/1/1 82/1/1 85/1/1
f 87/1/1 84/1/1 83/1/1
f 88/1/1 84/1/1 87/1/1
f 93/1/1 90/1/1 89/1/1
f 94/1/1 90/1/1 93/1/1
f 95/1/1 92/1/1 91/1/1
f 96/1/1 92/1/1 95/1/1
f 99/1/1 98/1/1 97/1/1
f 100/1/1 98/1/1 99/1/1
f 105/1/1 102/1/1 101/1/1
f 106/1/1 102/1/1 105/1/1
f 107/1/1 104/1/1 103/1/1
f 108/1/1 104/1/1 107/1/1
f 111/1/1 110/1/1 109/1/1
f 112/1/1 110/1/1 111/1/1
f 113/1/2 114/1/2 115/1/2
f 115/1/2 114/1/2 116/1/2
f 117/1/2 118/1/2 123/1/2
f 123/1/2 118/1/2 124/1/2
f 119/1/2 120/1/2 125/1/2
f 125/1/2 120/1/2 126/1/2
f 121/1/2 122/1/2 127/1/2
f 127/1/2 122/1/2 128/1/2
f 129/1/2 130/1/2 131/1/2
f 131/1/2 130/1/2 132/1/2
f 133/1/2 134/1/2 139/1/2
f 139/1/2 134/1/2 140/1/2
f 135/1/2 136/1/2 141/1/2
f 141/1/2 136/1/2 142/1/2
f 137/1/2 138/1/2 143/1/2
f 143/1/2 138/1/2 144/1/2
f 145/1/2 146/1/2 147/1/2
f 147/1/2 146/1/2 148/1/2
f 149/1/2 150/1/2 151/1/2
f 151/1/2 150/1/2 152/1/2
f 153/1/2 154/1/2 157/1/2
f 157/1/2 154/1/2 158/1/2
f 155/1/2 156/1/2 159/1/2
f 159/1/2 156/1/2 160/1/2
f 161/1/2 162/1/2 163/1/2
f 163/1/2 162/1/2 164/1/2
f 165/1/2 166/1/2 171/1/2
f 171/1/2 166/1/2 172/1/2
f 167/1/2 168/1/2 173/1/2
f 173/1/2 168/1/2 174/1/2
f 169/1/2 170/1/2 175/1/2
f 175/1/2 170/1/2 176/1/2
f 177/1/2 178/1/2 181/1/2
f 181/1/2 178/1/2 182/1/2
f 179/1/2 180/1/2 183/1/2
f 183/1/2 180/1/2 184/1/2
f 185/1/2 186/1/2 189/1/2
f 189/1/2 186/1/2 190/1/2
f 187/1/2 188/1/2 191/1/2
f 191/1/2 188/1/2 192/1/2
f 193/1/2 194/1/2 197/1/2
f 197/1/2 194/1/2 198/1/2
f 195/1/2 196/1/2 199/1/2
f 199/1/2 196/1/2 200/1/2
f 201/1/2 202/1/2 203/1/2
f 203/1/2 202/1/2 204/1/2
f 205/1/2 206/1/2 207/1/2
f 207/1/2 206/1/2 208/1/2
f 209/1/2 210/1/2 211/1/2
f 211/1/2 210/1/2 212/1/2
f 213/1/2 214/1/2 219/1/2
f 219/1/2 214/1/2 220/1/2
f 215/1/2 216/1/2 221/1/2
f 221/1/2 216/1/2 222/1/2
f 217/1/2 218/1/2 223/1/2
f 223/1/2 218/1/2 224/1/2
f 225/1/2 226/1/2 227/1/2
f 227/1/2 226/1/2 228/1/2
f 231/1/3 230/1/3 229/1/3
f 232/1/3 230/1/3 231/1/3
f 235/1/3 234/1/3 233/1/3
f 236/1/3 234/1/3 235/1/3
f 239/1/3 238/1/3 237/1/3
f 240/1/3 238/1/3 239/1/3
f 243/1/3 242/1/3 241/1/3
f 244/1/3 242/1/3 243/1/3
f 247/1/3 246/1/3 245/1/3
f 248/1/3 246/1/3 247/1/3
f 251/1/3 250/1/3 249/1/3
f 252/1/3 250/1/3 251/1/3
f 255/1/3 254/1/3 253/1/3
f 256/1/3 254/1/3 255/1/3
f 259/1/3 258/1/3 257/1/3
f 260/1/3 258/1/3 259/1/3
f 263/1/3 262/1/3 261/1/3
f 264/1/3 262/1/3 263/1/3
f 267/1/3 266/1/3 265/1/3
f 268/1/3 266/1/3 267/1/3
f 271/1/3 270/1/3 269/1/3
f 272/1/3 270/1/3 271/1/3
f 275/1/3 274/1/3 273/1/3
f 276/1/3 274/1/3 275/1/3
f 279/1/3 278/1/3 277/1/3
f 280/1/3 278/1/3 279/1/3
f 283/1/3 282/1/3 281/1/3
f 284/1/3 282/1/3 283/1/3
f 287/1/3 286/1/3 285/1/3
f 288/1/3 286/1/3 287/1/3
f 291/1/3 290/1/3 289/1/3
f 292/1/3 290/1/3 291/1/3
f 295/1/3 294/1/3 293/1/3
f 296/1/3 294/1/3 295/1/3
f 299/1/3 298/1/3 297/1/3
f 300/1/3 298/1/3 299/1/3
f 303/1/3 302/1/3 301/1/3
f 304/1/3 302/1/3 303/1/3
f 307/1/3 306/1/3 305/1/3
f 308/1/3 306/1/3 307/1/3
f 311/1/3 310/1/3 309/1/3
f 312/1/3 310/1/3 311/1/3
f 315/1/3 314/1/3 313/1/3
f 316/1/3 314/1/3 315/1/3
f 319/1/3 318/1/3 317/1/3
f 320/1/3 318/1/3 319/1/3
f 323/1/3 322/1/3 321/1/3
f 324/1/3 322/1/3 323/1/3
f 327/1/3 326/1/3 325/1/3
f 328/1/3 326/1/3 327/1/3
f 331/1/3 330/1/3 329/1/3
f 332/1/3 330/1/3 331/1/3
f 335/1/3 334/1/3 333/1/3
f 336/1/3 334/1/3 335/1/3
f 339/1/3 338/1/3 337/1/3
f 340/1/3 338/1/3 339/1/3
f 341/1/4 342/1/4 343/1/4
f 343/1/4 342/1/4 344/1/4
f 345/1/4 346/1/4 347/1/4
f 347/1/4 346/1/4 348/1/4
f 349/1/4 350/1/4 351/1/4
f 351/1/4 350/1/4 352/1/4
f 353/1/4 354/1/4 355/1/4
f 355/1/4 354/1/4 356/1/4
f 357/1/4 358/1/4 359/1/4
f 359/1/4 358/1/4 360/1/4
f 361/1/4 362/1/4 363/1/4
f 363/1/4 362/1/4 364/1/4
f 365/1/4 366/1/4 367/1/4
f 367/1/4 366/1/4 368/1/4
f 369/1/4 370/1/4 371/1/4
f 371/1/4 370/1/4 372/1/4
f 373/1/4 374/1/4 375/1/4
f 375/1/4 374/1/4 376/1/4
f 377/1/4 378/1/4 379/1/4
f 379/1/4 378/1/4 380/1/4
f 381/1/4 382/1/4 383/1/4
f 383/1/4 382/1/4 384/1/4
f 385/1/4 386/1/4 387/1/4
f 387/1/4 386/1/4 388/1/4
f 389/1/4 390/1/4 391/1/4
f 391/1/4 390/1/4 392/1/4
f 393/1/4 394/1/4 395/1/4
f 395/1/4 394/1/4 396/1/4
f 397/1/4 398/1/4 399/1/4
f 399/1/4 398/1/4 400/1/4
f 401/1/4 402/1/4 403/1/4
f 403/1/4 402/1/4 404/1/4
f 405/1/4 406/1/4 407/1/4
f 407/1/4 406/1/4 408/1/4
f 409/1/4 410/1/4 411/1/4
f 411/1/4 410/1/4 412/1/4
f 413/1/4 414/1/4 415/1/4
f 415/1/4 414/1/4 416/1/4
f 417/1/4 418/1/4 419/1/4
f 419/1/4 418/1/4 420/1/4
f 421/1/4 422/1/4 423/1/4
f 423/1/4 422/1/4 424/1/4
f 425/1/4 426/1/4 427/1/4
f 427/1/4 426/1/4 428/1/4
f 429/1/4 430/1/4 431/1/4
f 431/1/4 430/1/4 432/1/4
f 433/1/4 434/1/4 435/1/4
f 435/1/4 434/1/4 436/1/4
f 437/1/4 438/1/4 439/1/4
f 439/1/4 438/1/4 440/1/4
f 441/1/4 442/1/4 443/1/4
f 443/1/4 442/1/4 444/1/4
f 445/1/4 446/1/4 447/1/4
f 447/1/4 446/1/4 448/1/4
f 449/1/4 450/1/4 451/1/4
f 451/1/4 450/1/4 452/1/4
f 453/1/4 454/1/4 455/1/4
f 455/1/4 454/1/4 456/1/4
f 459/1/5 458/1/5 457/1/5
f 460/1/5 458/1/5 459/1/5
f 461/2/6 462/2/6 465/2/6
f 463/2/6 464/2/6 466/2/6
f 461/2/6 465/2/6 467/2/6
f 465/2/6 466/2/6 467/2/6
f 467/2/6 466/2/6 468/2/6
f 468/2/6 466/2/6 469/2/6
f 466/2/6 464/2/6 470/2/6
f 469/2/6 466/2/6 470/2/6
f 470/2/6 464/2/6 473/2/6
f 471/2/6 472/2/6 477/2/6
f 470/2/6 473/2/6 479/2/6
f 473/2/6 474/2/6 479/2/6
f 479/2/6 474/2/6 480/2/6
f 475/2/6 476/2/6 481/2/6
f 481/2/6 476/2/6 482/2/6
f 477/2/6 478/2/6 483/2/6
f 471/2/6 477/2/6 483/2/6
f 483/2/6 478/2/6 484/2/6
f 468/2/6 469/2/6 485/2/6
f 485/2/6 469/2/6 486/2/6
f 475/2/6 481/2/6 487/2/6
f 471/2/6 483/2/6 488/2/6
f 470/2/6 479/2/6 492/2/6
f 492/2/6 479/2/6 493/2/6
f 475/2/6 487/2/6 495/2/6
f 487/2/6 488/2/6 495/2/6
f 495/2/6 488/2/6 496/2/6
f 496/2/6 488/2/6 497/2/6
f 488/2/6 483/2/6 498/2/6
f 497/2/6 488/2/6 498/2/6
f 493/2/6 494/2/6 499/2/6
f 492/2/6 493/2/6 499/2/6
f 491/2/6 492/2/6 499/2/6
f 499/2/6 494/2/6 500/2/6
f 489/2/6 490/2/6 504/2/6
f 504/2/6 490/2/6 505/2/6
f 491/2/6 499/2/6 506/2/6
f 506/2/6 499/2/6 507/2/6
f 500/2/6 494/2/6 508/2/6
f 508/2/6 494/2/6 509/2/6
f 506/2/6 507/2/6 512/2/6
f 509/2/6 510/2/6 512/2/6
f 508/2/6 509/2/6 512/2/6
f 507/2/6 508/2/6 512/2/6
f 504/2/6 505/2/6 512/2/6
f 505/2/6 506/2/6 512/2/6
f 503/2/6 504/2/6 512/2/6
f 512/2/6 510/2/6 513/2/6
f 513/2/6 510/2/6 514/2/6
f 514/2/6 510/2/6 515/2/6
f 515/2/6 510/2/6 516/2/6
f 516/2/6 510/2/6 517/2/6
f 517/2/6 510/2/6 518/2/6
f 496/2/6 497/2/6 520/2/6
f 520/2/6 497/2/6 521/2/6
f 501/2/6 502/2/6 522/2/6
f 522/2/6 502/2/6 523/2/6
f 498/2/6 483/2/6 524/2/6
f 511/2/6 512/2/6 525/2/6
f 512/2/6 513/2/6 525/2/6
f 525/2/6 513/2/6 526/2/6
f 514/2/6 515/2/6 527/2/6
f 527/2/6 515/2/6 528/2/6
f 516/2/6 517/2/6 529/2/6
f 529/2/6 517/2/6 530/2/6
f 522/2/6 523/2/6 531/2/6
f 520/2/6 521/2/6 531/2/6
f 523/2/6 524/2/6 531/2/6
f 521/2/6 522/2/6 531/2/6
f 519/2/6 520/2/6 531/2/6
f 531/2/6 524/2/6 532/2/6
f 532/2/6 524/2/6 533/2/6
f 524/2/6 483/2/6 534/2/6
f 533/2/6 524/2/6 534/2/6
f 526/2/6 513/2/6 535/2/6
f 535/2/6 513/2/6 536/2/6
f 534/2/6 483/2/6 537/2/6
f 537/2/6 483/2/6 538/2/6
f 514/2/6 527/2/6 539/2/6
f 530/2/6 517/2/6 540/2/6
f 540/2/6 517/2/6 541/2/6
f 518/2/6 510/2/6 542/2/6
f 532/2/6 533/2/6 543/2/6
f 543/2/6 533/2/6 544/2/6
f 514/2/6 539/2/6 545/2/6
f 540/2/6 541/2/6 545/2/6
f 541/2/6 542/2/6 545/2/6
f 539/2/6 540/2/6 545/2/6
f 545/2/6 542/2/6 546/2/6
f 546/2/6 542/2/6 547/2/6
f 542/2/6 510/2/6 548/2/6
f 547/2/6 542/2/6 548/2/6
f 548/2/6 510/2/6 549/2/6
f 549/2/6 510/2/6 550/2/6
f 546/2/6 547/2/6 554/2/6
f 554/2/6 547/2/6 555/2/6
f 553/2/6 554/2/6 557/2/6
f 555/2/6 556/2/6 557/2/6
f 554/2/6 555/2/6 557/2/6
f 557/2/6 556/2/6 558/2/6
f 551/2/6 552/2/6 560/2/6
f 560/2/6 552/2/6 561/2/6
f 514/2/6 545/2/6 562/2/6
f 562/2/6 545/2/6 563/2/6
f 560/2/6 561/2/6 565/2/6
f 563/2/6 564/2/6 565/2/6
f 562/2/6 563/2/6 565/2/6
f 561/2/6 562/2/6 565/2/6
f 559/2/6 560/2/6 565/2/6
f 565/2/6 564/2/6 566/2/6
f 566/2/6 564/2/6 567/2/6
f 567/2/6 564/2/6 568/2/6
f 566/2/6 567/2/6 569/2/6
f 569/2/6 567/2/6 570/2/6
f 571/1/6 572/1/6 573/1/6
f 573/1/6 572/1/6 574/1/6
f 574/1/6 572/1/6 575/1/6
f 575/1/6 572/1/6 576/1/6
f 574/1/6 575/1/6 577/1/6
f 577/1/6 575/1/6 578/1/6
f 571/1/6 573/1/6 579/1/6
f 576/1/6 572/1/6 583/1/6
f 583/1/6 572/1/6 584/1/6
f 576/1/6 583/1/6 585/1/6
f 585/1/6 583/1/6 586/1/6
f 586/1/6 583/1/6 587/1/6
f 587/1/6 583/1/6 588/1/6
f 584/1/6 572/1/6 589/1/6
f 589/1/6 572/1/6 590/1/6
f 586/1/6 587/1/6 592/1/6
f 588/1/6 583/1/6 594/1/6
f 590/1/6 572/1/6 596/1/6
f 579/1/6 580/1/6 597/1/6
f 581/1/6 582/1/6 598/1/6
f 593/1/6 594/1/6 599/1/6
f 594/1/6 583/1/6 600/1/6
f 599/1/6 594/1/6 600/1/6
f 579/1/6 597/1/6 601/1/6
f 571/1/6 579/1/6 601/1/6
f 597/1/6 598/1/6 601/1/6
f 601/1/6 598/1/6 602/1/6
f 598/1/6 582/1/6 603/1/6
f 602/1/6 598/1/6 603/1/6
f 603/1/6 582/1/6 604/1/6
f 591/1/6 592/1/6 605/1/6
f 605/1/6 592/1/6 606/1/6
f 592/1/6 587/1/6 607/1/6
f 606/1/6 592/1/6 607/1/6
f 609/1/6 610/1/6 613/1/6
f 613/1/6 610/1/6 614/1/6
f 571/1/6 601/1/6 615/1/6
f 615/1/6 601/1/6 616/1/6
f 602/1/6 603/1/6 617/1/6
f 617/1/6 603/1/6 618/1/6
f 611/1/6 612/1/6 619/1/6
f 619/1/6 612/1/6 620/1/6
f 607/1/6 608/1/6 621/1/6
f 606/1/6 607/1/6 621/1/6
f 621/1/6 608/1/6 622/1/6
f 571/1/6 615/1/6 623/1/6
f 623/1/6 615/1/6 624/1/6
f 622/1/6 608/1/6 631/1/6
f 631/1/6 608/1/6 632/1/6
f 609/1/6 613/1/6 633/1/6
f 633/1/6 613/1/6 634/1/6
f 614/1/6 610/1/6 635/1/6
f 635/1/6 610/1/6 636/1/6
f 571/1/6 623/1/6 637/1/6
f 627/1/6 628/1/6 640/1/6
f 640/1/6 628/1/6 641/1/6
f 622/1/6 631/1/6 643/1/6
f 637/1/6 638/1/6 647/1/6
f 625/1/6 626/1/6 648/1/6
f 645/1/6 646/1/6 649/1/6
f 595/1/6 596/1/6 650/1/6
f 641/1/6 642/1/6 651/1/6
f 639/1/6 640/1/6 651/1/6
f 640/1/6 641/1/6 651/1/6
f 651/1/6 642/1/6 652/1/6
f 629/1/6 630/1/6 653/1/6
f 653/1/6 630/1/6 654/1/6
f 643/1/6 644/1/6 655/1/6
f 645/1/6 649/1/6 656/1/6
f 649/1/6 650/1/6 656/1/6
f 659/1/6 660/1/6 661/1/6
f 643/1/6 655/1/6 662/1/6
f 655/1/6 656/1/6 662/1/6
f 622/1/6 643/1/6 662/1/6
f 648/1/6 626/1/6 663/1/6
f 647/1/6 648/1/6 663/1/6
f 663/1/6 626/1/6 664/1/6
f 657/1/6 658/1/6 665/1/6
f 665/1/6 658/1/6 666/1/6
f 659/1/6 661/1/6 667/1/6
f 661/1/6 662/1/6 667/1/6
f 667/1/6 662/1/6 668/1/6
f 657/1/6 665/1/6 669/1/6
f 668/1/6 662/1/6 670/1/6
f 637/1/6 647/1/6 671/1/6
f 647/1/6 663/1/6 671/1/6
f 671/1/6 663/1/6 672/1/6
f 664/1/6 626/1/6 673/1/6
f 673/1/6 626/1/6 674/1/6
f 657/1/6 669/1/6 675/1/6
f 669/1/6 670/1/6 675/1/6
f 675/1/6 670/1/6 676/1/6
f 637/1/6 671/1/6 677/1/6
f 676/1/6 670/1/6 680/1/6
f 677/1/6 678/1/6 681/1/6
f 679/1/6 680/1/6 682/1/6
f 677/1/6 681/1/6 683/1/6
f 681/1/6 682/1/6 683/1/6
f 571/1/6 637/1/6 683/1/6
f 637/1/6 677/1/6 683/1/6
f 682/1/6 680/1/6 684/1/6
f 683/1/6 682/1/6 684/1/6
f 596/1/6 572/1/6 684/1/6
f 662/1/6 656/1/6 684/1/6
f 680/1/6 670/1/6 684/1/6
f 650/1/6 596/1/6 684/1/6
f 670/1/6 662/1/6 684/1/6
f 656/1/6 650/1/6 684/1/6
