# MagicaVoxel @ Ephtracy

# group
o 

# material
mtllib oceanBottomInnerCorner-0.mtl
usemtl palette

# normals
vn -1 0 0
vn 1 0 0
vn 0 0 1
vn 0 0 -1
vn 0 -1 0
vn 0 1 0

# texcoords
vt 0.447266 0.5
vt 0.986328 0.5

# verts
v -2.4 -2.4 2.4
v -2.4 -2.4 -2.4
v -2.4 0.2 2.4
v -2.4 0.2 -1
v -2.4 0.2 -2.4
v -2.4 1.8 2.4
v -2.4 1.8 -1
v -1.3 0.2 -1.8
v -1.3 0.2 -2.4
v -1.3 1.8 -1.8
v -1.3 1.8 -2.4
v -0.2 0.2 -0.2
v -0.2 0.2 -1.5
v -0.2 1.8 -0.2
v -0.2 1.8 -1.5
v 0.7 0.2 -1.5
v 0.7 0.2 -2.4
v 0.7 1.8 -1.5
v 0.7 1.8 -2.4
v -1.8 0.2 -0.2
v -1.8 0.2 -1
v -1.8 1.8 -0.2
v -1.8 1.8 -1
v -0.9 0.2 -1.8
v -0.9 0.2 -2.4
v -0.9 1.8 -1.8
v -0.9 1.8 -2.4
v 2.4 -2.4 2.4
v 2.4 -2.4 -2.4
v 2.4 0.2 2.4
v 2.4 0.2 -2.4
v 2.4 1.8 2.4
v 2.4 1.8 -2.4
v -2.4 -2.4 2.4
v -2.4 0.2 2.4
v -2.4 1.8 2.4
v 2.4 -2.4 2.4
v 2.4 0.2 2.4
v 2.4 1.8 2.4
v -1.3 0.2 -1.8
v -1.3 1.8 -1.8
v -0.9 0.2 -1.8
v -0.9 1.8 -1.8
v -1.8 0.2 -0.2
v -1.8 1.8 -0.2
v -0.2 0.2 -0.2
v -0.2 1.8 -0.2
v -2.4 0.2 -1
v -2.4 1.8 -1
v -1.8 0.2 -1
v -1.8 1.8 -1
v -0.2 0.2 -1.5
v -0.2 1.8 -1.5
v 0.7 0.2 -1.5
v 0.7 1.8 -1.5
v -2.4 -2.4 -2.4
v -2.4 0.2 -2.4
v -1.3 0.2 -2.4
v -1.3 1.8 -2.4
v -0.9 0.2 -2.4
v -0.9 1.8 -2.4
v 0.7 0.2 -2.4
v 0.7 1.8 -2.4
v 2.4 -2.4 -2.4
v 2.4 0.2 -2.4
v 2.4 1.8 -2.4
v -2.4 -2.4 2.4
v 2.4 -2.4 2.4
v -2.4 -2.4 -2.4
v 2.4 -2.4 -2.4
v -1.8 0.2 -0.2
v -0.2 0.2 -0.2
v -2.4 0.2 -1
v -1.8 0.2 -1
v -0.2 0.2 -1.5
v 0.7 0.2 -1.5
v -1.3 0.2 -1.8
v -0.9 0.2 -1.8
v -2.4 0.2 -2.4
v -1.3 0.2 -2.4
v -0.9 0.2 -2.4
v 0.7 0.2 -2.4
v -2.4 1.8 2.4
v 2.4 1.8 2.4
v -1.8 1.8 -0.2
v -0.2 1.8 -0.2
v -2.4 1.8 -1
v -1.8 1.8 -1
v -0.2 1.8 -1.5
v 0.7 1.8 -1.5
v -1.3 1.8 -1.8
v -0.9 1.8 -1.8
v -1.3 1.8 -2.4
v -0.9 1.8 -2.4
v 0.7 1.8 -2.4
v 2.4 1.8 -2.4

# faces
f 3/2/1 2/2/1 1/2/1
f 4/2/1 2/2/1 3/2/1
f 5/2/1 2/2/1 4/2/1
f 6/1/1 4/1/1 3/1/1
f 7/1/1 4/1/1 6/1/1
f 10/1/1 9/1/1 8/1/1
f 11/1/1 9/1/1 10/1/1
f 14/1/1 13/1/1 12/1/1
f 15/1/1 13/1/1 14/1/1
f 18/1/1 17/1/1 16/1/1
f 19/1/1 17/1/1 18/1/1
f 20/1/2 21/1/2 22/1/2
f 22/1/2 21/1/2 23/1/2
f 24/1/2 25/1/2 26/1/2
f 26/1/2 25/1/2 27/1/2
f 28/2/2 29/2/2 30/2/2
f 30/2/2 29/2/2 31/2/2
f 30/1/2 31/1/2 32/1/2
f 32/1/2 31/1/2 33/1/2
f 37/2/3 35/2/3 34/2/3
f 38/1/3 36/1/3 35/1/3
f 38/2/3 35/2/3 37/2/3
f 39/1/3 36/1/3 38/1/3
f 42/1/3 41/1/3 40/1/3
f 43/1/3 41/1/3 42/1/3
f 44/1/4 45/1/4 46/1/4
f 46/1/4 45/1/4 47/1/4
f 48/1/4 49/1/4 50/1/4
f 50/1/4 49/1/4 51/1/4
f 52/1/4 53/1/4 54/1/4
f 54/1/4 53/1/4 55/1/4
f 56/2/4 57/2/4 58/2/4
f 56/2/4 58/2/4 60/2/4
f 58/1/4 59/1/4 60/1/4
f 60/1/4 59/1/4 61/1/4
f 56/2/4 60/2/4 62/2/4
f 56/2/4 62/2/4 64/2/4
f 62/1/4 63/1/4 65/1/4
f 64/2/4 62/2/4 65/2/4
f 65/1/4 63/1/4 66/1/4
f 69/2/5 68/2/5 67/2/5
f 70/2/5 68/2/5 69/2/5
f 71/2/6 72/2/6 74/2/6
f 74/2/6 72/2/6 75/2/6
f 73/2/6 74/2/6 75/2/6
f 73/2/6 75/2/6 77/2/6
f 75/2/6 76/2/6 77/2/6
f 77/2/6 76/2/6 78/2/6
f 73/2/6 77/2/6 79/2/6
f 79/2/6 77/2/6 80/2/6
f 78/2/6 76/2/6 81/2/6
f 81/2/6 76/2/6 82/2/6
f 83/1/6 84/1/6 85/1/6
f 85/1/6 84/1/6 86/1/6
f 83/1/6 85/1/6 87/1/6
f 87/1/6 85/1/6 88/1/6
f 86/1/6 84/1/6 89/1/6
f 89/1/6 84/1/6 90/1/6
f 91/1/6 92/1/6 93/1/6
f 93/1/6 92/1/6 94/1/6
f 90/1/6 84/1/6 95/1/6
f 95/1/6 84/1/6 96/1/6
