# MagicaVoxel @ Ephtracy

# group
o 

# material
mtllib stoneWallLedge-0.mtl
usemtl palette

# normals
vn -1 0 0
vn 1 0 0
vn 0 0 1
vn 0 0 -1
vn 0 -1 0
vn 0 1 0

# texcoords
vt 0.919922 0.5
vt 0.935547 0.5
vt 0.966797 0.5

# verts
v 1.6 -2.4 -1.6
v 1.6 -2.4 -2.4
v 1.6 -1.9 -1.6
v 1.6 -1.9 -2.4
v 1.6 -1.8 -1.6
v 1.6 -1.8 -2.4
v 1.6 -1.3 -1.6
v 1.6 -1.3 -2.4
v 1.6 -1.2 -1.6
v 1.6 -1.2 -2.4
v 1.6 -0.7 -1.6
v 1.6 -0.7 -2.4
v 1.6 -0.6 -1.6
v 1.6 -0.6 -2.4
v 1.6 -0.0999999 -1.6
v 1.6 -0.0999999 -2.4
v 1.6 0 -1.6
v 1.6 0 -2.4
v 1.6 0.5 -1.6
v 1.6 0.5 -2.4
v 1.6 0.6 -1.6
v 1.6 0.6 -2.4
v 1.6 1.1 -1.6
v 1.6 1.1 -2.4
v 1.6 1.2 -1.6
v 1.6 1.2 -2.4
v 1.6 1.7 -1.6
v 1.6 1.7 -2.4
v 1.6 1.8 -1.6
v 1.6 1.8 -2.4
v 1.6 2.3 -1.6
v 1.6 2.3 -2.4
v 1.7 -1.9 -1.7
v 1.7 -1.9 -2.3
v 1.7 -1.8 -1.7
v 1.7 -1.8 -2.3
v 1.7 -1.3 -1.7
v 1.7 -1.3 -2.3
v 1.7 -1.2 -1.7
v 1.7 -1.2 -2.3
v 1.7 -0.7 -1.7
v 1.7 -0.7 -2.3
v 1.7 -0.6 -1.7
v 1.7 -0.6 -2.3
v 1.7 -0.0999999 -1.7
v 1.7 -0.0999999 -2.3
v 1.7 0 -1.7
v 1.7 0 -2.3
v 1.7 0.5 -1.7
v 1.7 0.5 -2.3
v 1.7 0.6 -1.7
v 1.7 0.6 -2.3
v 1.7 1.1 -1.7
v 1.7 1.1 -2.3
v 1.7 1.2 -1.7
v 1.7 1.2 -2.3
v 1.7 2.3 -1.7
v 1.7 2.3 -2.3
v 1.7 2.4 -1.7
v 1.7 2.4 -2.3
v 1.8 1.7 -1.7
v 1.8 1.7 -2.3
v 1.8 1.8 -1.7
v 1.8 1.8 -2.3
v 1.9 0.6 -1.6
v 1.9 0.6 -1.7
v 1.9 0.6 -2.3
v 1.9 0.6 -2.4
v 1.9 1.1 -1.6
v 1.9 1.1 -1.7
v 1.9 1.1 -2.3
v 1.9 1.1 -2.4
v 1.9 1.8 -1.6
v 1.9 1.8 -1.7
v 1.9 1.8 -2.3
v 1.9 1.8 -2.4
v 1.9 2.3 -1.6
v 1.9 2.3 -1.7
v 1.9 2.3 -2.3
v 1.9 2.3 -2.4
v 2 -0.6 -1.6
v 2 -0.6 -1.7
v 2 -0.6 -2.3
v 2 -0.6 -2.4
v 2 -0.0999999 -1.6
v 2 -0.0999999 -1.7
v 2 -0.0999999 -2.3
v 2 -0.0999999 -2.4
v 2.1 1.2 -1.6
v 2.1 1.2 -1.7
v 2.1 1.2 -2.3
v 2.1 1.2 -2.4
v 2.1 1.7 -1.6
v 2.1 1.7 -1.7
v 2.1 1.7 -2.3
v 2.1 1.7 -2.4
v 1.8 0.6 -1.6
v 1.8 0.6 -1.7
v 1.8 0.6 -2.3
v 1.8 0.6 -2.4
v 1.8 1.1 -1.6
v 1.8 1.1 -1.7
v 1.8 1.1 -2.3
v 1.8 1.1 -2.4
v 1.8 1.8 -1.6
v 1.8 1.8 -1.7
v 1.8 1.8 -2.3
v 1.8 1.8 -2.4
v 1.8 2.3 -1.6
v 1.8 2.3 -1.7
v 1.8 2.3 -2.3
v 1.8 2.3 -2.4
v 1.9 -0.6 -1.6
v 1.9 -0.6 -1.7
v 1.9 -0.6 -2.3
v 1.9 -0.6 -2.4
v 1.9 -0.0999999 -1.6
v 1.9 -0.0999999 -1.7
v 1.9 -0.0999999 -2.3
v 1.9 -0.0999999 -2.4
v 2 1.2 -1.6
v 2 1.2 -1.7
v 2 1.2 -2.3
v 2 1.2 -2.4
v 2 1.7 -1.6
v 2 1.7 -1.7
v 2 1.7 -2.3
v 2 1.7 -2.4
v 2.3 -2.4 -1.6
v 2.3 -2.4 -1.7
v 2.3 -2.4 -2.3
v 2.3 -2.4 -2.4
v 2.3 -1.9 -1.6
v 2.3 -1.9 -1.7
v 2.3 -1.9 -2.3
v 2.3 -1.9 -2.4
v 2.3 0 -1.6
v 2.3 0 -1.7
v 2.3 0 -2.3
v 2.3 0 -2.4
v 2.3 0.5 -1.6
v 2.3 0.5 -1.7
v 2.3 0.5 -2.3
v 2.3 0.5 -2.4
v 2.4 -2.4 -1.7
v 2.4 -2.4 -2.3
v 2.4 -1.8 -1.6
v 2.4 -1.8 -1.7
v 2.4 -1.8 -2.3
v 2.4 -1.8 -2.4
v 2.4 -1.3 -1.6
v 2.4 -1.3 -1.7
v 2.4 -1.3 -2.3
v 2.4 -1.3 -2.4
v 2.4 -1.2 -1.6
v 2.4 -1.2 -1.7
v 2.4 -1.2 -2.3
v 2.4 -1.2 -2.4
v 2.4 -0.7 -1.6
v 2.4 -0.7 -1.7
v 2.4 -0.7 -2.3
v 2.4 -0.7 -2.4
v 2.4 -0.6 -1.6
v 2.4 -0.6 -1.7
v 2.4 -0.6 -2.3
v 2.4 -0.6 -2.4
v 2.4 -0.0999999 -1.6
v 2.4 -0.0999999 -1.7
v 2.4 -0.0999999 -2.3
v 2.4 -0.0999999 -2.4
v 2.4 0.6 -1.6
v 2.4 0.6 -1.7
v 2.4 0.6 -2.3
v 2.4 0.6 -2.4
v 2.4 1.1 -1.6
v 2.4 1.1 -1.7
v 2.4 1.1 -2.3
v 2.4 1.1 -2.4
v 2.4 1.2 -1.6
v 2.4 1.2 -1.7
v 2.4 1.2 -2.3
v 2.4 1.2 -2.4
v 2.4 1.7 -1.6
v 2.4 1.7 -1.7
v 2.4 1.7 -2.3
v 2.4 1.7 -2.4
v 2.4 1.8 -1.6
v 2.4 1.8 -1.7
v 2.4 1.8 -2.3
v 2.4 1.8 -2.4
v 2.4 2.3 -1.6
v 2.4 2.3 -1.7
v 2.4 2.3 -2.3
v 2.4 2.3 -2.4
v 2.4 2.4 -1.7
v 2.4 2.4 -2.3
v 1.6 -2.4 -1.6
v 1.6 -1.9 -1.6
v 1.6 -1.8 -1.6
v 1.6 -1.3 -1.6
v 1.6 -1.2 -1.6
v 1.6 -0.7 -1.6
v 1.6 -0.6 -1.6
v 1.6 -0.0999999 -1.6
v 1.6 0 -1.6
v 1.6 0.5 -1.6
v 1.6 0.6 -1.6
v 1.6 1.1 -1.6
v 1.6 1.2 -1.6
v 1.6 1.7 -1.6
v 1.6 1.8 -1.6
v 1.6 2.3 -1.6
v 1.7 -2.4 -1.6
v 1.7 -1.9 -1.6
v 1.7 -1.8 -1.6
v 1.7 -1.3 -1.6
v 1.7 -1.2 -1.6
v 1.7 -0.7 -1.6
v 1.7 -0.6 -1.6
v 1.7 -0.0999999 -1.6
v 1.7 0 -1.6
v 1.7 0.5 -1.6
v 1.7 0.6 -1.6
v 1.7 1.1 -1.6
v 1.7 1.2 -1.6
v 1.7 1.7 -1.6
v 1.7 1.8 -1.6
v 1.7 2.3 -1.6
v 1.8 0.6 -1.6
v 1.8 1.1 -1.6
v 1.8 1.8 -1.6
v 1.8 2.3 -1.6
v 1.9 -0.6 -1.6
v 1.9 -0.0999999 -1.6
v 1.9 0.6 -1.6
v 1.9 1.1 -1.6
v 1.9 1.8 -1.6
v 1.9 2.3 -1.6
v 2 -0.6 -1.6
v 2 -0.0999999 -1.6
v 2 1.2 -1.6
v 2 1.7 -1.6
v 2.1 1.2 -1.6
v 2.1 1.7 -1.6
v 2.3 -2.4 -1.6
v 2.3 -1.9 -1.6
v 2.3 0 -1.6
v 2.3 0.5 -1.6
v 2.4 -1.8 -1.6
v 2.4 -1.3 -1.6
v 2.4 -1.2 -1.6
v 2.4 -0.7 -1.6
v 2.4 -0.6 -1.6
v 2.4 -0.0999999 -1.6
v 2.4 0.6 -1.6
v 2.4 1.1 -1.6
v 2.4 1.2 -1.6
v 2.4 1.7 -1.6
v 2.4 1.8 -1.6
v 2.4 2.3 -1.6
v 1.7 -1.9 -1.7
v 1.7 -1.8 -1.7
v 1.7 -1.3 -1.7
v 1.7 -1.2 -1.7
v 1.7 -0.7 -1.7
v 1.7 -0.6 -1.7
v 1.7 -0.0999999 -1.7
v 1.7 0 -1.7
v 1.7 0.5 -1.7
v 1.7 0.6 -1.7
v 1.7 1.1 -1.7
v 1.7 1.2 -1.7
v 1.7 2.3 -1.7
v 1.7 2.4 -1.7
v 1.8 0.6 -1.7
v 1.8 1.1 -1.7
v 1.8 1.7 -1.7
v 1.8 1.8 -1.7
v 1.8 2.3 -1.7
v 1.9 -0.6 -1.7
v 1.9 -0.0999999 -1.7
v 1.9 0.6 -1.7
v 1.9 1.1 -1.7
v 1.9 1.8 -1.7
v 1.9 2.3 -1.7
v 2 -0.6 -1.7
v 2 -0.0999999 -1.7
v 2 1.2 -1.7
v 2 1.7 -1.7
v 2.1 1.2 -1.7
v 2.1 1.7 -1.7
v 2.3 -2.4 -1.7
v 2.3 -1.9 -1.7
v 2.3 0 -1.7
v 2.3 0.5 -1.7
v 2.4 -2.4 -1.7
v 2.4 -1.8 -1.7
v 2.4 -1.3 -1.7
v 2.4 -1.2 -1.7
v 2.4 -0.7 -1.7
v 2.4 -0.6 -1.7
v 2.4 -0.0999999 -1.7
v 2.4 0.6 -1.7
v 2.4 1.1 -1.7
v 2.4 1.2 -1.7
v 2.4 1.7 -1.7
v 2.4 1.8 -1.7
v 2.4 2.3 -1.7
v 2.4 2.4 -1.7
v 1.7 -1.9 -2.3
v 1.7 -1.8 -2.3
v 1.7 -1.3 -2.3
v 1.7 -1.2 -2.3
v 1.7 -0.7 -2.3
v 1.7 -0.6 -2.3
v 1.7 -0.0999999 -2.3
v 1.7 0 -2.3
v 1.7 0.5 -2.3
v 1.7 0.6 -2.3
v 1.7 1.1 -2.3
v 1.7 1.2 -2.3
v 1.7 2.3 -2.3
v 1.7 2.4 -2.3
v 1.8 0.6 -2.3
v 1.8 1.1 -2.3
v 1.8 1.7 -2.3
v 1.8 1.8 -2.3
v 1.8 2.3 -2.3
v 1.9 -0.6 -2.3
v 1.9 -0.0999999 -2.3
v 1.9 0.6 -2.3
v 1.9 1.1 -2.3
v 1.9 1.8 -2.3
v 1.9 2.3 -2.3
v 2 -0.6 -2.3
v 2 -0.0999999 -2.3
v 2 1.2 -2.3
v 2 1.7 -2.3
v 2.1 1.2 -2.3
v 2.1 1.7 -2.3
v 2.3 -2.4 -2.3
v 2.3 -1.9 -2.3
v 2.3 0 -2.3
v 2.3 0.5 -2.3
v 2.4 -2.4 -2.3
v 2.4 -1.8 -2.3
v 2.4 -1.3 -2.3
v 2.4 -1.2 -2.3
v 2.4 -0.7 -2.3
v 2.4 -0.6 -2.3
v 2.4 -0.0999999 -2.3
v 2.4 0.6 -2.3
v 2.4 1.1 -2.3
v 2.4 1.2 -2.3
v 2.4 1.7 -2.3
v 2.4 1.8 -2.3
v 2.4 2.3 -2.3
v 2.4 2.4 -2.3
v 1.6 -2.4 -2.4
v 1.6 -1.9 -2.4
v 1.6 -1.8 -2.4
v 1.6 -1.3 -2.4
v 1.6 -1.2 -2.4
v 1.6 -0.7 -2.4
v 1.6 -0.6 -2.4
v 1.6 -0.0999999 -2.4
v 1.6 0 -2.4
v 1.6 0.5 -2.4
v 1.6 0.6 -2.4
v 1.6 1.1 -2.4
v 1.6 1.2 -2.4
v 1.6 1.7 -2.4
v 1.6 1.8 -2.4
v 1.6 2.3 -2.4
v 1.7 -2.4 -2.4
v 1.7 -1.9 -2.4
v 1.7 -1.8 -2.4
v 1.7 -1.3 -2.4
v 1.7 -1.2 -2.4
v 1.7 -0.7 -2.4
v 1.7 -0.6 -2.4
v 1.7 -0.0999999 -2.4
v 1.7 0 -2.4
v 1.7 0.5 -2.4
v 1.7 0.6 -2.4
v 1.7 1.1 -2.4
v 1.7 1.2 -2.4
v 1.7 1.7 -2.4
v 1.7 1.8 -2.4
v 1.7 2.3 -2.4
v 1.8 0.6 -2.4
v 1.8 1.1 -2.4
v 1.8 1.8 -2.4
v 1.8 2.3 -2.4
v 1.9 -0.6 -2.4
v 1.9 -0.0999999 -2.4
v 1.9 0.6 -2.4
v 1.9 1.1 -2.4
v 1.9 1.8 -2.4
v 1.9 2.3 -2.4
v 2 -0.6 -2.4
v 2 -0.0999999 -2.4
v 2 1.2 -2.4
v 2 1.7 -2.4
v 2.1 1.2 -2.4
v 2.1 1.7 -2.4
v 2.3 -2.4 -2.4
v 2.3 -1.9 -2.4
v 2.3 0 -2.4
v 2.3 0.5 -2.4
v 2.4 -1.8 -2.4
v 2.4 -1.3 -2.4
v 2.4 -1.2 -2.4
v 2.4 -0.7 -2.4
v 2.4 -0.6 -2.4
v 2.4 -0.0999999 -2.4
v 2.4 0.6 -2.4
v 2.4 1.1 -2.4
v 2.4 1.2 -2.4
v 2.4 1.7 -2.4
v 2.4 1.8 -2.4
v 2.4 2.3 -2.4
v 1.6 -2.4 -1.6
v 1.7 -2.4 -1.6
v 2.3 -2.4 -1.6
v 2.3 -2.4 -1.7
v 2.4 -2.4 -1.7
v 2.3 -2.4 -2.3
v 2.4 -2.4 -2.3
v 1.6 -2.4 -2.4
v 1.7 -2.4 -2.4
v 2.3 -2.4 -2.4
v 1.6 -1.8 -1.6
v 1.7 -1.8 -1.6
v 2.4 -1.8 -1.6
v 1.7 -1.8 -1.7
v 2.4 -1.8 -1.7
v 1.7 -1.8 -2.3
v 2.4 -1.8 -2.3
v 1.6 -1.8 -2.4
v 1.7 -1.8 -2.4
v 2.4 -1.8 -2.4
v 1.6 -1.2 -1.6
v 1.7 -1.2 -1.6
v 2.4 -1.2 -1.6
v 1.7 -1.2 -1.7
v 2.4 -1.2 -1.7
v 1.7 -1.2 -2.3
v 2.4 -1.2 -2.3
v 1.6 -1.2 -2.4
v 1.7 -1.2 -2.4
v 2.4 -1.2 -2.4
v 1.6 -0.6 -1.6
v 1.7 -0.6 -1.6
v 1.9 -0.6 -1.6
v 2 -0.6 -1.6
v 2.4 -0.6 -1.6
v 1.7 -0.6 -1.7
v 1.9 -0.6 -1.7
v 2 -0.6 -1.7
v 2.4 -0.6 -1.7
v 1.7 -0.6 -2.3
v 1.9 -0.6 -2.3
v 2 -0.6 -2.3
v 2.4 -0.6 -2.3
v 1.6 -0.6 -2.4
v 1.7 -0.6 -2.4
v 1.9 -0.6 -2.4
v 2 -0.6 -2.4
v 2.4 -0.6 -2.4
v 1.6 0 -1.6
v 1.7 0 -1.6
v 2.3 0 -1.6
v 1.7 0 -1.7
v 2.3 0 -1.7
v 1.7 0 -2.3
v 2.3 0 -2.3
v 1.6 0 -2.4
v 1.7 0 -2.4
v 2.3 0 -2.4
v 1.6 0.6 -1.6
v 1.7 0.6 -1.6
v 1.8 0.6 -1.6
v 1.9 0.6 -1.6
v 2.4 0.6 -1.6
v 1.7 0.6 -1.7
v 1.8 0.6 -1.7
v 1.9 0.6 -1.7
v 2.4 0.6 -1.7
v 1.7 0.6 -2.3
v 1.8 0.6 -2.3
v 1.9 0.6 -2.3
v 2.4 0.6 -2.3
v 1.6 0.6 -2.4
v 1.7 0.6 -2.4
v 1.8 0.6 -2.4
v 1.9 0.6 -2.4
v 2.4 0.6 -2.4
v 1.6 1.2 -1.6
v 1.7 1.2 -1.6
v 2 1.2 -1.6
v 2.1 1.2 -1.6
v 2.4 1.2 -1.6
v 1.7 1.2 -1.7
v 2 1.2 -1.7
v 2.1 1.2 -1.7
v 2.4 1.2 -1.7
v 1.7 1.2 -2.3
v 2 1.2 -2.3
v 2.1 1.2 -2.3
v 2.4 1.2 -2.3
v 1.6 1.2 -2.4
v 1.7 1.2 -2.4
v 2 1.2 -2.4
v 2.1 1.2 -2.4
v 2.4 1.2 -2.4
v 1.6 1.8 -1.6
v 1.7 1.8 -1.6
v 1.8 1.8 -1.6
v 1.9 1.8 -1.6
v 2.4 1.8 -1.6
v 1.8 1.8 -1.7
v 1.9 1.8 -1.7
v 2.4 1.8 -1.7
v 1.8 1.8 -2.3
v 1.9 1.8 -2.3
v 2.4 1.8 -2.3
v 1.6 1.8 -2.4
v 1.7 1.8 -2.4
v 1.8 1.8 -2.4
v 1.9 1.8 -2.4
v 2.4 1.8 -2.4
v 1.6 -1.9 -1.6
v 1.7 -1.9 -1.6
v 2.3 -1.9 -1.6
v 1.7 -1.9 -1.7
v 2.3 -1.9 -1.7
v 1.7 -1.9 -2.3
v 2.3 -1.9 -2.3
v 1.6 -1.9 -2.4
v 1.7 -1.9 -2.4
v 2.3 -1.9 -2.4
v 1.6 -1.3 -1.6
v 1.7 -1.3 -1.6
v 2.4 -1.3 -1.6
v 1.7 -1.3 -1.7
v 2.4 -1.3 -1.7
v 1.7 -1.3 -2.3
v 2.4 -1.3 -2.3
v 1.6 -1.3 -2.4
v 1.7 -1.3 -2.4
v 2.4 -1.3 -2.4
v 1.6 -0.7 -1.6
v 1.7 -0.7 -1.6
v 2.4 -0.7 -1.6
v 1.7 -0.7 -1.7
v 2.4 -0.7 -1.7
v 1.7 -0.7 -2.3
v 2.4 -0.7 -2.3
v 1.6 -0.7 -2.4
v 1.7 -0.7 -2.4
v 2.4 -0.7 -2.4
v 1.6 -0.0999999 -1.6
v 1.7 -0.0999999 -1.6
v 1.9 -0.0999999 -1.6
v 2 -0.0999999 -1.6
v 2.4 -0.0999999 -1.6
v 1.7 -0.0999999 -1.7
v 1.9 -0.0999999 -1.7
v 2 -0.0999999 -1.7
v 2.4 -0.0999999 -1.7
v 1.7 -0.0999999 -2.3
v 1.9 -0.0999999 -2.3
v 2 -0.0999999 -2.3
v 2.4 -0.0999999 -2.3
v 1.6 -0.0999999 -2.4
v 1.7 -0.0999999 -2.4
v 1.9 -0.0999999 -2.4
v 2 -0.0999999 -2.4
v 2.4 -0.0999999 -2.4
v 1.6 0.5 -1.6
v 1.7 0.5 -1.6
v 2.3 0.5 -1.6
v 1.7 0.5 -1.7
v 2.3 0.5 -1.7
v 1.7 0.5 -2.3
v 2.3 0.5 -2.3
v 1.6 0.5 -2.4
v 1.7 0.5 -2.4
v 2.3 0.5 -2.4
v 1.6 1.1 -1.6
v 1.7 1.1 -1.6
v 1.8 1.1 -1.6
v 1.9 1.1 -1.6
v 2.4 1.1 -1.6
v 1.7 1.1 -1.7
v 1.8 1.1 -1.7
v 1.9 1.1 -1.7
v 2.4 1.1 -1.7
v 1.7 1.1 -2.3
v 1.8 1.1 -2.3
v 1.9 1.1 -2.3
v 2.4 1.1 -2.3
v 1.6 1.1 -2.4
v 1.7 1.1 -2.4
v 1.8 1.1 -2.4
v 1.9 1.1 -2.4
v 2.4 1.1 -2.4
v 1.6 1.7 -1.6
v 1.7 1.7 -1.6
v 2 1.7 -1.6
v 2.1 1.7 -1.6
v 2.4 1.7 -1.6
v 1.8 1.7 -1.7
v 2 1.7 -1.7
v 2.1 1.7 -1.7
v 2.4 1.7 -1.7
v 1.8 1.7 -2.3
v 2 1.7 -2.3
v 2.1 1.7 -2.3
v 2.4 1.7 -2.3
v 1.6 1.7 -2.4
v 1.7 1.7 -2.4
v 2 1.7 -2.4
v 2.1 1.7 -2.4
v 2.4 1.7 -2.4
v 1.6 2.3 -1.6
v 1.7 2.3 -1.6
v 1.8 2.3 -1.6
v 1.9 2.3 -1.6
v 2.4 2.3 -1.6
v 1.7 2.3 -1.7
v 1.8 2.3 -1.7
v 1.9 2.3 -1.7
v 2.4 2.3 -1.7
v 1.7 2.3 -2.3
v 1.8 2.3 -2.3
v 1.9 2.3 -2.3
v 2.4 2.3 -2.3
v 1.6 2.3 -2.4
v 1.7 2.3 -2.4
v 1.8 2.3 -2.4
v 1.9 2.3 -2.4
v 2.4 2.3 -2.4
v 1.7 2.4 -1.7
v 2.4 2.4 -1.7
v 1.7 2.4 -2.3
v 2.4 2.4 -2.3

# faces
f 3/3/1 2/3/1 1/3/1
f 4/3/1 2/3/1 3/3/1
f 7/3/1 6/3/1 5/3/1
f 8/3/1 6/3/1 7/3/1
f 11/3/1 10/3/1 9/3/1
f 12/3/1 10/3/1 11/3/1
f 15/3/1 14/3/1 13/3/1
f 16/3/1 14/3/1 15/3/1
f 19/3/1 18/3/1 17/3/1
f 20/3/1 18/3/1 19/3/1
f 23/3/1 22/3/1 21/3/1
f 24/3/1 22/3/1 23/3/1
f 27/3/1 26/3/1 25/3/1
f 28/3/1 26/3/1 27/3/1
f 31/3/1 30/3/1 29/3/1
f 32/3/1 30/3/1 31/3/1
f 35/2/1 34/2/1 33/2/1
f 36/2/1 34/2/1 35/2/1
f 39/2/1 38/2/1 37/2/1
f 40/2/1 38/2/1 39/2/1
f 43/2/1 42/2/1 41/2/1
f 44/2/1 42/2/1 43/2/1
f 47/2/1 46/2/1 45/2/1
f 48/2/1 46/2/1 47/2/1
f 51/2/1 50/2/1 49/2/1
f 52/2/1 50/2/1 51/2/1
f 55/2/1 54/2/1 53/2/1
f 56/2/1 54/2/1 55/2/1
f 59/2/1 58/2/1 57/2/1
f 60/2/1 58/2/1 59/2/1
f 63/2/1 62/2/1 61/2/1
f 64/2/1 62/2/1 63/2/1
f 69/1/1 66/1/1 65/1/1
f 70/1/1 66/1/1 69/1/1
f 71/1/1 68/1/1 67/1/1
f 72/1/1 68/1/1 71/1/1
f 77/1/1 74/1/1 73/1/1
f 78/1/1 74/1/1 77/1/1
f 79/1/1 76/1/1 75/1/1
f 80/1/1 76/1/1 79/1/1
f 85/1/1 82/1/1 81/1/1
f 86/1/1 82/1/1 85/1/1
f 87/1/1 84/1/1 83/1/1
f 88/1/1 84/1/1 87/1/1
f 93/1/1 90/1/1 89/1/1
f 94/1/1 90/1/1 93/1/1
f 95/1/1 92/1/1 91/1/1
f 96/1/1 92/1/1 95/1/1
f 97/1/2 98/1/2 101/1/2
f 101/1/2 98/1/2 102/1/2
f 99/1/2 100/1/2 103/1/2
f 103/1/2 100/1/2 104/1/2
f 105/1/2 106/1/2 109/1/2
f 109/1/2 106/1/2 110/1/2
f 107/1/2 108/1/2 111/1/2
f 111/1/2 108/1/2 112/1/2
f 113/1/2 114/1/2 117/1/2
f 117/1/2 114/1/2 118/1/2
f 115/1/2 116/1/2 119/1/2
f 119/1/2 116/1/2 120/1/2
f 121/1/2 122/1/2 125/1/2
f 125/1/2 122/1/2 126/1/2
f 123/1/2 124/1/2 127/1/2
f 127/1/2 124/1/2 128/1/2
f 129/1/2 130/1/2 133/1/2
f 133/1/2 130/1/2 134/1/2
f 131/1/2 132/1/2 135/1/2
f 135/1/2 132/1/2 136/1/2
f 137/1/2 138/1/2 141/1/2
f 141/1/2 138/1/2 142/1/2
f 139/1/2 140/1/2 143/1/2
f 143/1/2 140/1/2 144/1/2
f 145/2/2 146/2/2 148/2/2
f 148/2/2 146/2/2 149/2/2
f 147/1/2 148/1/2 151/1/2
f 149/1/2 150/1/2 151/1/2
f 148/1/2 149/1/2 151/1/2
f 151/1/2 150/1/2 152/1/2
f 152/1/2 150/1/2 153/1/2
f 153/1/2 150/1/2 154/1/2
f 152/2/2 153/2/2 156/2/2
f 156/2/2 153/2/2 157/2/2
f 155/1/2 156/1/2 159/1/2
f 157/1/2 158/1/2 159/1/2
f 156/1/2 157/1/2 159/1/2
f 159/1/2 158/1/2 160/1/2
f 160/1/2 158/1/2 161/1/2
f 161/1/2 158/1/2 162/1/2
f 160/2/2 161/2/2 164/2/2
f 164/2/2 161/2/2 165/2/2
f 163/1/2 164/1/2 167/1/2
f 165/1/2 166/1/2 167/1/2
f 164/1/2 165/1/2 167/1/2
f 167/1/2 166/1/2 168/1/2
f 168/1/2 166/1/2 169/1/2
f 169/1/2 166/1/2 170/1/2
f 168/2/2 169/2/2 172/2/2
f 172/2/2 169/2/2 173/2/2
f 171/1/2 172/1/2 175/1/2
f 173/1/2 174/1/2 175/1/2
f 172/1/2 173/1/2 175/1/2
f 175/1/2 174/1/2 176/1/2
f 176/1/2 174/1/2 177/1/2
f 177/1/2 174/1/2 178/1/2
f 176/2/2 177/2/2 180/2/2
f 180/2/2 177/2/2 181/2/2
f 179/1/2 180/1/2 183/1/2
f 181/1/2 182/1/2 183/1/2
f 180/1/2 181/1/2 183/1/2
f 183/1/2 182/1/2 184/1/2
f 184/1/2 182/1/2 185/1/2
f 185/1/2 182/1/2 186/1/2
f 184/2/2 185/2/2 188/2/2
f 188/2/2 185/2/2 189/2/2
f 187/1/2 188/1/2 191/1/2
f 189/1/2 190/1/2 191/1/2
f 188/1/2 189/1/2 191/1/2
f 191/1/2 190/1/2 192/1/2
f 192/1/2 190/1/2 193/1/2
f 193/1/2 190/1/2 194/1/2
f 192/2/2 193/2/2 195/2/2
f 195/2/2 193/2/2 196/2/2
f 213/3/3 198/3/3 197/3/3
f 214/3/3 198/3/3 213/3/3
f 215/3/3 200/3/3 199/3/3
f 216/3/3 200/3/3 215/3/3
f 217/3/3 202/3/3 201/3/3
f 218/3/3 202/3/3 217/3/3
f 219/3/3 204/3/3 203/3/3
f 220/3/3 204/3/3 219/3/3
f 221/3/3 206/3/3 205/3/3
f 222/3/3 206/3/3 221/3/3
f 223/3/3 208/3/3 207/3/3
f 224/3/3 208/3/3 223/3/3
f 225/3/3 210/3/3 209/3/3
f 226/3/3 210/3/3 225/3/3
f 227/3/3 212/3/3 211/3/3
f 228/3/3 212/3/3 227/3/3
f 229/1/3 224/1/3 223/1/3
f 230/1/3 224/1/3 229/1/3
f 231/1/3 228/1/3 227/1/3
f 232/1/3 228/1/3 231/1/3
f 233/1/3 220/1/3 219/1/3
f 234/1/3 220/1/3 233/1/3
f 241/1/3 226/1/3 225/1/3
f 242/1/3 226/1/3 241/1/3
f 245/1/3 214/1/3 213/1/3
f 246/1/3 214/1/3 245/1/3
f 247/1/3 222/1/3 221/1/3
f 248/1/3 222/1/3 247/1/3
f 249/1/3 216/1/3 215/1/3
f 250/1/3 216/1/3 249/1/3
f 251/1/3 218/1/3 217/1/3
f 252/1/3 218/1/3 251/1/3
f 253/1/3 240/1/3 239/1/3
f 254/1/3 240/1/3 253/1/3
f 255/1/3 236/1/3 235/1/3
f 256/1/3 236/1/3 255/1/3
f 257/1/3 244/1/3 243/1/3
f 258/1/3 244/1/3 257/1/3
f 259/1/3 238/1/3 237/1/3
f 260/1/3 238/1/3 259/1/3
f 275/2/3 270/2/3 269/2/3
f 276/2/3 272/2/3 271/2/3
f 279/2/3 274/2/3 273/2/3
f 280/2/3 266/2/3 265/2/3
f 281/2/3 268/2/3 267/2/3
f 282/2/3 275/2/3 269/2/3
f 282/2/3 276/2/3 275/2/3
f 283/2/3 272/2/3 276/2/3
f 283/2/3 276/2/3 282/2/3
f 284/2/3 279/2/3 278/2/3
f 284/2/3 278/2/3 277/2/3
f 285/2/3 274/2/3 279/2/3
f 285/2/3 279/2/3 284/2/3
f 286/2/3 280/2/3 265/2/3
f 286/2/3 281/2/3 280/2/3
f 287/2/3 268/2/3 281/2/3
f 287/2/3 281/2/3 286/2/3
f 288/2/3 272/2/3 283/2/3
f 289/2/3 284/2/3 277/2/3
f 290/2/3 288/2/3 283/2/3
f 290/2/3 289/2/3 288/2/3
f 291/2/3 284/2/3 289/2/3
f 291/2/3 289/2/3 290/2/3
f 293/2/3 262/2/3 261/2/3
f 294/2/3 268/2/3 287/2/3
f 295/2/3 282/2/3 269/2/3
f 296/2/3 293/2/3 292/2/3
f 297/2/3 262/2/3 293/2/3
f 297/2/3 293/2/3 296/2/3
f 298/2/3 264/2/3 263/2/3
f 299/2/3 264/2/3 298/2/3
f 300/2/3 286/2/3 265/2/3
f 301/2/3 286/2/3 300/2/3
f 302/2/3 295/2/3 294/2/3
f 302/2/3 294/2/3 287/2/3
f 303/2/3 282/2/3 295/2/3
f 303/2/3 295/2/3 302/2/3
f 304/2/3 290/2/3 283/2/3
f 305/2/3 290/2/3 304/2/3
f 306/2/3 284/2/3 291/2/3
f 307/2/3 284/2/3 306/2/3
f 308/2/3 274/2/3 285/2/3
f 309/2/3 274/2/3 308/2/3
f 318/2/4 319/2/4 324/2/4
f 320/2/4 321/2/4 325/2/4
f 322/2/4 323/2/4 328/2/4
f 314/2/4 315/2/4 329/2/4
f 316/2/4 317/2/4 330/2/4
f 318/2/4 324/2/4 331/2/4
f 324/2/4 325/2/4 331/2/4
f 325/2/4 321/2/4 332/2/4
f 331/2/4 325/2/4 332/2/4
f 327/2/4 328/2/4 333/2/4
f 326/2/4 327/2/4 333/2/4
f 328/2/4 323/2/4 334/2/4
f 333/2/4 328/2/4 334/2/4
f 314/2/4 329/2/4 335/2/4
f 329/2/4 330/2/4 335/2/4
f 330/2/4 317/2/4 336/2/4
f 335/2/4 330/2/4 336/2/4
f 332/2/4 321/2/4 337/2/4
f 326/2/4 333/2/4 338/2/4
f 332/2/4 337/2/4 339/2/4
f 337/2/4 338/2/4 339/2/4
f 338/2/4 333/2/4 340/2/4
f 339/2/4 338/2/4 340/2/4
f 310/2/4 311/2/4 342/2/4
f 336/2/4 317/2/4 343/2/4
f 318/2/4 331/2/4 344/2/4
f 341/2/4 342/2/4 345/2/4
f 342/2/4 311/2/4 346/2/4
f 345/2/4 342/2/4 346/2/4
f 312/2/4 313/2/4 347/2/4
f 347/2/4 313/2/4 348/2/4
f 314/2/4 335/2/4 349/2/4
f 349/2/4 335/2/4 350/2/4
f 343/2/4 344/2/4 351/2/4
f 336/2/4 343/2/4 351/2/4
f 344/2/4 331/2/4 352/2/4
f 351/2/4 344/2/4 352/2/4
f 332/2/4 339/2/4 353/2/4
f 353/2/4 339/2/4 354/2/4
f 340/2/4 333/2/4 355/2/4
f 355/2/4 333/2/4 356/2/4
f 334/2/4 323/2/4 357/2/4
f 357/2/4 323/2/4 358/2/4
f 359/3/4 360/3/4 375/3/4
f 375/3/4 360/3/4 376/3/4
f 361/3/4 362/3/4 377/3/4
f 377/3/4 362/3/4 378/3/4
f 363/3/4 364/3/4 379/3/4
f 379/3/4 364/3/4 380/3/4
f 365/3/4 366/3/4 381/3/4
f 381/3/4 366/3/4 382/3/4
f 367/3/4 368/3/4 383/3/4
f 383/3/4 368/3/4 384/3/4
f 369/3/4 370/3/4 385/3/4
f 385/3/4 370/3/4 386/3/4
f 371/3/4 372/3/4 387/3/4
f 387/3/4 372/3/4 388/3/4
f 373/3/4 374/3/4 389/3/4
f 389/3/4 374/3/4 390/3/4
f 385/1/4 386/1/4 391/1/4
f 391/1/4 386/1/4 392/1/4
f 389/1/4 390/1/4 393/1/4
f 393/1/4 390/1/4 394/1/4
f 381/1/4 382/1/4 395/1/4
f 395/1/4 382/1/4 396/1/4
f 387/1/4 388/1/4 403/1/4
f 403/1/4 388/1/4 404/1/4
f 375/1/4 376/1/4 407/1/4
f 407/1/4 376/1/4 408/1/4
f 383/1/4 384/1/4 409/1/4
f 409/1/4 384/1/4 410/1/4
f 377/1/4 378/1/4 411/1/4
f 411/1/4 378/1/4 412/1/4
f 379/1/4 380/1/4 413/1/4
f 413/1/4 380/1/4 414/1/4
f 401/1/4 402/1/4 415/1/4
f 415/1/4 402/1/4 416/1/4
f 397/1/4 398/1/4 417/1/4
f 417/1/4 398/1/4 418/1/4
f 405/1/4 406/1/4 419/1/4
f 419/1/4 406/1/4 420/1/4
f 399/1/4 400/1/4 421/1/4
f 421/1/4 400/1/4 422/1/4
f 426/1/5 425/1/5 424/1/5
f 428/1/5 426/1/5 424/1/5
f 428/2/5 427/2/5 426/2/5
f 429/2/5 427/2/5 428/2/5
f 430/3/5 424/3/5 423/3/5
f 431/1/5 428/1/5 424/1/5
f 431/3/5 424/3/5 430/3/5
f 432/1/5 428/1/5 431/1/5
f 436/3/5 434/3/5 433/3/5
f 436/1/5 435/1/5 434/1/5
f 437/1/5 435/1/5 436/1/5
f 438/3/5 436/3/5 433/3/5
f 440/3/5 438/3/5 433/3/5
f 441/1/5 439/1/5 438/1/5
f 441/3/5 438/3/5 440/3/5
f 442/1/5 439/1/5 441/1/5
f 446/3/5 444/3/5 443/3/5
f 446/1/5 445/1/5 444/1/5
f 447/1/5 445/1/5 446/1/5
f 448/3/5 446/3/5 443/3/5
f 450/3/5 448/3/5 443/3/5
f 451/1/5 449/1/5 448/1/5
f 451/3/5 448/3/5 450/3/5
f 452/1/5 449/1/5 451/1/5
f 458/3/5 454/3/5 453/3/5
f 458/1/5 455/1/5 454/1/5
f 459/1/5 455/1/5 458/1/5
f 460/1/5 457/1/5 456/1/5
f 461/1/5 457/1/5 460/1/5
f 462/3/5 458/3/5 453/3/5
f 466/3/5 462/3/5 453/3/5
f 467/1/5 463/1/5 462/1/5
f 467/3/5 462/3/5 466/3/5
f 468/1/5 463/1/5 467/1/5
f 469/1/5 465/1/5 464/1/5
f 470/1/5 465/1/5 469/1/5
f 474/3/5 472/3/5 471/3/5
f 474/1/5 473/1/5 472/1/5
f 475/1/5 473/1/5 474/1/5
f 476/3/5 474/3/5 471/3/5
f 478/3/5 476/3/5 471/3/5
f 479/1/5 477/1/5 476/1/5
f 479/3/5 476/3/5 478/3/5
f 480/1/5 477/1/5 479/1/5
f 486/3/5 482/3/5 481/3/5
f 486/1/5 483/1/5 482/1/5
f 487/1/5 483/1/5 486/1/5
f 488/1/5 485/1/5 484/1/5
f 489/1/5 485/1/5 488/1/5
f 490/3/5 486/3/5 481/3/5
f 494/3/5 490/3/5 481/3/5
f 495/1/5 491/1/5 490/1/5
f 495/3/5 490/3/5 494/3/5
f 496/1/5 491/1/5 495/1/5
f 497/1/5 493/1/5 492/1/5
f 498/1/5 493/1/5 497/1/5
f 504/3/5 500/3/5 499/3/5
f 504/1/5 501/1/5 500/1/5
f 505/1/5 501/1/5 504/1/5
f 506/1/5 503/1/5 502/1/5
f 507/1/5 503/1/5 506/1/5
f 508/3/5 504/3/5 499/3/5
f 512/3/5 508/3/5 499/3/5
f 513/1/5 509/1/5 508/1/5
f 513/3/5 508/3/5 512/3/5
f 514/1/5 509/1/5 513/1/5
f 515/1/5 511/1/5 510/1/5
f 516/1/5 511/1/5 515/1/5
f 522/1/5 519/1/5 518/1/5
f 523/1/5 521/1/5 520/1/5
f 524/1/5 521/1/5 523/1/5
f 525/1/5 522/1/5 518/1/5
f 528/3/5 518/3/5 517/3/5
f 529/1/5 525/1/5 518/1/5
f 529/3/5 518/3/5 528/3/5
f 530/1/5 525/1/5 529/1/5
f 531/1/5 527/1/5 526/1/5
f 532/1/5 527/1/5 531/1/5
f 533/3/6 534/3/6 536/3/6
f 534/1/6 535/1/6 536/1/6
f 536/1/6 535/1/6 537/1/6
f 533/3/6 536/3/6 538/3/6
f 533/3/6 538/3/6 540/3/6
f 538/1/6 539/1/6 541/1/6
f 540/3/6 538/3/6 541/3/6
f 541/1/6 539/1/6 542/1/6
f 543/3/6 544/3/6 546/3/6
f 544/1/6 545/1/6 546/1/6
f 546/1/6 545/1/6 547/1/6
f 543/3/6 546/3/6 548/3/6
f 543/3/6 548/3/6 550/3/6
f 548/1/6 549/1/6 551/1/6
f 550/3/6 548/3/6 551/3/6
f 551/1/6 549/1/6 552/1/6
f 553/3/6 554/3/6 556/3/6
f 554/1/6 555/1/6 556/1/6
f 556/1/6 555/1/6 557/1/6
f 553/3/6 556/3/6 558/3/6
f 553/3/6 558/3/6 560/3/6
f 558/1/6 559/1/6 561/1/6
f 560/3/6 558/3/6 561/3/6
f 561/1/6 559/1/6 562/1/6
f 563/3/6 564/3/6 568/3/6
f 564/1/6 565/1/6 568/1/6
f 568/1/6 565/1/6 569/1/6
f 566/1/6 567/1/6 570/1/6
f 570/1/6 567/1/6 571/1/6
f 563/3/6 568/3/6 572/3/6
f 563/3/6 572/3/6 576/3/6
f 572/1/6 573/1/6 577/1/6
f 576/3/6 572/3/6 577/3/6
f 577/1/6 573/1/6 578/1/6
f 574/1/6 575/1/6 579/1/6
f 579/1/6 575/1/6 580/1/6
f 581/3/6 582/3/6 584/3/6
f 582/1/6 583/1/6 584/1/6
f 584/1/6 583/1/6 585/1/6
f 581/3/6 584/3/6 586/3/6
f 581/3/6 586/3/6 588/3/6
f 586/1/6 587/1/6 589/1/6
f 588/3/6 586/3/6 589/3/6
f 589/1/6 587/1/6 590/1/6
f 591/3/6 592/3/6 596/3/6
f 592/1/6 593/1/6 596/1/6
f 596/1/6 593/1/6 597/1/6
f 594/1/6 595/1/6 598/1/6
f 598/1/6 595/1/6 599/1/6
f 591/3/6 596/3/6 600/3/6
f 591/3/6 600/3/6 604/3/6
f 600/1/6 601/1/6 605/1/6
f 604/3/6 600/3/6 605/3/6
f 605/1/6 601/1/6 606/1/6
f 602/1/6 603/1/6 607/1/6
f 607/1/6 603/1/6 608/1/6
f 610/1/6 611/1/6 614/1/6
f 614/1/6 611/1/6 615/1/6
f 612/1/6 613/1/6 616/1/6
f 616/1/6 613/1/6 617/1/6
f 610/1/6 614/1/6 618/1/6
f 609/3/6 610/3/6 622/3/6
f 610/1/6 618/1/6 623/1/6
f 622/3/6 610/3/6 623/3/6
f 618/1/6 619/1/6 623/1/6
f 623/1/6 619/1/6 624/1/6
f 620/1/6 621/1/6 625/1/6
f 625/1/6 621/1/6 626/1/6
f 627/3/6 628/3/6 632/3/6
f 628/1/6 629/1/6 632/1/6
f 632/1/6 629/1/6 633/1/6
f 630/1/6 631/1/6 634/1/6
f 634/1/6 631/1/6 635/1/6
f 627/3/6 632/3/6 636/3/6
f 627/3/6 636/3/6 640/3/6
f 636/1/6 637/1/6 641/1/6
f 640/3/6 636/3/6 641/3/6
f 641/1/6 637/1/6 642/1/6
f 638/1/6 639/1/6 643/1/6
f 643/1/6 639/1/6 644/1/6
f 645/2/6 646/2/6 647/2/6
f 647/2/6 646/2/6 648/2/6
