# MagicaVoxel @ Ephtracy

# group
o 

# material
mtllib stoneWallCorner-0.mtl
usemtl palette

# normals
vn -1 0 0
vn 1 0 0
vn 0 0 1
vn 0 0 -1
vn 0 -1 0
vn 0 1 0

# texcoords
vt 0.919922 0.5
vt 0.935547 0.5
vt 0.966797 0.5

# verts
v 1.6 -2.4 -1.6
v 1.6 -2.4 -2.4
v 1.6 -1.9 -1.6
v 1.6 -1.9 -2.4
v 1.6 -1.8 -1.6
v 1.6 -1.8 -2.4
v 1.6 -1.3 -1.6
v 1.6 -1.3 -2.4
v 1.6 -1.2 -1.6
v 1.6 -1.2 -2.4
v 1.6 -0.7 -1.6
v 1.6 -0.7 -2.4
v 1.6 -0.6 -1.6
v 1.6 -0.6 -2.4
v 1.6 -0.0999999 -1.6
v 1.6 -0.0999999 -2.4
v 1.6 0 -1.6
v 1.6 0 -2.4
v 1.6 0.5 -1.6
v 1.6 0.5 -2.4
v 1.6 0.6 -1.6
v 1.6 0.6 -2.4
v 1.6 1.1 -1.6
v 1.6 1.1 -2.4
v 1.6 1.2 -1.6
v 1.6 1.2 -2.4
v 1.6 1.7 -1.6
v 1.6 1.7 -2.4
v 1.6 1.8 -1.6
v 1.6 1.8 -2.4
v 1.6 2.3 -1.6
v 1.6 2.3 -2.4
v 1.7 -1.9 -1.7
v 1.7 -1.9 -2.4
v 1.7 -1.8 -1.7
v 1.7 -1.8 -2.4
v 1.7 -1.3 -1.7
v 1.7 -1.3 -2.4
v 1.7 -1.2 -1.7
v 1.7 -1.2 -2.4
v 1.7 -0.7 -1.7
v 1.7 -0.7 -2.4
v 1.7 -0.6 -1.7
v 1.7 -0.6 -2.4
v 1.7 -0.0999999 -1.7
v 1.7 -0.0999999 -2.4
v 1.7 0 -1.7
v 1.7 0 -2.4
v 1.7 0.5 -1.7
v 1.7 0.5 -2.4
v 1.7 0.6 -1.7
v 1.7 0.6 -2.4
v 1.7 1.1 -1.7
v 1.7 1.1 -2.4
v 1.7 1.2 -1.7
v 1.7 1.2 -2.4
v 1.7 2.3 -1.7
v 1.7 2.3 -2.4
v 1.7 2.4 -1.7
v 1.7 2.4 -2.4
v 1.8 1.7 -1.7
v 1.8 1.7 -2.4
v 1.8 1.8 -1.7
v 1.8 1.8 -2.4
v 1.9 0.6 -1.6
v 1.9 0.6 -1.7
v 1.9 1.1 -1.6
v 1.9 1.1 -1.7
v 1.9 1.8 -1.6
v 1.9 1.8 -1.7
v 1.9 2.3 -1.6
v 1.9 2.3 -1.7
v 2 -0.6 -1.6
v 2 -0.6 -1.7
v 2 -0.0999999 -1.6
v 2 -0.0999999 -1.7
v 2.1 1.2 -1.6
v 2.1 1.2 -1.7
v 2.1 1.7 -1.6
v 2.1 1.7 -1.7
v 1.8 0.6 -1.6
v 1.8 0.6 -1.7
v 1.8 1.1 -1.6
v 1.8 1.1 -1.7
v 1.8 1.8 -1.6
v 1.8 1.8 -1.7
v 1.8 2.3 -1.6
v 1.8 2.3 -1.7
v 1.9 -0.6 -1.6
v 1.9 -0.6 -1.7
v 1.9 -0.0999999 -1.6
v 1.9 -0.0999999 -1.7
v 2 1.2 -1.6
v 2 1.2 -1.7
v 2 1.7 -1.6
v 2 1.7 -1.7
v 2.3 -2.4 -1.6
v 2.3 -2.4 -1.7
v 2.3 -1.9 -1.6
v 2.3 -1.9 -1.7
v 2.3 0 -1.6
v 2.3 0 -1.7
v 2.3 0.5 -1.6
v 2.3 0.5 -1.7
v 2.4 -2.4 -1.7
v 2.4 -2.4 -2.4
v 2.4 -1.8 -1.6
v 2.4 -1.8 -1.7
v 2.4 -1.8 -2.4
v 2.4 -1.3 -1.6
v 2.4 -1.3 -1.7
v 2.4 -1.3 -2.4
v 2.4 -1.2 -1.6
v 2.4 -1.2 -1.7
v 2.4 -1.2 -2.4
v 2.4 -0.7 -1.6
v 2.4 -0.7 -1.7
v 2.4 -0.7 -2.4
v 2.4 -0.6 -1.6
v 2.4 -0.6 -1.7
v 2.4 -0.6 -2.4
v 2.4 -0.0999999 -1.6
v 2.4 -0.0999999 -1.7
v 2.4 -0.0999999 -2.4
v 2.4 0.6 -1.6
v 2.4 0.6 -1.7
v 2.4 0.6 -2.4
v 2.4 1.1 -1.6
v 2.4 1.1 -1.7
v 2.4 1.1 -2.4
v 2.4 1.2 -1.6
v 2.4 1.2 -1.7
v 2.4 1.2 -2.4
v 2.4 1.7 -1.6
v 2.4 1.7 -1.7
v 2.4 1.7 -2.4
v 2.4 1.8 -1.6
v 2.4 1.8 -1.7
v 2.4 1.8 -2.4
v 2.4 2.3 -1.6
v 2.4 2.3 -1.7
v 2.4 2.3 -2.4
v 2.4 2.4 -1.7
v 2.4 2.4 -2.4
v 1.6 -2.4 -1.6
v 1.6 -1.9 -1.6
v 1.6 -1.8 -1.6
v 1.6 -1.3 -1.6
v 1.6 -1.2 -1.6
v 1.6 -0.7 -1.6
v 1.6 -0.6 -1.6
v 1.6 -0.0999999 -1.6
v 1.6 0 -1.6
v 1.6 0.5 -1.6
v 1.6 0.6 -1.6
v 1.6 1.1 -1.6
v 1.6 1.2 -1.6
v 1.6 1.7 -1.6
v 1.6 1.8 -1.6
v 1.6 2.3 -1.6
v 1.7 -2.4 -1.6
v 1.7 -1.9 -1.6
v 1.7 -1.8 -1.6
v 1.7 -1.3 -1.6
v 1.7 -1.2 -1.6
v 1.7 -0.7 -1.6
v 1.7 -0.6 -1.6
v 1.7 -0.0999999 -1.6
v 1.7 0 -1.6
v 1.7 0.5 -1.6
v 1.7 0.6 -1.6
v 1.7 1.1 -1.6
v 1.7 1.2 -1.6
v 1.7 1.7 -1.6
v 1.7 1.8 -1.6
v 1.7 2.3 -1.6
v 1.8 0.6 -1.6
v 1.8 1.1 -1.6
v 1.8 1.8 -1.6
v 1.8 2.3 -1.6
v 1.9 -0.6 -1.6
v 1.9 -0.0999999 -1.6
v 1.9 0.6 -1.6
v 1.9 1.1 -1.6
v 1.9 1.8 -1.6
v 1.9 2.3 -1.6
v 2 -0.6 -1.6
v 2 -0.0999999 -1.6
v 2 1.2 -1.6
v 2 1.7 -1.6
v 2.1 1.2 -1.6
v 2.1 1.7 -1.6
v 2.3 -2.4 -1.6
v 2.3 -1.9 -1.6
v 2.3 0 -1.6
v 2.3 0.5 -1.6
v 2.4 -1.8 -1.6
v 2.4 -1.3 -1.6
v 2.4 -1.2 -1.6
v 2.4 -0.7 -1.6
v 2.4 -0.6 -1.6
v 2.4 -0.0999999 -1.6
v 2.4 0.6 -1.6
v 2.4 1.1 -1.6
v 2.4 1.2 -1.6
v 2.4 1.7 -1.6
v 2.4 1.8 -1.6
v 2.4 2.3 -1.6
v 1.7 -1.9 -1.7
v 1.7 -1.8 -1.7
v 1.7 -1.3 -1.7
v 1.7 -1.2 -1.7
v 1.7 -0.7 -1.7
v 1.7 -0.6 -1.7
v 1.7 -0.0999999 -1.7
v 1.7 0 -1.7
v 1.7 0.5 -1.7
v 1.7 0.6 -1.7
v 1.7 1.1 -1.7
v 1.7 1.2 -1.7
v 1.7 2.3 -1.7
v 1.7 2.4 -1.7
v 1.8 0.6 -1.7
v 1.8 1.1 -1.7
v 1.8 1.7 -1.7
v 1.8 1.8 -1.7
v 1.8 2.3 -1.7
v 1.9 -0.6 -1.7
v 1.9 -0.0999999 -1.7
v 1.9 0.6 -1.7
v 1.9 1.1 -1.7
v 1.9 1.8 -1.7
v 1.9 2.3 -1.7
v 2 -0.6 -1.7
v 2 -0.0999999 -1.7
v 2 1.2 -1.7
v 2 1.7 -1.7
v 2.1 1.2 -1.7
v 2.1 1.7 -1.7
v 2.3 -2.4 -1.7
v 2.3 -1.9 -1.7
v 2.3 0 -1.7
v 2.3 0.5 -1.7
v 2.4 -2.4 -1.7
v 2.4 -1.8 -1.7
v 2.4 -1.3 -1.7
v 2.4 -1.2 -1.7
v 2.4 -0.7 -1.7
v 2.4 -0.6 -1.7
v 2.4 -0.0999999 -1.7
v 2.4 0.6 -1.7
v 2.4 1.1 -1.7
v 2.4 1.2 -1.7
v 2.4 1.7 -1.7
v 2.4 1.8 -1.7
v 2.4 2.3 -1.7
v 2.4 2.4 -1.7
v 1.6 -2.4 -2.4
v 1.6 -1.9 -2.4
v 1.6 -1.8 -2.4
v 1.6 -1.3 -2.4
v 1.6 -1.2 -2.4
v 1.6 -0.7 -2.4
v 1.6 -0.6 -2.4
v 1.6 -0.0999999 -2.4
v 1.6 0 -2.4
v 1.6 0.5 -2.4
v 1.6 0.6 -2.4
v 1.6 1.1 -2.4
v 1.6 1.2 -2.4
v 1.6 1.7 -2.4
v 1.6 1.8 -2.4
v 1.6 2.3 -2.4
v 1.7 -2.4 -2.4
v 1.7 -1.9 -2.4
v 1.7 -1.8 -2.4
v 1.7 -1.3 -2.4
v 1.7 -1.2 -2.4
v 1.7 -0.7 -2.4
v 1.7 -0.6 -2.4
v 1.7 -0.0999999 -2.4
v 1.7 0 -2.4
v 1.7 0.5 -2.4
v 1.7 0.6 -2.4
v 1.7 1.1 -2.4
v 1.7 1.2 -2.4
v 1.7 1.7 -2.4
v 1.7 1.8 -2.4
v 1.7 2.3 -2.4
v 1.7 2.4 -2.4
v 1.8 0.6 -2.4
v 1.8 1.1 -2.4
v 1.8 1.7 -2.4
v 1.8 1.8 -2.4
v 1.8 2.3 -2.4
v 1.9 -0.6 -2.4
v 1.9 -0.0999999 -2.4
v 1.9 0.6 -2.4
v 1.9 1.1 -2.4
v 1.9 1.8 -2.4
v 1.9 2.3 -2.4
v 2 -0.6 -2.4
v 2 -0.0999999 -2.4
v 2 1.2 -2.4
v 2 1.7 -2.4
v 2.1 1.2 -2.4
v 2.1 1.7 -2.4
v 2.3 -2.4 -2.4
v 2.3 -1.9 -2.4
v 2.3 0 -2.4
v 2.3 0.5 -2.4
v 2.4 -2.4 -2.4
v 2.4 -1.8 -2.4
v 2.4 -1.3 -2.4
v 2.4 -1.2 -2.4
v 2.4 -0.7 -2.4
v 2.4 -0.6 -2.4
v 2.4 -0.0999999 -2.4
v 2.4 0.6 -2.4
v 2.4 1.1 -2.4
v 2.4 1.2 -2.4
v 2.4 1.7 -2.4
v 2.4 1.8 -2.4
v 2.4 2.3 -2.4
v 2.4 2.4 -2.4
v 1.6 -2.4 -1.6
v 1.7 -2.4 -1.6
v 2.3 -2.4 -1.6
v 2.3 -2.4 -1.7
v 2.4 -2.4 -1.7
v 1.6 -2.4 -2.4
v 1.7 -2.4 -2.4
v 2.3 -2.4 -2.4
v 2.4 -2.4 -2.4
v 1.6 -1.8 -1.6
v 1.7 -1.8 -1.6
v 2.4 -1.8 -1.6
v 1.7 -1.8 -1.7
v 2.4 -1.8 -1.7
v 1.6 -1.8 -2.4
v 1.7 -1.8 -2.4
v 1.6 -1.2 -1.6
v 1.7 -1.2 -1.6
v 2.4 -1.2 -1.6
v 1.7 -1.2 -1.7
v 2.4 -1.2 -1.7
v 1.6 -1.2 -2.4
v 1.7 -1.2 -2.4
v 1.6 -0.6 -1.6
v 1.7 -0.6 -1.6
v 1.9 -0.6 -1.6
v 2 -0.6 -1.6
v 2.4 -0.6 -1.6
v 1.7 -0.6 -1.7
v 1.9 -0.6 -1.7
v 2 -0.6 -1.7
v 2.4 -0.6 -1.7
v 1.6 -0.6 -2.4
v 1.7 -0.6 -2.4
v 1.6 0 -1.6
v 1.7 0 -1.6
v 2.3 0 -1.6
v 1.7 0 -1.7
v 2.3 0 -1.7
v 1.6 0 -2.4
v 1.7 0 -2.4
v 1.6 0.6 -1.6
v 1.7 0.6 -1.6
v 1.8 0.6 -1.6
v 1.9 0.6 -1.6
v 2.4 0.6 -1.6
v 1.7 0.6 -1.7
v 1.8 0.6 -1.7
v 1.9 0.6 -1.7
v 2.4 0.6 -1.7
v 1.6 0.6 -2.4
v 1.7 0.6 -2.4
v 1.6 1.2 -1.6
v 1.7 1.2 -1.6
v 2 1.2 -1.6
v 2.1 1.2 -1.6
v 2.4 1.2 -1.6
v 1.7 1.2 -1.7
v 2 1.2 -1.7
v 2.1 1.2 -1.7
v 2.4 1.2 -1.7
v 1.6 1.2 -2.4
v 1.7 1.2 -2.4
v 1.6 1.8 -1.6
v 1.7 1.8 -1.6
v 1.8 1.8 -1.6
v 1.9 1.8 -1.6
v 2.4 1.8 -1.6
v 1.8 1.8 -1.7
v 1.9 1.8 -1.7
v 2.4 1.8 -1.7
v 1.6 1.8 -2.4
v 1.7 1.8 -2.4
v 1.8 1.8 -2.4
v 1.6 -1.9 -1.6
v 1.7 -1.9 -1.6
v 2.3 -1.9 -1.6
v 1.7 -1.9 -1.7
v 2.3 -1.9 -1.7
v 1.6 -1.9 -2.4
v 1.7 -1.9 -2.4
v 1.6 -1.3 -1.6
v 1.7 -1.3 -1.6
v 2.4 -1.3 -1.6
v 1.7 -1.3 -1.7
v 2.4 -1.3 -1.7
v 1.6 -1.3 -2.4
v 1.7 -1.3 -2.4
v 1.6 -0.7 -1.6
v 1.7 -0.7 -1.6
v 2.4 -0.7 -1.6
v 1.7 -0.7 -1.7
v 2.4 -0.7 -1.7
v 1.6 -0.7 -2.4
v 1.7 -0.7 -2.4
v 1.6 -0.0999999 -1.6
v 1.7 -0.0999999 -1.6
v 1.9 -0.0999999 -1.6
v 2 -0.0999999 -1.6
v 2.4 -0.0999999 -1.6
v 1.7 -0.0999999 -1.7
v 1.9 -0.0999999 -1.7
v 2 -0.0999999 -1.7
v 2.4 -0.0999999 -1.7
v 1.6 -0.0999999 -2.4
v 1.7 -0.0999999 -2.4
v 1.6 0.5 -1.6
v 1.7 0.5 -1.6
v 2.3 0.5 -1.6
v 1.7 0.5 -1.7
v 2.3 0.5 -1.7
v 1.6 0.5 -2.4
v 1.7 0.5 -2.4
v 1.6 1.1 -1.6
v 1.7 1.1 -1.6
v 1.8 1.1 -1.6
v 1.9 1.1 -1.6
v 2.4 1.1 -1.6
v 1.7 1.1 -1.7
v 1.8 1.1 -1.7
v 1.9 1.1 -1.7
v 2.4 1.1 -1.7
v 1.6 1.1 -2.4
v 1.7 1.1 -2.4
v 1.6 1.7 -1.6
v 1.7 1.7 -1.6
v 2 1.7 -1.6
v 2.1 1.7 -1.6
v 2.4 1.7 -1.6
v 1.8 1.7 -1.7
v 2 1.7 -1.7
v 2.1 1.7 -1.7
v 2.4 1.7 -1.7
v 1.6 1.7 -2.4
v 1.7 1.7 -2.4
v 1.8 1.7 -2.4
v 1.6 2.3 -1.6
v 1.7 2.3 -1.6
v 1.8 2.3 -1.6
v 1.9 2.3 -1.6
v 2.4 2.3 -1.6
v 1.7 2.3 -1.7
v 1.8 2.3 -1.7
v 1.9 2.3 -1.7
v 2.4 2.3 -1.7
v 1.6 2.3 -2.4
v 1.7 2.3 -2.4
v 1.7 2.4 -1.7
v 2.4 2.4 -1.7
v 1.7 2.4 -2.4
v 2.4 2.4 -2.4

# faces
f 3/3/1 2/3/1 1/3/1
f 4/3/1 2/3/1 3/3/1
f 7/3/1 6/3/1 5/3/1
f 8/3/1 6/3/1 7/3/1
f 11/3/1 10/3/1 9/3/1
f 12/3/1 10/3/1 11/3/1
f 15/3/1 14/3/1 13/3/1
f 16/3/1 14/3/1 15/3/1
f 19/3/1 18/3/1 17/3/1
f 20/3/1 18/3/1 19/3/1
f 23/3/1 22/3/1 21/3/1
f 24/3/1 22/3/1 23/3/1
f 27/3/1 26/3/1 25/3/1
f 28/3/1 26/3/1 27/3/1
f 31/3/1 30/3/1 29/3/1
f 32/3/1 30/3/1 31/3/1
f 35/2/1 34/2/1 33/2/1
f 36/2/1 34/2/1 35/2/1
f 39/2/1 38/2/1 37/2/1
f 40/2/1 38/2/1 39/2/1
f 43/2/1 42/2/1 41/2/1
f 44/2/1 42/2/1 43/2/1
f 47/2/1 46/2/1 45/2/1
f 48/2/1 46/2/1 47/2/1
f 51/2/1 50/2/1 49/2/1
f 52/2/1 50/2/1 51/2/1
f 55/2/1 54/2/1 53/2/1
f 56/2/1 54/2/1 55/2/1
f 59/2/1 58/2/1 57/2/1
f 60/2/1 58/2/1 59/2/1
f 63/2/1 62/2/1 61/2/1
f 64/2/1 62/2/1 63/2/1
f 67/1/1 66/1/1 65/1/1
f 68/1/1 66/1/1 67/1/1
f 71/1/1 70/1/1 69/1/1
f 72/1/1 70/1/1 71/1/1
f 75/1/1 74/1/1 73/1/1
f 76/1/1 74/1/1 75/1/1
f 79/1/1 78/1/1 77/1/1
f 80/1/1 78/1/1 79/1/1
f 81/1/2 82/1/2 83/1/2
f 83/1/2 82/1/2 84/1/2
f 85/1/2 86/1/2 87/1/2
f 87/1/2 86/1/2 88/1/2
f 89/1/2 90/1/2 91/1/2
f 91/1/2 90/1/2 92/1/2
f 93/1/2 94/1/2 95/1/2
f 95/1/2 94/1/2 96/1/2
f 97/1/2 98/1/2 99/1/2
f 99/1/2 98/1/2 100/1/2
f 101/1/2 102/1/2 103/1/2
f 103/1/2 102/1/2 104/1/2
f 105/2/2 106/2/2 108/2/2
f 108/2/2 106/2/2 109/2/2
f 107/1/2 108/1/2 110/1/2
f 108/1/2 109/1/2 110/1/2
f 110/1/2 109/1/2 111/1/2
f 111/1/2 109/1/2 112/1/2
f 111/2/2 112/2/2 114/2/2
f 114/2/2 112/2/2 115/2/2
f 113/1/2 114/1/2 116/1/2
f 114/1/2 115/1/2 116/1/2
f 116/1/2 115/1/2 117/1/2
f 117/1/2 115/1/2 118/1/2
f 117/2/2 118/2/2 120/2/2
f 120/2/2 118/2/2 121/2/2
f 119/1/2 120/1/2 122/1/2
f 120/1/2 121/1/2 122/1/2
f 122/1/2 121/1/2 123/1/2
f 123/1/2 121/1/2 124/1/2
f 123/2/2 124/2/2 126/2/2
f 126/2/2 124/2/2 127/2/2
f 125/1/2 126/1/2 128/1/2
f 126/1/2 127/1/2 128/1/2
f 128/1/2 127/1/2 129/1/2
f 129/1/2 127/1/2 130/1/2
f 129/2/2 130/2/2 132/2/2
f 132/2/2 130/2/2 133/2/2
f 131/1/2 132/1/2 134/1/2
f 132/1/2 133/1/2 134/1/2
f 134/1/2 133/1/2 135/1/2
f 135/1/2 133/1/2 136/1/2
f 135/2/2 136/2/2 138/2/2
f 138/2/2 136/2/2 139/2/2
f 137/1/2 138/1/2 140/1/2
f 138/1/2 139/1/2 140/1/2
f 140/1/2 139/1/2 141/1/2
f 141/1/2 139/1/2 142/1/2
f 141/2/2 142/2/2 143/2/2
f 143/2/2 142/2/2 144/2/2
f 161/3/3 146/3/3 145/3/3
f 162/3/3 146/3/3 161/3/3
f 163/3/3 148/3/3 147/3/3
f 164/3/3 148/3/3 163/3/3
f 165/3/3 150/3/3 149/3/3
f 166/3/3 150/3/3 165/3/3
f 167/3/3 152/3/3 151/3/3
f 168/3/3 152/3/3 167/3/3
f 169/3/3 154/3/3 153/3/3
f 170/3/3 154/3/3 169/3/3
f 171/3/3 156/3/3 155/3/3
f 172/3/3 156/3/3 171/3/3
f 173/3/3 158/3/3 157/3/3
f 174/3/3 158/3/3 173/3/3
f 175/3/3 160/3/3 159/3/3
f 176/3/3 160/3/3 175/3/3
f 177/1/3 172/1/3 171/1/3
f 178/1/3 172/1/3 177/1/3
f 179/1/3 176/1/3 175/1/3
f 180/1/3 176/1/3 179/1/3
f 181/1/3 168/1/3 167/1/3
f 182/1/3 168/1/3 181/1/3
f 189/1/3 174/1/3 173/1/3
f 190/1/3 174/1/3 189/1/3
f 193/1/3 162/1/3 161/1/3
f 194/1/3 162/1/3 193/1/3
f 195/1/3 170/1/3 169/1/3
f 196/1/3 170/1/3 195/1/3
f 197/1/3 164/1/3 163/1/3
f 198/1/3 164/1/3 197/1/3
f 199/1/3 166/1/3 165/1/3
f 200/1/3 166/1/3 199/1/3
f 201/1/3 188/1/3 187/1/3
f 202/1/3 188/1/3 201/1/3
f 203/1/3 184/1/3 183/1/3
f 204/1/3 184/1/3 203/1/3
f 205/1/3 192/1/3 191/1/3
f 206/1/3 192/1/3 205/1/3
f 207/1/3 186/1/3 185/1/3
f 208/1/3 186/1/3 207/1/3
f 223/2/3 218/2/3 217/2/3
f 224/2/3 220/2/3 219/2/3
f 227/2/3 222/2/3 221/2/3
f 228/2/3 214/2/3 213/2/3
f 229/2/3 216/2/3 215/2/3
f 230/2/3 223/2/3 217/2/3
f 230/2/3 224/2/3 223/2/3
f 231/2/3 220/2/3 224/2/3
f 231/2/3 224/2/3 230/2/3
f 232/2/3 227/2/3 226/2/3
f 232/2/3 226/2/3 225/2/3
f 233/2/3 222/2/3 227/2/3
f 233/2/3 227/2/3 232/2/3
f 234/2/3 228/2/3 213/2/3
f 234/2/3 229/2/3 228/2/3
f 235/2/3 216/2/3 229/2/3
f 235/2/3 229/2/3 234/2/3
f 236/2/3 220/2/3 231/2/3
f 237/2/3 232/2/3 225/2/3
f 238/2/3 236/2/3 231/2/3
f 238/2/3 237/2/3 236/2/3
f 239/2/3 232/2/3 237/2/3
f 239/2/3 237/2/3 238/2/3
f 241/2/3 210/2/3 209/2/3
f 242/2/3 216/2/3 235/2/3
f 243/2/3 230/2/3 217/2/3
f 244/2/3 241/2/3 240/2/3
f 245/2/3 210/2/3 241/2/3
f 245/2/3 241/2/3 244/2/3
f 246/2/3 212/2/3 211/2/3
f 247/2/3 212/2/3 246/2/3
f 248/2/3 234/2/3 213/2/3
f 249/2/3 234/2/3 248/2/3
f 250/2/3 243/2/3 242/2/3
f 250/2/3 242/2/3 235/2/3
f 251/2/3 230/2/3 243/2/3
f 251/2/3 243/2/3 250/2/3
f 252/2/3 238/2/3 231/2/3
f 253/2/3 238/2/3 252/2/3
f 254/2/3 232/2/3 239/2/3
f 255/2/3 232/2/3 254/2/3
f 256/2/3 222/2/3 233/2/3
f 257/2/3 222/2/3 256/2/3
f 258/3/4 259/3/4 274/3/4
f 274/3/4 259/3/4 275/3/4
f 260/3/4 261/3/4 276/3/4
f 276/3/4 261/3/4 277/3/4
f 262/3/4 263/3/4 278/3/4
f 278/3/4 263/3/4 279/3/4
f 264/3/4 265/3/4 280/3/4
f 280/3/4 265/3/4 281/3/4
f 266/3/4 267/3/4 282/3/4
f 282/3/4 267/3/4 283/3/4
f 268/3/4 269/3/4 284/3/4
f 284/3/4 269/3/4 285/3/4
f 270/3/4 271/3/4 286/3/4
f 286/3/4 271/3/4 287/3/4
f 272/3/4 273/3/4 288/3/4
f 288/3/4 273/3/4 289/3/4
f 284/1/4 285/1/4 291/1/4
f 283/2/4 284/2/4 291/2/4
f 285/2/4 286/2/4 292/2/4
f 291/1/4 285/1/4 292/1/4
f 286/1/4 287/1/4 293/1/4
f 288/1/4 289/1/4 294/1/4
f 289/2/4 290/2/4 295/2/4
f 294/1/4 289/1/4 295/1/4
f 280/1/4 281/1/4 296/1/4
f 279/2/4 280/2/4 296/2/4
f 281/2/4 282/2/4 297/2/4
f 296/1/4 281/1/4 297/1/4
f 283/2/4 291/2/4 298/2/4
f 291/2/4 292/2/4 298/2/4
f 292/2/4 286/2/4 299/2/4
f 298/2/4 292/2/4 299/2/4
f 293/2/4 294/2/4 300/2/4
f 294/2/4 295/2/4 300/2/4
f 295/2/4 290/2/4 301/2/4
f 300/2/4 295/2/4 301/2/4
f 279/2/4 296/2/4 302/2/4
f 296/2/4 297/2/4 302/2/4
f 297/2/4 282/2/4 303/2/4
f 302/2/4 297/2/4 303/2/4
f 299/2/4 286/2/4 304/2/4
f 286/1/4 293/1/4 304/1/4
f 293/2/4 300/2/4 305/2/4
f 304/1/4 293/1/4 305/1/4
f 299/2/4 304/2/4 306/2/4
f 304/2/4 305/2/4 306/2/4
f 305/2/4 300/2/4 307/2/4
f 306/2/4 305/2/4 307/2/4
f 274/1/4 275/1/4 308/1/4
f 275/2/4 276/2/4 309/2/4
f 308/1/4 275/1/4 309/1/4
f 282/1/4 283/1/4 310/1/4
f 303/2/4 282/2/4 310/2/4
f 283/2/4 298/2/4 311/2/4
f 310/1/4 283/1/4 311/1/4
f 308/2/4 309/2/4 312/2/4
f 276/1/4 277/1/4 313/1/4
f 312/2/4 309/2/4 313/2/4
f 309/2/4 276/2/4 313/2/4
f 277/2/4 278/2/4 314/2/4
f 313/1/4 277/1/4 314/1/4
f 278/1/4 279/1/4 315/1/4
f 314/2/4 278/2/4 315/2/4
f 279/2/4 302/2/4 316/2/4
f 315/1/4 279/1/4 316/1/4
f 302/1/4 303/1/4 317/1/4
f 316/2/4 302/2/4 317/2/4
f 303/2/4 310/2/4 318/2/4
f 317/1/4 303/1/4 318/1/4
f 310/2/4 311/2/4 318/2/4
f 311/2/4 298/2/4 319/2/4
f 318/2/4 311/2/4 319/2/4
f 298/1/4 299/1/4 319/1/4
f 299/2/4 306/2/4 320/2/4
f 319/1/4 299/1/4 320/1/4
f 306/1/4 307/1/4 321/1/4
f 320/2/4 306/2/4 321/2/4
f 307/2/4 300/2/4 322/2/4
f 321/1/4 307/1/4 322/1/4
f 300/1/4 301/1/4 323/1/4
f 322/2/4 300/2/4 323/2/4
f 301/2/4 290/2/4 324/2/4
f 323/1/4 301/1/4 324/1/4
f 324/2/4 290/2/4 325/2/4
f 329/1/5 328/1/5 327/1/5
f 331/3/5 327/3/5 326/3/5
f 332/1/5 329/1/5 327/1/5
f 332/3/5 327/3/5 331/3/5
f 333/2/5 330/2/5 329/2/5
f 333/1/5 329/1/5 332/1/5
f 334/2/5 330/2/5 333/2/5
f 338/3/5 336/3/5 335/3/5
f 338/1/5 337/1/5 336/1/5
f 339/1/5 337/1/5 338/1/5
f 340/3/5 338/3/5 335/3/5
f 341/3/5 338/3/5 340/3/5
f 345/3/5 343/3/5 342/3/5
f 345/1/5 344/1/5 343/1/5
f 346/1/5 344/1/5 345/1/5
f 347/3/5 345/3/5 342/3/5
f 348/3/5 345/3/5 347/3/5
f 354/3/5 350/3/5 349/3/5
f 354/1/5 351/1/5 350/1/5
f 355/1/5 351/1/5 354/1/5
f 356/1/5 353/1/5 352/1/5
f 357/1/5 353/1/5 356/1/5
f 358/3/5 354/3/5 349/3/5
f 359/3/5 354/3/5 358/3/5
f 363/3/5 361/3/5 360/3/5
f 363/1/5 362/1/5 361/1/5
f 364/1/5 362/1/5 363/1/5
f 365/3/5 363/3/5 360/3/5
f 366/3/5 363/3/5 365/3/5
f 372/3/5 368/3/5 367/3/5
f 372/1/5 369/1/5 368/1/5
f 373/1/5 369/1/5 372/1/5
f 374/1/5 371/1/5 370/1/5
f 375/1/5 371/1/5 374/1/5
f 376/3/5 372/3/5 367/3/5
f 377/3/5 372/3/5 376/3/5
f 383/3/5 379/3/5 378/3/5
f 383/1/5 380/1/5 379/1/5
f 384/1/5 380/1/5 383/1/5
f 385/1/5 382/1/5 381/1/5
f 386/1/5 382/1/5 385/1/5
f 387/3/5 383/3/5 378/3/5
f 388/3/5 383/3/5 387/3/5
f 394/1/5 391/1/5 390/1/5
f 395/1/5 393/1/5 392/1/5
f 396/1/5 393/1/5 395/1/5
f 397/3/5 390/3/5 389/3/5
f 398/1/5 394/1/5 390/1/5
f 398/3/5 390/3/5 397/3/5
f 399/1/5 394/1/5 398/1/5
f 400/3/6 401/3/6 403/3/6
f 401/1/6 402/1/6 403/1/6
f 403/1/6 402/1/6 404/1/6
f 400/3/6 403/3/6 405/3/6
f 405/3/6 403/3/6 406/3/6
f 407/3/6 408/3/6 410/3/6
f 408/1/6 409/1/6 410/1/6
f 410/1/6 409/1/6 411/1/6
f 407/3/6 410/3/6 412/3/6
f 412/3/6 410/3/6 413/3/6
f 414/3/6 415/3/6 417/3/6
f 415/1/6 416/1/6 417/1/6
f 417/1/6 416/1/6 418/1/6
f 414/3/6 417/3/6 419/3/6
f 419/3/6 417/3/6 420/3/6
f 421/3/6 422/3/6 426/3/6
f 422/1/6 423/1/6 426/1/6
f 426/1/6 423/1/6 427/1/6
f 424/1/6 425/1/6 428/1/6
f 428/1/6 425/1/6 429/1/6
f 421/3/6 426/3/6 430/3/6
f 430/3/6 426/3/6 431/3/6
f 432/3/6 433/3/6 435/3/6
f 433/1/6 434/1/6 435/1/6
f 435/1/6 434/1/6 436/1/6
f 432/3/6 435/3/6 437/3/6
f 437/3/6 435/3/6 438/3/6
f 439/3/6 440/3/6 444/3/6
f 440/1/6 441/1/6 444/1/6
f 444/1/6 441/1/6 445/1/6
f 442/1/6 443/1/6 446/1/6
f 446/1/6 443/1/6 447/1/6
f 439/3/6 444/3/6 448/3/6
f 448/3/6 444/3/6 449/3/6
f 451/1/6 452/1/6 455/1/6
f 455/1/6 452/1/6 456/1/6
f 453/1/6 454/1/6 457/1/6
f 457/1/6 454/1/6 458/1/6
f 450/3/6 451/3/6 459/3/6
f 451/1/6 455/1/6 460/1/6
f 459/3/6 451/3/6 460/3/6
f 460/1/6 455/1/6 461/1/6
f 462/3/6 463/3/6 467/3/6
f 463/1/6 464/1/6 467/1/6
f 467/1/6 464/1/6 468/1/6
f 465/1/6 466/1/6 469/1/6
f 469/1/6 466/1/6 470/1/6
f 462/3/6 467/3/6 471/3/6
f 471/3/6 467/3/6 472/3/6
f 473/2/6 474/2/6 475/2/6
f 475/2/6 474/2/6 476/2/6
