# MagicaVoxel @ Ephtracy

# group
o 

# material
mtllib stoneWallLedgeTip-0.mtl
usemtl palette

# normals
vn -1 0 0
vn 1 0 0
vn 0 0 1
vn 0 0 -1
vn 0 -1 0
vn 0 1 0

# texcoords
vt 0.919922 0.5
vt 0.935547 0.5

# verts
v 1.6 -2.4 -1.6
v 1.6 -2.4 -2.4
v 1.6 -1.9 -1.6
v 1.6 -1.9 -2.4
v 1.6 -1.8 -1.6
v 1.6 -1.8 -2.4
v 1.6 -1.3 -1.6
v 1.6 -1.3 -2.4
v 1.7 -1.9 -1.7
v 1.7 -1.9 -2.3
v 1.7 -1.8 -1.7
v 1.7 -1.8 -2.3
v 1.7 -1.3 -1.7
v 1.7 -1.3 -2.3
v 1.7 -1.2 -1.7
v 1.7 -1.2 -2.3
v 2.3 -2.4 -1.6
v 2.3 -2.4 -1.7
v 2.3 -2.4 -2.3
v 2.3 -2.4 -2.4
v 2.3 -1.9 -1.6
v 2.3 -1.9 -1.7
v 2.3 -1.9 -2.3
v 2.3 -1.9 -2.4
v 2.4 -2.4 -1.7
v 2.4 -2.4 -2.3
v 2.4 -1.8 -1.6
v 2.4 -1.8 -1.7
v 2.4 -1.8 -2.3
v 2.4 -1.8 -2.4
v 2.4 -1.3 -1.6
v 2.4 -1.3 -1.7
v 2.4 -1.3 -2.3
v 2.4 -1.3 -2.4
v 2.4 -1.2 -1.7
v 2.4 -1.2 -2.3
v 1.6 -2.4 -1.6
v 1.6 -1.9 -1.6
v 1.6 -1.8 -1.6
v 1.6 -1.3 -1.6
v 2.3 -2.4 -1.6
v 2.3 -1.9 -1.6
v 2.4 -1.8 -1.6
v 2.4 -1.3 -1.6
v 1.7 -1.9 -1.7
v 1.7 -1.8 -1.7
v 1.7 -1.3 -1.7
v 1.7 -1.2 -1.7
v 2.3 -2.4 -1.7
v 2.3 -1.9 -1.7
v 2.4 -2.4 -1.7
v 2.4 -1.8 -1.7
v 2.4 -1.3 -1.7
v 2.4 -1.2 -1.7
v 1.7 -1.9 -2.3
v 1.7 -1.8 -2.3
v 1.7 -1.3 -2.3
v 1.7 -1.2 -2.3
v 2.3 -2.4 -2.3
v 2.3 -1.9 -2.3
v 2.4 -2.4 -2.3
v 2.4 -1.8 -2.3
v 2.4 -1.3 -2.3
v 2.4 -1.2 -2.3
v 1.6 -2.4 -2.4
v 1.6 -1.9 -2.4
v 1.6 -1.8 -2.4
v 1.6 -1.3 -2.4
v 2.3 -2.4 -2.4
v 2.3 -1.9 -2.4
v 2.4 -1.8 -2.4
v 2.4 -1.3 -2.4
v 1.6 -2.4 -1.6
v 2.3 -2.4 -1.6
v 2.3 -2.4 -1.7
v 2.4 -2.4 -1.7
v 2.3 -2.4 -2.3
v 2.4 -2.4 -2.3
v 1.6 -2.4 -2.4
v 2.3 -2.4 -2.4
v 1.6 -1.8 -1.6
v 2.4 -1.8 -1.6
v 1.7 -1.8 -1.7
v 2.4 -1.8 -1.7
v 1.7 -1.8 -2.3
v 2.4 -1.8 -2.3
v 1.6 -1.8 -2.4
v 2.4 -1.8 -2.4
v 1.6 -1.9 -1.6
v 2.3 -1.9 -1.6
v 1.7 -1.9 -1.7
v 2.3 -1.9 -1.7
v 1.7 -1.9 -2.3
v 2.3 -1.9 -2.3
v 1.6 -1.9 -2.4
v 2.3 -1.9 -2.4
v 1.6 -1.3 -1.6
v 2.4 -1.3 -1.6
v 1.7 -1.3 -1.7
v 2.4 -1.3 -1.7
v 1.7 -1.3 -2.3
v 2.4 -1.3 -2.3
v 1.6 -1.3 -2.4
v 2.4 -1.3 -2.4
v 1.7 -1.2 -1.7
v 2.4 -1.2 -1.7
v 1.7 -1.2 -2.3
v 2.4 -1.2 -2.3

# faces
f 3/1/1 2/1/1 1/1/1
f 4/1/1 2/1/1 3/1/1
f 7/1/1 6/1/1 5/1/1
f 8/1/1 6/1/1 7/1/1
f 11/2/1 10/2/1 9/2/1
f 12/2/1 10/2/1 11/2/1
f 15/2/1 14/2/1 13/2/1
f 16/2/1 14/2/1 15/2/1
f 17/1/2 18/1/2 21/1/2
f 21/1/2 18/1/2 22/1/2
f 19/1/2 20/1/2 23/1/2
f 23/1/2 20/1/2 24/1/2
f 25/2/2 26/2/2 28/2/2
f 28/2/2 26/2/2 29/2/2
f 27/1/2 28/1/2 31/1/2
f 29/1/2 30/1/2 31/1/2
f 28/1/2 29/1/2 31/1/2
f 31/1/2 30/1/2 32/1/2
f 32/1/2 30/1/2 33/1/2
f 33/1/2 30/1/2 34/1/2
f 32/2/2 33/2/2 35/2/2
f 35/2/2 33/2/2 36/2/2
f 41/1/3 38/1/3 37/1/3
f 42/1/3 38/1/3 41/1/3
f 43/1/3 40/1/3 39/1/3
f 44/1/3 40/1/3 43/1/3
f 50/2/3 46/2/3 45/2/3
f 51/2/3 50/2/3 49/2/3
f 52/2/3 46/2/3 50/2/3
f 52/2/3 50/2/3 51/2/3
f 53/2/3 48/2/3 47/2/3
f 54/2/3 48/2/3 53/2/3
f 55/2/4 56/2/4 60/2/4
f 59/2/4 60/2/4 61/2/4
f 60/2/4 56/2/4 62/2/4
f 61/2/4 60/2/4 62/2/4
f 57/2/4 58/2/4 63/2/4
f 63/2/4 58/2/4 64/2/4
f 65/1/4 66/1/4 69/1/4
f 69/1/4 66/1/4 70/1/4
f 67/1/4 68/1/4 71/1/4
f 71/1/4 68/1/4 72/1/4
f 75/1/5 74/1/5 73/1/5
f 77/1/5 75/1/5 73/1/5
f 77/2/5 76/2/5 75/2/5
f 78/2/5 76/2/5 77/2/5
f 79/1/5 77/1/5 73/1/5
f 80/1/5 77/1/5 79/1/5
f 83/1/5 82/1/5 81/1/5
f 84/1/5 82/1/5 83/1/5
f 85/1/5 83/1/5 81/1/5
f 87/1/5 85/1/5 81/1/5
f 87/1/5 86/1/5 85/1/5
f 88/1/5 86/1/5 87/1/5
f 89/1/6 90/1/6 91/1/6
f 91/1/6 90/1/6 92/1/6
f 89/1/6 91/1/6 93/1/6
f 89/1/6 93/1/6 95/1/6
f 93/1/6 94/1/6 95/1/6
f 95/1/6 94/1/6 96/1/6
f 97/1/6 98/1/6 99/1/6
f 99/1/6 98/1/6 100/1/6
f 97/1/6 99/1/6 101/1/6
f 97/1/6 101/1/6 103/1/6
f 101/1/6 102/1/6 103/1/6
f 103/1/6 102/1/6 104/1/6
f 105/2/6 106/2/6 107/2/6
f 107/2/6 106/2/6 108/2/6
