# MagicaVoxel @ Ephtracy

# group
o 

# material
mtllib apple.mtl
usemtl palette

# normals
vn -1 0 0
vn 1 0 0
vn 0 0 1
vn 0 0 -1
vn 0 -1 0
vn 0 1 0

# texcoords
vt 0.115234 0.5
vt 0.146484 0.5
vt 0.185547 0.5
vt 0.583984 0.5

# verts
v -0.2 -0.2 0
v -0.2 -0.2 -0.1
v -0.2 -0.1 0.1
v -0.2 -0.1 0
v -0.2 -0.1 -0.1
v -0.2 -0.1 -0.2
v -0.2 0.1 0.1
v -0.2 0.1 0
v -0.2 0.1 -0.2
v -0.1 -0.2 0.1
v -0.1 -0.2 0
v -0.1 -0.2 -0.1
v -0.1 -0.2 -0.2
v -0.1 -0.1 0.1
v -0.1 -0.1 0
v -0.1 -0.1 -0.1
v -0.1 -0.1 -0.2
v -0.1 0.1 0
v -0.1 0.1 -0.1
v -0.1 0.2 0
v -0.1 0.2 -0.1
v 0 -0.2 0.1
v 0 -0.2 0
v 0 -0.2 -0.1
v 0 -0.2 -0.2
v 0 -0.1 0.1
v 0 -0.1 0
v 0 -0.1 -0.1
v 0 -0.1 -0.2
v 0.1 -0.2 0
v 0.1 -0.2 -0.1
v 0.1 -0.1 0.1
v 0.1 -0.1 0
v 0.1 -0.1 -0.1
v 0.1 -0.1 -0.2
v 0.1 0 0
v 0.1 0 -0.1
v 0.1 0.1 0.1
v 0.1 0.1 0
v 0.1 0.1 -0.1
v 0.1 0.1 -0.2
v 0.1 0.2 0
v 0.1 0.2 -0.1
v -0.2 -0.1 0.1
v -0.2 0.1 0.1
v -0.1 -0.2 0.1
v -0.1 -0.1 0.1
v -0.1 0 0.1
v -0.1 0.1 0.1
v 0 -0.2 0.1
v 0 -0.1 0.1
v 0 0 0.1
v 0.1 -0.1 0.1
v 0.1 0.1 0.1
v -0.2 -0.2 0
v -0.2 -0.1 0
v -0.1 -0.2 0
v -0.1 -0.1 0
v -0.1 0.1 0
v -0.1 0.2 0
v 0 -0.2 0
v 0 -0.1 0
v 0 0.1 0
v 0 0.2 0
v 0.1 -0.2 0
v 0.1 -0.1 0
v 0.1 0.1 0
v 0.1 0.2 0
v -0.2 -0.2 -0.1
v -0.2 -0.1 -0.1
v -0.1 -0.2 -0.1
v -0.1 -0.1 -0.1
v -0.1 0.1 -0.1
v -0.1 0.2 -0.1
v 0 -0.2 -0.1
v 0 -0.1 -0.1
v 0 0.1 -0.1
v 0 0.2 -0.1
v 0.1 -0.2 -0.1
v 0.1 -0.1 -0.1
v 0.1 0.1 -0.1
v 0.1 0.2 -0.1
v -0.2 -0.1 -0.2
v -0.2 0.1 -0.2
v -0.1 -0.2 -0.2
v -0.1 -0.1 -0.2
v -0.1 0 -0.2
v -0.1 0.1 -0.2
v 0 -0.2 -0.2
v 0 -0.1 -0.2
v 0 0 -0.2
v 0.1 -0.1 -0.2
v 0.1 0.1 -0.2
v -0.1 -0.2 0.1
v 0 -0.2 0.1
v -0.2 -0.2 0
v -0.1 -0.2 0
v 0 -0.2 0
v 0.1 -0.2 0
v -0.2 -0.2 -0.1
v -0.1 -0.2 -0.1
v 0 -0.2 -0.1
v 0.1 -0.2 -0.1
v -0.1 -0.2 -0.2
v 0 -0.2 -0.2
v -0.2 -0.1 0.1
v -0.1 -0.1 0.1
v 0 -0.1 0.1
v 0.1 -0.1 0.1
v -0.2 -0.1 0
v -0.1 -0.1 0
v 0 -0.1 0
v 0.1 -0.1 0
v -0.2 -0.1 -0.1
v -0.1 -0.1 -0.1
v 0 -0.1 -0.1
v 0.1 -0.1 -0.1
v -0.2 -0.1 -0.2
v -0.1 -0.1 -0.2
v 0 -0.1 -0.2
v 0.1 -0.1 -0.2
v -0.2 0.1 0.1
v -0.1 0.1 0.1
v 0.1 0.1 0.1
v -0.2 0.1 0
v -0.1 0.1 0
v 0 0.1 0
v 0.1 0.1 0
v -0.1 0.1 -0.1
v 0 0.1 -0.1
v 0.1 0.1 -0.1
v -0.2 0.1 -0.2
v -0.1 0.1 -0.2
v 0.1 0.1 -0.2
v -0.1 0.2 0
v 0 0.2 0
v 0.1 0.2 0
v -0.1 0.2 -0.1
v 0 0.2 -0.1
v 0.1 0.2 -0.1

# faces
f 4/2/1 2/2/1 1/2/1
f 5/2/1 2/2/1 4/2/1
f 7/1/1 4/1/1 3/1/1
f 8/2/1 6/2/1 5/2/1
f 8/1/1 4/1/1 7/1/1
f 8/2/1 5/2/1 4/2/1
f 9/2/1 6/2/1 8/2/1
f 14/1/1 11/1/1 10/1/1
f 15/1/1 11/1/1 14/1/1
f 16/2/1 13/2/1 12/2/1
f 17/2/1 13/2/1 16/2/1
f 20/3/1 19/3/1 18/3/1
f 21/3/1 19/3/1 20/3/1
f 22/1/2 23/1/2 26/1/2
f 26/1/2 23/1/2 27/1/2
f 24/2/2 25/2/2 28/2/2
f 28/2/2 25/2/2 29/2/2
f 30/2/2 31/2/2 33/2/2
f 33/2/2 31/2/2 34/2/2
f 32/2/2 33/2/2 36/2/2
f 33/2/2 34/2/2 36/2/2
f 34/1/2 35/1/2 37/1/2
f 36/2/2 34/2/2 37/2/2
f 32/2/2 36/2/2 38/2/2
f 36/1/2 37/1/2 39/1/2
f 38/2/2 36/2/2 39/2/2
f 37/1/2 35/1/2 40/1/2
f 39/1/2 37/1/2 40/1/2
f 40/1/2 35/1/2 41/1/2
f 39/4/2 40/4/2 42/4/2
f 42/4/2 40/4/2 43/4/2
f 47/1/3 45/1/3 44/1/3
f 48/1/3 45/1/3 47/1/3
f 49/1/3 45/1/3 48/1/3
f 50/1/3 47/1/3 46/1/3
f 50/1/3 48/1/3 47/1/3
f 51/1/3 48/1/3 50/1/3
f 52/2/3 49/2/3 48/2/3
f 52/1/3 48/1/3 51/1/3
f 53/2/3 52/2/3 51/2/3
f 54/2/3 49/2/3 52/2/3
f 54/2/3 52/2/3 53/2/3
f 57/2/3 56/2/3 55/2/3
f 58/2/3 56/2/3 57/2/3
f 63/3/3 60/3/3 59/3/3
f 64/3/3 60/3/3 63/3/3
f 65/2/3 62/2/3 61/2/3
f 66/2/3 62/2/3 65/2/3
f 67/4/3 64/4/3 63/4/3
f 68/4/3 64/4/3 67/4/3
f 69/2/4 70/2/4 71/2/4
f 71/2/4 70/2/4 72/2/4
f 73/3/4 74/3/4 77/3/4
f 77/3/4 74/3/4 78/3/4
f 75/2/4 76/2/4 79/2/4
f 79/2/4 76/2/4 80/2/4
f 77/4/4 78/4/4 81/4/4
f 81/4/4 78/4/4 82/4/4
f 83/2/4 84/2/4 86/2/4
f 86/2/4 84/2/4 87/2/4
f 87/2/4 84/2/4 88/2/4
f 85/2/4 86/2/4 89/2/4
f 86/2/4 87/2/4 89/2/4
f 89/2/4 87/2/4 90/2/4
f 87/1/4 88/1/4 91/1/4
f 90/2/4 87/2/4 91/2/4
f 90/1/4 91/1/4 92/1/4
f 91/1/4 88/1/4 93/1/4
f 92/1/4 91/1/4 93/1/4
f 97/1/5 95/1/5 94/1/5
f 98/1/5 95/1/5 97/1/5
f 100/2/5 97/2/5 96/2/5
f 100/2/5 99/2/5 98/2/5
f 100/2/5 98/2/5 97/2/5
f 101/2/5 99/2/5 100/2/5
f 102/2/5 99/2/5 101/2/5
f 103/2/5 99/2/5 102/2/5
f 104/2/5 102/2/5 101/2/5
f 105/2/5 102/2/5 104/2/5
f 110/1/5 107/1/5 106/1/5
f 111/1/5 107/1/5 110/1/5
f 112/2/5 109/2/5 108/2/5
f 113/2/5 109/2/5 112/2/5
f 118/2/5 115/2/5 114/2/5
f 119/2/5 115/2/5 118/2/5
f 120/1/5 117/1/5 116/1/5
f 121/1/5 117/1/5 120/1/5
f 122/1/6 123/1/6 125/1/6
f 123/2/6 124/2/6 126/2/6
f 125/1/6 123/1/6 126/1/6
f 126/2/6 124/2/6 127/2/6
f 127/2/6 124/2/6 128/2/6
f 125/2/6 126/2/6 129/2/6
f 125/2/6 129/2/6 132/2/6
f 130/1/6 131/1/6 133/1/6
f 132/2/6 129/2/6 133/2/6
f 129/1/6 130/1/6 133/1/6
f 133/1/6 131/1/6 134/1/6
f 135/3/6 136/3/6 138/3/6
f 136/4/6 137/4/6 139/4/6
f 138/3/6 136/3/6 139/3/6
f 139/4/6 137/4/6 140/4/6
