# Blender v2.90.0 OBJ File: ''
# www.blender.org
mtllib plantATest.mtl
o plantAtest
v -5.000001 1.200000 0.000000
v -5.000001 1.200000 -0.625000
v -0.625000 1.400000 4.375001
v 0.000000 1.400000 4.375001
v -1.250000 1.500000 3.750001
v -0.625000 1.500000 3.750001
v 0.000000 1.500000 3.750001
v 0.625000 1.500000 3.750001
v 1.250000 1.500000 3.750001
v -1.250000 1.500000 3.125000
v -0.625000 1.500000 3.125000
v 0.000000 1.500000 3.125000
v 0.625000 1.500000 3.125000
v 1.250000 1.500000 3.125000
v -1.250000 1.400000 2.500000
v -0.625000 1.400000 2.500000
v 0.000000 1.400000 2.500000
v 0.625000 1.400000 2.500000
v 1.250000 1.400000 2.500000
v -1.250000 1.200000 1.875000
v -0.625000 1.200000 1.875000
v 0.000000 1.200000 1.875000
v 0.625000 1.200000 1.875000
v 1.250000 1.200000 1.875000
v -3.750001 1.500000 1.250000
v -3.125001 1.500000 1.250000
v -2.500000 1.400000 1.250000
v -1.875000 1.200000 1.250000
v -0.625000 0.900000 1.250000
v 0.000000 0.900000 1.250000
v 0.625000 0.900000 1.250000
v 1.875000 1.200000 1.250000
v 2.500000 1.400001 1.250000
v 3.125000 1.500001 1.250000
v 3.750000 1.500001 1.250000
v -3.750001 1.500000 0.625000
v -3.125001 1.500000 0.625000
v -2.500000 1.400000 0.625000
v -1.875000 1.200000 0.625000
v -1.250000 0.900000 0.625000
v -0.625000 0.500000 0.625000
v 0.000000 0.500000 0.625000
v 0.625000 0.500000 0.625000
v 1.250000 0.900000 0.625000
v 1.875000 1.200000 0.625000
v 2.500000 1.400001 0.625000
v 3.125000 1.500001 0.625000
v 3.750000 1.500001 0.625000
v 4.375001 1.400001 0.625000
v -4.375001 1.399999 0.000000
v -3.750001 1.500000 0.000000
v -3.125001 1.500000 0.000000
v -2.500000 1.400000 0.000000
v -1.875000 1.200000 0.000000
v -1.250000 0.900000 0.000000
v -0.625000 0.500000 0.000000
v 0.000000 0.000000 0.000000
v 0.625000 0.500000 -0.000000
v 1.250000 0.900000 -0.000000
v 1.875000 1.200000 -0.000000
v 2.500000 1.400001 -0.000000
v 3.125000 1.500001 -0.000000
v 3.750000 1.500001 -0.000000
v 4.375001 1.400001 -0.000000
v -4.375001 1.400000 -0.625000
v -3.750001 1.500000 -0.625000
v -3.125001 1.500000 -0.625000
v -2.500000 1.400000 -0.625000
v -1.875000 1.200000 -0.625000
v -1.250000 0.900000 -0.625000
v -0.625000 0.500000 -0.625000
v -0.000000 0.500000 -0.625000
v 0.625000 0.500000 -0.625000
v 1.250000 0.900000 -0.625000
v 1.875000 1.200001 -0.625000
v 2.500000 1.400001 -0.625000
v 3.125000 1.500001 -0.625000
v 3.750000 1.500001 -0.625000
v -3.750001 1.500000 -1.250000
v -3.125001 1.500000 -1.250000
v -2.500000 1.400000 -1.250000
v -1.875000 1.200000 -1.250000
v -0.625000 0.900000 -1.250000
v -0.000000 0.900000 -1.250000
v 0.625000 0.900000 -1.250000
v 1.875000 1.200001 -1.250000
v 2.500000 1.400001 -1.250000
v 3.125000 1.500001 -1.250000
v 3.750000 1.500001 -1.250000
v -1.250000 1.200000 -1.875000
v -0.625000 1.200000 -1.875000
v -0.000000 1.200000 -1.875000
v 0.625000 1.200000 -1.875000
v 1.250000 1.200000 -1.875000
v -1.250000 1.400000 -2.500000
v -0.625000 1.400000 -2.500000
v -0.000000 1.400000 -2.500000
v 0.625000 1.400000 -2.500000
v 1.250000 1.400001 -2.500000
v -0.625000 1.500000 -3.125000
v -0.000000 1.500000 -3.125000
v 0.625000 1.500001 -3.125000
v 1.250000 1.500001 -3.125000
v -0.625000 1.500000 -3.750001
v -0.000000 1.500000 -3.750001
v 0.625000 1.500001 -3.750001
v 1.250000 1.500001 -3.750001
v -0.000000 1.400000 -4.375001
v 0.625000 1.400000 -4.375001
vt 0.062500 0.437500
vt 0.125000 0.437500
vt 0.125000 0.500000
vt 0.062500 0.500000
vt 0.125000 0.375000
vt 0.187500 0.375000
vt 0.187500 0.437500
vt 0.187500 0.500000
vt 0.125000 0.562500
vt 0.187500 0.562500
vt 0.187500 0.625000
vt 0.125000 0.625000
vt 0.250000 0.437500
vt 0.250000 0.500000
vt 0.250000 0.562500
vt 0.250000 0.375000
vt 0.312500 0.375000
vt 0.312500 0.437500
vt 0.312500 0.500000
vt 0.312500 0.562500
vt 0.312500 0.625000
vt 0.250000 0.625000
vt 0.375000 0.437500
vt 0.375000 0.500000
vt 0.375000 0.562500
vt 0.375000 0.125000
vt 0.437500 0.125000
vt 0.437500 0.187500
vt 0.375000 0.187500
vt 0.375000 0.250000
vt 0.437500 0.250000
vt 0.437500 0.312500
vt 0.375000 0.312500
vt 0.437500 0.437500
vt 0.437500 0.500000
vt 0.437500 0.562500
vt 0.375000 0.687500
vt 0.437500 0.687500
vt 0.437500 0.750000
vt 0.375000 0.750000
vt 0.375000 0.812500
vt 0.437500 0.812500
vt 0.437500 0.875000
vt 0.375000 0.875000
vt 0.500000 0.187500
vt 0.500000 0.250000
vt 0.500000 0.312500
vt 0.500000 0.375000
vt 0.437500 0.375000
vt 0.500000 0.437500
vt 0.500000 0.500000
vt 0.500000 0.562500
vt 0.500000 0.625000
vt 0.437500 0.625000
vt 0.500000 0.687500
vt 0.500000 0.750000
vt 0.500000 0.812500
vt 0.500000 0.875000
vt 0.500000 0.937500
vt 0.437500 0.937500
vt 0.500000 0.000000
vt 0.562500 0.000000
vt 0.562500 0.062500
vt 0.500000 0.062500
vt 0.562500 0.125000
vt 0.500000 0.125000
vt 0.562500 0.187500
vt 0.562500 0.250000
vt 0.562500 0.312500
vt 0.562500 0.375000
vt 0.562500 0.437500
vt 0.562500 0.500000
vt 0.562500 0.562500
vt 0.562500 0.625000
vt 0.562500 0.687500
vt 0.562500 0.750000
vt 0.562500 0.812500
vt 0.625000 0.125000
vt 0.625000 0.187500
vt 0.625000 0.250000
vt 0.625000 0.312500
vt 0.625000 0.437500
vt 0.625000 0.500000
vt 0.625000 0.562500
vt 0.625000 0.687500
vt 0.625000 0.750000
vt 0.625000 0.812500
vt 0.625000 0.875000
vt 0.562500 0.875000
vt 0.687500 0.437500
vt 0.687500 0.500000
vt 0.687500 0.562500
vt 0.687500 0.375000
vt 0.750000 0.375000
vt 0.750000 0.437500
vt 0.750000 0.500000
vt 0.750000 0.562500
vt 0.750000 0.625000
vt 0.687500 0.625000
vt 0.812500 0.500000
vt 0.812500 0.562500
vt 0.812500 0.437500
vt 0.875000 0.437500
vt 0.875000 0.500000
vt 0.875000 0.562500
vt 0.875000 0.625000
vt 0.812500 0.625000
vt 0.937500 0.500000
vt 0.937500 0.562500
vn 0.0000 -0.9874 -0.1580
vn 0.0000 -1.0000 -0.0000
vn 0.0000 -0.9874 0.1580
vn 0.0000 -0.9524 0.3048
vn 0.0000 -0.9015 0.4327
vn -0.3048 -0.9524 -0.0000
vn 0.0000 -0.8423 0.5391
vn 0.3048 -0.9524 0.0000
vn -0.1580 -0.9874 0.0000
vn -0.4327 -0.9015 -0.0000
vn -0.5391 -0.8423 -0.0000
vn -0.3482 -0.8704 0.3482
vn 0.3482 -0.8704 0.3482
vn 0.5391 -0.8423 -0.0000
vn 0.4327 -0.9015 0.0000
vn 0.1580 -0.9874 0.0000
vn -0.3482 -0.8704 -0.3482
vn 0.3482 -0.8704 -0.3482
vn 0.0000 -0.8423 -0.5391
vn 0.0000 -0.9015 -0.4327
vn 0.0000 -0.9524 -0.3048
usemtl plantAtest
s off
f 3/1/1 6/2/1 7/3/1 4/4/1
f 5/5/2 10/6/2 11/7/2 6/2/2
f 6/2/2 11/7/2 12/8/2 7/3/2
f 8/9/2 13/10/2 14/11/2 9/12/2
f 11/7/3 16/13/3 17/14/3 12/8/3
f 12/8/3 17/14/3 18/15/3 13/10/3
f 15/16/4 20/17/4 21/18/4 16/13/4
f 16/13/4 21/18/4 22/19/4 17/14/4
f 17/14/4 22/19/4 23/20/4 18/15/4
f 18/15/4 23/20/4 24/21/4 19/22/4
f 21/18/5 29/23/5 30/24/5 22/19/5
f 22/19/5 30/24/5 31/25/5 23/20/5
f 25/26/2 36/27/2 37/28/2 26/29/2
f 27/30/6 38/31/6 39/32/6 28/33/6
f 29/23/7 41/34/7 42/35/7 30/24/7
f 30/24/7 42/35/7 43/36/7 31/25/7
f 32/37/8 45/38/8 46/39/8 33/40/8
f 34/41/2 47/42/2 48/43/2 35/44/2
f 37/28/9 52/45/9 53/46/9 38/31/9
f 38/31/6 53/46/6 54/47/6 39/32/6
f 39/32/10 54/47/10 55/48/10 40/49/10
f 40/49/11 55/48/11 56/50/11 41/34/11
f 41/34/12 56/50/12 57/51/12 42/35/12
f 42/35/13 57/51/13 58/52/13 43/36/13
f 43/36/14 58/52/14 59/53/14 44/54/14
f 44/54/15 59/53/15 60/55/15 45/38/15
f 45/38/8 60/55/8 61/56/8 46/39/8
f 46/39/16 61/56/16 62/57/16 47/42/16
f 47/42/2 62/57/2 63/58/2 48/43/2
f 48/43/9 63/58/9 64/59/9 49/60/9
f 1/61/8 2/62/8 65/63/8 50/64/8
f 50/64/16 65/63/16 66/65/16 51/66/16
f 51/66/2 66/65/2 67/67/2 52/45/2
f 52/45/9 67/67/9 68/68/9 53/46/9
f 53/46/6 68/68/6 69/69/6 54/47/6
f 54/47/10 69/69/10 70/70/10 55/48/10
f 55/48/11 70/70/11 71/71/11 56/50/11
f 56/50/17 71/71/17 72/72/17 57/51/17
f 57/51/18 72/72/18 73/73/18 58/52/18
f 58/52/14 73/73/14 74/74/14 59/53/14
f 59/53/15 74/74/15 75/75/15 60/55/15
f 60/55/8 75/75/8 76/76/8 61/56/8
f 61/56/16 76/76/16 77/77/16 62/57/16
f 66/65/2 79/78/2 80/79/2 67/67/2
f 68/68/6 81/80/6 82/81/6 69/69/6
f 71/71/19 83/82/19 84/83/19 72/72/19
f 72/72/19 84/83/19 85/84/19 73/73/19
f 75/75/8 86/85/8 87/86/8 76/76/8
f 77/77/2 88/87/2 89/88/2 78/89/2
f 83/82/20 91/90/20 92/91/20 84/83/20
f 84/83/20 92/91/20 93/92/20 85/84/20
f 90/93/21 95/94/21 96/95/21 91/90/21
f 91/90/21 96/95/21 97/96/21 92/91/21
f 92/91/21 97/96/21 98/97/21 93/92/21
f 93/92/21 98/97/21 99/98/21 94/99/21
f 97/96/1 101/100/1 102/101/1 98/97/1
f 100/102/2 104/103/2 105/104/2 101/100/2
f 101/100/2 105/104/2 106/105/2 102/101/2
f 102/101/2 106/105/2 107/106/2 103/107/2
f 105/104/3 108/108/3 109/109/3 106/105/3
