# MagicaVoxel @ Ephtracy

# group
o 

# material
mtllib japaneseGate-0.mtl
usemtl palette

# normals
vn -1 0 0
vn 1 0 0
vn 0 0 1
vn 0 0 -1
vn 0 -1 0
vn 0 1 0

# texcoords
vt 0.208984 0.5
vt 0.560547 0.5
vt 0.583984 0.5
vt 0.990234 0.5

# verts
v -0.9 2.3 2.4
v -0.9 2.3 -2.4
v -0.9 2.4 2.4
v -0.9 2.4 -2.4
v -0.8 2 2.4
v -0.8 2 -2.4
v -0.8 2.3 2.4
v -0.8 2.3 -2.4
v -0.7 -2.4 1.8
v -0.7 -2.4 1.4
v -0.7 -2.4 -1.4
v -0.7 -2.4 -1.8
v -0.7 -2.3 2.4
v -0.7 -2.3 1.8
v -0.7 -2.3 -1.8
v -0.7 -2.3 -2.4
v -0.7 -2.1 2.4
v -0.7 -2.1 1.8
v -0.7 -2.1 -1.8
v -0.7 -2.1 -2.4
v -0.7 -1.2 2.4
v -0.7 -1.2 1.8
v -0.7 -1.2 -1.8
v -0.7 -1.2 -2.4
v -0.7 -1 2.4
v -0.7 -1 1.8
v -0.7 -1 -1.8
v -0.7 -1 -2.4
v -0.7 1.3 2.4
v -0.7 1.3 1.8
v -0.7 1.3 1.4
v -0.7 1.3 -1.4
v -0.7 1.3 -1.8
v -0.7 1.3 -2.4
v -0.7 1.6 2.4
v -0.7 1.6 1.8
v -0.7 1.6 1.4
v -0.7 1.6 -1.4
v -0.7 1.6 -1.8
v -0.7 1.6 -2.4
v -0.7 2 1.8
v -0.7 2 1.4
v -0.7 2 -1.4
v -0.7 2 -1.8
v -0.6 -2.4 2.4
v -0.6 -2.4 2.2
v -0.6 -2.4 2.1
v -0.6 -2.4 1.9
v -0.6 -2.4 -1.8
v -0.6 -2.4 -2
v -0.6 -2.4 -2.1
v -0.6 -2.4 -2.3
v -0.6 -2.3 2.4
v -0.6 -2.3 2.2
v -0.6 -2.3 2.1
v -0.6 -2.3 1.9
v -0.6 -2.3 -1.8
v -0.6 -2.3 -2
v -0.6 -2.3 -2.1
v -0.6 -2.3 -2.3
v -0.6 -2.1 2.4
v -0.6 -2.1 2.2
v -0.6 -2.1 2.1
v -0.6 -2.1 1.9
v -0.6 -2.1 -1.8
v -0.6 -2.1 -2
v -0.6 -2.1 -2.1
v -0.6 -2.1 -2.3
v -0.6 -2 -1.8
v -0.6 -2 -2
v -0.6 -1.9 -1.8
v -0.6 -1.9 -2
v -0.6 -1.4 2.4
v -0.6 -1.4 2.2
v -0.6 -1.3 2.4
v -0.6 -1.3 2.2
v -0.6 -1.2 2.4
v -0.6 -1.2 2.2
v -0.6 -1.2 2.1
v -0.6 -1.2 1.9
v -0.6 -1.2 -1.8
v -0.6 -1.2 -2
v -0.6 -1.2 -2.1
v -0.6 -1.2 -2.3
v -0.6 -1 2.4
v -0.6 -1 2.2
v -0.6 -1 2.1
v -0.6 -1 1.9
v -0.6 -1 -1.8
v -0.6 -1 -2
v -0.6 -1 -2.1
v -0.6 -1 -2.3
v -0.6 -0.9 2.1
v -0.6 -0.9 1.9
v -0.6 -0.9 -2.1
v -0.6 -0.9 -2.3
v -0.6 -0.8 2.1
v -0.6 -0.8 1.9
v -0.6 -0.7 2.4
v -0.6 -0.7 2.2
v -0.6 -0.6 -2.1
v -0.6 -0.6 -2.3
v -0.6 -0.5 2.1
v -0.6 -0.5 1.9
v -0.6 -0.5 -1.8
v -0.6 -0.5 -2
v -0.6 -0.4 -1.8
v -0.6 -0.4 -2
v -0.6 -0.3 -1.8
v -0.6 -0.3 -2
v -0.6 1.6 0.0999999
v -0.6 1.6 -0.1
v -0.6 2 0.0999999
v -0.6 2 -0.1
v -0.5 -2.3 2.2
v -0.5 -2.3 2.1
v -0.5 -2.3 1.9
v -0.5 -2.3 1.8
v -0.5 -2.3 -2
v -0.5 -2.3 -2.1
v -0.5 -2.3 -2.3
v -0.5 -2.3 -2.4
v -0.5 -2.2 2.1
v -0.5 -2.2 1.9
v -0.5 -2.1 2.2
v -0.5 -2.1 2.1
v -0.5 -2.1 1.9
v -0.5 -2.1 1.8
v -0.5 -2.1 -2
v -0.5 -2.1 -2.1
v -0.5 -2.1 -2.3
v -0.5 -2.1 -2.4
v -0.5 -1.2 2.2
v -0.5 -1.2 2.1
v -0.5 -1.2 1.9
v -0.5 -1.2 1.8
v -0.5 -1.2 -2
v -0.5 -1.2 -2.1
v -0.5 -1.2 -2.3
v -0.5 -1.2 -2.4
v -0.5 -1 2.2
v -0.5 -1 2.1
v -0.5 -1 1.9
v -0.5 -1 1.8
v -0.5 -1 -2
v -0.5 -1 -2.1
v -0.5 -1 -2.3
v -0.5 -1 -2.4
v -0.4 -2.4 2.4
v -0.4 -2.4 2.2
v -0.4 -2.4 2.1
v -0.4 -2.4 1.9
v -0.4 -2.4 -1.8
v -0.4 -2.4 -2
v -0.4 -2.4 -2.1
v -0.4 -2.4 -2.3
v -0.4 -2.3 2.1
v -0.4 -2.3 1.9
v -0.4 -2.2 2.1
v -0.4 -2.2 1.9
v -0.4 -2 -1.8
v -0.4 -2 -2
v -0.4 -1.9 -1.8
v -0.4 -1.9 -2
v -0.4 -1.4 2.4
v -0.4 -1.4 2.2
v -0.4 -1.3 2.4
v -0.4 -1.3 2.2
v -0.4 -1 -2.1
v -0.4 -1 -2.3
v -0.4 -0.9 2.1
v -0.4 -0.9 1.9
v -0.4 -0.9 -2.1
v -0.4 -0.9 -2.3
v -0.4 -0.8 2.1
v -0.4 -0.8 1.9
v -0.4 -0.7 2.4
v -0.4 -0.7 2.2
v -0.4 -0.6 -2.1
v -0.4 -0.6 -2.3
v -0.4 -0.5 2.1
v -0.4 -0.5 1.9
v -0.4 -0.5 -1.8
v -0.4 -0.5 -2
v -0.4 -0.4 -1.8
v -0.4 -0.4 -2
v -0.4 -0.3 -1.8
v -0.4 -0.3 -2
v -0.4 1.6 0.0999999
v -0.4 1.6 -0.1
v -0.4 2 0.0999999
v -0.4 2 -0.1
v -0.3 -2.4 1.8
v -0.3 -2.4 1.4
v -0.3 -2.4 -1.4
v -0.3 -2.4 -1.8
v -0.3 1.3 2.4
v -0.3 1.3 1.8
v -0.3 1.3 1.4
v -0.3 1.3 -1.4
v -0.3 1.3 -1.8
v -0.3 1.3 -2.4
v -0.3 1.6 2.4
v -0.3 1.6 1.8
v -0.3 1.6 1.4
v -0.3 1.6 -1.4
v -0.3 1.6 -1.8
v -0.3 1.6 -2.4
v -0.3 2 1.8
v -0.3 2 1.4
v -0.3 2 -1.4
v -0.3 2 -1.8
v -0.2 2 2.4
v -0.2 2 -2.4
v -0.2 2.3 2.4
v -0.2 2.3 -2.4
v -0.1 2.3 2.4
v -0.1 2.3 -2.4
v -0.1 2.4 2.4
v -0.1 2.4 -2.4
v -0.9 2.3 2.4
v -0.9 2.4 2.4
v -0.8 2 2.4
v -0.8 2.3 2.4
v -0.7 -2.3 2.4
v -0.7 -2.1 2.4
v -0.7 -1.2 2.4
v -0.7 -1 2.4
v -0.7 1.3 2.4
v -0.7 1.6 2.4
v -0.6 -2.4 2.4
v -0.6 -2.3 2.4
v -0.6 -2.1 2.4
v -0.6 -1.4 2.4
v -0.6 -1.3 2.4
v -0.6 -1.2 2.4
v -0.6 -1 2.4
v -0.6 -0.7 2.4
v -0.4 -2.4 2.4
v -0.4 -1.4 2.4
v -0.4 -1.3 2.4
v -0.4 -0.7 2.4
v -0.3 1.3 2.4
v -0.3 1.6 2.4
v -0.2 2 2.4
v -0.2 2.3 2.4
v -0.1 2.3 2.4
v -0.1 2.4 2.4
v -0.6 -2.4 2.1
v -0.6 -2.3 2.1
v -0.6 -2.1 2.1
v -0.6 -1.2 2.1
v -0.6 -1 2.1
v -0.6 -0.9 2.1
v -0.6 -0.8 2.1
v -0.6 -0.5 2.1
v -0.5 -2.3 2.1
v -0.5 -2.2 2.1
v -0.5 -2.1 2.1
v -0.5 -1.2 2.1
v -0.5 -1 2.1
v -0.4 -2.4 2.1
v -0.4 -2.3 2.1
v -0.4 -2.2 2.1
v -0.4 -0.9 2.1
v -0.4 -0.8 2.1
v -0.4 -0.5 2.1
v -0.7 -2.4 1.8
v -0.7 -2.3 1.8
v -0.7 -2.1 1.8
v -0.7 -1.2 1.8
v -0.7 -1 1.8
v -0.7 1.3 1.8
v -0.7 1.6 1.8
v -0.7 2 1.8
v -0.5 -2.3 1.8
v -0.5 -2.1 1.8
v -0.5 -1.2 1.8
v -0.5 -1 1.8
v -0.3 -2.4 1.8
v -0.3 1.3 1.8
v -0.3 1.6 1.8
v -0.3 2 1.8
v -0.6 1.6 0.0999999
v -0.6 2 0.0999999
v -0.4 1.6 0.0999999
v -0.4 2 0.0999999
v -0.7 -2.4 -1.4
v -0.7 1.3 -1.4
v -0.7 1.6 -1.4
v -0.7 2 -1.4
v -0.3 -2.4 -1.4
v -0.3 1.3 -1.4
v -0.3 1.6 -1.4
v -0.3 2 -1.4
v -0.6 -2.4 -2.1
v -0.6 -2.3 -2.1
v -0.6 -2.1 -2.1
v -0.6 -1.2 -2.1
v -0.6 -1 -2.1
v -0.6 -0.9 -2.1
v -0.6 -0.6 -2.1
v -0.5 -2.3 -2.1
v -0.5 -2.1 -2.1
v -0.5 -1.2 -2.1
v -0.5 -1 -2.1
v -0.4 -2.4 -2.1
v -0.4 -1 -2.1
v -0.4 -0.9 -2.1
v -0.4 -0.6 -2.1
v -0.6 -2.4 2.2
v -0.6 -2.3 2.2
v -0.6 -2.1 2.2
v -0.6 -1.4 2.2
v -0.6 -1.3 2.2
v -0.6 -1.2 2.2
v -0.6 -1 2.2
v -0.6 -0.7 2.2
v -0.5 -2.3 2.2
v -0.5 -2.1 2.2
v -0.5 -1.2 2.2
v -0.5 -1 2.2
v -0.4 -2.4 2.2
v -0.4 -1.4 2.2
v -0.4 -1.3 2.2
v -0.4 -0.7 2.2
v -0.6 -2.4 1.9
v -0.6 -2.3 1.9
v -0.6 -2.1 1.9
v -0.6 -1.2 1.9
v -0.6 -1 1.9
v -0.6 -0.9 1.9
v -0.6 -0.8 1.9
v -0.6 -0.5 1.9
v -0.5 -2.3 1.9
v -0.5 -2.2 1.9
v -0.5 -2.1 1.9
v -0.5 -1.2 1.9
v -0.5 -1 1.9
v -0.4 -2.4 1.9
v -0.4 -2.3 1.9
v -0.4 -2.2 1.9
v -0.4 -0.9 1.9
v -0.4 -0.8 1.9
v -0.4 -0.5 1.9
v -0.7 -2.4 1.4
v -0.7 1.3 1.4
v -0.7 1.6 1.4
v -0.7 2 1.4
v -0.3 -2.4 1.4
v -0.3 1.3 1.4
v -0.3 1.6 1.4
v -0.3 2 1.4
v -0.6 1.6 -0.1
v -0.6 2 -0.1
v -0.4 1.6 -0.1
v -0.4 2 -0.1
v -0.7 -2.4 -1.8
v -0.7 -2.3 -1.8
v -0.7 -2.1 -1.8
v -0.7 -1.2 -1.8
v -0.7 -1 -1.8
v -0.7 1.3 -1.8
v -0.7 1.6 -1.8
v -0.7 2 -1.8
v -0.6 -2.4 -1.8
v -0.6 -2.3 -1.8
v -0.6 -2.1 -1.8
v -0.6 -2 -1.8
v -0.6 -1.9 -1.8
v -0.6 -1.2 -1.8
v -0.6 -1 -1.8
v -0.6 -0.5 -1.8
v -0.6 -0.4 -1.8
v -0.6 -0.3 -1.8
v -0.4 -2.4 -1.8
v -0.4 -2 -1.8
v -0.4 -1.9 -1.8
v -0.4 -0.5 -1.8
v -0.4 -0.4 -1.8
v -0.4 -0.3 -1.8
v -0.3 -2.4 -1.8
v -0.3 1.3 -1.8
v -0.3 1.6 -1.8
v -0.3 2 -1.8
v -0.6 -2.4 -2
v -0.6 -2.3 -2
v -0.6 -2.1 -2
v -0.6 -2 -2
v -0.6 -1.9 -2
v -0.6 -1.2 -2
v -0.6 -1 -2
v -0.6 -0.5 -2
v -0.6 -0.4 -2
v -0.6 -0.3 -2
v -0.5 -2.3 -2
v -0.5 -2.1 -2
v -0.5 -1.2 -2
v -0.5 -1 -2
v -0.4 -2.4 -2
v -0.4 -2 -2
v -0.4 -1.9 -2
v -0.4 -0.5 -2
v -0.4 -0.4 -2
v -0.4 -0.3 -2
v -0.6 -2.4 -2.3
v -0.6 -2.3 -2.3
v -0.6 -2.1 -2.3
v -0.6 -1.2 -2.3
v -0.6 -1 -2.3
v -0.6 -0.9 -2.3
v -0.6 -0.6 -2.3
v -0.5 -2.3 -2.3
v -0.5 -2.1 -2.3
v -0.5 -1.2 -2.3
v -0.5 -1 -2.3
v -0.4 -2.4 -2.3
v -0.4 -1 -2.3
v -0.4 -0.9 -2.3
v -0.4 -0.6 -2.3
v -0.9 2.3 -2.4
v -0.9 2.4 -2.4
v -0.8 2 -2.4
v -0.8 2.3 -2.4
v -0.7 -2.3 -2.4
v -0.7 -2.1 -2.4
v -0.7 -1.2 -2.4
v -0.7 -1 -2.4
v -0.7 1.3 -2.4
v -0.7 1.6 -2.4
v -0.5 -2.3 -2.4
v -0.5 -2.1 -2.4
v -0.5 -1.2 -2.4
v -0.5 -1 -2.4
v -0.3 1.3 -2.4
v -0.3 1.6 -2.4
v -0.2 2 -2.4
v -0.2 2.3 -2.4
v -0.1 2.3 -2.4
v -0.1 2.4 -2.4
v -0.6 -2.4 2.4
v -0.4 -2.4 2.4
v -0.6 -2.4 2.2
v -0.4 -2.4 2.2
v -0.6 -2.4 2.1
v -0.4 -2.4 2.1
v -0.6 -2.4 1.9
v -0.4 -2.4 1.9
v -0.7 -2.4 1.8
v -0.3 -2.4 1.8
v -0.7 -2.4 1.4
v -0.3 -2.4 1.4
v -0.7 -2.4 -1.4
v -0.3 -2.4 -1.4
v -0.7 -2.4 -1.8
v -0.6 -2.4 -1.8
v -0.4 -2.4 -1.8
v -0.3 -2.4 -1.8
v -0.6 -2.4 -2
v -0.4 -2.4 -2
v -0.6 -2.4 -2.1
v -0.4 -2.4 -2.1
v -0.6 -2.4 -2.3
v -0.4 -2.4 -2.3
v -0.7 -2.3 2.4
v -0.6 -2.3 2.4
v -0.6 -2.3 2.2
v -0.5 -2.3 2.2
v -0.6 -2.3 2.1
v -0.5 -2.3 2.1
v -0.6 -2.3 1.9
v -0.5 -2.3 1.9
v -0.7 -2.3 1.8
v -0.5 -2.3 1.8
v -0.7 -2.3 -1.8
v -0.6 -2.3 -1.8
v -0.6 -2.3 -2
v -0.5 -2.3 -2
v -0.6 -2.3 -2.1
v -0.5 -2.3 -2.1
v -0.6 -2.3 -2.3
v -0.5 -2.3 -2.3
v -0.7 -2.3 -2.4
v -0.5 -2.3 -2.4
v -0.7 -1.2 2.4
v -0.6 -1.2 2.4
v -0.6 -1.2 2.2
v -0.5 -1.2 2.2
v -0.6 -1.2 2.1
v -0.5 -1.2 2.1
v -0.6 -1.2 1.9
v -0.5 -1.2 1.9
v -0.7 -1.2 1.8
v -0.5 -1.2 1.8
v -0.7 -1.2 -1.8
v -0.6 -1.2 -1.8
v -0.6 -1.2 -2
v -0.5 -1.2 -2
v -0.6 -1.2 -2.1
v -0.5 -1.2 -2.1
v -0.6 -1.2 -2.3
v -0.5 -1.2 -2.3
v -0.7 -1.2 -2.4
v -0.5 -1.2 -2.4
v -0.7 1.3 2.4
v -0.3 1.3 2.4
v -0.7 1.3 1.8
v -0.3 1.3 1.8
v -0.7 1.3 1.4
v -0.3 1.3 1.4
v -0.7 1.3 -1.4
v -0.3 1.3 -1.4
v -0.7 1.3 -1.8
v -0.3 1.3 -1.8
v -0.7 1.3 -2.4
v -0.3 1.3 -2.4
v -0.8 2 2.4
v -0.2 2 2.4
v -0.7 2 1.8
v -0.3 2 1.8
v -0.7 2 1.4
v -0.3 2 1.4
v -0.6 2 0.0999999
v -0.4 2 0.0999999
v -0.6 2 -0.1
v -0.4 2 -0.1
v -0.7 2 -1.4
v -0.3 2 -1.4
v -0.7 2 -1.8
v -0.3 2 -1.8
v -0.8 2 -2.4
v -0.2 2 -2.4
v -0.9 2.3 2.4
v -0.8 2.3 2.4
v -0.2 2.3 2.4
v -0.1 2.3 2.4
v -0.9 2.3 -2.4
v -0.8 2.3 -2.4
v -0.2 2.3 -2.4
v -0.1 2.3 -2.4
v -0.7 -2.1 2.4
v -0.6 -2.1 2.4
v -0.6 -2.1 2.2
v -0.5 -2.1 2.2
v -0.6 -2.1 2.1
v -0.5 -2.1 2.1
v -0.6 -2.1 1.9
v -0.5 -2.1 1.9
v -0.7 -2.1 1.8
v -0.5 -2.1 1.8
v -0.7 -2.1 -1.8
v -0.6 -2.1 -1.8
v -0.6 -2.1 -2
v -0.5 -2.1 -2
v -0.6 -2.1 -2.1
v -0.5 -2.1 -2.1
v -0.6 -2.1 -2.3
v -0.5 -2.1 -2.3
v -0.7 -2.1 -2.4
v -0.5 -2.1 -2.4
v -0.7 -1 2.4
v -0.6 -1 2.4
v -0.6 -1 2.2
v -0.5 -1 2.2
v -0.6 -1 2.1
v -0.5 -1 2.1
v -0.6 -1 1.9
v -0.5 -1 1.9
v -0.7 -1 1.8
v -0.5 -1 1.8
v -0.7 -1 -1.8
v -0.6 -1 -1.8
v -0.6 -1 -2
v -0.5 -1 -2
v -0.6 -1 -2.1
v -0.5 -1 -2.1
v -0.6 -1 -2.3
v -0.5 -1 -2.3
v -0.7 -1 -2.4
v -0.5 -1 -2.4
v -0.6 -0.7 2.4
v -0.4 -0.7 2.4
v -0.6 -0.7 2.2
v -0.4 -0.7 2.2
v -0.6 -0.6 -2.1
v -0.4 -0.6 -2.1
v -0.6 -0.6 -2.3
v -0.4 -0.6 -2.3
v -0.6 -0.5 2.1
v -0.4 -0.5 2.1
v -0.6 -0.5 1.9
v -0.4 -0.5 1.9
v -0.6 -0.3 -1.8
v -0.4 -0.3 -1.8
v -0.6 -0.3 -2
v -0.4 -0.3 -2
v -0.7 1.6 2.4
v -0.3 1.6 2.4
v -0.7 1.6 1.8
v -0.3 1.6 1.8
v -0.7 1.6 1.4
v -0.3 1.6 1.4
v -0.6 1.6 0.0999999
v -0.4 1.6 0.0999999
v -0.6 1.6 -0.1
v -0.4 1.6 -0.1
v -0.7 1.6 -1.4
v -0.3 1.6 -1.4
v -0.7 1.6 -1.8
v -0.3 1.6 -1.8
v -0.7 1.6 -2.4
v -0.3 1.6 -2.4
v -0.9 2.4 2.4
v -0.1 2.4 2.4
v -0.9 2.4 -2.4
v -0.1 2.4 -2.4

# faces
f 3/4/1 2/4/1 1/4/1
f 4/4/1 2/4/1 3/4/1
f 7/1/1 6/1/1 5/1/1
f 8/1/1 6/1/1 7/1/1
f 14/1/1 10/1/1 9/1/1
f 15/1/1 12/1/1 11/1/1
f 17/3/1 14/3/1 13/3/1
f 18/1/1 10/1/1 14/1/1
f 18/3/1 14/3/1 17/3/1
f 19/3/1 16/3/1 15/3/1
f 19/1/1 15/1/1 11/1/1
f 20/3/1 16/3/1 19/3/1
f 22/1/1 10/1/1 18/1/1
f 23/1/1 19/1/1 11/1/1
f 25/3/1 22/3/1 21/3/1
f 26/1/1 10/1/1 22/1/1
f 26/3/1 22/3/1 25/3/1
f 27/3/1 24/3/1 23/3/1
f 27/1/1 23/1/1 11/1/1
f 28/3/1 24/3/1 27/3/1
f 30/1/1 10/1/1 26/1/1
f 31/1/1 10/1/1 30/1/1
f 32/1/1 27/1/1 11/1/1
f 33/1/1 27/1/1 32/1/1
f 35/1/1 31/1/1 30/1/1
f 35/1/1 34/1/1 33/1/1
f 35/1/1 33/1/1 32/1/1
f 35/1/1 32/1/1 31/1/1
f 35/1/1 30/1/1 29/1/1
f 36/1/1 34/1/1 35/1/1
f 37/1/1 34/1/1 36/1/1
f 38/1/1 34/1/1 37/1/1
f 39/1/1 34/1/1 38/1/1
f 40/1/1 34/1/1 39/1/1
f 41/1/1 37/1/1 36/1/1
f 42/1/1 37/1/1 41/1/1
f 43/1/1 39/1/1 38/1/1
f 44/1/1 39/1/1 43/1/1
f 53/3/1 46/3/1 45/3/1
f 54/3/1 46/3/1 53/3/1
f 55/3/1 48/3/1 47/3/1
f 56/3/1 48/3/1 55/3/1
f 57/3/1 50/3/1 49/3/1
f 58/3/1 50/3/1 57/3/1
f 59/3/1 52/3/1 51/3/1
f 60/3/1 52/3/1 59/3/1
f 69/3/1 66/3/1 65/3/1
f 70/3/1 66/3/1 69/3/1
f 71/2/1 70/2/1 69/2/1
f 72/2/1 70/2/1 71/2/1
f 73/3/1 62/3/1 61/3/1
f 74/3/1 62/3/1 73/3/1
f 75/2/1 74/2/1 73/2/1
f 76/2/1 74/2/1 75/2/1
f 77/3/1 76/3/1 75/3/1
f 78/3/1 76/3/1 77/3/1
f 79/3/1 64/3/1 63/3/1
f 80/3/1 64/3/1 79/3/1
f 81/3/1 72/3/1 71/3/1
f 82/3/1 72/3/1 81/3/1
f 83/3/1 68/3/1 67/3/1
f 84/3/1 68/3/1 83/3/1
f 93/3/1 88/3/1 87/3/1
f 94/3/1 88/3/1 93/3/1
f 95/2/1 92/2/1 91/2/1
f 96/2/1 92/2/1 95/2/1
f 97/2/1 94/2/1 93/2/1
f 98/2/1 94/2/1 97/2/1
f 99/3/1 86/3/1 85/3/1
f 100/3/1 86/3/1 99/3/1
f 101/3/1 96/3/1 95/3/1
f 102/3/1 96/3/1 101/3/1
f 103/3/1 98/3/1 97/3/1
f 104/3/1 98/3/1 103/3/1
f 105/3/1 90/3/1 89/3/1
f 106/3/1 90/3/1 105/3/1
f 107/2/1 106/2/1 105/2/1
f 108/2/1 106/2/1 107/2/1
f 109/3/1 108/3/1 107/3/1
f 110/3/1 108/3/1 109/3/1
f 113/1/1 112/1/1 111/1/1
f 114/1/1 112/1/1 113/1/1
f 115/3/2 116/3/2 123/3/2
f 117/3/2 118/3/2 124/3/2
f 115/3/2 123/3/2 125/3/2
f 125/3/2 123/3/2 126/3/2
f 124/3/2 118/3/2 127/3/2
f 127/3/2 118/3/2 128/3/2
f 119/3/2 120/3/2 129/3/2
f 129/3/2 120/3/2 130/3/2
f 121/3/2 122/3/2 131/3/2
f 131/3/2 122/3/2 132/3/2
f 133/3/2 134/3/2 141/3/2
f 141/3/2 134/3/2 142/3/2
f 135/3/2 136/3/2 143/3/2
f 143/3/2 136/3/2 144/3/2
f 137/3/2 138/3/2 145/3/2
f 145/3/2 138/3/2 146/3/2
f 139/3/2 140/3/2 147/3/2
f 147/3/2 140/3/2 148/3/2
f 151/3/2 152/3/2 157/3/2
f 157/3/2 152/3/2 158/3/2
f 157/2/2 158/2/2 159/2/2
f 159/2/2 158/2/2 160/2/2
f 153/3/2 154/3/2 161/3/2
f 161/3/2 154/3/2 162/3/2
f 161/2/2 162/2/2 163/2/2
f 163/2/2 162/2/2 164/2/2
f 149/3/2 150/3/2 165/3/2
f 165/3/2 150/3/2 166/3/2
f 165/2/2 166/2/2 167/2/2
f 167/2/2 166/2/2 168/2/2
f 155/3/2 156/3/2 169/3/2
f 169/3/2 156/3/2 170/3/2
f 159/3/2 160/3/2 171/3/2
f 171/3/2 160/3/2 172/3/2
f 169/2/2 170/2/2 173/2/2
f 173/2/2 170/2/2 174/2/2
f 171/2/2 172/2/2 175/2/2
f 175/2/2 172/2/2 176/2/2
f 167/3/2 168/3/2 177/3/2
f 177/3/2 168/3/2 178/3/2
f 173/3/2 174/3/2 179/3/2
f 179/3/2 174/3/2 180/3/2
f 175/3/2 176/3/2 181/3/2
f 181/3/2 176/3/2 182/3/2
f 163/3/2 164/3/2 183/3/2
f 183/3/2 164/3/2 184/3/2
f 183/2/2 184/2/2 185/2/2
f 185/2/2 184/2/2 186/2/2
f 185/3/2 186/3/2 187/3/2
f 187/3/2 186/3/2 188/3/2
f 189/1/2 190/1/2 191/1/2
f 191/1/2 190/1/2 192/1/2
f 193/1/2 194/1/2 198/1/2
f 198/1/2 194/1/2 199/1/2
f 195/1/2 196/1/2 200/1/2
f 200/1/2 196/1/2 201/1/2
f 198/1/2 199/1/2 203/1/2
f 201/1/2 202/1/2 203/1/2
f 200/1/2 201/1/2 203/1/2
f 199/1/2 200/1/2 203/1/2
f 197/1/2 198/1/2 203/1/2
f 203/1/2 202/1/2 204/1/2
f 204/1/2 202/1/2 205/1/2
f 205/1/2 202/1/2 206/1/2
f 206/1/2 202/1/2 207/1/2
f 207/1/2 202/1/2 208/1/2
f 204/1/2 205/1/2 209/1/2
f 209/1/2 205/1/2 210/1/2
f 206/1/2 207/1/2 211/1/2
f 211/1/2 207/1/2 212/1/2
f 213/1/2 214/1/2 215/1/2
f 215/1/2 214/1/2 216/1/2
f 217/4/2 218/4/2 219/4/2
f 219/4/2 218/4/2 220/4/2
f 224/4/3 222/4/3 221/4/3
f 232/3/3 226/3/3 225/3/3
f 233/3/3 226/3/3 232/3/3
f 236/3/3 228/3/3 227/3/3
f 237/3/3 228/3/3 236/3/3
f 239/3/3 232/3/3 231/3/3
f 239/3/3 233/3/3 232/3/3
f 239/3/3 234/3/3 233/3/3
f 240/2/3 235/2/3 234/2/3
f 240/3/3 234/3/3 239/3/3
f 241/3/3 238/3/3 237/3/3
f 241/2/3 235/2/3 240/2/3
f 241/3/3 237/3/3 236/3/3
f 241/3/3 236/3/3 235/3/3
f 242/3/3 238/3/3 241/3/3
f 243/1/3 230/1/3 229/1/3
f 244/1/3 230/1/3 243/1/3
f 245/1/3 224/1/3 223/1/3
f 246/4/3 222/4/3 224/4/3
f 246/1/3 224/1/3 245/1/3
f 247/4/3 222/4/3 246/4/3
f 248/4/3 222/4/3 247/4/3
f 257/3/3 250/3/3 249/3/3
f 259/3/3 252/3/3 251/3/3
f 260/3/3 252/3/3 259/3/3
f 261/3/3 254/3/3 253/3/3
f 262/3/3 257/3/3 249/3/3
f 263/2/3 258/2/3 257/2/3
f 263/3/3 257/3/3 262/3/3
f 264/3/3 260/3/3 259/3/3
f 264/2/3 258/2/3 263/2/3
f 264/3/3 261/3/3 260/3/3
f 264/3/3 259/3/3 258/3/3
f 265/2/3 255/2/3 254/2/3
f 265/3/3 261/3/3 264/3/3
f 265/3/3 254/3/3 261/3/3
f 266/3/3 256/3/3 255/3/3
f 266/2/3 255/2/3 265/2/3
f 267/3/3 256/3/3 266/3/3
f 276/1/3 269/1/3 268/1/3
f 277/1/3 271/1/3 270/1/3
f 278/1/3 271/1/3 277/1/3
f 279/1/3 273/1/3 272/1/3
f 280/1/3 276/1/3 268/1/3
f 280/1/3 279/1/3 278/1/3
f 280/1/3 278/1/3 277/1/3
f 280/1/3 277/1/3 276/1/3
f 281/1/3 273/1/3 279/1/3
f 281/1/3 279/1/3 280/1/3
f 282/1/3 275/1/3 274/1/3
f 283/1/3 275/1/3 282/1/3
f 286/1/3 285/1/3 284/1/3
f 287/1/3 285/1/3 286/1/3
f 292/1/3 289/1/3 288/1/3
f 293/1/3 289/1/3 292/1/3
f 294/1/3 291/1/3 290/1/3
f 295/1/3 291/1/3 294/1/3
f 303/3/3 297/3/3 296/3/3
f 304/3/3 299/3/3 298/3/3
f 305/3/3 299/3/3 304/3/3
f 306/2/3 301/2/3 300/2/3
f 307/3/3 303/3/3 296/3/3
f 307/3/3 306/3/3 305/3/3
f 307/3/3 305/3/3 304/3/3
f 307/3/3 304/3/3 303/3/3
f 308/2/3 301/2/3 306/2/3
f 308/3/3 306/3/3 307/3/3
f 309/3/3 302/3/3 301/3/3
f 309/2/3 301/2/3 308/2/3
f 310/3/3 302/3/3 309/3/3
f 311/3/4 312/3/4 319/3/4
f 313/3/4 314/3/4 320/3/4
f 315/3/4 316/3/4 321/3/4
f 317/3/4 318/3/4 322/3/4
f 311/3/4 319/3/4 323/3/4
f 319/3/4 320/3/4 323/3/4
f 314/2/4 315/2/4 324/2/4
f 323/3/4 320/3/4 324/3/4
f 320/3/4 314/3/4 324/3/4
f 315/3/4 321/3/4 325/3/4
f 324/2/4 315/2/4 325/2/4
f 321/3/4 322/3/4 325/3/4
f 322/3/4 318/3/4 326/3/4
f 325/3/4 322/3/4 326/3/4
f 327/3/4 328/3/4 335/3/4
f 329/3/4 330/3/4 337/3/4
f 337/3/4 330/3/4 338/3/4
f 331/3/4 332/3/4 339/3/4
f 327/3/4 335/3/4 340/3/4
f 335/2/4 336/2/4 341/2/4
f 340/3/4 335/3/4 341/3/4
f 337/3/4 338/3/4 342/3/4
f 341/2/4 336/2/4 342/2/4
f 338/3/4 339/3/4 342/3/4
f 336/3/4 337/3/4 342/3/4
f 332/2/4 333/2/4 343/2/4
f 342/3/4 339/3/4 343/3/4
f 339/3/4 332/3/4 343/3/4
f 333/3/4 334/3/4 344/3/4
f 343/2/4 333/2/4 344/2/4
f 344/3/4 334/3/4 345/3/4
f 346/1/4 347/1/4 350/1/4
f 350/1/4 347/1/4 351/1/4
f 348/1/4 349/1/4 352/1/4
f 352/1/4 349/1/4 353/1/4
f 354/1/4 355/1/4 356/1/4
f 356/1/4 355/1/4 357/1/4
f 358/1/4 359/1/4 366/1/4
f 366/1/4 359/1/4 367/1/4
f 360/1/4 361/1/4 368/1/4
f 368/1/4 361/1/4 369/1/4
f 369/1/4 361/1/4 370/1/4
f 370/1/4 361/1/4 371/1/4
f 362/1/4 363/1/4 372/1/4
f 372/1/4 363/1/4 373/1/4
f 373/1/4 363/1/4 374/1/4
f 374/1/4 363/1/4 375/1/4
f 375/1/4 363/1/4 381/1/4
f 379/1/4 380/1/4 382/1/4
f 380/1/4 381/1/4 382/1/4
f 376/1/4 377/1/4 382/1/4
f 377/1/4 378/1/4 382/1/4
f 378/1/4 379/1/4 382/1/4
f 381/1/4 363/1/4 383/1/4
f 382/1/4 381/1/4 383/1/4
f 364/1/4 365/1/4 384/1/4
f 384/1/4 365/1/4 385/1/4
f 386/3/4 387/3/4 396/3/4
f 388/3/4 389/3/4 397/3/4
f 390/3/4 391/3/4 398/3/4
f 392/3/4 393/3/4 399/3/4
f 386/3/4 396/3/4 400/3/4
f 396/3/4 397/3/4 400/3/4
f 389/2/4 390/2/4 401/2/4
f 400/3/4 397/3/4 401/3/4
f 397/3/4 389/3/4 401/3/4
f 398/3/4 399/3/4 402/3/4
f 401/2/4 390/2/4 402/2/4
f 390/3/4 398/3/4 402/3/4
f 399/3/4 393/3/4 403/3/4
f 402/3/4 399/3/4 403/3/4
f 393/2/4 394/2/4 403/2/4
f 394/3/4 395/3/4 404/3/4
f 403/2/4 394/2/4 404/2/4
f 404/3/4 395/3/4 405/3/4
f 406/3/4 407/3/4 413/3/4
f 408/3/4 409/3/4 414/3/4
f 414/3/4 409/3/4 415/3/4
f 410/2/4 411/2/4 416/2/4
f 406/3/4 413/3/4 417/3/4
f 415/3/4 416/3/4 417/3/4
f 414/3/4 415/3/4 417/3/4
f 413/3/4 414/3/4 417/3/4
f 416/2/4 411/2/4 418/2/4
f 417/3/4 416/3/4 418/3/4
f 411/3/4 412/3/4 419/3/4
f 418/2/4 411/2/4 419/2/4
f 419/3/4 412/3/4 420/3/4
f 421/4/4 422/4/4 424/4/4
f 425/3/4 426/3/4 431/3/4
f 431/3/4 426/3/4 432/3/4
f 427/3/4 428/3/4 433/3/4
f 433/3/4 428/3/4 434/3/4
f 429/1/4 430/1/4 435/1/4
f 435/1/4 430/1/4 436/1/4
f 423/1/4 424/1/4 437/1/4
f 424/4/4 422/4/4 438/4/4
f 437/1/4 424/1/4 438/1/4
f 438/4/4 422/4/4 439/4/4
f 439/4/4 422/4/4 440/4/4
f 443/3/5 442/3/5 441/3/5
f 444/3/5 442/3/5 443/3/5
f 447/3/5 446/3/5 445/3/5
f 448/3/5 446/3/5 447/3/5
f 451/1/5 450/1/5 449/1/5
f 452/1/5 450/1/5 451/1/5
f 455/1/5 454/1/5 453/1/5
f 456/1/5 454/1/5 455/1/5
f 457/1/5 454/1/5 456/1/5
f 458/1/5 454/1/5 457/1/5
f 459/3/5 457/3/5 456/3/5
f 460/3/5 457/3/5 459/3/5
f 463/3/5 462/3/5 461/3/5
f 464/3/5 462/3/5 463/3/5
f 467/3/5 466/3/5 465/3/5
f 469/3/5 467/3/5 465/3/5
f 469/3/5 468/3/5 467/3/5
f 470/3/5 468/3/5 469/3/5
f 471/3/5 469/3/5 465/3/5
f 473/3/5 471/3/5 465/3/5
f 473/3/5 472/3/5 471/3/5
f 474/3/5 472/3/5 473/3/5
f 477/3/5 476/3/5 475/3/5
f 479/3/5 477/3/5 475/3/5
f 479/3/5 478/3/5 477/3/5
f 480/3/5 478/3/5 479/3/5
f 481/3/5 479/3/5 475/3/5
f 483/3/5 481/3/5 475/3/5
f 483/3/5 482/3/5 481/3/5
f 484/3/5 482/3/5 483/3/5
f 487/3/5 486/3/5 485/3/5
f 489/3/5 487/3/5 485/3/5
f 489/3/5 488/3/5 487/3/5
f 490/3/5 488/3/5 489/3/5
f 491/3/5 489/3/5 485/3/5
f 493/3/5 491/3/5 485/3/5
f 493/3/5 492/3/5 491/3/5
f 494/3/5 492/3/5 493/3/5
f 497/3/5 496/3/5 495/3/5
f 499/3/5 497/3/5 495/3/5
f 499/3/5 498/3/5 497/3/5
f 500/3/5 498/3/5 499/3/5
f 501/3/5 499/3/5 495/3/5
f 503/3/5 501/3/5 495/3/5
f 503/3/5 502/3/5 501/3/5
f 504/3/5 502/3/5 503/3/5
f 507/1/5 506/1/5 505/1/5
f 508/1/5 506/1/5 507/1/5
f 511/1/5 510/1/5 509/1/5
f 512/1/5 510/1/5 511/1/5
f 515/1/5 514/1/5 513/1/5
f 516/1/5 514/1/5 515/1/5
f 519/1/5 518/1/5 517/1/5
f 520/1/5 518/1/5 519/1/5
f 521/1/5 519/1/5 517/1/5
f 522/1/5 518/1/5 520/1/5
f 523/1/5 522/1/5 521/1/5
f 524/1/5 522/1/5 523/1/5
f 525/1/5 523/1/5 521/1/5
f 526/1/5 522/1/5 524/1/5
f 527/1/5 521/1/5 517/1/5
f 527/1/5 526/1/5 525/1/5
f 527/1/5 525/1/5 521/1/5
f 528/1/5 522/1/5 526/1/5
f 528/1/5 526/1/5 527/1/5
f 528/1/5 518/1/5 522/1/5
f 529/1/5 527/1/5 517/1/5
f 530/1/5 518/1/5 528/1/5
f 531/1/5 529/1/5 517/1/5
f 531/1/5 530/1/5 529/1/5
f 532/1/5 518/1/5 530/1/5
f 532/1/5 530/1/5 531/1/5
f 537/4/5 534/4/5 533/4/5
f 538/4/5 534/4/5 537/4/5
f 539/4/5 536/4/5 535/4/5
f 540/4/5 536/4/5 539/4/5
f 541/3/6 542/3/6 543/3/6
f 541/3/6 543/3/6 545/3/6
f 543/3/6 544/3/6 545/3/6
f 545/3/6 544/3/6 546/3/6
f 541/3/6 545/3/6 547/3/6
f 541/3/6 547/3/6 549/3/6
f 547/3/6 548/3/6 549/3/6
f 549/3/6 548/3/6 550/3/6
f 551/3/6 552/3/6 553/3/6
f 551/3/6 553/3/6 555/3/6
f 553/3/6 554/3/6 555/3/6
f 555/3/6 554/3/6 556/3/6
f 551/3/6 555/3/6 557/3/6
f 551/3/6 557/3/6 559/3/6
f 557/3/6 558/3/6 559/3/6
f 559/3/6 558/3/6 560/3/6
f 561/3/6 562/3/6 563/3/6
f 561/3/6 563/3/6 565/3/6
f 563/3/6 564/3/6 565/3/6
f 565/3/6 564/3/6 566/3/6
f 561/3/6 565/3/6 567/3/6
f 561/3/6 567/3/6 569/3/6
f 567/3/6 568/3/6 569/3/6
f 569/3/6 568/3/6 570/3/6
f 571/3/6 572/3/6 573/3/6
f 571/3/6 573/3/6 575/3/6
f 573/3/6 574/3/6 575/3/6
f 575/3/6 574/3/6 576/3/6
f 571/3/6 575/3/6 577/3/6
f 571/3/6 577/3/6 579/3/6
f 577/3/6 578/3/6 579/3/6
f 579/3/6 578/3/6 580/3/6
f 581/3/6 582/3/6 583/3/6
f 583/3/6 582/3/6 584/3/6
f 585/3/6 586/3/6 587/3/6
f 587/3/6 586/3/6 588/3/6
f 589/3/6 590/3/6 591/3/6
f 591/3/6 590/3/6 592/3/6
f 593/3/6 594/3/6 595/3/6
f 595/3/6 594/3/6 596/3/6
f 597/1/6 598/1/6 599/1/6
f 599/1/6 598/1/6 600/1/6
f 601/1/6 602/1/6 603/1/6
f 603/1/6 602/1/6 604/1/6
f 601/1/6 603/1/6 605/1/6
f 604/1/6 602/1/6 606/1/6
f 601/1/6 605/1/6 607/1/6
f 605/1/6 606/1/6 607/1/6
f 606/1/6 602/1/6 608/1/6
f 607/1/6 606/1/6 608/1/6
f 609/1/6 610/1/6 611/1/6
f 611/1/6 610/1/6 612/1/6
f 613/4/6 614/4/6 615/4/6
f 615/4/6 614/4/6 616/4/6
