# MagicaVoxel @ Ephtracy

# group
o 

# material
mtllib lantern.mtl
usemtl palette

# normals
vn -1 0 0
vn 1 0 0
vn 0 0 1
vn 0 0 -1
vn 0 -1 0
vn 0 1 0

# texcoords
vt 0.267578 0.5
vt 0.271484 0.5
vt 0.275391 0.5

# verts
v -0.4 -0.4 0.2
v -0.4 -0.4 -0.2
v -0.4 -0.1 0.2
v -0.4 -0.1 0.1
v -0.4 -0.1 -0.1
v -0.4 -0.1 -0.2
v -0.4 0.1 0.1
v -0.4 0.1 -0.1
v -0.3 -0.4 0.3
v -0.3 -0.4 0.2
v -0.3 -0.4 -0.2
v -0.3 -0.4 -0.3
v -0.3 -0.2 0.3
v -0.3 -0.2 0.2
v -0.3 -0.2 -0.2
v -0.3 -0.2 -0.3
v -0.3 -0.1 0.2
v -0.3 -0.1 0.1
v -0.3 -0.1 -0.1
v -0.3 -0.1 -0.2
v -0.3 0.1 0.1
v -0.3 0.1 -0.1
v -0.3 0.2 0.3
v -0.3 0.2 0.2
v -0.3 0.2 -0.2
v -0.3 0.2 -0.3
v -0.3 0.4 0.2
v -0.3 0.4 -0.2
v -0.2 -0.4 0.4
v -0.2 -0.4 0.3
v -0.2 -0.4 -0.3
v -0.2 -0.4 -0.4
v -0.2 -0.2 0.3
v -0.2 -0.2 -0.3
v -0.2 -0.1 0.4
v -0.2 -0.1 0.3
v -0.2 -0.1 -0.3
v -0.2 -0.1 -0.4
v -0.2 0.2 0.3
v -0.2 0.2 0.2
v -0.2 0.2 -0.2
v -0.2 0.2 -0.3
v -0.2 0.4 0.3
v -0.2 0.4 0.2
v -0.2 0.4 -0.2
v -0.2 0.4 -0.3
v -0.1 -0.3 0.1
v -0.1 -0.3 -0.1
v -0.1 -0.1 0.4
v -0.1 -0.1 0.3
v -0.1 -0.1 -0.3
v -0.1 -0.1 -0.4
v -0.1 0.1 0.4
v -0.1 0.1 0.3
v -0.1 0.1 -0.3
v -0.1 0.1 -0.4
v -0.1 0.3 0.1
v -0.1 0.3 -0.1
v 0.1 -0.1 0.3
v 0.1 -0.1 0.2
v 0.1 -0.1 -0.2
v 0.1 -0.1 -0.3
v 0.1 0.1 0.3
v 0.1 0.1 0.2
v 0.1 0.1 -0.2
v 0.1 0.1 -0.3
v 0.2 -0.4 0.3
v 0.2 -0.4 0.2
v 0.2 -0.4 -0.2
v 0.2 -0.4 -0.3
v 0.2 -0.2 0.3
v 0.2 -0.2 0.2
v 0.2 -0.2 -0.2
v 0.2 -0.2 -0.3
v 0.2 -0.1 0.3
v 0.2 -0.1 0.2
v 0.2 -0.1 0.1
v 0.2 -0.1 -0.1
v 0.2 -0.1 -0.2
v 0.2 -0.1 -0.3
v 0.2 0.1 0.1
v 0.2 0.1 -0.1
v 0.2 0.3 0.2
v 0.2 0.3 -0.2
v 0.3 -0.4 0.2
v 0.3 -0.4 -0.2
v 0.3 -0.2 0.2
v 0.3 -0.2 -0.2
v 0.3 -0.1 0.2
v 0.3 -0.1 0.1
v 0.3 -0.1 -0.1
v 0.3 -0.1 -0.2
v 0.3 0.1 0.1
v 0.3 0.1 -0.1
v -0.3 -0.4 0.2
v -0.3 -0.4 -0.2
v -0.3 -0.2 0.2
v -0.3 -0.2 -0.2
v -0.3 -0.1 0.2
v -0.3 -0.1 0.1
v -0.3 -0.1 -0.1
v -0.3 -0.1 -0.2
v -0.3 0.1 0.1
v -0.3 0.1 -0.1
v -0.2 -0.4 0.3
v -0.2 -0.4 0.2
v -0.2 -0.4 -0.2
v -0.2 -0.4 -0.3
v -0.2 -0.2 0.3
v -0.2 -0.2 0.2
v -0.2 -0.2 -0.2
v -0.2 -0.2 -0.3
v -0.2 -0.1 0.3
v -0.2 -0.1 0.2
v -0.2 -0.1 0.1
v -0.2 -0.1 -0.1
v -0.2 -0.1 -0.2
v -0.2 -0.1 -0.3
v -0.2 0.1 0.1
v -0.2 0.1 -0.1
v -0.2 0.3 0.2
v -0.2 0.3 -0.2
v -0.1 -0.1 0.3
v -0.1 -0.1 0.2
v -0.1 -0.1 -0.2
v -0.1 -0.1 -0.3
v -0.1 0.1 0.3
v -0.1 0.1 0.2
v -0.1 0.1 -0.2
v -0.1 0.1 -0.3
v 0.1 -0.3 0.1
v 0.1 -0.3 -0.1
v 0.1 -0.1 0.4
v 0.1 -0.1 0.3
v 0.1 -0.1 -0.3
v 0.1 -0.1 -0.4
v 0.1 0.1 0.4
v 0.1 0.1 0.3
v 0.1 0.1 -0.3
v 0.1 0.1 -0.4
v 0.1 0.3 0.1
v 0.1 0.3 -0.1
v 0.2 -0.4 0.4
v 0.2 -0.4 0.3
v 0.2 -0.4 -0.3
v 0.2 -0.4 -0.4
v 0.2 -0.2 0.3
v 0.2 -0.2 -0.3
v 0.2 -0.1 0.4
v 0.2 -0.1 0.3
v 0.2 -0.1 -0.3
v 0.2 -0.1 -0.4
v 0.2 0.2 0.3
v 0.2 0.2 0.2
v 0.2 0.2 -0.2
v 0.2 0.2 -0.3
v 0.2 0.4 0.3
v 0.2 0.4 0.2
v 0.2 0.4 -0.2
v 0.2 0.4 -0.3
v 0.3 -0.4 0.3
v 0.3 -0.4 0.2
v 0.3 -0.4 -0.2
v 0.3 -0.4 -0.3
v 0.3 -0.2 0.3
v 0.3 -0.2 0.2
v 0.3 -0.2 -0.2
v 0.3 -0.2 -0.3
v 0.3 -0.1 0.2
v 0.3 -0.1 0.1
v 0.3 -0.1 -0.1
v 0.3 -0.1 -0.2
v 0.3 0.1 0.1
v 0.3 0.1 -0.1
v 0.3 0.2 0.3
v 0.3 0.2 0.2
v 0.3 0.2 -0.2
v 0.3 0.2 -0.3
v 0.3 0.4 0.2
v 0.3 0.4 -0.2
v 0.4 -0.4 0.2
v 0.4 -0.4 -0.2
v 0.4 -0.1 0.2
v 0.4 -0.1 0.1
v 0.4 -0.1 -0.1
v 0.4 -0.1 -0.2
v 0.4 0.1 0.1
v 0.4 0.1 -0.1
v -0.2 -0.4 0.4
v -0.2 -0.1 0.4
v -0.1 -0.1 0.4
v -0.1 0.1 0.4
v 0.1 -0.1 0.4
v 0.1 0.1 0.4
v 0.2 -0.4 0.4
v 0.2 -0.1 0.4
v -0.3 -0.4 0.3
v -0.3 -0.2 0.3
v -0.3 0.2 0.3
v -0.2 -0.4 0.3
v -0.2 -0.2 0.3
v -0.2 -0.1 0.3
v -0.2 0.2 0.3
v -0.2 0.4 0.3
v -0.1 -0.1 0.3
v -0.1 0.1 0.3
v 0.1 -0.1 0.3
v 0.1 0.1 0.3
v 0.2 -0.4 0.3
v 0.2 -0.2 0.3
v 0.2 -0.1 0.3
v 0.2 0.2 0.3
v 0.2 0.4 0.3
v 0.3 -0.4 0.3
v 0.3 -0.2 0.3
v 0.3 0.2 0.3
v -0.4 -0.4 0.2
v -0.4 -0.1 0.2
v -0.3 -0.4 0.2
v -0.3 -0.2 0.2
v -0.3 -0.1 0.2
v -0.3 0.2 0.2
v -0.3 0.4 0.2
v -0.2 0.2 0.2
v -0.2 0.4 0.2
v 0.2 0.2 0.2
v 0.2 0.4 0.2
v 0.3 -0.4 0.2
v 0.3 -0.2 0.2
v 0.3 -0.1 0.2
v 0.3 0.2 0.2
v 0.3 0.4 0.2
v 0.4 -0.4 0.2
v 0.4 -0.1 0.2
v -0.4 -0.1 0.1
v -0.4 0.1 0.1
v -0.3 -0.1 0.1
v -0.3 0.1 0.1
v -0.1 -0.3 0.1
v -0.1 0.3 0.1
v 0.1 -0.3 0.1
v 0.1 0.3 0.1
v 0.3 -0.1 0.1
v 0.3 0.1 0.1
v 0.4 -0.1 0.1
v 0.4 0.1 0.1
v -0.3 -0.1 -0.1
v -0.3 0.1 -0.1
v -0.2 -0.1 -0.1
v -0.2 0.1 -0.1
v 0.2 -0.1 -0.1
v 0.2 0.1 -0.1
v 0.3 -0.1 -0.1
v 0.3 0.1 -0.1
v -0.3 -0.4 -0.2
v -0.3 -0.2 -0.2
v -0.3 -0.1 -0.2
v -0.2 -0.4 -0.2
v -0.2 -0.2 -0.2
v -0.2 -0.1 -0.2
v -0.2 0.3 -0.2
v -0.1 -0.1 -0.2
v -0.1 0.1 -0.2
v 0.1 -0.1 -0.2
v 0.1 0.1 -0.2
v 0.2 -0.4 -0.2
v 0.2 -0.2 -0.2
v 0.2 -0.1 -0.2
v 0.2 0.3 -0.2
v 0.3 -0.4 -0.2
v 0.3 -0.2 -0.2
v 0.3 -0.1 -0.2
v -0.2 -0.4 -0.3
v -0.2 -0.2 -0.3
v -0.2 -0.1 -0.3
v -0.1 -0.1 -0.3
v -0.1 0.1 -0.3
v 0.1 -0.1 -0.3
v 0.1 0.1 -0.3
v 0.2 -0.4 -0.3
v 0.2 -0.2 -0.3
v 0.2 -0.1 -0.3
v -0.2 -0.4 0.3
v -0.2 -0.2 0.3
v -0.2 -0.1 0.3
v -0.1 -0.1 0.3
v -0.1 0.1 0.3
v 0.1 -0.1 0.3
v 0.1 0.1 0.3
v 0.2 -0.4 0.3
v 0.2 -0.2 0.3
v 0.2 -0.1 0.3
v -0.3 -0.4 0.2
v -0.3 -0.2 0.2
v -0.3 -0.1 0.2
v -0.2 -0.4 0.2
v -0.2 -0.2 0.2
v -0.2 -0.1 0.2
v -0.2 0.3 0.2
v -0.1 -0.1 0.2
v -0.1 0.1 0.2
v 0.1 -0.1 0.2
v 0.1 0.1 0.2
v 0.2 -0.4 0.2
v 0.2 -0.2 0.2
v 0.2 -0.1 0.2
v 0.2 0.3 0.2
v 0.3 -0.4 0.2
v 0.3 -0.2 0.2
v 0.3 -0.1 0.2
v -0.3 -0.1 0.1
v -0.3 0.1 0.1
v -0.2 -0.1 0.1
v -0.2 0.1 0.1
v 0.2 -0.1 0.1
v 0.2 0.1 0.1
v 0.3 -0.1 0.1
v 0.3 0.1 0.1
v -0.4 -0.1 -0.1
v -0.4 0.1 -0.1
v -0.3 -0.1 -0.1
v -0.3 0.1 -0.1
v -0.1 -0.3 -0.1
v -0.1 0.3 -0.1
v 0.1 -0.3 -0.1
v 0.1 0.3 -0.1
v 0.3 -0.1 -0.1
v 0.3 0.1 -0.1
v 0.4 -0.1 -0.1
v 0.4 0.1 -0.1
v -0.4 -0.4 -0.2
v -0.4 -0.1 -0.2
v -0.3 -0.4 -0.2
v -0.3 -0.2 -0.2
v -0.3 -0.1 -0.2
v -0.3 0.2 -0.2
v -0.3 0.4 -0.2
v -0.2 0.2 -0.2
v -0.2 0.4 -0.2
v 0.2 0.2 -0.2
v 0.2 0.4 -0.2
v 0.3 -0.4 -0.2
v 0.3 -0.2 -0.2
v 0.3 -0.1 -0.2
v 0.3 0.2 -0.2
v 0.3 0.4 -0.2
v 0.4 -0.4 -0.2
v 0.4 -0.1 -0.2
v -0.3 -0.4 -0.3
v -0.3 -0.2 -0.3
v -0.3 0.2 -0.3
v -0.2 -0.4 -0.3
v -0.2 -0.2 -0.3
v -0.2 -0.1 -0.3
v -0.2 0.2 -0.3
v -0.2 0.4 -0.3
v -0.1 -0.1 -0.3
v -0.1 0.1 -0.3
v 0.1 -0.1 -0.3
v 0.1 0.1 -0.3
v 0.2 -0.4 -0.3
v 0.2 -0.2 -0.3
v 0.2 -0.1 -0.3
v 0.2 0.2 -0.3
v 0.2 0.4 -0.3
v 0.3 -0.4 -0.3
v 0.3 -0.2 -0.3
v 0.3 0.2 -0.3
v -0.2 -0.4 -0.4
v -0.2 -0.1 -0.4
v -0.1 -0.1 -0.4
v -0.1 0.1 -0.4
v 0.1 -0.1 -0.4
v 0.1 0.1 -0.4
v 0.2 -0.4 -0.4
v 0.2 -0.1 -0.4
v -0.2 -0.4 0.4
v 0.2 -0.4 0.4
v -0.3 -0.4 0.3
v -0.2 -0.4 0.3
v 0.2 -0.4 0.3
v 0.3 -0.4 0.3
v -0.4 -0.4 0.2
v -0.3 -0.4 0.2
v -0.2 -0.4 0.2
v 0.2 -0.4 0.2
v 0.3 -0.4 0.2
v 0.4 -0.4 0.2
v -0.4 -0.4 -0.2
v -0.3 -0.4 -0.2
v -0.2 -0.4 -0.2
v 0.2 -0.4 -0.2
v 0.3 -0.4 -0.2
v 0.4 -0.4 -0.2
v -0.3 -0.4 -0.3
v -0.2 -0.4 -0.3
v 0.2 -0.4 -0.3
v 0.3 -0.4 -0.3
v -0.2 -0.4 -0.4
v 0.2 -0.4 -0.4
v -0.1 -0.3 0.1
v 0.1 -0.3 0.1
v -0.1 -0.3 -0.1
v 0.1 -0.3 -0.1
v -0.2 -0.1 0.3
v -0.1 -0.1 0.3
v 0.1 -0.1 0.3
v 0.2 -0.1 0.3
v -0.3 -0.1 0.2
v -0.2 -0.1 0.2
v -0.1 -0.1 0.2
v 0.1 -0.1 0.2
v 0.2 -0.1 0.2
v 0.3 -0.1 0.2
v -0.3 -0.1 0.1
v -0.2 -0.1 0.1
v 0.2 -0.1 0.1
v 0.3 -0.1 0.1
v -0.3 -0.1 -0.1
v -0.2 -0.1 -0.1
v 0.2 -0.1 -0.1
v 0.3 -0.1 -0.1
v -0.3 -0.1 -0.2
v -0.2 -0.1 -0.2
v -0.1 -0.1 -0.2
v 0.1 -0.1 -0.2
v 0.2 -0.1 -0.2
v 0.3 -0.1 -0.2
v -0.2 -0.1 -0.3
v -0.1 -0.1 -0.3
v 0.1 -0.1 -0.3
v 0.2 -0.1 -0.3
v -0.1 0.1 0.3
v 0.1 0.1 0.3
v -0.1 0.1 0.2
v 0.1 0.1 0.2
v -0.3 0.1 0.1
v -0.2 0.1 0.1
v 0.2 0.1 0.1
v 0.3 0.1 0.1
v -0.3 0.1 -0.1
v -0.2 0.1 -0.1
v 0.2 0.1 -0.1
v 0.3 0.1 -0.1
v -0.1 0.1 -0.2
v 0.1 0.1 -0.2
v -0.1 0.1 -0.3
v 0.1 0.1 -0.3
v -0.2 0.3 0.2
v 0.2 0.3 0.2
v -0.1 0.3 0.1
v 0.1 0.3 0.1
v -0.1 0.3 -0.1
v 0.1 0.3 -0.1
v -0.2 0.3 -0.2
v 0.2 0.3 -0.2
v -0.2 -0.1 0.4
v -0.1 -0.1 0.4
v 0.1 -0.1 0.4
v 0.2 -0.1 0.4
v -0.2 -0.1 0.3
v -0.1 -0.1 0.3
v 0.1 -0.1 0.3
v 0.2 -0.1 0.3
v -0.4 -0.1 0.2
v -0.3 -0.1 0.2
v 0.3 -0.1 0.2
v 0.4 -0.1 0.2
v -0.4 -0.1 0.1
v -0.3 -0.1 0.1
v 0.3 -0.1 0.1
v 0.4 -0.1 0.1
v -0.4 -0.1 -0.1
v -0.3 -0.1 -0.1
v 0.3 -0.1 -0.1
v 0.4 -0.1 -0.1
v -0.4 -0.1 -0.2
v -0.3 -0.1 -0.2
v 0.3 -0.1 -0.2
v 0.4 -0.1 -0.2
v -0.2 -0.1 -0.3
v -0.1 -0.1 -0.3
v 0.1 -0.1 -0.3
v 0.2 -0.1 -0.3
v -0.2 -0.1 -0.4
v -0.1 -0.1 -0.4
v 0.1 -0.1 -0.4
v 0.2 -0.1 -0.4
v -0.1 0.1 0.4
v 0.1 0.1 0.4
v -0.1 0.1 0.3
v 0.1 0.1 0.3
v -0.4 0.1 0.1
v -0.3 0.1 0.1
v 0.3 0.1 0.1
v 0.4 0.1 0.1
v -0.4 0.1 -0.1
v -0.3 0.1 -0.1
v 0.3 0.1 -0.1
v 0.4 0.1 -0.1
v -0.1 0.1 -0.3
v 0.1 0.1 -0.3
v -0.1 0.1 -0.4
v 0.1 0.1 -0.4
v -0.3 0.2 0.3
v -0.2 0.2 0.3
v 0.2 0.2 0.3
v 0.3 0.2 0.3
v -0.3 0.2 0.2
v -0.2 0.2 0.2
v 0.2 0.2 0.2
v 0.3 0.2 0.2
v -0.3 0.2 -0.2
v -0.2 0.2 -0.2
v 0.2 0.2 -0.2
v 0.3 0.2 -0.2
v -0.3 0.2 -0.3
v -0.2 0.2 -0.3
v 0.2 0.2 -0.3
v 0.3 0.2 -0.3
v -0.2 0.4 0.3
v 0.2 0.4 0.3
v -0.3 0.4 0.2
v -0.2 0.4 0.2
v 0.2 0.4 0.2
v 0.3 0.4 0.2
v -0.3 0.4 -0.2
v -0.2 0.4 -0.2
v 0.2 0.4 -0.2
v 0.3 0.4 -0.2
v -0.2 0.4 -0.3
v 0.2 0.4 -0.3

# faces
f 3/1/1 2/1/1 1/1/1
f 4/1/1 2/1/1 3/1/1
f 5/1/1 2/1/1 4/1/1
f 6/1/1 2/1/1 5/1/1
f 7/1/1 5/1/1 4/1/1
f 8/1/1 5/1/1 7/1/1
f 13/1/1 10/1/1 9/1/1
f 14/1/1 10/1/1 13/1/1
f 15/1/1 12/1/1 11/1/1
f 16/1/1 12/1/1 15/1/1
f 17/2/1 14/2/1 13/2/1
f 20/2/1 16/2/1 15/2/1
f 21/2/1 18/2/1 17/2/1
f 22/2/1 20/2/1 19/2/1
f 23/2/1 21/2/1 17/2/1
f 23/2/1 22/2/1 21/2/1
f 23/2/1 17/2/1 13/2/1
f 24/2/1 22/2/1 23/2/1
f 25/2/1 20/2/1 22/2/1
f 25/2/1 22/2/1 24/2/1
f 25/2/1 16/2/1 20/2/1
f 26/2/1 16/2/1 25/2/1
f 27/2/1 25/2/1 24/2/1
f 28/2/1 25/2/1 27/2/1
f 33/1/1 30/1/1 29/1/1
f 34/1/1 32/1/1 31/1/1
f 35/1/1 33/1/1 29/1/1
f 36/1/1 33/1/1 35/1/1
f 37/1/1 32/1/1 34/1/1
f 38/1/1 32/1/1 37/1/1
f 43/2/1 40/2/1 39/2/1
f 44/2/1 40/2/1 43/2/1
f 45/2/1 42/2/1 41/2/1
f 46/2/1 42/2/1 45/2/1
f 53/1/1 50/1/1 49/1/1
f 54/1/1 50/1/1 53/1/1
f 55/1/1 52/1/1 51/1/1
f 56/1/1 52/1/1 55/1/1
f 57/3/1 48/3/1 47/3/1
f 58/3/1 48/3/1 57/3/1
f 63/2/1 60/2/1 59/2/1
f 64/2/1 60/2/1 63/2/1
f 65/2/1 62/2/1 61/2/1
f 66/2/1 62/2/1 65/2/1
f 71/1/1 68/1/1 67/1/1
f 72/1/1 68/1/1 71/1/1
f 73/1/1 70/1/1 69/1/1
f 74/1/1 70/1/1 73/1/1
f 75/2/1 72/2/1 71/2/1
f 76/2/1 72/2/1 75/2/1
f 79/2/1 74/2/1 73/2/1
f 80/2/1 74/2/1 79/2/1
f 81/2/1 77/2/1 76/2/1
f 82/2/1 79/2/1 78/2/1
f 83/2/1 81/2/1 76/2/1
f 83/2/1 82/2/1 81/2/1
f 84/2/1 79/2/1 82/2/1
f 84/2/1 82/2/1 83/2/1
f 87/1/1 86/1/1 85/1/1
f 88/1/1 86/1/1 87/1/1
f 89/1/1 88/1/1 87/1/1
f 90/1/1 88/1/1 89/1/1
f 91/1/1 88/1/1 90/1/1
f 92/1/1 88/1/1 91/1/1
f 93/1/1 91/1/1 90/1/1
f 94/1/1 91/1/1 93/1/1
f 95/1/2 96/1/2 97/1/2
f 97/1/2 96/1/2 98/1/2
f 97/1/2 98/1/2 99/1/2
f 99/1/2 98/1/2 100/1/2
f 100/1/2 98/1/2 101/1/2
f 101/1/2 98/1/2 102/1/2
f 100/1/2 101/1/2 103/1/2
f 103/1/2 101/1/2 104/1/2
f 105/1/2 106/1/2 109/1/2
f 109/1/2 106/1/2 110/1/2
f 107/1/2 108/1/2 111/1/2
f 111/1/2 108/1/2 112/1/2
f 109/2/2 110/2/2 113/2/2
f 113/2/2 110/2/2 114/2/2
f 111/2/2 112/2/2 117/2/2
f 117/2/2 112/2/2 118/2/2
f 114/2/2 115/2/2 119/2/2
f 116/2/2 117/2/2 120/2/2
f 114/2/2 119/2/2 121/2/2
f 119/2/2 120/2/2 121/2/2
f 120/2/2 117/2/2 122/2/2
f 121/2/2 120/2/2 122/2/2
f 123/2/2 124/2/2 127/2/2
f 127/2/2 124/2/2 128/2/2
f 125/2/2 126/2/2 129/2/2
f 129/2/2 126/2/2 130/2/2
f 133/1/2 134/1/2 137/1/2
f 137/1/2 134/1/2 138/1/2
f 135/1/2 136/1/2 139/1/2
f 139/1/2 136/1/2 140/1/2
f 131/3/2 132/3/2 141/3/2
f 141/3/2 132/3/2 142/3/2
f 143/1/2 144/1/2 147/1/2
f 145/1/2 146/1/2 148/1/2
f 143/1/2 147/1/2 149/1/2
f 149/1/2 147/1/2 150/1/2
f 148/1/2 146/1/2 151/1/2
f 151/1/2 146/1/2 152/1/2
f 153/2/2 154/2/2 157/2/2
f 157/2/2 154/2/2 158/2/2
f 155/2/2 156/2/2 159/2/2
f 159/2/2 156/2/2 160/2/2
f 161/1/2 162/1/2 165/1/2
f 165/1/2 162/1/2 166/1/2
f 163/1/2 164/1/2 167/1/2
f 167/1/2 164/1/2 168/1/2
f 165/2/2 166/2/2 169/2/2
f 167/2/2 168/2/2 172/2/2
f 169/2/2 170/2/2 173/2/2
f 171/2/2 172/2/2 174/2/2
f 169/2/2 173/2/2 175/2/2
f 173/2/2 174/2/2 175/2/2
f 165/2/2 169/2/2 175/2/2
f 175/2/2 174/2/2 176/2/2
f 174/2/2 172/2/2 177/2/2
f 176/2/2 174/2/2 177/2/2
f 172/2/2 168/2/2 177/2/2
f 177/2/2 168/2/2 178/2/2
f 176/2/2 177/2/2 179/2/2
f 179/2/2 177/2/2 180/2/2
f 181/1/2 182/1/2 183/1/2
f 183/1/2 182/1/2 184/1/2
f 184/1/2 182/1/2 185/1/2
f 185/1/2 182/1/2 186/1/2
f 184/1/2 185/1/2 187/1/2
f 187/1/2 185/1/2 188/1/2
f 191/1/3 190/1/3 189/1/3
f 193/1/3 191/1/3 189/1/3
f 193/1/3 192/1/3 191/1/3
f 194/1/3 192/1/3 193/1/3
f 195/1/3 193/1/3 189/1/3
f 196/1/3 193/1/3 195/1/3
f 200/1/3 198/1/3 197/1/3
f 201/2/3 199/2/3 198/2/3
f 201/1/3 198/1/3 200/1/3
f 202/2/3 199/2/3 201/2/3
f 203/2/3 199/2/3 202/2/3
f 205/2/3 204/2/3 203/2/3
f 205/2/3 203/2/3 202/2/3
f 206/2/3 204/2/3 205/2/3
f 208/2/3 204/2/3 206/2/3
f 211/2/3 208/2/3 207/2/3
f 212/2/3 204/2/3 208/2/3
f 212/2/3 208/2/3 211/2/3
f 213/2/3 204/2/3 212/2/3
f 214/1/3 210/1/3 209/1/3
f 215/2/3 211/2/3 210/2/3
f 215/1/3 210/1/3 214/1/3
f 215/2/3 212/2/3 211/2/3
f 216/2/3 212/2/3 215/2/3
f 219/1/3 218/1/3 217/1/3
f 220/1/3 218/1/3 219/1/3
f 221/1/3 218/1/3 220/1/3
f 224/2/3 223/2/3 222/2/3
f 225/2/3 223/2/3 224/2/3
f 231/2/3 227/2/3 226/2/3
f 232/2/3 227/2/3 231/2/3
f 233/1/3 230/1/3 229/1/3
f 233/1/3 229/1/3 228/1/3
f 234/1/3 230/1/3 233/1/3
f 237/1/3 236/1/3 235/1/3
f 238/1/3 236/1/3 237/1/3
f 241/3/3 240/3/3 239/3/3
f 242/3/3 240/3/3 241/3/3
f 245/1/3 244/1/3 243/1/3
f 246/1/3 244/1/3 245/1/3
f 249/2/3 248/2/3 247/2/3
f 250/2/3 248/2/3 249/2/3
f 253/2/3 252/2/3 251/2/3
f 254/2/3 252/2/3 253/2/3
f 258/1/3 256/1/3 255/1/3
f 259/2/3 257/2/3 256/2/3
f 259/1/3 256/1/3 258/1/3
f 260/2/3 257/2/3 259/2/3
f 262/2/3 261/2/3 260/2/3
f 263/2/3 261/2/3 262/2/3
f 265/2/3 261/2/3 263/2/3
f 268/2/3 265/2/3 264/2/3
f 269/2/3 261/2/3 265/2/3
f 269/2/3 265/2/3 268/2/3
f 270/1/3 267/1/3 266/1/3
f 271/2/3 268/2/3 267/2/3
f 271/1/3 267/1/3 270/1/3
f 272/2/3 268/2/3 271/2/3
f 276/1/3 274/1/3 273/1/3
f 276/1/3 275/1/3 274/1/3
f 278/1/3 276/1/3 273/1/3
f 278/1/3 277/1/3 276/1/3
f 279/1/3 277/1/3 278/1/3
f 280/1/3 278/1/3 273/1/3
f 281/1/3 278/1/3 280/1/3
f 282/1/3 278/1/3 281/1/3
f 283/1/4 284/1/4 286/1/4
f 284/1/4 285/1/4 286/1/4
f 283/1/4 286/1/4 288/1/4
f 286/1/4 287/1/4 288/1/4
f 288/1/4 287/1/4 289/1/4
f 283/1/4 288/1/4 290/1/4
f 290/1/4 288/1/4 291/1/4
f 291/1/4 288/1/4 292/1/4
f 293/1/4 294/1/4 296/1/4
f 294/2/4 295/2/4 297/2/4
f 296/1/4 294/1/4 297/1/4
f 297/2/4 295/2/4 298/2/4
f 298/2/4 299/2/4 300/2/4
f 300/2/4 299/2/4 301/2/4
f 301/2/4 299/2/4 303/2/4
f 302/2/4 303/2/4 306/2/4
f 303/2/4 299/2/4 307/2/4
f 306/2/4 303/2/4 307/2/4
f 304/1/4 305/1/4 308/1/4
f 305/2/4 306/2/4 309/2/4
f 308/1/4 305/1/4 309/1/4
f 309/2/4 306/2/4 310/2/4
f 311/2/4 312/2/4 313/2/4
f 313/2/4 312/2/4 314/2/4
f 315/2/4 316/2/4 317/2/4
f 317/2/4 316/2/4 318/2/4
f 319/1/4 320/1/4 321/1/4
f 321/1/4 320/1/4 322/1/4
f 323/3/4 324/3/4 325/3/4
f 325/3/4 324/3/4 326/3/4
f 327/1/4 328/1/4 329/1/4
f 329/1/4 328/1/4 330/1/4
f 331/1/4 332/1/4 333/1/4
f 333/1/4 332/1/4 334/1/4
f 334/1/4 332/1/4 335/1/4
f 336/2/4 337/2/4 338/2/4
f 338/2/4 337/2/4 339/2/4
f 340/2/4 341/2/4 345/2/4
f 345/2/4 341/2/4 346/2/4
f 343/1/4 344/1/4 347/1/4
f 342/1/4 343/1/4 347/1/4
f 347/1/4 344/1/4 348/1/4
f 349/1/4 350/1/4 352/1/4
f 350/2/4 351/2/4 353/2/4
f 352/1/4 350/1/4 353/1/4
f 353/2/4 351/2/4 354/2/4
f 354/2/4 351/2/4 355/2/4
f 355/2/4 356/2/4 357/2/4
f 354/2/4 355/2/4 357/2/4
f 357/2/4 356/2/4 358/2/4
f 358/2/4 356/2/4 360/2/4
f 359/2/4 360/2/4 363/2/4
f 360/2/4 356/2/4 364/2/4
f 363/2/4 360/2/4 364/2/4
f 364/2/4 356/2/4 365/2/4
f 361/1/4 362/1/4 366/1/4
f 362/2/4 363/2/4 367/2/4
f 366/1/4 362/1/4 367/1/4
f 363/2/4 364/2/4 367/2/4
f 367/2/4 364/2/4 368/2/4
f 369/1/4 370/1/4 371/1/4
f 369/1/4 371/1/4 373/1/4
f 371/1/4 372/1/4 373/1/4
f 373/1/4 372/1/4 374/1/4
f 369/1/4 373/1/4 375/1/4
f 375/1/4 373/1/4 376/1/4
f 380/1/5 378/1/5 377/1/5
f 381/1/5 378/1/5 380/1/5
f 384/1/5 380/1/5 379/1/5
f 385/1/5 380/1/5 384/1/5
f 386/1/5 382/1/5 381/1/5
f 387/1/5 382/1/5 386/1/5
f 389/1/5 384/1/5 383/1/5
f 390/1/5 384/1/5 389/1/5
f 393/1/5 388/1/5 387/1/5
f 394/1/5 388/1/5 393/1/5
f 395/1/5 391/1/5 390/1/5
f 396/1/5 391/1/5 395/1/5
f 397/1/5 393/1/5 392/1/5
f 398/1/5 393/1/5 397/1/5
f 399/1/5 397/1/5 396/1/5
f 400/1/5 397/1/5 399/1/5
f 403/3/5 402/3/5 401/3/5
f 404/3/5 402/3/5 403/3/5
f 410/2/5 406/2/5 405/2/5
f 411/2/5 406/2/5 410/2/5
f 412/2/5 408/2/5 407/2/5
f 413/2/5 408/2/5 412/2/5
f 415/2/5 410/2/5 409/2/5
f 416/2/5 410/2/5 415/2/5
f 417/2/5 414/2/5 413/2/5
f 418/2/5 414/2/5 417/2/5
f 423/2/5 420/2/5 419/2/5
f 424/2/5 420/2/5 423/2/5
f 427/2/5 422/2/5 421/2/5
f 428/2/5 422/2/5 427/2/5
f 429/2/5 425/2/5 424/2/5
f 430/2/5 425/2/5 429/2/5
f 431/2/5 427/2/5 426/2/5
f 432/2/5 427/2/5 431/2/5
f 435/2/5 434/2/5 433/2/5
f 436/2/5 434/2/5 435/2/5
f 441/2/5 438/2/5 437/2/5
f 442/2/5 438/2/5 441/2/5
f 443/2/5 440/2/5 439/2/5
f 444/2/5 440/2/5 443/2/5
f 447/2/5 446/2/5 445/2/5
f 448/2/5 446/2/5 447/2/5
f 451/2/5 450/2/5 449/2/5
f 452/2/5 450/2/5 451/2/5
f 453/2/5 451/2/5 449/2/5
f 454/2/5 450/2/5 452/2/5
f 455/2/5 453/2/5 449/2/5
f 455/2/5 454/2/5 453/2/5
f 456/2/5 450/2/5 454/2/5
f 456/2/5 454/2/5 455/2/5
f 457/1/6 458/1/6 461/1/6
f 461/1/6 458/1/6 462/1/6
f 459/1/6 460/1/6 463/1/6
f 463/1/6 460/1/6 464/1/6
f 465/1/6 466/1/6 469/1/6
f 469/1/6 466/1/6 470/1/6
f 467/1/6 468/1/6 471/1/6
f 471/1/6 468/1/6 472/1/6
f 473/1/6 474/1/6 477/1/6
f 477/1/6 474/1/6 478/1/6
f 475/1/6 476/1/6 479/1/6
f 479/1/6 476/1/6 480/1/6
f 481/1/6 482/1/6 485/1/6
f 485/1/6 482/1/6 486/1/6
f 483/1/6 484/1/6 487/1/6
f 487/1/6 484/1/6 488/1/6
f 489/1/6 490/1/6 491/1/6
f 491/1/6 490/1/6 492/1/6
f 493/1/6 494/1/6 497/1/6
f 497/1/6 494/1/6 498/1/6
f 495/1/6 496/1/6 499/1/6
f 499/1/6 496/1/6 500/1/6
f 501/1/6 502/1/6 503/1/6
f 503/1/6 502/1/6 504/1/6
f 505/2/6 506/2/6 509/2/6
f 509/2/6 506/2/6 510/2/6
f 507/2/6 508/2/6 511/2/6
f 511/2/6 508/2/6 512/2/6
f 513/2/6 514/2/6 517/2/6
f 517/2/6 514/2/6 518/2/6
f 515/2/6 516/2/6 519/2/6
f 519/2/6 516/2/6 520/2/6
f 521/2/6 522/2/6 524/2/6
f 524/2/6 522/2/6 525/2/6
f 523/2/6 524/2/6 527/2/6
f 525/2/6 526/2/6 527/2/6
f 524/2/6 525/2/6 527/2/6
f 527/2/6 526/2/6 528/2/6
f 528/2/6 526/2/6 529/2/6
f 529/2/6 526/2/6 530/2/6
f 528/2/6 529/2/6 531/2/6
f 531/2/6 529/2/6 532/2/6
