# MagicaVoxel @ Ephtracy

# group
o 

# material
mtllib villageBarrel-0.mtl
usemtl palette

# normals
vn -1 0 0
vn 1 0 0
vn 0 0 1
vn 0 0 -1
vn 0 -1 0
vn 0 1 0

# texcoords
vt 0.142578 0.5
vt 0.177734 0.5
vt 0.181641 0.5
vt 0.244141 0.5

# verts
v -0.4 -0.4 0.2
v -0.4 -0.4 -0.2
v -0.4 -0.3 0.1
v -0.4 -0.3 -0.1
v -0.4 -0.2 0.2
v -0.4 -0.2 0.1
v -0.4 -0.2 -0.1
v -0.4 -0.2 -0.2
v -0.4 0 0.2
v -0.4 0 0.1
v -0.4 0 -0.1
v -0.4 0 -0.2
v -0.4 0.1 0.1
v -0.4 0.1 -0.1
v -0.4 0.2 0.2
v -0.4 0.2 -0.2
v -0.4 0.3 0.2
v -0.4 0.3 -0.2
v -0.4 0.4 0.2
v -0.4 0.4 -0.2
v -0.3 -0.6 0.2
v -0.3 -0.6 -0.2
v -0.3 -0.5 0.2
v -0.3 -0.5 -0.2
v -0.3 -0.4 0.3
v -0.3 -0.4 0.2
v -0.3 -0.4 -0.2
v -0.3 -0.4 -0.3
v -0.3 -0.3 0.1
v -0.3 -0.3 -0.1
v -0.3 -0.2 0.2
v -0.3 -0.2 0.1
v -0.3 -0.2 -0.1
v -0.3 -0.2 -0.2
v -0.3 0 0.2
v -0.3 0 0.1
v -0.3 0 -0.1
v -0.3 0 -0.2
v -0.3 0.1 0.1
v -0.3 0.1 -0.1
v -0.3 0.2 0.2
v -0.3 0.2 -0.2
v -0.3 0.3 0.2
v -0.3 0.3 -0.2
v -0.3 0.4 0.3
v -0.3 0.4 0.2
v -0.3 0.4 -0.2
v -0.3 0.4 -0.3
v -0.3 0.5 0.2
v -0.3 0.5 -0.2
v -0.2 -0.6 0.3
v -0.2 -0.6 0.2
v -0.2 -0.6 -0.2
v -0.2 -0.6 -0.3
v -0.2 -0.5 0.3
v -0.2 -0.5 0.2
v -0.2 -0.5 -0.2
v -0.2 -0.5 -0.3
v -0.2 -0.4 0.4
v -0.2 -0.4 0.3
v -0.2 -0.4 0.2
v -0.2 -0.4 -0.2
v -0.2 -0.4 -0.3
v -0.2 -0.4 -0.4
v -0.2 -0.2 0.4
v -0.2 -0.2 0.3
v -0.2 -0.2 -0.3
v -0.2 -0.2 -0.4
v -0.2 0 0.4
v -0.2 0 0.3
v -0.2 0 -0.3
v -0.2 0 -0.4
v -0.2 0.2 0.4
v -0.2 0.2 0.3
v -0.2 0.2 -0.3
v -0.2 0.2 -0.4
v -0.2 0.3 0.4
v -0.2 0.3 0.3
v -0.2 0.3 -0.3
v -0.2 0.3 -0.4
v -0.2 0.4 0.4
v -0.2 0.4 0.3
v -0.2 0.4 0.2
v -0.2 0.4 -0.2
v -0.2 0.4 -0.3
v -0.2 0.4 -0.4
v -0.2 0.5 0.3
v -0.2 0.5 0.2
v -0.2 0.5 -0.2
v -0.2 0.5 -0.3
v -0.1 0.5 0.1
v -0.1 0.5 0
v -0.1 0.6 0.1
v -0.1 0.6 0
v 0 0.5 0
v 0 0.5 -0.1
v 0 0.6 0
v 0 0.6 -0.1
v 0.1 -0.3 0.4
v 0.1 -0.3 0.3
v 0.1 -0.3 -0.3
v 0.1 -0.3 -0.4
v 0.1 -0.2 0.4
v 0.1 -0.2 0.3
v 0.1 -0.2 -0.3
v 0.1 -0.2 -0.4
v 0.1 0 0.4
v 0.1 0 0.3
v 0.1 0 -0.3
v 0.1 0 -0.4
v 0.1 0.1 0.4
v 0.1 0.1 0.3
v 0.1 0.1 -0.3
v 0.1 0.1 -0.4
v -0.1 -0.3 0.4
v -0.1 -0.3 0.3
v -0.1 -0.3 -0.3
v -0.1 -0.3 -0.4
v -0.1 -0.2 0.4
v -0.1 -0.2 0.3
v -0.1 -0.2 -0.3
v -0.1 -0.2 -0.4
v -0.1 0 0.4
v -0.1 0 0.3
v -0.1 0 -0.3
v -0.1 0 -0.4
v -0.1 0.1 0.4
v -0.1 0.1 0.3
v -0.1 0.1 -0.3
v -0.1 0.1 -0.4
v 0.1 0.5 0.1
v 0.1 0.5 -0.1
v 0.1 0.6 0.1
v 0.1 0.6 -0.1
v 0.2 -0.6 0.3
v 0.2 -0.6 0.2
v 0.2 -0.6 -0.2
v 0.2 -0.6 -0.3
v 0.2 -0.5 0.3
v 0.2 -0.5 0.2
v 0.2 -0.5 -0.2
v 0.2 -0.5 -0.3
v 0.2 -0.4 0.4
v 0.2 -0.4 0.3
v 0.2 -0.4 -0.3
v 0.2 -0.4 -0.4
v 0.2 -0.2 0.4
v 0.2 -0.2 0.3
v 0.2 -0.2 -0.3
v 0.2 -0.2 -0.4
v 0.2 0 0.4
v 0.2 0 0.3
v 0.2 0 -0.3
v 0.2 0 -0.4
v 0.2 0.2 0.4
v 0.2 0.2 0.3
v 0.2 0.2 -0.3
v 0.2 0.2 -0.4
v 0.2 0.3 0.4
v 0.2 0.3 0.3
v 0.2 0.3 -0.3
v 0.2 0.3 -0.4
v 0.2 0.4 0.4
v 0.2 0.4 0.3
v 0.2 0.4 0.2
v 0.2 0.4 -0.2
v 0.2 0.4 -0.3
v 0.2 0.4 -0.4
v 0.2 0.5 0.3
v 0.2 0.5 0.2
v 0.2 0.5 -0.2
v 0.2 0.5 -0.3
v 0.3 -0.6 0.2
v 0.3 -0.6 -0.2
v 0.3 -0.5 0.3
v 0.3 -0.5 0.2
v 0.3 -0.5 -0.2
v 0.3 -0.5 -0.3
v 0.3 -0.4 0.2
v 0.3 -0.4 -0.2
v 0.3 -0.3 0.1
v 0.3 -0.3 -0.1
v 0.3 -0.2 0.2
v 0.3 -0.2 0.1
v 0.3 -0.2 -0.1
v 0.3 -0.2 -0.2
v 0.3 0 0.2
v 0.3 0 0.1
v 0.3 0 -0.1
v 0.3 0 -0.2
v 0.3 0.1 0.1
v 0.3 0.1 -0.1
v 0.3 0.2 0.2
v 0.3 0.2 -0.2
v 0.3 0.3 0.2
v 0.3 0.3 -0.2
v 0.3 0.4 0.3
v 0.3 0.4 0.2
v 0.3 0.4 -0.2
v 0.3 0.4 -0.3
v 0.3 0.5 0.2
v 0.3 0.5 -0.2
v 0.4 -0.4 0.2
v 0.4 -0.4 -0.2
v 0.4 -0.3 0.1
v 0.4 -0.3 -0.1
v 0.4 -0.2 0.2
v 0.4 -0.2 0.1
v 0.4 -0.2 -0.1
v 0.4 -0.2 -0.2
v 0.4 0 0.2
v 0.4 0 0.1
v 0.4 0 -0.1
v 0.4 0 -0.2
v 0.4 0.1 0.1
v 0.4 0.1 -0.1
v 0.4 0.2 0.2
v 0.4 0.2 -0.2
v 0.4 0.3 0.2
v 0.4 0.3 -0.2
v 0.4 0.4 0.2
v 0.4 0.4 -0.2
v -0.2 -0.4 0.4
v -0.2 -0.2 0.4
v -0.2 0 0.4
v -0.2 0.2 0.4
v -0.2 0.3 0.4
v -0.2 0.4 0.4
v -0.1 -0.3 0.4
v -0.1 -0.2 0.4
v -0.1 0 0.4
v -0.1 0.1 0.4
v 0.1 -0.3 0.4
v 0.1 -0.2 0.4
v 0.1 0 0.4
v 0.1 0.1 0.4
v 0.2 -0.4 0.4
v 0.2 -0.2 0.4
v 0.2 0 0.4
v 0.2 0.2 0.4
v 0.2 0.3 0.4
v 0.2 0.4 0.4
v -0.3 -0.4 0.3
v -0.3 0.4 0.3
v -0.2 -0.6 0.3
v -0.2 -0.5 0.3
v -0.2 -0.4 0.3
v -0.2 -0.2 0.3
v -0.2 0 0.3
v -0.2 0.2 0.3
v -0.2 0.3 0.3
v -0.2 0.4 0.3
v -0.2 0.5 0.3
v -0.1 -0.3 0.3
v -0.1 -0.2 0.3
v -0.1 0 0.3
v -0.1 0.1 0.3
v 0.1 -0.3 0.3
v 0.1 -0.2 0.3
v 0.1 0 0.3
v 0.1 0.1 0.3
v 0.2 -0.6 0.3
v 0.2 -0.5 0.3
v 0.2 -0.4 0.3
v 0.2 -0.2 0.3
v 0.2 0 0.3
v 0.2 0.2 0.3
v 0.2 0.3 0.3
v 0.2 0.4 0.3
v 0.2 0.5 0.3
v 0.3 -0.5 0.3
v 0.3 0.4 0.3
v -0.4 -0.4 0.2
v -0.4 -0.2 0.2
v -0.4 0 0.2
v -0.4 0.2 0.2
v -0.4 0.3 0.2
v -0.4 0.4 0.2
v -0.3 -0.6 0.2
v -0.3 -0.5 0.2
v -0.3 -0.4 0.2
v -0.3 -0.2 0.2
v -0.3 0 0.2
v -0.3 0.2 0.2
v -0.3 0.3 0.2
v -0.3 0.4 0.2
v -0.3 0.5 0.2
v -0.2 -0.6 0.2
v -0.2 -0.5 0.2
v -0.2 -0.4 0.2
v -0.2 0.4 0.2
v -0.2 0.5 0.2
v 0.2 -0.6 0.2
v 0.2 -0.5 0.2
v 0.2 0.4 0.2
v 0.2 0.5 0.2
v 0.3 -0.6 0.2
v 0.3 -0.5 0.2
v 0.3 -0.4 0.2
v 0.3 -0.2 0.2
v 0.3 0 0.2
v 0.3 0.2 0.2
v 0.3 0.3 0.2
v 0.3 0.4 0.2
v 0.3 0.5 0.2
v 0.4 -0.4 0.2
v 0.4 -0.2 0.2
v 0.4 0 0.2
v 0.4 0.2 0.2
v 0.4 0.3 0.2
v 0.4 0.4 0.2
v -0.1 0.5 0.1
v -0.1 0.6 0.1
v 0.1 0.5 0.1
v 0.1 0.6 0.1
v -0.4 -0.3 -0.1
v -0.4 -0.2 -0.1
v -0.4 0 -0.1
v -0.4 0.1 -0.1
v -0.3 -0.3 -0.1
v -0.3 -0.2 -0.1
v -0.3 0 -0.1
v -0.3 0.1 -0.1
v 0.3 -0.3 -0.1
v 0.3 -0.2 -0.1
v 0.3 0 -0.1
v 0.3 0.1 -0.1
v 0.4 -0.3 -0.1
v 0.4 -0.2 -0.1
v 0.4 0 -0.1
v 0.4 0.1 -0.1
v -0.4 -0.3 0.1
v -0.4 -0.2 0.1
v -0.4 0 0.1
v -0.4 0.1 0.1
v -0.3 -0.3 0.1
v -0.3 -0.2 0.1
v -0.3 0 0.1
v -0.3 0.1 0.1
v 0.3 -0.3 0.1
v 0.3 -0.2 0.1
v 0.3 0 0.1
v 0.3 0.1 0.1
v 0.4 -0.3 0.1
v 0.4 -0.2 0.1
v 0.4 0 0.1
v 0.4 0.1 0.1
v -0.1 0.5 0
v -0.1 0.6 0
v 0 0.5 0
v 0 0.6 0
v 0 0.5 -0.1
v 0 0.6 -0.1
v 0.1 0.5 -0.1
v 0.1 0.6 -0.1
v -0.4 -0.4 -0.2
v -0.4 -0.2 -0.2
v -0.4 0 -0.2
v -0.4 0.2 -0.2
v -0.4 0.3 -0.2
v -0.4 0.4 -0.2
v -0.3 -0.6 -0.2
v -0.3 -0.5 -0.2
v -0.3 -0.4 -0.2
v -0.3 -0.2 -0.2
v -0.3 0 -0.2
v -0.3 0.2 -0.2
v -0.3 0.3 -0.2
v -0.3 0.4 -0.2
v -0.3 0.5 -0.2
v -0.2 -0.6 -0.2
v -0.2 -0.5 -0.2
v -0.2 -0.4 -0.2
v -0.2 0.4 -0.2
v -0.2 0.5 -0.2
v 0.2 -0.6 -0.2
v 0.2 -0.5 -0.2
v 0.2 0.4 -0.2
v 0.2 0.5 -0.2
v 0.3 -0.6 -0.2
v 0.3 -0.5 -0.2
v 0.3 -0.4 -0.2
v 0.3 -0.2 -0.2
v 0.3 0 -0.2
v 0.3 0.2 -0.2
v 0.3 0.3 -0.2
v 0.3 0.4 -0.2
v 0.3 0.5 -0.2
v 0.4 -0.4 -0.2
v 0.4 -0.2 -0.2
v 0.4 0 -0.2
v 0.4 0.2 -0.2
v 0.4 0.3 -0.2
v 0.4 0.4 -0.2
v -0.3 -0.4 -0.3
v -0.3 0.4 -0.3
v -0.2 -0.6 -0.3
v -0.2 -0.5 -0.3
v -0.2 -0.4 -0.3
v -0.2 -0.2 -0.3
v -0.2 0 -0.3
v -0.2 0.2 -0.3
v -0.2 0.3 -0.3
v -0.2 0.4 -0.3
v -0.2 0.5 -0.3
v -0.1 -0.3 -0.3
v -0.1 -0.2 -0.3
v -0.1 0 -0.3
v -0.1 0.1 -0.3
v 0.1 -0.3 -0.3
v 0.1 -0.2 -0.3
v 0.1 0 -0.3
v 0.1 0.1 -0.3
v 0.2 -0.6 -0.3
v 0.2 -0.5 -0.3
v 0.2 -0.4 -0.3
v 0.2 -0.2 -0.3
v 0.2 0 -0.3
v 0.2 0.2 -0.3
v 0.2 0.3 -0.3
v 0.2 0.4 -0.3
v 0.2 0.5 -0.3
v 0.3 -0.5 -0.3
v 0.3 0.4 -0.3
v -0.2 -0.4 -0.4
v -0.2 -0.2 -0.4
v -0.2 0 -0.4
v -0.2 0.2 -0.4
v -0.2 0.3 -0.4
v -0.2 0.4 -0.4
v -0.1 -0.3 -0.4
v -0.1 -0.2 -0.4
v -0.1 0 -0.4
v -0.1 0.1 -0.4
v 0.1 -0.3 -0.4
v 0.1 -0.2 -0.4
v 0.1 0 -0.4
v 0.1 0.1 -0.4
v 0.2 -0.4 -0.4
v 0.2 -0.2 -0.4
v 0.2 0 -0.4
v 0.2 0.2 -0.4
v 0.2 0.3 -0.4
v 0.2 0.4 -0.4
v -0.2 -0.6 0.3
v 0.2 -0.6 0.3
v -0.3 -0.6 0.2
v -0.2 -0.6 0.2
v 0.2 -0.6 0.2
v 0.3 -0.6 0.2
v -0.3 -0.6 -0.2
v -0.2 -0.6 -0.2
v 0.2 -0.6 -0.2
v 0.3 -0.6 -0.2
v -0.2 -0.6 -0.3
v 0.2 -0.6 -0.3
v 0.2 -0.5 0.3
v 0.3 -0.5 0.3
v 0.2 -0.5 0.2
v 0.3 -0.5 0.2
v 0.2 -0.5 -0.2
v 0.3 -0.5 -0.2
v 0.2 -0.5 -0.3
v 0.3 -0.5 -0.3
v -0.2 -0.4 0.4
v 0.2 -0.4 0.4
v -0.3 -0.4 0.3
v -0.2 -0.4 0.3
v 0.2 -0.4 0.3
v -0.4 -0.4 0.2
v -0.3 -0.4 0.2
v -0.2 -0.4 0.2
v 0.3 -0.4 0.2
v 0.4 -0.4 0.2
v -0.4 -0.4 -0.2
v -0.3 -0.4 -0.2
v -0.2 -0.4 -0.2
v 0.3 -0.4 -0.2
v 0.4 -0.4 -0.2
v -0.3 -0.4 -0.3
v -0.2 -0.4 -0.3
v 0.2 -0.4 -0.3
v -0.2 -0.4 -0.4
v 0.2 -0.4 -0.4
v -0.2 0 0.4
v -0.1 0 0.4
v 0.1 0 0.4
v 0.2 0 0.4
v -0.2 0 0.3
v -0.1 0 0.3
v 0.1 0 0.3
v 0.2 0 0.3
v -0.4 0 0.2
v -0.3 0 0.2
v 0.3 0 0.2
v 0.4 0 0.2
v -0.4 0 0.1
v -0.3 0 0.1
v 0.3 0 0.1
v 0.4 0 0.1
v -0.4 0 -0.1
v -0.3 0 -0.1
v 0.3 0 -0.1
v 0.4 0 -0.1
v -0.4 0 -0.2
v -0.3 0 -0.2
v 0.3 0 -0.2
v 0.4 0 -0.2
v -0.2 0 -0.3
v -0.1 0 -0.3
v 0.1 0 -0.3
v 0.2 0 -0.3
v -0.2 0 -0.4
v -0.1 0 -0.4
v 0.1 0 -0.4
v 0.2 0 -0.4
v -0.1 0.1 0.4
v 0.1 0.1 0.4
v -0.1 0.1 0.3
v 0.1 0.1 0.3
v -0.4 0.1 0.1
v -0.3 0.1 0.1
v 0.3 0.1 0.1
v 0.4 0.1 0.1
v -0.4 0.1 -0.1
v -0.3 0.1 -0.1
v 0.3 0.1 -0.1
v 0.4 0.1 -0.1
v -0.1 0.1 -0.3
v 0.1 0.1 -0.3
v -0.1 0.1 -0.4
v 0.1 0.1 -0.4
v -0.2 0.3 0.4
v 0.2 0.3 0.4
v -0.2 0.3 0.3
v 0.2 0.3 0.3
v -0.4 0.3 0.2
v -0.3 0.3 0.2
v 0.3 0.3 0.2
v 0.4 0.3 0.2
v -0.4 0.3 -0.2
v -0.3 0.3 -0.2
v 0.3 0.3 -0.2
v 0.4 0.3 -0.2
v -0.2 0.3 -0.3
v 0.2 0.3 -0.3
v -0.2 0.3 -0.4
v 0.2 0.3 -0.4
v -0.1 -0.3 0.4
v 0.1 -0.3 0.4
v -0.1 -0.3 0.3
v 0.1 -0.3 0.3
v -0.4 -0.3 0.1
v -0.3 -0.3 0.1
v 0.3 -0.3 0.1
v 0.4 -0.3 0.1
v -0.4 -0.3 -0.1
v -0.3 -0.3 -0.1
v 0.3 -0.3 -0.1
v 0.4 -0.3 -0.1
v -0.1 -0.3 -0.3
v 0.1 -0.3 -0.3
v -0.1 -0.3 -0.4
v 0.1 -0.3 -0.4
v -0.2 -0.2 0.4
v -0.1 -0.2 0.4
v 0.1 -0.2 0.4
v 0.2 -0.2 0.4
v -0.2 -0.2 0.3
v -0.1 -0.2 0.3
v 0.1 -0.2 0.3
v 0.2 -0.2 0.3
v -0.4 -0.2 0.2
v -0.3 -0.2 0.2
v 0.3 -0.2 0.2
v 0.4 -0.2 0.2
v -0.4 -0.2 0.1
v -0.3 -0.2 0.1
v 0.3 -0.2 0.1
v 0.4 -0.2 0.1
v -0.4 -0.2 -0.1
v -0.3 -0.2 -0.1
v 0.3 -0.2 -0.1
v 0.4 -0.2 -0.1
v -0.4 -0.2 -0.2
v -0.3 -0.2 -0.2
v 0.3 -0.2 -0.2
v 0.4 -0.2 -0.2
v -0.2 -0.2 -0.3
v -0.1 -0.2 -0.3
v 0.1 -0.2 -0.3
v 0.2 -0.2 -0.3
v -0.2 -0.2 -0.4
v -0.1 -0.2 -0.4
v 0.1 -0.2 -0.4
v 0.2 -0.2 -0.4
v -0.2 0.2 0.4
v 0.2 0.2 0.4
v -0.2 0.2 0.3
v 0.2 0.2 0.3
v -0.4 0.2 0.2
v -0.3 0.2 0.2
v 0.3 0.2 0.2
v 0.4 0.2 0.2
v -0.4 0.2 -0.2
v -0.3 0.2 -0.2
v 0.3 0.2 -0.2
v 0.4 0.2 -0.2
v -0.2 0.2 -0.3
v 0.2 0.2 -0.3
v -0.2 0.2 -0.4
v 0.2 0.2 -0.4
v -0.2 0.4 0.4
v 0.2 0.4 0.4
v -0.3 0.4 0.3
v -0.2 0.4 0.3
v 0.2 0.4 0.3
v 0.3 0.4 0.3
v -0.4 0.4 0.2
v -0.3 0.4 0.2
v -0.2 0.4 0.2
v 0.2 0.4 0.2
v 0.3 0.4 0.2
v 0.4 0.4 0.2
v -0.4 0.4 -0.2
v -0.3 0.4 -0.2
v -0.2 0.4 -0.2
v 0.2 0.4 -0.2
v 0.3 0.4 -0.2
v 0.4 0.4 -0.2
v -0.3 0.4 -0.3
v -0.2 0.4 -0.3
v 0.2 0.4 -0.3
v 0.3 0.4 -0.3
v -0.2 0.4 -0.4
v 0.2 0.4 -0.4
v -0.2 0.5 0.3
v 0.2 0.5 0.3
v -0.3 0.5 0.2
v -0.2 0.5 0.2
v 0.2 0.5 0.2
v 0.3 0.5 0.2
v -0.1 0.5 0.1
v 0.1 0.5 0.1
v -0.1 0.5 0
v 0 0.5 0
v 0 0.5 -0.1
v 0.1 0.5 -0.1
v -0.3 0.5 -0.2
v -0.2 0.5 -0.2
v 0.2 0.5 -0.2
v 0.3 0.5 -0.2
v -0.2 0.5 -0.3
v 0.2 0.5 -0.3
v -0.1 0.6 0.1
v 0.1 0.6 0.1
v -0.1 0.6 0
v 0 0.6 0
v 0 0.6 -0.1
v 0.1 0.6 -0.1

# faces
f 3/2/1 2/2/1 1/2/1
f 4/2/1 2/2/1 3/2/1
f 5/2/1 3/2/1 1/2/1
f 6/2/1 3/2/1 5/2/1
f 7/2/1 2/2/1 4/2/1
f 8/2/1 2/2/1 7/2/1
f 13/2/1 10/2/1 9/2/1
f 14/2/1 12/2/1 11/2/1
f 15/2/1 13/2/1 9/2/1
f 15/2/1 14/2/1 13/2/1
f 16/2/1 12/2/1 14/2/1
f 16/2/1 14/2/1 15/2/1
f 19/2/1 18/2/1 17/2/1
f 20/2/1 18/2/1 19/2/1
f 23/2/1 22/2/1 21/2/1
f 24/2/1 22/2/1 23/2/1
f 26/3/1 24/3/1 23/3/1
f 27/3/1 24/3/1 26/3/1
f 31/2/1 26/2/1 25/2/1
f 32/3/1 30/3/1 29/3/1
f 33/3/1 30/3/1 32/3/1
f 34/2/1 28/2/1 27/2/1
f 35/3/1 33/3/1 32/3/1
f 35/3/1 34/3/1 33/3/1
f 35/2/1 31/2/1 25/2/1
f 35/3/1 32/3/1 31/3/1
f 36/3/1 34/3/1 35/3/1
f 37/3/1 34/3/1 36/3/1
f 38/2/1 28/2/1 34/2/1
f 38/3/1 34/3/1 37/3/1
f 39/3/1 37/3/1 36/3/1
f 40/3/1 37/3/1 39/3/1
f 41/2/1 35/2/1 25/2/1
f 42/2/1 28/2/1 38/2/1
f 43/2/1 41/2/1 25/2/1
f 43/3/1 42/3/1 41/3/1
f 44/2/1 28/2/1 42/2/1
f 44/3/1 42/3/1 43/3/1
f 45/2/1 43/2/1 25/2/1
f 46/2/1 43/2/1 45/2/1
f 47/2/1 28/2/1 44/2/1
f 48/2/1 28/2/1 47/2/1
f 49/1/1 47/1/1 46/1/1
f 50/1/1 47/1/1 49/1/1
f 55/2/1 52/2/1 51/2/1
f 56/2/1 52/2/1 55/2/1
f 57/2/1 54/2/1 53/2/1
f 58/2/1 54/2/1 57/2/1
f 60/3/1 56/3/1 55/3/1
f 61/3/1 56/3/1 60/3/1
f 62/3/1 58/3/1 57/3/1
f 63/3/1 58/3/1 62/3/1
f 65/2/1 60/2/1 59/2/1
f 66/2/1 60/2/1 65/2/1
f 67/2/1 64/2/1 63/2/1
f 68/2/1 64/2/1 67/2/1
f 73/2/1 70/2/1 69/2/1
f 74/2/1 70/2/1 73/2/1
f 75/2/1 72/2/1 71/2/1
f 76/2/1 72/2/1 75/2/1
f 81/2/1 78/2/1 77/2/1
f 82/2/1 78/2/1 81/2/1
f 85/2/1 80/2/1 79/2/1
f 86/2/1 80/2/1 85/2/1
f 87/1/1 83/1/1 82/1/1
f 88/1/1 83/1/1 87/1/1
f 89/1/1 85/1/1 84/1/1
f 90/1/1 85/1/1 89/1/1
f 93/4/1 92/4/1 91/4/1
f 94/4/1 92/4/1 93/4/1
f 97/4/1 96/4/1 95/4/1
f 98/4/1 96/4/1 97/4/1
f 103/2/1 100/2/1 99/2/1
f 104/2/1 100/2/1 103/2/1
f 105/2/1 102/2/1 101/2/1
f 106/2/1 102/2/1 105/2/1
f 111/2/1 108/2/1 107/2/1
f 112/2/1 108/2/1 111/2/1
f 113/2/1 110/2/1 109/2/1
f 114/2/1 110/2/1 113/2/1
f 115/2/2 116/2/2 119/2/2
f 119/2/2 116/2/2 120/2/2
f 117/2/2 118/2/2 121/2/2
f 121/2/2 118/2/2 122/2/2
f 123/2/2 124/2/2 127/2/2
f 127/2/2 124/2/2 128/2/2
f 125/2/2 126/2/2 129/2/2
f 129/2/2 126/2/2 130/2/2
f 131/4/2 132/4/2 133/4/2
f 133/4/2 132/4/2 134/4/2
f 135/2/2 136/2/2 139/2/2
f 139/2/2 136/2/2 140/2/2
f 137/2/2 138/2/2 141/2/2
f 141/2/2 138/2/2 142/2/2
f 143/2/2 144/2/2 147/2/2
f 147/2/2 144/2/2 148/2/2
f 145/2/2 146/2/2 149/2/2
f 149/2/2 146/2/2 150/2/2
f 151/2/2 152/2/2 155/2/2
f 155/2/2 152/2/2 156/2/2
f 153/2/2 154/2/2 157/2/2
f 157/2/2 154/2/2 158/2/2
f 159/2/2 160/2/2 163/2/2
f 163/2/2 160/2/2 164/2/2
f 161/2/2 162/2/2 167/2/2
f 167/2/2 162/2/2 168/2/2
f 164/1/2 165/1/2 169/1/2
f 169/1/2 165/1/2 170/1/2
f 166/1/2 167/1/2 171/1/2
f 171/1/2 167/1/2 172/1/2
f 173/2/2 174/2/2 176/2/2
f 176/2/2 174/2/2 177/2/2
f 175/2/2 176/2/2 179/2/2
f 176/3/2 177/3/2 179/3/2
f 177/2/2 178/2/2 180/2/2
f 179/3/2 177/3/2 180/3/2
f 175/2/2 179/2/2 183/2/2
f 181/3/2 182/3/2 184/3/2
f 184/3/2 182/3/2 185/3/2
f 180/2/2 178/2/2 186/2/2
f 175/2/2 183/2/2 187/2/2
f 185/3/2 186/3/2 187/3/2
f 184/3/2 185/3/2 187/3/2
f 183/3/2 184/3/2 187/3/2
f 187/3/2 186/3/2 188/3/2
f 188/3/2 186/3/2 189/3/2
f 186/2/2 178/2/2 190/2/2
f 189/3/2 186/3/2 190/3/2
f 188/3/2 189/3/2 191/3/2
f 191/3/2 189/3/2 192/3/2
f 175/2/2 187/2/2 193/2/2
f 190/2/2 178/2/2 194/2/2
f 175/2/2 193/2/2 195/2/2
f 193/3/2 194/3/2 195/3/2
f 194/2/2 178/2/2 196/2/2
f 195/3/2 194/3/2 196/3/2
f 175/2/2 195/2/2 197/2/2
f 197/2/2 195/2/2 198/2/2
f 196/2/2 178/2/2 199/2/2
f 199/2/2 178/2/2 200/2/2
f 198/1/2 199/1/2 201/1/2
f 201/1/2 199/1/2 202/1/2
f 203/2/2 204/2/2 205/2/2
f 205/2/2 204/2/2 206/2/2
f 203/2/2 205/2/2 207/2/2
f 207/2/2 205/2/2 208/2/2
f 206/2/2 204/2/2 209/2/2
f 209/2/2 204/2/2 210/2/2
f 211/2/2 212/2/2 215/2/2
f 213/2/2 214/2/2 216/2/2
f 211/2/2 215/2/2 217/2/2
f 215/2/2 216/2/2 217/2/2
f 216/2/2 214/2/2 218/2/2
f 217/2/2 216/2/2 218/2/2
f 219/2/2 220/2/2 221/2/2
f 221/2/2 220/2/2 222/2/2
f 229/2/3 224/2/3 223/2/3
f 230/2/3 224/2/3 229/2/3
f 231/2/3 226/2/3 225/2/3
f 232/2/3 226/2/3 231/2/3
f 233/2/3 229/2/3 223/2/3
f 236/2/3 226/2/3 232/2/3
f 237/2/3 234/2/3 233/2/3
f 237/2/3 233/2/3 223/2/3
f 238/2/3 234/2/3 237/2/3
f 239/2/3 236/2/3 235/2/3
f 240/2/3 226/2/3 236/2/3
f 240/2/3 236/2/3 239/2/3
f 241/2/3 228/2/3 227/2/3
f 242/2/3 228/2/3 241/2/3
f 247/2/3 244/2/3 243/2/3
f 248/2/3 244/2/3 247/2/3
f 249/2/3 244/2/3 248/2/3
f 250/2/3 244/2/3 249/2/3
f 251/2/3 244/2/3 250/2/3
f 252/2/3 244/2/3 251/2/3
f 255/3/3 249/3/3 248/3/3
f 256/3/3 249/3/3 255/3/3
f 258/3/3 255/3/3 254/3/3
f 258/3/3 257/3/3 256/3/3
f 258/3/3 256/3/3 255/3/3
f 259/3/3 257/3/3 258/3/3
f 260/3/3 257/3/3 259/3/3
f 261/3/3 257/3/3 260/3/3
f 262/2/3 246/2/3 245/2/3
f 263/3/3 247/3/3 246/3/3
f 263/2/3 246/2/3 262/2/3
f 264/3/3 247/3/3 263/3/3
f 265/3/3 260/3/3 259/3/3
f 266/3/3 260/3/3 265/3/3
f 267/3/3 251/3/3 250/3/3
f 268/3/3 251/3/3 267/3/3
f 269/1/3 253/1/3 252/1/3
f 270/1/3 253/1/3 269/1/3
f 271/2/3 266/2/3 265/2/3
f 271/2/3 268/2/3 267/2/3
f 271/2/3 269/2/3 268/2/3
f 271/2/3 265/2/3 264/2/3
f 271/2/3 267/2/3 266/2/3
f 271/2/3 264/2/3 263/2/3
f 272/2/3 269/2/3 271/2/3
f 281/2/3 274/2/3 273/2/3
f 282/2/3 274/2/3 281/2/3
f 283/2/3 276/2/3 275/2/3
f 284/2/3 276/2/3 283/2/3
f 285/2/3 278/2/3 277/2/3
f 286/2/3 278/2/3 285/2/3
f 288/2/3 280/2/3 279/2/3
f 289/3/3 281/3/3 280/3/3
f 289/2/3 280/2/3 288/2/3
f 290/3/3 281/3/3 289/3/3
f 291/1/3 287/1/3 286/1/3
f 292/1/3 287/1/3 291/1/3
f 297/2/3 294/2/3 293/2/3
f 298/2/3 294/2/3 297/2/3
f 304/1/3 296/1/3 295/1/3
f 305/1/3 296/1/3 304/1/3
f 306/2/3 300/2/3 299/2/3
f 307/2/3 300/2/3 306/2/3
f 308/2/3 302/2/3 301/2/3
f 309/2/3 302/2/3 308/2/3
f 310/2/3 304/2/3 303/2/3
f 311/2/3 304/2/3 310/2/3
f 314/4/3 313/4/3 312/4/3
f 315/4/3 313/4/3 314/4/3
f 320/2/3 317/2/3 316/2/3
f 321/2/3 317/2/3 320/2/3
f 322/2/3 319/2/3 318/2/3
f 323/2/3 319/2/3 322/2/3
f 328/2/3 325/2/3 324/2/3
f 329/2/3 325/2/3 328/2/3
f 330/2/3 327/2/3 326/2/3
f 331/2/3 327/2/3 330/2/3
f 332/2/4 333/2/4 336/2/4
f 336/2/4 333/2/4 337/2/4
f 334/2/4 335/2/4 338/2/4
f 338/2/4 335/2/4 339/2/4
f 340/2/4 341/2/4 344/2/4
f 344/2/4 341/2/4 345/2/4
f 342/2/4 343/2/4 346/2/4
f 346/2/4 343/2/4 347/2/4
f 348/4/4 349/4/4 350/4/4
f 350/4/4 349/4/4 351/4/4
f 352/4/4 353/4/4 354/4/4
f 354/4/4 353/4/4 355/4/4
f 356/2/4 357/2/4 364/2/4
f 364/2/4 357/2/4 365/2/4
f 358/2/4 359/2/4 366/2/4
f 366/2/4 359/2/4 367/2/4
f 360/2/4 361/2/4 368/2/4
f 368/2/4 361/2/4 369/2/4
f 362/2/4 363/2/4 371/2/4
f 363/3/4 364/3/4 372/3/4
f 371/2/4 363/2/4 372/2/4
f 372/3/4 364/3/4 373/3/4
f 369/1/4 370/1/4 374/1/4
f 374/1/4 370/1/4 375/1/4
f 376/2/4 377/2/4 380/2/4
f 380/2/4 377/2/4 381/2/4
f 378/1/4 379/1/4 387/1/4
f 387/1/4 379/1/4 388/1/4
f 382/2/4 383/2/4 389/2/4
f 389/2/4 383/2/4 390/2/4
f 384/2/4 385/2/4 391/2/4
f 391/2/4 385/2/4 392/2/4
f 386/2/4 387/2/4 393/2/4
f 393/2/4 387/2/4 394/2/4
f 395/2/4 396/2/4 399/2/4
f 399/2/4 396/2/4 400/2/4
f 400/2/4 396/2/4 401/2/4
f 401/2/4 396/2/4 402/2/4
f 402/2/4 396/2/4 403/2/4
f 403/2/4 396/2/4 404/2/4
f 400/3/4 401/3/4 407/3/4
f 407/3/4 401/3/4 408/3/4
f 406/3/4 407/3/4 410/3/4
f 408/3/4 409/3/4 410/3/4
f 407/3/4 408/3/4 410/3/4
f 410/3/4 409/3/4 411/3/4
f 411/3/4 409/3/4 412/3/4
f 412/3/4 409/3/4 413/3/4
f 397/2/4 398/2/4 414/2/4
f 398/3/4 399/3/4 415/3/4
f 414/2/4 398/2/4 415/2/4
f 415/3/4 399/3/4 416/3/4
f 411/3/4 412/3/4 417/3/4
f 417/3/4 412/3/4 418/3/4
f 402/3/4 403/3/4 419/3/4
f 419/3/4 403/3/4 420/3/4
f 404/1/4 405/1/4 421/1/4
f 421/1/4 405/1/4 422/1/4
f 417/2/4 418/2/4 423/2/4
f 419/2/4 420/2/4 423/2/4
f 420/2/4 421/2/4 423/2/4
f 416/2/4 417/2/4 423/2/4
f 418/2/4 419/2/4 423/2/4
f 415/2/4 416/2/4 423/2/4
f 423/2/4 421/2/4 424/2/4
f 425/2/4 426/2/4 431/2/4
f 431/2/4 426/2/4 432/2/4
f 427/2/4 428/2/4 433/2/4
f 433/2/4 428/2/4 434/2/4
f 425/2/4 431/2/4 435/2/4
f 434/2/4 428/2/4 438/2/4
f 435/2/4 436/2/4 439/2/4
f 425/2/4 435/2/4 439/2/4
f 439/2/4 436/2/4 440/2/4
f 437/2/4 438/2/4 441/2/4
f 438/2/4 428/2/4 442/2/4
f 441/2/4 438/2/4 442/2/4
f 429/2/4 430/2/4 443/2/4
f 443/2/4 430/2/4 444/2/4
f 448/2/5 446/2/5 445/2/5
f 449/2/5 446/2/5 448/2/5
f 451/2/5 448/2/5 447/2/5
f 452/3/5 449/3/5 448/3/5
f 452/2/5 448/2/5 451/2/5
f 453/2/5 450/2/5 449/2/5
f 453/3/5 449/3/5 452/3/5
f 454/2/5 450/2/5 453/2/5
f 455/2/5 453/2/5 452/2/5
f 456/2/5 453/2/5 455/2/5
f 459/2/5 458/2/5 457/2/5
f 460/2/5 458/2/5 459/2/5
f 463/2/5 462/2/5 461/2/5
f 464/2/5 462/2/5 463/2/5
f 468/2/5 466/2/5 465/2/5
f 469/2/5 466/2/5 468/2/5
f 471/2/5 468/2/5 467/2/5
f 472/2/5 468/2/5 471/2/5
f 475/2/5 471/2/5 470/2/5
f 476/2/5 471/2/5 475/2/5
f 478/2/5 474/2/5 473/2/5
f 479/2/5 474/2/5 478/2/5
f 480/2/5 477/2/5 476/2/5
f 481/2/5 477/2/5 480/2/5
f 483/2/5 482/2/5 481/2/5
f 484/2/5 482/2/5 483/2/5
f 489/2/5 486/2/5 485/2/5
f 490/2/5 486/2/5 489/2/5
f 491/2/5 488/2/5 487/2/5
f 492/2/5 488/2/5 491/2/5
f 497/2/5 494/2/5 493/2/5
f 498/2/5 494/2/5 497/2/5
f 499/2/5 496/2/5 495/2/5
f 500/2/5 496/2/5 499/2/5
f 505/2/5 502/2/5 501/2/5
f 506/2/5 502/2/5 505/2/5
f 507/2/5 504/2/5 503/2/5
f 508/2/5 504/2/5 507/2/5
f 513/2/5 510/2/5 509/2/5
f 514/2/5 510/2/5 513/2/5
f 515/2/5 512/2/5 511/2/5
f 516/2/5 512/2/5 515/2/5
f 519/2/5 518/2/5 517/2/5
f 520/2/5 518/2/5 519/2/5
f 525/2/5 522/2/5 521/2/5
f 526/2/5 522/2/5 525/2/5
f 527/2/5 524/2/5 523/2/5
f 528/2/5 524/2/5 527/2/5
f 531/2/5 530/2/5 529/2/5
f 532/2/5 530/2/5 531/2/5
f 535/2/5 534/2/5 533/2/5
f 536/2/5 534/2/5 535/2/5
f 541/2/5 538/2/5 537/2/5
f 542/2/5 538/2/5 541/2/5
f 543/2/5 540/2/5 539/2/5
f 544/2/5 540/2/5 543/2/5
f 547/2/5 546/2/5 545/2/5
f 548/2/5 546/2/5 547/2/5
f 549/2/6 550/2/6 551/2/6
f 551/2/6 550/2/6 552/2/6
f 553/2/6 554/2/6 557/2/6
f 557/2/6 554/2/6 558/2/6
f 555/2/6 556/2/6 559/2/6
f 559/2/6 556/2/6 560/2/6
f 561/2/6 562/2/6 563/2/6
f 563/2/6 562/2/6 564/2/6
f 565/2/6 566/2/6 569/2/6
f 569/2/6 566/2/6 570/2/6
f 567/2/6 568/2/6 571/2/6
f 571/2/6 568/2/6 572/2/6
f 573/2/6 574/2/6 577/2/6
f 577/2/6 574/2/6 578/2/6
f 575/2/6 576/2/6 579/2/6
f 579/2/6 576/2/6 580/2/6
f 581/2/6 582/2/6 585/2/6
f 585/2/6 582/2/6 586/2/6
f 583/2/6 584/2/6 587/2/6
f 587/2/6 584/2/6 588/2/6
f 589/2/6 590/2/6 593/2/6
f 593/2/6 590/2/6 594/2/6
f 591/2/6 592/2/6 595/2/6
f 595/2/6 592/2/6 596/2/6
f 597/2/6 598/2/6 599/2/6
f 599/2/6 598/2/6 600/2/6
f 601/2/6 602/2/6 605/2/6
f 605/2/6 602/2/6 606/2/6
f 603/2/6 604/2/6 607/2/6
f 607/2/6 604/2/6 608/2/6
f 609/2/6 610/2/6 611/2/6
f 611/2/6 610/2/6 612/2/6
f 613/2/6 614/2/6 616/2/6
f 616/2/6 614/2/6 617/2/6
f 615/2/6 616/2/6 620/2/6
f 620/2/6 616/2/6 621/2/6
f 617/2/6 618/2/6 622/2/6
f 622/2/6 618/2/6 623/2/6
f 619/2/6 620/2/6 625/2/6
f 625/2/6 620/2/6 626/2/6
f 623/2/6 624/2/6 629/2/6
f 629/2/6 624/2/6 630/2/6
f 626/2/6 627/2/6 631/2/6
f 631/2/6 627/2/6 632/2/6
f 628/2/6 629/2/6 633/2/6
f 633/2/6 629/2/6 634/2/6
f 632/2/6 633/2/6 635/2/6
f 635/2/6 633/2/6 636/2/6
f 637/1/6 638/1/6 640/1/6
f 640/1/6 638/1/6 641/1/6
f 639/1/6 640/1/6 643/1/6
f 641/1/6 642/1/6 643/1/6
f 640/1/6 641/1/6 643/1/6
f 643/1/6 642/1/6 644/1/6
f 639/1/6 643/1/6 645/1/6
f 645/1/6 646/1/6 647/1/6
f 644/1/6 642/1/6 648/1/6
f 645/1/6 647/1/6 649/1/6
f 647/1/6 648/1/6 649/1/6
f 639/1/6 645/1/6 649/1/6
f 649/1/6 648/1/6 650/1/6
f 648/1/6 642/1/6 651/1/6
f 650/1/6 648/1/6 651/1/6
f 651/1/6 642/1/6 652/1/6
f 650/1/6 651/1/6 653/1/6
f 653/1/6 651/1/6 654/1/6
f 655/4/6 656/4/6 657/4/6
f 657/4/6 656/4/6 658/4/6
f 658/4/6 656/4/6 659/4/6
f 659/4/6 656/4/6 660/4/6
